  0
SECTION
  2
HEADER
  9
$ACADVER
  1
AC1014
  9
$ACADMAINTVER
 70
     9
  9
$DWGCODEPAGE
  3
ANSI_1252
  9
$INSBASE
 10
0.0
 20
0.0
 30
0.0
  9
$EXTMIN
 10
0.0
 20
0.0
 30
0.0
  9
$EXTMAX
 10
2440.0
 20
1220.0
 30
0.0
  9
$LIMMIN
 10
0.0
 20
0.0
  9
$LIMMAX
 10
2440.0
 20
1220.0
  9
$ORTHOMODE
 70
     0
  9
$REGENMODE
 70
     1
  9
$FILLMODE
 70
     1
  9
$QTEXTMODE
 70
     0
  9
$MIRRTEXT
 70
     1
  9
$DRAGMODE
 70
     2
  9
$LTSCALE
 40
1.0
  9
$OSMODE
 70
    37
  9
$ATTMODE
 70
     1
  9
$TEXTSIZE
 40
3.5
  9
$TRACEWID
 40
1.0
  9
$TEXTSTYLE
  7
STANDARD
  9
$CLAYER
  8
0
  9
$CELTYPE
  6
BYLAYER
  9
$CECOLOR
 62
   256
  9
$CELTSCALE
 40
1.0
  9
$DELOBJ
 70
     1
  9
$DISPSILH
 70
     0
  9
$DIMSCALE
 40
1.0
  9
$DIMASZ
 40
3.302
  9
$DIMEXO
 40
1.0
  9
$DIMDLI
 40
3.75
  9
$DIMRND
 40
0.0
  9
$DIMDLE
 40
0.0
  9
$DIMEXE
 40
1.0
  9
$DIMTP
 40
0.0
  9
$DIMTM
 40
0.0
  9
$DIMTXT
 40
4.5861111111
  9
$DIMCEN
 40
2.5
  9
$DIMTSZ
 40
0.0
  9
$DIMTOL
 70
     0
  9
$DIMLIM
 70
     0
  9
$DIMTIH
 70
     1
  9
$DIMTOH
 70
     1
  9
$DIMSE1
 70
     0
  9
$DIMSE2
 70
     0
  9
$DIMTAD
 70
     1
  9
$DIMZIN
 70
     0
  9
$DIMBLK
  1

  9
$DIMASO
 70
     1
  9
$DIMSHO
 70
     1
  9
$DIMPOST
  1

  9
$DIMAPOST
  1

  9
$DIMALT
 70
     0
  9
$DIMALTD
 70
     3
  9
$DIMALTF
 40
0.0393700787
  9
$DIMLFAC
 40
1.0
  9
$DIMTOFL
 70
     1
  9
$DIMTVP
 40
0.0
  9
$DIMTIX
 70
     0
  9
$DIMSOXD
 70
     0
  9
$DIMSAH
 70
     0
  9
$DIMBLK1
  1

  9
$DIMBLK2
  1

  9
$DIMSTYLE
  2
ISO-25
  9
$DIMCLRD
 70
     0
  9
$DIMCLRE
 70
     0
  9
$DIMCLRT
 70
     0
  9
$DIMTFAC
 40
1.0
  9
$DIMGAP
 40
1.524
  9
$DIMJUST
 70
     0
  9
$DIMSD1
 70
     0
  9
$DIMSD2
 70
     0
  9
$DIMTOLJ
 70
     0
  9
$DIMTZIN
 70
     0
  9
$DIMALTZ
 70
     0
  9
$DIMALTTZ
 70
     0
  9
$DIMFIT
 70
     3
  9
$DIMUPT
 70
     0
  9
$DIMUNIT
 70
     2
  9
$DIMDEC
 70
     2
  9
$DIMTDEC
 70
     2
  9
$DIMALTU
 70
     2
  9
$DIMALTTD
 70
     3
  9
$DIMTXSTY
  7
STANDARD
  9
$DIMAUNIT
 70
     0
  9
$LUNITS
 70
     2
  9
$LUPREC
 70
     2
  9
$SKETCHINC
 40
1.0
  9
$FILLETRAD
 40
10.0
  9
$AUNITS
 70
     0
  9
$AUPREC
 70
     2
  9
$MENU
  1
.
  9
$ELEVATION
 40
0.0
  9
$PELEVATION
 40
0.0
  9
$THICKNESS
 40
0.0
  9
$LIMCHECK
 70
     0
  9
$CHAMFERA
 40
0.0
  9
$CHAMFERB
 40
0.0
  9
$CHAMFERC
 40
0.0
  9
$CHAMFERD
 40
0.0
  9
$SKPOLY
 70
     0
  9
$TDCREATE
 40
2457718.749144896
  9
$TDUPDATE
 40
2457718.749145243
  9
$TDINDWG
 40
0.0000000116
  9
$TDUSRTIMER
 40
0.0000000116
  9
$USRTIMER
 70
     1
  9
$ANGBASE
 50
0.0
  9
$ANGDIR
 70
     0
  9
$PDMODE
 70
     0
  9
$PDSIZE
 40
-1.0
  9
$PLINEWID
 40
0.0
  9
$COORDS
 70
     1
  9
$SPLFRAME
 70
     0
  9
$SPLINETYPE
 70
     6
  9
$SPLINESEGS
 70
     8
  9
$ATTDIA
 70
     0
  9
$ATTREQ
 70
     1
  9
$HANDLING
 70
     1
  9
$HANDSEED
  5
395
  9
$SURFTAB1
 70
     6
  9
$SURFTAB2
 70
     6
  9
$SURFTYPE
 70
     6
  9
$SURFU
 70
     6
  9
$SURFV
 70
     6
  9
$UCSNAME
  2

  9
$UCSORG
 10
0.0
 20
0.0
 30
0.0
  9
$UCSXDIR
 10
1.0
 20
0.0
 30
0.0
  9
$UCSYDIR
 10
0.0
 20
1.0
 30
0.0
  9
$PUCSNAME
  2

  9
$PUCSORG
 10
0.0
 20
0.0
 30
0.0
  9
$PUCSXDIR
 10
1.0
 20
0.0
 30
0.0
  9
$PUCSYDIR
 10
0.0
 20
1.0
 30
0.0
  9
$USERI1
 70
     0
  9
$USERI2
 70
     0
  9
$USERI3
 70
     0
  9
$USERI4
 70
     0
  9
$USERI5
 70
     0
  9
$USERR1
 40
0.0
  9
$USERR2
 40
0.0
  9
$USERR3
 40
0.0
  9
$USERR4
 40
0.0
  9
$USERR5
 40
0.0
  9
$WORLDVIEW
 70
     1
  9
$SHADEDGE
 70
     3
  9
$SHADEDIF
 70
    70
  9
$TILEMODE
 70
     1
  9
$MAXACTVP
 70
    64
  9
$PINSBASE
 10
0.0
 20
0.0
 30
0.0
  9
$PLIMCHECK
 70
     0
  9
$PEXTMIN
 10
1.0000000000E+20
 20
1.0000000000E+20
 30
1.0000000000E+20
  9
$PEXTMAX
 10
-1.0000000000E+20
 20
-1.0000000000E+20
 30
-1.0000000000E+20
  9
$PLIMMIN
 10
0.0
 20
0.0
  9
$PLIMMAX
 10
420.0
 20
297.0
  9
$UNITMODE
 70
     0
  9
$VISRETAIN
 70
     1
  9
$PLINEGEN
 70
     0
  9
$PSLTSCALE
 70
     1
  9
$TREEDEPTH
 70
  3020
  9
$PICKSTYLE
 70
     1
  9
$CMLSTYLE
  2
STANDARD
  9
$CMLJUST
 70
     0
  9
$CMLSCALE
 40
20.0
  9
$PROXYGRAPHICS
 70
     1
  9
$MEASUREMENT
 70
     1
  0
ENDSEC
  0
SECTION
  2
CLASSES
  0
CLASS
  1
ACDBDICTIONARYWDFLT
  2
AcDbDictionaryWithDefault
  3
ObjectDBX Classes
 90
        0
280
     0
281
     0
  0
CLASS
  1
VISUALSTYLE
  2
AcDbVisualStyle
  3
ObjectDBX Classes
 90
     4095
280
     0
281
     0
  0
CLASS
  1
MATERIAL
  2
AcDbMaterial
  3
ObjectDBX Classes
 90
     1153
280
     0
281
     0
  0
CLASS
  1
SCALE
  2
AcDbScale
  3
ObjectDBX Classes
 90
     1153
280
     0
281
     0
  0
CLASS
  1
TABLESTYLE
  2
AcDbTableStyle
  3
ObjectDBX Classes
 90
     4095
280
     0
281
     0
  0
CLASS
  1
MLEADERSTYLE
  2
AcDbMLeaderStyle
  3
ACDB_MLEADERSTYLE_CLASS
 90
     4095
280
     0
281
     0
  0
CLASS
  1
SUN
  2
AcDbSun
  3
SCENEOE
 90
     1153
280
     0
281
     0
  0
CLASS
  1
XRECORD
  2
AcDbXrecord
  3
ObjectDBX Classes
 90
        0
280
     0
281
     0
  0
CLASS
  1
LWPOLYLINE
  2
AcDbPolyline
  3
ObjectDBX Classes
 90
        0
280
     0
281
     1
  0
CLASS
  1
HATCH
  2
AcDbHatch
  3
ObjectDBX Classes
 90
        0
280
     0
281
     1
  0
ENDSEC
  0
SECTION
  2
TABLES
  0
TABLE
  2
VPORT
  5
8
330
0
100
AcDbSymbolTable
 70
     1
  0
VPORT
  5
29
330
8
100
AcDbSymbolTableRecord
100
AcDbViewportTableRecord
  2
*ACTIVE
 70
     0
 10
0.0
 20
0.0
 11
1.0
 21
1.0
 12
1220.0
 22
610.0
 13
0.0
 23
0.0
 14
10.0
 24
10.0
 15
10.0
 25
10.0
 16
0.0
 26
0.0
 36
1.0
 17
0.0
 27
0.0
 37
0.0
 40
1220.0
 41
2.0
 42
50.0
 43
0.0
 44
0.0
 50
0.0
 51
0.0
 71
     0
 72
  2000
 73
     1
 74
     3
 75
     0
 76
     0
 77
     0
 78
     0
  0
ENDTAB
  0
TABLE
  2
LTYPE
  5
5
330
0
100
AcDbSymbolTable
 70
     6
  0
LTYPE
  5
14
330
5
100
AcDbSymbolTableRecord
100
AcDbLinetypeTableRecord
  2
BYBLOCK
 70
     0
  3

 72
    65
 73
     0
 40
0.0
  0
LTYPE
  5
15
330
5
100
AcDbSymbolTableRecord
100
AcDbLinetypeTableRecord
  2
BYLAYER
 70
     0
  3

 72
    65
 73
     0
 40
0.0
  0
LTYPE
  5
16
330
5
100
AcDbSymbolTableRecord
100
AcDbLinetypeTableRecord
  2
CONTINUOUS
 70
     0
  3
Solid line
 72
    65
 73
     0
 40
0.0
  0
LTYPE
  5
6E
330
5
100
AcDbSymbolTableRecord
100
AcDbLinetypeTableRecord
  2
HIDDEN
 70
     0
  3
Hidden __ __ __ __ __ __ __ __ __ __ __ __ __ __
 72
    65
 73
     2
 40
1.905
 49
1.27
 74
     0
 49
-0.635
 74
     0
  0
LTYPE
  5
6F
330
5
100
AcDbSymbolTableRecord
100
AcDbLinetypeTableRecord
  2
PHANTOM
 70
     0
  3
Phantom ______  __  __  ______  __  __  ______
 72
    65
 73
     6
 40
12.7
 49
6.35
 74
     0
 49
-1.27
 74
     0
 49
1.27
 74
     0
 49
-1.27
 74
     0
 49
1.27
 74
     0
 49
-1.27
 74
     0
  0
LTYPE
  5
70
330
5
100
AcDbSymbolTableRecord
100
AcDbLinetypeTableRecord
  2
CENTER
 70
     0
  3
Center ____ _ ____ _ ____ _ ____ _ ____ _ ____
 72
    65
 73
     4
 40
10.16
 49
6.35
 74
     0
 49
-1.27
 74
     0
 49
1.27
 74
     0
 49
-1.27
 74
     0
  0
LTYPE
  5
71
330
5
100
AcDbSymbolTableRecord
100
AcDbLinetypeTableRecord
  2
CENTERX2
 70
     0
  3
Center (2x) ________  __  ________  __  _____
 72
    65
 73
     4
 40
20.32
 49
12.7
 74
     0
 49
-2.54
 74
     0
 49
2.54
 74
     0
 49
-2.54
 74
     0
  0
LTYPE
  5
72
330
5
100
AcDbSymbolTableRecord
100
AcDbLinetypeTableRecord
  2
DOT2
 70
     0
  3
Dot (.5x) ........................................
 72
    65
 73
     2
 40
0.635
 49
0.0
 74
     0
 49
-0.635
 74
     0
  0
ENDTAB
  0
TABLE
  2
LAYER
  5
2
330
0
100
AcDbSymbolTable
 70
     6
  0
LAYER
  5
10
330
2
100
AcDbSymbolTableRecord
100
AcDbLayerTableRecord
  2
0
 70
     0
 62
     7
  6
CONTINUOUS
  0
LAYER
  5
73
330
2
100
AcDbSymbolTableRecord
100
AcDbLayerTableRecord
  2
BOX_STOCK
 70
     0
 62
     1
  6
CONTINUOUS
  0
LAYER
  5
74
330
2
100
AcDbSymbolTableRecord
100
AcDbLayerTableRecord
  2
HOLES
 70
     0
 62
    30
  6
CONTINUOUS
  0
LAYER
  5
75
330
2
100
AcDbSymbolTableRecord
100
AcDbLayerTableRecord
  2
POCKETS
 70
     0
 62
   171
  6
CONTINUOUS
  0
LAYER
  5
76
330
2
100
AcDbSymbolTableRecord
100
AcDbLayerTableRecord
  2
PROFILES_OUTSIDE
 70
     0
 62
     6
  6
CONTINUOUS
  0
LAYER
  5
77
330
2
100
AcDbSymbolTableRecord
100
AcDbLayerTableRecord
  2
PROFILES_INSIDE
 70
     0
 62
     4
  6
CONTINUOUS
  0
ENDTAB
  0
TABLE
  2
STYLE
  5
3
330
0
100
AcDbSymbolTable
 70
     1
  0
STYLE
  5
11
330
3
100
AcDbSymbolTableRecord
100
AcDbTextStyleTableRecord
  2
STANDARD
 70
     0
 40
0.0
 41
1.0
 50
0.0
 71
     0
 42
3.5
  3
txt
  4

  0
ENDTAB
  0
TABLE
  2
VIEW
  5
6
330
0
100
AcDbSymbolTable
 70
     0
  0
ENDTAB
  0
TABLE
  2
UCS
  5
7
330
0
100
AcDbSymbolTable
 70
     0
  0
ENDTAB
  0
TABLE
  2
APPID
  5
9
330
0
100
AcDbSymbolTable
 70
     1
  0
APPID
  5
12
330
9
100
AcDbSymbolTableRecord
100
AcDbRegAppTableRecord
  2
ACAD
 70
     0
  0
ENDTAB
  0
TABLE
  2
DIMSTYLE
  5
A
330
0
100
AcDbSymbolTable
 70
     1
  0
DIMSTYLE
105
27
330
A
100
AcDbSymbolTableRecord
100
AcDbDimStyleTableRecord
  2
ISO-25
 70
     0
  3

  4

  5

  6

  7

 40
1.0
 41
2.5
 42
0.625
 43
3.75
 44
1.25
 45
0.0
 46
0.0
 47
0.0
 48
0.0
140
2.5
141
2.5
142
0.0
143
0.0393700787
144
1.0
145
0.0
146
1.0
147
0.625
 71
     0
 72
     0
 73
     0
 74
     0
 75
     0
 76
     0
 77
     1
 78
     8
170
     0
171
     3
172
     1
173
     0
174
     0
175
     0
176
     0
177
     0
178
     0
270
     2
271
     2
272
     2
273
     2
274
     3
340
11
275
     0
280
     0
281
     0
282
     0
283
     0
284
     8
285
     0
286
     0
287
     3
288
     0
  0
ENDTAB
  0
TABLE
  2
BLOCK_RECORD
  5
1
330
0
100
AcDbSymbolTable
 70
     1
  0
BLOCK_RECORD
  5
1F
330
1
100
AcDbSymbolTableRecord
100
AcDbBlockTableRecord
  2
*MODEL_SPACE
  0
BLOCK_RECORD
  5
1B
330
1
100
AcDbSymbolTableRecord
100
AcDbBlockTableRecord
  2
*PAPER_SPACE
  0
BLOCK_RECORD
  5
23
330
1
100
AcDbSymbolTableRecord
100
AcDbBlockTableRecord
  2
*PAPER_SPACE0
  0
ENDTAB
  0
ENDSEC
  0
SECTION
  2
BLOCKS
  0
BLOCK
  5
20
330
1F
100
AcDbEntity
  8
0
100
AcDbBlockBegin
  2
*MODEL_SPACE
 70
     0
 10
0.0
 20
0.0
 30
0.0
  3
*MODEL_SPACE
  1

  0
ENDBLK
  5
21
330
1F
100
AcDbEntity
  8
0
100
AcDbBlockEnd
  0
BLOCK
  5
1C
330
1B
100
AcDbEntity
 67
     1
  8
0
100
AcDbBlockBegin
  2
*PAPER_SPACE
 70
     0
 10
0.0
 20
0.0
 30
0.0
  3
*PAPER_SPACE
  1

  0
ENDBLK
  5
1D
330
1B
100
AcDbEntity
 67
     1
  8
0
100
AcDbBlockEnd
  0
BLOCK
  5
24
330
23
100
AcDbEntity
  8
0
100
AcDbBlockBegin
  2
*PAPER_SPACE0
 70
     0
 10
0.0
 20
0.0
 30
0.0
  3
*PAPER_SPACE0
  1

  0
ENDBLK
  5
25
330
23
100
AcDbEntity
  8
0
100
AcDbBlockEnd
  0
ENDSEC
  0
SECTION
  2
ENTITIES
  0
LINE
  5
78
330
1F
100
AcDbEntity
  8
0
  6
CONTINUOUS
 62
     7
100
AcDbLine
 10
458.9901780914
 20
109.4464300692
 30
0.0
 11
32.9901678692
 21
34.3311386675
 31
0.0
  0
ARC
  5
79
330
1F
100
AcDbEntity
  8
0
  6
CONTINUOUS
 62
     7
100
AcDbCircle
 10
31.9482800697
 20
40.2399853756
 30
0.0
 40
6.000000000000227
100
AcDbArc
 50
180.0
 51
280.0
  0
LINE
  5
7A
330
1F
100
AcDbEntity
  8
0
  6
CONTINUOUS
 62
     7
100
AcDbLine
 10
25.9482795577
 20
40.23998366
 30
0.0
 11
25.9482795577
 21
66.253298384
 31
0.0
  0
LINE
  5
7B
330
1F
100
AcDbEntity
  8
0
  6
CONTINUOUS
 62
     7
100
AcDbLine
 10
65.6504398416
 20
73.2538564623
 30
0.0
 11
25.9482795577
 21
66.253298384
 31
0.0
  0
ARC
  5
7C
330
1F
100
AcDbEntity
  8
0
  6
CONTINUOUS
 62
     7
100
AcDbCircle
 10
70.791593378
 20
73.7992238622
 30
0.0
 40
5.169999249139361
100
AcDbArc
 50
186.0551963346
 51
214.8878493682
  0
ARC
  5
7D
330
1F
100
AcDbEntity
  8
0
  6
CONTINUOUS
 62
     7
100
AcDbCircle
 10
65.7305099061
 20
70.270158519
 30
0.0
 40
0.9999989171683904
100
AcDbArc
 50
10.0
 51
34.8878493682
  0
LINE
  5
7E
330
1F
100
AcDbEntity
  8
0
  6
CONTINUOUS
 62
     7
100
AcDbLine
 10
68.6975931953
 20
59.2017820597
 30
0.0
 11
66.7153140734
 21
70.4438029349
 31
0.0
  0
ARC
  5
7F
330
1F
100
AcDbEntity
  8
0
  6
CONTINUOUS
 62
     7
100
AcDbCircle
 10
67.7127818872
 20
59.0281354708
 30
0.0
 40
1.000000000000085
100
AcDbArc
 50
345.1121170491
 51
10.0
  0
ARC
  5
80
330
1F
100
AcDbEntity
  8
0
  6
CONTINUOUS
 62
     7
100
AcDbCircle
 10
73.6756576821
 20
57.4428871449
 30
0.0
 40
5.170000000000011
100
AcDbArc
 50
165.1121170491
 51
352.3995412421
  0
ARC
  5
81
330
1F
100
AcDbEntity
  8
0
  6
CONTINUOUS
 62
     7
100
AcDbCircle
 10
79.7914510315
 20
56.6268162488
 30
0.0
 40
0.9999999999999638
100
AcDbArc
 50
100.0000385431
 51
172.3995412421
  0
LINE
  5
82
330
1F
100
AcDbEntity
  8
0
  6
CONTINUOUS
 62
     7
100
AcDbLine
 10
83.6000060867
 20
58.3137957871
 30
0.0
 11
79.6178048681
 21
57.6116232694
 31
0.0
  0
ARC
  5
83
330
1F
100
AcDbEntity
  8
0
  6
CONTINUOUS
 62
     7
100
AcDbCircle
 10
83.7736553519
 20
57.3289890753
 30
0.0
 40
0.9999999999999745
100
AcDbArc
 50
27.6004748139
 51
100.0000385431
  0
ARC
  5
84
330
1F
100
AcDbEntity
  8
0
  6
CONTINUOUS
 62
     7
100
AcDbCircle
 10
89.2415077466
 20
60.1875709246
 30
0.0
 40
5.170000000000027
100
AcDbArc
 50
207.6004748139
 51
34.8879011019
  0
ARC
  5
85
330
1F
100
AcDbEntity
  8
0
  6
CONTINUOUS
 62
     7
100
AcDbCircle
 10
94.3025901521
 20
63.7166423159
 30
0.0
 40
1.00000000000007
100
AcDbArc
 50
190.0
 51
214.8879011019
  0
LINE
  5
86
330
1F
100
AcDbEntity
  8
0
  6
CONTINUOUS
 62
     7
100
AcDbLine
 10
91.3355117868
 20
74.785002929
 30
0.0
 11
93.3177834581
 21
63.5429932297
 31
0.0
  0
ARC
  5
87
330
1F
100
AcDbEntity
  8
0
  6
CONTINUOUS
 62
     7
100
AcDbCircle
 10
92.3203477118
 20
74.9586581007
 30
0.0
 40
1.000027830745277
100
AcDbArc
 50
165.1121740788
 51
190.0
  0
ARC
  5
88
330
1F
100
AcDbEntity
  8
0
  6
CONTINUOUS
 62
     7
100
AcDbCircle
 10
86.3574434425
 20
76.5439076419
 30
0.0
 40
5.170000000000044
100
AcDbArc
 50
345.1121740788
 51
13.9447545661
  0
LINE
  5
89
330
1F
100
AcDbEntity
  8
0
  6
CONTINUOUS
 62
     7
100
AcDbLine
 10
411.5823125671
 20
134.2509849489
 30
0.0
 11
91.3750743698
 21
77.7898071826
 31
0.0
  0
ARC
  5
8A
330
1F
100
AcDbEntity
  8
0
  6
CONTINUOUS
 62
     7
100
AcDbCircle
 10
416.7234746226
 20
134.7963480129
 30
0.0
 40
5.16999924913923
100
AcDbArc
 50
186.0551963346
 51
214.8878493682
  0
ARC
  5
8B
330
1F
100
AcDbEntity
  8
0
  6
CONTINUOUS
 62
     7
100
AcDbCircle
 10
411.6623911507
 20
131.2672826697
 30
0.0
 40
0.9999989171684801
100
AcDbArc
 50
10.0
 51
34.8878493682
  0
LINE
  5
8C
330
1F
100
AcDbEntity
  8
0
  6
CONTINUOUS
 62
     7
100
AcDbLine
 10
414.629480822
 20
120.198906821
 30
0.0
 11
412.6472091507
 21
131.440923971
 31
0.0
  0
ARC
  5
8D
330
1F
100
AcDbEntity
  8
0
  6
CONTINUOUS
 62
     7
100
AcDbCircle
 10
413.6446631319
 20
120.0252596215
 30
0.0
 40
1.000000000000107
100
AcDbArc
 50
345.1121170491
 51
10.0
  0
ARC
  5
8E
330
1F
100
AcDbEntity
  8
0
  6
CONTINUOUS
 62
     7
100
AcDbCircle
 10
419.6075389267
 20
118.4400112956
 30
0.0
 40
5.170000000000048
100
AcDbArc
 50
165.1121170491
 51
352.3995412421
  0
ARC
  5
8F
330
1F
100
AcDbEntity
  8
0
  6
CONTINUOUS
 62
     7
100
AcDbCircle
 10
425.7233322761
 20
117.6239403995
 30
0.0
 40
1.000000000000013
100
AcDbArc
 50
100.0000385431
 51
172.3995412421
  0
LINE
  5
90
330
1F
100
AcDbEntity
  8
0
  6
CONTINUOUS
 62
     7
100
AcDbLine
 10
429.5318937133
 20
119.3109242738
 30
0.0
 11
425.5496775936
 21
118.608751756
 31
0.0
  0
ARC
  5
91
330
1F
100
AcDbEntity
  8
0
  6
CONTINUOUS
 62
     7
100
AcDbCircle
 10
429.7055365965
 20
118.326113226
 30
0.0
 40
0.9999999999999671
100
AcDbArc
 50
27.6004748139
 51
100.0000385431
  0
ARC
  5
92
330
1F
100
AcDbEntity
  8
0
  6
CONTINUOUS
 62
     7
100
AcDbCircle
 10
435.1733889913
 20
121.1846950752
 30
0.0
 40
5.170000000000129
100
AcDbArc
 50
207.6004748139
 51
34.8879011019
  0
ARC
  5
93
330
1F
100
AcDbEntity
  8
0
  6
CONTINUOUS
 62
     7
100
AcDbCircle
 10
440.2344713967
 20
124.7137664665
 30
0.0
 40
0.9999999999999969
100
AcDbArc
 50
190.0
 51
214.8879011019
  0
ARC
  5
94
330
1F
100
AcDbEntity
  8
0
  6
CONTINUOUS
 62
     7
100
AcDbCircle
 10
438.2522289564
 20
135.9557822514
 30
0.0
 40
1.000027830745265
100
AcDbArc
 50
165.1121740788
 51
190.0
  0
LINE
  5
95
330
1F
100
AcDbEntity
  8
0
  6
CONTINUOUS
 62
     7
100
AcDbLine
 10
463.9482712578
 20
143.484519285
 30
0.0
 11
463.9482712578
 21
115.3552769244
 31
0.0
  0
ARC
  5
96
330
1F
100
AcDbEntity
  8
0
  6
CONTINUOUS
 62
     7
100
AcDbCircle
 10
457.9482800697
 20
115.3552791574
 30
0.0
 40
6.000000000000001
100
AcDbArc
 50
280.0
 51
0.0
  0
ARC
  5
97
330
1F
100
AcDbEntity
  8
0
  6
CONTINUOUS
 62
     7
100
AcDbCircle
 10
432.2893246872
 20
137.5410317926
 30
0.0
 40
5.17000000000003
100
AcDbArc
 50
345.1121740788
 51
13.9447545661
  0
LINE
  5
98
330
1F
100
AcDbEntity
  8
0
  6
CONTINUOUS
 62
     7
100
AcDbLine
 10
463.9482712578
 20
143.484519285
 30
0.0
 11
437.3069619964
 21
138.7869282186
 31
0.0
  0
LINE
  5
99
330
1F
100
AcDbEntity
  8
0
  6
CONTINUOUS
 62
     7
100
AcDbLine
 10
437.2673845123
 20
135.7821239651
 30
0.0
 11
439.2496561836
 21
124.5401217163
 31
0.0
  0
ARC
  5
9A
330
1F
100
AcDbEntity
  8
0
  6
CONTINUOUS
 62
     7
100
AcDbCircle
 10
31.9482800697
 20
523.5209620153
 30
0.0
 40
6.000000000000092
100
AcDbArc
 50
80.0
 51
180.0
  0
LINE
  5
9B
330
1F
100
AcDbEntity
  8
0
  6
CONTINUOUS
 62
     7
100
AcDbLine
 10
32.9901678692
 20
529.4298245132
 30
0.0
 11
458.9901780914
 21
454.3145014465
 31
0.0
  0
ARC
  5
9C
330
1F
100
AcDbEntity
  8
0
  6
CONTINUOUS
 62
     7
100
AcDbCircle
 10
457.9482800697
 20
448.4056682335
 30
0.0
 40
6.000000000000034
100
AcDbArc
 50
360.0
 51
80.0
  0
LINE
  5
9D
330
1F
100
AcDbEntity
  8
0
  6
CONTINUOUS
 62
     7
100
AcDbLine
 10
463.9482712578
 20
448.4056545914
 30
0.0
 11
463.9482712578
 21
420.2764345825
 31
0.0
  0
ARC
  5
9E
330
1F
100
AcDbEntity
  8
0
  6
CONTINUOUS
 62
     7
100
AcDbCircle
 10
432.2893262558
 20
426.2199197574
 30
0.0
 40
5.170000000000003
100
AcDbArc
 50
346.0551969084
 51
14.8879011019
  0
ARC
  5
9F
330
1F
100
AcDbEntity
  8
0
  6
CONTINUOUS
 62
     7
100
AcDbCircle
 10
438.2522015485
 20
427.8051699723
 30
0.0
 40
1.000000000000115
100
AcDbArc
 50
170.0
 51
194.8879011019
  0
ARC
  5
A0
330
1F
100
AcDbEntity
  8
0
  6
CONTINUOUS
 62
     7
100
AcDbCircle
 10
429.7055357439
 20
445.4348370774
 30
0.0
 40
0.9999999999999875
100
AcDbArc
 50
260.0000385431
 51
332.3995412421
  0
LINE
  5
A1
330
1F
100
AcDbEntity
  8
0
  6
CONTINUOUS
 62
     7
100
AcDbLine
 10
425.5496775936
 20
445.1521946609
 30
0.0
 11
429.5318937133
 21
444.4500221432
 31
0.0
  0
ARC
  5
A2
330
1F
100
AcDbEntity
  8
0
  6
CONTINUOUS
 62
     7
100
AcDbCircle
 10
425.7233304788
 20
446.1370045462
 30
0.0
 40
1.00000075086069
100
AcDbArc
 50
187.6004748139
 51
260.0000385431
  0
ARC
  5
A3
330
1F
100
AcDbEntity
  8
0
  6
CONTINUOUS
 62
     7
100
AcDbCircle
 10
419.6075373581
 20
445.3209319363
 30
0.0
 40
5.169999249139273
100
AcDbArc
 50
7.6004748139
 51
194.8878493682
  0
ARC
  5
A4
330
1F
100
AcDbEntity
  8
0
  6
CONTINUOUS
 62
     7
100
AcDbCircle
 10
413.6446631319
 20
443.7356877694
 30
0.0
 40
0.9999989171685161
100
AcDbArc
 50
350.0
 51
14.8878493682
  0
LINE
  5
A5
330
1F
100
AcDbEntity
  8
0
  6
CONTINUOUS
 62
     7
100
AcDbLine
 10
412.6472091507
 20
432.3200298965
 30
0.0
 11
414.629480822
 21
443.5620321453
 31
0.0
  0
ARC
  5
A6
330
1F
100
AcDbEntity
  8
0
  6
CONTINUOUS
 62
     7
100
AcDbCircle
 10
411.6623911507
 20
432.4936647212
 30
0.0
 40
1.000000000000049
100
AcDbArc
 50
325.1121170491
 51
350.0
  0
ARC
  5
A7
330
1F
100
AcDbEntity
  8
0
  6
CONTINUOUS
 62
     7
100
AcDbCircle
 10
416.7234746742
 20
428.9645949333
 30
0.0
 40
5.170000000000097
100
AcDbArc
 50
145.1121170491
 51
173.9447545661
  0
LINE
  5
A8
330
1F
100
AcDbEntity
  8
0
  6
CONTINUOUS
 62
     7
100
AcDbLine
 10
91.3750743698
 20
485.9711541355
 30
0.0
 11
411.5823125671
 21
429.5099689186
 31
0.0
  0
ARC
  5
A9
330
1F
100
AcDbEntity
  8
0
  6
CONTINUOUS
 62
     7
100
AcDbCircle
 10
86.3574450112
 20
487.217043908
 30
0.0
 40
5.170000000000113
100
AcDbArc
 50
346.0551969084
 51
14.8879011019
  0
ARC
  5
AA
330
1F
100
AcDbEntity
  8
0
  6
CONTINUOUS
 62
     7
100
AcDbCircle
 10
92.3203203039
 20
488.802294123
 30
0.0
 40
0.9999999999999665
100
AcDbArc
 50
170.0
 51
194.8879011019
  0
LINE
  5
AB
330
1F
100
AcDbEntity
  8
0
  6
CONTINUOUS
 62
     7
100
AcDbLine
 10
93.3177834581
 20
500.2179457367
 30
0.0
 11
91.3355117868
 21
488.9759434879
 31
0.0
  0
ARC
  5
AC
330
1F
100
AcDbEntity
  8
0
  6
CONTINUOUS
 62
     7
100
AcDbCircle
 10
94.3026175601
 20
500.0443002423
 30
0.0
 40
1.000027830745284
100
AcDbArc
 50
145.1121740788
 51
170.0
  0
ARC
  5
AD
330
1F
100
AcDbEntity
  8
0
  6
CONTINUOUS
 62
     7
100
AcDbCircle
 10
89.2415076951
 20
503.5733809111
 30
0.0
 40
5.170000000000135
100
AcDbArc
 50
325.1121740788
 51
152.3995412421
  0
ARC
  5
AE
330
1F
100
AcDbEntity
  8
0
  6
CONTINUOUS
 62
     7
100
AcDbCircle
 10
83.7736544992
 20
506.431961228
 30
0.0
 40
1.000000000000101
100
AcDbArc
 50
260.0000385431
 51
332.3995412421
  0
LINE
  5
AF
330
1F
100
AcDbEntity
  8
0
  6
CONTINUOUS
 62
     7
100
AcDbLine
 10
79.6178048681
 20
506.1493231476
 30
0.0
 11
83.6000060867
 21
505.4471804321
 31
0.0
  0
ARC
  5
B0
330
1F
100
AcDbEntity
  8
0
  6
CONTINUOUS
 62
     7
100
AcDbCircle
 10
79.7914492342
 20
507.1341286968
 30
0.0
 40
1.000000750860782
100
AcDbArc
 50
187.6004748139
 51
260.0000385431
  0
ARC
  5
B1
330
1F
100
AcDbEntity
  8
0
  6
CONTINUOUS
 62
     7
100
AcDbCircle
 10
73.6756561135
 20
506.318056087
 30
0.0
 40
5.16999924913921
100
AcDbArc
 50
7.6004748139
 51
194.8878493682
  0
ARC
  5
B2
330
1F
100
AcDbEntity
  8
0
  6
CONTINUOUS
 62
     7
100
AcDbCircle
 10
67.7127818872
 20
504.7328119201
 30
0.0
 40
0.9999989171684124
100
AcDbArc
 50
350.0
 51
14.8878493682
  0
LINE
  5
B3
330
1F
100
AcDbEntity
  8
0
  6
CONTINUOUS
 62
     7
100
AcDbLine
 10
66.7153140734
 20
493.3171285808
 30
0.0
 11
68.6975857447
 21
504.5591904343
 31
0.0
  0
ARC
  5
B4
330
1F
100
AcDbEntity
  8
0
  6
CONTINUOUS
 62
     7
100
AcDbCircle
 10
65.7305099061
 20
493.4907888719
 30
0.0
 40
0.9999999999999929
100
AcDbArc
 50
325.1121170491
 51
350.0
  0
ARC
  5
B5
330
1F
100
AcDbEntity
  8
0
  6
CONTINUOUS
 62
     7
100
AcDbCircle
 10
70.7915934296
 20
489.9617190839
 30
0.0
 40
5.170000000000064
100
AcDbArc
 50
145.1121170491
 51
173.9447545661
  0
LINE
  5
B6
330
1F
100
AcDbEntity
  8
0
  6
CONTINUOUS
 62
     7
100
AcDbLine
 10
25.9482795577
 20
497.5076629341
 30
0.0
 11
65.6504398416
 21
490.5070974052
 31
0.0
  0
LINE
  5
B7
330
1F
100
AcDbEntity
  8
0
  6
CONTINUOUS
 62
     7
100
AcDbLine
 10
25.9482795577
 20
497.5076629341
 30
0.0
 11
25.9482795577
 21
523.5209776581
 31
0.0
  0
ARC
  5
B8
330
1F
100
AcDbEntity
  8
0
  6
CONTINUOUS
 62
     7
100
AcDbCircle
 10
440.2344988047
 20
439.0471760916
 30
0.0
 40
1.00002783074527
100
AcDbArc
 50
145.1121740788
 51
170.0
  0
ARC
  5
B9
330
1F
100
AcDbEntity
  8
0
  6
CONTINUOUS
 62
     7
100
AcDbCircle
 10
435.1733889397
 20
442.5762567604
 30
0.0
 40
5.170000000000043
100
AcDbArc
 50
325.1121740788
 51
152.3995412421
  0
LINE
  5
BA
330
1F
100
AcDbEntity
  8
0
  6
CONTINUOUS
 62
     7
100
AcDbLine
 10
437.3069619964
 20
424.9740256489
 30
0.0
 11
463.9482712578
 21
420.2764345825
 31
0.0
  0
LINE
  5
BB
330
1F
100
AcDbEntity
  8
0
  6
CONTINUOUS
 62
     7
100
AcDbLine
 10
439.2496561836
 20
439.22081725
 30
0.0
 11
437.2673845123
 21
427.9788150013
 31
0.0
  0
LINE
  5
BC
330
1F
100
AcDbEntity
  8
0
  6
CONTINUOUS
 62
     7
100
AcDbLine
 10
458.9901780914
 20
191.194923085
 30
0.0
 11
448.9063834976
 21
192.9729743421
 31
0.0
  0
LINE
  5
BD
330
1F
100
AcDbEntity
  8
0
  6
CONTINUOUS
 62
     7
100
AcDbLine
 10
423.9482796024
 20
408.3613468826
 30
0.0
 11
423.9482796024
 21
155.3996069849
 31
0.0
  0
LINE
  5
BE
330
1F
100
AcDbEntity
  8
0
  6
CONTINUOUS
 62
     7
100
AcDbLine
 10
463.9482712578
 20
401.3082696617
 30
0.0
 11
423.9482796024
 21
408.3613468826
 31
0.0
  0
LINE
  5
BF
330
1F
100
AcDbEntity
  8
0
  6
CONTINUOUS
 62
     7
100
AcDbLine
 10
463.9482712578
 20
401.3082696617
 30
0.0
 11
463.9482712578
 21
378.4748627365
 31
0.0
  0
LINE
  5
C0
330
1F
100
AcDbEntity
  8
0
  6
CONTINUOUS
 62
     7
100
AcDbLine
 10
463.9482712578
 20
185.2860762298
 30
0.0
 11
463.9482712578
 21
162.4526842058
 31
0.0
  0
ARC
  5
C1
330
1F
100
AcDbEntity
  8
0
  6
CONTINUOUS
 62
     7
100
AcDbCircle
 10
449.9482800697
 20
198.8818187716
 30
0.0
 40
6.0
100
AcDbArc
 50
180.0
 51
260.0
  0
ARC
  5
C2
330
1F
100
AcDbEntity
  8
0
  6
CONTINUOUS
 62
     7
100
AcDbCircle
 10
457.9482800697
 20
185.2860835833
 30
0.0
 40
6.0
100
AcDbArc
 50
0.0
 51
80.0
  0
LINE
  5
C3
330
1F
100
AcDbEntity
  8
0
  6
CONTINUOUS
 62
     7
100
AcDbLine
 10
448.9063834976
 20
370.7879795254
 30
0.0
 11
458.9901780914
 21
372.5660158813
 31
0.0
  0
LINE
  5
C4
330
1F
100
AcDbEntity
  8
0
  6
CONTINUOUS
 62
     7
100
AcDbLine
 10
423.9482796024
 20
155.3996069849
 30
0.0
 11
463.9482712578
 21
162.4526842058
 31
0.0
  0
ARC
  5
C5
330
1F
100
AcDbEntity
  8
0
  6
CONTINUOUS
 62
     7
100
AcDbCircle
 10
457.9482800697
 20
378.4748638076
 30
0.0
 40
6.000000000000034
100
AcDbArc
 50
280.0
 51
360.0
  0
ARC
  5
C6
330
1F
100
AcDbEntity
  8
0
  6
CONTINUOUS
 62
     7
100
AcDbCircle
 10
449.9482800697
 20
364.8791286193
 30
0.0
 40
6.000000000000034
100
AcDbArc
 50
100.0
 51
180.0
  0
LINE
  5
C7
330
1F
100
AcDbEntity
  8
0
  6
CONTINUOUS
 62
     7
100
AcDbLine
 10
443.9482903312
 20
198.8818211973
 30
0.0
 11
443.9482903312
 21
364.8791326702
 31
0.0
  0
LINE
  5
C8
330
1F
100
AcDbEntity
  8
0
  6
CONTINUOUS
 62
     7
100
AcDbLine
 10
25.9482795577
 20
85.2214633048
 30
0.0
 11
405.6082880329
 21
152.1657718838
 31
0.0
  0
LINE
  5
C9
330
1F
100
AcDbEntity
  8
0
  6
CONTINUOUS
 62
     7
100
AcDbLine
 10
25.9482795577
 20
85.2214633048
 30
0.0
 11
25.9482795577
 21
478.539468211
 31
0.0
  0
LINE
  5
CA
330
1F
100
AcDbEntity
  8
0
  6
CONTINUOUS
 62
     7
100
AcDbLine
 10
405.6082880329
 20
411.5951670826
 30
0.0
 11
25.9482795577
 21
478.539468211
 31
0.0
  0
LINE
  5
CB
330
1F
100
AcDbEntity
  8
0
  6
CONTINUOUS
 62
     7
100
AcDbLine
 10
405.6082880329
 20
152.1657718838
 30
0.0
 11
405.6082880329
 21
411.5951670826
 31
0.0
  0
ARC
  5
CC
330
1F
100
AcDbEntity
  8
0
  6
CONTINUOUS
 62
     7
100
AcDbCircle
 10
426.1735313378
 20
138.3571026887
 30
0.0
 40
1.000000000000062
100
AcDbArc
 50
280.0000385431
 51
352.3995412421
  0
LINE
  5
CD
330
1F
100
AcDbEntity
  8
0
  6
CONTINUOUS
 62
     7
100
AcDbLine
 10
426.3471877407
 20
137.3723013819
 30
0.0
 11
422.3649716209
 21
136.6701288641
 31
0.0
  0
ARC
  5
CE
330
1F
100
AcDbEntity
  8
0
  6
CONTINUOUS
 62
     7
100
AcDbCircle
 10
422.1913270174
 20
137.6549298621
 30
0.0
 40
1.000000000000096
100
AcDbArc
 50
207.6004748139
 51
280.0000385431
  0
ARC
  5
CF
330
1F
100
AcDbEntity
  8
0
  6
CONTINUOUS
 62
     7
100
AcDbCircle
 10
80.2416500931
 20
77.359978538
 30
0.0
 40
1.000000000000011
100
AcDbArc
 50
280.0000385431
 51
352.3995412421
  0
LINE
  5
D0
330
1F
100
AcDbEntity
  8
0
  6
CONTINUOUS
 62
     7
100
AcDbLine
 10
80.415300114
 20
76.3751728952
 30
0.0
 11
76.4330914448
 21
75.6730003775
 31
0.0
  0
ARC
  5
D1
330
1F
100
AcDbEntity
  8
0
  6
CONTINUOUS
 62
     7
100
AcDbCircle
 10
76.2594457728
 20
76.6578057115
 30
0.0
 40
1.000000000000028
100
AcDbArc
 50
207.6004748139
 51
280.0000385431
  0
ARC
  5
D2
330
1F
100
AcDbEntity
  8
0
  6
CONTINUOUS
 62
     7
100
AcDbCircle
 10
76.2594466254
 20
487.1031387669
 30
0.0
 40
0.9999999999999628
100
AcDbArc
 50
80.0000385431
 51
152.3995412421
  0
LINE
  5
D3
330
1F
100
AcDbEntity
  8
0
  6
CONTINUOUS
 62
     7
100
AcDbLine
 10
76.4330914448
 20
488.0879534901
 30
0.0
 11
80.415300114
 21
487.3857809723
 31
0.0
  0
ARC
  5
D4
330
1F
100
AcDbEntity
  8
0
  6
CONTINUOUS
 62
     7
100
AcDbCircle
 10
80.2416518905
 20
486.4009712981
 30
0.0
 40
1.000000000000016
100
AcDbArc
 50
7.6004748139
 51
80.0000385431
  0
ARC
  5
D5
330
1F
100
AcDbEntity
  8
0
  6
CONTINUOUS
 62
     7
100
AcDbCircle
 10
422.19132787
 20
426.1060146163
 30
0.0
 40
1.00000000000007
100
AcDbArc
 50
80.0000385431
 51
152.3995412421
  0
LINE
  5
D6
330
1F
100
AcDbEntity
  8
0
  6
CONTINUOUS
 62
     7
100
AcDbLine
 10
422.3649716209
 20
427.0908250034
 30
0.0
 11
426.3471877407
 21
426.3886524856
 31
0.0
  0
ARC
  5
D7
330
1F
100
AcDbEntity
  8
0
  6
CONTINUOUS
 62
     7
100
AcDbCircle
 10
426.1735331351
 20
425.4038471475
 30
0.0
 40
1.000000000000014
100
AcDbArc
 50
7.6004748139
 51
80.0000385431
  0
LINE
  5
D8
330
1F
100
AcDbEntity
  8
0
  6
CONTINUOUS
 62
     7
100
AcDbLine
 10
25.9482795577
 20
85.2214633048
 30
0.0
 11
25.9482795577
 21
66.253298384
 31
0.0
  0
LINE
  5
D9
330
1F
100
AcDbEntity
  8
0
  6
CONTINUOUS
 62
     7
100
AcDbLine
 10
25.9482795577
 20
497.5076629341
 30
0.0
 11
25.9482795577
 21
478.539468211
 31
0.0
  0
ARC
  5
DA
330
1F
100
AcDbEntity
  8
0
  6
CONTINUOUS
 62
     7
100
AcDbCircle
 10
70.7915934296
 20
489.9617190839
 30
0.0
 40
5.17000000000003
100
AcDbArc
 50
173.9447545661
 51
332.3995412421
  0
ARC
  5
DB
330
1F
100
AcDbEntity
  8
0
  6
CONTINUOUS
 62
     7
100
AcDbCircle
 10
70.791593378
 20
73.7992238622
 30
0.0
 40
5.169999999999989
100
AcDbArc
 50
27.6004748139
 51
186.0551963346
  0
ARC
  5
DC
330
1F
100
AcDbEntity
  8
0
  6
CONTINUOUS
 62
     7
100
AcDbCircle
 10
86.3574434425
 20
76.5439076419
 30
0.0
 40
5.170000000000063
100
AcDbArc
 50
13.9447545661
 51
172.3995412421
  0
ARC
  5
DD
330
1F
100
AcDbEntity
  8
0
  6
CONTINUOUS
 62
     7
100
AcDbCircle
 10
86.3574450112
 20
487.217043908
 30
0.0
 40
5.170000000000097
100
AcDbArc
 50
187.6004748139
 51
346.0551969084
  0
ARC
  5
DE
330
1F
100
AcDbEntity
  8
0
  6
CONTINUOUS
 62
     7
100
AcDbCircle
 10
416.7234746742
 20
428.9645949333
 30
0.0
 40
5.17000000000006
100
AcDbArc
 50
173.9447545661
 51
332.3995412421
  0
ARC
  5
DF
330
1F
100
AcDbEntity
  8
0
  6
CONTINUOUS
 62
     7
100
AcDbCircle
 10
416.7234746226
 20
134.7963480129
 30
0.0
 40
5.169999999999901
100
AcDbArc
 50
27.6004748139
 51
186.0551963346
  0
ARC
  5
E0
330
1F
100
AcDbEntity
  8
0
  6
CONTINUOUS
 62
     7
100
AcDbCircle
 10
432.2893262558
 20
426.2199197574
 30
0.0
 40
5.170000000000012
100
AcDbArc
 50
187.6004748139
 51
346.0551969084
  0
LINE
  5
E1
330
1F
100
AcDbEntity
  8
0
  6
CONTINUOUS
 62
     7
100
AcDbLine
 10
463.9482712578
 20
401.3082696617
 30
0.0
 11
463.9482712578
 21
420.2764345825
 31
0.0
  0
LINE
  5
E2
330
1F
100
AcDbEntity
  8
0
  6
CONTINUOUS
 62
     7
100
AcDbLine
 10
463.9482712578
 20
143.484519285
 30
0.0
 11
463.9482712578
 21
162.4526842058
 31
0.0
  0
ARC
  5
E3
330
1F
100
AcDbEntity
  8
0
  6
CONTINUOUS
 62
     7
100
AcDbCircle
 10
432.2893246872
 20
137.5410317926
 30
0.0
 40
5.16999999999999
100
AcDbArc
 50
13.9447545661
 51
172.3995412421
  0
ARC
  5
E4
330
1F
100
AcDbEntity
  8
0
  6
CONTINUOUS
 62
     7
100
AcDbCircle
 10
2037.8682800697
 20
845.0901385036
 30
0.0
 40
5.999999999999886
100
AcDbArc
 50
270.0
 51
0.0
  0
LINE
  5
E5
330
1F
100
AcDbEntity
  8
0
  6
CONTINUOUS
 62
     7
100
AcDbLine
 10
1919.9183201622
 20
839.0901400268
 30
0.0
 11
2037.8681635688
 21
839.0901400268
 31
0.0
  0
ARC
  5
E6
330
1F
100
AcDbEntity
  8
0
  6
CONTINUOUS
 62
     7
100
AcDbCircle
 10
1919.9182800697
 20
827.0901385036
 30
0.0
 40
12.0
100
AcDbArc
 50
90.0
 51
180.0
  0
LINE
  5
E7
330
1F
100
AcDbEntity
  8
0
  6
CONTINUOUS
 62
     7
100
AcDbLine
 10
1907.9182362388
 20
726.3346625984
 30
0.0
 11
1907.9182362388
 21
827.0901157081
 31
0.0
  0
ARC
  5
E8
330
1F
100
AcDbEntity
  8
0
  6
CONTINUOUS
 62
     7
100
AcDbCircle
 10
1888.8682800697
 20
726.3346591318
 30
0.0
 40
19.04999999999995
100
AcDbArc
 50
300.0
 51
0.0
  0
ARC
  5
E9
330
1F
100
AcDbEntity
  8
0
  6
CONTINUOUS
 62
     7
100
AcDbCircle
 10
1907.9182800697
 20
693.3390912476
 30
0.0
 40
19.05
100
AcDbArc
 50
120.0
 51
180.0
  0
LINE
  5
EA
330
1F
100
AcDbEntity
  8
0
  6
CONTINUOUS
 62
     7
100
AcDbLine
 10
1888.8682341407
 20
633.5727287948
 30
0.0
 11
1888.8682341407
 21
693.3390809715
 31
0.0
  0
ARC
  5
EB
330
1F
100
AcDbEntity
  8
0
  6
CONTINUOUS
 62
     7
100
AcDbCircle
 10
1907.9182800697
 20
633.5727476441
 30
0.0
 40
19.0499999999999
100
AcDbArc
 50
180.0
 51
240.0
  0
ARC
  5
EC
330
1F
100
AcDbEntity
  8
0
  6
CONTINUOUS
 62
     7
100
AcDbCircle
 10
1888.8682800697
 20
600.5771797599
 30
0.0
 40
19.04999999999995
100
AcDbArc
 50
0.0
 51
60.0
  0
LINE
  5
ED
330
1F
100
AcDbEntity
  8
0
  6
CONTINUOUS
 62
     7
100
AcDbLine
 10
1907.9182362388
 20
499.8216940582
 30
0.0
 11
1907.9182362388
 21
600.5772067726
 31
0.0
  0
ARC
  5
EE
330
1F
100
AcDbEntity
  8
0
  6
CONTINUOUS
 62
     7
100
AcDbCircle
 10
1919.9182800697
 20
499.8217003881
 30
0.0
 40
12.0
100
AcDbArc
 50
180.0
 51
270.0
  0
LINE
  5
EF
330
1F
100
AcDbEntity
  8
0
  6
CONTINUOUS
 62
     7
100
AcDbLine
 10
2037.8681635688
 20
487.8216995418
 30
0.0
 11
1919.9183201622
 21
487.8216995418
 31
0.0
  0
ARC
  5
F0
330
1F
100
AcDbEntity
  8
0
  6
CONTINUOUS
 62
     7
100
AcDbCircle
 10
2037.8682800697
 20
481.8217003881
 30
0.0
 40
6.000000000000227
100
AcDbArc
 50
0.0
 51
90.0
  0
LINE
  5
F1
330
1F
100
AcDbEntity
  8
0
  6
CONTINUOUS
 62
     7
100
AcDbLine
 10
2043.8682055305
 20
470.0717045486
 30
0.0
 11
2043.8682055305
 21
481.8216873825
 31
0.0
  0
ARC
  5
F2
330
1F
100
AcDbEntity
  8
0
  6
CONTINUOUS
 62
     7
100
AcDbCircle
 10
2042.8682800697
 20
470.0717003881
 30
0.0
 40
1.000000000000455
100
AcDbArc
 50
270.0
 51
0.0
  0
LINE
  5
F3
330
1F
100
AcDbEntity
  8
0
  6
CONTINUOUS
 62
     7
100
AcDbLine
 10
2042.8682780098
 20
469.0716876209
 30
0.0
 11
2037.6082873176
 21
469.0716876209
 31
0.0
  0
LINE
  5
F4
330
1F
100
AcDbEntity
  8
0
  6
CONTINUOUS
 62
     7
100
AcDbLine
 10
2037.6082873176
 20
469.0716876209
 30
0.0
 11
2037.2683024238
 21
474.3855609119
 31
0.0
  0
ARC
  5
F5
330
1F
100
AcDbEntity
  8
0
  6
CONTINUOUS
 62
     7
100
AcDbCircle
 10
2036.2702341626
 20
474.3217003881
 30
0.0
 40
1.0
100
AcDbArc
 50
3.6619355755
 51
90.0
  0
LINE
  5
F6
330
1F
100
AcDbEntity
  8
0
  6
CONTINUOUS
 62
     7
100
AcDbLine
 10
2036.2702822517
 20
475.3217114628
 30
0.0
 11
2022.3306631874
 21
475.3217114628
 31
0.0
  0
ARC
  5
F7
330
1F
100
AcDbEntity
  8
0
  6
CONTINUOUS
 62
     7
100
AcDbCircle
 10
2022.3305584531
 20
476.3217003881
 30
0.0
 40
1.000000000000045
100
AcDbArc
 50
245.1121079736
 51
270.0
  0
ARC
  5
F8
330
1F
100
AcDbEntity
  8
0
  6
CONTINUOUS
 62
     7
100
AcDbCircle
 10
2017.8682800697
 20
464.8435187484
 30
0.0
 40
1.000000000000227
100
AcDbArc
 50
0.0
 51
72.3995332142
  0
LINE
  5
F9
330
1F
100
AcDbEntity
  8
0
  6
CONTINUOUS
 62
     7
100
AcDbLine
 10
1900.8683180641
 20
462.8196968258
 30
0.0
 11
2018.8683485817
 21
462.8196968258
 31
0.0
  0
ARC
  5
FA
330
1F
100
AcDbEntity
  8
0
  6
CONTINUOUS
 62
     7
100
AcDbCircle
 10
1900.8682800697
 20
474.8197003881
 30
0.0
 40
12.0
100
AcDbArc
 50
180.0
 51
270.0
  0
LINE
  5
FB
330
1F
100
AcDbEntity
  8
0
  6
CONTINUOUS
 62
     7
100
AcDbLine
 10
1888.8682341407
 20
588.5771824539
 30
0.0
 11
1888.8682341407
 21
474.8196913422
 31
0.0
  0
ARC
  5
FC
330
1F
100
AcDbEntity
  8
0
  6
CONTINUOUS
 62
     7
100
AcDbCircle
 10
1876.8682800697
 20
588.5771797599
 30
0.0
 40
12.00000000000011
100
AcDbArc
 50
0.0
 51
90.0
  0
LINE
  5
FD
330
1F
100
AcDbEntity
  8
0
  6
CONTINUOUS
 62
     7
100
AcDbLine
 10
1850.8682465385
 20
600.5772067726
 30
0.0
 11
1876.8682694267
 21
600.5772067726
 31
0.0
  0
ARC
  5
FE
330
1F
100
AcDbEntity
  8
0
  6
CONTINUOUS
 62
     7
100
AcDbCircle
 10
1850.8682800697
 20
588.5771797599
 30
0.0
 40
12.00000000000011
100
AcDbArc
 50
90.0
 51
180.0
  0
LINE
  5
FF
330
1F
100
AcDbEntity
  8
0
  6
CONTINUOUS
 62
     7
100
AcDbLine
 10
1838.8682818245
 20
474.8196913422
 30
0.0
 11
1838.8682818245
 21
588.5771824539
 31
0.0
  0
ARC
  5
100
330
1F
100
AcDbEntity
  8
0
  6
CONTINUOUS
 62
     7
100
AcDbCircle
 10
1709.8682800697
 20
464.8435187484
 30
0.0
 40
1.00000000000006
100
AcDbArc
 50
107.6004667859
 51
180.0
  0
ARC
  5
101
330
1F
100
AcDbEntity
  8
0
  6
CONTINUOUS
 62
     7
100
AcDbCircle
 10
1708.0026099301
 20
470.7246899693
 30
0.0
 40
5.170000000000028
100
AcDbArc
 50
287.6004667859
 51
114.8878920264
  0
ARC
  5
102
330
1F
100
AcDbEntity
  8
0
  6
CONTINUOUS
 62
     7
100
AcDbCircle
 10
1705.4060016863
 20
476.3217003881
 30
0.0
 40
1.0
100
AcDbArc
 50
270.0
 51
294.8878920264
  0
LINE
  5
103
330
1F
100
AcDbEntity
  8
0
  6
CONTINUOUS
 62
     7
100
AcDbLine
 10
1705.4059719871
 20
475.3217114628
 30
0.0
 11
1691.4663529228
 21
475.3217114628
 31
0.0
  0
ARC
  5
104
330
1F
100
AcDbEntity
  8
0
  6
CONTINUOUS
 62
     7
100
AcDbCircle
 10
1691.4663259768
 20
474.3217003881
 30
0.0
 40
1.00000000000016
100
AcDbArc
 50
90.0
 51
176.3380644245
  0
LINE
  5
105
330
1F
100
AcDbEntity
  8
0
  6
CONTINUOUS
 62
     7
100
AcDbLine
 10
1690.4683327507
 20
474.3855609119
 30
0.0
 11
1690.1282286476
 21
469.0716876209
 31
0.0
  0
LINE
  5
106
330
1F
100
AcDbEntity
  8
0
  6
CONTINUOUS
 62
     7
100
AcDbLine
 10
1690.1282286476
 20
469.0716876209
 30
0.0
 11
1684.8682379554
 21
469.0716876209
 31
0.0
  0
ARC
  5
107
330
1F
100
AcDbEntity
  8
0
  6
CONTINUOUS
 62
     7
100
AcDbCircle
 10
1684.8682800697
 20
470.0717003881
 30
0.0
 40
1.0
100
AcDbArc
 50
180.0
 51
270.0
  0
LINE
  5
108
330
1F
100
AcDbEntity
  8
0
  6
CONTINUOUS
 62
     7
100
AcDbLine
 10
1683.8683104347
 20
481.8216873825
 30
0.0
 11
1683.8683104347
 21
470.0717045486
 31
0.0
  0
ARC
  5
109
330
1F
100
AcDbEntity
  8
0
  6
CONTINUOUS
 62
     7
100
AcDbCircle
 10
1689.8682800697
 20
481.8217003881
 30
0.0
 40
6.0
100
AcDbArc
 50
90.0
 51
180.0
  0
LINE
  5
10A
330
1F
100
AcDbEntity
  8
0
  6
CONTINUOUS
 62
     7
100
AcDbLine
 10
1807.8183150123
 20
487.8216995418
 30
0.0
 11
1689.8682331871
 21
487.8216995418
 31
0.0
  0
ARC
  5
10B
330
1F
100
AcDbEntity
  8
0
  6
CONTINUOUS
 62
     7
100
AcDbCircle
 10
1807.8182800697
 20
499.8217003881
 30
0.0
 40
12.0
100
AcDbArc
 50
270.0
 51
0.0
  0
LINE
  5
10C
330
1F
100
AcDbEntity
  8
0
  6
CONTINUOUS
 62
     7
100
AcDbLine
 10
1819.8182797264
 20
600.5772067726
 30
0.0
 11
1819.8182797264
 21
499.8216940582
 31
0.0
  0
ARC
  5
10D
330
1F
100
AcDbEntity
  8
0
  6
CONTINUOUS
 62
     7
100
AcDbCircle
 10
1838.8682800697
 20
600.5771797599
 30
0.0
 40
19.05000000000018
100
AcDbArc
 50
120.0
 51
180.0
  0
ARC
  5
10E
330
1F
100
AcDbEntity
  8
0
  6
CONTINUOUS
 62
     7
100
AcDbCircle
 10
1819.8182800697
 20
633.5727476441
 30
0.0
 40
19.04999999999995
100
AcDbArc
 50
300.0
 51
0.0
  0
LINE
  5
10F
330
1F
100
AcDbEntity
  8
0
  6
CONTINUOUS
 62
     7
100
AcDbLine
 10
1838.8682818245
 20
693.3390809715
 30
0.0
 11
1838.8682818245
 21
633.5727287948
 31
0.0
  0
ARC
  5
110
330
1F
100
AcDbEntity
  8
0
  6
CONTINUOUS
 62
     7
100
AcDbCircle
 10
1819.8182800697
 20
693.3390912476
 30
0.0
 40
19.05000000000018
100
AcDbArc
 50
0.0
 51
60.0
  0
ARC
  5
111
330
1F
100
AcDbEntity
  8
0
  6
CONTINUOUS
 62
     7
100
AcDbCircle
 10
1838.8682800697
 20
726.3346591318
 30
0.0
 40
19.04999999999995
100
AcDbArc
 50
180.0
 51
240.0
  0
LINE
  5
112
330
1F
100
AcDbEntity
  8
0
  6
CONTINUOUS
 62
     7
100
AcDbLine
 10
1819.8182797264
 20
827.0901157081
 30
0.0
 11
1819.8182797264
 21
726.3346625984
 31
0.0
  0
ARC
  5
113
330
1F
100
AcDbEntity
  8
0
  6
CONTINUOUS
 62
     7
100
AcDbCircle
 10
1807.8182800697
 20
827.0901385036
 30
0.0
 40
12.00000000000011
100
AcDbArc
 50
0.0
 51
90.0
  0
LINE
  5
114
330
1F
100
AcDbEntity
  8
0
  6
CONTINUOUS
 62
     7
100
AcDbLine
 10
1689.8682331871
 20
839.0901400268
 30
0.0
 11
1807.8183150123
 21
839.0901400268
 31
0.0
  0
ARC
  5
115
330
1F
100
AcDbEntity
  8
0
  6
CONTINUOUS
 62
     7
100
AcDbCircle
 10
1689.8682800697
 20
845.0901385036
 30
0.0
 40
6.000000000000114
100
AcDbArc
 50
180.0
 51
270.0
  0
LINE
  5
116
330
1F
100
AcDbEntity
  8
0
  6
CONTINUOUS
 62
     7
100
AcDbLine
 10
1683.8683104347
 20
856.8401648224
 30
0.0
 11
1683.8683104347
 21
845.0901223839
 31
0.0
  0
ARC
  5
117
330
1F
100
AcDbEntity
  8
0
  6
CONTINUOUS
 62
     7
100
AcDbCircle
 10
1684.8682800697
 20
856.8401385036
 30
0.0
 40
1.0
100
AcDbArc
 50
90.0
 51
180.0
  0
LINE
  5
118
330
1F
100
AcDbEntity
  8
0
  6
CONTINUOUS
 62
     7
100
AcDbLine
 10
1684.8682379554
 20
857.8401519478
 30
0.0
 11
1690.1282286476
 21
857.8401519478
 31
0.0
  0
LINE
  5
119
330
1F
100
AcDbEntity
  8
0
  6
CONTINUOUS
 62
     7
100
AcDbLine
 10
1690.1282286476
 20
857.8401519478
 30
0.0
 11
1690.4683327507
 21
852.5262786568
 31
0.0
  0
ARC
  5
11A
330
1F
100
AcDbEntity
  8
0
  6
CONTINUOUS
 62
     7
100
AcDbCircle
 10
1691.4663259768
 20
852.5901385036
 30
0.0
 40
1.000000000000156
100
AcDbArc
 50
183.6619355755
 51
270.0
  0
LINE
  5
11B
330
1F
100
AcDbEntity
  8
0
  6
CONTINUOUS
 62
     7
100
AcDbLine
 10
1691.4663529228
 20
851.5901281059
 30
0.0
 11
1705.4059719871
 21
851.5901281059
 31
0.0
  0
ARC
  5
11C
330
1F
100
AcDbEntity
  8
0
  6
CONTINUOUS
 62
     7
100
AcDbCircle
 10
1705.4060016863
 20
850.5901385036
 30
0.0
 40
0.9999999999999415
100
AcDbArc
 50
65.1121079736
 51
90.0
  0
ARC
  5
11D
330
1F
100
AcDbEntity
  8
0
  6
CONTINUOUS
 62
     7
100
AcDbCircle
 10
1708.0026099301
 20
856.1871489224
 30
0.0
 40
5.170000000000124
100
AcDbArc
 50
245.1121079736
 51
72.3995332141
  0
ARC
  5
11E
330
1F
100
AcDbEntity
  8
0
  6
CONTINUOUS
 62
     7
100
AcDbCircle
 10
1709.8682800697
 20
862.0683201434
 30
0.0
 40
1.00000000000006
100
AcDbArc
 50
180.0
 51
252.3995332141
  0
LINE
  5
11F
330
1F
100
AcDbEntity
  8
0
  6
CONTINUOUS
 62
     7
100
AcDbLine
 10
1708.8682865928
 20
864.0921427429
 30
0.0
 11
1708.8682865928
 21
862.0683266342
 31
0.0
  0
LINE
  5
120
330
1F
100
AcDbEntity
  8
0
  6
CONTINUOUS
 62
     7
100
AcDbLine
 10
1826.8683171104
 20
864.0921427429
 30
0.0
 11
1708.8682865928
 21
864.0921427429
 31
0.0
  0
ARC
  5
121
330
1F
100
AcDbEntity
  8
0
  6
CONTINUOUS
 62
     7
100
AcDbCircle
 10
1826.8682800697
 20
852.0921385036
 30
0.0
 40
12.0
100
AcDbArc
 50
0.0
 51
90.0
  0
LINE
  5
122
330
1F
100
AcDbEntity
  8
0
  6
CONTINUOUS
 62
     7
100
AcDbLine
 10
1838.8682818245
 20
738.3346869171
 30
0.0
 11
1838.8682818245
 21
852.0921184242
 31
0.0
  0
ARC
  5
123
330
1F
100
AcDbEntity
  8
0
  6
CONTINUOUS
 62
     7
100
AcDbCircle
 10
1850.8682800697
 20
738.3346591318
 30
0.0
 40
12.0
100
AcDbArc
 50
180.0
 51
270.0
  0
LINE
  5
124
330
1F
100
AcDbEntity
  8
0
  6
CONTINUOUS
 62
     7
100
AcDbLine
 10
1876.8682694267
 20
726.3346625984
 30
0.0
 11
1850.8682465385
 21
726.3346625984
 31
0.0
  0
ARC
  5
125
330
1F
100
AcDbEntity
  8
0
  6
CONTINUOUS
 62
     7
100
AcDbCircle
 10
1876.8682800697
 20
738.3346591318
 30
0.0
 40
12.0
100
AcDbArc
 50
270.0
 51
0.0
  0
LINE
  5
126
330
1F
100
AcDbEntity
  8
0
  6
CONTINUOUS
 62
     7
100
AcDbLine
 10
1888.8682341407
 20
852.0921184242
 30
0.0
 11
1888.8682341407
 21
738.3346869171
 31
0.0
  0
ARC
  5
127
330
1F
100
AcDbEntity
  8
0
  6
CONTINUOUS
 62
     7
100
AcDbCircle
 10
1900.8682800697
 20
852.0921385036
 30
0.0
 40
12.0
100
AcDbArc
 50
90.0
 51
180.0
  0
LINE
  5
128
330
1F
100
AcDbEntity
  8
0
  6
CONTINUOUS
 62
     7
100
AcDbLine
 10
2018.8683485817
 20
864.0921427429
 30
0.0
 11
1900.8683180641
 21
864.0921427429
 31
0.0
  0
LINE
  5
129
330
1F
100
AcDbEntity
  8
0
  6
CONTINUOUS
 62
     7
100
AcDbLine
 10
2018.8683485817
 20
862.0683266342
 30
0.0
 11
2018.8683485817
 21
864.0921427429
 31
0.0
  0
ARC
  5
12A
330
1F
100
AcDbEntity
  8
0
  6
CONTINUOUS
 62
     7
100
AcDbCircle
 10
2017.8682800697
 20
862.0683201434
 30
0.0
 40
1.000000000000227
100
AcDbArc
 50
287.6004667859
 51
0.0
  0
ARC
  5
12B
330
1F
100
AcDbEntity
  8
0
  6
CONTINUOUS
 62
     7
100
AcDbCircle
 10
2019.7339502093
 20
856.1871489224
 30
0.0
 40
5.170000000000138
100
AcDbArc
 50
107.6004667859
 51
294.8878920264
  0
ARC
  5
12C
330
1F
100
AcDbEntity
  8
0
  6
CONTINUOUS
 62
     7
100
AcDbCircle
 10
2022.3305584531
 20
850.5901385036
 30
0.0
 40
0.9999999999999415
100
AcDbArc
 50
90.0
 51
114.8878920264
  0
LINE
  5
12D
330
1F
100
AcDbEntity
  8
0
  6
CONTINUOUS
 62
     7
100
AcDbLine
 10
2022.3306631874
 20
851.5901281059
 30
0.0
 11
2036.2702822517
 21
851.5901281059
 31
0.0
  0
ARC
  5
12E
330
1F
100
AcDbEntity
  8
0
  6
CONTINUOUS
 62
     7
100
AcDbCircle
 10
2036.2702341626
 20
852.5901385036
 30
0.0
 40
1.0
100
AcDbArc
 50
270.0
 51
356.3380644245
  0
LINE
  5
12F
330
1F
100
AcDbEntity
  8
0
  6
CONTINUOUS
 62
     7
100
AcDbLine
 10
2037.2683024238
 20
852.5262786568
 30
0.0
 11
2037.6082873176
 21
857.8401519478
 31
0.0
  0
LINE
  5
130
330
1F
100
AcDbEntity
  8
0
  6
CONTINUOUS
 62
     7
100
AcDbLine
 10
2037.6082873176
 20
857.8401519478
 30
0.0
 11
2042.8682780098
 21
857.8401519478
 31
0.0
  0
ARC
  5
131
330
1F
100
AcDbEntity
  8
0
  6
CONTINUOUS
 62
     7
100
AcDbCircle
 10
2042.8682800697
 20
856.8401385036
 30
0.0
 40
1.0
100
AcDbArc
 50
0.0
 51
90.0
  0
LINE
  5
132
330
1F
100
AcDbEntity
  8
0
  6
CONTINUOUS
 62
     7
100
AcDbLine
 10
2043.8682055305
 20
845.0901223839
 30
0.0
 11
2043.8682055305
 21
856.8401648224
 31
0.0
  0
LINE
  5
133
330
1F
100
AcDbEntity
  8
0
  6
CONTINUOUS
 62
     7
100
AcDbLine
 10
1708.8682865928
 20
464.8435129345
 30
0.0
 11
1708.8682865928
 21
462.8196968258
 31
0.0
  0
ARC
  5
134
330
1F
100
AcDbEntity
  8
0
  6
CONTINUOUS
 62
     7
100
AcDbCircle
 10
1826.8682800697
 20
474.8197003881
 30
0.0
 40
12.0
100
AcDbArc
 50
270.0
 51
0.0
  0
LINE
  5
135
330
1F
100
AcDbEntity
  8
0
  6
CONTINUOUS
 62
     7
100
AcDbLine
 10
1708.8682865928
 20
462.8196968258
 30
0.0
 11
1826.8683171104
 21
462.8196968258
 31
0.0
  0
LINE
  5
136
330
1F
100
AcDbEntity
  8
0
  6
CONTINUOUS
 62
     7
100
AcDbLine
 10
2018.8683485817
 20
462.8196968258
 30
0.0
 11
2018.8683485817
 21
464.8435129345
 31
0.0
  0
ARC
  5
137
330
1F
100
AcDbEntity
  8
0
  6
CONTINUOUS
 62
     7
100
AcDbCircle
 10
2019.7339502093
 20
470.7246899693
 30
0.0
 40
5.169999999999933
100
AcDbArc
 50
65.1121079736
 51
252.3995332141
  0
ARC
  5
138
330
1F
100
AcDbEntity
  8
0
  6
CONTINUOUS
 62
     7
100
AcDbCircle
 10
1689.8682800697
 20
49.0732622726
 30
0.0
 40
6.000000000000227
100
AcDbArc
 50
90.0
 51
180.0
  0
LINE
  5
139
330
1F
100
AcDbEntity
  8
0
  6
CONTINUOUS
 62
     7
100
AcDbLine
 10
1807.8183150123
 20
55.073262614
 30
0.0
 11
1689.8682331871
 21
55.073262614
 31
0.0
  0
ARC
  5
13A
330
1F
100
AcDbEntity
  8
0
  6
CONTINUOUS
 62
     7
100
AcDbCircle
 10
1807.8182800697
 20
67.0732622726
 30
0.0
 40
12.0
100
AcDbArc
 50
270.0
 51
0.0
  0
LINE
  5
13B
330
1F
100
AcDbEntity
  8
0
  6
CONTINUOUS
 62
     7
100
AcDbLine
 10
1819.8182797264
 20
167.8287400425
 30
0.0
 11
1819.8182797264
 21
67.073264581
 31
0.0
  0
ARC
  5
13C
330
1F
100
AcDbEntity
  8
0
  6
CONTINUOUS
 62
     7
100
AcDbCircle
 10
1838.8682800697
 20
167.8287416445
 30
0.0
 40
19.05000000000018
100
AcDbArc
 50
120.0
 51
180.0
  0
ARC
  5
13D
330
1F
100
AcDbEntity
  8
0
  6
CONTINUOUS
 62
     7
100
AcDbCircle
 10
1819.8182800697
 20
200.8243095286
 30
0.0
 40
19.05000000000018
100
AcDbArc
 50
300.0
 51
0.0
  0
LINE
  5
13E
330
1F
100
AcDbEntity
  8
0
  6
CONTINUOUS
 62
     7
100
AcDbLine
 10
1838.8682818245
 20
260.5906440437
 30
0.0
 11
1838.8682818245
 21
200.8243067682
 31
0.0
  0
ARC
  5
13F
330
1F
100
AcDbEntity
  8
0
  6
CONTINUOUS
 62
     7
100
AcDbCircle
 10
1819.8182800697
 20
260.5906531321
 30
0.0
 40
19.05000000000018
100
AcDbArc
 50
0.0
 51
60.0
  0
ARC
  5
140
330
1F
100
AcDbEntity
  8
0
  6
CONTINUOUS
 62
     7
100
AcDbCircle
 10
1838.8682800697
 20
293.5862210163
 30
0.0
 40
19.05000000000018
100
AcDbArc
 50
180.0
 51
240.0
  0
LINE
  5
141
330
1F
100
AcDbEntity
  8
0
  6
CONTINUOUS
 62
     7
100
AcDbLine
 10
1819.8182797264
 20
394.3417085827
 30
0.0
 11
1819.8182797264
 21
293.5862256706
 31
0.0
  0
ARC
  5
142
330
1F
100
AcDbEntity
  8
0
  6
CONTINUOUS
 62
     7
100
AcDbCircle
 10
1807.8182800697
 20
394.3417003881
 30
0.0
 40
12.0
100
AcDbArc
 50
0.0
 51
90.0
  0
LINE
  5
143
330
1F
100
AcDbEntity
  8
0
  6
CONTINUOUS
 62
     7
100
AcDbLine
 10
1689.8682331871
 20
406.341703099
 30
0.0
 11
1807.8183150123
 21
406.341703099
 31
0.0
  0
ARC
  5
144
330
1F
100
AcDbEntity
  8
0
  6
CONTINUOUS
 62
     7
100
AcDbCircle
 10
1689.8682800697
 20
412.3417003881
 30
0.0
 40
6.0
100
AcDbArc
 50
180.0
 51
270.0
  0
LINE
  5
145
330
1F
100
AcDbEntity
  8
0
  6
CONTINUOUS
 62
     7
100
AcDbLine
 10
1683.8683104347
 20
424.0916980923
 30
0.0
 11
1683.8683104347
 21
412.3417152584
 31
0.0
  0
ARC
  5
146
330
1F
100
AcDbEntity
  8
0
  6
CONTINUOUS
 62
     7
100
AcDbCircle
 10
1684.8682800697
 20
424.0917003881
 30
0.0
 40
1.0
100
AcDbArc
 50
90.0
 51
180.0
  0
LINE
  5
147
330
1F
100
AcDbEntity
  8
0
  6
CONTINUOUS
 62
     7
100
AcDbLine
 10
1684.8682379554
 20
425.09171502
 30
0.0
 11
1690.1282286476
 21
425.09171502
 31
0.0
  0
LINE
  5
148
330
1F
100
AcDbEntity
  8
0
  6
CONTINUOUS
 62
     7
100
AcDbLine
 10
1690.1282286476
 20
425.09171502
 30
0.0
 11
1690.4683327507
 21
419.777841729
 31
0.0
  0
ARC
  5
149
330
1F
100
AcDbEntity
  8
0
  6
CONTINUOUS
 62
     7
100
AcDbCircle
 10
1691.4663259768
 20
419.8417003881
 30
0.0
 40
1.000000000000163
100
AcDbArc
 50
183.6619355755
 51
270.0
  0
LINE
  5
14A
330
1F
100
AcDbEntity
  8
0
  6
CONTINUOUS
 62
     7
100
AcDbLine
 10
1691.4663529228
 20
418.8416911781
 30
0.0
 11
1705.4059719871
 21
418.8416911781
 31
0.0
  0
ARC
  5
14B
330
1F
100
AcDbEntity
  8
0
  6
CONTINUOUS
 62
     7
100
AcDbCircle
 10
1705.4060016863
 20
417.8417003881
 30
0.0
 40
1.000000000000045
100
AcDbArc
 50
65.1121079736
 51
90.0
  0
ARC
  5
14C
330
1F
100
AcDbEntity
  8
0
  6
CONTINUOUS
 62
     7
100
AcDbCircle
 10
1708.0026099301
 20
423.4387108069
 30
0.0
 40
5.169999999999933
100
AcDbArc
 50
245.1121079736
 51
72.3995332141
  0
ARC
  5
14D
330
1F
100
AcDbEntity
  8
0
  6
CONTINUOUS
 62
     7
100
AcDbCircle
 10
1709.8682800697
 20
429.3198820279
 30
0.0
 40
1.000000000000227
100
AcDbArc
 50
180.0
 51
252.3995332141
  0
LINE
  5
14E
330
1F
100
AcDbEntity
  8
0
  6
CONTINUOUS
 62
     7
100
AcDbLine
 10
1708.8682865928
 20
431.3437058151
 30
0.0
 11
1708.8682865928
 21
429.3198897064
 31
0.0
  0
LINE
  5
14F
330
1F
100
AcDbEntity
  8
0
  6
CONTINUOUS
 62
     7
100
AcDbLine
 10
1826.8683171104
 20
431.3437058151
 30
0.0
 11
1708.8682865928
 21
431.3437058151
 31
0.0
  0
ARC
  5
150
330
1F
100
AcDbEntity
  8
0
  6
CONTINUOUS
 62
     7
100
AcDbCircle
 10
1826.8682800697
 20
419.3437003881
 30
0.0
 40
12.00000000000006
100
AcDbArc
 50
0.0
 51
90.0
  0
LINE
  5
151
330
1F
100
AcDbEntity
  8
0
  6
CONTINUOUS
 62
     7
100
AcDbLine
 10
1838.8682818245
 20
305.586220187
 30
0.0
 11
1838.8682818245
 21
419.3437112987
 31
0.0
  0
ARC
  5
152
330
1F
100
AcDbEntity
  8
0
  6
CONTINUOUS
 62
     7
100
AcDbCircle
 10
1850.8682800697
 20
305.5862210163
 30
0.0
 40
12.0
100
AcDbArc
 50
180.0
 51
270.0
  0
LINE
  5
153
330
1F
100
AcDbEntity
  8
0
  6
CONTINUOUS
 62
     7
100
AcDbLine
 10
1876.8682694267
 20
293.5862256706
 30
0.0
 11
1850.8682465385
 21
293.5862256706
 31
0.0
  0
ARC
  5
154
330
1F
100
AcDbEntity
  8
0
  6
CONTINUOUS
 62
     7
100
AcDbCircle
 10
1876.8682800697
 20
305.5862210163
 30
0.0
 40
12.0
100
AcDbArc
 50
270.0
 51
0.0
  0
LINE
  5
155
330
1F
100
AcDbEntity
  8
0
  6
CONTINUOUS
 62
     7
100
AcDbLine
 10
1888.8682341407
 20
419.3437112987
 30
0.0
 11
1888.8682341407
 21
305.586220187
 31
0.0
  0
ARC
  5
156
330
1F
100
AcDbEntity
  8
0
  6
CONTINUOUS
 62
     7
100
AcDbCircle
 10
1900.8682800697
 20
419.3437003881
 30
0.0
 40
12.00000000000006
100
AcDbArc
 50
90.0
 51
180.0
  0
LINE
  5
157
330
1F
100
AcDbEntity
  8
0
  6
CONTINUOUS
 62
     7
100
AcDbLine
 10
2018.8683485817
 20
431.3437058151
 30
0.0
 11
1900.8683180641
 21
431.3437058151
 31
0.0
  0
LINE
  5
158
330
1F
100
AcDbEntity
  8
0
  6
CONTINUOUS
 62
     7
100
AcDbLine
 10
2018.8683485817
 20
429.3198897064
 30
0.0
 11
2018.8683485817
 21
431.3437058151
 31
0.0
  0
ARC
  5
159
330
1F
100
AcDbEntity
  8
0
  6
CONTINUOUS
 62
     7
100
AcDbCircle
 10
2017.8682800697
 20
429.3198820279
 30
0.0
 40
0.9999999999997993
100
AcDbArc
 50
287.6004667858
 51
0.0
  0
ARC
  5
15A
330
1F
100
AcDbEntity
  8
0
  6
CONTINUOUS
 62
     7
100
AcDbCircle
 10
2019.7339502093
 20
423.4387108069
 30
0.0
 40
5.170000000000085
100
AcDbArc
 50
107.6004667859
 51
294.8878920264
  0
ARC
  5
15B
330
1F
100
AcDbEntity
  8
0
  6
CONTINUOUS
 62
     7
100
AcDbCircle
 10
2022.3305584531
 20
417.8417003881
 30
0.0
 40
1.0
100
AcDbArc
 50
90.0
 51
114.8878920264
  0
LINE
  5
15C
330
1F
100
AcDbEntity
  8
0
  6
CONTINUOUS
 62
     7
100
AcDbLine
 10
2022.3306631874
 20
418.8416911781
 30
0.0
 11
2036.2702822517
 21
418.8416911781
 31
0.0
  0
ARC
  5
15D
330
1F
100
AcDbEntity
  8
0
  6
CONTINUOUS
 62
     7
100
AcDbCircle
 10
2036.2702341626
 20
419.8417003881
 30
0.0
 40
1.000000000000057
100
AcDbArc
 50
270.0
 51
356.3380644245
  0
LINE
  5
15E
330
1F
100
AcDbEntity
  8
0
  6
CONTINUOUS
 62
     7
100
AcDbLine
 10
2037.2683024238
 20
419.777841729
 30
0.0
 11
2037.6082873176
 21
425.09171502
 31
0.0
  0
LINE
  5
15F
330
1F
100
AcDbEntity
  8
0
  6
CONTINUOUS
 62
     7
100
AcDbLine
 10
2037.6082873176
 20
425.09171502
 30
0.0
 11
2042.8682780098
 21
425.09171502
 31
0.0
  0
ARC
  5
160
330
1F
100
AcDbEntity
  8
0
  6
CONTINUOUS
 62
     7
100
AcDbCircle
 10
2042.8682800697
 20
424.0917003881
 30
0.0
 40
1.000000000000455
100
AcDbArc
 50
0.0
 51
90.0
  0
LINE
  5
161
330
1F
100
AcDbEntity
  8
0
  6
CONTINUOUS
 62
     7
100
AcDbLine
 10
2043.8682055305
 20
412.3417152584
 30
0.0
 11
2043.8682055305
 21
424.0916980923
 31
0.0
  0
ARC
  5
162
330
1F
100
AcDbEntity
  8
0
  6
CONTINUOUS
 62
     7
100
AcDbCircle
 10
2037.8682800697
 20
412.3417003881
 30
0.0
 40
6.000000000000227
100
AcDbArc
 50
270.0
 51
0.0
  0
LINE
  5
163
330
1F
100
AcDbEntity
  8
0
  6
CONTINUOUS
 62
     7
100
AcDbLine
 10
1919.9183201622
 20
406.341703099
 30
0.0
 11
2037.8681635688
 21
406.341703099
 31
0.0
  0
ARC
  5
164
330
1F
100
AcDbEntity
  8
0
  6
CONTINUOUS
 62
     7
100
AcDbCircle
 10
1919.9182800697
 20
394.3417003881
 30
0.0
 40
12.0
100
AcDbArc
 50
90.0
 51
180.0
  0
LINE
  5
165
330
1F
100
AcDbEntity
  8
0
  6
CONTINUOUS
 62
     7
100
AcDbLine
 10
1907.9182362388
 20
293.5862256706
 30
0.0
 11
1907.9182362388
 21
394.3417085827
 31
0.0
  0
ARC
  5
166
330
1F
100
AcDbEntity
  8
0
  6
CONTINUOUS
 62
     7
100
AcDbCircle
 10
1888.8682800697
 20
293.5862210163
 30
0.0
 40
19.04999999999995
100
AcDbArc
 50
300.0
 51
0.0
  0
ARC
  5
167
330
1F
100
AcDbEntity
  8
0
  6
CONTINUOUS
 62
     7
100
AcDbCircle
 10
1907.9182800697
 20
260.5906531321
 30
0.0
 40
19.04999999999997
100
AcDbArc
 50
120.0
 51
180.0
  0
LINE
  5
168
330
1F
100
AcDbEntity
  8
0
  6
CONTINUOUS
 62
     7
100
AcDbLine
 10
1888.8682341407
 20
200.8243067682
 30
0.0
 11
1888.8682341407
 21
260.5906440437
 31
0.0
  0
ARC
  5
169
330
1F
100
AcDbEntity
  8
0
  6
CONTINUOUS
 62
     7
100
AcDbCircle
 10
1907.9182800697
 20
200.8243095286
 30
0.0
 40
19.05000000000001
100
AcDbArc
 50
180.0
 51
240.0
  0
ARC
  5
16A
330
1F
100
AcDbEntity
  8
0
  6
CONTINUOUS
 62
     7
100
AcDbCircle
 10
1888.8682800697
 20
167.8287416445
 30
0.0
 40
19.04999999999995
100
AcDbArc
 50
0.0
 51
60.0
  0
LINE
  5
16B
330
1F
100
AcDbEntity
  8
0
  6
CONTINUOUS
 62
     7
100
AcDbLine
 10
1907.9182362388
 20
67.073264581
 30
0.0
 11
1907.9182362388
 21
167.8287400425
 31
0.0
  0
ARC
  5
16C
330
1F
100
AcDbEntity
  8
0
  6
CONTINUOUS
 62
     7
100
AcDbCircle
 10
1919.9182800697
 20
67.0732622726
 30
0.0
 40
12.00000000000023
100
AcDbArc
 50
180.0
 51
270.0
  0
LINE
  5
16D
330
1F
100
AcDbEntity
  8
0
  6
CONTINUOUS
 62
     7
100
AcDbLine
 10
2037.8681635688
 20
55.073262614
 30
0.0
 11
1919.9183201622
 21
55.073262614
 31
0.0
  0
ARC
  5
16E
330
1F
100
AcDbEntity
  8
0
  6
CONTINUOUS
 62
     7
100
AcDbCircle
 10
2037.8682800697
 20
49.0732622726
 30
0.0
 40
6.000000000000227
100
AcDbArc
 50
0.0
 51
90.0
  0
LINE
  5
16F
330
1F
100
AcDbEntity
  8
0
  6
CONTINUOUS
 62
     7
100
AcDbLine
 10
2043.8682055305
 20
37.3232638955
 30
0.0
 11
2043.8682055305
 21
49.0732616306
 31
0.0
  0
ARC
  5
170
330
1F
100
AcDbEntity
  8
0
  6
CONTINUOUS
 62
     7
100
AcDbCircle
 10
2042.8682800697
 20
37.3232622726
 30
0.0
 40
1.000000000000455
100
AcDbArc
 50
270.0
 51
0.0
  0
LINE
  5
171
330
1F
100
AcDbEntity
  8
0
  6
CONTINUOUS
 62
     7
100
AcDbLine
 10
2042.8682780098
 20
36.323261869
 30
0.0
 11
2037.6082873176
 21
36.323261869
 31
0.0
  0
LINE
  5
172
330
1F
100
AcDbEntity
  8
0
  6
CONTINUOUS
 62
     7
100
AcDbLine
 10
2037.6082873176
 20
36.323261869
 30
0.0
 11
2037.2683024238
 21
41.6371314347
 31
0.0
  0
ARC
  5
173
330
1F
100
AcDbEntity
  8
0
  6
CONTINUOUS
 62
     7
100
AcDbCircle
 10
2036.2702341626
 20
41.5732622726
 30
0.0
 40
0.9999999999999257
100
AcDbArc
 50
3.6619355755
 51
90.0
  0
LINE
  5
174
330
1F
100
AcDbEntity
  8
0
  6
CONTINUOUS
 62
     7
100
AcDbLine
 10
2036.2702822517
 20
42.5732633591
 30
0.0
 11
2022.3306631874
 21
42.5732633591
 31
0.0
  0
ARC
  5
175
330
1F
100
AcDbEntity
  8
0
  6
CONTINUOUS
 62
     7
100
AcDbCircle
 10
2022.3305584531
 20
43.5732622726
 30
0.0
 40
1.000000000000266
100
AcDbArc
 50
245.1121079736
 51
270.0
  0
ARC
  5
176
330
1F
100
AcDbEntity
  8
0
  6
CONTINUOUS
 62
     7
100
AcDbCircle
 10
2019.7339502093
 20
37.9762518538
 30
0.0
 40
5.170000000000003
100
AcDbArc
 50
65.1121079736
 51
252.3995332141
  0
ARC
  5
177
330
1F
100
AcDbEntity
  8
0
  6
CONTINUOUS
 62
     7
100
AcDbCircle
 10
2017.8682800697
 20
32.0950806329
 30
0.0
 40
0.9999999999999415
100
AcDbArc
 50
0.0
 51
72.3995332142
  0
LINE
  5
178
330
1F
100
AcDbEntity
  8
0
  6
CONTINUOUS
 62
     7
100
AcDbLine
 10
1888.8682341407
 20
155.8287455261
 30
0.0
 11
1888.8682341407
 21
42.0712618649
 31
0.0
  0
ARC
  5
179
330
1F
100
AcDbEntity
  8
0
  6
CONTINUOUS
 62
     7
100
AcDbCircle
 10
1876.8682800697
 20
155.8287416445
 30
0.0
 40
12.0
100
AcDbArc
 50
0.0
 51
90.0
  0
LINE
  5
17A
330
1F
100
AcDbEntity
  8
0
  6
CONTINUOUS
 62
     7
100
AcDbLine
 10
1850.8682465385
 20
167.8287400425
 30
0.0
 11
1876.8682694267
 21
167.8287400425
 31
0.0
  0
ARC
  5
17B
330
1F
100
AcDbEntity
  8
0
  6
CONTINUOUS
 62
     7
100
AcDbCircle
 10
1850.8682800697
 20
155.8287416445
 30
0.0
 40
12.0
100
AcDbArc
 50
90.0
 51
180.0
  0
LINE
  5
17C
330
1F
100
AcDbEntity
  8
0
  6
CONTINUOUS
 62
     7
100
AcDbLine
 10
1838.8682818245
 20
42.0712618649
 30
0.0
 11
1838.8682818245
 21
155.8287455261
 31
0.0
  0
ARC
  5
17D
330
1F
100
AcDbEntity
  8
0
  6
CONTINUOUS
 62
     7
100
AcDbCircle
 10
1709.8682800697
 20
32.0950806329
 30
0.0
 40
0.9999999999999706
100
AcDbArc
 50
107.6004667859
 51
180.0
  0
ARC
  5
17E
330
1F
100
AcDbEntity
  8
0
  6
CONTINUOUS
 62
     7
100
AcDbCircle
 10
1708.0026099301
 20
37.9762518538
 30
0.0
 40
5.170000000000215
100
AcDbArc
 50
287.6004667859
 51
114.8878920264
  0
ARC
  5
17F
330
1F
100
AcDbEntity
  8
0
  6
CONTINUOUS
 62
     7
100
AcDbCircle
 10
1705.4060016863
 20
43.5732622726
 30
0.0
 40
0.9999999999997804
100
AcDbArc
 50
270.0
 51
294.8878920264
  0
LINE
  5
180
330
1F
100
AcDbEntity
  8
0
  6
CONTINUOUS
 62
     7
100
AcDbLine
 10
1705.4059719871
 20
42.5732633591
 30
0.0
 11
1691.4663529228
 21
42.5732633591
 31
0.0
  0
ARC
  5
181
330
1F
100
AcDbEntity
  8
0
  6
CONTINUOUS
 62
     7
100
AcDbCircle
 10
1691.4663259768
 20
41.5732622726
 30
0.0
 40
1.00000000000016
100
AcDbArc
 50
90.0
 51
176.3380644245
  0
LINE
  5
182
330
1F
100
AcDbEntity
  8
0
  6
CONTINUOUS
 62
     7
100
AcDbLine
 10
1690.4683327507
 20
41.6371314347
 30
0.0
 11
1690.1282286476
 21
36.323261869
 31
0.0
  0
LINE
  5
183
330
1F
100
AcDbEntity
  8
0
  6
CONTINUOUS
 62
     7
100
AcDbLine
 10
1690.1282286476
 20
36.323261869
 30
0.0
 11
1684.8682379554
 21
36.323261869
 31
0.0
  0
ARC
  5
184
330
1F
100
AcDbEntity
  8
0
  6
CONTINUOUS
 62
     7
100
AcDbCircle
 10
1684.8682800697
 20
37.3232622726
 30
0.0
 40
1.000000000000227
100
AcDbArc
 50
180.0
 51
270.0
  0
LINE
  5
185
330
1F
100
AcDbEntity
  8
0
  6
CONTINUOUS
 62
     7
100
AcDbLine
 10
1683.8683104347
 20
49.0732616306
 30
0.0
 11
1683.8683104347
 21
37.3232638955
 31
0.0
  0
ARC
  5
186
330
1F
100
AcDbEntity
  8
0
  6
CONTINUOUS
 62
     7
100
AcDbCircle
 10
1900.8682800697
 20
42.0712622726
 30
0.0
 40
12.00000000000001
100
AcDbArc
 50
180.0
 51
270.0
  0
LINE
  5
187
330
1F
100
AcDbEntity
  8
0
  6
CONTINUOUS
 62
     7
100
AcDbLine
 10
2018.8683485817
 20
30.0712617606
 30
0.0
 11
2018.8683485817
 21
32.095079732
 31
0.0
  0
ARC
  5
188
330
1F
100
AcDbEntity
  8
0
  6
CONTINUOUS
 62
     7
100
AcDbCircle
 10
1826.8682800697
 20
42.0712622726
 30
0.0
 40
12.00000000000001
100
AcDbArc
 50
270.0
 51
0.0
  0
LINE
  5
189
330
1F
100
AcDbEntity
  8
0
  6
CONTINUOUS
 62
     7
100
AcDbLine
 10
1900.8683180641
 20
30.0712617606
 30
0.0
 11
2018.8683485817
 21
30.0712617606
 31
0.0
  0
LINE
  5
18A
330
1F
100
AcDbEntity
  8
0
  6
CONTINUOUS
 62
     7
100
AcDbLine
 10
1708.8682865928
 20
30.0712617606
 30
0.0
 11
1826.8683171104
 21
30.0712617606
 31
0.0
  0
LINE
  5
18B
330
1F
100
AcDbEntity
  8
0
  6
CONTINUOUS
 62
     7
100
AcDbLine
 10
1708.8682865928
 20
32.095079732
 30
0.0
 11
1708.8682865928
 21
30.0712617606
 31
0.0
  0
ARC
  5
18C
330
1F
100
AcDbEntity
  8
0
  6
CONTINUOUS
 62
     7
100
AcDbCircle
 10
540.4139965791
 20
73.8243333887
 30
0.0
 40
5.169999249139335
100
AcDbArc
 50
186.0551963346
 51
214.8878493682
  0
ARC
  5
18D
330
1F
100
AcDbEntity
  8
0
  6
CONTINUOUS
 62
     7
100
AcDbCircle
 10
535.3529131072
 20
70.2952680455
 30
0.0
 40
0.9999989171684519
100
AcDbArc
 50
10.0
 51
34.8878493683
  0
LINE
  5
18E
330
1F
100
AcDbEntity
  8
0
  6
CONTINUOUS
 62
     7
100
AcDbLine
 10
538.3199667762
 20
59.2268942416
 30
0.0
 11
536.337695105
 21
70.4689188421
 31
0.0
  0
ARC
  5
18F
330
1F
100
AcDbEntity
  8
0
  6
CONTINUOUS
 62
     7
100
AcDbCircle
 10
537.3351850883
 20
59.0532449973
 30
0.0
 40
1.000000000000096
100
AcDbArc
 50
345.1121170491
 51
10.0
  0
ARC
  5
190
330
1F
100
AcDbEntity
  8
0
  6
CONTINUOUS
 62
     7
100
AcDbCircle
 10
543.2980608832
 20
57.4679966714
 30
0.0
 40
5.169999999999995
100
AcDbArc
 50
165.1121170491
 51
352.3995412421
  0
ARC
  5
191
330
1F
100
AcDbEntity
  8
0
  6
CONTINUOUS
 62
     7
100
AcDbCircle
 10
549.4138542326
 20
56.6519257753
 30
0.0
 40
0.9999999999999573
100
AcDbArc
 50
100.0000385431
 51
172.3995412421
  0
LINE
  5
192
330
1F
100
AcDbEntity
  8
0
  6
CONTINUOUS
 62
     7
100
AcDbLine
 10
553.2224392723
 20
58.338907969
 30
0.0
 11
549.2401933502
 21
57.636731726
 31
0.0
  0
ARC
  5
193
330
1F
100
AcDbEntity
  8
0
  6
CONTINUOUS
 62
     7
100
AcDbCircle
 10
553.3960585529
 20
57.3540986018
 30
0.0
 40
1.000000000000013
100
AcDbArc
 50
27.6004748139
 51
100.0000385431
  0
ARC
  5
194
330
1F
100
AcDbEntity
  8
0
  6
CONTINUOUS
 62
     7
100
AcDbCircle
 10
558.8639109477
 20
60.2126804511
 30
0.0
 40
5.170000000000129
100
AcDbArc
 50
207.6004748139
 51
34.8879011019
  0
ARC
  5
195
330
1F
100
AcDbEntity
  8
0
  6
CONTINUOUS
 62
     7
100
AcDbCircle
 10
563.9249933532
 20
63.7417518424
 30
0.0
 40
1.000000000000115
100
AcDbArc
 50
190.0
 51
214.8879011019
  0
LINE
  5
196
330
1F
100
AcDbEntity
  8
0
  6
CONTINUOUS
 62
     7
100
AcDbLine
 10
560.9579300712
 20
74.8101113856
 30
0.0
 11
562.9402017425
 21
63.5681054116
 31
0.0
  0
ARC
  5
197
330
1F
100
AcDbEntity
  8
0
  6
CONTINUOUS
 62
     7
100
AcDbCircle
 10
561.9427509129
 20
74.9837676272
 30
0.0
 40
1.000027830745319
100
AcDbArc
 50
165.1121740788
 51
190.0
  0
ARC
  5
198
330
1F
100
AcDbEntity
  8
0
  6
CONTINUOUS
 62
     7
100
AcDbCircle
 10
555.9798466436
 20
76.5690171684
 30
0.0
 40
5.170000000000049
100
AcDbArc
 50
345.1121740788
 51
13.9447545661
  0
LINE
  5
199
330
1F
100
AcDbEntity
  8
0
  6
CONTINUOUS
 62
     7
100
AcDbLine
 10
560.9975075554
 20
77.8149156392
 30
0.0
 11
881.0622906517
 21
134.2509849489
 31
0.0
  0
ARC
  5
19A
330
1F
100
AcDbEntity
  8
0
  6
CONTINUOUS
 62
     7
100
AcDbCircle
 10
886.2034746226
 20
134.7963480129
 30
0.0
 40
5.169999249139205
100
AcDbArc
 50
186.0551963346
 51
214.8878493682
  0
ARC
  5
19B
330
1F
100
AcDbEntity
  8
0
  6
CONTINUOUS
 62
     7
100
AcDbCircle
 10
881.1423911507
 20
131.2672826697
 30
0.0
 40
0.9999989171685126
100
AcDbArc
 50
10.0
 51
34.8878493682
  0
LINE
  5
19C
330
1F
100
AcDbEntity
  8
0
  6
CONTINUOUS
 62
     7
100
AcDbLine
 10
884.1094589065
 20
120.198906821
 30
0.0
 11
882.1271872352
 21
131.440923971
 31
0.0
  0
ARC
  5
19D
330
1F
100
AcDbEntity
  8
0
  6
CONTINUOUS
 62
     7
100
AcDbCircle
 10
883.1246631319
 20
120.0252596215
 30
0.0
 40
1.000000000000105
100
AcDbArc
 50
345.1121170491
 51
10.0
  0
ARC
  5
19E
330
1F
100
AcDbEntity
  8
0
  6
CONTINUOUS
 62
     7
100
AcDbCircle
 10
889.0875389267
 20
118.4400112956
 30
0.0
 40
5.169999999999996
100
AcDbArc
 50
165.1121170491
 51
352.3995412421
  0
ARC
  5
19F
330
1F
100
AcDbEntity
  8
0
  6
CONTINUOUS
 62
     7
100
AcDbCircle
 10
895.2033322761
 20
117.6239403995
 30
0.0
 40
0.9999999999999573
100
AcDbArc
 50
100.0000385431
 51
172.3995412421
  0
LINE
  5
1A0
330
1F
100
AcDbEntity
  8
0
  6
CONTINUOUS
 62
     7
100
AcDbLine
 10
899.0118717979
 20
119.3109242738
 30
0.0
 11
895.0296854805
 21
118.608751756
 31
0.0
  0
ARC
  5
1A1
330
1F
100
AcDbEntity
  8
0
  6
CONTINUOUS
 62
     7
100
AcDbCircle
 10
899.1855365965
 20
118.326113226
 30
0.0
 40
1.000000000000033
100
AcDbArc
 50
27.6004748139
 51
100.0000385431
  0
ARC
  5
1A2
330
1F
100
AcDbEntity
  8
0
  6
CONTINUOUS
 62
     7
100
AcDbCircle
 10
904.6533889913
 20
121.1846950752
 30
0.0
 40
5.17000000000005
100
AcDbArc
 50
207.6004748139
 51
34.8879011019
  0
ARC
  5
1A3
330
1F
100
AcDbEntity
  8
0
  6
CONTINUOUS
 62
     7
100
AcDbCircle
 10
909.7144713967
 20
124.7137664665
 30
0.0
 40
1.000000000000003
100
AcDbArc
 50
190.0
 51
214.8879011019
  0
LINE
  5
1A4
330
1F
100
AcDbEntity
  8
0
  6
CONTINUOUS
 62
     7
100
AcDbLine
 10
906.7474222015
 20
135.7821239651
 30
0.0
 11
908.7296342682
 21
124.5401217163
 31
0.0
  0
ARC
  5
1A5
330
1F
100
AcDbEntity
  8
0
  6
CONTINUOUS
 62
     7
100
AcDbCircle
 10
907.7322289564
 20
135.9557822514
 30
0.0
 40
1.000027830745306
100
AcDbArc
 50
165.1121740788
 51
190.0
  0
ARC
  5
1A6
330
1F
100
AcDbEntity
  8
0
  6
CONTINUOUS
 62
     7
100
AcDbCircle
 10
901.7693246872
 20
137.5410317926
 30
0.0
 40
5.169999999999936
100
AcDbArc
 50
345.1121740788
 51
13.9447545661
  0
LINE
  5
1A7
330
1F
100
AcDbEntity
  8
0
  6
CONTINUOUS
 62
     7
100
AcDbLine
 10
906.786940081
 20
138.7869282186
 30
0.0
 11
933.428308947
 21
143.484519285
 31
0.0
  0
LINE
  5
1A8
330
1F
100
AcDbEntity
  8
0
  6
CONTINUOUS
 62
     7
100
AcDbLine
 10
933.428308947
 20
115.3552769244
 30
0.0
 11
933.428308947
 21
143.484519285
 31
0.0
  0
ARC
  5
1A9
330
1F
100
AcDbEntity
  8
0
  6
CONTINUOUS
 62
     7
100
AcDbCircle
 10
927.4282800697
 20
115.3552791574
 30
0.0
 40
6.0
100
AcDbArc
 50
280.0
 51
0.0
  0
LINE
  5
1AA
330
1F
100
AcDbEntity
  8
0
  6
CONTINUOUS
 62
     7
100
AcDbLine
 10
502.4701571296
 20
34.3311386675
 30
0.0
 11
928.470156176
 21
109.4464300692
 31
0.0
  0
ARC
  5
1AB
330
1F
100
AcDbEntity
  8
0
  6
CONTINUOUS
 62
     7
100
AcDbCircle
 10
501.4282800697
 20
40.2399853756
 30
0.0
 40
6.000000000000069
100
AcDbArc
 50
180.0
 51
280.0
  0
LINE
  5
1AC
330
1F
100
AcDbEntity
  8
0
  6
CONTINUOUS
 62
     7
100
AcDbLine
 10
495.4282855819
 20
66.253298384
 30
0.0
 11
495.4282855819
 21
40.23998366
 31
0.0
  0
LINE
  5
1AD
330
1F
100
AcDbEntity
  8
0
  6
CONTINUOUS
 62
     7
100
AcDbLine
 10
495.4282855819
 20
66.253298384
 30
0.0
 11
535.272858126
 21
73.2789649189
 31
0.0
  0
ARC
  5
1AE
330
1F
100
AcDbEntity
  8
0
  6
CONTINUOUS
 62
     7
100
AcDbCircle
 10
901.7693262558
 20
426.2199197574
 30
0.0
 40
5.170000000000028
100
AcDbArc
 50
346.0551969084
 51
14.8879011019
  0
ARC
  5
1AF
330
1F
100
AcDbEntity
  8
0
  6
CONTINUOUS
 62
     7
100
AcDbCircle
 10
907.7322015485
 20
427.8051699723
 30
0.0
 40
1.000000000000003
100
AcDbArc
 50
170.0
 51
194.8879011019
  0
LINE
  5
1B0
330
1F
100
AcDbEntity
  8
0
  6
CONTINUOUS
 62
     7
100
AcDbLine
 10
908.7296342682
 20
439.22081725
 30
0.0
 11
906.7474222015
 21
427.9788150013
 31
0.0
  0
ARC
  5
1B1
330
1F
100
AcDbEntity
  8
0
  6
CONTINUOUS
 62
     7
100
AcDbCircle
 10
909.7144988047
 20
439.0471760916
 30
0.0
 40
1.000027830745224
100
AcDbArc
 50
145.1121740788
 51
170.0
  0
ARC
  5
1B2
330
1F
100
AcDbEntity
  8
0
  6
CONTINUOUS
 62
     7
100
AcDbCircle
 10
904.6533889397
 20
442.5762567604
 30
0.0
 40
5.170000000000094
100
AcDbArc
 50
325.1121740788
 51
152.3995412421
  0
ARC
  5
1B3
330
1F
100
AcDbEntity
  8
0
  6
CONTINUOUS
 62
     7
100
AcDbCircle
 10
899.1855357439
 20
445.4348370774
 30
0.0
 40
1.000000000000034
100
AcDbArc
 50
260.0000385431
 51
332.3995412421
  0
LINE
  5
1B4
330
1F
100
AcDbEntity
  8
0
  6
CONTINUOUS
 62
     7
100
AcDbLine
 10
895.0296854805
 20
445.1521946609
 30
0.0
 11
899.0118717979
 21
444.4500221432
 31
0.0
  0
ARC
  5
1B5
330
1F
100
AcDbEntity
  8
0
  6
CONTINUOUS
 62
     7
100
AcDbCircle
 10
895.2033304788
 20
446.1370045462
 30
0.0
 40
1.00000075086069
100
AcDbArc
 50
187.6004748139
 51
260.0000385431
  0
ARC
  5
1B6
330
1F
100
AcDbEntity
  8
0
  6
CONTINUOUS
 62
     7
100
AcDbCircle
 10
889.0875373581
 20
445.3209319363
 30
0.0
 40
5.169999249139224
100
AcDbArc
 50
7.6004748139
 51
194.8878493682
  0
ARC
  5
1B7
330
1F
100
AcDbEntity
  8
0
  6
CONTINUOUS
 62
     7
100
AcDbCircle
 10
883.1246631319
 20
443.7356877694
 30
0.0
 40
0.9999989171684545
100
AcDbArc
 50
350.0
 51
14.8878493682
  0
LINE
  5
1B8
330
1F
100
AcDbEntity
  8
0
  6
CONTINUOUS
 62
     7
100
AcDbLine
 10
882.1271872352
 20
432.3200298965
 30
0.0
 11
884.1094589065
 21
443.5620321453
 31
0.0
  0
ARC
  5
1B9
330
1F
100
AcDbEntity
  8
0
  6
CONTINUOUS
 62
     7
100
AcDbCircle
 10
881.1423911507
 20
432.4936647212
 30
0.0
 40
1.000000000000115
100
AcDbArc
 50
325.1121170491
 51
350.0
  0
ARC
  5
1BA
330
1F
100
AcDbEntity
  8
0
  6
CONTINUOUS
 62
     7
100
AcDbCircle
 10
886.2034746742
 20
428.9645949333
 30
0.0
 40
5.170000000000026
100
AcDbArc
 50
145.1121170491
 51
173.9447545661
  0
LINE
  5
1BB
330
1F
100
AcDbEntity
  8
0
  6
CONTINUOUS
 62
     7
100
AcDbLine
 10
881.0622906517
 20
429.5099689186
 30
0.0
 11
560.9975075554
 21
485.9460307777
 31
0.0
  0
ARC
  5
1BC
330
1F
100
AcDbEntity
  8
0
  6
CONTINUOUS
 62
     7
100
AcDbCircle
 10
555.9798482123
 20
487.1919343815
 30
0.0
 40
5.170000000000028
100
AcDbArc
 50
346.0551969084
 51
14.8879011019
  0
ARC
  5
1BD
330
1F
100
AcDbEntity
  8
0
  6
CONTINUOUS
 62
     7
100
AcDbCircle
 10
561.9427235049
 20
488.7771845965
 30
0.0
 40
1.000000000000115
100
AcDbArc
 50
170.0
 51
194.8879011019
  0
LINE
  5
1BE
330
1F
100
AcDbEntity
  8
0
  6
CONTINUOUS
 62
     7
100
AcDbLine
 10
562.9402017425
 20
500.1928521812
 30
0.0
 11
560.9579300712
 21
488.9508201301
 31
0.0
  0
ARC
  5
1BF
330
1F
100
AcDbEntity
  8
0
  6
CONTINUOUS
 62
     7
100
AcDbCircle
 10
563.9250207611
 20
500.0191907158
 30
0.0
 40
1.000027830745214
100
AcDbArc
 50
145.1121740788
 51
170.0
  0
ARC
  5
1C0
330
1F
100
AcDbEntity
  8
0
  6
CONTINUOUS
 62
     7
100
AcDbCircle
 10
558.8639108962
 20
503.5482713846
 30
0.0
 40
5.170000000000067
100
AcDbArc
 50
325.1121740788
 51
152.3995412421
  0
ARC
  5
1C1
330
1F
100
AcDbEntity
  8
0
  6
CONTINUOUS
 62
     7
100
AcDbCircle
 10
553.3960577003
 20
506.4068517015
 30
0.0
 40
1.000000000000145
100
AcDbArc
 50
260.0000385431
 51
332.3995412421
  0
LINE
  5
1C2
330
1F
100
AcDbEntity
  8
0
  6
CONTINUOUS
 62
     7
100
AcDbLine
 10
549.2401933502
 20
506.1242295921
 30
0.0
 11
553.2224392723
 21
505.422027272
 31
0.0
  0
ARC
  5
1C3
330
1F
100
AcDbEntity
  8
0
  6
CONTINUOUS
 62
     7
100
AcDbCircle
 10
549.4138524353
 20
507.1090191704
 30
0.0
 40
1.000000750860803
100
AcDbArc
 50
187.6004748139
 51
260.0000385431
  0
ARC
  5
1C4
330
1F
100
AcDbEntity
  8
0
  6
CONTINUOUS
 62
     7
100
AcDbCircle
 10
543.2980593146
 20
506.2929465605
 30
0.0
 40
5.169999249139217
100
AcDbArc
 50
7.6004748139
 51
194.8878493683
  0
ARC
  5
1C5
330
1F
100
AcDbEntity
  8
0
  6
CONTINUOUS
 62
     7
100
AcDbCircle
 10
537.3351850883
 20
504.7077023936
 30
0.0
 40
0.999998917168526
100
AcDbArc
 50
350.0
 51
14.8878493682
  0
LINE
  5
1C6
330
1F
100
AcDbEntity
  8
0
  6
CONTINUOUS
 62
     7
100
AcDbLine
 10
536.337695105
 20
493.2920350254
 30
0.0
 11
538.3199667762
 21
504.5340372742
 31
0.0
  0
ARC
  5
1C7
330
1F
100
AcDbEntity
  8
0
  6
CONTINUOUS
 62
     7
100
AcDbCircle
 10
535.3529131072
 20
493.4656793454
 30
0.0
 40
1.000000000000217
100
AcDbArc
 50
325.1121170491
 51
350.0
  0
ARC
  5
1C8
330
1F
100
AcDbEntity
  8
0
  6
CONTINUOUS
 62
     7
100
AcDbCircle
 10
540.4139966306
 20
489.9366095574
 30
0.0
 40
5.17000000000012
100
AcDbArc
 50
145.1121170491
 51
173.9447545661
  0
LINE
  5
1C9
330
1F
100
AcDbEntity
  8
0
  6
CONTINUOUS
 62
     7
100
AcDbLine
 10
535.272858126
 20
490.4819740475
 30
0.0
 11
495.4282855819
 21
497.5076629341
 31
0.0
  0
LINE
  5
1CA
330
1F
100
AcDbEntity
  8
0
  6
CONTINUOUS
 62
     7
100
AcDbLine
 10
495.4282855819
 20
523.5209776581
 30
0.0
 11
495.4282855819
 21
497.5076629341
 31
0.0
  0
ARC
  5
1CB
330
1F
100
AcDbEntity
  8
0
  6
CONTINUOUS
 62
     7
100
AcDbCircle
 10
501.4282800697
 20
523.5209620153
 30
0.0
 40
6.00000000000009
100
AcDbArc
 50
80.0
 51
180.0
  0
LINE
  5
1CC
330
1F
100
AcDbEntity
  8
0
  6
CONTINUOUS
 62
     7
100
AcDbLine
 10
928.470156176
 20
454.3145014465
 30
0.0
 11
502.4701571296
 21
529.4298245132
 31
0.0
  0
ARC
  5
1CD
330
1F
100
AcDbEntity
  8
0
  6
CONTINUOUS
 62
     7
100
AcDbCircle
 10
927.4282800697
 20
448.4056682335
 30
0.0
 40
6.000000000000034
100
AcDbArc
 50
360.0
 51
80.0
  0
LINE
  5
1CE
330
1F
100
AcDbEntity
  8
0
  6
CONTINUOUS
 62
     7
100
AcDbLine
 10
933.428308947
 20
420.2764345825
 30
0.0
 11
933.428308947
 21
448.4056545914
 31
0.0
  0
LINE
  5
1CF
330
1F
100
AcDbEntity
  8
0
  6
CONTINUOUS
 62
     7
100
AcDbLine
 10
933.428308947
 20
420.2764345825
 30
0.0
 11
906.786940081
 21
424.9740256489
 31
0.0
  0
LINE
  5
1D0
330
1F
100
AcDbEntity
  8
0
  6
CONTINUOUS
 62
     7
100
AcDbLine
 10
928.470156176
 20
372.5660158813
 30
0.0
 11
918.3863615822
 21
370.7879795254
 31
0.0
  0
ARC
  5
1D1
330
1F
100
AcDbEntity
  8
0
  6
CONTINUOUS
 62
     7
100
AcDbCircle
 10
919.4282800697
 20
364.8791286193
 30
0.0
 40
6.0
100
AcDbArc
 50
100.0
 51
180.0
  0
LINE
  5
1D2
330
1F
100
AcDbEntity
  8
0
  6
CONTINUOUS
 62
     7
100
AcDbLine
 10
913.4282684158
 20
364.8791326702
 30
0.0
 11
913.4282684158
 21
198.8818211973
 31
0.0
  0
ARC
  5
1D3
330
1F
100
AcDbEntity
  8
0
  6
CONTINUOUS
 62
     7
100
AcDbCircle
 10
919.4282800697
 20
198.8818187716
 30
0.0
 40
6.000000000000034
100
AcDbArc
 50
180.0
 51
260.0
  0
LINE
  5
1D4
330
1F
100
AcDbEntity
  8
0
  6
CONTINUOUS
 62
     7
100
AcDbLine
 10
918.3863615822
 20
192.9729743421
 30
0.0
 11
928.470156176
 21
191.194923085
 31
0.0
  0
ARC
  5
1D5
330
1F
100
AcDbEntity
  8
0
  6
CONTINUOUS
 62
     7
100
AcDbCircle
 10
927.4282800697
 20
185.2860835833
 30
0.0
 40
6.000000000000034
100
AcDbArc
 50
0.0
 51
80.0
  0
LINE
  5
1D6
330
1F
100
AcDbEntity
  8
0
  6
CONTINUOUS
 62
     7
100
AcDbLine
 10
933.428308947
 20
162.4526842058
 30
0.0
 11
893.4282874893
 21
155.3996069849
 31
0.0
  0
LINE
  5
1D7
330
1F
100
AcDbEntity
  8
0
  6
CONTINUOUS
 62
     7
100
AcDbLine
 10
893.4282874893
 20
155.3996069849
 30
0.0
 11
893.4282874893
 21
408.3613468826
 31
0.0
  0
LINE
  5
1D8
330
1F
100
AcDbEntity
  8
0
  6
CONTINUOUS
 62
     7
100
AcDbLine
 10
933.428308947
 20
378.4748627365
 30
0.0
 11
933.428308947
 21
401.3082696617
 31
0.0
  0
LINE
  5
1D9
330
1F
100
AcDbEntity
  8
0
  6
CONTINUOUS
 62
     7
100
AcDbLine
 10
933.428308947
 20
162.4526842058
 30
0.0
 11
933.428308947
 21
185.2860762298
 31
0.0
  0
ARC
  5
1DA
330
1F
100
AcDbEntity
  8
0
  6
CONTINUOUS
 62
     7
100
AcDbCircle
 10
927.4282800697
 20
378.4748638076
 30
0.0
 40
6.0
100
AcDbArc
 50
280.0
 51
360.0
  0
LINE
  5
1DB
330
1F
100
AcDbEntity
  8
0
  6
CONTINUOUS
 62
     7
100
AcDbLine
 10
893.4282874893
 20
408.3613468826
 30
0.0
 11
933.428308947
 21
401.3082696617
 31
0.0
  0
LINE
  5
1DC
330
1F
100
AcDbEntity
  8
0
  6
CONTINUOUS
 62
     7
100
AcDbLine
 10
495.4282855819
 20
478.539468211
 30
0.0
 11
495.4282855819
 21
85.2214633048
 31
0.0
  0
LINE
  5
1DD
330
1F
100
AcDbEntity
  8
0
  6
CONTINUOUS
 62
     7
100
AcDbLine
 10
875.0882959198
 20
411.5951670826
 30
0.0
 11
875.0882959198
 21
152.1657718838
 31
0.0
  0
LINE
  5
1DE
330
1F
100
AcDbEntity
  8
0
  6
CONTINUOUS
 62
     7
100
AcDbLine
 10
875.0882959198
 20
152.1657718838
 30
0.0
 11
495.4282855819
 21
85.2214633048
 31
0.0
  0
LINE
  5
1DF
330
1F
100
AcDbEntity
  8
0
  6
CONTINUOUS
 62
     7
100
AcDbLine
 10
495.4282855819
 20
478.539468211
 30
0.0
 11
875.0882959198
 21
411.5951670826
 31
0.0
  0
ARC
  5
1E0
330
1F
100
AcDbEntity
  8
0
  6
CONTINUOUS
 62
     7
100
AcDbCircle
 10
895.6535313378
 20
138.3571026886
 30
0.0
 40
0.9999999999999573
100
AcDbArc
 50
280.0000385431
 51
352.3995412421
  0
LINE
  5
1E1
330
1F
100
AcDbEntity
  8
0
  6
CONTINUOUS
 62
     7
100
AcDbLine
 10
895.8271956276
 20
137.3723013819
 30
0.0
 11
891.8449497055
 21
136.6701288641
 31
0.0
  0
ARC
  5
1E2
330
1F
100
AcDbEntity
  8
0
  6
CONTINUOUS
 62
     7
100
AcDbCircle
 10
891.6713270174
 20
137.6549298621
 30
0.0
 40
1.000000000000013
100
AcDbArc
 50
207.6004748139
 51
280.0000385431
  0
ARC
  5
1E3
330
1F
100
AcDbEntity
  8
0
  6
CONTINUOUS
 62
     7
100
AcDbCircle
 10
549.8640532942
 20
77.3850880645
 30
0.0
 40
1.000000000000069
100
AcDbArc
 50
280.0000385431
 51
352.3995412421
  0
LINE
  5
1E4
330
1F
100
AcDbEntity
  8
0
  6
CONTINUOUS
 62
     7
100
AcDbLine
 10
550.0377034973
 20
76.4002813518
 30
0.0
 11
546.0555171798
 21
75.6981088341
 31
0.0
  0
ARC
  5
1E5
330
1F
100
AcDbEntity
  8
0
  6
CONTINUOUS
 62
     7
100
AcDbCircle
 10
545.8818489739
 20
76.682915238
 30
0.0
 40
0.9999999999999865
100
AcDbArc
 50
207.6004748139
 51
280.0000385431
  0
ARC
  5
1E6
330
1F
100
AcDbEntity
  8
0
  6
CONTINUOUS
 62
     7
100
AcDbCircle
 10
545.8818498265
 20
487.0780292405
 30
0.0
 40
1.000000000000136
100
AcDbArc
 50
80.0000385431
 51
152.3995412421
  0
LINE
  5
1E7
330
1F
100
AcDbEntity
  8
0
  6
CONTINUOUS
 62
     7
100
AcDbLine
 10
546.0555171798
 20
488.0628301323
 30
0.0
 11
550.0377034973
 21
487.3606576145
 31
0.0
  0
ARC
  5
1E8
330
1F
100
AcDbEntity
  8
0
  6
CONTINUOUS
 62
     7
100
AcDbCircle
 10
549.8640550915
 20
486.3758617716
 30
0.0
 40
0.9999999999999991
100
AcDbArc
 50
7.6004748139
 51
80.0000385431
  0
ARC
  5
1E9
330
1F
100
AcDbEntity
  8
0
  6
CONTINUOUS
 62
     7
100
AcDbCircle
 10
891.67132787
 20
426.1060146163
 30
0.0
 40
0.9999999999999611
100
AcDbArc
 50
80.0000385431
 51
152.3995412421
  0
LINE
  5
1EA
330
1F
100
AcDbEntity
  8
0
  6
CONTINUOUS
 62
     7
100
AcDbLine
 10
891.8449497055
 20
427.0908250034
 30
0.0
 11
895.8271956276
 21
426.3886524856
 31
0.0
  0
ARC
  5
1EB
330
1F
100
AcDbEntity
  8
0
  6
CONTINUOUS
 62
     7
100
AcDbCircle
 10
895.6535331351
 20
425.4038471475
 30
0.0
 40
0.9999999999999578
100
AcDbArc
 50
7.6004748139
 51
80.0000385431
  0
LINE
  5
1EC
330
1F
100
AcDbEntity
  8
0
  6
CONTINUOUS
 62
     7
100
AcDbLine
 10
495.4282855819
 20
478.539468211
 30
0.0
 11
495.4282855819
 21
497.5076629341
 31
0.0
  0
LINE
  5
1ED
330
1F
100
AcDbEntity
  8
0
  6
CONTINUOUS
 62
     7
100
AcDbLine
 10
495.4282855819
 20
66.253298384
 30
0.0
 11
495.4282855819
 21
85.2214633048
 31
0.0
  0
ARC
  5
1EE
330
1F
100
AcDbEntity
  8
0
  6
CONTINUOUS
 62
     7
100
AcDbCircle
 10
886.2034746226
 20
134.7963480129
 30
0.0
 40
5.170000000000002
100
AcDbArc
 50
27.6004748139
 51
186.0551963346
  0
ARC
  5
1EF
330
1F
100
AcDbEntity
  8
0
  6
CONTINUOUS
 62
     7
100
AcDbCircle
 10
886.2034746742
 20
428.9645949333
 30
0.0
 40
5.170000000000067
100
AcDbArc
 50
173.9447545661
 51
332.3995412421
  0
ARC
  5
1F0
330
1F
100
AcDbEntity
  8
0
  6
CONTINUOUS
 62
     7
100
AcDbCircle
 10
901.7693262558
 20
426.2199197574
 30
0.0
 40
5.170000000000027
100
AcDbArc
 50
187.6004748139
 51
346.0551969084
  0
ARC
  5
1F1
330
1F
100
AcDbEntity
  8
0
  6
CONTINUOUS
 62
     7
100
AcDbCircle
 10
901.7693246872
 20
137.5410317926
 30
0.0
 40
5.16999999999999
100
AcDbArc
 50
13.9447545661
 51
172.3995412421
  0
LINE
  5
1F2
330
1F
100
AcDbEntity
  8
0
  6
CONTINUOUS
 62
     7
100
AcDbLine
 10
933.428308947
 20
420.2764345825
 30
0.0
 11
933.428308947
 21
401.3082696617
 31
0.0
  0
LINE
  5
1F3
330
1F
100
AcDbEntity
  8
0
  6
CONTINUOUS
 62
     7
100
AcDbLine
 10
933.428308947
 20
162.4526842058
 30
0.0
 11
933.428308947
 21
143.484519285
 31
0.0
  0
ARC
  5
1F4
330
1F
100
AcDbEntity
  8
0
  6
CONTINUOUS
 62
     7
100
AcDbCircle
 10
555.9798466436
 20
76.5690171684
 30
0.0
 40
5.169999999999982
100
AcDbArc
 50
13.9447545661
 51
172.3995412421
  0
ARC
  5
1F5
330
1F
100
AcDbEntity
  8
0
  6
CONTINUOUS
 62
     7
100
AcDbCircle
 10
555.9798482123
 20
487.1919343815
 30
0.0
 40
5.170000000000013
100
AcDbArc
 50
187.6004748139
 51
346.0551969084
  0
ARC
  5
1F6
330
1F
100
AcDbEntity
  8
0
  6
CONTINUOUS
 62
     7
100
AcDbCircle
 10
540.4139966306
 20
489.9366095574
 30
0.0
 40
5.170000000000058
100
AcDbArc
 50
173.9447545661
 51
332.3995412421
  0
ARC
  5
1F7
330
1F
100
AcDbEntity
  8
0
  6
CONTINUOUS
 62
     7
100
AcDbCircle
 10
540.4139965791
 20
73.8243333887
 30
0.0
 40
5.169999999999934
100
AcDbArc
 50
27.6004748139
 51
186.0551963346
  0
LINE
  5
1F8
330
1F
100
AcDbEntity
  8
0
  6
CONTINUOUS
 62
     7
100
AcDbLine
 10
1324.3882870506
 20
540.5773832023
 30
0.0
 11
1324.3882870506
 21
503.1342221916
 31
0.0
  0
LINE
  5
1F9
330
1F
100
AcDbEntity
  8
0
  6
CONTINUOUS
 62
     7
100
AcDbLine
 10
1324.3882870506
 20
540.5773832023
 30
0.0
 11
1652.3882365059
 21
540.5773832023
 31
0.0
  0
LINE
  5
1FA
330
1F
100
AcDbEntity
  8
0
  6
CONTINUOUS
 62
     7
100
AcDbLine
 10
1324.3882870506
 20
503.1342221916
 30
0.0
 11
1652.3882365059
 21
503.1342221916
 31
0.0
  0
LINE
  5
1FB
330
1F
100
AcDbEntity
  8
0
  6
CONTINUOUS
 62
     7
100
AcDbLine
 10
1652.3882365059
 20
503.1342221916
 30
0.0
 11
1652.3882365059
 21
540.5773832023
 31
0.0
  0
LINE
  5
1FC
330
1F
100
AcDbEntity
  8
0
  6
CONTINUOUS
 62
     7
100
AcDbLine
 10
1652.3882365059
 20
944.7171999634
 30
0.0
 11
1324.3882870506
 21
944.7171999634
 31
0.0
  0
LINE
  5
1FD
330
1F
100
AcDbEntity
  8
0
  6
CONTINUOUS
 62
     7
100
AcDbLine
 10
1652.3882365059
 20
559.025080365
 30
0.0
 11
1324.3882870506
 21
559.025080365
 31
0.0
  0
LINE
  5
1FE
330
1F
100
AcDbEntity
  8
0
  6
CONTINUOUS
 62
     7
100
AcDbLine
 10
1324.3882870506
 20
944.7171999634
 30
0.0
 11
1324.3882870506
 21
559.025080365
 31
0.0
  0
LINE
  5
1FF
330
1F
100
AcDbEntity
  8
0
  6
CONTINUOUS
 62
     7
100
AcDbLine
 10
1652.3882365059
 20
559.025080365
 30
0.0
 11
1652.3882365059
 21
944.7171999634
 31
0.0
  0
LINE
  5
200
330
1F
100
AcDbEntity
  8
0
  6
CONTINUOUS
 62
     7
100
AcDbLine
 10
1324.3882870506
 20
540.5773832023
 30
0.0
 11
1324.3882870506
 21
559.025080365
 31
0.0
  0
LINE
  5
201
330
1F
100
AcDbEntity
  8
0
  6
CONTINUOUS
 62
     7
100
AcDbLine
 10
1652.3882365059
 20
559.025080365
 30
0.0
 11
1652.3882365059
 21
540.5773832023
 31
0.0
  0
LINE
  5
202
330
1F
100
AcDbEntity
  8
0
  6
CONTINUOUS
 62
     7
100
AcDbLine
 10
1324.3882870506
 20
30.0712617606
 30
0.0
 11
1652.3882365059
 21
30.0712617606
 31
0.0
  0
LINE
  5
203
330
1F
100
AcDbEntity
  8
0
  6
CONTINUOUS
 62
     7
100
AcDbLine
 10
1324.3882870506
 20
67.5144432605
 30
0.0
 11
1324.3882870506
 21
30.0712617606
 31
0.0
  0
LINE
  5
204
330
1F
100
AcDbEntity
  8
0
  6
CONTINUOUS
 62
     7
100
AcDbLine
 10
1652.3882365059
 20
67.5144432605
 30
0.0
 11
1324.3882870506
 21
67.5144432605
 31
0.0
  0
LINE
  5
205
330
1F
100
AcDbEntity
  8
0
  6
CONTINUOUS
 62
     7
100
AcDbLine
 10
1652.3882365059
 20
30.0712617606
 30
0.0
 11
1652.3882365059
 21
67.5144432605
 31
0.0
  0
LINE
  5
206
330
1F
100
AcDbEntity
  8
0
  6
CONTINUOUS
 62
     7
100
AcDbLine
 10
1652.3882365059
 20
471.6542376697
 30
0.0
 11
1324.3882870506
 21
471.6542376697
 31
0.0
  0
LINE
  5
207
330
1F
100
AcDbEntity
  8
0
  6
CONTINUOUS
 62
     7
100
AcDbLine
 10
1324.3882870506
 20
85.9621180714
 30
0.0
 11
1652.3882365059
 21
85.9621180714
 31
0.0
  0
LINE
  5
208
330
1F
100
AcDbEntity
  8
0
  6
CONTINUOUS
 62
     7
100
AcDbLine
 10
1324.3882870506
 20
471.6542376697
 30
0.0
 11
1324.3882870506
 21
85.9621180714
 31
0.0
  0
LINE
  5
209
330
1F
100
AcDbEntity
  8
0
  6
CONTINUOUS
 62
     7
100
AcDbLine
 10
1652.3882365059
 20
85.9621180714
 30
0.0
 11
1652.3882365059
 21
471.6542376697
 31
0.0
  0
LINE
  5
20A
330
1F
100
AcDbEntity
  8
0
  6
CONTINUOUS
 62
     7
100
AcDbLine
 10
1324.3882870506
 20
67.5144432605
 30
0.0
 11
1324.3882870506
 21
85.9621180714
 31
0.0
  0
LINE
  5
20B
330
1F
100
AcDbEntity
  8
0
  6
CONTINUOUS
 62
     7
100
AcDbLine
 10
1652.3882365059
 20
85.9621180714
 30
0.0
 11
1652.3882365059
 21
67.5144432605
 31
0.0
  0
LINE
  5
20C
330
1F
100
AcDbEntity
  8
0
  6
CONTINUOUS
 62
     7
100
AcDbLine
 10
964.9082636665
 20
30.0712617606
 30
0.0
 11
1292.9083323311
 21
30.0712617606
 31
0.0
  0
LINE
  5
20D
330
1F
100
AcDbEntity
  8
0
  6
CONTINUOUS
 62
     7
100
AcDbLine
 10
964.9082636665
 20
308.071257037
 30
0.0
 11
964.9082636665
 21
30.0712617606
 31
0.0
  0
LINE
  5
20E
330
1F
100
AcDbEntity
  8
0
  6
CONTINUOUS
 62
     7
100
AcDbLine
 10
1292.9083323311
 20
308.071257037
 30
0.0
 11
964.9082636665
 21
308.071257037
 31
0.0
  0
LINE
  5
20F
330
1F
100
AcDbEntity
  8
0
  6
CONTINUOUS
 62
     7
100
AcDbLine
 10
1292.9083323311
 20
30.0712617606
 30
0.0
 11
1292.9083323311
 21
308.071257037
 31
0.0
  0
LINE
  5
210
330
1F
100
AcDbEntity
  8
POCKETS
100
AcDbLine
 10
1662.3882800697
 20
85.9621201093
 30
0.0
 11
1314.3882800697
 21
85.9621201093
 31
0.0
  0
LINE
  5
211
330
1F
100
AcDbEntity
  8
POCKETS
100
AcDbLine
 10
1314.3882800697
 20
85.9621201093
 30
0.0
 11
1314.3882800697
 21
67.5144410953
 31
0.0
  0
LINE
  5
212
330
1F
100
AcDbEntity
  8
POCKETS
100
AcDbLine
 10
1314.3882800697
 20
67.5144410953
 30
0.0
 11
1662.3882800697
 21
67.5144410953
 31
0.0
  0
LINE
  5
213
330
1F
100
AcDbEntity
  8
PROFILES_OUTSIDE
100
AcDbLine
 10
463.9482800697
 20
378.4748638076
 30
0.0
 11
463.9482800697
 21
453.4402660205
 31
0.0
  0
LINE
  5
214
330
1F
100
AcDbEntity
  8
PROFILES_OUTSIDE
100
AcDbLine
 10
463.9482800697
 20
453.4402660205
 30
0.0
 11
25.9482800697
 21
530.6714835708
 31
0.0
  0
LINE
  5
215
330
1F
100
AcDbEntity
  8
PROFILES_OUTSIDE
100
AcDbLine
 10
25.9482800697
 20
530.6714835708
 30
0.0
 11
25.9482800697
 21
33.0894638201
 31
0.0
  0
LINE
  5
216
330
1F
100
AcDbEntity
  8
PROFILES_OUTSIDE
100
AcDbLine
 10
25.9482800697
 20
33.0894638201
 30
0.0
 11
463.9482800697
 21
110.3206813704
 31
0.0
  0
LINE
  5
217
330
1F
100
AcDbEntity
  8
POCKETS
100
AcDbLine
 10
1662.3882800697
 20
67.5144410953
 30
0.0
 11
1662.3882800697
 21
85.9621201093
 31
0.0
  0
LINE
  5
218
330
1F
100
AcDbEntity
  8
PROFILES_OUTSIDE
100
AcDbLine
 10
463.9482800697
 20
110.3206813704
 30
0.0
 11
463.9482800697
 21
185.2860835833
 31
0.0
  0
LINE
  5
219
330
1F
100
AcDbEntity
  8
PROFILES_OUTSIDE
100
AcDbLine
 10
458.9901691357
 20
191.1949301014
 30
0.0
 11
448.9063910037
 21
192.9729722535
 31
0.0
  0
LINE
  5
21A
330
1F
100
AcDbEntity
  8
PROFILES_OUTSIDE
100
AcDbLine
 10
443.9482800697
 20
198.8818187716
 30
0.0
 11
443.9482800697
 21
364.8791286193
 31
0.0
  0
LINE
  5
21B
330
1F
100
AcDbEntity
  8
PROFILES_OUTSIDE
100
AcDbLine
 10
448.9063910037
 20
370.7879751374
 30
0.0
 11
458.9901691357
 21
372.5660172895
 31
0.0
  0
LINE
  5
21C
330
1F
100
AcDbEntity
  8
PROFILES_INSIDE
100
AcDbLine
 10
437.2673937955
 20
427.97881815
 30
0.0
 11
439.2496636437
 21
439.220829102
 31
0.0
  0
LINE
  5
21D
330
1F
100
AcDbEntity
  8
PROFILES_INSIDE
100
AcDbLine
 10
422.3649753852
 20
427.0908224861
 30
0.0
 11
426.3471806503
 21
426.3886550173
 31
0.0
  0
LINE
  5
21E
330
1F
100
AcDbEntity
  8
PROFILES_INSIDE
100
AcDbLine
 10
414.6294698185
 20
443.5620397798
 30
0.0
 11
412.6471989037
 21
432.3200165436
 31
0.0
  0
LINE
  5
21F
330
1F
100
AcDbEntity
  8
PROFILES_INSIDE
100
AcDbLine
 10
429.5318882287
 20
444.4500292075
 30
0.0
 11
425.5496827843
 21
445.1521956596
 31
0.0
  0
LINE
  5
220
330
1F
100
AcDbEntity
  8
PROFILES_OUTSIDE
100
AcDbLine
 10
1292.9082800697
 20
30.0712622726
 30
0.0
 11
1292.9082800697
 21
308.0712622726
 31
0.0
  0
LINE
  5
221
330
1F
100
AcDbEntity
  8
PROFILES_OUTSIDE
100
AcDbLine
 10
1292.9082800697
 20
308.0712622726
 30
0.0
 11
964.9082800697
 21
308.0712622726
 31
0.0
  0
LINE
  5
222
330
1F
100
AcDbEntity
  8
PROFILES_OUTSIDE
100
AcDbLine
 10
964.9082800697
 20
308.0712622726
 30
0.0
 11
964.9082800697
 21
30.0712622726
 31
0.0
  0
LINE
  5
223
330
1F
100
AcDbEntity
  8
PROFILES_OUTSIDE
100
AcDbLine
 10
964.9082800697
 20
30.0712622726
 30
0.0
 11
1292.9082800697
 21
30.0712622726
 31
0.0
  0
LINE
  5
224
330
1F
100
AcDbEntity
  8
PROFILES_OUTSIDE
100
AcDbLine
 10
1652.3882800697
 20
471.6542326258
 30
0.0
 11
1324.3882800697
 21
471.6542326258
 31
0.0
  0
LINE
  5
225
330
1F
100
AcDbEntity
  8
PROFILES_OUTSIDE
100
AcDbLine
 10
1324.3882800697
 20
471.6542326258
 30
0.0
 11
1324.3882800697
 21
30.0712622726
 31
0.0
  0
LINE
  5
226
330
1F
100
AcDbEntity
  8
PROFILES_OUTSIDE
100
AcDbLine
 10
1324.3882800697
 20
30.0712622726
 30
0.0
 11
1652.3882800697
 21
30.0712622726
 31
0.0
  0
LINE
  5
227
330
1F
100
AcDbEntity
  8
PROFILES_OUTSIDE
100
AcDbLine
 10
1652.3882800697
 20
30.0712622726
 30
0.0
 11
1652.3882800697
 21
471.6542326258
 31
0.0
  0
LINE
  5
228
330
1F
100
AcDbEntity
  8
PROFILES_OUTSIDE
100
AcDbLine
 10
1324.3882800697
 20
944.717202979
 30
0.0
 11
1324.3882800697
 21
503.1342326258
 31
0.0
  0
LINE
  5
229
330
1F
100
AcDbEntity
  8
PROFILES_OUTSIDE
100
AcDbLine
 10
1324.3882800697
 20
503.1342326258
 30
0.0
 11
1652.3882800697
 21
503.1342326258
 31
0.0
  0
LINE
  5
22A
330
1F
100
AcDbEntity
  8
BOX_STOCK
100
AcDbLine
 10
0.2082800697
 20
4.3312622726
 30
0.0
 11
2440.2082800697
 21
4.3312622726
 31
0.0
  0
LINE
  5
22B
330
1F
100
AcDbEntity
  8
BOX_STOCK
100
AcDbLine
 10
2440.2082800697
 20
4.3312622726
 30
0.0
 11
2440.2082800697
 21
1224.3312622726
 31
0.0
  0
LINE
  5
22C
330
1F
100
AcDbEntity
  8
BOX_STOCK
100
AcDbLine
 10
2440.2082800697
 20
1224.3312622726
 30
0.0
 11
0.2082800697
 21
1224.3312622726
 31
0.0
  0
LINE
  5
22D
330
1F
100
AcDbEntity
  8
BOX_STOCK
100
AcDbLine
 10
0.2082800697
 20
1224.3312622726
 30
0.0
 11
0.2082800697
 21
4.3312622726
 31
0.0
  0
LINE
  5
22E
330
1F
100
AcDbEntity
  8
POCKETS
100
AcDbLine
 10
1662.3882800697
 20
559.0250904625
 30
0.0
 11
1314.3882800697
 21
559.0250904625
 31
0.0
  0
LINE
  5
22F
330
1F
100
AcDbEntity
  8
PROFILES_OUTSIDE
100
AcDbLine
 10
1652.3882800697
 20
503.1342326258
 30
0.0
 11
1652.3882800697
 21
944.717202979
 31
0.0
  0
LINE
  5
230
330
1F
100
AcDbEntity
  8
POCKETS
100
AcDbLine
 10
1314.3882800697
 20
559.0250904625
 30
0.0
 11
1314.3882800697
 21
540.5774114485
 31
0.0
  0
LINE
  5
231
330
1F
100
AcDbEntity
  8
POCKETS
100
AcDbLine
 10
1314.3882800697
 20
540.5774114485
 30
0.0
 11
1662.3882800697
 21
540.5774114485
 31
0.0
  0
LINE
  5
232
330
1F
100
AcDbEntity
  8
POCKETS
100
AcDbLine
 10
1662.3882800697
 20
540.5774114485
 30
0.0
 11
1662.3882800697
 21
559.0250904625
 31
0.0
  0
LINE
  5
233
330
1F
100
AcDbEntity
  8
PROFILES_OUTSIDE
100
AcDbLine
 10
1652.3882800697
 20
944.717202979
 30
0.0
 11
1324.3882800697
 21
944.717202979
 31
0.0
  0
LINE
  5
234
330
1F
100
AcDbEntity
  8
PROFILES_INSIDE
100
AcDbLine
 10
91.3355125508
 20
488.9759423006
 30
0.0
 11
93.3177823991
 21
500.2179532527
 31
0.0
  0
LINE
  5
235
330
1F
100
AcDbEntity
  8
PROFILES_INSIDE
100
AcDbLine
 10
83.6000069841
 20
505.4471533582
 30
0.0
 11
79.6178016538
 21
506.1493204573
 31
0.0
  0
LINE
  5
236
330
1F
100
AcDbEntity
  8
PROFILES_INSIDE
100
AcDbLine
 10
68.6975884814
 20
504.5591639467
 30
0.0
 11
66.7153176591
 21
493.3171406942
 31
0.0
  0
LINE
  5
237
330
1F
100
AcDbEntity
  8
PROFILES_INSIDE
100
AcDbLine
 10
76.4330941406
 20
488.0879466368
 30
0.0
 11
80.4152994056
 21
487.385779168
 31
0.0
  0
LINE
  5
238
330
1F
100
AcDbEntity
  8
PROFILES_INSIDE
100
AcDbLine
 10
439.2496636437
 20
124.5401182889
 30
0.0
 11
437.2673937955
 21
135.7821292409
 31
0.0
  0
LINE
  5
239
330
1F
100
AcDbEntity
  8
PROFILES_INSIDE
100
AcDbLine
 10
426.3471801779
 20
137.3722950525
 30
0.0
 11
422.3649758739
 21
136.6701221335
 31
0.0
  0
LINE
  5
23A
330
1F
100
AcDbEntity
  8
PROFILES_INSIDE
100
AcDbLine
 10
412.6471976525
 20
131.4409306267
 30
0.0
 11
414.6294708849
 21
120.1989077992
 31
0.0
  0
LINE
  5
23B
330
1F
100
AcDbEntity
  8
PROFILES_INSIDE
100
AcDbLine
 10
425.549683436
 20
118.6087480357
 30
0.0
 11
429.5318877563
 21
119.3109208622
 31
0.0
  0
LINE
  5
23C
330
1F
100
AcDbEntity
  8
PROFILES_INSIDE
100
AcDbLine
 10
66.7153165927
 20
70.4438065086
 30
0.0
 11
68.6975896402
 21
59.2017836485
 31
0.0
  0
LINE
  5
23D
330
1F
100
AcDbEntity
  8
PROFILES_INSIDE
100
AcDbLine
 10
79.6178021914
 20
57.611623885
 30
0.0
 11
83.6000065117
 21
58.3137967115
 31
0.0
  0
LINE
  5
23E
330
1F
100
AcDbEntity
  8
PROFILES_INSIDE
100
AcDbLine
 10
93.3177823991
 20
63.5429941382
 30
0.0
 11
91.3355125508
 21
74.7850050903
 31
0.0
  0
LINE
  5
23F
330
1F
100
AcDbEntity
  8
PROFILES_INSIDE
100
AcDbLine
 10
80.4152989333
 20
76.3751709018
 30
0.0
 11
76.4330946129
 21
75.6729980753
 31
0.0
  0
LINE
  5
240
330
1F
100
AcDbEntity
  8
PROFILES_OUTSIDE
100
AcDbLine
 10
1690.1282800697
 20
425.0917003881
 30
0.0
 11
1684.8682800697
 21
425.0917003881
 31
0.0
  0
LINE
  5
241
330
1F
100
AcDbEntity
  8
PROFILES_OUTSIDE
100
AcDbLine
 10
1690.4683677068
 20
419.7778310588
 30
0.0
 11
1690.1282800697
 21
425.0917003881
 31
0.0
  0
LINE
  5
242
330
1F
100
AcDbEntity
  8
PROFILES_OUTSIDE
100
AcDbLine
 10
1705.4060016863
 20
418.8417003881
 30
0.0
 11
1691.4663259768
 21
418.8417003881
 31
0.0
  0
LINE
  5
243
330
1F
100
AcDbEntity
  8
PROFILES_OUTSIDE
100
AcDbLine
 10
1708.8682800697
 20
431.3437003881
 30
0.0
 11
1708.8682800697
 21
429.3198820279
 31
0.0
  0
LINE
  5
244
330
1F
100
AcDbEntity
  8
PROFILES_OUTSIDE
100
AcDbLine
 10
1826.8682800697
 20
431.3437003881
 30
0.0
 11
1708.8682800697
 21
431.3437003881
 31
0.0
  0
LINE
  5
245
330
1F
100
AcDbEntity
  8
PROFILES_OUTSIDE
100
AcDbLine
 10
1838.8682800697
 20
305.5862210163
 30
0.0
 11
1838.8682800697
 21
419.3437003881
 31
0.0
  0
LINE
  5
246
330
1F
100
AcDbEntity
  8
PROFILES_OUTSIDE
100
AcDbLine
 10
1876.8682800697
 20
293.5862210163
 30
0.0
 11
1850.8682800697
 21
293.5862210163
 31
0.0
  0
LINE
  5
247
330
1F
100
AcDbEntity
  8
PROFILES_OUTSIDE
100
AcDbLine
 10
1888.8682800697
 20
419.3437003881
 30
0.0
 11
1888.8682800697
 21
305.5862210163
 31
0.0
  0
LINE
  5
248
330
1F
100
AcDbEntity
  8
PROFILES_INSIDE
100
AcDbLine
 10
906.7473937955
 20
427.97881815
 30
0.0
 11
908.7296636437
 21
439.220829102
 31
0.0
  0
LINE
  5
249
330
1F
100
AcDbEntity
  8
PROFILES_INSIDE
100
AcDbLine
 10
891.8449753852
 20
427.0908224861
 30
0.0
 11
895.8271806503
 21
426.3886550173
 31
0.0
  0
LINE
  5
24A
330
1F
100
AcDbEntity
  8
PROFILES_INSIDE
100
AcDbLine
 10
884.1094698185
 20
443.5620397798
 30
0.0
 11
882.1271989037
 21
432.3200165436
 31
0.0
  0
LINE
  5
24B
330
1F
100
AcDbEntity
  8
PROFILES_INSIDE
100
AcDbLine
 10
899.0118882287
 20
444.4500292076
 30
0.0
 11
895.0296827843
 21
445.1521956596
 31
0.0
  0
LINE
  5
24C
330
1F
100
AcDbEntity
  8
PROFILES_INSIDE
100
AcDbLine
 10
560.9579157519
 20
488.9508327741
 30
0.0
 11
562.9401856002
 21
500.1928437262
 31
0.0
  0
LINE
  5
24D
330
1F
100
AcDbEntity
  8
PROFILES_INSIDE
100
AcDbLine
 10
553.2224101851
 20
505.4220438317
 30
0.0
 11
549.2402048549
 21
506.1242109308
 31
0.0
  0
LINE
  5
24E
330
1F
100
AcDbEntity
  8
PROFILES_INSIDE
100
AcDbLine
 10
538.3199916825
 20
504.5340544203
 30
0.0
 11
536.3377208602
 21
493.2920311678
 31
0.0
  0
LINE
  5
24F
330
1F
100
AcDbEntity
  8
PROFILES_INSIDE
100
AcDbLine
 10
546.0554973417
 20
488.0628371103
 30
0.0
 11
550.0377026067
 21
487.3606696415
 31
0.0
  0
LINE
  5
250
330
1F
100
AcDbEntity
  8
PROFILES_INSIDE
100
AcDbLine
 10
908.7296636437
 20
124.5401182889
 30
0.0
 11
906.7473937955
 21
135.7821292409
 31
0.0
  0
LINE
  5
251
330
1F
100
AcDbEntity
  8
PROFILES_INSIDE
100
AcDbLine
 10
895.8271801779
 20
137.3722950525
 30
0.0
 11
891.8449758739
 21
136.6701221335
 31
0.0
  0
LINE
  5
252
330
1F
100
AcDbEntity
  8
PROFILES_INSIDE
100
AcDbLine
 10
882.1271976525
 20
131.4409306267
 30
0.0
 11
884.1094708849
 21
120.1989077992
 31
0.0
  0
LINE
  5
253
330
1F
100
AcDbEntity
  8
PROFILES_INSIDE
100
AcDbLine
 10
895.029683436
 20
118.6087480357
 30
0.0
 11
899.0118877563
 21
119.3109208622
 31
0.0
  0
LINE
  5
254
330
1F
100
AcDbEntity
  8
PROFILES_OUTSIDE
100
AcDbLine
 10
2018.8682800697
 20
431.3437003881
 30
0.0
 11
1900.8682800697
 21
431.3437003881
 31
0.0
  0
LINE
  5
255
330
1F
100
AcDbEntity
  8
PROFILES_OUTSIDE
100
AcDbLine
 10
2018.8682800697
 20
429.3198820279
 30
0.0
 11
2018.8682800697
 21
431.3437003881
 31
0.0
  0
LINE
  5
256
330
1F
100
AcDbEntity
  8
PROFILES_OUTSIDE
100
AcDbLine
 10
2036.2702341626
 20
418.8417003881
 30
0.0
 11
2022.3305584531
 21
418.8417003881
 31
0.0
  0
LINE
  5
257
330
1F
100
AcDbEntity
  8
PROFILES_OUTSIDE
100
AcDbLine
 10
2037.6082800697
 20
425.0917003881
 30
0.0
 11
2037.2681924326
 21
419.7778310588
 31
0.0
  0
LINE
  5
258
330
1F
100
AcDbEntity
  8
PROFILES_OUTSIDE
100
AcDbLine
 10
2042.8682800697
 20
425.0917003881
 30
0.0
 11
2037.6082800697
 21
425.0917003881
 31
0.0
  0
LINE
  5
259
330
1F
100
AcDbEntity
  8
PROFILES_INSIDE
100
AcDbLine
 10
536.3377197938
 20
70.4689160351
 30
0.0
 11
538.3199928413
 21
59.226893175
 31
0.0
  0
LINE
  5
25A
330
1F
100
AcDbEntity
  8
PROFILES_INSIDE
100
AcDbLine
 10
549.2402053924
 20
57.6367334115
 30
0.0
 11
553.2224097128
 21
58.338906238
 31
0.0
  0
LINE
  5
25B
330
1F
100
AcDbEntity
  8
PROFILES_INSIDE
100
AcDbLine
 10
562.9401856002
 20
63.5681036647
 30
0.0
 11
560.9579157519
 21
74.8101146168
 31
0.0
  0
LINE
  5
25C
330
1F
100
AcDbEntity
  8
PROFILES_INSIDE
100
AcDbLine
 10
550.0377021344
 20
76.4002804283
 30
0.0
 11
546.055497814
 21
75.6981076018
 31
0.0
  0
LINE
  5
25D
330
1F
100
AcDbEntity
  8
PROFILES_OUTSIDE
100
AcDbLine
 10
495.4282800697
 20
523.5209620153
 30
0.0
 11
495.4282800697
 21
40.2399853756
 31
0.0
  0
LINE
  5
25E
330
1F
100
AcDbEntity
  8
PROFILES_OUTSIDE
100
AcDbLine
 10
928.4701691357
 20
454.3145147515
 30
0.0
 11
502.4701691357
 21
529.4298085333
 31
0.0
  0
LINE
  5
25F
330
1F
100
AcDbEntity
  8
PROFILES_OUTSIDE
100
AcDbLine
 10
933.4282800697
 20
378.4748638076
 30
0.0
 11
933.4282800697
 21
448.4056682335
 31
0.0
  0
LINE
  5
260
330
1F
100
AcDbEntity
  8
PROFILES_OUTSIDE
100
AcDbLine
 10
918.3863910037
 20
370.7879751374
 30
0.0
 11
928.4701691357
 21
372.5660172895
 31
0.0
  0
LINE
  5
261
330
1F
100
AcDbEntity
  8
POCKETS
100
AcDbLine
 10
474.0721518554
 20
164.2377953696
 30
0.0
 11
464.2240743253
 21
162.501313593
 31
0.0
  0
LINE
  5
262
330
1F
100
AcDbEntity
  8
PROFILES_OUTSIDE
100
AcDbLine
 10
2043.8682800697
 20
412.3417003881
 30
0.0
 11
2043.8682800697
 21
424.0917003881
 31
0.0
  0
LINE
  5
263
330
1F
100
AcDbEntity
  8
PROFILES_OUTSIDE
100
AcDbLine
 10
1919.9182800697
 20
406.3417003881
 30
0.0
 11
2037.8682800697
 21
406.3417003881
 31
0.0
  0
LINE
  5
264
330
1F
100
AcDbEntity
  8
PROFILES_OUTSIDE
100
AcDbLine
 10
1907.9182800697
 20
293.5862210163
 30
0.0
 11
1907.9182800697
 21
394.3417003881
 31
0.0
  0
LINE
  5
265
330
1F
100
AcDbEntity
  8
PROFILES_OUTSIDE
100
AcDbLine
 10
1888.8682800697
 20
200.8243095286
 30
0.0
 11
1888.8682800697
 21
260.5906531321
 31
0.0
  0
LINE
  5
266
330
1F
100
AcDbEntity
  8
PROFILES_OUTSIDE
100
AcDbLine
 10
1907.9182800697
 20
67.0732622726
 30
0.0
 11
1907.9182800697
 21
167.8287416445
 31
0.0
  0
LINE
  5
267
330
1F
100
AcDbEntity
  8
PROFILES_OUTSIDE
100
AcDbLine
 10
2037.8682800697
 20
55.0732622726
 30
0.0
 11
1919.9182800697
 21
55.0732622726
 31
0.0
  0
LINE
  5
268
330
1F
100
AcDbEntity
  8
PROFILES_OUTSIDE
100
AcDbLine
 10
2043.8682800697
 20
37.3232622726
 30
0.0
 11
2043.8682800697
 21
49.0732622726
 31
0.0
  0
LINE
  5
269
330
1F
100
AcDbEntity
  8
PROFILES_OUTSIDE
100
AcDbLine
 10
2037.6082800697
 20
36.3232622726
 30
0.0
 11
2042.8682800697
 21
36.3232622726
 31
0.0
  0
LINE
  5
26A
330
1F
100
AcDbEntity
  8
PROFILES_OUTSIDE
100
AcDbLine
 10
2037.2681924326
 20
41.6371316019
 30
0.0
 11
2037.6082800697
 21
36.3232622726
 31
0.0
  0
LINE
  5
26B
330
1F
100
AcDbEntity
  8
PROFILES_OUTSIDE
100
AcDbLine
 10
2022.3305584531
 20
42.5732622726
 30
0.0
 11
2036.2702341626
 21
42.5732622726
 31
0.0
  0
LINE
  5
26C
330
1F
100
AcDbEntity
  8
PROFILES_OUTSIDE
100
AcDbLine
 10
2018.8682800697
 20
30.0712622726
 30
0.0
 11
2018.8682800697
 21
32.0950806329
 31
0.0
  0
LINE
  5
26D
330
1F
100
AcDbEntity
  8
PROFILES_OUTSIDE
100
AcDbLine
 10
1900.8682800697
 20
30.0712622726
 30
0.0
 11
2018.8682800697
 21
30.0712622726
 31
0.0
  0
LINE
  5
26E
330
1F
100
AcDbEntity
  8
PROFILES_OUTSIDE
100
AcDbLine
 10
1888.8682800697
 20
155.8287416445
 30
0.0
 11
1888.8682800697
 21
42.0712622726
 31
0.0
  0
LINE
  5
26F
330
1F
100
AcDbEntity
  8
PROFILES_OUTSIDE
100
AcDbLine
 10
1850.8682800697
 20
167.8287416445
 30
0.0
 11
1876.8682800697
 21
167.8287416445
 31
0.0
  0
LINE
  5
270
330
1F
100
AcDbEntity
  8
PROFILES_OUTSIDE
100
AcDbLine
 10
1838.8682800697
 20
42.0712622726
 30
0.0
 11
1838.8682800697
 21
155.8287416445
 31
0.0
  0
LINE
  5
271
330
1F
100
AcDbEntity
  8
PROFILES_OUTSIDE
100
AcDbLine
 10
1708.8682800697
 20
30.0712622726
 30
0.0
 11
1826.8682800697
 21
30.0712622726
 31
0.0
  0
LINE
  5
272
330
1F
100
AcDbEntity
  8
PROFILES_OUTSIDE
100
AcDbLine
 10
913.4282800697
 20
198.8818187716
 30
0.0
 11
913.4282800697
 21
364.8791286193
 31
0.0
  0
LINE
  5
273
330
1F
100
AcDbEntity
  8
POCKETS
100
AcDbLine
 10
477.3158998143
 20
145.8415865434
 30
0.0
 11
474.0721518554
 21
164.2377953696
 31
0.0
  0
LINE
  5
274
330
1F
100
AcDbEntity
  8
PROFILES_OUTSIDE
100
AcDbLine
 10
928.4701691357
 20
191.1949301014
 30
0.0
 11
918.3863910037
 21
192.9729722535
 31
0.0
  0
LINE
  5
275
330
1F
100
AcDbEntity
  8
POCKETS
100
AcDbLine
 10
467.4678222841
 20
144.1051047667
 30
0.0
 11
477.3158998143
 21
145.8415865434
 31
0.0
  0
LINE
  5
276
330
1F
100
AcDbEntity
  8
POCKETS
100
AcDbLine
 10
25.6724858141
 20
66.2046669959
 30
0.0
 11
467.4678222841
 21
144.1051047667
 31
0.0
  0
LINE
  5
277
330
1F
100
AcDbEntity
  8
POCKETS
100
AcDbLine
 10
15.824408284
 20
64.4681852192
 30
0.0
 11
25.6724858141
 21
66.2046669959
 31
0.0
  0
LINE
  5
278
330
1F
100
AcDbEntity
  8
POCKETS
100
AcDbLine
 10
12.5806603251
 20
82.8643940455
 30
0.0
 11
15.824408284
 21
64.4681852192
 31
0.0
  0
LINE
  5
279
330
1F
100
AcDbEntity
  8
POCKETS
100
AcDbLine
 10
22.4287378553
 20
84.6008758221
 30
0.0
 11
12.5806603251
 21
82.8643940455
 31
0.0
  0
LINE
  5
27A
330
1F
100
AcDbEntity
  8
POCKETS
100
AcDbLine
 10
405.6082800697
 20
152.1657675701
 30
0.0
 11
22.4287378553
 21
84.6008758221
 31
0.0
  0
LINE
  5
27B
330
1F
100
AcDbEntity
  8
POCKETS
100
AcDbLine
 10
405.6082800697
 20
411.5951798209
 30
0.0
 11
405.6082800697
 21
152.1657675701
 31
0.0
  0
LINE
  5
27C
330
1F
100
AcDbEntity
  8
POCKETS
100
AcDbLine
 10
22.4287378553
 20
479.1600715688
 30
0.0
 11
405.6082800697
 21
411.5951798209
 31
0.0
  0
LINE
  5
27D
330
1F
100
AcDbEntity
  8
POCKETS
100
AcDbLine
 10
12.5806603251
 20
480.8965533454
 30
0.0
 11
22.4287378553
 21
479.1600715688
 31
0.0
  0
LINE
  5
27E
330
1F
100
AcDbEntity
  8
POCKETS
100
AcDbLine
 10
15.824408284
 20
499.2927621717
 30
0.0
 11
12.5806603251
 21
480.8965533454
 31
0.0
  0
LINE
  5
27F
330
1F
100
AcDbEntity
  8
POCKETS
100
AcDbLine
 10
25.6724858141
 20
497.556280395
 30
0.0
 11
15.824408284
 21
499.2927621717
 31
0.0
  0
LINE
  5
280
330
1F
100
AcDbEntity
  8
POCKETS
100
AcDbLine
 10
467.4678222841
 20
419.6558426242
 30
0.0
 11
25.6724858141
 21
497.556280395
 31
0.0
  0
LINE
  5
281
330
1F
100
AcDbEntity
  8
POCKETS
100
AcDbLine
 10
477.3158998143
 20
417.9193608475
 30
0.0
 11
467.4678222841
 21
419.6558426242
 31
0.0
  0
LINE
  5
282
330
1F
100
AcDbEntity
  8
POCKETS
100
AcDbLine
 10
474.0721518554
 20
399.5231520213
 30
0.0
 11
477.3158998143
 21
417.9193608475
 31
0.0
  0
LINE
  5
283
330
1F
100
AcDbEntity
  8
POCKETS
100
AcDbLine
 10
464.2240743253
 20
401.2596337979
 30
0.0
 11
474.0721518554
 21
399.5231520213
 31
0.0
  0
LINE
  5
284
330
1F
100
AcDbEntity
  8
POCKETS
100
AcDbLine
 10
423.9482800697
 20
408.3613429947
 30
0.0
 11
464.2240743253
 21
401.2596337979
 31
0.0
  0
LINE
  5
285
330
1F
100
AcDbEntity
  8
PROFILES_OUTSIDE
100
AcDbLine
 10
1708.8682800697
 20
32.0950806329
 30
0.0
 11
1708.8682800697
 21
30.0712622726
 31
0.0
  0
LINE
  5
286
330
1F
100
AcDbEntity
  8
PROFILES_OUTSIDE
100
AcDbLine
 10
1691.4663259768
 20
42.5732622726
 30
0.0
 11
1705.4060016863
 21
42.5732622726
 31
0.0
  0
LINE
  5
287
330
1F
100
AcDbEntity
  8
PROFILES_OUTSIDE
100
AcDbLine
 10
1690.1282800697
 20
36.3232622726
 30
0.0
 11
1690.4683677068
 21
41.6371316019
 31
0.0
  0
LINE
  5
288
330
1F
100
AcDbEntity
  8
PROFILES_OUTSIDE
100
AcDbLine
 10
1684.8682800697
 20
36.3232622726
 30
0.0
 11
1690.1282800697
 21
36.3232622726
 31
0.0
  0
LINE
  5
289
330
1F
100
AcDbEntity
  8
PROFILES_OUTSIDE
100
AcDbLine
 10
1683.8682800697
 20
49.0732622726
 30
0.0
 11
1683.8682800697
 21
37.3232622726
 31
0.0
  0
LINE
  5
28A
330
1F
100
AcDbEntity
  8
PROFILES_OUTSIDE
100
AcDbLine
 10
1807.8182800697
 20
55.0732622726
 30
0.0
 11
1689.8682800697
 21
55.0732622726
 31
0.0
  0
LINE
  5
28B
330
1F
100
AcDbEntity
  8
PROFILES_OUTSIDE
100
AcDbLine
 10
1819.8182800697
 20
167.8287416445
 30
0.0
 11
1819.8182800697
 21
67.0732622726
 31
0.0
  0
LINE
  5
28C
330
1F
100
AcDbEntity
  8
PROFILES_OUTSIDE
100
AcDbLine
 10
1838.8682800697
 20
260.5906531321
 30
0.0
 11
1838.8682800697
 21
200.8243095286
 31
0.0
  0
LINE
  5
28D
330
1F
100
AcDbEntity
  8
PROFILES_OUTSIDE
100
AcDbLine
 10
1819.8182800697
 20
394.3417003881
 30
0.0
 11
1819.8182800697
 21
293.5862210163
 31
0.0
  0
LINE
  5
28E
330
1F
100
AcDbEntity
  8
PROFILES_OUTSIDE
100
AcDbLine
 10
1689.8682800697
 20
406.3417003881
 30
0.0
 11
1807.8182800697
 21
406.3417003881
 31
0.0
  0
LINE
  5
28F
330
1F
100
AcDbEntity
  8
PROFILES_OUTSIDE
100
AcDbLine
 10
1683.8682800697
 20
424.0917003881
 30
0.0
 11
1683.8682800697
 21
412.3417003881
 31
0.0
  0
LINE
  5
290
330
1F
100
AcDbEntity
  8
POCKETS
100
AcDbLine
 10
423.9482800697
 20
155.3996043962
 30
0.0
 11
423.9482800697
 21
408.3613429947
 31
0.0
  0
LINE
  5
291
330
1F
100
AcDbEntity
  8
PROFILES_OUTSIDE
100
AcDbLine
 10
2037.6082800697
 20
469.0717003881
 30
0.0
 11
2042.8682800697
 21
469.0717003881
 31
0.0
  0
LINE
  5
292
330
1F
100
AcDbEntity
  8
PROFILES_OUTSIDE
100
AcDbLine
 10
2037.2681924326
 20
474.3855697174
 30
0.0
 11
2037.6082800697
 21
469.0717003881
 31
0.0
  0
LINE
  5
293
330
1F
100
AcDbEntity
  8
PROFILES_OUTSIDE
100
AcDbLine
 10
2022.3305584531
 20
475.3217003881
 30
0.0
 11
2036.2702341626
 21
475.3217003881
 31
0.0
  0
LINE
  5
294
330
1F
100
AcDbEntity
  8
PROFILES_OUTSIDE
100
AcDbLine
 10
2018.8682800697
 20
462.8197003881
 30
0.0
 11
2018.8682800697
 21
464.8435187484
 31
0.0
  0
LINE
  5
295
330
1F
100
AcDbEntity
  8
PROFILES_OUTSIDE
100
AcDbLine
 10
1900.8682800697
 20
462.8197003881
 30
0.0
 11
2018.8682800697
 21
462.8197003881
 31
0.0
  0
LINE
  5
296
330
1F
100
AcDbEntity
  8
PROFILES_OUTSIDE
100
AcDbLine
 10
1888.8682800697
 20
588.5771797599
 30
0.0
 11
1888.8682800697
 21
474.8197003881
 31
0.0
  0
LINE
  5
297
330
1F
100
AcDbEntity
  8
PROFILES_OUTSIDE
100
AcDbLine
 10
1850.8682800697
 20
600.5771797599
 30
0.0
 11
1876.8682800697
 21
600.5771797599
 31
0.0
  0
LINE
  5
298
330
1F
100
AcDbEntity
  8
PROFILES_OUTSIDE
100
AcDbLine
 10
1838.8682800697
 20
474.8197003881
 30
0.0
 11
1838.8682800697
 21
588.5771797599
 31
0.0
  0
LINE
  5
299
330
1F
100
AcDbEntity
  8
PROFILES_OUTSIDE
100
AcDbLine
 10
1708.8682800697
 20
462.8197003881
 30
0.0
 11
1826.8682800697
 21
462.8197003881
 31
0.0
  0
LINE
  5
29A
330
1F
100
AcDbEntity
  8
PROFILES_OUTSIDE
100
AcDbLine
 10
1708.8682800697
 20
464.8435187484
 30
0.0
 11
1708.8682800697
 21
462.8197003881
 31
0.0
  0
LINE
  5
29B
330
1F
100
AcDbEntity
  8
PROFILES_OUTSIDE
100
AcDbLine
 10
1691.4663259768
 20
475.3217003881
 30
0.0
 11
1705.4060016863
 21
475.3217003881
 31
0.0
  0
LINE
  5
29C
330
1F
100
AcDbEntity
  8
PROFILES_OUTSIDE
100
AcDbLine
 10
1690.1282800697
 20
469.0717003881
 30
0.0
 11
1690.4683677068
 21
474.3855697174
 31
0.0
  0
LINE
  5
29D
330
1F
100
AcDbEntity
  8
PROFILES_OUTSIDE
100
AcDbLine
 10
1684.8682800697
 20
469.0717003881
 30
0.0
 11
1690.1282800697
 21
469.0717003881
 31
0.0
  0
LINE
  5
29E
330
1F
100
AcDbEntity
  8
PROFILES_OUTSIDE
100
AcDbLine
 10
1683.8682800697
 20
481.8217003881
 30
0.0
 11
1683.8682800697
 21
470.0717003881
 31
0.0
  0
LINE
  5
29F
330
1F
100
AcDbEntity
  8
PROFILES_OUTSIDE
100
AcDbLine
 10
1807.8182800697
 20
487.8217003881
 30
0.0
 11
1689.8682800697
 21
487.8217003881
 31
0.0
  0
LINE
  5
2A0
330
1F
100
AcDbEntity
  8
PROFILES_OUTSIDE
100
AcDbLine
 10
1819.8182800697
 20
600.5771797599
 30
0.0
 11
1819.8182800697
 21
499.8217003881
 31
0.0
  0
LINE
  5
2A1
330
1F
100
AcDbEntity
  8
PROFILES_OUTSIDE
100
AcDbLine
 10
1838.8682800697
 20
693.3390912476
 30
0.0
 11
1838.8682800697
 21
633.5727476441
 31
0.0
  0
LINE
  5
2A2
330
1F
100
AcDbEntity
  8
PROFILES_OUTSIDE
100
AcDbLine
 10
1819.8182800697
 20
827.0901385036
 30
0.0
 11
1819.8182800697
 21
726.3346591318
 31
0.0
  0
LINE
  5
2A3
330
1F
100
AcDbEntity
  8
PROFILES_OUTSIDE
100
AcDbLine
 10
1689.8682800697
 20
839.0901385036
 30
0.0
 11
1807.8182800697
 21
839.0901385036
 31
0.0
  0
LINE
  5
2A4
330
1F
100
AcDbEntity
  8
PROFILES_OUTSIDE
100
AcDbLine
 10
1683.8682800697
 20
856.8401385036
 30
0.0
 11
1683.8682800697
 21
845.0901385036
 31
0.0
  0
LINE
  5
2A5
330
1F
100
AcDbEntity
  8
PROFILES_OUTSIDE
100
AcDbLine
 10
1690.1282800697
 20
857.8401385036
 30
0.0
 11
1684.8682800697
 21
857.8401385036
 31
0.0
  0
LINE
  5
2A6
330
1F
100
AcDbEntity
  8
PROFILES_OUTSIDE
100
AcDbLine
 10
1690.4683677068
 20
852.5262691743
 30
0.0
 11
1690.1282800697
 21
857.8401385036
 31
0.0
  0
LINE
  5
2A7
330
1F
100
AcDbEntity
  8
PROFILES_OUTSIDE
100
AcDbLine
 10
1705.4060016863
 20
851.5901385036
 30
0.0
 11
1691.4663259768
 21
851.5901385036
 31
0.0
  0
LINE
  5
2A8
330
1F
100
AcDbEntity
  8
PROFILES_OUTSIDE
100
AcDbLine
 10
1708.8682800697
 20
864.0921385036
 30
0.0
 11
1708.8682800697
 21
862.0683201434
 31
0.0
  0
LINE
  5
2A9
330
1F
100
AcDbEntity
  8
PROFILES_OUTSIDE
100
AcDbLine
 10
1826.8682800697
 20
864.0921385036
 30
0.0
 11
1708.8682800697
 21
864.0921385036
 31
0.0
  0
LINE
  5
2AA
330
1F
100
AcDbEntity
  8
PROFILES_OUTSIDE
100
AcDbLine
 10
1838.8682800697
 20
738.3346591318
 30
0.0
 11
1838.8682800697
 21
852.0921385036
 31
0.0
  0
LINE
  5
2AB
330
1F
100
AcDbEntity
  8
PROFILES_OUTSIDE
100
AcDbLine
 10
1876.8682800697
 20
726.3346591318
 30
0.0
 11
1850.8682800697
 21
726.3346591318
 31
0.0
  0
LINE
  5
2AC
330
1F
100
AcDbEntity
  8
PROFILES_OUTSIDE
100
AcDbLine
 10
1888.8682800697
 20
852.0921385036
 30
0.0
 11
1888.8682800697
 21
738.3346591318
 31
0.0
  0
LINE
  5
2AD
330
1F
100
AcDbEntity
  8
PROFILES_OUTSIDE
100
AcDbLine
 10
2018.8682800697
 20
864.0921385036
 30
0.0
 11
1900.8682800697
 21
864.0921385036
 31
0.0
  0
LINE
  5
2AE
330
1F
100
AcDbEntity
  8
PROFILES_OUTSIDE
100
AcDbLine
 10
2018.8682800697
 20
862.0683201434
 30
0.0
 11
2018.8682800697
 21
864.0921385036
 31
0.0
  0
LINE
  5
2AF
330
1F
100
AcDbEntity
  8
PROFILES_OUTSIDE
100
AcDbLine
 10
2036.2702341626
 20
851.5901385036
 30
0.0
 11
2022.3305584531
 21
851.5901385036
 31
0.0
  0
LINE
  5
2B0
330
1F
100
AcDbEntity
  8
PROFILES_OUTSIDE
100
AcDbLine
 10
2037.6082800697
 20
857.8401385036
 30
0.0
 11
2037.2681924326
 21
852.5262691743
 31
0.0
  0
LINE
  5
2B1
330
1F
100
AcDbEntity
  8
PROFILES_OUTSIDE
100
AcDbLine
 10
2042.8682800697
 20
857.8401385036
 30
0.0
 11
2037.6082800697
 21
857.8401385036
 31
0.0
  0
LINE
  5
2B2
330
1F
100
AcDbEntity
  8
PROFILES_OUTSIDE
100
AcDbLine
 10
2043.8682800697
 20
845.0901385036
 30
0.0
 11
2043.8682800697
 21
856.8401385036
 31
0.0
  0
LINE
  5
2B3
330
1F
100
AcDbEntity
  8
PROFILES_OUTSIDE
100
AcDbLine
 10
1919.9182800697
 20
839.0901385036
 30
0.0
 11
2037.8682800697
 21
839.0901385036
 31
0.0
  0
LINE
  5
2B4
330
1F
100
AcDbEntity
  8
PROFILES_OUTSIDE
100
AcDbLine
 10
1907.9182800697
 20
726.3346591318
 30
0.0
 11
1907.9182800697
 21
827.0901385036
 31
0.0
  0
LINE
  5
2B5
330
1F
100
AcDbEntity
  8
PROFILES_OUTSIDE
100
AcDbLine
 10
1888.8682800697
 20
633.5727476441
 30
0.0
 11
1888.8682800697
 21
693.3390912476
 31
0.0
  0
LINE
  5
2B6
330
1F
100
AcDbEntity
  8
PROFILES_OUTSIDE
100
AcDbLine
 10
1907.9182800697
 20
499.8217003881
 30
0.0
 11
1907.9182800697
 21
600.5771797599
 31
0.0
  0
LINE
  5
2B7
330
1F
100
AcDbEntity
  8
PROFILES_OUTSIDE
100
AcDbLine
 10
2037.8682800697
 20
487.8217003881
 30
0.0
 11
1919.9182800697
 21
487.8217003881
 31
0.0
  0
LINE
  5
2B8
330
1F
100
AcDbEntity
  8
PROFILES_OUTSIDE
100
AcDbLine
 10
2043.8682800697
 20
470.0717003881
 30
0.0
 11
2043.8682800697
 21
481.8217003881
 31
0.0
  0
LINE
  5
2B9
330
1F
100
AcDbEntity
  8
POCKETS
100
AcDbLine
 10
464.2240743253
 20
162.501313593
 30
0.0
 11
423.9482800697
 21
155.3996043962
 31
0.0
  0
LINE
  5
2BA
330
1F
100
AcDbEntity
  8
POCKETS
100
AcDbLine
 10
893.4282800697
 20
408.3613429947
 30
0.0
 11
933.7040743253
 21
401.2596337979
 31
0.0
  0
LINE
  5
2BB
330
1F
100
AcDbEntity
  8
POCKETS
100
AcDbLine
 10
933.7040743253
 20
401.2596337979
 30
0.0
 11
943.5521518554
 21
399.5231520213
 31
0.0
  0
LINE
  5
2BC
330
1F
100
AcDbEntity
  8
POCKETS
100
AcDbLine
 10
943.5521518554
 20
399.5231520213
 30
0.0
 11
946.7958998143
 21
417.9193608475
 31
0.0
  0
LINE
  5
2BD
330
1F
100
AcDbEntity
  8
POCKETS
100
AcDbLine
 10
946.7958998143
 20
417.9193608475
 30
0.0
 11
936.9478222841
 21
419.6558426242
 31
0.0
  0
LINE
  5
2BE
330
1F
100
AcDbEntity
  8
POCKETS
100
AcDbLine
 10
936.9478222841
 20
419.6558426242
 30
0.0
 11
498.2781530121
 21
497.0051409353
 31
0.0
  0
LINE
  5
2BF
330
1F
100
AcDbEntity
  8
POCKETS
100
AcDbLine
 10
498.2781530121
 20
497.0051409353
 30
0.0
 11
488.430075482
 21
498.741622712
 31
0.0
  0
LINE
  5
2C0
330
1F
100
AcDbEntity
  8
POCKETS
100
AcDbLine
 10
488.430075482
 20
498.741622712
 30
0.0
 11
485.1863275231
 21
480.3454138857
 31
0.0
  0
LINE
  5
2C1
330
1F
100
AcDbEntity
  8
POCKETS
100
AcDbLine
 10
485.1863275231
 20
480.3454138857
 30
0.0
 11
495.0344050533
 21
478.6089321091
 31
0.0
  0
LINE
  5
2C2
330
1F
100
AcDbEntity
  8
POCKETS
100
AcDbLine
 10
495.0344050533
 20
478.6089321091
 30
0.0
 11
875.0882800697
 21
411.5951798209
 31
0.0
  0
LINE
  5
2C3
330
1F
100
AcDbEntity
  8
POCKETS
100
AcDbLine
 10
875.0882800697
 20
411.5951798209
 30
0.0
 11
875.0882800697
 21
152.1657675701
 31
0.0
  0
LINE
  5
2C4
330
1F
100
AcDbEntity
  8
POCKETS
100
AcDbLine
 10
875.0882800697
 20
152.1657675701
 30
0.0
 11
495.0344050533
 21
85.1520152819
 31
0.0
  0
LINE
  5
2C5
330
1F
100
AcDbEntity
  8
POCKETS
100
AcDbLine
 10
495.0344050533
 20
85.1520152819
 30
0.0
 11
485.1863275231
 21
83.4155335052
 31
0.0
  0
LINE
  5
2C6
330
1F
100
AcDbEntity
  8
POCKETS
100
AcDbLine
 10
485.1863275231
 20
83.4155335052
 30
0.0
 11
488.430075482
 21
65.0193246789
 31
0.0
  0
LINE
  5
2C7
330
1F
100
AcDbEntity
  8
POCKETS
100
AcDbLine
 10
488.430075482
 20
65.0193246789
 30
0.0
 11
498.2781530121
 21
66.7558064556
 31
0.0
  0
LINE
  5
2C8
330
1F
100
AcDbEntity
  8
POCKETS
100
AcDbLine
 10
498.2781530121
 20
66.7558064556
 30
0.0
 11
936.9478222841
 21
144.1051047667
 31
0.0
  0
LINE
  5
2C9
330
1F
100
AcDbEntity
  8
POCKETS
100
AcDbLine
 10
936.9478222841
 20
144.1051047667
 30
0.0
 11
946.7958998143
 21
145.8415865434
 31
0.0
  0
LINE
  5
2CA
330
1F
100
AcDbEntity
  8
POCKETS
100
AcDbLine
 10
946.7958998143
 20
145.8415865434
 30
0.0
 11
943.5521518554
 21
164.2377953696
 31
0.0
  0
LINE
  5
2CB
330
1F
100
AcDbEntity
  8
POCKETS
100
AcDbLine
 10
943.5521518554
 20
164.2377953696
 30
0.0
 11
933.7040743253
 21
162.501313593
 31
0.0
  0
LINE
  5
2CC
330
1F
100
AcDbEntity
  8
POCKETS
100
AcDbLine
 10
933.7040743253
 20
162.501313593
 30
0.0
 11
893.4282800697
 21
155.3996043962
 31
0.0
  0
LINE
  5
2CD
330
1F
100
AcDbEntity
  8
POCKETS
100
AcDbLine
 10
893.4282800697
 20
155.3996043962
 30
0.0
 11
893.4282800697
 21
408.3613429947
 31
0.0
  0
LINE
  5
2CE
330
1F
100
AcDbEntity
  8
PROFILES_OUTSIDE
100
AcDbLine
 10
933.4282800697
 20
115.3552791574
 30
0.0
 11
933.4282800697
 21
185.2860835833
 31
0.0
  0
LINE
  5
2CF
330
1F
100
AcDbEntity
  8
PROFILES_OUTSIDE
100
AcDbLine
 10
502.4701691357
 20
34.3311388576
 30
0.0
 11
928.4701691357
 21
109.4464326394
 31
0.0
  0
ARC
  5
2D0
330
1F
100
AcDbEntity
  8
PROFILES_OUTSIDE
100
AcDbCircle
 10
457.9482800697
 20
185.2860835833
 30
0.0
 40
6.0
100
AcDbArc
 50
0.0
 51
80.0
  0
ARC
  5
2D1
330
1F
100
AcDbEntity
  8
PROFILES_OUTSIDE
100
AcDbCircle
 10
449.9482800697
 20
198.8818187716
 30
0.0
 40
6.0
100
AcDbArc
 50
180.0
 51
260.0
  0
ARC
  5
2D2
330
1F
100
AcDbEntity
  8
PROFILES_OUTSIDE
100
AcDbCircle
 10
449.9482800697
 20
364.8791286193
 30
0.0
 40
6.0
100
AcDbArc
 50
100.0
 51
180.0
  0
ARC
  5
2D3
330
1F
100
AcDbEntity
  8
PROFILES_OUTSIDE
100
AcDbCircle
 10
457.9482800697
 20
378.4748638076
 30
0.0
 40
6.0
100
AcDbArc
 50
280.0
 51
0.0
  0
ARC
  5
2D4
330
1F
100
AcDbEntity
  8
PROFILES_INSIDE
100
AcDbCircle
 10
451.9482800697
 20
186.4824366158
 30
0.0
 40
6.000000000000006
100
AcDbArc
 50
280.0
 51
0.0
  0
ARC
  5
2D5
330
1F
100
AcDbEntity
  8
PROFILES_OUTSIDE
100
AcDbCircle
 10
2042.8682800697
 20
424.0917003881
 30
0.0
 40
1.000000000000455
100
AcDbArc
 50
0.0
 51
90.0
  0
ARC
  5
2D6
330
1F
100
AcDbEntity
  8
PROFILES_INSIDE
100
AcDbCircle
 10
429.7055357439
 20
445.4348370774
 30
0.0
 40
0.9999999999999677
100
AcDbArc
 50
260.0000385431
 51
332.3995412421
  0
ARC
  5
2D7
330
1F
100
AcDbEntity
  8
PROFILES_INSIDE
100
AcDbCircle
 10
435.1733889397
 20
442.5762567604
 30
0.0
 40
5.170000000000043
100
AcDbArc
 50
325.1121740788
 51
152.3995412421
  0
ARC
  5
2D8
330
1F
100
AcDbEntity
  8
PROFILES_INSIDE
100
AcDbCircle
 10
440.2344988047
 20
439.0471760916
 30
0.0
 40
1.000027830745204
100
AcDbArc
 50
145.1121740788
 51
170.0
  0
ARC
  5
2D9
330
1F
100
AcDbEntity
  8
PROFILES_INSIDE
100
AcDbCircle
 10
438.2522015485
 20
427.8051699723
 30
0.0
 40
1.000000000000063
100
AcDbArc
 50
170.0
 51
194.8879011019
  0
ARC
  5
2DA
330
1F
100
AcDbEntity
  8
PROFILES_INSIDE
100
AcDbCircle
 10
432.2893262558
 20
426.2199197574
 30
0.0
 40
5.169999999999987
100
AcDbArc
 50
187.6004748139
 51
14.8879011019
  0
ARC
  5
2DB
330
1F
100
AcDbEntity
  8
PROFILES_INSIDE
100
AcDbCircle
 10
426.1735331351
 20
425.4038471475
 30
0.0
 40
1.000000000000089
100
AcDbArc
 50
7.6004748139
 51
80.0000385431
  0
ARC
  5
2DC
330
1F
100
AcDbEntity
  8
PROFILES_INSIDE
100
AcDbCircle
 10
422.19132787
 20
426.1060146163
 30
0.0
 40
1.000000000000014
100
AcDbArc
 50
80.0000385431
 51
152.3995412421
  0
ARC
  5
2DD
330
1F
100
AcDbEntity
  8
PROFILES_INSIDE
100
AcDbCircle
 10
416.7234746742
 20
428.9645949333
 30
0.0
 40
5.170000000000059
100
AcDbArc
 50
145.1121170491
 51
332.3995412421
  0
ARC
  5
2DE
330
1F
100
AcDbEntity
  8
PROFILES_INSIDE
100
AcDbCircle
 10
411.6623911507
 20
432.4936647212
 30
0.0
 40
1.000000000000049
100
AcDbArc
 50
325.1121170491
 51
350.0
  0
ARC
  5
2DF
330
1F
100
AcDbEntity
  8
PROFILES_INSIDE
100
AcDbCircle
 10
413.6446631319
 20
443.7356877694
 30
0.0
 40
0.9999989171685161
100
AcDbArc
 50
350.0
 51
14.8878493682
  0
ARC
  5
2E0
330
1F
100
AcDbEntity
  8
PROFILES_INSIDE
100
AcDbCircle
 10
419.6075373581
 20
445.3209319363
 30
0.0
 40
5.169998967566419
100
AcDbArc
 50
7.6004748139
 51
194.8878493682
  0
ARC
  5
2E1
330
1F
100
AcDbEntity
  8
PROFILES_INSIDE
100
AcDbCircle
 10
425.7233304788
 20
446.1370045462
 30
0.0
 40
1.000001032433545
100
AcDbArc
 50
187.6004748139
 51
260.0000385431
  0
ARC
  5
2E2
330
1F
100
AcDbEntity
  8
PROFILES_INSIDE
100
AcDbCircle
 10
94.3026175601
 20
500.0443002423
 30
0.0
 40
1.000027830745205
100
AcDbArc
 50
145.1121740788
 51
170.0
  0
ARC
  5
2E3
330
1F
100
AcDbEntity
  8
PROFILES_INSIDE
100
AcDbCircle
 10
89.2415076951
 20
503.5733809111
 30
0.0
 40
5.170000000000042
100
AcDbArc
 50
325.1121740788
 51
152.3995412421
  0
ARC
  5
2E4
330
1F
100
AcDbEntity
  8
PROFILES_INSIDE
100
AcDbCircle
 10
83.7736544992
 20
506.431961228
 30
0.0
 40
1.0
100
AcDbArc
 50
260.0000385431
 51
332.3995412421
  0
ARC
  5
2E5
330
1F
100
AcDbEntity
  8
PROFILES_INSIDE
100
AcDbCircle
 10
79.7914492342
 20
507.1341286968
 30
0.0
 40
1.000000563145547
100
AcDbArc
 50
187.6004748139
 51
260.0000385431
  0
ARC
  5
2E6
330
1F
100
AcDbEntity
  8
PROFILES_INSIDE
100
AcDbCircle
 10
73.6756561135
 20
506.318056087
 30
0.0
 40
5.169999436854558
100
AcDbArc
 50
7.6004748139
 51
194.8878493682
  0
ARC
  5
2E7
330
1F
100
AcDbEntity
  8
PROFILES_INSIDE
100
AcDbCircle
 10
67.7127818872
 20
504.7328119201
 30
0.0
 40
0.9999988233108951
100
AcDbArc
 50
350.0
 51
14.8878493682
  0
ARC
  5
2E8
330
1F
100
AcDbEntity
  8
PROFILES_INSIDE
100
AcDbCircle
 10
65.7305099061
 20
493.4907888719
 30
0.0
 40
1.000000000000031
100
AcDbArc
 50
325.1121170491
 51
350.0
  0
ARC
  5
2E9
330
1F
100
AcDbEntity
  8
PROFILES_INSIDE
100
AcDbCircle
 10
70.7915934296
 20
489.9617190839
 30
0.0
 40
5.17000000000003
100
AcDbArc
 50
145.1121170491
 51
332.3995412421
  0
ARC
  5
2EA
330
1F
100
AcDbEntity
  8
PROFILES_INSIDE
100
AcDbCircle
 10
76.2594466254
 20
487.1031387669
 30
0.0
 40
0.9999999999999474
100
AcDbArc
 50
80.0000385431
 51
152.3995412421
  0
ARC
  5
2EB
330
1F
100
AcDbEntity
  8
PROFILES_INSIDE
100
AcDbCircle
 10
80.2416518905
 20
486.4009712981
 30
0.0
 40
1.000000000000016
100
AcDbArc
 50
7.6004748139
 51
80.0000385431
  0
ARC
  5
2EC
330
1F
100
AcDbEntity
  8
PROFILES_INSIDE
100
AcDbCircle
 10
86.3574450112
 20
487.217043908
 30
0.0
 40
5.170000000000084
100
AcDbArc
 50
187.6004748139
 51
14.8879011019
  0
ARC
  5
2ED
330
1F
100
AcDbEntity
  8
PROFILES_INSIDE
100
AcDbCircle
 10
92.3203203039
 20
488.802294123
 30
0.0
 40
0.9999999999999091
100
AcDbArc
 50
170.0
 51
194.8879011019
  0
ARC
  5
2EE
330
1F
100
AcDbEntity
  8
PROFILES_INSIDE
100
AcDbCircle
 10
435.1733889913
 20
121.1846950752
 30
0.0
 40
5.170000000000027
100
AcDbArc
 50
207.6004748139
 51
34.8879011019
  0
ARC
  5
2EF
330
1F
100
AcDbEntity
  8
PROFILES_INSIDE
100
AcDbCircle
 10
440.2344713967
 20
124.7137664665
 30
0.0
 40
1.000000000000049
100
AcDbArc
 50
190.0
 51
214.8879011019
  0
ARC
  5
2F0
330
1F
100
AcDbEntity
  8
PROFILES_INSIDE
100
AcDbCircle
 10
438.2522289564
 20
135.9557822514
 30
0.0
 40
1.000027830745271
100
AcDbArc
 50
165.1121740788
 51
190.0
  0
ARC
  5
2F1
330
1F
100
AcDbEntity
  8
PROFILES_INSIDE
100
AcDbCircle
 10
432.2893246872
 20
137.5410317926
 30
0.0
 40
5.17000000000003
100
AcDbArc
 50
345.1121740788
 51
172.3995412421
  0
ARC
  5
2F2
330
1F
100
AcDbEntity
  8
PROFILES_INSIDE
100
AcDbCircle
 10
426.1735313378
 20
138.3571026887
 30
0.0
 40
1.000000000000003
100
AcDbArc
 50
280.0000385431
 51
352.3995412421
  0
ARC
  5
2F3
330
1F
100
AcDbEntity
  8
PROFILES_INSIDE
100
AcDbCircle
 10
422.1913270174
 20
137.6549298621
 30
0.0
 40
1.000000469288
100
AcDbArc
 50
207.6004748139
 51
280.0000385431
  0
ARC
  5
2F4
330
1F
100
AcDbEntity
  8
PROFILES_INSIDE
100
AcDbCircle
 10
416.7234746226
 20
134.7963480129
 30
0.0
 40
5.169999530712098
100
AcDbArc
 50
27.6004748139
 51
214.8878493682
  0
ARC
  5
2F5
330
1F
100
AcDbEntity
  8
PROFILES_INSIDE
100
AcDbCircle
 10
411.6623911507
 20
131.2672826697
 30
0.0
 40
0.9999987294533186
100
AcDbArc
 50
10.0
 51
34.8878493682
  0
ARC
  5
2F6
330
1F
100
AcDbEntity
  8
PROFILES_INSIDE
100
AcDbCircle
 10
413.6446631319
 20
120.0252596215
 30
0.0
 40
1.00000000000007
100
AcDbArc
 50
345.1121170491
 51
10.0
  0
ARC
  5
2F7
330
1F
100
AcDbEntity
  8
PROFILES_INSIDE
100
AcDbCircle
 10
419.6075389267
 20
118.4400112956
 30
0.0
 40
5.170000000000046
100
AcDbArc
 50
165.1121170491
 51
352.3995412421
  0
ARC
  5
2F8
330
1F
100
AcDbEntity
  8
PROFILES_INSIDE
100
AcDbCircle
 10
425.7233322761
 20
117.6239403995
 30
0.0
 40
1.000000000000013
100
AcDbArc
 50
100.0000385431
 51
172.3995412421
  0
ARC
  5
2F9
330
1F
100
AcDbEntity
  8
PROFILES_INSIDE
100
AcDbCircle
 10
429.7055365965
 20
118.326113226
 30
0.0
 40
1.000000000000037
100
AcDbArc
 50
27.6004748139
 51
100.0000385431
  0
ARC
  5
2FA
330
1F
100
AcDbEntity
  8
PROFILES_INSIDE
100
AcDbCircle
 10
67.7127818872
 20
59.0281354708
 30
0.0
 40
0.9999999999999748
100
AcDbArc
 50
345.1121170491
 51
10.0
  0
ARC
  5
2FB
330
1F
100
AcDbEntity
  8
PROFILES_INSIDE
100
AcDbCircle
 10
73.6756576821
 20
57.4428871449
 30
0.0
 40
5.170000000000011
100
AcDbArc
 50
165.1121170491
 51
352.3995412421
  0
ARC
  5
2FC
330
1F
100
AcDbEntity
  8
PROFILES_INSIDE
100
AcDbCircle
 10
79.7914510315
 20
56.6268162488
 30
0.0
 40
1.000000000000067
100
AcDbArc
 50
100.0000385431
 51
172.3995412421
  0
ARC
  5
2FD
330
1F
100
AcDbEntity
  8
PROFILES_INSIDE
100
AcDbCircle
 10
83.7736553519
 20
57.3289890753
 30
0.0
 40
1.000000000000051
100
AcDbArc
 50
27.6004748139
 51
100.0000385431
  0
ARC
  5
2FE
330
1F
100
AcDbEntity
  8
PROFILES_INSIDE
100
AcDbCircle
 10
89.2415077466
 20
60.1875709246
 30
0.0
 40
5.17000000000001
100
AcDbArc
 50
207.6004748139
 51
34.8879011019
  0
ARC
  5
2FF
330
1F
100
AcDbEntity
  8
PROFILES_INSIDE
100
AcDbCircle
 10
94.3025901521
 20
63.7166423159
 30
0.0
 40
0.9999999999999888
100
AcDbArc
 50
190.0
 51
214.8879011019
  0
ARC
  5
300
330
1F
100
AcDbEntity
  8
PROFILES_INSIDE
100
AcDbCircle
 10
92.3203477118
 20
74.9586581007
 30
0.0
 40
1.000027830745257
100
AcDbArc
 50
165.1121740788
 51
190.0
  0
ARC
  5
301
330
1F
100
AcDbEntity
  8
PROFILES_INSIDE
100
AcDbCircle
 10
86.3574434425
 20
76.5439076419
 30
0.0
 40
5.170000000000016
100
AcDbArc
 50
345.1121740788
 51
172.3995412421
  0
ARC
  5
302
330
1F
100
AcDbEntity
  8
PROFILES_INSIDE
100
AcDbCircle
 10
80.2416500931
 20
77.359978538
 30
0.0
 40
1.000000000000011
100
AcDbArc
 50
280.0000385431
 51
352.3995412421
  0
ARC
  5
303
330
1F
100
AcDbEntity
  8
PROFILES_INSIDE
100
AcDbCircle
 10
76.2594457728
 20
76.6578057115
 30
0.0
 40
1.000000093857545
100
AcDbArc
 50
207.6004748139
 51
280.0000385431
  0
ARC
  5
304
330
1F
100
AcDbEntity
  8
PROFILES_INSIDE
100
AcDbCircle
 10
70.791593378
 20
73.7992238622
 30
0.0
 40
5.169999906142521
100
AcDbArc
 50
27.6004748139
 51
214.8878493682
  0
ARC
  5
305
330
1F
100
AcDbEntity
  8
PROFILES_INSIDE
100
AcDbCircle
 10
65.7305099061
 20
70.270158519
 30
0.0
 40
0.9999989171684065
100
AcDbArc
 50
10.0
 51
34.8878493682
  0
ARC
  5
306
330
1F
100
AcDbEntity
  8
PROFILES_INSIDE
100
AcDbCircle
 10
899.1855357439
 20
445.4348370774
 30
0.0
 40
1.000000000000034
100
AcDbArc
 50
260.0000385431
 51
332.3995412421
  0
ARC
  5
307
330
1F
100
AcDbEntity
  8
PROFILES_INSIDE
100
AcDbCircle
 10
904.6533889397
 20
442.5762567604
 30
0.0
 40
5.170000000000094
100
AcDbArc
 50
325.1121740788
 51
152.3995412421
  0
ARC
  5
308
330
1F
100
AcDbEntity
  8
PROFILES_INSIDE
100
AcDbCircle
 10
909.7144988047
 20
439.0471760916
 30
0.0
 40
1.000027830745224
100
AcDbArc
 50
145.1121740788
 51
170.0
  0
ARC
  5
309
330
1F
100
AcDbEntity
  8
PROFILES_INSIDE
100
AcDbCircle
 10
907.7322015485
 20
427.8051699723
 30
0.0
 40
1.000000000000008
100
AcDbArc
 50
170.0
 51
194.8879011019
  0
ARC
  5
30A
330
1F
100
AcDbEntity
  8
PROFILES_INSIDE
100
AcDbCircle
 10
901.7693262558
 20
426.2199197574
 30
0.0
 40
5.170000000000028
100
AcDbArc
 50
187.6004748139
 51
14.8879011019
  0
ARC
  5
30B
330
1F
100
AcDbEntity
  8
PROFILES_INSIDE
100
AcDbCircle
 10
895.6535331351
 20
425.4038471475
 30
0.0
 40
0.9999999999999991
100
AcDbArc
 50
7.6004748139
 51
80.0000385431
  0
ARC
  5
30C
330
1F
100
AcDbEntity
  8
PROFILES_INSIDE
100
AcDbCircle
 10
891.67132787
 20
426.1060146163
 30
0.0
 40
0.9999999999999611
100
AcDbArc
 50
80.0000385431
 51
152.3995412421
  0
ARC
  5
30D
330
1F
100
AcDbEntity
  8
PROFILES_INSIDE
100
AcDbCircle
 10
886.2034746742
 20
428.9645949333
 30
0.0
 40
5.170000000000067
100
AcDbArc
 50
145.1121170491
 51
332.3995412421
  0
ARC
  5
30E
330
1F
100
AcDbEntity
  8
PROFILES_INSIDE
100
AcDbCircle
 10
881.1423911507
 20
432.4936647212
 30
0.0
 40
1.000000000000115
100
AcDbArc
 50
325.1121170491
 51
350.0
  0
ARC
  5
30F
330
1F
100
AcDbEntity
  8
PROFILES_INSIDE
100
AcDbCircle
 10
883.1246631319
 20
443.7356877694
 30
0.0
 40
0.9999989171684041
100
AcDbArc
 50
350.0
 51
14.8878493683
  0
ARC
  5
310
330
1F
100
AcDbEntity
  8
PROFILES_INSIDE
100
AcDbCircle
 10
889.0875373581
 20
445.3209319363
 30
0.0
 40
5.169998967566539
100
AcDbArc
 50
7.6004748139
 51
194.8878493682
  0
ARC
  5
311
330
1F
100
AcDbEntity
  8
PROFILES_INSIDE
100
AcDbCircle
 10
895.2033304788
 20
446.1370045462
 30
0.0
 40
1.000001032433444
100
AcDbArc
 50
187.6004748139
 51
260.0000385431
  0
ARC
  5
312
330
1F
100
AcDbEntity
  8
PROFILES_INSIDE
100
AcDbCircle
 10
563.9250207611
 20
500.0191907158
 30
0.0
 40
1.000027830745214
100
AcDbArc
 50
145.1121740788
 51
170.0
  0
ARC
  5
313
330
1F
100
AcDbEntity
  8
PROFILES_INSIDE
100
AcDbCircle
 10
558.8639108962
 20
503.5482713846
 30
0.0
 40
5.170000000000067
100
AcDbArc
 50
325.1121740788
 51
152.3995412421
  0
ARC
  5
314
330
1F
100
AcDbEntity
  8
PROFILES_INSIDE
100
AcDbCircle
 10
553.3960577003
 20
506.4068517015
 30
0.0
 40
1.000000000000145
100
AcDbArc
 50
260.0000385431
 51
332.3995412421
  0
ARC
  5
315
330
1F
100
AcDbEntity
  8
PROFILES_INSIDE
100
AcDbCircle
 10
549.4138524353
 20
507.1090191704
 30
0.0
 40
1.000000563145604
100
AcDbArc
 50
187.6004748139
 51
260.0000385431
  0
ARC
  5
316
330
1F
100
AcDbEntity
  8
PROFILES_INSIDE
100
AcDbCircle
 10
543.2980593146
 20
506.2929465605
 30
0.0
 40
5.169999436854416
100
AcDbArc
 50
7.6004748139
 51
194.8878493683
  0
ARC
  5
317
330
1F
100
AcDbEntity
  8
PROFILES_INSIDE
100
AcDbCircle
 10
537.3351850883
 20
504.7077023936
 30
0.0
 40
0.9999988233109091
100
AcDbArc
 50
350.0
 51
14.8878493682
  0
ARC
  5
318
330
1F
100
AcDbEntity
  8
PROFILES_INSIDE
100
AcDbCircle
 10
535.3529131072
 20
493.4656793454
 30
0.0
 40
1.000000000000217
100
AcDbArc
 50
325.1121170491
 51
350.0
  0
ARC
  5
319
330
1F
100
AcDbEntity
  8
PROFILES_INSIDE
100
AcDbCircle
 10
540.4139966306
 20
489.9366095574
 30
0.0
 40
5.170000000000087
100
AcDbArc
 50
145.1121170491
 51
332.3995412421
  0
ARC
  5
31A
330
1F
100
AcDbEntity
  8
PROFILES_INSIDE
100
AcDbCircle
 10
545.8818498265
 20
487.0780292405
 30
0.0
 40
1.000000000000136
100
AcDbArc
 50
80.0000385431
 51
152.3995412421
  0
ARC
  5
31B
330
1F
100
AcDbEntity
  8
PROFILES_INSIDE
100
AcDbCircle
 10
549.8640550915
 20
486.3758617716
 30
0.0
 40
0.9999999999999991
100
AcDbArc
 50
7.6004748139
 51
80.0000385431
  0
ARC
  5
31C
330
1F
100
AcDbEntity
  8
PROFILES_INSIDE
100
AcDbCircle
 10
555.9798482123
 20
487.1919343815
 30
0.0
 40
5.170000000000028
100
AcDbArc
 50
187.6004748139
 51
14.8879011019
  0
ARC
  5
31D
330
1F
100
AcDbEntity
  8
PROFILES_INSIDE
100
AcDbCircle
 10
561.9427235049
 20
488.7771845965
 30
0.0
 40
1.000000000000115
100
AcDbArc
 50
170.0
 51
194.8879011019
  0
ARC
  5
31E
330
1F
100
AcDbEntity
  8
PROFILES_INSIDE
100
AcDbCircle
 10
904.6533889913
 20
121.1846950752
 30
0.0
 40
5.170000000000027
100
AcDbArc
 50
207.6004748139
 51
34.8879011019
  0
ARC
  5
31F
330
1F
100
AcDbEntity
  8
PROFILES_INSIDE
100
AcDbCircle
 10
909.7144713967
 20
124.7137664665
 30
0.0
 40
1.000000000000021
100
AcDbArc
 50
190.0
 51
214.8879011019
  0
ARC
  5
320
330
1F
100
AcDbEntity
  8
PROFILES_INSIDE
100
AcDbCircle
 10
907.7322289564
 20
135.9557822514
 30
0.0
 40
1.000027830745326
100
AcDbArc
 50
165.1121740788
 51
190.0
  0
ARC
  5
321
330
1F
100
AcDbEntity
  8
PROFILES_INSIDE
100
AcDbCircle
 10
901.7693246872
 20
137.5410317926
 30
0.0
 40
5.16999999999999
100
AcDbArc
 50
345.1121740788
 51
172.3995412421
  0
ARC
  5
322
330
1F
100
AcDbEntity
  8
PROFILES_INSIDE
100
AcDbCircle
 10
895.6535313378
 20
138.3571026886
 30
0.0
 40
1.000000000000054
100
AcDbArc
 50
280.0000385431
 51
352.3995412421
  0
ARC
  5
323
330
1F
100
AcDbEntity
  8
PROFILES_INSIDE
100
AcDbCircle
 10
891.6713270174
 20
137.6549298621
 30
0.0
 40
1.000000469287899
100
AcDbArc
 50
207.6004748139
 51
280.0000385431
  0
ARC
  5
324
330
1F
100
AcDbEntity
  8
PROFILES_INSIDE
100
AcDbCircle
 10
886.2034746226
 20
134.7963480129
 30
0.0
 40
5.169999530712008
100
AcDbArc
 50
27.6004748139
 51
214.8878493682
  0
ARC
  5
325
330
1F
100
AcDbEntity
  8
PROFILES_INSIDE
100
AcDbCircle
 10
881.1423911507
 20
131.2672826697
 30
0.0
 40
0.9999987294532724
100
AcDbArc
 50
10.0
 51
34.8878493682
  0
ARC
  5
326
330
1F
100
AcDbEntity
  8
PROFILES_INSIDE
100
AcDbCircle
 10
883.1246631319
 20
120.0252596215
 30
0.0
 40
1.000000000000105
100
AcDbArc
 50
345.1121170491
 51
10.0
  0
ARC
  5
327
330
1F
100
AcDbEntity
  8
PROFILES_INSIDE
100
AcDbCircle
 10
889.0875389267
 20
118.4400112956
 30
0.0
 40
5.169999999999996
100
AcDbArc
 50
165.1121170491
 51
352.3995412421
  0
ARC
  5
328
330
1F
100
AcDbEntity
  8
PROFILES_INSIDE
100
AcDbCircle
 10
895.2033322761
 20
117.6239403995
 30
0.0
 40
1.000000000000013
100
AcDbArc
 50
100.0000385431
 51
172.3995412421
  0
ARC
  5
329
330
1F
100
AcDbEntity
  8
PROFILES_INSIDE
100
AcDbCircle
 10
899.1855365965
 20
118.326113226
 30
0.0
 40
1.000000000000033
100
AcDbArc
 50
27.6004748139
 51
100.0000385431
  0
ARC
  5
32A
330
1F
100
AcDbEntity
  8
PROFILES_INSIDE
100
AcDbCircle
 10
537.3351850883
 20
59.0532449973
 30
0.0
 40
1.000000000000096
100
AcDbArc
 50
345.1121170491
 51
10.0
  0
ARC
  5
32B
330
1F
100
AcDbEntity
  8
PROFILES_INSIDE
100
AcDbCircle
 10
543.2980608832
 20
57.4679966714
 30
0.0
 40
5.169999999999995
100
AcDbArc
 50
165.1121170491
 51
352.3995412421
  0
ARC
  5
32C
330
1F
100
AcDbEntity
  8
PROFILES_INSIDE
100
AcDbCircle
 10
549.4138542326
 20
56.6519257753
 30
0.0
 40
0.9999999999999573
100
AcDbArc
 50
100.0000385431
 51
172.3995412421
  0
ARC
  5
32D
330
1F
100
AcDbEntity
  8
PROFILES_INSIDE
100
AcDbCircle
 10
553.3960585529
 20
57.3540986018
 30
0.0
 40
1.000000000000013
100
AcDbArc
 50
27.6004748139
 51
100.0000385431
  0
ARC
  5
32E
330
1F
100
AcDbEntity
  8
PROFILES_INSIDE
100
AcDbCircle
 10
558.8639109477
 20
60.2126804511
 30
0.0
 40
5.170000000000129
100
AcDbArc
 50
207.6004748139
 51
34.8879011019
  0
ARC
  5
32F
330
1F
100
AcDbEntity
  8
PROFILES_INSIDE
100
AcDbCircle
 10
563.9249933532
 20
63.7417518424
 30
0.0
 40
1.000000000000115
100
AcDbArc
 50
190.0
 51
214.8879011019
  0
ARC
  5
330
330
1F
100
AcDbEntity
  8
PROFILES_INSIDE
100
AcDbCircle
 10
561.9427509129
 20
74.9837676272
 30
0.0
 40
1.000027830745319
100
AcDbArc
 50
165.1121740788
 51
190.0
  0
ARC
  5
331
330
1F
100
AcDbEntity
  8
PROFILES_INSIDE
100
AcDbCircle
 10
555.9798466436
 20
76.5690171684
 30
0.0
 40
5.170000000000049
100
AcDbArc
 50
345.1121740788
 51
172.3995412421
  0
ARC
  5
332
330
1F
100
AcDbEntity
  8
PROFILES_INSIDE
100
AcDbCircle
 10
549.8640532942
 20
77.3850880645
 30
0.0
 40
1.000000000000062
100
AcDbArc
 50
280.0000385431
 51
352.3995412421
  0
ARC
  5
333
330
1F
100
AcDbEntity
  8
PROFILES_INSIDE
100
AcDbCircle
 10
545.8818489739
 20
76.682915238
 30
0.0
 40
1.000000093857601
100
AcDbArc
 50
207.6004748139
 51
280.0000385431
  0
ARC
  5
334
330
1F
100
AcDbEntity
  8
PROFILES_INSIDE
100
AcDbCircle
 10
540.4139965791
 20
73.8243333887
 30
0.0
 40
5.169999906142319
100
AcDbArc
 50
27.6004748139
 51
214.8878493682
  0
ARC
  5
335
330
1F
100
AcDbEntity
  8
PROFILES_INSIDE
100
AcDbCircle
 10
535.3529131072
 20
70.2952680455
 30
0.0
 40
0.999998917168409
100
AcDbArc
 50
10.0
 51
34.8878493683
  0
ARC
  5
336
330
1F
100
AcDbEntity
  8
PROFILES_OUTSIDE
100
AcDbCircle
 10
501.4282800697
 20
523.5209620153
 30
0.0
 40
6.000000000000114
100
AcDbArc
 50
80.0
 51
180.0
  0
ARC
  5
337
330
1F
100
AcDbEntity
  8
PROFILES_OUTSIDE
100
AcDbCircle
 10
927.4282800697
 20
448.4056682335
 30
0.0
 40
6.000000000000034
100
AcDbArc
 50
360.0
 51
80.0
  0
ARC
  5
338
330
1F
100
AcDbEntity
  8
PROFILES_OUTSIDE
100
AcDbCircle
 10
927.4282800697
 20
378.4748638076
 30
0.0
 40
6.0
100
AcDbArc
 50
280.0
 51
0.0
  0
ARC
  5
339
330
1F
100
AcDbEntity
  8
PROFILES_OUTSIDE
100
AcDbCircle
 10
919.4282800697
 20
364.8791286193
 30
0.0
 40
6.0
100
AcDbArc
 50
100.0
 51
180.0
  0
ARC
  5
33A
330
1F
100
AcDbEntity
  8
PROFILES_OUTSIDE
100
AcDbCircle
 10
919.4282800697
 20
198.8818187716
 30
0.0
 40
6.000000000000034
100
AcDbArc
 50
180.0
 51
260.0
  0
ARC
  5
33B
330
1F
100
AcDbEntity
  8
PROFILES_OUTSIDE
100
AcDbCircle
 10
927.4282800697
 20
185.2860835833
 30
0.0
 40
6.000000000000034
100
AcDbArc
 50
0.0
 51
80.0
  0
ARC
  5
33C
330
1F
100
AcDbEntity
  8
PROFILES_OUTSIDE
100
AcDbCircle
 10
927.4282800697
 20
115.3552791574
 30
0.0
 40
6.0
100
AcDbArc
 50
280.0
 51
0.0
  0
ARC
  5
33D
330
1F
100
AcDbEntity
  8
PROFILES_OUTSIDE
100
AcDbCircle
 10
501.4282800697
 20
40.2399853756
 30
0.0
 40
6.000000000000069
100
AcDbArc
 50
180.0
 51
280.0
  0
ARC
  5
33E
330
1F
100
AcDbEntity
  8
PROFILES_OUTSIDE
100
AcDbCircle
 10
1919.9182800697
 20
394.3417003881
 30
0.0
 40
12.0
100
AcDbArc
 50
90.0
 51
180.0
  0
ARC
  5
33F
330
1F
100
AcDbEntity
  8
PROFILES_OUTSIDE
100
AcDbCircle
 10
1919.9182800697
 20
67.0732622726
 30
0.0
 40
12.00000000000023
100
AcDbArc
 50
180.0
 51
270.0
  0
ARC
  5
340
330
1F
100
AcDbEntity
  8
PROFILES_OUTSIDE
100
AcDbCircle
 10
2042.8682800697
 20
37.3232622726
 30
0.0
 40
1.000000000000455
100
AcDbArc
 50
270.0
 51
0.0
  0
ARC
  5
341
330
1F
100
AcDbEntity
  8
PROFILES_OUTSIDE
100
AcDbCircle
 10
1691.4663259768
 20
419.8417003881
 30
0.0
 40
1.000000000000163
100
AcDbArc
 50
183.6619355755
 51
270.0
  0
ARC
  5
342
330
1F
100
AcDbEntity
  8
PROFILES_OUTSIDE
100
AcDbCircle
 10
1705.4060016863
 20
417.8417003881
 30
0.0
 40
1.000000000000057
100
AcDbArc
 50
65.1121079736
 51
90.0
  0
ARC
  5
343
330
1F
100
AcDbEntity
  8
PROFILES_OUTSIDE
100
AcDbCircle
 10
1708.0026099301
 20
423.4387108069
 30
0.0
 40
5.169999999999933
100
AcDbArc
 50
245.1121079736
 51
72.3995332141
  0
ARC
  5
344
330
1F
100
AcDbEntity
  8
PROFILES_OUTSIDE
100
AcDbCircle
 10
1709.8682800697
 20
429.3198820279
 30
0.0
 40
1.000000000000455
100
AcDbArc
 50
180.0
 51
252.3995332141
  0
ARC
  5
345
330
1F
100
AcDbEntity
  8
PROFILES_OUTSIDE
100
AcDbCircle
 10
1826.8682800697
 20
419.3437003881
 30
0.0
 40
12.00000000000006
100
AcDbArc
 50
0.0
 51
90.0
  0
ARC
  5
346
330
1F
100
AcDbEntity
  8
PROFILES_OUTSIDE
100
AcDbCircle
 10
1850.8682800697
 20
305.5862210163
 30
0.0
 40
12.0
100
AcDbArc
 50
180.0
 51
270.0
  0
ARC
  5
347
330
1F
100
AcDbEntity
  8
PROFILES_OUTSIDE
100
AcDbCircle
 10
1876.8682800697
 20
305.5862210163
 30
0.0
 40
12.0
100
AcDbArc
 50
270.0
 51
0.0
  0
ARC
  5
348
330
1F
100
AcDbEntity
  8
PROFILES_OUTSIDE
100
AcDbCircle
 10
1900.8682800697
 20
419.3437003881
 30
0.0
 40
12.00000000000006
100
AcDbArc
 50
90.0
 51
180.0
  0
ARC
  5
349
330
1F
100
AcDbEntity
  8
PROFILES_OUTSIDE
100
AcDbCircle
 10
2017.8682800697
 20
429.3198820279
 30
0.0
 40
0.9999999999999367
100
AcDbArc
 50
287.6004667859
 51
0.0
  0
ARC
  5
34A
330
1F
100
AcDbEntity
  8
PROFILES_OUTSIDE
100
AcDbCircle
 10
2019.7339502093
 20
423.4387108069
 30
0.0
 40
5.170000000000085
100
AcDbArc
 50
107.6004667859
 51
294.8878920264
  0
ARC
  5
34B
330
1F
100
AcDbEntity
  8
PROFILES_OUTSIDE
100
AcDbCircle
 10
2022.3305584531
 20
417.8417003881
 30
0.0
 40
1.0
100
AcDbArc
 50
90.0
 51
114.8878920264
  0
ARC
  5
34C
330
1F
100
AcDbEntity
  8
PROFILES_OUTSIDE
100
AcDbCircle
 10
2036.2702341626
 20
419.8417003881
 30
0.0
 40
1.0
100
AcDbArc
 50
270.0
 51
356.3380644245
  0
ARC
  5
34D
330
1F
100
AcDbEntity
  8
PROFILES_OUTSIDE
100
AcDbCircle
 10
2037.8682800697
 20
412.3417003881
 30
0.0
 40
6.000000000000227
100
AcDbArc
 50
270.0
 51
0.0
  0
ARC
  5
34E
330
1F
100
AcDbEntity
  8
PROFILES_OUTSIDE
100
AcDbCircle
 10
1684.8682800697
 20
37.3232622726
 30
0.0
 40
1.0
100
AcDbArc
 50
180.0
 51
270.0
  0
ARC
  5
34F
330
1F
100
AcDbEntity
  8
PROFILES_OUTSIDE
100
AcDbCircle
 10
1888.8682800697
 20
293.5862210163
 30
0.0
 40
19.04999999999995
100
AcDbArc
 50
300.0
 51
0.0
  0
ARC
  5
350
330
1F
100
AcDbEntity
  8
PROFILES_OUTSIDE
100
AcDbCircle
 10
1907.9182800697
 20
260.5906531321
 30
0.0
 40
19.04999999999997
100
AcDbArc
 50
120.0
 51
180.0
  0
ARC
  5
351
330
1F
100
AcDbEntity
  8
PROFILES_OUTSIDE
100
AcDbCircle
 10
1907.9182800697
 20
200.8243095286
 30
0.0
 40
19.05000000000006
100
AcDbArc
 50
180.0
 51
240.0
  0
ARC
  5
352
330
1F
100
AcDbEntity
  8
PROFILES_OUTSIDE
100
AcDbCircle
 10
1888.8682800697
 20
167.8287416445
 30
0.0
 40
19.04999999999995
100
AcDbArc
 50
0.0
 51
60.0
  0
ARC
  5
353
330
1F
100
AcDbEntity
  8
PROFILES_OUTSIDE
100
AcDbCircle
 10
2037.8682800697
 20
49.0732622726
 30
0.0
 40
6.000000000000227
100
AcDbArc
 50
0.0
 51
90.0
  0
ARC
  5
354
330
1F
100
AcDbEntity
  8
PROFILES_OUTSIDE
100
AcDbCircle
 10
1807.8182800697
 20
67.0732622726
 30
0.0
 40
12.0
100
AcDbArc
 50
270.0
 51
0.0
  0
ARC
  5
355
330
1F
100
AcDbEntity
  8
PROFILES_OUTSIDE
100
AcDbCircle
 10
2036.2702341626
 20
41.5732622726
 30
0.0
 40
1.0
100
AcDbArc
 50
3.6619355755
 51
90.0
  0
ARC
  5
356
330
1F
100
AcDbEntity
  8
PROFILES_OUTSIDE
100
AcDbCircle
 10
2022.3305584531
 20
43.5732622726
 30
0.0
 40
0.9999999999998934
100
AcDbArc
 50
245.1121079736
 51
270.0
  0
ARC
  5
357
330
1F
100
AcDbEntity
  8
PROFILES_OUTSIDE
100
AcDbCircle
 10
2019.7339502093
 20
37.9762518538
 30
0.0
 40
5.170000000000112
100
AcDbArc
 50
65.1121079736
 51
252.3995332141
  0
ARC
  5
358
330
1F
100
AcDbEntity
  8
PROFILES_OUTSIDE
100
AcDbCircle
 10
2017.8682800697
 20
32.0950806329
 30
0.0
 40
0.9999999999999706
100
AcDbArc
 50
0.0
 51
72.3995332141
  0
ARC
  5
359
330
1F
100
AcDbEntity
  8
PROFILES_OUTSIDE
100
AcDbCircle
 10
1900.8682800697
 20
42.0712622726
 30
0.0
 40
11.9999999999999
100
AcDbArc
 50
180.0
 51
270.0
  0
ARC
  5
35A
330
1F
100
AcDbEntity
  8
PROFILES_OUTSIDE
100
AcDbCircle
 10
1876.8682800697
 20
155.8287416445
 30
0.0
 40
12.0
100
AcDbArc
 50
0.0
 51
90.0
  0
ARC
  5
35B
330
1F
100
AcDbEntity
  8
PROFILES_OUTSIDE
100
AcDbCircle
 10
1850.8682800697
 20
155.8287416445
 30
0.0
 40
12.0
100
AcDbArc
 50
90.0
 51
180.0
  0
ARC
  5
35C
330
1F
100
AcDbEntity
  8
PROFILES_OUTSIDE
100
AcDbCircle
 10
1826.8682800697
 20
42.0712622726
 30
0.0
 40
12.00000000000001
100
AcDbArc
 50
270.0
 51
0.0
  0
ARC
  5
35D
330
1F
100
AcDbEntity
  8
PROFILES_OUTSIDE
100
AcDbCircle
 10
1709.8682800697
 20
32.0950806329
 30
0.0
 40
0.9999999999998622
100
AcDbArc
 50
107.6004667859
 51
180.0
  0
ARC
  5
35E
330
1F
100
AcDbEntity
  8
PROFILES_OUTSIDE
100
AcDbCircle
 10
1708.0026099301
 20
37.9762518538
 30
0.0
 40
5.170000000000112
100
AcDbArc
 50
287.6004667859
 51
114.8878920264
  0
ARC
  5
35F
330
1F
100
AcDbEntity
  8
PROFILES_OUTSIDE
100
AcDbCircle
 10
1705.4060016863
 20
43.5732622726
 30
0.0
 40
0.9999999999997804
100
AcDbArc
 50
270.0
 51
294.8878920264
  0
ARC
  5
360
330
1F
100
AcDbEntity
  8
PROFILES_OUTSIDE
100
AcDbCircle
 10
1691.4663259768
 20
41.5732622726
 30
0.0
 40
1.00000000000016
100
AcDbArc
 50
90.0
 51
176.3380644245
  0
ARC
  5
361
330
1F
100
AcDbEntity
  8
PROFILES_OUTSIDE
100
AcDbCircle
 10
1689.8682800697
 20
49.0732622726
 30
0.0
 40
6.000000000000007
100
AcDbArc
 50
90.0
 51
180.0
  0
ARC
  5
362
330
1F
100
AcDbEntity
  8
PROFILES_OUTSIDE
100
AcDbCircle
 10
1807.8182800697
 20
394.3417003881
 30
0.0
 40
12.0
100
AcDbArc
 50
0.0
 51
90.0
  0
ARC
  5
363
330
1F
100
AcDbEntity
  8
PROFILES_OUTSIDE
100
AcDbCircle
 10
1838.8682800697
 20
167.8287416445
 30
0.0
 40
19.05000000000018
100
AcDbArc
 50
120.0
 51
180.0
  0
ARC
  5
364
330
1F
100
AcDbEntity
  8
PROFILES_OUTSIDE
100
AcDbCircle
 10
1819.8182800697
 20
200.8243095286
 30
0.0
 40
19.04999999999995
100
AcDbArc
 50
300.0
 51
0.0
  0
ARC
  5
365
330
1F
100
AcDbEntity
  8
PROFILES_OUTSIDE
100
AcDbCircle
 10
1819.8182800697
 20
260.5906531321
 30
0.0
 40
19.05000000000018
100
AcDbArc
 50
0.0
 51
60.0
  0
ARC
  5
366
330
1F
100
AcDbEntity
  8
PROFILES_OUTSIDE
100
AcDbCircle
 10
1838.8682800697
 20
293.5862210163
 30
0.0
 40
19.05000000000018
100
AcDbArc
 50
180.0
 51
240.0
  0
ARC
  5
367
330
1F
100
AcDbEntity
  8
PROFILES_OUTSIDE
100
AcDbCircle
 10
1689.8682800697
 20
412.3417003881
 30
0.0
 40
6.0
100
AcDbArc
 50
180.0
 51
270.0
  0
ARC
  5
368
330
1F
100
AcDbEntity
  8
PROFILES_OUTSIDE
100
AcDbCircle
 10
1684.8682800697
 20
424.0917003881
 30
0.0
 40
1.000000000000227
100
AcDbArc
 50
90.0
 51
180.0
  0
ARC
  5
369
330
1F
100
AcDbEntity
  8
PROFILES_OUTSIDE
100
AcDbCircle
 10
1684.8682800697
 20
470.0717003881
 30
0.0
 40
1.0
100
AcDbArc
 50
180.0
 51
270.0
  0
ARC
  5
36A
330
1F
100
AcDbEntity
  8
PROFILES_OUTSIDE
100
AcDbCircle
 10
1807.8182800697
 20
499.8217003881
 30
0.0
 40
12.0
100
AcDbArc
 50
270.0
 51
0.0
  0
ARC
  5
36B
330
1F
100
AcDbEntity
  8
PROFILES_OUTSIDE
100
AcDbCircle
 10
1807.8182800697
 20
827.0901385036
 30
0.0
 40
12.00000000000023
100
AcDbArc
 50
0.0
 51
90.0
  0
ARC
  5
36C
330
1F
100
AcDbEntity
  8
PROFILES_OUTSIDE
100
AcDbCircle
 10
1684.8682800697
 20
856.8401385036
 30
0.0
 40
1.0
100
AcDbArc
 50
90.0
 51
180.0
  0
ARC
  5
36D
330
1F
100
AcDbEntity
  8
PROFILES_OUTSIDE
100
AcDbCircle
 10
2036.2702341626
 20
474.3217003881
 30
0.0
 40
1.0
100
AcDbArc
 50
3.6619355755
 51
90.0
  0
ARC
  5
36E
330
1F
100
AcDbEntity
  8
PROFILES_OUTSIDE
100
AcDbCircle
 10
2022.3305584531
 20
476.3217003881
 30
0.0
 40
1.000000000000096
100
AcDbArc
 50
245.1121079736
 51
270.0
  0
ARC
  5
36F
330
1F
100
AcDbEntity
  8
PROFILES_OUTSIDE
100
AcDbCircle
 10
2019.7339502093
 20
470.7246899693
 30
0.0
 40
5.169999999999882
100
AcDbArc
 50
65.1121079736
 51
252.3995332141
  0
ARC
  5
370
330
1F
100
AcDbEntity
  8
PROFILES_OUTSIDE
100
AcDbCircle
 10
2017.8682800697
 20
464.8435187484
 30
0.0
 40
1.00000000000007
100
AcDbArc
 50
0.0
 51
72.3995332142
  0
ARC
  5
371
330
1F
100
AcDbEntity
  8
PROFILES_OUTSIDE
100
AcDbCircle
 10
1900.8682800697
 20
474.8197003881
 30
0.0
 40
12.0
100
AcDbArc
 50
180.0
 51
270.0
  0
ARC
  5
372
330
1F
100
AcDbEntity
  8
PROFILES_OUTSIDE
100
AcDbCircle
 10
1876.8682800697
 20
588.5771797599
 30
0.0
 40
12.00000000000011
100
AcDbArc
 50
0.0
 51
90.0
  0
ARC
  5
373
330
1F
100
AcDbEntity
  8
PROFILES_OUTSIDE
100
AcDbCircle
 10
1850.8682800697
 20
588.5771797599
 30
0.0
 40
12.00000000000011
100
AcDbArc
 50
90.0
 51
180.0
  0
ARC
  5
374
330
1F
100
AcDbEntity
  8
PROFILES_OUTSIDE
100
AcDbCircle
 10
1826.8682800697
 20
474.8197003881
 30
0.0
 40
12.0
100
AcDbArc
 50
270.0
 51
0.0
  0
ARC
  5
375
330
1F
100
AcDbEntity
  8
PROFILES_OUTSIDE
100
AcDbCircle
 10
1709.8682800697
 20
464.8435187484
 30
0.0
 40
1.00000000000006
100
AcDbArc
 50
107.6004667859
 51
180.0
  0
ARC
  5
376
330
1F
100
AcDbEntity
  8
PROFILES_OUTSIDE
100
AcDbCircle
 10
1708.0026099301
 20
470.7246899693
 30
0.0
 40
5.170000000000028
100
AcDbArc
 50
287.6004667859
 51
114.8878920264
  0
ARC
  5
377
330
1F
100
AcDbEntity
  8
PROFILES_OUTSIDE
100
AcDbCircle
 10
1705.4060016863
 20
476.3217003881
 30
0.0
 40
1.0
100
AcDbArc
 50
270.0
 51
294.8878920264
  0
ARC
  5
378
330
1F
100
AcDbEntity
  8
PROFILES_OUTSIDE
100
AcDbCircle
 10
1691.4663259768
 20
474.3217003881
 30
0.0
 40
0.9999999999999432
100
AcDbArc
 50
90.0
 51
176.3380644245
  0
ARC
  5
379
330
1F
100
AcDbEntity
  8
PROFILES_OUTSIDE
100
AcDbCircle
 10
1689.8682800697
 20
481.8217003881
 30
0.0
 40
6.0
100
AcDbArc
 50
90.0
 51
180.0
  0
ARC
  5
37A
330
1F
100
AcDbEntity
  8
PROFILES_OUTSIDE
100
AcDbCircle
 10
2042.8682800697
 20
856.8401385036
 30
0.0
 40
0.9999999999998863
100
AcDbArc
 50
0.0
 51
90.0
  0
ARC
  5
37B
330
1F
100
AcDbEntity
  8
PROFILES_OUTSIDE
100
AcDbCircle
 10
1838.8682800697
 20
600.5771797599
 30
0.0
 40
19.05000000000018
100
AcDbArc
 50
120.0
 51
180.0
  0
ARC
  5
37C
330
1F
100
AcDbEntity
  8
PROFILES_OUTSIDE
100
AcDbCircle
 10
1819.8182800697
 20
633.5727476441
 30
0.0
 40
19.05000000000018
100
AcDbArc
 50
300.0
 51
0.0
  0
ARC
  5
37D
330
1F
100
AcDbEntity
  8
PROFILES_OUTSIDE
100
AcDbCircle
 10
1819.8182800697
 20
693.3390912476
 30
0.0
 40
19.05000000000018
100
AcDbArc
 50
0.0
 51
60.0
  0
ARC
  5
37E
330
1F
100
AcDbEntity
  8
PROFILES_OUTSIDE
100
AcDbCircle
 10
1838.8682800697
 20
726.3346591318
 30
0.0
 40
19.05000000000018
100
AcDbArc
 50
180.0
 51
240.0
  0
ARC
  5
37F
330
1F
100
AcDbEntity
  8
PROFILES_OUTSIDE
100
AcDbCircle
 10
1689.8682800697
 20
845.0901385036
 30
0.0
 40
6.000000000000114
100
AcDbArc
 50
180.0
 51
270.0
  0
ARC
  5
380
330
1F
100
AcDbEntity
  8
PROFILES_OUTSIDE
100
AcDbCircle
 10
1919.9182800697
 20
827.0901385036
 30
0.0
 40
12.0
100
AcDbArc
 50
90.0
 51
180.0
  0
ARC
  5
381
330
1F
100
AcDbEntity
  8
PROFILES_OUTSIDE
100
AcDbCircle
 10
1691.4663259768
 20
852.5901385036
 30
0.0
 40
1.0
100
AcDbArc
 50
183.6619355755
 51
270.0
  0
ARC
  5
382
330
1F
100
AcDbEntity
  8
PROFILES_OUTSIDE
100
AcDbCircle
 10
1705.4060016863
 20
850.5901385036
 30
0.0
 40
1.000000000000037
100
AcDbArc
 50
65.1121079736
 51
90.0
  0
ARC
  5
383
330
1F
100
AcDbEntity
  8
PROFILES_OUTSIDE
100
AcDbCircle
 10
1708.0026099301
 20
856.1871489224
 30
0.0
 40
5.170000000000028
100
AcDbArc
 50
245.1121079736
 51
72.3995332141
  0
ARC
  5
384
330
1F
100
AcDbEntity
  8
PROFILES_OUTSIDE
100
AcDbCircle
 10
1709.8682800697
 20
862.0683201434
 30
0.0
 40
1.00000000000006
100
AcDbArc
 50
180.0
 51
252.3995332141
  0
ARC
  5
385
330
1F
100
AcDbEntity
  8
PROFILES_OUTSIDE
100
AcDbCircle
 10
1826.8682800697
 20
852.0921385036
 30
0.0
 40
12.0
100
AcDbArc
 50
0.0
 51
90.0
  0
ARC
  5
386
330
1F
100
AcDbEntity
  8
PROFILES_OUTSIDE
100
AcDbCircle
 10
1850.8682800697
 20
738.3346591318
 30
0.0
 40
12.0
100
AcDbArc
 50
180.0
 51
270.0
  0
ARC
  5
387
330
1F
100
AcDbEntity
  8
PROFILES_OUTSIDE
100
AcDbCircle
 10
1876.8682800697
 20
738.3346591318
 30
0.0
 40
12.0
100
AcDbArc
 50
270.0
 51
0.0
  0
ARC
  5
388
330
1F
100
AcDbEntity
  8
PROFILES_OUTSIDE
100
AcDbCircle
 10
1900.8682800697
 20
852.0921385036
 30
0.0
 40
12.0
100
AcDbArc
 50
90.0
 51
180.0
  0
ARC
  5
389
330
1F
100
AcDbEntity
  8
PROFILES_OUTSIDE
100
AcDbCircle
 10
2017.8682800697
 20
862.0683201434
 30
0.0
 40
1.000000000000227
100
AcDbArc
 50
287.6004667859
 51
0.0
  0
ARC
  5
38A
330
1F
100
AcDbEntity
  8
PROFILES_OUTSIDE
100
AcDbCircle
 10
2019.7339502093
 20
856.1871489224
 30
0.0
 40
5.170000000000124
100
AcDbArc
 50
107.6004667859
 51
294.8878920264
  0
ARC
  5
38B
330
1F
100
AcDbEntity
  8
PROFILES_OUTSIDE
100
AcDbCircle
 10
2022.3305584531
 20
850.5901385036
 30
0.0
 40
0.9999999999999415
100
AcDbArc
 50
90.0
 51
114.8878920264
  0
ARC
  5
38C
330
1F
100
AcDbEntity
  8
PROFILES_OUTSIDE
100
AcDbCircle
 10
2036.2702341626
 20
852.5901385036
 30
0.0
 40
0.9999999999999221
100
AcDbArc
 50
270.0
 51
356.3380644245
  0
ARC
  5
38D
330
1F
100
AcDbEntity
  8
PROFILES_OUTSIDE
100
AcDbCircle
 10
2037.8682800697
 20
845.0901385036
 30
0.0
 40
6.0
100
AcDbArc
 50
270.0
 51
0.0
  0
ARC
  5
38E
330
1F
100
AcDbEntity
  8
PROFILES_OUTSIDE
100
AcDbCircle
 10
1919.9182800697
 20
499.8217003881
 30
0.0
 40
12.0
100
AcDbArc
 50
180.0
 51
270.0
  0
ARC
  5
38F
330
1F
100
AcDbEntity
  8
PROFILES_OUTSIDE
100
AcDbCircle
 10
1888.8682800697
 20
726.3346591318
 30
0.0
 40
19.04999999999995
100
AcDbArc
 50
300.0
 51
0.0
  0
ARC
  5
390
330
1F
100
AcDbEntity
  8
PROFILES_OUTSIDE
100
AcDbCircle
 10
1907.9182800697
 20
693.3390912476
 30
0.0
 40
19.05000000000011
100
AcDbArc
 50
120.0
 51
180.0
  0
ARC
  5
391
330
1F
100
AcDbEntity
  8
PROFILES_OUTSIDE
100
AcDbCircle
 10
1907.9182800697
 20
633.5727476441
 30
0.0
 40
19.05000000000001
100
AcDbArc
 50
180.0
 51
240.0
  0
ARC
  5
392
330
1F
100
AcDbEntity
  8
PROFILES_OUTSIDE
100
AcDbCircle
 10
1888.8682800697
 20
600.5771797599
 30
0.0
 40
19.04999999999995
100
AcDbArc
 50
0.0
 51
60.0
  0
ARC
  5
393
330
1F
100
AcDbEntity
  8
PROFILES_OUTSIDE
100
AcDbCircle
 10
2037.8682800697
 20
481.8217003881
 30
0.0
 40
6.000000000000227
100
AcDbArc
 50
0.0
 51
90.0
  0
ARC
  5
394
330
1F
100
AcDbEntity
  8
PROFILES_OUTSIDE
100
AcDbCircle
 10
2042.8682800697
 20
470.0717003881
 30
0.0
 40
1.0
100
AcDbArc
 50
270.0
 51
0.0
  0
ENDSEC
  0
SECTION
  2
OBJECTS
  0
DICTIONARY
  5
C
330
0
100
AcDbDictionary
  3
ACAD_GROUP
350
D
  3
ACAD_MLINESTYLE
350
17
  3
ACAD_SCALELIST
350
47
  0
DICTIONARY
  5
D
102
{ACAD_REACTORS
330
C
102
}
330
C
100
AcDbDictionary
  0
DICTIONARY
  5
17
102
{ACAD_REACTORS
330
C
102
}
330
C
100
AcDbDictionary
  3
STANDARD
350
18
  0
DICTIONARY
  5
47
102
{ACAD_REACTORS
330
C
102
}
330
C
100
AcDbDictionary
  0
MLINESTYLE
  5
18
102
{ACAD_REACTORS
330
17
102
}
330
17
100
AcDbMlineStyle
  2
Standard
 70
     0
  3

 62
   256
 51
90.0
 52
90.0
 71
     2
 49
0.5
 62
   256
  6
BYLAYER
 49
-0.5
 62
   256
  6
BYLAYER
  0
ENDSEC
  0
EOF
