  0
SECTION
  2
HEADER
  9
$ACADVER
  1
AC1014
  9
$ACADMAINTVER
 70
     9
  9
$DWGCODEPAGE
  3
ANSI_1252
  9
$INSBASE
 10
0.0
 20
0.0
 30
0.0
  9
$EXTMIN
 10
0.0
 20
0.0
 30
0.0
  9
$EXTMAX
 10
96.062992126
 20
48.031496063
 30
0.0
  9
$LIMMIN
 10
0.0
 20
0.0
  9
$LIMMAX
 10
96.062992126
 20
48.031496063
  9
$ORTHOMODE
 70
     0
  9
$REGENMODE
 70
     1
  9
$FILLMODE
 70
     1
  9
$QTEXTMODE
 70
     0
  9
$MIRRTEXT
 70
     1
  9
$DRAGMODE
 70
     2
  9
$LTSCALE
 40
1.0
  9
$OSMODE
 70
    37
  9
$ATTMODE
 70
     1
  9
$TEXTSIZE
 40
0.1377952756
  9
$TRACEWID
 40
0.05
  9
$TEXTSTYLE
  7
STANDARD
  9
$CLAYER
  8
0
  9
$CELTYPE
  6
BYLAYER
  9
$CECOLOR
 62
   256
  9
$CELTSCALE
 40
1.0
  9
$DELOBJ
 70
     1
  9
$DISPSILH
 70
     0
  9
$DIMSCALE
 40
1.0
  9
$DIMASZ
 40
0.13
  9
$DIMEXO
 40
0.0393700787
  9
$DIMDLI
 40
0.38
  9
$DIMRND
 40
0.0
  9
$DIMDLE
 40
0.0
  9
$DIMEXE
 40
0.0393700787
  9
$DIMTP
 40
0.0
  9
$DIMTM
 40
0.0
  9
$DIMTXT
 40
0.1805555556
  9
$DIMCEN
 40
0.09
  9
$DIMTSZ
 40
0.0
  9
$DIMTOL
 70
     0
  9
$DIMLIM
 70
     0
  9
$DIMTIH
 70
     1
  9
$DIMTOH
 70
     1
  9
$DIMSE1
 70
     0
  9
$DIMSE2
 70
     0
  9
$DIMTAD
 70
     1
  9
$DIMZIN
 70
     0
  9
$DIMBLK
  1

  9
$DIMASO
 70
     1
  9
$DIMSHO
 70
     1
  9
$DIMPOST
  1

  9
$DIMAPOST
  1

  9
$DIMALT
 70
     0
  9
$DIMALTD
 70
     2
  9
$DIMALTF
 40
25.4
  9
$DIMLFAC
 40
1.0
  9
$DIMTOFL
 70
     0
  9
$DIMTVP
 40
0.0
  9
$DIMTIX
 70
     0
  9
$DIMSOXD
 70
     0
  9
$DIMSAH
 70
     0
  9
$DIMBLK1
  1

  9
$DIMBLK2
  1

  9
$DIMSTYLE
  2
STANDARD
  9
$DIMCLRD
 70
     0
  9
$DIMCLRE
 70
     0
  9
$DIMCLRT
 70
     0
  9
$DIMTFAC
 40
1.0
  9
$DIMGAP
 40
0.06
  9
$DIMJUST
 70
     0
  9
$DIMSD1
 70
     0
  9
$DIMSD2
 70
     0
  9
$DIMTOLJ
 70
     1
  9
$DIMTZIN
 70
     0
  9
$DIMALTZ
 70
     0
  9
$DIMALTTZ
 70
     0
  9
$DIMFIT
 70
     3
  9
$DIMUPT
 70
     0
  9
$DIMUNIT
 70
     2
  9
$DIMDEC
 70
     2
  9
$DIMTDEC
 70
     2
  9
$DIMALTU
 70
     2
  9
$DIMALTTD
 70
     2
  9
$DIMTXSTY
  7
STANDARD
  9
$DIMAUNIT
 70
     0
  9
$LUNITS
 70
     2
  9
$LUPREC
 70
     2
  9
$SKETCHINC
 40
0.1
  9
$FILLETRAD
 40
0.5
  9
$AUNITS
 70
     0
  9
$AUPREC
 70
     2
  9
$MENU
  1
.
  9
$ELEVATION
 40
0.0
  9
$PELEVATION
 40
0.0
  9
$THICKNESS
 40
0.0
  9
$LIMCHECK
 70
     0
  9
$CHAMFERA
 40
0.0
  9
$CHAMFERB
 40
0.0
  9
$CHAMFERC
 40
0.0
  9
$CHAMFERD
 40
0.0
  9
$SKPOLY
 70
     0
  9
$TDCREATE
 40
2457718.746305672
  9
$TDUPDATE
 40
2457718.74630603
  9
$TDINDWG
 40
0.0000000116
  9
$TDUSRTIMER
 40
0.0000000116
  9
$USRTIMER
 70
     1
  9
$ANGBASE
 50
0.0
  9
$ANGDIR
 70
     0
  9
$PDMODE
 70
     0
  9
$PDSIZE
 40
-1.0
  9
$PLINEWID
 40
0.0
  9
$COORDS
 70
     1
  9
$SPLFRAME
 70
     0
  9
$SPLINETYPE
 70
     6
  9
$SPLINESEGS
 70
     8
  9
$ATTDIA
 70
     0
  9
$ATTREQ
 70
     1
  9
$HANDLING
 70
     1
  9
$HANDSEED
  5
395
  9
$SURFTAB1
 70
     6
  9
$SURFTAB2
 70
     6
  9
$SURFTYPE
 70
     6
  9
$SURFU
 70
     6
  9
$SURFV
 70
     6
  9
$UCSNAME
  2

  9
$UCSORG
 10
0.0
 20
0.0
 30
0.0
  9
$UCSXDIR
 10
1.0
 20
0.0
 30
0.0
  9
$UCSYDIR
 10
0.0
 20
1.0
 30
0.0
  9
$PUCSNAME
  2

  9
$PUCSORG
 10
0.0
 20
0.0
 30
0.0
  9
$PUCSXDIR
 10
1.0
 20
0.0
 30
0.0
  9
$PUCSYDIR
 10
0.0
 20
1.0
 30
0.0
  9
$USERI1
 70
     0
  9
$USERI2
 70
     0
  9
$USERI3
 70
     0
  9
$USERI4
 70
     0
  9
$USERI5
 70
     0
  9
$USERR1
 40
0.0
  9
$USERR2
 40
0.0
  9
$USERR3
 40
0.0
  9
$USERR4
 40
0.0
  9
$USERR5
 40
0.0
  9
$WORLDVIEW
 70
     1
  9
$SHADEDGE
 70
     3
  9
$SHADEDIF
 70
    70
  9
$TILEMODE
 70
     1
  9
$MAXACTVP
 70
    64
  9
$PINSBASE
 10
0.0
 20
0.0
 30
0.0
  9
$PLIMCHECK
 70
     0
  9
$PEXTMIN
 10
1.0000000000E+20
 20
1.0000000000E+20
 30
1.0000000000E+20
  9
$PEXTMAX
 10
-1.0000000000E+20
 20
-1.0000000000E+20
 30
-1.0000000000E+20
  9
$PLIMMIN
 10
0.0
 20
0.0
  9
$PLIMMAX
 10
12.0
 20
9.0
  9
$UNITMODE
 70
     0
  9
$VISRETAIN
 70
     1
  9
$PLINEGEN
 70
     0
  9
$PSLTSCALE
 70
     1
  9
$TREEDEPTH
 70
  3020
  9
$PICKSTYLE
 70
     1
  9
$CMLSTYLE
  2
STANDARD
  9
$CMLJUST
 70
     0
  9
$CMLSCALE
 40
1.0
  9
$PROXYGRAPHICS
 70
     1
  9
$MEASUREMENT
 70
     0
  0
ENDSEC
  0
SECTION
  2
CLASSES
  0
CLASS
  1
ACDBDICTIONARYWDFLT
  2
AcDbDictionaryWithDefault
  3
ObjectDBX Classes
 90
        0
280
     0
281
     0
  0
CLASS
  1
VISUALSTYLE
  2
AcDbVisualStyle
  3
ObjectDBX Classes
 90
     4095
280
     0
281
     0
  0
CLASS
  1
MATERIAL
  2
AcDbMaterial
  3
ObjectDBX Classes
 90
     1153
280
     0
281
     0
  0
CLASS
  1
SCALE
  2
AcDbScale
  3
ObjectDBX Classes
 90
     1153
280
     0
281
     0
  0
CLASS
  1
TABLESTYLE
  2
AcDbTableStyle
  3
ObjectDBX Classes
 90
     4095
280
     0
281
     0
  0
CLASS
  1
MLEADERSTYLE
  2
AcDbMLeaderStyle
  3
ACDB_MLEADERSTYLE_CLASS
 90
     4095
280
     0
281
     0
  0
CLASS
  1
SUN
  2
AcDbSun
  3
SCENEOE
 90
     1153
280
     0
281
     0
  0
CLASS
  1
XRECORD
  2
AcDbXrecord
  3
ObjectDBX Classes
 90
        0
280
     0
281
     0
  0
CLASS
  1
LWPOLYLINE
  2
AcDbPolyline
  3
ObjectDBX Classes
 90
        0
280
     0
281
     1
  0
CLASS
  1
HATCH
  2
AcDbHatch
  3
ObjectDBX Classes
 90
        0
280
     0
281
     1
  0
ENDSEC
  0
SECTION
  2
TABLES
  0
TABLE
  2
VPORT
  5
8
330
0
100
AcDbSymbolTable
 70
     1
  0
VPORT
  5
29
330
8
100
AcDbSymbolTableRecord
100
AcDbViewportTableRecord
  2
*ACTIVE
 70
     0
 10
0.0
 20
0.0
 11
1.0
 21
1.0
 12
48.031496063
 22
24.0157480315
 13
0.0
 23
0.0
 14
0.5
 24
0.5
 15
0.5
 25
0.5
 16
0.0
 26
0.0
 36
1.0
 17
0.0
 27
0.0
 37
0.0
 40
48.031496063
 41
2.0
 42
50.0
 43
0.0
 44
0.0
 50
0.0
 51
0.0
 71
     0
 72
  2000
 73
     1
 74
     3
 75
     0
 76
     0
 77
     0
 78
     0
  0
ENDTAB
  0
TABLE
  2
LTYPE
  5
5
330
0
100
AcDbSymbolTable
 70
     6
  0
LTYPE
  5
14
330
5
100
AcDbSymbolTableRecord
100
AcDbLinetypeTableRecord
  2
BYBLOCK
 70
     0
  3

 72
    65
 73
     0
 40
0.0
  0
LTYPE
  5
15
330
5
100
AcDbSymbolTableRecord
100
AcDbLinetypeTableRecord
  2
BYLAYER
 70
     0
  3

 72
    65
 73
     0
 40
0.0
  0
LTYPE
  5
16
330
5
100
AcDbSymbolTableRecord
100
AcDbLinetypeTableRecord
  2
CONTINUOUS
 70
     0
  3
Solid line
 72
    65
 73
     0
 40
0.0
  0
LTYPE
  5
6E
330
5
100
AcDbSymbolTableRecord
100
AcDbLinetypeTableRecord
  2
HIDDEN
 70
     0
  3
Hidden __ __ __ __ __ __ __ __ __ __ __ __ __ __
 72
    65
 73
     2
 40
0.075
 49
0.05
 74
     0
 49
-0.025
 74
     0
  0
LTYPE
  5
6F
330
5
100
AcDbSymbolTableRecord
100
AcDbLinetypeTableRecord
  2
PHANTOM
 70
     0
  3
Phantom ______  __  __  ______  __  __  ______
 72
    65
 73
     6
 40
0.5
 49
0.25
 74
     0
 49
-0.05
 74
     0
 49
0.05
 74
     0
 49
-0.05
 74
     0
 49
0.05
 74
     0
 49
-0.05
 74
     0
  0
LTYPE
  5
70
330
5
100
AcDbSymbolTableRecord
100
AcDbLinetypeTableRecord
  2
CENTER
 70
     0
  3
Center ____ _ ____ _ ____ _ ____ _ ____ _ ____
 72
    65
 73
     4
 40
0.4
 49
0.25
 74
     0
 49
-0.05
 74
     0
 49
0.05
 74
     0
 49
-0.05
 74
     0
  0
LTYPE
  5
71
330
5
100
AcDbSymbolTableRecord
100
AcDbLinetypeTableRecord
  2
CENTERX2
 70
     0
  3
Center (2x) ________  __  ________  __  _____
 72
    65
 73
     4
 40
0.8
 49
0.5
 74
     0
 49
-0.1
 74
     0
 49
0.1
 74
     0
 49
-0.1
 74
     0
  0
LTYPE
  5
72
330
5
100
AcDbSymbolTableRecord
100
AcDbLinetypeTableRecord
  2
DOT2
 70
     0
  3
Dot (.5x) ........................................
 72
    65
 73
     2
 40
0.025
 49
0.0
 74
     0
 49
-0.025
 74
     0
  0
ENDTAB
  0
TABLE
  2
LAYER
  5
2
330
0
100
AcDbSymbolTable
 70
     6
  0
LAYER
  5
10
330
2
100
AcDbSymbolTableRecord
100
AcDbLayerTableRecord
  2
0
 70
     0
 62
     7
  6
CONTINUOUS
  0
LAYER
  5
73
330
2
100
AcDbSymbolTableRecord
100
AcDbLayerTableRecord
  2
BOX_STOCK
 70
     0
 62
     1
  6
CONTINUOUS
  0
LAYER
  5
74
330
2
100
AcDbSymbolTableRecord
100
AcDbLayerTableRecord
  2
HOLES
 70
     0
 62
    30
  6
CONTINUOUS
  0
LAYER
  5
75
330
2
100
AcDbSymbolTableRecord
100
AcDbLayerTableRecord
  2
POCKETS
 70
     0
 62
   171
  6
CONTINUOUS
  0
LAYER
  5
76
330
2
100
AcDbSymbolTableRecord
100
AcDbLayerTableRecord
  2
PROFILES_OUTSIDE
 70
     0
 62
     6
  6
CONTINUOUS
  0
LAYER
  5
77
330
2
100
AcDbSymbolTableRecord
100
AcDbLayerTableRecord
  2
PROFILES_INSIDE
 70
     0
 62
     4
  6
CONTINUOUS
  0
ENDTAB
  0
TABLE
  2
STYLE
  5
3
330
0
100
AcDbSymbolTable
 70
     1
  0
STYLE
  5
11
330
3
100
AcDbSymbolTableRecord
100
AcDbTextStyleTableRecord
  2
STANDARD
 70
     0
 40
0.0
 41
1.0
 50
0.0
 71
     0
 42
0.1377952756
  3
txt
  4

  0
ENDTAB
  0
TABLE
  2
VIEW
  5
6
330
0
100
AcDbSymbolTable
 70
     0
  0
ENDTAB
  0
TABLE
  2
UCS
  5
7
330
0
100
AcDbSymbolTable
 70
     0
  0
ENDTAB
  0
TABLE
  2
APPID
  5
9
330
0
100
AcDbSymbolTable
 70
     1
  0
APPID
  5
12
330
9
100
AcDbSymbolTableRecord
100
AcDbRegAppTableRecord
  2
ACAD
 70
     0
  0
ENDTAB
  0
TABLE
  2
DIMSTYLE
  5
A
330
0
100
AcDbSymbolTable
 70
     1
  0
DIMSTYLE
105
27
330
A
100
AcDbSymbolTableRecord
100
AcDbDimStyleTableRecord
  2
STANDARD
 70
     0
  3

  4

  5

  6

  7

 40
1.0
 41
0.18
 42
0.0625
 43
0.38
 44
0.18
 45
0.0
 46
0.0
 47
0.0
 48
0.0
140
0.18
141
0.09
142
0.0
143
25.4
144
1.0
145
0.0
146
1.0
147
0.09
 71
     0
 72
     0
 73
     1
 74
     1
 75
     0
 76
     0
 77
     0
 78
     0
170
     0
171
     2
172
     0
173
     0
174
     0
175
     0
176
     0
177
     0
178
     0
270
     2
271
     4
272
     4
273
     2
274
     2
340
11
275
     0
280
     0
281
     0
282
     0
283
     1
284
     0
285
     0
286
     0
287
     3
288
     0
  0
ENDTAB
  0
TABLE
  2
BLOCK_RECORD
  5
1
330
0
100
AcDbSymbolTable
 70
     1
  0
BLOCK_RECORD
  5
1F
330
1
100
AcDbSymbolTableRecord
100
AcDbBlockTableRecord
  2
*MODEL_SPACE
  0
BLOCK_RECORD
  5
1B
330
1
100
AcDbSymbolTableRecord
100
AcDbBlockTableRecord
  2
*PAPER_SPACE
  0
BLOCK_RECORD
  5
23
330
1
100
AcDbSymbolTableRecord
100
AcDbBlockTableRecord
  2
*PAPER_SPACE0
  0
ENDTAB
  0
ENDSEC
  0
SECTION
  2
BLOCKS
  0
BLOCK
  5
20
330
1F
100
AcDbEntity
  8
0
100
AcDbBlockBegin
  2
*MODEL_SPACE
 70
     0
 10
0.0
 20
0.0
 30
0.0
  3
*MODEL_SPACE
  1

  0
ENDBLK
  5
21
330
1F
100
AcDbEntity
  8
0
100
AcDbBlockEnd
  0
BLOCK
  5
1C
330
1B
100
AcDbEntity
 67
     1
  8
0
100
AcDbBlockBegin
  2
*PAPER_SPACE
 70
     0
 10
0.0
 20
0.0
 30
0.0
  3
*PAPER_SPACE
  1

  0
ENDBLK
  5
1D
330
1B
100
AcDbEntity
 67
     1
  8
0
100
AcDbBlockEnd
  0
BLOCK
  5
24
330
23
100
AcDbEntity
  8
0
100
AcDbBlockBegin
  2
*PAPER_SPACE0
 70
     0
 10
0.0
 20
0.0
 30
0.0
  3
*PAPER_SPACE0
  1

  0
ENDBLK
  5
25
330
23
100
AcDbEntity
  8
0
100
AcDbBlockEnd
  0
ENDSEC
  0
SECTION
  2
ENTITIES
  0
ARC
  5
78
330
1F
100
AcDbEntity
  8
0
  6
CONTINUOUS
 62
     7
100
AcDbCircle
 10
17.8207984279
 20
4.5047537858
 30
0.0
 40
0.2362204724409516
100
AcDbArc
 50
280.0
 51
0.0
  0
LINE
  5
79
330
1F
100
AcDbEntity
  8
0
  6
CONTINUOUS
 62
     7
100
AcDbLine
 10
17.8618174362
 20
4.2721219014
 30
0.0
 11
1.2988255067
 21
1.3516196326
 31
0.0
  0
ARC
  5
7A
330
1F
100
AcDbEntity
  8
0
  6
CONTINUOUS
 62
     7
100
AcDbCircle
 10
1.257806302
 20
1.5842513927
 30
0.0
 40
0.2362204724409451
100
AcDbArc
 50
180.0
 51
280.0
  0
LINE
  5
7B
330
1F
100
AcDbEntity
  8
0
  6
CONTINUOUS
 62
     7
100
AcDbLine
 10
1.0215858094
 20
1.5842513252
 30
0.0
 11
1.0215858094
 21
2.3965171418
 31
0.0
  0
LINE
  5
7C
330
1F
100
AcDbEntity
  8
0
  6
CONTINUOUS
 62
     7
100
AcDbLine
 10
2.5484294045
 20
2.6657409384
 30
0.0
 11
1.0215858094
 21
2.3965171418
 31
0.0
  0
ARC
  5
7D
330
1F
100
AcDbEntity
  8
0
  6
CONTINUOUS
 62
     7
100
AcDbCircle
 10
2.7508369303
 20
2.6872119042
 30
0.0
 40
0.2035432708589442
100
AcDbArc
 50
186.0551907338
 51
214.8878397487
  0
ARC
  5
7E
330
1F
100
AcDbEntity
  8
0
  6
CONTINUOUS
 62
     7
100
AcDbCircle
 10
2.551581671
 20
2.5482723703
 30
0.0
 40
0.0393700264954976
100
AcDbArc
 50
10.0
 51
34.8878397487
  0
LINE
  5
7F
330
1F
100
AcDbEntity
  8
0
  6
CONTINUOUS
 62
     7
100
AcDbLine
 10
2.6321621972
 20
2.3180009289
 30
0.0
 11
2.5903535868
 21
2.5551089098
 31
0.0
  0
ARC
  5
80
330
1F
100
AcDbEntity
  8
0
  6
CONTINUOUS
 62
     7
100
AcDbCircle
 10
2.5933902096
 20
2.3111643655
 30
0.0
 40
0.039370078740158
100
AcDbArc
 50
345.1121190957
 51
10.0
  0
ARC
  5
81
330
1F
100
AcDbEntity
  8
0
  6
CONTINUOUS
 62
     7
100
AcDbCircle
 10
2.8281491014
 20
2.2487530225
 30
0.0
 40
0.2035433070866157
100
AcDbArc
 50
165.1121190957
 51
352.3995430525
  0
ARC
  5
82
330
1F
100
AcDbEntity
  8
0
  6
CONTINUOUS
 62
     7
100
AcDbCircle
 10
3.0689283681
 20
2.2166242547
 30
0.0
 40
0.0393700787401588
100
AcDbArc
 50
100.0000472348
 51
172.3995430525
  0
LINE
  5
83
330
1F
100
AcDbEntity
  8
0
  6
CONTINUOUS
 62
     7
100
AcDbLine
 10
3.2188713661
 20
2.2830408394
 30
0.0
 11
3.0620917906
 21
2.2553962521
 31
0.0
  0
ARC
  5
84
330
1F
100
AcDbEntity
  8
0
  6
CONTINUOUS
 62
     7
100
AcDbCircle
 10
3.2257080616
 20
2.2442688779
 30
0.0
 40
0.0393700787401576
100
AcDbArc
 50
27.6004766242
 51
100.0000472348
  0
ARC
  5
85
330
1F
100
AcDbEntity
  8
0
  6
CONTINUOUS
 62
     7
100
AcDbCircle
 10
3.4409778374
 20
2.3568114772
 30
0.0
 40
0.2035433070866153
100
AcDbArc
 50
207.6004766242
 51
34.8879031485
  0
ARC
  5
86
330
1F
100
AcDbEntity
  8
0
  6
CONTINUOUS
 62
     7
100
AcDbCircle
 10
3.6402330452
 20
2.4957513029
 30
0.0
 40
0.0393700787401585
100
AcDbArc
 50
190.0
 51
214.8879031485
  0
LINE
  5
87
330
1F
100
AcDbEntity
  8
0
  6
CONTINUOUS
 62
     7
100
AcDbLine
 10
3.5596527094
 20
2.7260222954
 30
0.0
 11
3.6014610264
 21
2.4889147544
 31
0.0
  0
ARC
  5
88
330
1F
100
AcDbEntity
  8
0
  6
CONTINUOUS
 62
     7
100
AcDbCircle
 10
3.5984259319
 20
2.7328589572
 30
0.0
 40
0.0393714215238501
100
AcDbArc
 50
165.1121889858
 51
190.0
  0
ARC
  5
89
330
1F
100
AcDbEntity
  8
0
  6
CONTINUOUS
 62
     7
100
AcDbCircle
 10
3.3636656663
 20
2.7952703589
 30
0.0
 40
0.2035433070866139
100
AcDbArc
 50
345.1121889858
 51
13.9447490948
  0
LINE
  5
8A
330
1F
100
AcDbEntity
  8
0
  6
CONTINUOUS
 62
     7
100
AcDbLine
 10
15.995367211
 20
5.0367987477
 30
0.0
 11
3.5612102914
 21
2.8443213821
 31
0.0
  0
ARC
  5
8B
330
1F
100
AcDbEntity
  8
0
  6
CONTINUOUS
 62
     7
100
AcDbCircle
 10
16.1977745912
 20
5.0582698217
 30
0.0
 40
0.2035432708589439
100
AcDbArc
 50
186.0551907338
 51
214.8878397487
  0
ARC
  5
8C
330
1F
100
AcDbEntity
  8
0
  6
CONTINUOUS
 62
     7
100
AcDbCircle
 10
15.9985193319
 20
4.9193302878
 30
0.0
 40
0.039370026495496
100
AcDbArc
 50
10.0
 51
34.8878397487
  0
LINE
  5
8D
330
1F
100
AcDbEntity
  8
0
  6
CONTINUOUS
 62
     7
100
AcDbLine
 10
16.0791000037
 20
4.6890587382
 30
0.0
 11
16.0372911
 21
4.9261667191
 31
0.0
  0
ARC
  5
8E
330
1F
100
AcDbEntity
  8
0
  6
CONTINUOUS
 62
     7
100
AcDbCircle
 10
16.0403278705
 20
4.6822222831
 30
0.0
 40
0.0393700787401598
100
AcDbArc
 50
345.1121190957
 51
10.0
  0
ARC
  5
8F
330
1F
100
AcDbEntity
  8
0
  6
CONTINUOUS
 62
     7
100
AcDbCircle
 10
16.2750867623
 20
4.61981094
 30
0.0
 40
0.2035433070866161
100
AcDbArc
 50
165.1121190957
 51
352.3995430525
  0
ARC
  5
90
330
1F
100
AcDbEntity
  8
0
  6
CONTINUOUS
 62
     7
100
AcDbCircle
 10
16.515866029
 20
4.5876821722
 30
0.0
 40
0.0393700787401578
100
AcDbArc
 50
100.0000472348
 51
172.3995430525
  0
LINE
  5
91
330
1F
100
AcDbEntity
  8
0
  6
CONTINUOUS
 62
     7
100
AcDbLine
 10
16.6658091726
 20
4.6540987954
 30
0.0
 11
16.5090290104
 21
4.6264542081
 31
0.0
  0
ARC
  5
92
330
1F
100
AcDbEntity
  8
0
  6
CONTINUOUS
 62
     7
100
AcDbCircle
 10
16.6726457225
 20
4.6153267955
 30
0.0
 40
0.0393700787401603
100
AcDbArc
 50
27.6004766242
 51
100.0000472348
  0
ARC
  5
93
330
1F
100
AcDbEntity
  8
0
  6
CONTINUOUS
 62
     7
100
AcDbCircle
 10
16.8879154982
 20
4.7278693947
 30
0.0
 40
0.2035433070866169
100
AcDbArc
 50
207.6004766242
 51
34.8879031485
  0
ARC
  5
94
330
1F
100
AcDbEntity
  8
0
  6
CONTINUOUS
 62
     7
100
AcDbCircle
 10
17.0871707061
 20
4.8668092204
 30
0.0
 40
0.0393700787401561
100
AcDbArc
 50
190.0
 51
214.8879031485
  0
LINE
  5
95
330
1F
100
AcDbEntity
  8
0
  6
CONTINUOUS
 62
     7
100
AcDbLine
 10
17.0065905159
 20
5.0970801047
 30
0.0
 11
17.0483982463
 21
4.8599727105
 31
0.0
  0
ARC
  5
96
330
1F
100
AcDbEntity
  8
0
  6
CONTINUOUS
 62
     7
100
AcDbCircle
 10
17.0453635928
 20
5.1039168747
 30
0.0
 40
0.0393714215238441
100
AcDbArc
 50
165.1121889858
 51
190.0
  0
ARC
  5
97
330
1F
100
AcDbEntity
  8
0
  6
CONTINUOUS
 62
     7
100
AcDbCircle
 10
16.8106033272
 20
5.1663282764
 30
0.0
 40
0.2035433070866176
100
AcDbArc
 50
345.1121889858
 51
13.9447490948
  0
LINE
  5
98
330
1F
100
AcDbEntity
  8
0
  6
CONTINUOUS
 62
     7
100
AcDbLine
 10
18.0570191279
 20
5.4003234283
 30
0.0
 11
17.0081475112
 21
5.2153794848
 31
0.0
  0
LINE
  5
99
330
1F
100
AcDbEntity
  8
0
  6
CONTINUOUS
 62
     7
100
AcDbLine
 10
18.0570191279
 20
5.4003234283
 30
0.0
 11
18.0570191279
 21
4.5047536673
 31
0.0
  0
ARC
  5
9A
330
1F
100
AcDbEntity
  8
0
  6
CONTINUOUS
 62
     7
100
AcDbCircle
 10
1.257806302
 20
19.7635400726
 30
0.0
 40
0.2362204724409538
100
AcDbArc
 50
80.0
 51
180.0
  0
LINE
  5
9B
330
1F
100
AcDbEntity
  8
0
  6
CONTINUOUS
 62
     7
100
AcDbLine
 10
1.2988255067
 20
19.9961721491
 30
0.0
 11
17.8618174362
 21
17.075668927
 31
0.0
  0
ARC
  5
9C
330
1F
100
AcDbEntity
  8
0
  6
CONTINUOUS
 62
     7
100
AcDbCircle
 10
17.8207984279
 20
16.8430376795
 30
0.0
 40
0.236220472440948
100
AcDbArc
 50
0.0
 51
80.0
  0
LINE
  5
9D
330
1F
100
AcDbEntity
  8
0
  6
CONTINUOUS
 62
     7
100
AcDbLine
 10
18.0570191279
 20
16.8430371611
 30
0.0
 11
18.0570191279
 21
15.9474679868
 31
0.0
  0
ARC
  5
9E
330
1F
100
AcDbEntity
  8
0
  6
CONTINUOUS
 62
     7
100
AcDbCircle
 10
16.8106034029
 20
16.1814633896
 30
0.0
 40
0.2035433070866152
100
AcDbArc
 50
346.055191437
 51
14.8879031485
  0
ARC
  5
9F
330
1F
100
AcDbEntity
  8
0
  6
CONTINUOUS
 62
     7
100
AcDbCircle
 10
17.0453622704
 20
16.2438748237
 30
0.0
 40
0.0393700787401554
100
AcDbArc
 50
170.0
 51
194.8879031485
  0
LINE
  5
A0
330
1F
100
AcDbEntity
  8
0
  6
CONTINUOUS
 62
     7
100
AcDbLine
 10
17.0483982463
 20
16.4878192912
 30
0.0
 11
17.0065905159
 21
16.2507113103
 31
0.0
  0
ARC
  5
A1
330
1F
100
AcDbEntity
  8
0
  6
CONTINUOUS
 62
     7
100
AcDbCircle
 10
17.0871720285
 20
16.4809820117
 30
0.0
 40
0.0393714215238455
100
AcDbArc
 50
145.1121889858
 51
170.0
  0
ARC
  5
A2
330
1F
100
AcDbEntity
  8
0
  6
CONTINUOUS
 62
     7
100
AcDbCircle
 10
16.8879154958
 20
16.619922285
 30
0.0
 40
0.2035433070866168
100
AcDbArc
 50
325.1121889858
 51
152.3995430525
  0
ARC
  5
A3
330
1F
100
AcDbEntity
  8
0
  6
CONTINUOUS
 62
     7
100
AcDbCircle
 10
16.6726456813
 20
16.7324648104
 30
0.0
 40
0.0393700787401586
100
AcDbArc
 50
260.0000472348
 51
332.3995430525
  0
LINE
  5
A4
330
1F
100
AcDbEntity
  8
0
  6
CONTINUOUS
 62
     7
100
AcDbLine
 10
16.5090290104
 20
16.7213369136
 30
0.0
 11
16.6658091726
 21
16.6936923263
 31
0.0
  0
ARC
  5
A5
330
1F
100
AcDbEntity
  8
0
  6
CONTINUOUS
 62
     7
100
AcDbCircle
 10
16.5158659423
 20
16.7601091751
 30
0.0
 40
0.0393701149678238
100
AcDbArc
 50
187.6004766242
 51
260.0000472348
  0
ARC
  5
A6
330
1F
100
AcDbEntity
  8
0
  6
CONTINUOUS
 62
     7
100
AcDbCircle
 10
16.2750866866
 20
16.7279803246
 30
0.0
 40
0.2035432708589452
100
AcDbArc
 50
7.6004766242
 51
194.8878397487
  0
ARC
  5
A7
330
1F
100
AcDbEntity
  8
0
  6
CONTINUOUS
 62
     7
100
AcDbCircle
 10
16.0403278705
 20
16.6655691823
 30
0.0
 40
0.0393700264954925
100
AcDbArc
 50
350.0
 51
14.8878397487
  0
LINE
  5
A8
330
1F
100
AcDbEntity
  8
0
  6
CONTINUOUS
 62
     7
100
AcDbLine
 10
16.0372911
 20
16.4216241093
 30
0.0
 11
16.0791000037
 21
16.6587320902
 31
0.0
  0
ARC
  5
A9
330
1F
100
AcDbEntity
  8
0
  6
CONTINUOUS
 62
     7
100
AcDbCircle
 10
15.9985193319
 20
16.4284611775
 30
0.0
 40
0.0393700787401567
100
AcDbArc
 50
325.1121190957
 51
350.0
  0
ARC
  5
AA
330
1F
100
AcDbEntity
  8
0
  6
CONTINUOUS
 62
     7
100
AcDbCircle
 10
16.1977745937
 20
16.2895214292
 30
0.0
 40
0.2035433070866163
100
AcDbArc
 50
145.1121190957
 51
173.9447490948
  0
LINE
  5
AB
330
1F
100
AcDbEntity
  8
0
  6
CONTINUOUS
 62
     7
100
AcDbLine
 10
3.5612102914
 20
18.5034700329
 30
0.0
 11
15.995367211
 21
16.3109929606
 31
0.0
  0
ARC
  5
AC
330
1F
100
AcDbEntity
  8
0
  6
CONTINUOUS
 62
     7
100
AcDbCircle
 10
3.363665742
 20
18.5525213071
 30
0.0
 40
0.2035433070866182
100
AcDbArc
 50
346.055191437
 51
14.8879031485
  0
ARC
  5
AD
330
1F
100
AcDbEntity
  8
0
  6
CONTINUOUS
 62
     7
100
AcDbCircle
 10
3.5984246095
 20
18.6149327413
 30
0.0
 40
0.0393700787401539
100
AcDbArc
 50
170.0
 51
194.8879031485
  0
LINE
  5
AE
330
1F
100
AcDbEntity
  8
0
  6
CONTINUOUS
 62
     7
100
AcDbLine
 10
3.6014610264
 20
18.8588768072
 30
0.0
 11
3.5596527094
 21
18.6217688263
 31
0.0
  0
ARC
  5
AF
330
1F
100
AcDbEntity
  8
0
  6
CONTINUOUS
 62
     7
100
AcDbCircle
 10
3.6402343676
 20
18.8520399292
 30
0.0
 40
0.0393714215238465
100
AcDbArc
 50
145.1121889858
 51
170.0
  0
ARC
  5
B0
330
1F
100
AcDbEntity
  8
0
  6
CONTINUOUS
 62
     7
100
AcDbCircle
 10
3.4409778349
 20
18.9909802025
 30
0.0
 40
0.2035433070866154
100
AcDbArc
 50
325.1121889858
 51
152.3995430525
  0
ARC
  5
B1
330
1F
100
AcDbEntity
  8
0
  6
CONTINUOUS
 62
     7
100
AcDbCircle
 10
3.2257080205
 20
19.1035227279
 30
0.0
 40
0.0393700787401554
100
AcDbArc
 50
260.0000472348
 51
332.3995430525
  0
LINE
  5
B2
330
1F
100
AcDbEntity
  8
0
  6
CONTINUOUS
 62
     7
100
AcDbLine
 10
3.0620917906
 20
19.092395603
 30
0.0
 11
3.2188713661
 21
19.0647510156
 31
0.0
  0
ARC
  5
B3
330
1F
100
AcDbEntity
  8
0
  6
CONTINUOUS
 62
     7
100
AcDbCircle
 10
3.0689282814
 20
19.1311670926
 30
0.0
 40
0.039370114967826
100
AcDbArc
 50
187.6004766242
 51
260.0000472348
  0
ARC
  5
B4
330
1F
100
AcDbEntity
  8
0
  6
CONTINUOUS
 62
     7
100
AcDbCircle
 10
2.8281490257
 20
19.0990382421
 30
0.0
 40
0.203543270858944
100
AcDbArc
 50
7.6004766242
 51
194.8878397487
  0
ARC
  5
B5
330
1F
100
AcDbEntity
  8
0
  6
CONTINUOUS
 62
     7
100
AcDbCircle
 10
2.5933902096
 20
19.0366270998
 30
0.0
 40
0.0393700264954973
100
AcDbArc
 50
350.0
 51
14.8878397487
  0
LINE
  5
B6
330
1F
100
AcDbEntity
  8
0
  6
CONTINUOUS
 62
     7
100
AcDbLine
 10
2.5903535868
 20
18.7926827986
 30
0.0
 11
2.6321621972
 21
19.0297907795
 31
0.0
  0
ARC
  5
B7
330
1F
100
AcDbEntity
  8
0
  6
CONTINUOUS
 62
     7
100
AcDbCircle
 10
2.551581671
 20
18.799519095
 30
0.0
 40
0.0393700787401574
100
AcDbArc
 50
325.1121190957
 51
350.0
  0
ARC
  5
B8
330
1F
100
AcDbEntity
  8
0
  6
CONTINUOUS
 62
     7
100
AcDbCircle
 10
2.7508369328
 20
18.6605793467
 30
0.0
 40
0.203543307086615
100
AcDbArc
 50
145.1121190957
 51
173.9447490948
  0
LINE
  5
B9
330
1F
100
AcDbEntity
  8
0
  6
CONTINUOUS
 62
     7
100
AcDbLine
 10
1.0215858094
 20
18.9512745665
 30
0.0
 11
2.5484294045
 21
18.6820504766
 31
0.0
  0
LINE
  5
BA
330
1F
100
AcDbEntity
  8
0
  6
CONTINUOUS
 62
     7
100
AcDbLine
 10
1.0215858094
 20
18.9512745665
 30
0.0
 11
1.0215858094
 21
19.7635403832
 31
0.0
  0
LINE
  5
BB
330
1F
100
AcDbEntity
  8
0
  6
CONTINUOUS
 62
     7
100
AcDbLine
 10
17.0081475112
 20
16.1324125169
 30
0.0
 11
18.0570191279
 21
15.9474679868
 31
0.0
  0
ARC
  5
BC
330
1F
100
AcDbEntity
  8
0
  6
CONTINUOUS
 62
     7
100
AcDbCircle
 10
17.505837798
 20
13.554591238
 30
0.0
 40
0.2362204724409449
100
AcDbArc
 50
100.0
 51
180.0
  0
LINE
  5
BD
330
1F
100
AcDbEntity
  8
0
  6
CONTINUOUS
 62
     7
100
AcDbLine
 10
17.2696171307
 20
7.7931999989
 30
0.0
 11
17.2696171307
 21
13.5545914161
 31
0.0
  0
ARC
  5
BE
330
1F
100
AcDbEntity
  8
0
  6
CONTINUOUS
 62
     7
100
AcDbCircle
 10
17.505837798
 20
7.7932002273
 30
0.0
 40
0.2362204724409445
100
AcDbArc
 50
180.0
 51
260.0
  0
LINE
  5
BF
330
1F
100
AcDbEntity
  8
0
  6
CONTINUOUS
 62
     7
100
AcDbLine
 10
16.4822163068
 20
15.6902504782
 30
0.0
 11
16.4822163068
 21
5.6575415235
 31
0.0
  0
LINE
  5
C0
330
1F
100
AcDbEntity
  8
0
  6
CONTINUOUS
 62
     7
100
AcDbLine
 10
18.0570191279
 20
15.4125702726
 30
0.0
 11
16.4822163068
 21
15.6902504782
 31
0.0
  0
ARC
  5
C1
330
1F
100
AcDbEntity
  8
0
  6
CONTINUOUS
 62
     7
100
AcDbCircle
 10
17.8207984279
 20
7.2579350624
 30
0.0
 40
0.236220472440948
100
AcDbArc
 50
0.0
 51
80.0
  0
LINE
  5
C2
330
1F
100
AcDbEntity
  8
0
  6
CONTINUOUS
 62
     7
100
AcDbLine
 10
17.8618174362
 20
7.4905668016
 30
0.0
 11
17.4648188224
 21
7.5605682329
 31
0.0
  0
LINE
  5
C3
330
1F
100
AcDbEntity
  8
0
  6
CONTINUOUS
 62
     7
100
AcDbLine
 10
16.4822163068
 20
5.6575415235
 30
0.0
 11
18.0570191279
 21
5.9352217291
 31
0.0
  0
LINE
  5
C4
330
1F
100
AcDbEntity
  8
0
  6
CONTINUOUS
 62
     7
100
AcDbLine
 10
18.0570191279
 20
15.4125702726
 30
0.0
 11
18.0570191279
 21
14.0898563794
 31
0.0
  0
ARC
  5
C5
330
1F
100
AcDbEntity
  8
0
  6
CONTINUOUS
 62
     7
100
AcDbCircle
 10
17.8207984279
 20
14.0898564029
 30
0.0
 40
0.236220472440948
100
AcDbArc
 50
280.0
 51
0.0
  0
LINE
  5
C6
330
1F
100
AcDbEntity
  8
0
  6
CONTINUOUS
 62
     7
100
AcDbLine
 10
17.4648188224
 20
13.7872231821
 30
0.0
 11
17.8618174362
 21
13.8572246134
 31
0.0
  0
LINE
  5
C7
330
1F
100
AcDbEntity
  8
0
  6
CONTINUOUS
 62
     7
100
AcDbLine
 10
18.0570191279
 20
7.2579350357
 30
0.0
 11
18.0570191279
 21
5.9352217291
 31
0.0
  0
LINE
  5
C8
330
1F
100
AcDbEntity
  8
0
  6
CONTINUOUS
 62
     7
100
AcDbLine
 10
1.0215858094
 20
2.9314151493
 30
0.0
 11
1.0215858094
 21
18.4163768524
 31
0.0
  0
LINE
  5
C9
330
1F
100
AcDbEntity
  8
0
  6
CONTINUOUS
 62
     7
100
AcDbLine
 10
15.9688302375
 20
5.5670175559
 30
0.0
 11
15.9688302375
 21
15.7807744458
 31
0.0
  0
LINE
  5
CA
330
1F
100
AcDbEntity
  8
0
  6
CONTINUOUS
 62
     7
100
AcDbLine
 10
15.9688302375
 20
15.7807744458
 30
0.0
 11
1.0215858094
 21
18.4163768524
 31
0.0
  0
LINE
  5
CB
330
1F
100
AcDbEntity
  8
0
  6
CONTINUOUS
 62
     7
100
AcDbLine
 10
1.0215858094
 20
2.9314151493
 30
0.0
 11
15.9688302375
 21
5.5670175559
 31
0.0
  0
ARC
  5
CC
330
1F
100
AcDbEntity
  8
0
  6
CONTINUOUS
 62
     7
100
AcDbCircle
 10
16.5698240604
 20
5.1984570442
 30
0.0
 40
0.0393700787401596
100
AcDbArc
 50
280.0000472348
 51
352.3995430525
  0
LINE
  5
CD
330
1F
100
AcDbEntity
  8
0
  6
CONTINUOUS
 62
     7
100
AcDbLine
 10
16.5766603358
 20
5.1596849282
 30
0.0
 11
16.4198813469
 21
5.1320403408
 31
0.0
  0
ARC
  5
CE
330
1F
100
AcDbEntity
  8
0
  6
CONTINUOUS
 62
     7
100
AcDbCircle
 10
16.413044367
 20
5.170812421
 30
0.0
 40
0.0393700787401575
100
AcDbArc
 50
207.6004766242
 51
280.0000472348
  0
ARC
  5
CF
330
1F
100
AcDbEntity
  8
0
  6
CONTINUOUS
 62
     7
100
AcDbCircle
 10
3.1228863996
 20
2.8273991267
 30
0.0
 40
0.0393700787401566
100
AcDbArc
 50
280.0000472348
 51
352.3995430525
  0
LINE
  5
D0
330
1F
100
AcDbEntity
  8
0
  6
CONTINUOUS
 62
     7
100
AcDbLine
 10
3.129723116
 20
2.7886271188
 30
0.0
 11
2.9729432471
 21
2.7609825315
 31
0.0
  0
ARC
  5
D1
330
1F
100
AcDbEntity
  8
0
  6
CONTINUOUS
 62
     7
100
AcDbCircle
 10
2.9661067061
 20
2.7997545035
 30
0.0
 40
0.0393700787401601
100
AcDbArc
 50
207.6004766242
 51
280.0000472348
  0
ARC
  5
D2
330
1F
100
AcDbEntity
  8
0
  6
CONTINUOUS
 62
     7
100
AcDbCircle
 10
2.9661067472
 20
18.5480368213
 30
0.0
 40
0.0393700787401577
100
AcDbArc
 50
80.0000472348
 51
152.3995430525
  0
LINE
  5
D3
330
1F
100
AcDbEntity
  8
0
  6
CONTINUOUS
 62
     7
100
AcDbLine
 10
2.9729432471
 20
18.5868085902
 30
0.0
 11
3.129723116
 21
18.5591640029
 31
0.0
  0
ARC
  5
D4
330
1F
100
AcDbEntity
  8
0
  6
CONTINUOUS
 62
     7
100
AcDbCircle
 10
3.1228864863
 20
18.5203924566
 30
0.0
 40
0.0393700787401578
100
AcDbArc
 50
7.6004766242
 51
80.0000472348
  0
ARC
  5
D5
330
1F
100
AcDbEntity
  8
0
  6
CONTINUOUS
 62
     7
100
AcDbCircle
 10
16.4130444081
 20
16.1769789038
 30
0.0
 40
0.0393700787401544
100
AcDbArc
 50
80.0000472348
 51
152.3995430525
  0
LINE
  5
D6
330
1F
100
AcDbEntity
  8
0
  6
CONTINUOUS
 62
     7
100
AcDbLine
 10
16.4198813469
 20
16.2157510742
 30
0.0
 11
16.5766603358
 21
16.1881064869
 31
0.0
  0
ARC
  5
D7
330
1F
100
AcDbEntity
  8
0
  6
CONTINUOUS
 62
     7
100
AcDbCircle
 10
16.5698241472
 20
16.1493345391
 30
0.0
 40
0.0393700787401553
100
AcDbArc
 50
7.6004766242
 51
80.0000472348
  0
LINE
  5
D8
330
1F
100
AcDbEntity
  8
0
  6
CONTINUOUS
 62
     7
100
AcDbLine
 10
1.0215858094
 20
2.9314151493
 30
0.0
 11
1.0215858094
 21
2.3965171418
 31
0.0
  0
LINE
  5
D9
330
1F
100
AcDbEntity
  8
0
  6
CONTINUOUS
 62
     7
100
AcDbLine
 10
1.0215858094
 20
18.9512745665
 30
0.0
 11
1.0215858094
 21
18.4163768524
 31
0.0
  0
ARC
  5
DA
330
1F
100
AcDbEntity
  8
0
  6
CONTINUOUS
 62
     7
100
AcDbCircle
 10
2.7508369328
 20
18.6605793467
 30
0.0
 40
0.203543307086615
100
AcDbArc
 50
173.9447490948
 51
332.3995430525
  0
ARC
  5
DB
330
1F
100
AcDbEntity
  8
0
  6
CONTINUOUS
 62
     7
100
AcDbCircle
 10
2.7508369303
 20
2.6872119042
 30
0.0
 40
0.2035433070866118
100
AcDbArc
 50
27.6004766242
 51
186.0551907338
  0
ARC
  5
DC
330
1F
100
AcDbEntity
  8
0
  6
CONTINUOUS
 62
     7
100
AcDbCircle
 10
3.3636656663
 20
2.7952703589
 30
0.0
 40
0.2035433070866155
100
AcDbArc
 50
13.9447490948
 51
172.3995430525
  0
ARC
  5
DD
330
1F
100
AcDbEntity
  8
0
  6
CONTINUOUS
 62
     7
100
AcDbCircle
 10
3.363665742
 20
18.5525213071
 30
0.0
 40
0.2035433070866151
100
AcDbArc
 50
187.6004766242
 51
346.055191437
  0
ARC
  5
DE
330
1F
100
AcDbEntity
  8
0
  6
CONTINUOUS
 62
     7
100
AcDbCircle
 10
16.1977745912
 20
5.0582698217
 30
0.0
 40
0.2035433070866181
100
AcDbArc
 50
27.6004766242
 51
186.0551907338
  0
ARC
  5
DF
330
1F
100
AcDbEntity
  8
0
  6
CONTINUOUS
 62
     7
100
AcDbCircle
 10
16.1977745937
 20
16.2895214292
 30
0.0
 40
0.2035433070866142
100
AcDbArc
 50
173.9447490948
 51
332.3995430525
  0
ARC
  5
E0
330
1F
100
AcDbEntity
  8
0
  6
CONTINUOUS
 62
     7
100
AcDbCircle
 10
16.8106033272
 20
5.1663282764
 30
0.0
 40
0.2035433070866159
100
AcDbArc
 50
13.9447490948
 51
172.3995430525
  0
ARC
  5
E1
330
1F
100
AcDbEntity
  8
0
  6
CONTINUOUS
 62
     7
100
AcDbCircle
 10
16.8106034029
 20
16.1814633896
 30
0.0
 40
0.2035433070866137
100
AcDbArc
 50
187.6004766242
 51
346.055191437
  0
LINE
  5
E2
330
1F
100
AcDbEntity
  8
0
  6
CONTINUOUS
 62
     7
100
AcDbLine
 10
18.0570191279
 20
15.4125702726
 30
0.0
 11
18.0570191279
 21
15.9474679868
 31
0.0
  0
LINE
  5
E3
330
1F
100
AcDbEntity
  8
0
  6
CONTINUOUS
 62
     7
100
AcDbLine
 10
18.0570191279
 20
5.4003234283
 30
0.0
 11
18.0570191279
 21
5.9352217291
 31
0.0
  0
ARC
  5
E4
330
1F
100
AcDbEntity
  8
0
  6
CONTINUOUS
 62
     7
100
AcDbCircle
 10
79.3963889791
 20
32.9210898588
 30
0.0
 40
0.236220472440948
100
AcDbArc
 50
270.0
 51
0.0
  0
LINE
  5
E5
330
1F
100
AcDbEntity
  8
0
  6
CONTINUOUS
 62
     7
100
AcDbLine
 10
74.7526873747
 20
32.6848699415
 30
0.0
 11
79.3963866903
 21
32.6848699415
 31
0.0
  0
ARC
  5
E6
330
1F
100
AcDbEntity
  8
0
  6
CONTINUOUS
 62
     7
100
AcDbCircle
 10
74.7526881917
 20
32.2124284415
 30
0.0
 40
0.472440944881896
100
AcDbArc
 50
90.0
 51
180.0
  0
LINE
  5
E7
330
1F
100
AcDbEntity
  8
0
  6
CONTINUOUS
 62
     7
100
AcDbLine
 10
74.280247819
 20
28.3040388426
 30
0.0
 11
74.280247819
 21
32.2124280392
 31
0.0
  0
ARC
  5
E8
330
1F
100
AcDbEntity
  8
0
  6
CONTINUOUS
 62
     7
100
AcDbCircle
 10
73.5302472468
 20
28.3040398579
 30
0.0
 40
0.75
100
AcDbArc
 50
300.0
 51
0.0
  0
ARC
  5
E9
330
1F
100
AcDbEntity
  8
0
  6
CONTINUOUS
 62
     7
100
AcDbCircle
 10
74.2802472468
 20
27.0050017522
 30
0.0
 40
0.7499999999999929
100
AcDbArc
 50
120.0
 51
180.0
  0
LINE
  5
EA
330
1F
100
AcDbEntity
  8
0
  6
CONTINUOUS
 62
     7
100
AcDbLine
 10
73.5302477364
 20
24.7103598238
 30
0.0
 11
73.5302477364
 21
27.0050025425
 31
0.0
  0
ARC
  5
EB
330
1F
100
AcDbEntity
  8
0
  6
CONTINUOUS
 62
     7
100
AcDbCircle
 10
74.2802472468
 20
24.7103586713
 30
0.0
 40
0.7499999999999991
100
AcDbArc
 50
180.0
 51
240.0
  0
ARC
  5
EC
330
1F
100
AcDbEntity
  8
0
  6
CONTINUOUS
 62
     7
100
AcDbCircle
 10
73.5302472468
 20
23.4113205656
 30
0.0
 40
0.75
100
AcDbArc
 50
0.0
 51
60.0
  0
LINE
  5
ED
330
1F
100
AcDbEntity
  8
0
  6
CONTINUOUS
 62
     7
100
AcDbLine
 10
74.280247819
 20
19.5029319804
 30
0.0
 11
74.280247819
 21
23.411321177
 31
0.0
  0
ARC
  5
EE
330
1F
100
AcDbEntity
  8
0
  6
CONTINUOUS
 62
     7
100
AcDbCircle
 10
74.7526881917
 20
19.502931982
 30
0.0
 40
0.472440944881896
100
AcDbArc
 50
180.0
 51
270.0
  0
LINE
  5
EF
330
1F
100
AcDbEntity
  8
0
  6
CONTINUOUS
 62
     7
100
AcDbLine
 10
79.3963866903
 20
19.0304912514
 30
0.0
 11
74.7526873747
 21
19.0304912514
 31
0.0
  0
ARC
  5
F0
330
1F
100
AcDbEntity
  8
0
  6
CONTINUOUS
 62
     7
100
AcDbCircle
 10
79.3963889791
 20
18.7942705647
 30
0.0
 40
0.236220472440948
100
AcDbArc
 50
0.0
 51
90.0
  0
LINE
  5
F1
330
1F
100
AcDbEntity
  8
0
  6
CONTINUOUS
 62
     7
100
AcDbLine
 10
79.6326088148
 20
18.3316725509
 30
0.0
 11
79.6326088148
 21
18.7942703003
 31
0.0
  0
ARC
  5
F2
330
1F
100
AcDbEntity
  8
0
  6
CONTINUOUS
 62
     7
100
AcDbCircle
 10
79.5932393728
 20
18.3316721395
 30
0.0
 40
0.039370078740177
100
AcDbArc
 50
270.0
 51
0.0
  0
LINE
  5
F3
330
1F
100
AcDbEntity
  8
0
  6
CONTINUOUS
 62
     7
100
AcDbLine
 10
79.5932415896
 20
18.2923018057
 30
0.0
 11
79.1774921523
 21
18.2923018057
 31
0.0
  0
LINE
  5
F4
330
1F
100
AcDbEntity
  8
0
  6
CONTINUOUS
 62
     7
100
AcDbLine
 10
79.1774921523
 20
18.2923018057
 30
0.0
 11
79.1640975337
 21
18.5015094156
 31
0.0
  0
ARC
  5
F5
330
1F
100
AcDbEntity
  8
0
  6
CONTINUOUS
 62
     7
100
AcDbCircle
 10
79.1248123686
 20
18.4989949741
 30
0.0
 40
0.0393700787401592
100
AcDbArc
 50
3.6619355755
 51
90.0
  0
LINE
  5
F6
330
1F
100
AcDbEntity
  8
0
  6
CONTINUOUS
 62
     7
100
AcDbLine
 10
79.1248147875
 20
18.5383645632
 30
0.0
 11
78.7846646903
 21
18.5383645632
 31
0.0
  0
ARC
  5
F7
330
1F
100
AcDbEntity
  8
0
  6
CONTINUOUS
 62
     7
100
AcDbCircle
 10
78.7846676556
 20
18.5777351316
 30
0.0
 40
0.0393700787401581
100
AcDbArc
 50
245.1121079736
 51
270.0
  0
ARC
  5
F8
330
1F
100
AcDbEntity
  8
0
  6
CONTINUOUS
 62
     7
100
AcDbCircle
 10
78.6824389846
 20
18.3573803907
 30
0.0
 40
0.2035433070866079
100
AcDbArc
 50
65.1121079736
 51
252.3995332141
  0
ARC
  5
F9
330
1F
100
AcDbEntity
  8
0
  6
CONTINUOUS
 62
     7
100
AcDbCircle
 10
78.6089874043
 20
18.1258382167
 30
0.0
 40
0.039370078740177
100
AcDbArc
 50
0.0
 51
72.3995332141
  0
LINE
  5
FA
330
1F
100
AcDbEntity
  8
0
  6
CONTINUOUS
 62
     7
100
AcDbLine
 10
74.0026872921
 20
18.0461604358
 30
0.0
 11
78.6483577849
 21
18.0461604358
 31
0.0
  0
ARC
  5
FB
330
1F
100
AcDbEntity
  8
0
  6
CONTINUOUS
 62
     7
100
AcDbCircle
 10
74.0026881917
 20
18.5186012733
 30
0.0
 40
0.4724409448818889
100
AcDbArc
 50
180.0
 51
270.0
  0
LINE
  5
FC
330
1F
100
AcDbEntity
  8
0
  6
CONTINUOUS
 62
     7
100
AcDbLine
 10
73.5302477364
 20
22.9388792747
 30
0.0
 11
73.5302477364
 21
18.5186011648
 31
0.0
  0
ARC
  5
FD
330
1F
100
AcDbEntity
  8
0
  6
CONTINUOUS
 62
     7
100
AcDbCircle
 10
73.057806302
 20
22.9388796207
 30
0.0
 40
0.472440944881896
100
AcDbArc
 50
0.0
 51
90.0
  0
LINE
  5
FE
330
1F
100
AcDbEntity
  8
0
  6
CONTINUOUS
 62
     7
100
AcDbLine
 10
72.0341852324
 20
23.411321177
 30
0.0
 11
73.0578081808
 21
23.411321177
 31
0.0
  0
ARC
  5
FF
330
1F
100
AcDbEntity
  8
0
  6
CONTINUOUS
 62
     7
100
AcDbCircle
 10
72.0341842547
 20
22.9388796207
 30
0.0
 40
0.472440944881896
100
AcDbArc
 50
90.0
 51
180.0
  0
LINE
  5
100
330
1F
100
AcDbEntity
  8
0
  6
CONTINUOUS
 62
     7
100
AcDbLine
 10
71.5617409835
 20
18.5186011648
 30
0.0
 11
71.5617409835
 21
22.9388792747
 31
0.0
  0
LINE
  5
101
330
1F
100
AcDbEntity
  8
0
  6
CONTINUOUS
 62
     7
100
AcDbLine
 10
66.443630935
 20
18.1258382354
 30
0.0
 11
66.443630935
 21
18.0461604358
 31
0.0
  0
ARC
  5
102
330
1F
100
AcDbEntity
  8
0
  6
CONTINUOUS
 62
     7
100
AcDbCircle
 10
66.4830031524
 20
18.1258382167
 30
0.0
 40
0.0393700787401569
100
AcDbArc
 50
107.6004667859
 51
180.0
  0
ARC
  5
103
330
1F
100
AcDbEntity
  8
0
  6
CONTINUOUS
 62
     7
100
AcDbCircle
 10
66.4095515721
 20
18.3573803907
 30
0.0
 40
0.2035433070866172
100
AcDbArc
 50
287.6004667859
 51
114.8878920264
  0
ARC
  5
104
330
1F
100
AcDbEntity
  8
0
  6
CONTINUOUS
 62
     7
100
AcDbCircle
 10
66.307322901
 20
18.5777351316
 30
0.0
 40
0.0393700787401556
100
AcDbArc
 50
270.0
 51
294.8878920264
  0
LINE
  5
105
330
1F
100
AcDbEntity
  8
0
  6
CONTINUOUS
 62
     7
100
AcDbLine
 10
66.3073240296
 20
18.5383645632
 30
0.0
 11
65.9671786257
 21
18.5383645632
 31
0.0
  0
ARC
  5
106
330
1F
100
AcDbEntity
  8
0
  6
CONTINUOUS
 62
     7
100
AcDbCircle
 10
65.9671781881
 20
18.4989949741
 30
0.0
 40
0.0393700787401588
100
AcDbArc
 50
90.0
 51
176.3380644245
  0
LINE
  5
107
330
1F
100
AcDbEntity
  8
0
  6
CONTINUOUS
 62
     7
100
AcDbLine
 10
65.9278864929
 20
18.5015094156
 30
0.0
 11
65.9145012609
 21
18.2923018057
 31
0.0
  0
LINE
  5
108
330
1F
100
AcDbEntity
  8
0
  6
CONTINUOUS
 62
     7
100
AcDbLine
 10
65.9145012609
 20
18.2923018057
 30
0.0
 11
65.4987518236
 21
18.2923018057
 31
0.0
  0
ARC
  5
109
330
1F
100
AcDbEntity
  8
0
  6
CONTINUOUS
 62
     7
100
AcDbCircle
 10
65.4987511838
 20
18.3316721395
 30
0.0
 40
0.0393700787401556
100
AcDbArc
 50
180.0
 51
270.0
  0
LINE
  5
10A
330
1F
100
AcDbEntity
  8
0
  6
CONTINUOUS
 62
     7
100
AcDbLine
 10
65.4593799051
 20
18.7942703003
 30
0.0
 11
65.4593799051
 21
18.3316725509
 31
0.0
  0
ARC
  5
10B
330
1F
100
AcDbEntity
  8
0
  6
CONTINUOUS
 62
     7
100
AcDbCircle
 10
65.6956015775
 20
18.7942705647
 30
0.0
 40
0.236220472440948
100
AcDbArc
 50
90.0
 51
180.0
  0
LINE
  5
10C
330
1F
100
AcDbEntity
  8
0
  6
CONTINUOUS
 62
     7
100
AcDbLine
 10
70.3393013452
 20
19.0304912514
 30
0.0
 11
65.6956020296
 21
19.0304912514
 31
0.0
  0
ARC
  5
10D
330
1F
100
AcDbEntity
  8
0
  6
CONTINUOUS
 62
     7
100
AcDbCircle
 10
70.3393023649
 20
19.502931982
 30
0.0
 40
0.472440944881896
100
AcDbArc
 50
270.0
 51
0.0
  0
LINE
  5
10E
330
1F
100
AcDbEntity
  8
0
  6
CONTINUOUS
 62
     7
100
AcDbLine
 10
70.8117455941
 20
23.411321177
 30
0.0
 11
70.8117455941
 21
19.5029319804
 31
0.0
  0
ARC
  5
10F
330
1F
100
AcDbEntity
  8
0
  6
CONTINUOUS
 62
     7
100
AcDbCircle
 10
71.5617433098
 20
23.4113205656
 30
0.0
 40
0.75
100
AcDbArc
 50
120.0
 51
180.0
  0
ARC
  5
110
330
1F
100
AcDbEntity
  8
0
  6
CONTINUOUS
 62
     7
100
AcDbCircle
 10
70.8117433098
 20
24.7103586713
 30
0.0
 40
0.7500000000000031
100
AcDbArc
 50
300.0
 51
0.0
  0
LINE
  5
111
330
1F
100
AcDbEntity
  8
0
  6
CONTINUOUS
 62
     7
100
AcDbLine
 10
71.5617409835
 20
27.0050025425
 30
0.0
 11
71.5617409835
 21
24.7103598238
 31
0.0
  0
ARC
  5
112
330
1F
100
AcDbEntity
  8
0
  6
CONTINUOUS
 62
     7
100
AcDbCircle
 10
70.8117433098
 20
27.0050017522
 30
0.0
 40
0.7500000000000031
100
AcDbArc
 50
0.0
 51
60.0
  0
ARC
  5
113
330
1F
100
AcDbEntity
  8
0
  6
CONTINUOUS
 62
     7
100
AcDbCircle
 10
71.5617433098
 20
28.3040398579
 30
0.0
 40
0.7499999999999969
100
AcDbArc
 50
180.0
 51
240.0
  0
LINE
  5
114
330
1F
100
AcDbEntity
  8
0
  6
CONTINUOUS
 62
     7
100
AcDbLine
 10
70.8117455941
 20
32.2124280392
 30
0.0
 11
70.8117455941
 21
28.3040388426
 31
0.0
  0
ARC
  5
115
330
1F
100
AcDbEntity
  8
0
  6
CONTINUOUS
 62
     7
100
AcDbCircle
 10
70.3393023649
 20
32.2124284415
 30
0.0
 40
0.472440944881896
100
AcDbArc
 50
0.0
 51
90.0
  0
LINE
  5
116
330
1F
100
AcDbEntity
  8
0
  6
CONTINUOUS
 62
     7
100
AcDbLine
 10
65.6956020296
 20
32.6848699415
 30
0.0
 11
70.3393013452
 21
32.6848699415
 31
0.0
  0
ARC
  5
117
330
1F
100
AcDbEntity
  8
0
  6
CONTINUOUS
 62
     7
100
AcDbCircle
 10
65.6956015775
 20
32.9210898588
 30
0.0
 40
0.236220472440948
100
AcDbArc
 50
180.0
 51
270.0
  0
LINE
  5
118
330
1F
100
AcDbEntity
  8
0
  6
CONTINUOUS
 62
     7
100
AcDbLine
 10
65.4593799051
 20
33.3836874687
 30
0.0
 11
65.4593799051
 21
32.9210897194
 31
0.0
  0
ARC
  5
119
330
1F
100
AcDbEntity
  8
0
  6
CONTINUOUS
 62
     7
100
AcDbCircle
 10
65.4987511838
 20
33.383688284
 30
0.0
 40
0.0393700787401556
100
AcDbArc
 50
90.0
 51
180.0
  0
LINE
  5
11A
330
1F
100
AcDbEntity
  8
0
  6
CONTINUOUS
 62
     7
100
AcDbLine
 10
65.4987518236
 20
33.4230593872
 30
0.0
 11
65.9145012609
 21
33.4230593872
 31
0.0
  0
LINE
  5
11B
330
1F
100
AcDbEntity
  8
0
  6
CONTINUOUS
 62
     7
100
AcDbLine
 10
65.9145012609
 20
33.4230593872
 30
0.0
 11
65.9278864929
 21
33.2138517774
 31
0.0
  0
ARC
  5
11C
330
1F
100
AcDbEntity
  8
0
  6
CONTINUOUS
 62
     7
100
AcDbCircle
 10
65.9671781881
 20
33.2163654493
 30
0.0
 40
0.039370078740159
100
AcDbArc
 50
183.6619355755
 51
270.0
  0
LINE
  5
11D
330
1F
100
AcDbEntity
  8
0
  6
CONTINUOUS
 62
     7
100
AcDbLine
 10
65.9671786257
 20
33.1769954565
 30
0.0
 11
66.3073240296
 21
33.1769954565
 31
0.0
  0
ARC
  5
11E
330
1F
100
AcDbEntity
  8
0
  6
CONTINUOUS
 62
     7
100
AcDbCircle
 10
66.307322901
 20
33.1376252919
 30
0.0
 40
0.0393700787401556
100
AcDbArc
 50
65.1121079736
 51
90.0
  0
ARC
  5
11F
330
1F
100
AcDbEntity
  8
0
  6
CONTINUOUS
 62
     7
100
AcDbCircle
 10
66.4095515721
 20
33.3579800328
 30
0.0
 40
0.2035433070866204
100
AcDbArc
 50
245.1121079736
 51
72.3995332141
  0
ARC
  5
120
330
1F
100
AcDbEntity
  8
0
  6
CONTINUOUS
 62
     7
100
AcDbCircle
 10
66.4830031524
 20
33.5895222068
 30
0.0
 40
0.0393700787401569
100
AcDbArc
 50
180.0
 51
252.3995332141
  0
LINE
  5
121
330
1F
100
AcDbEntity
  8
0
  6
CONTINUOUS
 62
     7
100
AcDbLine
 10
66.443630935
 20
33.6692007571
 30
0.0
 11
66.443630935
 21
33.5895229576
 31
0.0
  0
LINE
  5
122
330
1F
100
AcDbEntity
  8
0
  6
CONTINUOUS
 62
     7
100
AcDbLine
 10
71.0893014278
 20
33.6692007571
 30
0.0
 11
66.443630935
 21
33.6692007571
 31
0.0
  0
ARC
  5
123
330
1F
100
AcDbEntity
  8
0
  6
CONTINUOUS
 62
     7
100
AcDbCircle
 10
71.0893023649
 20
33.1967591501
 30
0.0
 40
0.4724409448818889
100
AcDbArc
 50
0.0
 51
90.0
  0
LINE
  5
124
330
1F
100
AcDbEntity
  8
0
  6
CONTINUOUS
 62
     7
100
AcDbLine
 10
71.5617409835
 20
28.7764807449
 30
0.0
 11
71.5617409835
 21
33.1967588548
 31
0.0
  0
ARC
  5
125
330
1F
100
AcDbEntity
  8
0
  6
CONTINUOUS
 62
     7
100
AcDbCircle
 10
72.0341842547
 20
28.7764808027
 30
0.0
 40
0.472440944881896
100
AcDbArc
 50
180.0
 51
270.0
  0
LINE
  5
126
330
1F
100
AcDbEntity
  8
0
  6
CONTINUOUS
 62
     7
100
AcDbLine
 10
73.0578081808
 20
28.3040388426
 30
0.0
 11
72.0341852324
 21
28.3040388426
 31
0.0
  0
ARC
  5
127
330
1F
100
AcDbEntity
  8
0
  6
CONTINUOUS
 62
     7
100
AcDbCircle
 10
73.057806302
 20
28.7764808027
 30
0.0
 40
0.472440944881896
100
AcDbArc
 50
270.0
 51
0.0
  0
LINE
  5
128
330
1F
100
AcDbEntity
  8
0
  6
CONTINUOUS
 62
     7
100
AcDbLine
 10
73.5302477364
 20
33.1967588548
 30
0.0
 11
73.5302477364
 21
28.7764807449
 31
0.0
  0
ARC
  5
129
330
1F
100
AcDbEntity
  8
0
  6
CONTINUOUS
 62
     7
100
AcDbCircle
 10
74.0026881917
 20
33.1967591501
 30
0.0
 40
0.4724409448818889
100
AcDbArc
 50
90.0
 51
180.0
  0
LINE
  5
12A
330
1F
100
AcDbEntity
  8
0
  6
CONTINUOUS
 62
     7
100
AcDbLine
 10
78.6483577849
 20
33.6692007571
 30
0.0
 11
74.0026872921
 21
33.6692007571
 31
0.0
  0
LINE
  5
12B
330
1F
100
AcDbEntity
  8
0
  6
CONTINUOUS
 62
     7
100
AcDbLine
 10
78.6483577849
 20
33.5895229576
 30
0.0
 11
78.6483577849
 21
33.6692007571
 31
0.0
  0
ARC
  5
12C
330
1F
100
AcDbEntity
  8
0
  6
CONTINUOUS
 62
     7
100
AcDbCircle
 10
78.6089874043
 20
33.5895222068
 30
0.0
 40
0.0393700787401627
100
AcDbArc
 50
287.6004667859
 51
0.0
  0
ARC
  5
12D
330
1F
100
AcDbEntity
  8
0
  6
CONTINUOUS
 62
     7
100
AcDbCircle
 10
78.6824389846
 20
33.3579800328
 30
0.0
 40
0.2035433070866264
100
AcDbArc
 50
107.6004667859
 51
294.8878920264
  0
ARC
  5
12E
330
1F
100
AcDbEntity
  8
0
  6
CONTINUOUS
 62
     7
100
AcDbCircle
 10
78.7846676556
 20
33.1376252919
 30
0.0
 40
0.0393700787401576
100
AcDbArc
 50
90.0
 51
114.8878920264
  0
LINE
  5
12F
330
1F
100
AcDbEntity
  8
0
  6
CONTINUOUS
 62
     7
100
AcDbLine
 10
78.7846646903
 20
33.1769954565
 30
0.0
 11
79.1248147875
 21
33.1769954565
 31
0.0
  0
ARC
  5
130
330
1F
100
AcDbEntity
  8
0
  6
CONTINUOUS
 62
     7
100
AcDbCircle
 10
79.1248123686
 20
33.2163654493
 30
0.0
 40
0.039370078740159
100
AcDbArc
 50
270.0
 51
356.3380644245
  0
LINE
  5
131
330
1F
100
AcDbEntity
  8
0
  6
CONTINUOUS
 62
     7
100
AcDbLine
 10
79.1640975337
 20
33.2138517774
 30
0.0
 11
79.1774921523
 21
33.4230593872
 31
0.0
  0
LINE
  5
132
330
1F
100
AcDbEntity
  8
0
  6
CONTINUOUS
 62
     7
100
AcDbLine
 10
79.1774921523
 20
33.4230593872
 30
0.0
 11
79.5932415896
 21
33.4230593872
 31
0.0
  0
ARC
  5
133
330
1F
100
AcDbEntity
  8
0
  6
CONTINUOUS
 62
     7
100
AcDbCircle
 10
79.5932393728
 20
33.383688284
 30
0.0
 40
0.039370078740177
100
AcDbArc
 50
0.0
 51
90.0
  0
LINE
  5
134
330
1F
100
AcDbEntity
  8
0
  6
CONTINUOUS
 62
     7
100
AcDbLine
 10
79.6326088148
 20
32.9210897194
 30
0.0
 11
79.6326088148
 21
33.3836874687
 31
0.0
  0
LINE
  5
135
330
1F
100
AcDbEntity
  8
0
  6
CONTINUOUS
 62
     7
100
AcDbLine
 10
78.6483577849
 20
18.0461604358
 30
0.0
 11
78.6483577849
 21
18.1258382354
 31
0.0
  0
LINE
  5
136
330
1F
100
AcDbEntity
  8
0
  6
CONTINUOUS
 62
     7
100
AcDbLine
 10
66.443630935
 20
18.0461604358
 30
0.0
 11
71.0893014278
 21
18.0461604358
 31
0.0
  0
ARC
  5
137
330
1F
100
AcDbEntity
  8
0
  6
CONTINUOUS
 62
     7
100
AcDbCircle
 10
71.0893023649
 20
18.5186012733
 30
0.0
 40
0.4724409448818889
100
AcDbArc
 50
270.0
 51
0.0
  0
ARC
  5
138
330
1F
100
AcDbEntity
  8
0
  6
CONTINUOUS
 62
     7
100
AcDbCircle
 10
65.6956015775
 20
1.9320181997
 30
0.0
 40
0.236220472440948
100
AcDbArc
 50
90.0
 51
180.0
  0
LINE
  5
139
330
1F
100
AcDbEntity
  8
0
  6
CONTINUOUS
 62
     7
100
AcDbLine
 10
70.3393013452
 20
2.1682386856
 30
0.0
 11
65.6956020296
 21
2.1682386856
 31
0.0
  0
ARC
  5
13A
330
1F
100
AcDbEntity
  8
0
  6
CONTINUOUS
 62
     7
100
AcDbCircle
 10
70.3393023649
 20
2.640679617
 30
0.0
 40
0.472440944881896
100
AcDbArc
 50
270.0
 51
0.0
  0
LINE
  5
13B
330
1F
100
AcDbEntity
  8
0
  6
CONTINUOUS
 62
     7
100
AcDbLine
 10
70.8117455941
 20
6.5490680245
 30
0.0
 11
70.8117455941
 21
2.6406797079
 31
0.0
  0
ARC
  5
13C
330
1F
100
AcDbEntity
  8
0
  6
CONTINUOUS
 62
     7
100
AcDbCircle
 10
71.5617433098
 20
6.5490682006
 30
0.0
 40
0.75
100
AcDbArc
 50
120.0
 51
180.0
  0
ARC
  5
13D
330
1F
100
AcDbEntity
  8
0
  6
CONTINUOUS
 62
     7
100
AcDbCircle
 10
70.8117433098
 20
7.8481063063
 30
0.0
 40
0.7499999999999929
100
AcDbArc
 50
300.0
 51
0.0
  0
LINE
  5
13E
330
1F
100
AcDbEntity
  8
0
  6
CONTINUOUS
 62
     7
100
AcDbLine
 10
71.5617409835
 20
10.1427488034
 30
0.0
 11
71.5617409835
 21
7.8481060846
 31
0.0
  0
ARC
  5
13F
330
1F
100
AcDbEntity
  8
0
  6
CONTINUOUS
 62
     7
100
AcDbCircle
 10
70.8117433098
 20
10.1427493872
 30
0.0
 40
0.7499999999999929
100
AcDbArc
 50
0.0
 51
60.0
  0
ARC
  5
140
330
1F
100
AcDbEntity
  8
0
  6
CONTINUOUS
 62
     7
100
AcDbCircle
 10
71.5617433098
 20
11.4417874929
 30
0.0
 40
0.75
100
AcDbArc
 50
180.0
 51
240.0
  0
LINE
  5
141
330
1F
100
AcDbEntity
  8
0
  6
CONTINUOUS
 62
     7
100
AcDbLine
 10
70.8117455941
 20
15.3501766467
 30
0.0
 11
70.8117455941
 21
11.4417874501
 31
0.0
  0
ARC
  5
142
330
1F
100
AcDbEntity
  8
0
  6
CONTINUOUS
 62
     7
100
AcDbCircle
 10
70.3393023649
 20
15.3501760765
 30
0.0
 40
0.472440944881896
100
AcDbArc
 50
0.0
 51
90.0
  0
LINE
  5
143
330
1F
100
AcDbEntity
  8
0
  6
CONTINUOUS
 62
     7
100
AcDbLine
 10
65.6956020296
 20
15.8226173757
 30
0.0
 11
70.3393013452
 21
15.8226173757
 31
0.0
  0
ARC
  5
144
330
1F
100
AcDbEntity
  8
0
  6
CONTINUOUS
 62
     7
100
AcDbCircle
 10
65.6956015775
 20
16.0588374938
 30
0.0
 40
0.236220472440948
100
AcDbArc
 50
180.0
 51
270.0
  0
LINE
  5
145
330
1F
100
AcDbEntity
  8
0
  6
CONTINUOUS
 62
     7
100
AcDbLine
 10
65.4593799051
 20
16.5214360762
 30
0.0
 11
65.4593799051
 21
16.0588371535
 31
0.0
  0
ARC
  5
146
330
1F
100
AcDbEntity
  8
0
  6
CONTINUOUS
 62
     7
100
AcDbCircle
 10
65.4987511838
 20
16.521435919
 30
0.0
 40
0.0393700787401592
100
AcDbArc
 50
90.0
 51
180.0
  0
LINE
  5
147
330
1F
100
AcDbEntity
  8
0
  6
CONTINUOUS
 62
     7
100
AcDbLine
 10
65.4987518236
 20
16.5608056481
 30
0.0
 11
65.9145012609
 21
16.5608056481
 31
0.0
  0
LINE
  5
148
330
1F
100
AcDbEntity
  8
0
  6
CONTINUOUS
 62
     7
100
AcDbLine
 10
65.9145012609
 20
16.5608056481
 30
0.0
 11
65.9278864929
 21
16.3515980382
 31
0.0
  0
ARC
  5
149
330
1F
100
AcDbEntity
  8
0
  6
CONTINUOUS
 62
     7
100
AcDbCircle
 10
65.9671781881
 20
16.3541130844
 30
0.0
 40
0.039370078740159
100
AcDbArc
 50
183.6619355755
 51
270.0
  0
LINE
  5
14A
330
1F
100
AcDbEntity
  8
0
  6
CONTINUOUS
 62
     7
100
AcDbLine
 10
65.9671786257
 20
16.3147428906
 30
0.0
 11
66.3073240296
 21
16.3147428906
 31
0.0
  0
ARC
  5
14B
330
1F
100
AcDbEntity
  8
0
  6
CONTINUOUS
 62
     7
100
AcDbCircle
 10
66.307322901
 20
16.2753729269
 30
0.0
 40
0.0393700787401641
100
AcDbArc
 50
65.1121079736
 51
90.0
  0
ARC
  5
14C
330
1F
100
AcDbEntity
  8
0
  6
CONTINUOUS
 62
     7
100
AcDbCircle
 10
66.4095515721
 20
16.4957276678
 30
0.0
 40
0.2035433070866079
100
AcDbArc
 50
245.1121079736
 51
72.3995332141
  0
ARC
  5
14D
330
1F
100
AcDbEntity
  8
0
  6
CONTINUOUS
 62
     7
100
AcDbCircle
 10
66.4830031524
 20
16.7272698418
 30
0.0
 40
0.039370078740177
100
AcDbArc
 50
180.0
 51
252.3995332141
  0
LINE
  5
14E
330
1F
100
AcDbEntity
  8
0
  6
CONTINUOUS
 62
     7
100
AcDbLine
 10
66.443630935
 20
16.8069481913
 30
0.0
 11
66.443630935
 21
16.7272703917
 31
0.0
  0
LINE
  5
14F
330
1F
100
AcDbEntity
  8
0
  6
CONTINUOUS
 62
     7
100
AcDbLine
 10
71.0893014278
 20
16.8069481913
 30
0.0
 11
66.443630935
 21
16.8069481913
 31
0.0
  0
ARC
  5
150
330
1F
100
AcDbEntity
  8
0
  6
CONTINUOUS
 62
     7
100
AcDbCircle
 10
71.0893023649
 20
16.3345067852
 30
0.0
 40
0.4724409448818889
100
AcDbArc
 50
0.0
 51
90.0
  0
LINE
  5
151
330
1F
100
AcDbEntity
  8
0
  6
CONTINUOUS
 62
     7
100
AcDbLine
 10
71.5617409835
 20
11.9142281791
 30
0.0
 11
71.5617409835
 21
16.334506289
 31
0.0
  0
ARC
  5
152
330
1F
100
AcDbEntity
  8
0
  6
CONTINUOUS
 62
     7
100
AcDbCircle
 10
72.0341842547
 20
11.9142284378
 30
0.0
 40
0.472440944881896
100
AcDbArc
 50
180.0
 51
270.0
  0
LINE
  5
153
330
1F
100
AcDbEntity
  8
0
  6
CONTINUOUS
 62
     7
100
AcDbLine
 10
73.0578081808
 20
11.4417874501
 30
0.0
 11
72.0341852324
 21
11.4417874501
 31
0.0
  0
ARC
  5
154
330
1F
100
AcDbEntity
  8
0
  6
CONTINUOUS
 62
     7
100
AcDbCircle
 10
73.057806302
 20
11.9142284378
 30
0.0
 40
0.472440944881896
100
AcDbArc
 50
270.0
 51
0.0
  0
LINE
  5
155
330
1F
100
AcDbEntity
  8
0
  6
CONTINUOUS
 62
     7
100
AcDbLine
 10
73.5302477364
 20
16.334506289
 30
0.0
 11
73.5302477364
 21
11.9142281791
 31
0.0
  0
ARC
  5
156
330
1F
100
AcDbEntity
  8
0
  6
CONTINUOUS
 62
     7
100
AcDbCircle
 10
74.0026881917
 20
16.3345067852
 30
0.0
 40
0.4724409448818889
100
AcDbArc
 50
90.0
 51
180.0
  0
LINE
  5
157
330
1F
100
AcDbEntity
  8
0
  6
CONTINUOUS
 62
     7
100
AcDbLine
 10
78.6483577849
 20
16.8069481913
 30
0.0
 11
74.0026872921
 21
16.8069481913
 31
0.0
  0
LINE
  5
158
330
1F
100
AcDbEntity
  8
0
  6
CONTINUOUS
 62
     7
100
AcDbLine
 10
78.6483577849
 20
16.7272703917
 30
0.0
 11
78.6483577849
 21
16.8069481913
 31
0.0
  0
ARC
  5
159
330
1F
100
AcDbEntity
  8
0
  6
CONTINUOUS
 62
     7
100
AcDbCircle
 10
78.6089874043
 20
16.7272698418
 30
0.0
 40
0.0393700787401535
100
AcDbArc
 50
287.6004667859
 51
0.0
  0
ARC
  5
15A
330
1F
100
AcDbEntity
  8
0
  6
CONTINUOUS
 62
     7
100
AcDbCircle
 10
78.6824389846
 20
16.4957276678
 30
0.0
 40
0.203543307086613
100
AcDbArc
 50
107.6004667859
 51
294.8878920264
  0
ARC
  5
15B
330
1F
100
AcDbEntity
  8
0
  6
CONTINUOUS
 62
     7
100
AcDbCircle
 10
78.7846676556
 20
16.2753729269
 30
0.0
 40
0.0393700787401728
100
AcDbArc
 50
90.0
 51
114.8878920264
  0
LINE
  5
15C
330
1F
100
AcDbEntity
  8
0
  6
CONTINUOUS
 62
     7
100
AcDbLine
 10
78.7846646903
 20
16.3147428906
 30
0.0
 11
79.1248147875
 21
16.3147428906
 31
0.0
  0
ARC
  5
15D
330
1F
100
AcDbEntity
  8
0
  6
CONTINUOUS
 62
     7
100
AcDbCircle
 10
79.1248123686
 20
16.3541130844
 30
0.0
 40
0.0393700787401592
100
AcDbArc
 50
270.0
 51
356.3380644245
  0
LINE
  5
15E
330
1F
100
AcDbEntity
  8
0
  6
CONTINUOUS
 62
     7
100
AcDbLine
 10
79.1640975337
 20
16.3515980382
 30
0.0
 11
79.1774921523
 21
16.5608056481
 31
0.0
  0
LINE
  5
15F
330
1F
100
AcDbEntity
  8
0
  6
CONTINUOUS
 62
     7
100
AcDbLine
 10
79.1774921523
 20
16.5608056481
 30
0.0
 11
79.5932415896
 21
16.5608056481
 31
0.0
  0
ARC
  5
160
330
1F
100
AcDbEntity
  8
0
  6
CONTINUOUS
 62
     7
100
AcDbCircle
 10
79.5932393728
 20
16.521435919
 30
0.0
 40
0.039370078740177
100
AcDbArc
 50
0.0
 51
90.0
  0
LINE
  5
161
330
1F
100
AcDbEntity
  8
0
  6
CONTINUOUS
 62
     7
100
AcDbLine
 10
79.6326088148
 20
16.0588371535
 30
0.0
 11
79.6326088148
 21
16.5214360762
 31
0.0
  0
ARC
  5
162
330
1F
100
AcDbEntity
  8
0
  6
CONTINUOUS
 62
     7
100
AcDbCircle
 10
79.3963889791
 20
16.0588374938
 30
0.0
 40
0.236220472440948
100
AcDbArc
 50
270.0
 51
0.0
  0
LINE
  5
163
330
1F
100
AcDbEntity
  8
0
  6
CONTINUOUS
 62
     7
100
AcDbLine
 10
74.7526873747
 20
15.8226173757
 30
0.0
 11
79.3963866903
 21
15.8226173757
 31
0.0
  0
ARC
  5
164
330
1F
100
AcDbEntity
  8
0
  6
CONTINUOUS
 62
     7
100
AcDbCircle
 10
74.7526881917
 20
15.3501760765
 30
0.0
 40
0.472440944881896
100
AcDbArc
 50
90.0
 51
180.0
  0
LINE
  5
165
330
1F
100
AcDbEntity
  8
0
  6
CONTINUOUS
 62
     7
100
AcDbLine
 10
74.280247819
 20
11.4417874501
 30
0.0
 11
74.280247819
 21
15.3501766467
 31
0.0
  0
ARC
  5
166
330
1F
100
AcDbEntity
  8
0
  6
CONTINUOUS
 62
     7
100
AcDbCircle
 10
73.5302472468
 20
11.4417874929
 30
0.0
 40
0.75
100
AcDbArc
 50
300.0
 51
0.0
  0
ARC
  5
167
330
1F
100
AcDbEntity
  8
0
  6
CONTINUOUS
 62
     7
100
AcDbCircle
 10
74.2802472468
 20
10.1427493872
 30
0.0
 40
0.7499999999999969
100
AcDbArc
 50
120.0
 51
180.0
  0
LINE
  5
168
330
1F
100
AcDbEntity
  8
0
  6
CONTINUOUS
 62
     7
100
AcDbLine
 10
73.5302477364
 20
7.8481060846
 30
0.0
 11
73.5302477364
 21
10.1427488034
 31
0.0
  0
ARC
  5
169
330
1F
100
AcDbEntity
  8
0
  6
CONTINUOUS
 62
     7
100
AcDbCircle
 10
74.2802472468
 20
7.8481063063
 30
0.0
 40
0.75
100
AcDbArc
 50
180.0
 51
240.0
  0
ARC
  5
16A
330
1F
100
AcDbEntity
  8
0
  6
CONTINUOUS
 62
     7
100
AcDbCircle
 10
73.5302472468
 20
6.5490682006
 30
0.0
 40
0.75
100
AcDbArc
 50
0.0
 51
60.0
  0
LINE
  5
16B
330
1F
100
AcDbEntity
  8
0
  6
CONTINUOUS
 62
     7
100
AcDbLine
 10
74.280247819
 20
2.6406797079
 30
0.0
 11
74.280247819
 21
6.5490680245
 31
0.0
  0
ARC
  5
16C
330
1F
100
AcDbEntity
  8
0
  6
CONTINUOUS
 62
     7
100
AcDbCircle
 10
74.7526881917
 20
2.640679617
 30
0.0
 40
0.4724409448818965
100
AcDbArc
 50
180.0
 51
270.0
  0
LINE
  5
16D
330
1F
100
AcDbEntity
  8
0
  6
CONTINUOUS
 62
     7
100
AcDbLine
 10
79.3963866903
 20
2.1682386856
 30
0.0
 11
74.7526873747
 21
2.1682386856
 31
0.0
  0
ARC
  5
16E
330
1F
100
AcDbEntity
  8
0
  6
CONTINUOUS
 62
     7
100
AcDbCircle
 10
79.3963889791
 20
1.9320181997
 30
0.0
 40
0.236220472440948
100
AcDbArc
 50
0.0
 51
90.0
  0
LINE
  5
16F
330
1F
100
AcDbEntity
  8
0
  6
CONTINUOUS
 62
     7
100
AcDbLine
 10
79.6326088148
 20
1.4694198384
 30
0.0
 11
79.6326088148
 21
1.9320181744
 31
0.0
  0
ARC
  5
170
330
1F
100
AcDbEntity
  8
0
  6
CONTINUOUS
 62
     7
100
AcDbCircle
 10
79.5932393728
 20
1.4694197745
 30
0.0
 40
0.039370078740177
100
AcDbArc
 50
270.0
 51
0.0
  0
LINE
  5
171
330
1F
100
AcDbEntity
  8
0
  6
CONTINUOUS
 62
     7
100
AcDbLine
 10
79.5932415896
 20
1.4300496799
 30
0.0
 11
79.1774921523
 21
1.4300496799
 31
0.0
  0
LINE
  5
172
330
1F
100
AcDbEntity
  8
0
  6
CONTINUOUS
 62
     7
100
AcDbLine
 10
79.1774921523
 20
1.4300496799
 30
0.0
 11
79.1640975337
 21
1.6392571431
 31
0.0
  0
ARC
  5
173
330
1F
100
AcDbEntity
  8
0
  6
CONTINUOUS
 62
     7
100
AcDbCircle
 10
79.1248123686
 20
1.6367426092
 30
0.0
 40
0.039370078740159
100
AcDbArc
 50
3.6619355755
 51
90.0
  0
LINE
  5
174
330
1F
100
AcDbEntity
  8
0
  6
CONTINUOUS
 62
     7
100
AcDbLine
 10
79.1248147875
 20
1.6761127307
 30
0.0
 11
78.7846646903
 21
1.6761127307
 31
0.0
  0
ARC
  5
175
330
1F
100
AcDbEntity
  8
0
  6
CONTINUOUS
 62
     7
100
AcDbCircle
 10
78.7846676556
 20
1.7154827666
 30
0.0
 40
0.0393700787401732
100
AcDbArc
 50
245.1121079736
 51
270.0
  0
ARC
  5
176
330
1F
100
AcDbEntity
  8
0
  6
CONTINUOUS
 62
     7
100
AcDbCircle
 10
78.6824389846
 20
1.4951280257
 30
0.0
 40
0.2035433070866143
100
AcDbArc
 50
65.1121079736
 51
252.3995332141
  0
ARC
  5
177
330
1F
100
AcDbEntity
  8
0
  6
CONTINUOUS
 62
     7
100
AcDbCircle
 10
78.6089874043
 20
1.2635858517
 30
0.0
 40
0.0393700787401562
100
AcDbArc
 50
0.0
 51
72.3995332141
  0
LINE
  5
178
330
1F
100
AcDbEntity
  8
0
  6
CONTINUOUS
 62
     7
100
AcDbLine
 10
73.5302477364
 20
6.0766272956
 30
0.0
 11
73.5302477364
 21
1.6563488923
 31
0.0
  0
ARC
  5
179
330
1F
100
AcDbEntity
  8
0
  6
CONTINUOUS
 62
     7
100
AcDbCircle
 10
73.057806302
 20
6.0766272557
 30
0.0
 40
0.472440944881896
100
AcDbArc
 50
0.0
 51
90.0
  0
LINE
  5
17A
330
1F
100
AcDbEntity
  8
0
  6
CONTINUOUS
 62
     7
100
AcDbLine
 10
72.0341852324
 20
6.5490680245
 30
0.0
 11
73.0578081808
 21
6.5490680245
 31
0.0
  0
ARC
  5
17B
330
1F
100
AcDbEntity
  8
0
  6
CONTINUOUS
 62
     7
100
AcDbCircle
 10
72.0341842547
 20
6.0766272557
 30
0.0
 40
0.472440944881896
100
AcDbArc
 50
90.0
 51
180.0
  0
LINE
  5
17C
330
1F
100
AcDbEntity
  8
0
  6
CONTINUOUS
 62
     7
100
AcDbLine
 10
71.5617409835
 20
1.6563488923
 30
0.0
 11
71.5617409835
 21
6.0766272956
 31
0.0
  0
ARC
  5
17D
330
1F
100
AcDbEntity
  8
0
  6
CONTINUOUS
 62
     7
100
AcDbCircle
 10
66.4830031524
 20
1.2635858517
 30
0.0
 40
0.0393700787401627
100
AcDbArc
 50
107.6004667859
 51
180.0
  0
ARC
  5
17E
330
1F
100
AcDbEntity
  8
0
  6
CONTINUOUS
 62
     7
100
AcDbCircle
 10
66.4095515721
 20
1.4951280257
 30
0.0
 40
0.2035433070866219
100
AcDbArc
 50
287.6004667859
 51
114.8878920264
  0
ARC
  5
17F
330
1F
100
AcDbEntity
  8
0
  6
CONTINUOUS
 62
     7
100
AcDbCircle
 10
66.307322901
 20
1.7154827666
 30
0.0
 40
0.0393700787401532
100
AcDbArc
 50
270.0
 51
294.8878920264
  0
LINE
  5
180
330
1F
100
AcDbEntity
  8
0
  6
CONTINUOUS
 62
     7
100
AcDbLine
 10
66.3073240296
 20
1.6761127307
 30
0.0
 11
65.9671786257
 21
1.6761127307
 31
0.0
  0
ARC
  5
181
330
1F
100
AcDbEntity
  8
0
  6
CONTINUOUS
 62
     7
100
AcDbCircle
 10
65.9671781881
 20
1.6367426092
 30
0.0
 40
0.039370078740159
100
AcDbArc
 50
90.0
 51
176.3380644245
  0
LINE
  5
182
330
1F
100
AcDbEntity
  8
0
  6
CONTINUOUS
 62
     7
100
AcDbLine
 10
65.9278864929
 20
1.6392571431
 30
0.0
 11
65.9145012609
 21
1.4300496799
 31
0.0
  0
LINE
  5
183
330
1F
100
AcDbEntity
  8
0
  6
CONTINUOUS
 62
     7
100
AcDbLine
 10
65.9145012609
 20
1.4300496799
 30
0.0
 11
65.4987518236
 21
1.4300496799
 31
0.0
  0
ARC
  5
184
330
1F
100
AcDbEntity
  8
0
  6
CONTINUOUS
 62
     7
100
AcDbCircle
 10
65.4987511838
 20
1.4694197745
 30
0.0
 40
0.0393700787401619
100
AcDbArc
 50
180.0
 51
270.0
  0
LINE
  5
185
330
1F
100
AcDbEntity
  8
0
  6
CONTINUOUS
 62
     7
100
AcDbLine
 10
65.4593799051
 20
1.9320181744
 30
0.0
 11
65.4593799051
 21
1.4694198384
 31
0.0
  0
ARC
  5
186
330
1F
100
AcDbEntity
  8
0
  6
CONTINUOUS
 62
     7
100
AcDbCircle
 10
74.0026881917
 20
1.6563489084
 30
0.0
 40
0.4724409448818903
100
AcDbArc
 50
180.0
 51
270.0
  0
LINE
  5
187
330
1F
100
AcDbEntity
  8
0
  6
CONTINUOUS
 62
     7
100
AcDbLine
 10
78.6483577849
 20
1.1839079433
 30
0.0
 11
78.6483577849
 21
1.2635858162
 31
0.0
  0
ARC
  5
188
330
1F
100
AcDbEntity
  8
0
  6
CONTINUOUS
 62
     7
100
AcDbCircle
 10
71.0893023649
 20
1.6563489084
 30
0.0
 40
0.4724409448818903
100
AcDbArc
 50
270.0
 51
0.0
  0
LINE
  5
189
330
1F
100
AcDbEntity
  8
0
  6
CONTINUOUS
 62
     7
100
AcDbLine
 10
74.0026872921
 20
1.1839079433
 30
0.0
 11
78.6483577849
 21
1.1839079433
 31
0.0
  0
LINE
  5
18A
330
1F
100
AcDbEntity
  8
0
  6
CONTINUOUS
 62
     7
100
AcDbLine
 10
66.443630935
 20
1.1839079433
 30
0.0
 11
71.0893014278
 21
1.1839079433
 31
0.0
  0
LINE
  5
18B
330
1F
100
AcDbEntity
  8
0
  6
CONTINUOUS
 62
     7
100
AcDbLine
 10
66.443630935
 20
1.2635858162
 30
0.0
 11
66.443630935
 21
1.1839079433
 31
0.0
  0
ARC
  5
18C
330
1F
100
AcDbEntity
  8
0
  6
CONTINUOUS
 62
     7
100
AcDbCircle
 10
21.0312465052
 20
2.6882004682
 30
0.0
 40
0.2035432708589462
100
AcDbArc
 50
186.0551907338
 51
214.8878397487
  0
ARC
  5
18D
330
1F
100
AcDbEntity
  8
0
  6
CONTINUOUS
 62
     7
100
AcDbCircle
 10
20.8319912459
 20
2.5492609343
 30
0.0
 40
0.0393700264954959
100
AcDbArc
 50
10.0
 51
34.8878397487
  0
LINE
  5
18E
330
1F
100
AcDbEntity
  8
0
  6
CONTINUOUS
 62
     7
100
AcDbLine
 10
20.9125720603
 20
2.3189894508
 30
0.0
 11
20.8707619833
 21
2.5560974317
 31
0.0
  0
ARC
  5
18F
330
1F
100
AcDbEntity
  8
0
  6
CONTINUOUS
 62
     7
100
AcDbCircle
 10
20.8737997845
 20
2.3121529296
 30
0.0
 40
0.0393700787401593
100
AcDbArc
 50
345.1121190957
 51
10.0
  0
ARC
  5
190
330
1F
100
AcDbEntity
  8
0
  6
CONTINUOUS
 62
     7
100
AcDbCircle
 10
21.1085586763
 20
2.2497415866
 30
0.0
 40
0.2035433070866159
100
AcDbArc
 50
165.1121190957
 51
352.3995430525
  0
ARC
  5
191
330
1F
100
AcDbEntity
  8
0
  6
CONTINUOUS
 62
     7
100
AcDbCircle
 10
21.349337943
 20
2.2176128187
 30
0.0
 40
0.0393700787401596
100
AcDbArc
 50
100.0000472348
 51
172.3995430525
  0
LINE
  5
192
330
1F
100
AcDbEntity
  8
0
  6
CONTINUOUS
 62
     7
100
AcDbLine
 10
21.4992812293
 20
2.2840293613
 30
0.0
 11
21.3425022404
 21
2.256384774
 31
0.0
  0
ARC
  5
193
330
1F
100
AcDbEntity
  8
0
  6
CONTINUOUS
 62
     7
100
AcDbCircle
 10
21.5061176364
 20
2.245257442
 30
0.0
 40
0.0393700787401582
100
AcDbArc
 50
27.6004766242
 51
100.0000472348
  0
ARC
  5
194
330
1F
100
AcDbEntity
  8
0
  6
CONTINUOUS
 62
     7
100
AcDbCircle
 10
21.7213874122
 20
2.3578000413
 30
0.0
 40
0.2035433070866152
100
AcDbArc
 50
207.6004766242
 51
34.8879031485
  0
ARC
  5
195
330
1F
100
AcDbEntity
  8
0
  6
CONTINUOUS
 62
     7
100
AcDbCircle
 10
21.9206426201
 20
2.4967398669
 30
0.0
 40
0.0393700787401601
100
AcDbArc
 50
190.0
 51
214.8879031485
  0
LINE
  5
196
330
1F
100
AcDbEntity
  8
0
  6
CONTINUOUS
 62
     7
100
AcDbLine
 10
21.8400625725
 20
2.7270108173
 30
0.0
 11
21.8818703029
 21
2.4899032764
 31
0.0
  0
ARC
  5
197
330
1F
100
AcDbEntity
  8
0
  6
CONTINUOUS
 62
     7
100
AcDbCircle
 10
21.8788355068
 20
2.7338475213
 30
0.0
 40
0.0393714215238474
100
AcDbArc
 50
165.1121889858
 51
190.0
  0
ARC
  5
198
330
1F
100
AcDbEntity
  8
0
  6
CONTINUOUS
 62
     7
100
AcDbCircle
 10
21.6440752411
 20
2.7962589229
 30
0.0
 40
0.2035433070866169
100
AcDbArc
 50
345.1121889858
 51
13.9447490948
  0
LINE
  5
199
330
1F
100
AcDbEntity
  8
0
  6
CONTINUOUS
 62
     7
100
AcDbLine
 10
21.8416207412
 20
2.845309904
 30
0.0
 11
34.2701700722
 21
5.0367987477
 31
0.0
  0
ARC
  5
19A
330
1F
100
AcDbEntity
  8
0
  6
CONTINUOUS
 62
     7
100
AcDbCircle
 10
34.4725777408
 20
5.0582698217
 30
0.0
 40
0.2035432708589482
100
AcDbArc
 50
186.0551907338
 51
214.8878397487
  0
ARC
  5
19B
330
1F
100
AcDbEntity
  8
0
  6
CONTINUOUS
 62
     7
100
AcDbCircle
 10
34.2733224815
 20
4.9193302878
 30
0.0
 40
0.0393700264954932
100
AcDbArc
 50
10.0
 51
34.8878397487
  0
LINE
  5
19C
330
1F
100
AcDbEntity
  8
0
  6
CONTINUOUS
 62
     7
100
AcDbLine
 10
34.3539028649
 20
4.6890587382
 30
0.0
 11
34.3120951346
 21
4.9261667191
 31
0.0
  0
ARC
  5
19D
330
1F
100
AcDbEntity
  8
0
  6
CONTINUOUS
 62
     7
100
AcDbCircle
 10
34.3151310201
 20
4.6822222831
 30
0.0
 40
0.0393700787401552
100
AcDbArc
 50
345.1121190957
 51
10.0
  0
ARC
  5
19E
330
1F
100
AcDbEntity
  8
0
  6
CONTINUOUS
 62
     7
100
AcDbCircle
 10
34.5498899119
 20
4.61981094
 30
0.0
 40
0.2035433070866186
100
AcDbArc
 50
165.1121190957
 51
352.3995430525
  0
ARC
  5
19F
330
1F
100
AcDbEntity
  8
0
  6
CONTINUOUS
 62
     7
100
AcDbCircle
 10
34.7906691786
 20
4.5876821722
 30
0.0
 40
0.0393700787401578
100
AcDbArc
 50
100.0000472348
 51
172.3995430525
  0
LINE
  5
1A0
330
1F
100
AcDbEntity
  8
0
  6
CONTINUOUS
 62
     7
100
AcDbLine
 10
34.9406120339
 20
4.6540987954
 30
0.0
 11
34.783833045
 21
4.6264542081
 31
0.0
  0
ARC
  5
1A1
330
1F
100
AcDbEntity
  8
0
  6
CONTINUOUS
 62
     7
100
AcDbCircle
 10
34.9474488721
 20
4.6153267955
 30
0.0
 40
0.0393700787401578
100
AcDbArc
 50
27.6004766242
 51
100.0000472348
  0
ARC
  5
1A2
330
1F
100
AcDbEntity
  8
0
  6
CONTINUOUS
 62
     7
100
AcDbCircle
 10
35.1627186479
 20
4.7278693947
 30
0.0
 40
0.2035433070866181
100
AcDbArc
 50
207.6004766242
 51
34.8879031485
  0
ARC
  5
1A3
330
1F
100
AcDbEntity
  8
0
  6
CONTINUOUS
 62
     7
100
AcDbCircle
 10
35.3619738557
 20
4.8668092204
 30
0.0
 40
0.0393700787401596
100
AcDbArc
 50
190.0
 51
214.8879031485
  0
LINE
  5
1A4
330
1F
100
AcDbEntity
  8
0
  6
CONTINUOUS
 62
     7
100
AcDbLine
 10
35.2813933771
 20
5.0970801047
 30
0.0
 11
35.3232011075
 21
4.8599727105
 31
0.0
  0
ARC
  5
1A5
330
1F
100
AcDbEntity
  8
0
  6
CONTINUOUS
 62
     7
100
AcDbCircle
 10
35.3201667424
 20
5.1039168747
 30
0.0
 40
0.0393714215238468
100
AcDbArc
 50
165.1121889858
 51
190.0
  0
ARC
  5
1A6
330
1F
100
AcDbEntity
  8
0
  6
CONTINUOUS
 62
     7
100
AcDbCircle
 10
35.0854064768
 20
5.1663282764
 30
0.0
 40
0.2035433070866129
100
AcDbArc
 50
345.1121889858
 51
13.9447490948
  0
LINE
  5
1A7
330
1F
100
AcDbEntity
  8
0
  6
CONTINUOUS
 62
     7
100
AcDbLine
 10
35.2829515458
 20
5.2153794848
 30
0.0
 11
36.3318219892
 21
5.4003234283
 31
0.0
  0
LINE
  5
1A8
330
1F
100
AcDbEntity
  8
0
  6
CONTINUOUS
 62
     7
100
AcDbLine
 10
36.3318219892
 20
4.5047536673
 30
0.0
 11
36.3318219892
 21
5.4003234283
 31
0.0
  0
ARC
  5
1A9
330
1F
100
AcDbEntity
  8
0
  6
CONTINUOUS
 62
     7
100
AcDbCircle
 10
36.0956015775
 20
4.5047537858
 30
0.0
 40
0.2362204724409432
100
AcDbArc
 50
280.0
 51
0.0
  0
LINE
  5
1AA
330
1F
100
AcDbEntity
  8
0
  6
CONTINUOUS
 62
     7
100
AcDbLine
 10
19.5736288079
 20
1.3516196326
 30
0.0
 11
36.1366214708
 21
4.2721219014
 31
0.0
  0
ARC
  5
1AB
330
1F
100
AcDbEntity
  8
0
  6
CONTINUOUS
 62
     7
100
AcDbCircle
 10
19.5326094516
 20
1.5842513927
 30
0.0
 40
0.236220472440948
100
AcDbArc
 50
180.0
 51
280.0
  0
LINE
  5
1AC
330
1F
100
AcDbEntity
  8
0
  6
CONTINUOUS
 62
     7
100
AcDbLine
 10
19.2963885973
 20
2.3965171418
 30
0.0
 11
19.2963885973
 21
1.5842513252
 31
0.0
  0
LINE
  5
1AD
330
1F
100
AcDbEntity
  8
0
  6
CONTINUOUS
 62
     7
100
AcDbLine
 10
19.2963885973
 20
2.3965171418
 30
0.0
 11
20.8288392676
 21
2.6667294603
 31
0.0
  0
ARC
  5
1AE
330
1F
100
AcDbEntity
  8
0
  6
CONTINUOUS
 62
     7
100
AcDbCircle
 10
35.0854065525
 20
16.1814633896
 30
0.0
 40
0.2035433070866187
100
AcDbArc
 50
346.055191437
 51
14.8879031485
  0
ARC
  5
1AF
330
1F
100
AcDbEntity
  8
0
  6
CONTINUOUS
 62
     7
100
AcDbCircle
 10
35.32016542
 20
16.2438748237
 30
0.0
 40
0.0393700787401596
100
AcDbArc
 50
170.0
 51
194.8879031485
  0
LINE
  5
1B0
330
1F
100
AcDbEntity
  8
0
  6
CONTINUOUS
 62
     7
100
AcDbLine
 10
35.3232011075
 20
16.4878192912
 30
0.0
 11
35.2813933771
 21
16.2507113103
 31
0.0
  0
ARC
  5
1B1
330
1F
100
AcDbEntity
  8
0
  6
CONTINUOUS
 62
     7
100
AcDbCircle
 10
35.3619751781
 20
16.4809820117
 30
0.0
 40
0.039371421523849
100
AcDbArc
 50
145.1121889858
 51
170.0
  0
ARC
  5
1B2
330
1F
100
AcDbEntity
  8
0
  6
CONTINUOUS
 62
     7
100
AcDbCircle
 10
35.1627186454
 20
16.619922285
 30
0.0
 40
0.2035433070866142
100
AcDbArc
 50
325.1121889858
 51
152.3995430525
  0
ARC
  5
1B3
330
1F
100
AcDbEntity
  8
0
  6
CONTINUOUS
 62
     7
100
AcDbCircle
 10
34.9474488309
 20
16.7324648104
 30
0.0
 40
0.0393700787401586
100
AcDbArc
 50
260.0000472348
 51
332.3995430525
  0
LINE
  5
1B4
330
1F
100
AcDbEntity
  8
0
  6
CONTINUOUS
 62
     7
100
AcDbLine
 10
34.783833045
 20
16.7213369136
 30
0.0
 11
34.9406120339
 21
16.6936923263
 31
0.0
  0
ARC
  5
1B5
330
1F
100
AcDbEntity
  8
0
  6
CONTINUOUS
 62
     7
100
AcDbCircle
 10
34.7906690919
 20
16.7601091751
 30
0.0
 40
0.0393701149678273
100
AcDbArc
 50
187.6004766242
 51
260.0000472348
  0
ARC
  5
1B6
330
1F
100
AcDbEntity
  8
0
  6
CONTINUOUS
 62
     7
100
AcDbCircle
 10
34.5498898362
 20
16.7279803246
 30
0.0
 40
0.2035432708589457
100
AcDbArc
 50
7.6004766242
 51
194.8878397487
  0
ARC
  5
1B7
330
1F
100
AcDbEntity
  8
0
  6
CONTINUOUS
 62
     7
100
AcDbCircle
 10
34.3151310201
 20
16.6655691823
 30
0.0
 40
0.0393700264954931
100
AcDbArc
 50
350.0
 51
14.8878397487
  0
LINE
  5
1B8
330
1F
100
AcDbEntity
  8
0
  6
CONTINUOUS
 62
     7
100
AcDbLine
 10
34.3120951346
 20
16.4216241093
 30
0.0
 11
34.3539028649
 21
16.6587320902
 31
0.0
  0
ARC
  5
1B9
330
1F
100
AcDbEntity
  8
0
  6
CONTINUOUS
 62
     7
100
AcDbCircle
 10
34.2733224815
 20
16.4284611775
 30
0.0
 40
0.039370078740159
100
AcDbArc
 50
325.1121190957
 51
350.0
  0
ARC
  5
1BA
330
1F
100
AcDbEntity
  8
0
  6
CONTINUOUS
 62
     7
100
AcDbCircle
 10
34.4725777433
 20
16.2895214292
 30
0.0
 40
0.2035433070866188
100
AcDbArc
 50
145.1121190957
 51
173.9447490948
  0
LINE
  5
1BB
330
1F
100
AcDbEntity
  8
0
  6
CONTINUOUS
 62
     7
100
AcDbLine
 10
34.2701700722
 20
16.3109929606
 30
0.0
 11
21.8416207412
 21
18.5024809244
 31
0.0
  0
ARC
  5
1BC
330
1F
100
AcDbEntity
  8
0
  6
CONTINUOUS
 62
     7
100
AcDbCircle
 10
21.6440753168
 20
18.5515327431
 30
0.0
 40
0.2035433070866152
100
AcDbArc
 50
346.055191437
 51
14.8879031485
  0
ARC
  5
1BD
330
1F
100
AcDbEntity
  8
0
  6
CONTINUOUS
 62
     7
100
AcDbCircle
 10
21.8788341844
 20
18.6139441772
 30
0.0
 40
0.0393700787401579
100
AcDbArc
 50
170.0
 51
194.8879031485
  0
LINE
  5
1BE
330
1F
100
AcDbEntity
  8
0
  6
CONTINUOUS
 62
     7
100
AcDbLine
 10
21.8818703029
 20
18.8578876987
 30
0.0
 11
21.8400625725
 21
18.6207808911
 31
0.0
  0
ARC
  5
1BF
330
1F
100
AcDbEntity
  8
0
  6
CONTINUOUS
 62
     7
100
AcDbCircle
 10
21.9206439425
 20
18.8510513652
 30
0.0
 40
0.0393714215238426
100
AcDbArc
 50
145.1121889858
 51
170.0
  0
ARC
  5
1C0
330
1F
100
AcDbEntity
  8
0
  6
CONTINUOUS
 62
     7
100
AcDbCircle
 10
21.7213874097
 20
18.9899916385
 30
0.0
 40
0.2035433070866188
100
AcDbArc
 50
325.1121889858
 51
152.3995430525
  0
ARC
  5
1C1
330
1F
100
AcDbEntity
  8
0
  6
CONTINUOUS
 62
     7
100
AcDbCircle
 10
21.5061175953
 20
19.1025341639
 30
0.0
 40
0.0393700787401586
100
AcDbArc
 50
260.0000472348
 51
332.3995430525
  0
LINE
  5
1C2
330
1F
100
AcDbEntity
  8
0
  6
CONTINUOUS
 62
     7
100
AcDbLine
 10
21.3425022404
 20
19.0914064944
 30
0.0
 11
21.4992812293
 21
19.0637619071
 31
0.0
  0
ARC
  5
1C3
330
1F
100
AcDbEntity
  8
0
  6
CONTINUOUS
 62
     7
100
AcDbCircle
 10
21.3493378563
 20
19.1301785286
 30
0.0
 40
0.0393701149678309
100
AcDbArc
 50
187.6004766242
 51
260.0000472348
  0
ARC
  5
1C4
330
1F
100
AcDbEntity
  8
0
  6
CONTINUOUS
 62
     7
100
AcDbCircle
 10
21.1085586006
 20
19.0980496781
 30
0.0
 40
0.2035432708589422
100
AcDbArc
 50
7.6004766242
 51
194.8878397487
  0
ARC
  5
1C5
330
1F
100
AcDbEntity
  8
0
  6
CONTINUOUS
 62
     7
100
AcDbCircle
 10
20.8737997845
 20
19.0356385357
 30
0.0
 40
0.0393700264954974
100
AcDbArc
 50
350.0
 51
14.8878397487
  0
LINE
  5
1C6
330
1F
100
AcDbEntity
  8
0
  6
CONTINUOUS
 62
     7
100
AcDbLine
 10
20.87076433
 20
18.79169369
 30
0.0
 11
20.9125720603
 21
19.0288016709
 31
0.0
  0
ARC
  5
1C7
330
1F
100
AcDbEntity
  8
0
  6
CONTINUOUS
 62
     7
100
AcDbCircle
 10
20.8319912459
 20
18.798530531
 30
0.0
 40
0.0393700787401567
100
AcDbArc
 50
325.1121190957
 51
350.0
  0
ARC
  5
1C8
330
1F
100
AcDbEntity
  8
0
  6
CONTINUOUS
 62
     7
100
AcDbCircle
 10
21.0312465077
 20
18.6595907827
 30
0.0
 40
0.203543307086619
100
AcDbArc
 50
145.1121190957
 51
173.9447490948
  0
LINE
  5
1C9
330
1F
100
AcDbEntity
  8
0
  6
CONTINUOUS
 62
     7
100
AcDbLine
 10
20.8288392676
 20
18.6810625414
 30
0.0
 11
19.2963885973
 21
18.9512745665
 31
0.0
  0
LINE
  5
1CA
330
1F
100
AcDbEntity
  8
0
  6
CONTINUOUS
 62
     7
100
AcDbLine
 10
19.2963885973
 20
19.7635403832
 30
0.0
 11
19.2963885973
 21
18.9512745665
 31
0.0
  0
ARC
  5
1CB
330
1F
100
AcDbEntity
  8
0
  6
CONTINUOUS
 62
     7
100
AcDbCircle
 10
19.5326094516
 20
19.7635400726
 30
0.0
 40
0.236220472440948
100
AcDbArc
 50
80.0
 51
180.0
  0
LINE
  5
1CC
330
1F
100
AcDbEntity
  8
0
  6
CONTINUOUS
 62
     7
100
AcDbLine
 10
36.1366214708
 20
17.075668927
 30
0.0
 11
19.5736288079
 21
19.9961721491
 31
0.0
  0
ARC
  5
1CD
330
1F
100
AcDbEntity
  8
0
  6
CONTINUOUS
 62
     7
100
AcDbCircle
 10
36.0956015775
 20
16.8430376795
 30
0.0
 40
0.2362204724409449
100
AcDbArc
 50
0.0
 51
80.0
  0
LINE
  5
1CE
330
1F
100
AcDbEntity
  8
0
  6
CONTINUOUS
 62
     7
100
AcDbLine
 10
36.3318219892
 20
15.9474679868
 30
0.0
 11
36.3318219892
 21
16.8430371611
 31
0.0
  0
LINE
  5
1CF
330
1F
100
AcDbEntity
  8
0
  6
CONTINUOUS
 62
     7
100
AcDbLine
 10
36.3318219892
 20
15.9474679868
 30
0.0
 11
35.2829515458
 21
16.1324125169
 31
0.0
  0
LINE
  5
1D0
330
1F
100
AcDbEntity
  8
0
  6
CONTINUOUS
 62
     7
100
AcDbLine
 10
36.1366214708
 20
13.8572246134
 30
0.0
 11
35.7396216836
 21
13.7872231821
 31
0.0
  0
ARC
  5
1D1
330
1F
100
AcDbEntity
  8
0
  6
CONTINUOUS
 62
     7
100
AcDbCircle
 10
35.7806409476
 20
13.554591238
 30
0.0
 40
0.236220472440948
100
AcDbArc
 50
100.0
 51
180.0
  0
LINE
  5
1D2
330
1F
100
AcDbEntity
  8
0
  6
CONTINUOUS
 62
     7
100
AcDbLine
 10
35.5444211653
 20
13.5545914161
 30
0.0
 11
35.5444211653
 21
7.7931999989
 31
0.0
  0
ARC
  5
1D3
330
1F
100
AcDbEntity
  8
0
  6
CONTINUOUS
 62
     7
100
AcDbCircle
 10
35.7806409476
 20
7.7932002273
 30
0.0
 40
0.236220472440948
100
AcDbArc
 50
180.0
 51
260.0
  0
LINE
  5
1D4
330
1F
100
AcDbEntity
  8
0
  6
CONTINUOUS
 62
     7
100
AcDbLine
 10
35.7396216836
 20
7.5605682329
 30
0.0
 11
36.1366214708
 21
7.4905668016
 31
0.0
  0
LINE
  5
1D5
330
1F
100
AcDbEntity
  8
0
  6
CONTINUOUS
 62
     7
100
AcDbLine
 10
36.3318219892
 20
5.9352217291
 30
0.0
 11
34.7570179948
 21
5.6575415235
 31
0.0
  0
LINE
  5
1D6
330
1F
100
AcDbEntity
  8
0
  6
CONTINUOUS
 62
     7
100
AcDbLine
 10
34.7570179948
 20
5.6575415235
 30
0.0
 11
34.7570179948
 21
15.6902504782
 31
0.0
  0
ARC
  5
1D7
330
1F
100
AcDbEntity
  8
0
  6
CONTINUOUS
 62
     7
100
AcDbCircle
 10
36.0956015775
 20
7.2579350624
 30
0.0
 40
0.2362204724409458
100
AcDbArc
 50
0.0
 51
80.0
  0
LINE
  5
1D8
330
1F
100
AcDbEntity
  8
0
  6
CONTINUOUS
 62
     7
100
AcDbLine
 10
36.3318219892
 20
14.0898563794
 30
0.0
 11
36.3318219892
 21
15.4125702726
 31
0.0
  0
LINE
  5
1D9
330
1F
100
AcDbEntity
  8
0
  6
CONTINUOUS
 62
     7
100
AcDbLine
 10
36.3318219892
 20
5.9352217291
 30
0.0
 11
36.3318219892
 21
7.2579350357
 31
0.0
  0
ARC
  5
1DA
330
1F
100
AcDbEntity
  8
0
  6
CONTINUOUS
 62
     7
100
AcDbCircle
 10
36.0956015775
 20
14.0898564029
 30
0.0
 40
0.2362204724409449
100
AcDbArc
 50
280.0
 51
0.0
  0
LINE
  5
1DB
330
1F
100
AcDbEntity
  8
0
  6
CONTINUOUS
 62
     7
100
AcDbLine
 10
34.7570179948
 20
15.6902504782
 30
0.0
 11
36.3318219892
 21
15.4125702726
 31
0.0
  0
LINE
  5
1DC
330
1F
100
AcDbEntity
  8
0
  6
CONTINUOUS
 62
     7
100
AcDbLine
 10
19.2963885973
 20
18.4163768524
 30
0.0
 11
19.2963885973
 21
2.9314151493
 31
0.0
  0
LINE
  5
1DD
330
1F
100
AcDbEntity
  8
0
  6
CONTINUOUS
 62
     7
100
AcDbLine
 10
19.2963885973
 20
18.4163768524
 30
0.0
 11
34.2436319254
 21
15.7807744458
 31
0.0
  0
LINE
  5
1DE
330
1F
100
AcDbEntity
  8
0
  6
CONTINUOUS
 62
     7
100
AcDbLine
 10
34.2436319254
 20
15.7807744458
 30
0.0
 11
34.2436319254
 21
5.5670175559
 31
0.0
  0
LINE
  5
1DF
330
1F
100
AcDbEntity
  8
0
  6
CONTINUOUS
 62
     7
100
AcDbLine
 10
34.2436319254
 20
5.5670175559
 30
0.0
 11
19.2963885973
 21
2.9314151493
 31
0.0
  0
ARC
  5
1E0
330
1F
100
AcDbEntity
  8
0
  6
CONTINUOUS
 62
     7
100
AcDbCircle
 10
34.84462721
 20
5.1984570442
 30
0.0
 40
0.0393700787401596
100
AcDbArc
 50
280.0000472348
 51
352.3995430525
  0
LINE
  5
1E1
330
1F
100
AcDbEntity
  8
0
  6
CONTINUOUS
 62
     7
100
AcDbLine
 10
34.8514631971
 20
5.1596849282
 30
0.0
 11
34.6946842082
 21
5.1320403408
 31
0.0
  0
ARC
  5
1E2
330
1F
100
AcDbEntity
  8
0
  6
CONTINUOUS
 62
     7
100
AcDbCircle
 10
34.6878475166
 20
5.170812421
 30
0.0
 40
0.0393700787401603
100
AcDbArc
 50
207.6004766242
 51
280.0000472348
  0
ARC
  5
1E3
330
1F
100
AcDbEntity
  8
0
  6
CONTINUOUS
 62
     7
100
AcDbCircle
 10
21.4032959744
 20
2.8283876908
 30
0.0
 40
0.0393700787401579
100
AcDbArc
 50
280.0000472348
 51
352.3995430525
  0
LINE
  5
1E4
330
1F
100
AcDbEntity
  8
0
  6
CONTINUOUS
 62
     7
100
AcDbLine
 10
21.4101323925
 20
2.7896156407
 30
0.0
 11
21.2533534036
 21
2.7619710534
 31
0.0
  0
ARC
  5
1E5
330
1F
100
AcDbEntity
  8
0
  6
CONTINUOUS
 62
     7
100
AcDbCircle
 10
21.2465162809
 20
2.8007430675
 30
0.0
 40
0.0393700787401585
100
AcDbArc
 50
207.6004766242
 51
280.0000472348
  0
ARC
  5
1E6
330
1F
100
AcDbEntity
  8
0
  6
CONTINUOUS
 62
     7
100
AcDbCircle
 10
21.2465163221
 20
18.5470482573
 30
0.0
 40
0.0393700787401591
100
AcDbArc
 50
80.0000472348
 51
152.3995430525
  0
LINE
  5
1E7
330
1F
100
AcDbEntity
  8
0
  6
CONTINUOUS
 62
     7
100
AcDbLine
 10
21.2533534036
 20
18.585820655
 30
0.0
 11
21.4101323925
 21
18.5581760676
 31
0.0
  0
ARC
  5
1E8
330
1F
100
AcDbEntity
  8
0
  6
CONTINUOUS
 62
     7
100
AcDbCircle
 10
21.4032960611
 20
18.5194038925
 30
0.0
 40
0.0393700787401588
100
AcDbArc
 50
7.6004766242
 51
80.0000472348
  0
ARC
  5
1E9
330
1F
100
AcDbEntity
  8
0
  6
CONTINUOUS
 62
     7
100
AcDbCircle
 10
34.6878475577
 20
16.1769789038
 30
0.0
 40
0.0393700787401586
100
AcDbArc
 50
80.0000472348
 51
152.3995430525
  0
LINE
  5
1EA
330
1F
100
AcDbEntity
  8
0
  6
CONTINUOUS
 62
     7
100
AcDbLine
 10
34.6946842082
 20
16.2157510742
 30
0.0
 11
34.8514631971
 21
16.1881064869
 31
0.0
  0
ARC
  5
1EB
330
1F
100
AcDbEntity
  8
0
  6
CONTINUOUS
 62
     7
100
AcDbCircle
 10
34.8446272968
 20
16.1493345391
 30
0.0
 40
0.0393700787401588
100
AcDbArc
 50
7.6004766242
 51
80.0000472348
  0
LINE
  5
1EC
330
1F
100
AcDbEntity
  8
0
  6
CONTINUOUS
 62
     7
100
AcDbLine
 10
19.2963885973
 20
18.4163768524
 30
0.0
 11
19.2963885973
 21
18.9512745665
 31
0.0
  0
LINE
  5
1ED
330
1F
100
AcDbEntity
  8
0
  6
CONTINUOUS
 62
     7
100
AcDbLine
 10
19.2963885973
 20
2.3965171418
 30
0.0
 11
19.2963885973
 21
2.9314151493
 31
0.0
  0
ARC
  5
1EE
330
1F
100
AcDbEntity
  8
0
  6
CONTINUOUS
 62
     7
100
AcDbCircle
 10
34.4725777408
 20
5.0582698217
 30
0.0
 40
0.2035433070866118
100
AcDbArc
 50
27.6004766242
 51
186.0551907338
  0
ARC
  5
1EF
330
1F
100
AcDbEntity
  8
0
  6
CONTINUOUS
 62
     7
100
AcDbCircle
 10
34.4725777433
 20
16.2895214292
 30
0.0
 40
0.2035433070866142
100
AcDbArc
 50
173.9447490948
 51
332.3995430525
  0
ARC
  5
1F0
330
1F
100
AcDbEntity
  8
0
  6
CONTINUOUS
 62
     7
100
AcDbCircle
 10
35.0854065525
 20
16.1814633896
 30
0.0
 40
0.203543307086616
100
AcDbArc
 50
187.6004766242
 51
346.055191437
  0
ARC
  5
1F1
330
1F
100
AcDbEntity
  8
0
  6
CONTINUOUS
 62
     7
100
AcDbCircle
 10
35.0854064768
 20
5.1663282764
 30
0.0
 40
0.2035433070866182
100
AcDbArc
 50
13.9447490948
 51
172.3995430525
  0
LINE
  5
1F2
330
1F
100
AcDbEntity
  8
0
  6
CONTINUOUS
 62
     7
100
AcDbLine
 10
36.3318219892
 20
15.9474679868
 30
0.0
 11
36.3318219892
 21
15.4125702726
 31
0.0
  0
LINE
  5
1F3
330
1F
100
AcDbEntity
  8
0
  6
CONTINUOUS
 62
     7
100
AcDbLine
 10
36.3318219892
 20
5.9352217291
 30
0.0
 11
36.3318219892
 21
5.4003234283
 31
0.0
  0
ARC
  5
1F4
330
1F
100
AcDbEntity
  8
0
  6
CONTINUOUS
 62
     7
100
AcDbCircle
 10
21.6440752411
 20
2.7962589229
 30
0.0
 40
0.2035433070866164
100
AcDbArc
 50
13.9447490948
 51
172.3995430525
  0
ARC
  5
1F5
330
1F
100
AcDbEntity
  8
0
  6
CONTINUOUS
 62
     7
100
AcDbCircle
 10
21.6440753168
 20
18.5515327431
 30
0.0
 40
0.2035433070866135
100
AcDbArc
 50
187.6004766242
 51
346.055191437
  0
ARC
  5
1F6
330
1F
100
AcDbEntity
  8
0
  6
CONTINUOUS
 62
     7
100
AcDbCircle
 10
21.0312465077
 20
18.6595907827
 30
0.0
 40
0.2035433070866155
100
AcDbArc
 50
173.9447490948
 51
332.3995430525
  0
ARC
  5
1F7
330
1F
100
AcDbEntity
  8
0
  6
CONTINUOUS
 62
     7
100
AcDbCircle
 10
21.0312465052
 20
2.6882004682
 30
0.0
 40
0.2035433070866147
100
AcDbArc
 50
27.6004766242
 51
186.0551907338
  0
LINE
  5
1F8
330
1F
100
AcDbEntity
  8
0
  6
CONTINUOUS
 62
     7
100
AcDbLine
 10
51.5152862685
 20
21.1442796327
 30
0.0
 11
51.5152862685
 21
19.6333464738
 31
0.0
  0
LINE
  5
1F9
330
1F
100
AcDbEntity
  8
0
  6
CONTINUOUS
 62
     7
100
AcDbLine
 10
51.5152862685
 20
21.1442796327
 30
0.0
 11
64.2200116091
 21
21.1442796327
 31
0.0
  0
LINE
  5
1FA
330
1F
100
AcDbEntity
  8
0
  6
CONTINUOUS
 62
     7
100
AcDbLine
 10
51.5152862685
 20
19.6333464738
 30
0.0
 11
64.2200116091
 21
19.6333464738
 31
0.0
  0
LINE
  5
1FB
330
1F
100
AcDbEntity
  8
0
  6
CONTINUOUS
 62
     7
100
AcDbLine
 10
64.2200116091
 20
19.6333464738
 30
0.0
 11
64.2200116091
 21
21.1442796327
 31
0.0
  0
LINE
  5
1FC
330
1F
100
AcDbEntity
  8
0
  6
CONTINUOUS
 62
     7
100
AcDbLine
 10
64.2200116091
 20
36.8434156083
 30
0.0
 11
51.5152862685
 21
36.8434156083
 31
0.0
  0
LINE
  5
1FD
330
1F
100
AcDbEntity
  8
0
  6
CONTINUOUS
 62
     7
100
AcDbLine
 10
64.2200116091
 20
21.6586864903
 30
0.0
 11
51.5152862685
 21
21.6586864903
 31
0.0
  0
LINE
  5
1FE
330
1F
100
AcDbEntity
  8
0
  6
CONTINUOUS
 62
     7
100
AcDbLine
 10
51.5152862685
 20
36.8434156083
 30
0.0
 11
51.5152862685
 21
21.6586864903
 31
0.0
  0
LINE
  5
1FF
330
1F
100
AcDbEntity
  8
0
  6
CONTINUOUS
 62
     7
100
AcDbLine
 10
64.2200116091
 20
21.6586864903
 30
0.0
 11
64.2200116091
 21
36.8434156083
 31
0.0
  0
LINE
  5
200
330
1F
100
AcDbEntity
  8
0
  6
CONTINUOUS
 62
     7
100
AcDbLine
 10
51.5152862685
 20
21.1442796327
 30
0.0
 11
51.5152862685
 21
21.6586864903
 31
0.0
  0
LINE
  5
201
330
1F
100
AcDbEntity
  8
0
  6
CONTINUOUS
 62
     7
100
AcDbLine
 10
64.2200116091
 20
21.6586864903
 30
0.0
 11
64.2200116091
 21
21.1442796327
 31
0.0
  0
LINE
  5
202
330
1F
100
AcDbEntity
  8
0
  6
CONTINUOUS
 62
     7
100
AcDbLine
 10
51.5152862685
 20
1.1839079433
 30
0.0
 11
64.2200116091
 21
1.1839079433
 31
0.0
  0
LINE
  5
203
330
1F
100
AcDbEntity
  8
0
  6
CONTINUOUS
 62
     7
100
AcDbLine
 10
51.5152862685
 20
2.6948416156
 30
0.0
 11
51.5152862685
 21
1.1839079433
 31
0.0
  0
LINE
  5
204
330
1F
100
AcDbEntity
  8
0
  6
CONTINUOUS
 62
     7
100
AcDbLine
 10
64.2200116091
 20
2.6948416156
 30
0.0
 11
51.5152862685
 21
2.6948416156
 31
0.0
  0
LINE
  5
205
330
1F
100
AcDbEntity
  8
0
  6
CONTINUOUS
 62
     7
100
AcDbLine
 10
64.2200116091
 20
1.1839079433
 30
0.0
 11
64.2200116091
 21
2.6948416156
 31
0.0
  0
LINE
  5
206
330
1F
100
AcDbEntity
  8
0
  6
CONTINUOUS
 62
     7
100
AcDbLine
 10
64.2200116091
 20
18.3939770045
 30
0.0
 11
51.5152862685
 21
18.3939770045
 31
0.0
  0
LINE
  5
207
330
1F
100
AcDbEntity
  8
0
  6
CONTINUOUS
 62
     7
100
AcDbLine
 10
51.5152862685
 20
3.2092475931
 30
0.0
 11
64.2200116091
 21
3.2092475931
 31
0.0
  0
LINE
  5
208
330
1F
100
AcDbEntity
  8
0
  6
CONTINUOUS
 62
     7
100
AcDbLine
 10
51.5152862685
 20
18.3939770045
 30
0.0
 11
51.5152862685
 21
3.2092475931
 31
0.0
  0
LINE
  5
209
330
1F
100
AcDbEntity
  8
0
  6
CONTINUOUS
 62
     7
100
AcDbLine
 10
64.2200116091
 20
3.2092475931
 30
0.0
 11
64.2200116091
 21
18.3939770045
 31
0.0
  0
LINE
  5
20A
330
1F
100
AcDbEntity
  8
0
  6
CONTINUOUS
 62
     7
100
AcDbLine
 10
51.5152862685
 20
2.6948416156
 30
0.0
 11
51.5152862685
 21
3.2092475931
 31
0.0
  0
LINE
  5
20B
330
1F
100
AcDbEntity
  8
0
  6
CONTINUOUS
 62
     7
100
AcDbLine
 10
64.2200116091
 20
3.2092475931
 30
0.0
 11
64.2200116091
 21
2.6948416156
 31
0.0
  0
LINE
  5
20C
330
1F
100
AcDbEntity
  8
0
  6
CONTINUOUS
 62
     7
100
AcDbLine
 10
37.5711926318
 20
1.1839079433
 30
0.0
 11
50.2759179724
 21
1.1839079433
 31
0.0
  0
LINE
  5
20D
330
1F
100
AcDbEntity
  8
0
  6
CONTINUOUS
 62
     7
100
AcDbLine
 10
37.5711926318
 20
11.9201288043
 30
0.0
 11
37.5711926318
 21
1.1839079433
 31
0.0
  0
LINE
  5
20E
330
1F
100
AcDbEntity
  8
0
  6
CONTINUOUS
 62
     7
100
AcDbLine
 10
50.2759179724
 20
11.9201288043
 30
0.0
 11
37.5711926318
 21
11.9201288043
 31
0.0
  0
LINE
  5
20F
330
1F
100
AcDbEntity
  8
0
  6
CONTINUOUS
 62
     7
100
AcDbLine
 10
50.2759179724
 20
1.1839079433
 30
0.0
 11
50.2759179724
 21
11.9201288043
 31
0.0
  0
LINE
  5
210
330
1F
100
AcDbEntity
  8
POCKETS
100
AcDbLine
 10
64.6137118138
 20
3.2092477191
 30
0.0
 11
51.1215858295
 21
3.2092477191
 31
0.0
  0
LINE
  5
211
330
1F
100
AcDbEntity
  8
POCKETS
100
AcDbLine
 10
51.1215858295
 20
3.2092477191
 30
0.0
 11
51.1215858295
 21
2.6948414997
 31
0.0
  0
LINE
  5
212
330
1F
100
AcDbEntity
  8
POCKETS
100
AcDbLine
 10
51.1215858295
 20
2.6948414997
 30
0.0
 11
64.6137118138
 21
2.6948414997
 31
0.0
  0
LINE
  5
213
330
1F
100
AcDbEntity
  8
PROFILES_OUTSIDE
100
AcDbLine
 10
18.0570189004
 20
14.0898564029
 30
0.0
 11
18.0570189004
 21
17.0412501908
 31
0.0
  0
LINE
  5
214
330
1F
100
AcDbEntity
  8
PROFILES_OUTSIDE
100
AcDbLine
 10
18.0570189004
 20
17.0412501908
 30
0.0
 11
1.0215858295
 21
20.0450566692
 31
0.0
  0
LINE
  5
215
330
1F
100
AcDbEntity
  8
PROFILES_OUTSIDE
100
AcDbLine
 10
1.0215858295
 20
20.0450566692
 30
0.0
 11
1.0215858295
 21
1.3027347961
 31
0.0
  0
LINE
  5
216
330
1F
100
AcDbEntity
  8
PROFILES_OUTSIDE
100
AcDbLine
 10
1.0215858295
 20
1.3027347961
 30
0.0
 11
18.0570189004
 21
4.3065412745
 31
0.0
  0
LINE
  5
217
330
1F
100
AcDbEntity
  8
POCKETS
100
AcDbLine
 10
64.6137118138
 20
2.6948414997
 30
0.0
 11
64.6137118138
 21
3.2092477191
 31
0.0
  0
LINE
  5
218
330
1F
100
AcDbEntity
  8
PROFILES_OUTSIDE
100
AcDbLine
 10
18.0570189004
 20
4.3065412745
 30
0.0
 11
18.0570189004
 21
7.2579350624
 31
0.0
  0
LINE
  5
219
330
1F
100
AcDbEntity
  8
PROFILES_OUTSIDE
100
AcDbLine
 10
17.8618176825
 20
7.4905668151
 30
0.0
 11
17.4648185435
 21
7.5605684746
 31
0.0
  0
LINE
  5
21A
330
1F
100
AcDbEntity
  8
PROFILES_OUTSIDE
100
AcDbLine
 10
17.2696173256
 20
7.7932002273
 30
0.0
 11
17.2696173256
 21
13.554591238
 31
0.0
  0
LINE
  5
21B
330
1F
100
AcDbEntity
  8
PROFILES_OUTSIDE
100
AcDbLine
 10
17.4648185435
 20
13.7872229907
 30
0.0
 11
17.8618176825
 21
13.8572246502
 31
0.0
  0
LINE
  5
21C
330
1F
100
AcDbEntity
  8
PROFILES_INSIDE
100
AcDbLine
 10
17.0065903116
 20
16.2507113662
 30
0.0
 11
17.0483987473
 21
16.4878187873
 31
0.0
  0
LINE
  5
21D
330
1F
100
AcDbEntity
  8
PROFILES_INSIDE
100
AcDbLine
 10
16.4198809186
 20
16.2157508682
 30
0.0
 11
16.5766606576
 21
16.1881065035
 31
0.0
  0
LINE
  5
21E
330
1F
100
AcDbEntity
  8
PROFILES_INSIDE
100
AcDbLine
 10
16.0790997778
 20
16.6587326489
 30
0.0
 11
16.0372912907
 21
16.4216246351
 31
0.0
  0
LINE
  5
21F
330
1F
100
AcDbEntity
  8
PROFILES_INSIDE
100
AcDbLine
 10
16.6658091709
 20
16.693692846
 30
0.0
 11
16.5090294232
 21
16.7213371617
 31
0.0
  0
LINE
  5
220
330
1F
100
AcDbEntity
  8
PROFILES_OUTSIDE
100
AcDbLine
 10
50.2759165382
 20
1.1839079635
 30
0.0
 11
50.2759165382
 21
11.9201284359
 31
0.0
  0
LINE
  5
221
330
1F
100
AcDbEntity
  8
PROFILES_OUTSIDE
100
AcDbLine
 10
50.2759165382
 20
11.9201284359
 30
0.0
 11
37.5711921287
 21
11.9201284359
 31
0.0
  0
LINE
  5
222
330
1F
100
AcDbEntity
  8
PROFILES_OUTSIDE
100
AcDbLine
 10
37.5711921287
 20
11.9201284359
 30
0.0
 11
37.5711921287
 21
1.1839079635
 31
0.0
  0
LINE
  5
223
330
1F
100
AcDbEntity
  8
PROFILES_OUTSIDE
100
AcDbLine
 10
37.5711921287
 20
1.1839079635
 30
0.0
 11
50.2759165382
 21
1.1839079635
 31
0.0
  0
LINE
  5
224
330
1F
100
AcDbEntity
  8
PROFILES_OUTSIDE
100
AcDbLine
 10
64.2200110264
 20
18.3939765583
 30
0.0
 11
51.5152866169
 21
18.3939765583
 31
0.0
  0
LINE
  5
225
330
1F
100
AcDbEntity
  8
PROFILES_OUTSIDE
100
AcDbLine
 10
51.5152866169
 20
18.3939765583
 30
0.0
 11
51.5152866169
 21
1.1839079635
 31
0.0
  0
LINE
  5
226
330
1F
100
AcDbEntity
  8
PROFILES_OUTSIDE
100
AcDbLine
 10
51.5152866169
 20
1.1839079635
 30
0.0
 11
64.2200110264
 21
1.1839079635
 31
0.0
  0
LINE
  5
227
330
1F
100
AcDbEntity
  8
PROFILES_OUTSIDE
100
AcDbLine
 10
64.2200110264
 20
1.1839079635
 30
0.0
 11
64.2200110264
 21
18.3939765583
 31
0.0
  0
LINE
  5
228
330
1F
100
AcDbEntity
  8
PROFILES_OUTSIDE
100
AcDbLine
 10
51.5152866169
 20
36.8434152318
 30
0.0
 11
51.5152866169
 21
19.633346637
 31
0.0
  0
LINE
  5
229
330
1F
100
AcDbEntity
  8
PROFILES_OUTSIDE
100
AcDbLine
 10
51.5152866169
 20
19.633346637
 30
0.0
 11
64.2200110264
 21
19.633346637
 31
0.0
  0
LINE
  5
22A
330
1F
100
AcDbEntity
  8
BOX_STOCK
100
AcDbLine
 10
0.0082000027
 20
0.1705221367
 30
0.0
 11
96.0711921287
 21
0.1705221367
 31
0.0
  0
LINE
  5
22B
330
1F
100
AcDbEntity
  8
BOX_STOCK
100
AcDbLine
 10
96.0711921287
 20
0.1705221367
 30
0.0
 11
96.0711921287
 21
48.2020181997
 31
0.0
  0
LINE
  5
22C
330
1F
100
AcDbEntity
  8
BOX_STOCK
100
AcDbLine
 10
96.0711921287
 20
48.2020181997
 30
0.0
 11
0.0082000027
 21
48.2020181997
 31
0.0
  0
LINE
  5
22D
330
1F
100
AcDbEntity
  8
BOX_STOCK
100
AcDbLine
 10
0.0082000027
 20
48.2020181997
 30
0.0
 11
0.0082000027
 21
0.1705221367
 31
0.0
  0
LINE
  5
22E
330
1F
100
AcDbEntity
  8
POCKETS
100
AcDbLine
 10
64.6137118138
 20
21.6586863926
 30
0.0
 11
51.1215858295
 21
21.6586863926
 31
0.0
  0
LINE
  5
22F
330
1F
100
AcDbEntity
  8
PROFILES_OUTSIDE
100
AcDbLine
 10
64.2200110264
 20
19.633346637
 30
0.0
 11
64.2200110264
 21
36.8434152318
 31
0.0
  0
LINE
  5
230
330
1F
100
AcDbEntity
  8
POCKETS
100
AcDbLine
 10
51.1215858295
 20
21.6586863926
 30
0.0
 11
51.1215858295
 21
21.1442801733
 31
0.0
  0
LINE
  5
231
330
1F
100
AcDbEntity
  8
POCKETS
100
AcDbLine
 10
51.1215858295
 20
21.1442801733
 30
0.0
 11
64.6137118138
 21
21.1442801733
 31
0.0
  0
LINE
  5
232
330
1F
100
AcDbEntity
  8
POCKETS
100
AcDbLine
 10
64.6137118138
 20
21.1442801733
 30
0.0
 11
64.6137118138
 21
21.6586863926
 31
0.0
  0
LINE
  5
233
330
1F
100
AcDbEntity
  8
PROFILES_OUTSIDE
100
AcDbLine
 10
64.2200110264
 20
36.8434152318
 30
0.0
 11
51.5152866169
 21
36.8434152318
 31
0.0
  0
LINE
  5
234
330
1F
100
AcDbEntity
  8
PROFILES_INSIDE
100
AcDbLine
 10
3.5596526508
 20
18.6217692837
 30
0.0
 11
3.6014610864
 21
18.8588767048
 31
0.0
  0
LINE
  5
235
330
1F
100
AcDbEntity
  8
PROFILES_INSIDE
100
AcDbLine
 10
3.21887151
 20
19.0647507635
 30
0.0
 11
3.0620917678
 21
19.0923951104
 31
0.0
  0
LINE
  5
236
330
1F
100
AcDbEntity
  8
PROFILES_INSIDE
100
AcDbLine
 10
2.6321621125
 20
19.0297905672
 30
0.0
 11
2.5903536298
 21
18.7926825526
 31
0.0
  0
LINE
  5
237
330
1F
100
AcDbEntity
  8
PROFILES_INSIDE
100
AcDbLine
 10
2.9729432577
 20
18.5868087857
 30
0.0
 11
3.1297229967
 21
18.559164421
 31
0.0
  0
LINE
  5
238
330
1F
100
AcDbEntity
  8
PROFILES_INSIDE
100
AcDbLine
 10
17.0483987473
 20
4.859972678
 30
0.0
 11
17.0065903116
 21
5.0970800991
 31
0.0
  0
LINE
  5
239
330
1F
100
AcDbEntity
  8
PROFILES_INSIDE
100
AcDbLine
 10
16.5766606348
 20
5.1596850911
 30
0.0
 11
16.4198809422
 21
5.1320404634
 31
0.0
  0
LINE
  5
23A
330
1F
100
AcDbEntity
  8
PROFILES_INSIDE
100
AcDbLine
 10
16.0372912303
 20
4.9261668196
 30
0.0
 11
16.0790998293
 21
4.6890588255
 31
0.0
  0
LINE
  5
23B
330
1F
100
AcDbEntity
  8
PROFILES_INSIDE
100
AcDbLine
 10
16.5090294546
 20
4.6264541253
 30
0.0
 11
16.6658091481
 21
4.6540987486
 31
0.0
  0
LINE
  5
23C
330
1F
100
AcDbEntity
  8
PROFILES_INSIDE
100
AcDbLine
 10
2.5903535784
 20
2.5551089037
 30
0.0
 11
2.6321621684
 21
2.318000908
 31
0.0
  0
LINE
  5
23D
330
1F
100
AcDbEntity
  8
PROFILES_INSIDE
100
AcDbLine
 10
3.0620917938
 20
2.2553962078
 30
0.0
 11
3.2188714872
 21
2.2830408311
 31
0.0
  0
LINE
  5
23E
330
1F
100
AcDbEntity
  8
PROFILES_INSIDE
100
AcDbLine
 10
3.6014610864
 20
2.4889147605
 30
0.0
 11
3.5596526508
 21
2.7260221816
 31
0.0
  0
LINE
  5
23F
330
1F
100
AcDbEntity
  8
PROFILES_INSIDE
100
AcDbLine
 10
3.129722974
 20
2.7886271736
 30
0.0
 11
2.9729432805
 21
2.7609825503
 31
0.0
  0
LINE
  5
240
330
1F
100
AcDbEntity
  8
PROFILES_OUTSIDE
100
AcDbLine
 10
65.9144992153
 20
16.5608059978
 30
0.0
 11
65.4987511838
 21
16.5608059978
 31
0.0
  0
LINE
  5
241
330
1F
100
AcDbEntity
  8
PROFILES_OUTSIDE
100
AcDbLine
 10
65.9278884924
 20
16.3515985438
 30
0.0
 11
65.9144992153
 21
16.5608059978
 31
0.0
  0
LINE
  5
242
330
1F
100
AcDbEntity
  8
PROFILES_OUTSIDE
100
AcDbLine
 10
66.307322901
 20
16.3147430056
 30
0.0
 11
65.9671781881
 21
16.3147430056
 31
0.0
  0
LINE
  5
243
330
1F
100
AcDbEntity
  8
PROFILES_OUTSIDE
100
AcDbLine
 10
66.4436330736
 20
16.80694773
 30
0.0
 11
66.4436330736
 21
16.7272698418
 31
0.0
  0
LINE
  5
244
330
1F
100
AcDbEntity
  8
PROFILES_OUTSIDE
100
AcDbLine
 10
71.0893023649
 20
16.80694773
 30
0.0
 11
66.4436330736
 21
16.80694773
 31
0.0
  0
LINE
  5
245
330
1F
100
AcDbEntity
  8
PROFILES_OUTSIDE
100
AcDbLine
 10
71.5617433098
 20
11.9142284378
 30
0.0
 11
71.5617433098
 21
16.3345067852
 31
0.0
  0
LINE
  5
246
330
1F
100
AcDbEntity
  8
PROFILES_OUTSIDE
100
AcDbLine
 10
73.057806302
 20
11.4417874929
 30
0.0
 11
72.0341842547
 21
11.4417874929
 31
0.0
  0
LINE
  5
247
330
1F
100
AcDbEntity
  8
PROFILES_OUTSIDE
100
AcDbLine
 10
73.5302472468
 20
16.3345067852
 30
0.0
 11
73.5302472468
 21
11.9142284378
 31
0.0
  0
LINE
  5
248
330
1F
100
AcDbEntity
  8
PROFILES_INSIDE
100
AcDbLine
 10
35.2813934612
 20
16.2507113662
 30
0.0
 11
35.3232018969
 21
16.4878187873
 31
0.0
  0
LINE
  5
249
330
1F
100
AcDbEntity
  8
PROFILES_INSIDE
100
AcDbLine
 10
34.6946840682
 20
16.2157508682
 30
0.0
 11
34.8514638072
 21
16.1881065035
 31
0.0
  0
LINE
  5
24A
330
1F
100
AcDbEntity
  8
PROFILES_INSIDE
100
AcDbLine
 10
34.3539029274
 20
16.6587326489
 30
0.0
 11
34.3120944403
 21
16.4216246351
 31
0.0
  0
LINE
  5
24B
330
1F
100
AcDbEntity
  8
PROFILES_INSIDE
100
AcDbLine
 10
34.9406123205
 20
16.693692846
 30
0.0
 11
34.7838325728
 21
16.7213371617
 31
0.0
  0
LINE
  5
24C
330
1F
100
AcDbEntity
  8
PROFILES_INSIDE
100
AcDbLine
 10
21.8400622256
 20
18.6207807197
 30
0.0
 11
21.8818706613
 21
18.8578881408
 31
0.0
  0
LINE
  5
24D
330
1F
100
AcDbEntity
  8
PROFILES_INSIDE
100
AcDbLine
 10
21.4992810848
 20
19.0637621994
 30
0.0
 11
21.3425013427
 21
19.0914065464
 31
0.0
  0
LINE
  5
24E
330
1F
100
AcDbEntity
  8
PROFILES_INSIDE
100
AcDbLine
 10
20.9125716873
 20
19.0288020032
 30
0.0
 11
20.8707632047
 21
18.7916939885
 31
0.0
  0
LINE
  5
24F
330
1F
100
AcDbEntity
  8
PROFILES_INSIDE
100
AcDbLine
 10
21.2533528326
 20
18.5858202217
 30
0.0
 11
21.4101325716
 21
18.558175857
 31
0.0
  0
LINE
  5
250
330
1F
100
AcDbEntity
  8
PROFILES_INSIDE
100
AcDbLine
 10
35.3232018969
 20
4.859972678
 30
0.0
 11
35.2813934612
 21
5.0970800991
 31
0.0
  0
LINE
  5
251
330
1F
100
AcDbEntity
  8
PROFILES_INSIDE
100
AcDbLine
 10
34.8514637844
 20
5.1596850911
 30
0.0
 11
34.6946840918
 21
5.1320404634
 31
0.0
  0
LINE
  5
252
330
1F
100
AcDbEntity
  8
PROFILES_INSIDE
100
AcDbLine
 10
34.3120943799
 20
4.9261668196
 30
0.0
 11
34.3539029789
 21
4.6890588255
 31
0.0
  0
LINE
  5
253
330
1F
100
AcDbEntity
  8
PROFILES_INSIDE
100
AcDbLine
 10
34.7838326042
 20
4.6264541253
 30
0.0
 11
34.9406122977
 21
4.6540987486
 31
0.0
  0
LINE
  5
254
330
1F
100
AcDbEntity
  8
PROFILES_OUTSIDE
100
AcDbLine
 10
78.6483574831
 20
16.80694773
 30
0.0
 11
74.0026881917
 21
16.80694773
 31
0.0
  0
LINE
  5
255
330
1F
100
AcDbEntity
  8
PROFILES_OUTSIDE
100
AcDbLine
 10
78.6483574831
 20
16.7272698418
 30
0.0
 11
78.6483574831
 21
16.80694773
 31
0.0
  0
LINE
  5
256
330
1F
100
AcDbEntity
  8
PROFILES_OUTSIDE
100
AcDbLine
 10
79.1248123686
 20
16.3147430056
 30
0.0
 11
78.7846676556
 21
16.3147430056
 31
0.0
  0
LINE
  5
257
330
1F
100
AcDbEntity
  8
PROFILES_OUTSIDE
100
AcDbLine
 10
79.1774913413
 20
16.5608059978
 30
0.0
 11
79.1641020643
 21
16.3515985438
 31
0.0
  0
LINE
  5
258
330
1F
100
AcDbEntity
  8
PROFILES_OUTSIDE
100
AcDbLine
 10
79.5932393728
 20
16.5608059978
 30
0.0
 11
79.1774913413
 21
16.5608059978
 31
0.0
  0
LINE
  5
259
330
1F
100
AcDbEntity
  8
PROFILES_INSIDE
100
AcDbLine
 10
20.8707631532
 20
2.5560974677
 30
0.0
 11
20.9125717432
 21
2.318989472
 31
0.0
  0
LINE
  5
25A
330
1F
100
AcDbEntity
  8
PROFILES_INSIDE
100
AcDbLine
 10
21.3425013686
 20
2.2563847719
 30
0.0
 11
21.4992810621
 21
2.2840293951
 31
0.0
  0
LINE
  5
25B
330
1F
100
AcDbEntity
  8
PROFILES_INSIDE
100
AcDbLine
 10
21.8818706613
 20
2.4899033245
 30
0.0
 11
21.8400622256
 21
2.7270107457
 31
0.0
  0
LINE
  5
25C
330
1F
100
AcDbEntity
  8
PROFILES_INSIDE
100
AcDbLine
 10
21.4101325488
 20
2.7896157376
 30
0.0
 11
21.2533528553
 21
2.7619711144
 31
0.0
  0
LINE
  5
25D
330
1F
100
AcDbEntity
  8
PROFILES_OUTSIDE
100
AcDbLine
 10
19.2963889791
 20
19.7635400726
 30
0.0
 11
19.2963889791
 21
1.5842513927
 31
0.0
  0
LINE
  5
25E
330
1F
100
AcDbEntity
  8
PROFILES_OUTSIDE
100
AcDbLine
 10
36.1366208321
 20
17.0756694322
 30
0.0
 11
19.5736287061
 21
19.9961718253
 31
0.0
  0
LINE
  5
25F
330
1F
100
AcDbEntity
  8
PROFILES_OUTSIDE
100
AcDbLine
 10
36.33182205
 20
14.0898564029
 30
0.0
 11
36.33182205
 21
16.8430376795
 31
0.0
  0
LINE
  5
260
330
1F
100
AcDbEntity
  8
PROFILES_OUTSIDE
100
AcDbLine
 10
35.7396216931
 20
13.7872229907
 30
0.0
 11
36.1366208321
 21
13.8572246502
 31
0.0
  0
LINE
  5
261
330
1F
100
AcDbEntity
  8
POCKETS
100
AcDbLine
 10
18.4555965297
 20
6.0055015861
 30
0.0
 11
18.0678769419
 21
5.9371361618
 31
0.0
  0
LINE
  5
262
330
1F
100
AcDbEntity
  8
PROFILES_OUTSIDE
100
AcDbLine
 10
79.6326094516
 20
16.0588374938
 30
0.0
 11
79.6326094516
 21
16.521435919
 31
0.0
  0
LINE
  5
263
330
1F
100
AcDbEntity
  8
PROFILES_OUTSIDE
100
AcDbLine
 10
74.7526881917
 20
15.8226170214
 30
0.0
 11
79.3963889791
 21
15.8226170214
 31
0.0
  0
LINE
  5
264
330
1F
100
AcDbEntity
  8
PROFILES_OUTSIDE
100
AcDbLine
 10
74.2802472468
 20
11.4417874929
 30
0.0
 11
74.2802472468
 21
15.3501760765
 31
0.0
  0
LINE
  5
265
330
1F
100
AcDbEntity
  8
PROFILES_OUTSIDE
100
AcDbLine
 10
73.5302472468
 20
7.8481063063
 30
0.0
 11
73.5302472468
 21
10.1427493872
 31
0.0
  0
LINE
  5
266
330
1F
100
AcDbEntity
  8
PROFILES_OUTSIDE
100
AcDbLine
 10
74.2802472468
 20
2.640679617
 30
0.0
 11
74.2802472468
 21
6.5490682006
 31
0.0
  0
LINE
  5
267
330
1F
100
AcDbEntity
  8
PROFILES_OUTSIDE
100
AcDbLine
 10
79.3963889791
 20
2.1682386722
 30
0.0
 11
74.7526881917
 21
2.1682386722
 31
0.0
  0
LINE
  5
268
330
1F
100
AcDbEntity
  8
PROFILES_OUTSIDE
100
AcDbLine
 10
79.6326094516
 20
1.4694197745
 30
0.0
 11
79.6326094516
 21
1.9320181997
 31
0.0
  0
LINE
  5
269
330
1F
100
AcDbEntity
  8
PROFILES_OUTSIDE
100
AcDbLine
 10
79.1774913413
 20
1.4300496958
 30
0.0
 11
79.5932393728
 21
1.4300496958
 31
0.0
  0
LINE
  5
26A
330
1F
100
AcDbEntity
  8
PROFILES_OUTSIDE
100
AcDbLine
 10
79.1641020643
 20
1.6392571497
 30
0.0
 11
79.1774913413
 21
1.4300496958
 31
0.0
  0
LINE
  5
26B
330
1F
100
AcDbEntity
  8
PROFILES_OUTSIDE
100
AcDbLine
 10
78.7846676556
 20
1.6761126879
 30
0.0
 11
79.1248123686
 21
1.6761126879
 31
0.0
  0
LINE
  5
26C
330
1F
100
AcDbEntity
  8
PROFILES_OUTSIDE
100
AcDbLine
 10
78.6483574831
 20
1.1839079635
 30
0.0
 11
78.6483574831
 21
1.2635858517
 31
0.0
  0
LINE
  5
26D
330
1F
100
AcDbEntity
  8
PROFILES_OUTSIDE
100
AcDbLine
 10
74.0026881917
 20
1.1839079635
 30
0.0
 11
78.6483574831
 21
1.1839079635
 31
0.0
  0
LINE
  5
26E
330
1F
100
AcDbEntity
  8
PROFILES_OUTSIDE
100
AcDbLine
 10
73.5302472468
 20
6.0766272557
 30
0.0
 11
73.5302472468
 21
1.6563489084
 31
0.0
  0
LINE
  5
26F
330
1F
100
AcDbEntity
  8
PROFILES_OUTSIDE
100
AcDbLine
 10
72.0341842547
 20
6.5490682006
 30
0.0
 11
73.057806302
 21
6.5490682006
 31
0.0
  0
LINE
  5
270
330
1F
100
AcDbEntity
  8
PROFILES_OUTSIDE
100
AcDbLine
 10
71.5617433098
 20
1.6563489084
 30
0.0
 11
71.5617433098
 21
6.0766272557
 31
0.0
  0
LINE
  5
271
330
1F
100
AcDbEntity
  8
PROFILES_OUTSIDE
100
AcDbLine
 10
66.4436330736
 20
1.1839079635
 30
0.0
 11
71.0893023649
 21
1.1839079635
 31
0.0
  0
LINE
  5
272
330
1F
100
AcDbEntity
  8
PROFILES_OUTSIDE
100
AcDbLine
 10
35.5444204752
 20
7.7932002273
 30
0.0
 11
35.5444204752
 21
13.554591238
 31
0.0
  0
LINE
  5
273
330
1F
100
AcDbEntity
  8
POCKETS
100
AcDbLine
 10
18.5470694674
 20
5.4867327776
 30
0.0
 11
18.4555965297
 21
6.0055015861
 31
0.0
  0
LINE
  5
274
330
1F
100
AcDbEntity
  8
PROFILES_OUTSIDE
100
AcDbLine
 10
36.1366208321
 20
7.4905668151
 30
0.0
 11
35.7396216931
 21
7.5605684746
 31
0.0
  0
LINE
  5
275
330
1F
100
AcDbEntity
  8
POCKETS
100
AcDbLine
 10
18.1593498796
 20
5.4183673533
 30
0.0
 11
18.5470694674
 21
5.4867327776
 31
0.0
  0
LINE
  5
276
330
1F
100
AcDbEntity
  8
POCKETS
100
AcDbLine
 10
1.010727788
 20
2.3946025966
 30
0.0
 11
18.1593498796
 21
5.4183673533
 31
0.0
  0
LINE
  5
277
330
1F
100
AcDbEntity
  8
POCKETS
100
AcDbLine
 10
0.6230082002
 20
2.3262371723
 30
0.0
 11
1.010727788
 21
2.3946025966
 31
0.0
  0
LINE
  5
278
330
1F
100
AcDbEntity
  8
POCKETS
100
AcDbLine
 10
0.5315352625
 20
2.8450059808
 30
0.0
 11
0.6230082002
 21
2.3262371723
 31
0.0
  0
LINE
  5
279
330
1F
100
AcDbEntity
  8
POCKETS
100
AcDbLine
 10
0.9192548503
 20
2.913371405
 30
0.0
 11
0.5315352625
 21
2.8450059808
 31
0.0
  0
LINE
  5
27A
330
1F
100
AcDbEntity
  8
POCKETS
100
AcDbLine
 10
15.968829924
 20
5.5670175387
 30
0.0
 11
0.9192548503
 21
2.913371405
 31
0.0
  0
LINE
  5
27B
330
1F
100
AcDbEntity
  8
POCKETS
100
AcDbLine
 10
15.968829924
 20
15.7807739266
 30
0.0
 11
15.968829924
 21
5.5670175387
 31
0.0
  0
LINE
  5
27C
330
1F
100
AcDbEntity
  8
POCKETS
100
AcDbLine
 10
0.9192548503
 20
18.4344200603
 30
0.0
 11
15.968829924
 21
15.7807739266
 31
0.0
  0
LINE
  5
27D
330
1F
100
AcDbEntity
  8
POCKETS
100
AcDbLine
 10
0.5315352625
 20
18.5027854845
 30
0.0
 11
0.9192548503
 21
18.4344200603
 31
0.0
  0
LINE
  5
27E
330
1F
100
AcDbEntity
  8
POCKETS
100
AcDbLine
 10
0.6230082002
 20
19.021554293
 30
0.0
 11
0.5315352625
 21
18.5027854845
 31
0.0
  0
LINE
  5
27F
330
1F
100
AcDbEntity
  8
POCKETS
100
AcDbLine
 10
1.010727788
 20
18.9531888687
 30
0.0
 11
0.6230082002
 21
19.021554293
 31
0.0
  0
LINE
  5
280
330
1F
100
AcDbEntity
  8
POCKETS
100
AcDbLine
 10
18.1593498796
 20
15.929424112
 30
0.0
 11
1.010727788
 21
18.9531888687
 31
0.0
  0
LINE
  5
281
330
1F
100
AcDbEntity
  8
POCKETS
100
AcDbLine
 10
18.5470694674
 20
15.8610586877
 30
0.0
 11
18.1593498796
 21
15.929424112
 31
0.0
  0
LINE
  5
282
330
1F
100
AcDbEntity
  8
POCKETS
100
AcDbLine
 10
18.4555965297
 20
15.3422898793
 30
0.0
 11
18.5470694674
 21
15.8610586877
 31
0.0
  0
LINE
  5
283
330
1F
100
AcDbEntity
  8
POCKETS
100
AcDbLine
 10
18.0678769419
 20
15.4106553035
 30
0.0
 11
18.4555965297
 21
15.3422898793
 31
0.0
  0
LINE
  5
284
330
1F
100
AcDbEntity
  8
POCKETS
100
AcDbLine
 10
16.4822157508
 20
15.6902501538
 30
0.0
 11
18.0678769419
 21
15.4106553035
 31
0.0
  0
LINE
  5
285
330
1F
100
AcDbEntity
  8
PROFILES_OUTSIDE
100
AcDbLine
 10
66.4436330736
 20
1.2635858517
 30
0.0
 11
66.4436330736
 21
1.1839079635
 31
0.0
  0
LINE
  5
286
330
1F
100
AcDbEntity
  8
PROFILES_OUTSIDE
100
AcDbLine
 10
65.9671781881
 20
1.6761126879
 30
0.0
 11
66.307322901
 21
1.6761126879
 31
0.0
  0
LINE
  5
287
330
1F
100
AcDbEntity
  8
PROFILES_OUTSIDE
100
AcDbLine
 10
65.9144992153
 20
1.4300496958
 30
0.0
 11
65.9278884924
 21
1.6392571497
 31
0.0
  0
LINE
  5
288
330
1F
100
AcDbEntity
  8
PROFILES_OUTSIDE
100
AcDbLine
 10
65.4987511838
 20
1.4300496958
 30
0.0
 11
65.9144992153
 21
1.4300496958
 31
0.0
  0
LINE
  5
289
330
1F
100
AcDbEntity
  8
PROFILES_OUTSIDE
100
AcDbLine
 10
65.4593811051
 20
1.9320181997
 30
0.0
 11
65.4593811051
 21
1.4694197745
 31
0.0
  0
LINE
  5
28A
330
1F
100
AcDbEntity
  8
PROFILES_OUTSIDE
100
AcDbLine
 10
70.3393023649
 20
2.1682386722
 30
0.0
 11
65.6956015775
 21
2.1682386722
 31
0.0
  0
LINE
  5
28B
330
1F
100
AcDbEntity
  8
PROFILES_OUTSIDE
100
AcDbLine
 10
70.8117433098
 20
6.5490682006
 30
0.0
 11
70.8117433098
 21
2.640679617
 31
0.0
  0
LINE
  5
28C
330
1F
100
AcDbEntity
  8
PROFILES_OUTSIDE
100
AcDbLine
 10
71.5617433098
 20
10.1427493872
 30
0.0
 11
71.5617433098
 21
7.8481063063
 31
0.0
  0
LINE
  5
28D
330
1F
100
AcDbEntity
  8
PROFILES_OUTSIDE
100
AcDbLine
 10
70.8117433098
 20
15.3501760765
 30
0.0
 11
70.8117433098
 21
11.4417874929
 31
0.0
  0
LINE
  5
28E
330
1F
100
AcDbEntity
  8
PROFILES_OUTSIDE
100
AcDbLine
 10
65.6956015775
 20
15.8226170214
 30
0.0
 11
70.3393023649
 21
15.8226170214
 31
0.0
  0
LINE
  5
28F
330
1F
100
AcDbEntity
  8
PROFILES_OUTSIDE
100
AcDbLine
 10
65.4593811051
 20
16.521435919
 30
0.0
 11
65.4593811051
 21
16.0588374938
 31
0.0
  0
LINE
  5
290
330
1F
100
AcDbEntity
  8
POCKETS
100
AcDbLine
 10
16.4822157508
 20
5.6575413115
 30
0.0
 11
16.4822157508
 21
15.6902501538
 31
0.0
  0
LINE
  5
291
330
1F
100
AcDbEntity
  8
PROFILES_OUTSIDE
100
AcDbLine
 10
79.1774913413
 20
18.2923020607
 30
0.0
 11
79.5932393728
 21
18.2923020607
 31
0.0
  0
LINE
  5
292
330
1F
100
AcDbEntity
  8
PROFILES_OUTSIDE
100
AcDbLine
 10
79.1641020643
 20
18.5015095147
 30
0.0
 11
79.1774913413
 21
18.2923020607
 31
0.0
  0
LINE
  5
293
330
1F
100
AcDbEntity
  8
PROFILES_OUTSIDE
100
AcDbLine
 10
78.7846676556
 20
18.5383650529
 30
0.0
 11
79.1248123686
 21
18.5383650529
 31
0.0
  0
LINE
  5
294
330
1F
100
AcDbEntity
  8
PROFILES_OUTSIDE
100
AcDbLine
 10
78.6483574831
 20
18.0461603285
 30
0.0
 11
78.6483574831
 21
18.1258382167
 31
0.0
  0
LINE
  5
295
330
1F
100
AcDbEntity
  8
PROFILES_OUTSIDE
100
AcDbLine
 10
74.0026881917
 20
18.0461603285
 30
0.0
 11
78.6483574831
 21
18.0461603285
 31
0.0
  0
LINE
  5
296
330
1F
100
AcDbEntity
  8
PROFILES_OUTSIDE
100
AcDbLine
 10
73.5302472468
 20
22.9388796207
 30
0.0
 11
73.5302472468
 21
18.5186012733
 31
0.0
  0
LINE
  5
297
330
1F
100
AcDbEntity
  8
PROFILES_OUTSIDE
100
AcDbLine
 10
72.0341842547
 20
23.4113205656
 30
0.0
 11
73.057806302
 21
23.4113205656
 31
0.0
  0
LINE
  5
298
330
1F
100
AcDbEntity
  8
PROFILES_OUTSIDE
100
AcDbLine
 10
71.5617433098
 20
18.5186012733
 30
0.0
 11
71.5617433098
 21
22.9388796207
 31
0.0
  0
LINE
  5
299
330
1F
100
AcDbEntity
  8
PROFILES_OUTSIDE
100
AcDbLine
 10
66.4436330736
 20
18.0461603285
 30
0.0
 11
71.0893023649
 21
18.0461603285
 31
0.0
  0
LINE
  5
29A
330
1F
100
AcDbEntity
  8
PROFILES_OUTSIDE
100
AcDbLine
 10
66.4436330736
 20
18.1258382167
 30
0.0
 11
66.4436330736
 21
18.0461603285
 31
0.0
  0
LINE
  5
29B
330
1F
100
AcDbEntity
  8
PROFILES_OUTSIDE
100
AcDbLine
 10
65.9671781881
 20
18.5383650529
 30
0.0
 11
66.307322901
 21
18.5383650529
 31
0.0
  0
LINE
  5
29C
330
1F
100
AcDbEntity
  8
PROFILES_OUTSIDE
100
AcDbLine
 10
65.9144992153
 20
18.2923020607
 30
0.0
 11
65.9278884924
 21
18.5015095147
 31
0.0
  0
LINE
  5
29D
330
1F
100
AcDbEntity
  8
PROFILES_OUTSIDE
100
AcDbLine
 10
65.4987511838
 20
18.2923020607
 30
0.0
 11
65.9144992153
 21
18.2923020607
 31
0.0
  0
LINE
  5
29E
330
1F
100
AcDbEntity
  8
PROFILES_OUTSIDE
100
AcDbLine
 10
65.4593811051
 20
18.7942705647
 30
0.0
 11
65.4593811051
 21
18.3316721395
 31
0.0
  0
LINE
  5
29F
330
1F
100
AcDbEntity
  8
PROFILES_OUTSIDE
100
AcDbLine
 10
70.3393023649
 20
19.0304910371
 30
0.0
 11
65.6956015775
 21
19.0304910371
 31
0.0
  0
LINE
  5
2A0
330
1F
100
AcDbEntity
  8
PROFILES_OUTSIDE
100
AcDbLine
 10
70.8117433098
 20
23.4113205656
 30
0.0
 11
70.8117433098
 21
19.502931982
 31
0.0
  0
LINE
  5
2A1
330
1F
100
AcDbEntity
  8
PROFILES_OUTSIDE
100
AcDbLine
 10
71.5617433098
 20
27.0050017522
 30
0.0
 11
71.5617433098
 21
24.7103586713
 31
0.0
  0
LINE
  5
2A2
330
1F
100
AcDbEntity
  8
PROFILES_OUTSIDE
100
AcDbLine
 10
70.8117433098
 20
32.2124284415
 30
0.0
 11
70.8117433098
 21
28.3040398579
 31
0.0
  0
LINE
  5
2A3
330
1F
100
AcDbEntity
  8
PROFILES_OUTSIDE
100
AcDbLine
 10
65.6956015775
 20
32.6848693863
 30
0.0
 11
70.3393023649
 21
32.6848693863
 31
0.0
  0
LINE
  5
2A4
330
1F
100
AcDbEntity
  8
PROFILES_OUTSIDE
100
AcDbLine
 10
65.4593811051
 20
33.383688284
 30
0.0
 11
65.4593811051
 21
32.9210898588
 31
0.0
  0
LINE
  5
2A5
330
1F
100
AcDbEntity
  8
PROFILES_OUTSIDE
100
AcDbLine
 10
65.9144992153
 20
33.4230583627
 30
0.0
 11
65.4987511838
 21
33.4230583627
 31
0.0
  0
LINE
  5
2A6
330
1F
100
AcDbEntity
  8
PROFILES_OUTSIDE
100
AcDbLine
 10
65.9278884924
 20
33.2138509088
 30
0.0
 11
65.9144992153
 21
33.4230583627
 31
0.0
  0
LINE
  5
2A7
330
1F
100
AcDbEntity
  8
PROFILES_OUTSIDE
100
AcDbLine
 10
66.307322901
 20
33.1769953706
 30
0.0
 11
65.9671781881
 21
33.1769953706
 31
0.0
  0
LINE
  5
2A8
330
1F
100
AcDbEntity
  8
PROFILES_OUTSIDE
100
AcDbLine
 10
66.4436330736
 20
33.669200095
 30
0.0
 11
66.4436330736
 21
33.5895222068
 31
0.0
  0
LINE
  5
2A9
330
1F
100
AcDbEntity
  8
PROFILES_OUTSIDE
100
AcDbLine
 10
71.0893023649
 20
33.669200095
 30
0.0
 11
66.4436330736
 21
33.669200095
 31
0.0
  0
LINE
  5
2AA
330
1F
100
AcDbEntity
  8
PROFILES_OUTSIDE
100
AcDbLine
 10
71.5617433098
 20
28.7764808027
 30
0.0
 11
71.5617433098
 21
33.1967591501
 31
0.0
  0
LINE
  5
2AB
330
1F
100
AcDbEntity
  8
PROFILES_OUTSIDE
100
AcDbLine
 10
73.057806302
 20
28.3040398579
 30
0.0
 11
72.0341842547
 21
28.3040398579
 31
0.0
  0
LINE
  5
2AC
330
1F
100
AcDbEntity
  8
PROFILES_OUTSIDE
100
AcDbLine
 10
73.5302472468
 20
33.1967591501
 30
0.0
 11
73.5302472468
 21
28.7764808027
 31
0.0
  0
LINE
  5
2AD
330
1F
100
AcDbEntity
  8
PROFILES_OUTSIDE
100
AcDbLine
 10
78.6483574831
 20
33.669200095
 30
0.0
 11
74.0026881917
 21
33.669200095
 31
0.0
  0
LINE
  5
2AE
330
1F
100
AcDbEntity
  8
PROFILES_OUTSIDE
100
AcDbLine
 10
78.6483574831
 20
33.5895222068
 30
0.0
 11
78.6483574831
 21
33.669200095
 31
0.0
  0
LINE
  5
2AF
330
1F
100
AcDbEntity
  8
PROFILES_OUTSIDE
100
AcDbLine
 10
79.1248123686
 20
33.1769953706
 30
0.0
 11
78.7846676556
 21
33.1769953706
 31
0.0
  0
LINE
  5
2B0
330
1F
100
AcDbEntity
  8
PROFILES_OUTSIDE
100
AcDbLine
 10
79.1774913413
 20
33.4230583627
 30
0.0
 11
79.1641020643
 21
33.2138509088
 31
0.0
  0
LINE
  5
2B1
330
1F
100
AcDbEntity
  8
PROFILES_OUTSIDE
100
AcDbLine
 10
79.5932393728
 20
33.4230583627
 30
0.0
 11
79.1774913413
 21
33.4230583627
 31
0.0
  0
LINE
  5
2B2
330
1F
100
AcDbEntity
  8
PROFILES_OUTSIDE
100
AcDbLine
 10
79.6326094516
 20
32.9210898588
 30
0.0
 11
79.6326094516
 21
33.383688284
 31
0.0
  0
LINE
  5
2B3
330
1F
100
AcDbEntity
  8
PROFILES_OUTSIDE
100
AcDbLine
 10
74.7526881917
 20
32.6848693863
 30
0.0
 11
79.3963889791
 21
32.6848693863
 31
0.0
  0
LINE
  5
2B4
330
1F
100
AcDbEntity
  8
PROFILES_OUTSIDE
100
AcDbLine
 10
74.2802472468
 20
28.3040398579
 30
0.0
 11
74.2802472468
 21
32.2124284415
 31
0.0
  0
LINE
  5
2B5
330
1F
100
AcDbEntity
  8
PROFILES_OUTSIDE
100
AcDbLine
 10
73.5302472468
 20
24.7103586713
 30
0.0
 11
73.5302472468
 21
27.0050017522
 31
0.0
  0
LINE
  5
2B6
330
1F
100
AcDbEntity
  8
PROFILES_OUTSIDE
100
AcDbLine
 10
74.2802472468
 20
19.502931982
 30
0.0
 11
74.2802472468
 21
23.4113205656
 31
0.0
  0
LINE
  5
2B7
330
1F
100
AcDbEntity
  8
PROFILES_OUTSIDE
100
AcDbLine
 10
79.3963889791
 20
19.0304910371
 30
0.0
 11
74.7526881917
 21
19.0304910371
 31
0.0
  0
LINE
  5
2B8
330
1F
100
AcDbEntity
  8
PROFILES_OUTSIDE
100
AcDbLine
 10
79.6326094516
 20
18.3316721395
 30
0.0
 11
79.6326094516
 21
18.7942705647
 31
0.0
  0
LINE
  5
2B9
330
1F
100
AcDbEntity
  8
POCKETS
100
AcDbLine
 10
18.0678769419
 20
5.9371361618
 30
0.0
 11
16.4822157508
 21
5.6575413115
 31
0.0
  0
LINE
  5
2BA
330
1F
100
AcDbEntity
  8
POCKETS
100
AcDbLine
 10
34.7570189004
 20
15.6902501538
 30
0.0
 11
36.3426800915
 21
15.4106553035
 31
0.0
  0
LINE
  5
2BB
330
1F
100
AcDbEntity
  8
POCKETS
100
AcDbLine
 10
36.3426800915
 20
15.4106553035
 30
0.0
 11
36.7303996793
 21
15.3422898793
 31
0.0
  0
LINE
  5
2BC
330
1F
100
AcDbEntity
  8
POCKETS
100
AcDbLine
 10
36.7303996793
 20
15.3422898793
 30
0.0
 11
36.821872617
 21
15.8610586877
 31
0.0
  0
LINE
  5
2BD
330
1F
100
AcDbEntity
  8
POCKETS
100
AcDbLine
 10
36.821872617
 20
15.8610586877
 30
0.0
 11
36.4341530292
 21
15.929424112
 31
0.0
  0
LINE
  5
2BE
330
1F
100
AcDbEntity
  8
POCKETS
100
AcDbLine
 10
36.4341530292
 20
15.929424112
 30
0.0
 11
19.3723550264
 21
18.9378794393
 31
0.0
  0
LINE
  5
2BF
330
1F
100
AcDbEntity
  8
POCKETS
100
AcDbLine
 10
19.3723550264
 20
18.9378794393
 30
0.0
 11
18.9846354386
 21
19.0062448636
 31
0.0
  0
LINE
  5
2C0
330
1F
100
AcDbEntity
  8
POCKETS
100
AcDbLine
 10
18.9846354386
 20
19.0062448636
 30
0.0
 11
18.8931625009
 21
18.4874760551
 31
0.0
  0
LINE
  5
2C1
330
1F
100
AcDbEntity
  8
POCKETS
100
AcDbLine
 10
18.8931625009
 20
18.4874760551
 30
0.0
 11
19.2808820887
 21
18.4191106308
 31
0.0
  0
LINE
  5
2C2
330
1F
100
AcDbEntity
  8
POCKETS
100
AcDbLine
 10
19.2808820887
 20
18.4191106308
 30
0.0
 11
34.2436330736
 21
15.7807739266
 31
0.0
  0
LINE
  5
2C3
330
1F
100
AcDbEntity
  8
POCKETS
100
AcDbLine
 10
34.2436330736
 20
15.7807739266
 30
0.0
 11
34.2436330736
 21
5.5670175387
 31
0.0
  0
LINE
  5
2C4
330
1F
100
AcDbEntity
  8
POCKETS
100
AcDbLine
 10
34.2436330736
 20
5.5670175387
 30
0.0
 11
19.2808820887
 21
2.9286808345
 31
0.0
  0
LINE
  5
2C5
330
1F
100
AcDbEntity
  8
POCKETS
100
AcDbLine
 10
19.2808820887
 20
2.9286808345
 30
0.0
 11
18.8931625009
 21
2.8603154102
 31
0.0
  0
LINE
  5
2C6
330
1F
100
AcDbEntity
  8
POCKETS
100
AcDbLine
 10
18.8931625009
 20
2.8603154102
 30
0.0
 11
18.9846354386
 21
2.3415466017
 31
0.0
  0
LINE
  5
2C7
330
1F
100
AcDbEntity
  8
POCKETS
100
AcDbLine
 10
18.9846354386
 20
2.3415466017
 30
0.0
 11
19.3723550264
 21
2.409912026
 31
0.0
  0
LINE
  5
2C8
330
1F
100
AcDbEntity
  8
POCKETS
100
AcDbLine
 10
19.3723550264
 20
2.409912026
 30
0.0
 11
36.4341530292
 21
5.4183673533
 31
0.0
  0
LINE
  5
2C9
330
1F
100
AcDbEntity
  8
POCKETS
100
AcDbLine
 10
36.4341530292
 20
5.4183673533
 30
0.0
 11
36.821872617
 21
5.4867327776
 31
0.0
  0
LINE
  5
2CA
330
1F
100
AcDbEntity
  8
POCKETS
100
AcDbLine
 10
36.821872617
 20
5.4867327776
 30
0.0
 11
36.7303996793
 21
6.0055015861
 31
0.0
  0
LINE
  5
2CB
330
1F
100
AcDbEntity
  8
POCKETS
100
AcDbLine
 10
36.7303996793
 20
6.0055015861
 30
0.0
 11
36.3426800915
 21
5.9371361618
 31
0.0
  0
LINE
  5
2CC
330
1F
100
AcDbEntity
  8
POCKETS
100
AcDbLine
 10
36.3426800915
 20
5.9371361618
 30
0.0
 11
34.7570189004
 21
5.6575413115
 31
0.0
  0
LINE
  5
2CD
330
1F
100
AcDbEntity
  8
POCKETS
100
AcDbLine
 10
34.7570189004
 20
5.6575413115
 30
0.0
 11
34.7570189004
 21
15.6902501538
 31
0.0
  0
LINE
  5
2CE
330
1F
100
AcDbEntity
  8
PROFILES_OUTSIDE
100
AcDbLine
 10
36.33182205
 20
4.5047537858
 30
0.0
 11
36.33182205
 21
7.2579350624
 31
0.0
  0
LINE
  5
2CF
330
1F
100
AcDbEntity
  8
PROFILES_OUTSIDE
100
AcDbLine
 10
19.5736287061
 20
1.3516196401
 30
0.0
 11
36.1366208321
 21
4.2721220331
 31
0.0
  0
ARC
  5
2D0
330
1F
100
AcDbEntity
  8
PROFILES_OUTSIDE
100
AcDbCircle
 10
17.8207984279
 20
7.2579350624
 30
0.0
 40
0.236220472440948
100
AcDbArc
 50
0.0
 51
80.0
  0
ARC
  5
2D1
330
1F
100
AcDbEntity
  8
PROFILES_OUTSIDE
100
AcDbCircle
 10
17.505837798
 20
7.7932002273
 30
0.0
 40
0.2362204724409445
100
AcDbArc
 50
180.0
 51
260.0
  0
ARC
  5
2D2
330
1F
100
AcDbEntity
  8
PROFILES_OUTSIDE
100
AcDbCircle
 10
17.505837798
 20
13.554591238
 30
0.0
 40
0.2362204724409449
100
AcDbArc
 50
100.0
 51
180.0
  0
ARC
  5
2D3
330
1F
100
AcDbEntity
  8
PROFILES_OUTSIDE
100
AcDbCircle
 10
17.8207984279
 20
14.0898564029
 30
0.0
 40
0.236220472440948
100
AcDbArc
 50
280.0
 51
0.0
  0
ARC
  5
2D4
330
1F
100
AcDbEntity
  8
PROFILES_INSIDE
100
AcDbCircle
 10
17.7932393728
 20
6.9180675012
 30
0.0
 40
0.2362204724409458
100
AcDbArc
 50
280.0
 51
0.0
  0
ARC
  5
2D5
330
1F
100
AcDbEntity
  8
PROFILES_OUTSIDE
100
AcDbCircle
 10
79.5932393728
 20
16.521435919
 30
0.0
 40
0.0393700787401592
100
AcDbArc
 50
0.0
 51
90.0
  0
ARC
  5
2D6
330
1F
100
AcDbEntity
  8
PROFILES_INSIDE
100
AcDbCircle
 10
16.6726456813
 20
16.7324648104
 30
0.0
 40
0.0393700787401585
100
AcDbArc
 50
260.0000472348
 51
332.3995430525
  0
ARC
  5
2D7
330
1F
100
AcDbEntity
  8
PROFILES_INSIDE
100
AcDbCircle
 10
16.8879154958
 20
16.619922285
 30
0.0
 40
0.2035433070866168
100
AcDbArc
 50
325.1121889858
 51
152.3995430525
  0
ARC
  5
2D8
330
1F
100
AcDbEntity
  8
PROFILES_INSIDE
100
AcDbCircle
 10
17.0871720285
 20
16.4809820117
 30
0.0
 40
0.0393714215238455
100
AcDbArc
 50
145.1121889858
 51
170.0
  0
ARC
  5
2D9
330
1F
100
AcDbEntity
  8
PROFILES_INSIDE
100
AcDbCircle
 10
17.0453622704
 20
16.2438748237
 30
0.0
 40
0.0393700787401563
100
AcDbArc
 50
170.0
 51
194.8879031485
  0
ARC
  5
2DA
330
1F
100
AcDbEntity
  8
PROFILES_INSIDE
100
AcDbCircle
 10
16.8106034029
 20
16.1814633896
 30
0.0
 40
0.2035433070866143
100
AcDbArc
 50
187.6004766242
 51
14.8879031485
  0
ARC
  5
2DB
330
1F
100
AcDbEntity
  8
PROFILES_INSIDE
100
AcDbCircle
 10
16.5698241472
 20
16.1493345391
 30
0.0
 40
0.0393700787401579
100
AcDbArc
 50
7.6004766242
 51
80.0000472348
  0
ARC
  5
2DC
330
1F
100
AcDbEntity
  8
PROFILES_INSIDE
100
AcDbCircle
 10
16.4130444081
 20
16.1769789038
 30
0.0
 40
0.0393700787401553
100
AcDbArc
 50
80.0000472348
 51
152.3995430525
  0
ARC
  5
2DD
330
1F
100
AcDbEntity
  8
PROFILES_INSIDE
100
AcDbCircle
 10
16.1977745937
 20
16.2895214292
 30
0.0
 40
0.2035433070866163
100
AcDbArc
 50
145.1121190957
 51
332.3995430525
  0
ARC
  5
2DE
330
1F
100
AcDbEntity
  8
PROFILES_INSIDE
100
AcDbCircle
 10
15.9985193319
 20
16.4284611775
 30
0.0
 40
0.0393700787401567
100
AcDbArc
 50
325.1121190957
 51
350.0
  0
ARC
  5
2DF
330
1F
100
AcDbEntity
  8
PROFILES_INSIDE
100
AcDbCircle
 10
16.0403278705
 20
16.6655691823
 30
0.0
 40
0.0393700264954925
100
AcDbArc
 50
350.0
 51
14.8878397487
  0
ARC
  5
2E0
330
1F
100
AcDbEntity
  8
PROFILES_INSIDE
100
AcDbCircle
 10
16.2750866866
 20
16.7279803246
 30
0.0
 40
0.2035432572735727
100
AcDbArc
 50
7.6004766242
 51
194.8878397487
  0
ARC
  5
2E1
330
1F
100
AcDbEntity
  8
PROFILES_INSIDE
100
AcDbCircle
 10
16.5158659423
 20
16.7601091751
 30
0.0
 40
0.0393701285532016
100
AcDbArc
 50
187.6004766242
 51
260.0000472348
  0
ARC
  5
2E2
330
1F
100
AcDbEntity
  8
PROFILES_INSIDE
100
AcDbCircle
 10
3.6402343676
 20
18.8520399292
 30
0.0
 40
0.0393714215238465
100
AcDbArc
 50
145.1121889858
 51
170.0
  0
ARC
  5
2E3
330
1F
100
AcDbEntity
  8
PROFILES_INSIDE
100
AcDbCircle
 10
3.4409778349
 20
18.9909802025
 30
0.0
 40
0.203543307086617
100
AcDbArc
 50
325.1121889858
 51
152.3995430525
  0
ARC
  5
2E4
330
1F
100
AcDbEntity
  8
PROFILES_INSIDE
100
AcDbCircle
 10
3.2257080205
 20
19.1035227279
 30
0.0
 40
0.0393700787401543
100
AcDbArc
 50
260.0000472348
 51
332.3995430525
  0
ARC
  5
2E5
330
1F
100
AcDbEntity
  8
PROFILES_INSIDE
100
AcDbCircle
 10
3.0689282814
 20
19.1311670926
 30
0.0
 40
0.0393701059109093
100
AcDbArc
 50
187.6004766242
 51
260.0000472348
  0
ARC
  5
2E6
330
1F
100
AcDbEntity
  8
PROFILES_INSIDE
100
AcDbCircle
 10
2.8281490257
 20
19.0990382421
 30
0.0
 40
0.2035432799158606
100
AcDbArc
 50
7.6004766242
 51
194.8878397487
  0
ARC
  5
2E7
330
1F
100
AcDbEntity
  8
PROFILES_INSIDE
100
AcDbCircle
 10
2.5933902096
 20
19.0366270998
 30
0.0
 40
0.0393700219670394
100
AcDbArc
 50
350.0
 51
14.8878397487
  0
ARC
  5
2E8
330
1F
100
AcDbEntity
  8
PROFILES_INSIDE
100
AcDbCircle
 10
2.551581671
 20
18.799519095
 30
0.0
 40
0.0393700787401574
100
AcDbArc
 50
325.1121190957
 51
350.0
  0
ARC
  5
2E9
330
1F
100
AcDbEntity
  8
PROFILES_INSIDE
100
AcDbCircle
 10
2.7508369328
 20
18.6605793467
 30
0.0
 40
0.203543307086615
100
AcDbArc
 50
145.1121190957
 51
332.3995430525
  0
ARC
  5
2EA
330
1F
100
AcDbEntity
  8
PROFILES_INSIDE
100
AcDbCircle
 10
2.9661067472
 20
18.5480368213
 30
0.0
 40
0.0393700787401577
100
AcDbArc
 50
80.0000472348
 51
152.3995430525
  0
ARC
  5
2EB
330
1F
100
AcDbEntity
  8
PROFILES_INSIDE
100
AcDbCircle
 10
3.1228864863
 20
18.5203924566
 30
0.0
 40
0.0393700787401578
100
AcDbArc
 50
7.6004766242
 51
80.0000472348
  0
ARC
  5
2EC
330
1F
100
AcDbEntity
  8
PROFILES_INSIDE
100
AcDbCircle
 10
3.363665742
 20
18.5525213071
 30
0.0
 40
0.2035433070866168
100
AcDbArc
 50
187.6004766242
 51
14.8879031485
  0
ARC
  5
2ED
330
1F
100
AcDbEntity
  8
PROFILES_INSIDE
100
AcDbCircle
 10
3.5984246095
 20
18.6149327413
 30
0.0
 40
0.0393700787401539
100
AcDbArc
 50
170.0
 51
194.8879031485
  0
ARC
  5
2EE
330
1F
100
AcDbEntity
  8
PROFILES_INSIDE
100
AcDbCircle
 10
16.8879154982
 20
4.7278693947
 30
0.0
 40
0.2035433070866169
100
AcDbArc
 50
207.6004766242
 51
34.8879031485
  0
ARC
  5
2EF
330
1F
100
AcDbEntity
  8
PROFILES_INSIDE
100
AcDbCircle
 10
17.0871707061
 20
4.8668092204
 30
0.0
 40
0.0393700787401561
100
AcDbArc
 50
190.0
 51
214.8879031485
  0
ARC
  5
2F0
330
1F
100
AcDbEntity
  8
PROFILES_INSIDE
100
AcDbCircle
 10
17.0453635928
 20
5.1039168747
 30
0.0
 40
0.0393714215238458
100
AcDbArc
 50
165.1121889858
 51
190.0
  0
ARC
  5
2F1
330
1F
100
AcDbEntity
  8
PROFILES_INSIDE
100
AcDbCircle
 10
16.8106033272
 20
5.1663282764
 30
0.0
 40
0.2035433070866156
100
AcDbArc
 50
345.1121889858
 51
172.3995430525
  0
ARC
  5
2F2
330
1F
100
AcDbEntity
  8
PROFILES_INSIDE
100
AcDbCircle
 10
16.5698240604
 20
5.1984570442
 30
0.0
 40
0.0393700787401578
100
AcDbArc
 50
280.0000472348
 51
352.3995430525
  0
ARC
  5
2F3
330
1F
100
AcDbEntity
  8
PROFILES_INSIDE
100
AcDbCircle
 10
16.413044367
 20
5.170812421
 30
0.0
 40
0.0393701013824487
100
AcDbArc
 50
207.6004766242
 51
280.0000472348
  0
ARC
  5
2F4
330
1F
100
AcDbEntity
  8
PROFILES_INSIDE
100
AcDbCircle
 10
16.1977745912
 20
5.0582698217
 30
0.0
 40
0.2035432844443233
100
AcDbArc
 50
27.6004766242
 51
214.8878397487
  0
ARC
  5
2F5
330
1F
100
AcDbEntity
  8
PROFILES_INSIDE
100
AcDbCircle
 10
15.9985193319
 20
4.9193302878
 30
0.0
 40
0.0393700174385807
100
AcDbArc
 50
10.0
 51
34.8878397487
  0
ARC
  5
2F6
330
1F
100
AcDbEntity
  8
PROFILES_INSIDE
100
AcDbCircle
 10
16.0403278705
 20
4.6822222831
 30
0.0
 40
0.0393700787401598
100
AcDbArc
 50
345.1121190957
 51
10.0
  0
ARC
  5
2F7
330
1F
100
AcDbEntity
  8
PROFILES_INSIDE
100
AcDbCircle
 10
16.2750867623
 20
4.61981094
 30
0.0
 40
0.2035433070866161
100
AcDbArc
 50
165.1121190957
 51
352.3995430525
  0
ARC
  5
2F8
330
1F
100
AcDbEntity
  8
PROFILES_INSIDE
100
AcDbCircle
 10
16.515866029
 20
4.5876821722
 30
0.0
 40
0.0393700787401578
100
AcDbArc
 50
100.0000472348
 51
172.3995430525
  0
ARC
  5
2F9
330
1F
100
AcDbEntity
  8
PROFILES_INSIDE
100
AcDbCircle
 10
16.6726457225
 20
4.6153267955
 30
0.0
 40
0.0393700787401603
100
AcDbArc
 50
27.6004766242
 51
100.0000472348
  0
ARC
  5
2FA
330
1F
100
AcDbEntity
  8
PROFILES_INSIDE
100
AcDbCircle
 10
2.5933902096
 20
2.3111643655
 30
0.0
 40
0.039370078740158
100
AcDbArc
 50
345.1121190957
 51
10.0
  0
ARC
  5
2FB
330
1F
100
AcDbEntity
  8
PROFILES_INSIDE
100
AcDbCircle
 10
2.8281491014
 20
2.2487530225
 30
0.0
 40
0.2035433070866113
100
AcDbArc
 50
165.1121190957
 51
352.3995430525
  0
ARC
  5
2FC
330
1F
100
AcDbEntity
  8
PROFILES_INSIDE
100
AcDbCircle
 10
3.0689283681
 20
2.2166242547
 30
0.0
 40
0.0393700787401605
100
AcDbArc
 50
100.0000472348
 51
172.3995430525
  0
ARC
  5
2FD
330
1F
100
AcDbEntity
  8
PROFILES_INSIDE
100
AcDbCircle
 10
3.2257080616
 20
2.2442688779
 30
0.0
 40
0.0393700787401576
100
AcDbArc
 50
27.6004766242
 51
100.0000472348
  0
ARC
  5
2FE
330
1F
100
AcDbEntity
  8
PROFILES_INSIDE
100
AcDbCircle
 10
3.4409778374
 20
2.3568114772
 30
0.0
 40
0.2035433070866153
100
AcDbArc
 50
207.6004766242
 51
34.8879031485
  0
ARC
  5
2FF
330
1F
100
AcDbEntity
  8
PROFILES_INSIDE
100
AcDbCircle
 10
3.6402330452
 20
2.4957513029
 30
0.0
 40
0.0393700787401585
100
AcDbArc
 50
190.0
 51
214.8879031485
  0
ARC
  5
300
330
1F
100
AcDbEntity
  8
PROFILES_INSIDE
100
AcDbCircle
 10
3.5984259319
 20
2.7328589572
 30
0.0
 40
0.0393714215238501
100
AcDbArc
 50
165.1121889858
 51
190.0
  0
ARC
  5
301
330
1F
100
AcDbEntity
  8
PROFILES_INSIDE
100
AcDbCircle
 10
3.3636656663
 20
2.7952703589
 30
0.0
 40
0.2035433070866155
100
AcDbArc
 50
345.1121889858
 51
172.3995430525
  0
ARC
  5
302
330
1F
100
AcDbEntity
  8
PROFILES_INSIDE
100
AcDbCircle
 10
3.1228863996
 20
2.8273991267
 30
0.0
 40
0.0393700787401566
100
AcDbArc
 50
280.0000472348
 51
352.3995430525
  0
ARC
  5
303
330
1F
100
AcDbEntity
  8
PROFILES_INSIDE
100
AcDbCircle
 10
2.9661067061
 20
2.7997545035
 30
0.0
 40
0.0393700832686157
100
AcDbArc
 50
207.6004766242
 51
280.0000472348
  0
ARC
  5
304
330
1F
100
AcDbEntity
  8
PROFILES_INSIDE
100
AcDbCircle
 10
2.7508369303
 20
2.6872119042
 30
0.0
 40
0.2035433025581562
100
AcDbArc
 50
27.6004766242
 51
214.8878397487
  0
ARC
  5
305
330
1F
100
AcDbEntity
  8
PROFILES_INSIDE
100
AcDbCircle
 10
2.551581671
 20
2.5482723703
 30
0.0
 40
0.0393700264954976
100
AcDbArc
 50
10.0
 51
34.8878397487
  0
ARC
  5
306
330
1F
100
AcDbEntity
  8
PROFILES_INSIDE
100
AcDbCircle
 10
34.9474488309
 20
16.7324648104
 30
0.0
 40
0.0393700787401586
100
AcDbArc
 50
260.0000472348
 51
332.3995430525
  0
ARC
  5
307
330
1F
100
AcDbEntity
  8
PROFILES_INSIDE
100
AcDbCircle
 10
35.1627186454
 20
16.619922285
 30
0.0
 40
0.2035433070866142
100
AcDbArc
 50
325.1121889858
 51
152.3995430525
  0
ARC
  5
308
330
1F
100
AcDbEntity
  8
PROFILES_INSIDE
100
AcDbCircle
 10
35.3619751781
 20
16.4809820117
 30
0.0
 40
0.0393714215238496
100
AcDbArc
 50
145.1121889858
 51
170.0
  0
ARC
  5
309
330
1F
100
AcDbEntity
  8
PROFILES_INSIDE
100
AcDbCircle
 10
35.32016542
 20
16.2438748237
 30
0.0
 40
0.0393700787401596
100
AcDbArc
 50
170.0
 51
194.8879031485
  0
ARC
  5
30A
330
1F
100
AcDbEntity
  8
PROFILES_INSIDE
100
AcDbCircle
 10
35.0854065525
 20
16.1814633896
 30
0.0
 40
0.2035433070866177
100
AcDbArc
 50
187.6004766242
 51
14.8879031485
  0
ARC
  5
30B
330
1F
100
AcDbEntity
  8
PROFILES_INSIDE
100
AcDbCircle
 10
34.8446272968
 20
16.1493345391
 30
0.0
 40
0.0393700787401573
100
AcDbArc
 50
7.6004766242
 51
80.0000472348
  0
ARC
  5
30C
330
1F
100
AcDbEntity
  8
PROFILES_INSIDE
100
AcDbCircle
 10
34.6878475577
 20
16.1769789038
 30
0.0
 40
0.0393700787401585
100
AcDbArc
 50
80.0000472348
 51
152.3995430525
  0
ARC
  5
30D
330
1F
100
AcDbEntity
  8
PROFILES_INSIDE
100
AcDbCircle
 10
34.4725777433
 20
16.2895214292
 30
0.0
 40
0.2035433070866163
100
AcDbArc
 50
145.1121190957
 51
332.3995430525
  0
ARC
  5
30E
330
1F
100
AcDbEntity
  8
PROFILES_INSIDE
100
AcDbCircle
 10
34.2733224815
 20
16.4284611775
 30
0.0
 40
0.039370078740159
100
AcDbArc
 50
325.1121190957
 51
350.0
  0
ARC
  5
30F
330
1F
100
AcDbEntity
  8
PROFILES_INSIDE
100
AcDbCircle
 10
34.3151310201
 20
16.6655691823
 30
0.0
 40
0.0393700264954931
100
AcDbArc
 50
350.0
 51
14.8878397487
  0
ARC
  5
310
330
1F
100
AcDbEntity
  8
PROFILES_INSIDE
100
AcDbCircle
 10
34.5498898362
 20
16.7279803246
 30
0.0
 40
0.2035432572735696
100
AcDbArc
 50
7.6004766242
 51
194.8878397487
  0
ARC
  5
311
330
1F
100
AcDbEntity
  8
PROFILES_INSIDE
100
AcDbCircle
 10
34.7906690919
 20
16.7601091751
 30
0.0
 40
0.039370128553203
100
AcDbArc
 50
187.6004766242
 51
260.0000472348
  0
ARC
  5
312
330
1F
100
AcDbEntity
  8
PROFILES_INSIDE
100
AcDbCircle
 10
21.9206439425
 20
18.8510513652
 30
0.0
 40
0.0393714215238426
100
AcDbArc
 50
145.1121889858
 51
170.0
  0
ARC
  5
313
330
1F
100
AcDbEntity
  8
PROFILES_INSIDE
100
AcDbCircle
 10
21.7213874097
 20
18.9899916385
 30
0.0
 40
0.2035433070866188
100
AcDbArc
 50
325.1121889858
 51
152.3995430525
  0
ARC
  5
314
330
1F
100
AcDbEntity
  8
PROFILES_INSIDE
100
AcDbCircle
 10
21.5061175953
 20
19.1025341639
 30
0.0
 40
0.0393700787401586
100
AcDbArc
 50
260.0000472348
 51
332.3995430525
  0
ARC
  5
315
330
1F
100
AcDbEntity
  8
PROFILES_INSIDE
100
AcDbCircle
 10
21.3493378563
 20
19.1301785286
 30
0.0
 40
0.039370105910915
100
AcDbArc
 50
187.6004766242
 51
260.0000472348
  0
ARC
  5
316
330
1F
100
AcDbEntity
  8
PROFILES_INSIDE
100
AcDbCircle
 10
21.1085586006
 20
19.0980496781
 30
0.0
 40
0.2035432799158576
100
AcDbArc
 50
7.6004766242
 51
194.8878397487
  0
ARC
  5
317
330
1F
100
AcDbEntity
  8
PROFILES_INSIDE
100
AcDbCircle
 10
20.8737997845
 20
19.0356385357
 30
0.0
 40
0.039370021967037
100
AcDbArc
 50
350.0
 51
14.8878397487
  0
ARC
  5
318
330
1F
100
AcDbEntity
  8
PROFILES_INSIDE
100
AcDbCircle
 10
20.8319912459
 20
18.798530531
 30
0.0
 40
0.0393700787401561
100
AcDbArc
 50
325.1121190957
 51
350.0
  0
ARC
  5
319
330
1F
100
AcDbEntity
  8
PROFILES_INSIDE
100
AcDbCircle
 10
21.0312465077
 20
18.6595907827
 30
0.0
 40
0.2035433070866173
100
AcDbArc
 50
145.1121190957
 51
332.3995430525
  0
ARC
  5
31A
330
1F
100
AcDbEntity
  8
PROFILES_INSIDE
100
AcDbCircle
 10
21.2465163221
 20
18.5470482573
 30
0.0
 40
0.0393700787401579
100
AcDbArc
 50
80.0000472348
 51
152.3995430525
  0
ARC
  5
31B
330
1F
100
AcDbEntity
  8
PROFILES_INSIDE
100
AcDbCircle
 10
21.4032960611
 20
18.5194038925
 30
0.0
 40
0.0393700787401573
100
AcDbArc
 50
7.6004766242
 51
80.0000472348
  0
ARC
  5
31C
330
1F
100
AcDbEntity
  8
PROFILES_INSIDE
100
AcDbCircle
 10
21.6440753168
 20
18.5515327431
 30
0.0
 40
0.2035433070866143
100
AcDbArc
 50
187.6004766242
 51
14.8879031485
  0
ARC
  5
31D
330
1F
100
AcDbEntity
  8
PROFILES_INSIDE
100
AcDbCircle
 10
21.8788341844
 20
18.6139441772
 30
0.0
 40
0.0393700787401588
100
AcDbArc
 50
170.0
 51
194.8879031485
  0
ARC
  5
31E
330
1F
100
AcDbEntity
  8
PROFILES_INSIDE
100
AcDbCircle
 10
35.1627186479
 20
4.7278693947
 30
0.0
 40
0.2035433070866181
100
AcDbArc
 50
207.6004766242
 51
34.8879031485
  0
ARC
  5
31F
330
1F
100
AcDbEntity
  8
PROFILES_INSIDE
100
AcDbCircle
 10
35.3619738557
 20
4.8668092204
 30
0.0
 40
0.0393700787401598
100
AcDbArc
 50
190.0
 51
214.8879031485
  0
ARC
  5
320
330
1F
100
AcDbEntity
  8
PROFILES_INSIDE
100
AcDbCircle
 10
35.3201667424
 20
5.1039168747
 30
0.0
 40
0.0393714215238493
100
AcDbArc
 50
165.1121889858
 51
190.0
  0
ARC
  5
321
330
1F
100
AcDbEntity
  8
PROFILES_INSIDE
100
AcDbCircle
 10
35.0854064768
 20
5.1663282764
 30
0.0
 40
0.2035433070866122
100
AcDbArc
 50
345.1121889858
 51
172.3995430525
  0
ARC
  5
322
330
1F
100
AcDbEntity
  8
PROFILES_INSIDE
100
AcDbCircle
 10
34.84462721
 20
5.1984570442
 30
0.0
 40
0.0393700787401666
100
AcDbArc
 50
280.0000472348
 51
352.3995430525
  0
ARC
  5
323
330
1F
100
AcDbEntity
  8
PROFILES_INSIDE
100
AcDbCircle
 10
34.6878475166
 20
5.170812421
 30
0.0
 40
0.0393701013824515
100
AcDbArc
 50
207.6004766242
 51
280.0000472348
  0
ARC
  5
324
330
1F
100
AcDbEntity
  8
PROFILES_INSIDE
100
AcDbCircle
 10
34.4725777408
 20
5.0582698217
 30
0.0
 40
0.203543284444321
100
AcDbArc
 50
27.6004766242
 51
214.8878397487
  0
ARC
  5
325
330
1F
100
AcDbEntity
  8
PROFILES_INSIDE
100
AcDbCircle
 10
34.2733224815
 20
4.9193302878
 30
0.0
 40
0.0393700174385754
100
AcDbArc
 50
10.0
 51
34.8878397487
  0
ARC
  5
326
330
1F
100
AcDbEntity
  8
PROFILES_INSIDE
100
AcDbCircle
 10
34.3151310201
 20
4.6822222831
 30
0.0
 40
0.0393700787401552
100
AcDbArc
 50
345.1121190957
 51
10.0
  0
ARC
  5
327
330
1F
100
AcDbEntity
  8
PROFILES_INSIDE
100
AcDbCircle
 10
34.5498899119
 20
4.61981094
 30
0.0
 40
0.2035433070866186
100
AcDbArc
 50
165.1121190957
 51
352.3995430525
  0
ARC
  5
328
330
1F
100
AcDbEntity
  8
PROFILES_INSIDE
100
AcDbCircle
 10
34.7906691786
 20
4.5876821722
 30
0.0
 40
0.0393700787401565
100
AcDbArc
 50
100.0000472348
 51
172.3995430525
  0
ARC
  5
329
330
1F
100
AcDbEntity
  8
PROFILES_INSIDE
100
AcDbCircle
 10
34.9474488721
 20
4.6153267955
 30
0.0
 40
0.0393700787401578
100
AcDbArc
 50
27.6004766242
 51
100.0000472348
  0
ARC
  5
32A
330
1F
100
AcDbEntity
  8
PROFILES_INSIDE
100
AcDbCircle
 10
20.8737997845
 20
2.3121529296
 30
0.0
 40
0.0393700787401601
100
AcDbArc
 50
345.1121190957
 51
10.0
  0
ARC
  5
32B
330
1F
100
AcDbEntity
  8
PROFILES_INSIDE
100
AcDbCircle
 10
21.1085586763
 20
2.2497415866
 30
0.0
 40
0.2035433070866159
100
AcDbArc
 50
165.1121190957
 51
352.3995430525
  0
ARC
  5
32C
330
1F
100
AcDbEntity
  8
PROFILES_INSIDE
100
AcDbCircle
 10
21.349337943
 20
2.2176128187
 30
0.0
 40
0.0393700787401562
100
AcDbArc
 50
100.0000472348
 51
172.3995430525
  0
ARC
  5
32D
330
1F
100
AcDbEntity
  8
PROFILES_INSIDE
100
AcDbCircle
 10
21.5061176364
 20
2.245257442
 30
0.0
 40
0.0393700787401563
100
AcDbArc
 50
27.6004766242
 51
100.0000472348
  0
ARC
  5
32E
330
1F
100
AcDbEntity
  8
PROFILES_INSIDE
100
AcDbCircle
 10
21.7213874122
 20
2.3578000413
 30
0.0
 40
0.2035433070866152
100
AcDbArc
 50
207.6004766242
 51
34.8879031485
  0
ARC
  5
32F
330
1F
100
AcDbEntity
  8
PROFILES_INSIDE
100
AcDbCircle
 10
21.9206426201
 20
2.4967398669
 30
0.0
 40
0.0393700787401601
100
AcDbArc
 50
190.0
 51
214.8879031485
  0
ARC
  5
330
330
1F
100
AcDbEntity
  8
PROFILES_INSIDE
100
AcDbCircle
 10
21.8788355068
 20
2.7338475213
 30
0.0
 40
0.0393714215238468
100
AcDbArc
 50
165.1121889858
 51
190.0
  0
ARC
  5
331
330
1F
100
AcDbEntity
  8
PROFILES_INSIDE
100
AcDbCircle
 10
21.6440752411
 20
2.7962589229
 30
0.0
 40
0.2035433070866128
100
AcDbArc
 50
345.1121889858
 51
172.3995430525
  0
ARC
  5
332
330
1F
100
AcDbEntity
  8
PROFILES_INSIDE
100
AcDbCircle
 10
21.4032959744
 20
2.8283876908
 30
0.0
 40
0.0393700787401596
100
AcDbArc
 50
280.0000472348
 51
352.3995430525
  0
ARC
  5
333
330
1F
100
AcDbEntity
  8
PROFILES_INSIDE
100
AcDbCircle
 10
21.2465162809
 20
2.8007430675
 30
0.0
 40
0.0393700832686174
100
AcDbArc
 50
207.6004766242
 51
280.0000472348
  0
ARC
  5
334
330
1F
100
AcDbEntity
  8
PROFILES_INSIDE
100
AcDbCircle
 10
21.0312465052
 20
2.6882004682
 30
0.0
 40
0.2035433025581546
100
AcDbArc
 50
27.6004766242
 51
214.8878397487
  0
ARC
  5
335
330
1F
100
AcDbEntity
  8
PROFILES_INSIDE
100
AcDbCircle
 10
20.8319912459
 20
2.5492609343
 30
0.0
 40
0.0393700264954959
100
AcDbArc
 50
10.0
 51
34.8878397487
  0
ARC
  5
336
330
1F
100
AcDbEntity
  8
PROFILES_OUTSIDE
100
AcDbCircle
 10
19.5326094516
 20
19.7635400726
 30
0.0
 40
0.236220472440948
100
AcDbArc
 50
80.0
 51
180.0
  0
ARC
  5
337
330
1F
100
AcDbEntity
  8
PROFILES_OUTSIDE
100
AcDbCircle
 10
36.0956015775
 20
16.8430376795
 30
0.0
 40
0.2362204724409449
100
AcDbArc
 50
0.0
 51
80.0
  0
ARC
  5
338
330
1F
100
AcDbEntity
  8
PROFILES_OUTSIDE
100
AcDbCircle
 10
36.0956015775
 20
14.0898564029
 30
0.0
 40
0.2362204724409432
100
AcDbArc
 50
280.0
 51
0.0
  0
ARC
  5
339
330
1F
100
AcDbEntity
  8
PROFILES_OUTSIDE
100
AcDbCircle
 10
35.7806409476
 20
13.554591238
 30
0.0
 40
0.236220472440948
100
AcDbArc
 50
100.0
 51
180.0
  0
ARC
  5
33A
330
1F
100
AcDbEntity
  8
PROFILES_OUTSIDE
100
AcDbCircle
 10
35.7806409476
 20
7.7932002273
 30
0.0
 40
0.236220472440948
100
AcDbArc
 50
180.0
 51
260.0
  0
ARC
  5
33B
330
1F
100
AcDbEntity
  8
PROFILES_OUTSIDE
100
AcDbCircle
 10
36.0956015775
 20
7.2579350624
 30
0.0
 40
0.2362204724409458
100
AcDbArc
 50
0.0
 51
80.0
  0
ARC
  5
33C
330
1F
100
AcDbEntity
  8
PROFILES_OUTSIDE
100
AcDbCircle
 10
36.0956015775
 20
4.5047537858
 30
0.0
 40
0.2362204724409432
100
AcDbArc
 50
280.0
 51
0.0
  0
ARC
  5
33D
330
1F
100
AcDbEntity
  8
PROFILES_OUTSIDE
100
AcDbCircle
 10
19.5326094516
 20
1.5842513927
 30
0.0
 40
0.2362204724409484
100
AcDbArc
 50
180.0
 51
280.0
  0
ARC
  5
33E
330
1F
100
AcDbEntity
  8
PROFILES_OUTSIDE
100
AcDbCircle
 10
74.7526881917
 20
15.3501760765
 30
0.0
 40
0.472440944881896
100
AcDbArc
 50
90.0
 51
180.0
  0
ARC
  5
33F
330
1F
100
AcDbEntity
  8
PROFILES_OUTSIDE
100
AcDbCircle
 10
74.7526881917
 20
2.640679617
 30
0.0
 40
0.4724409448818965
100
AcDbArc
 50
180.0
 51
270.0
  0
ARC
  5
340
330
1F
100
AcDbEntity
  8
PROFILES_OUTSIDE
100
AcDbCircle
 10
79.5932393728
 20
1.4694197745
 30
0.0
 40
0.0393700787401576
100
AcDbArc
 50
270.0
 51
0.0
  0
ARC
  5
341
330
1F
100
AcDbEntity
  8
PROFILES_OUTSIDE
100
AcDbCircle
 10
65.9671781881
 20
16.3541130844
 30
0.0
 40
0.039370078740159
100
AcDbArc
 50
183.6619355755
 51
270.0
  0
ARC
  5
342
330
1F
100
AcDbEntity
  8
PROFILES_OUTSIDE
100
AcDbCircle
 10
66.307322901
 20
16.2753729269
 30
0.0
 40
0.0393700787401641
100
AcDbArc
 50
65.1121079736
 51
90.0
  0
ARC
  5
343
330
1F
100
AcDbEntity
  8
PROFILES_OUTSIDE
100
AcDbCircle
 10
66.4095515721
 20
16.4957276678
 30
0.0
 40
0.2035433070866079
100
AcDbArc
 50
245.1121079736
 51
72.3995332141
  0
ARC
  5
344
330
1F
100
AcDbEntity
  8
PROFILES_OUTSIDE
100
AcDbCircle
 10
66.4830031524
 20
16.7272698418
 30
0.0
 40
0.0393700787401679
100
AcDbArc
 50
180.0
 51
252.3995332141
  0
ARC
  5
345
330
1F
100
AcDbEntity
  8
PROFILES_OUTSIDE
100
AcDbCircle
 10
71.0893023649
 20
16.3345067852
 30
0.0
 40
0.472440944881896
100
AcDbArc
 50
0.0
 51
90.0
  0
ARC
  5
346
330
1F
100
AcDbEntity
  8
PROFILES_OUTSIDE
100
AcDbCircle
 10
72.0341842547
 20
11.9142284378
 30
0.0
 40
0.472440944881896
100
AcDbArc
 50
180.0
 51
270.0
  0
ARC
  5
347
330
1F
100
AcDbEntity
  8
PROFILES_OUTSIDE
100
AcDbCircle
 10
73.057806302
 20
11.9142284378
 30
0.0
 40
0.472440944881896
100
AcDbArc
 50
270.0
 51
0.0
  0
ARC
  5
348
330
1F
100
AcDbEntity
  8
PROFILES_OUTSIDE
100
AcDbCircle
 10
74.0026881917
 20
16.3345067852
 30
0.0
 40
0.472440944881896
100
AcDbArc
 50
90.0
 51
180.0
  0
ARC
  5
349
330
1F
100
AcDbEntity
  8
PROFILES_OUTSIDE
100
AcDbCircle
 10
78.6089874043
 20
16.7272698418
 30
0.0
 40
0.0393700787401535
100
AcDbArc
 50
287.6004667859
 51
0.0
  0
ARC
  5
34A
330
1F
100
AcDbEntity
  8
PROFILES_OUTSIDE
100
AcDbCircle
 10
78.6824389846
 20
16.4957276678
 30
0.0
 40
0.2035433070866172
100
AcDbArc
 50
107.6004667859
 51
294.8878920264
  0
ARC
  5
34B
330
1F
100
AcDbEntity
  8
PROFILES_OUTSIDE
100
AcDbCircle
 10
78.7846676556
 20
16.2753729269
 30
0.0
 40
0.0393700787401592
100
AcDbArc
 50
90.0
 51
114.8878920264
  0
ARC
  5
34C
330
1F
100
AcDbEntity
  8
PROFILES_OUTSIDE
100
AcDbCircle
 10
79.1248123686
 20
16.3541130844
 30
0.0
 40
0.0393700787401592
100
AcDbArc
 50
270.0
 51
356.3380644245
  0
ARC
  5
34D
330
1F
100
AcDbEntity
  8
PROFILES_OUTSIDE
100
AcDbCircle
 10
79.3963889791
 20
16.0588374938
 30
0.0
 40
0.2362204724409462
100
AcDbArc
 50
270.0
 51
0.0
  0
ARC
  5
34E
330
1F
100
AcDbEntity
  8
PROFILES_OUTSIDE
100
AcDbCircle
 10
65.4987511838
 20
1.4694197745
 30
0.0
 40
0.0393700787401532
100
AcDbArc
 50
180.0
 51
270.0
  0
ARC
  5
34F
330
1F
100
AcDbEntity
  8
PROFILES_OUTSIDE
100
AcDbCircle
 10
73.5302472468
 20
11.4417874929
 30
0.0
 40
0.75
100
AcDbArc
 50
300.0
 51
0.0
  0
ARC
  5
350
330
1F
100
AcDbEntity
  8
PROFILES_OUTSIDE
100
AcDbCircle
 10
74.2802472468
 20
10.1427493872
 30
0.0
 40
0.75
100
AcDbArc
 50
120.0
 51
180.0
  0
ARC
  5
351
330
1F
100
AcDbEntity
  8
PROFILES_OUTSIDE
100
AcDbCircle
 10
74.2802472468
 20
7.8481063063
 30
0.0
 40
0.75
100
AcDbArc
 50
180.0
 51
240.0
  0
ARC
  5
352
330
1F
100
AcDbEntity
  8
PROFILES_OUTSIDE
100
AcDbCircle
 10
73.5302472468
 20
6.5490682006
 30
0.0
 40
0.75
100
AcDbArc
 50
0.0
 51
60.0
  0
ARC
  5
353
330
1F
100
AcDbEntity
  8
PROFILES_OUTSIDE
100
AcDbCircle
 10
79.3963889791
 20
1.9320181997
 30
0.0
 40
0.236220472440948
100
AcDbArc
 50
0.0
 51
90.0
  0
ARC
  5
354
330
1F
100
AcDbEntity
  8
PROFILES_OUTSIDE
100
AcDbCircle
 10
70.3393023649
 20
2.640679617
 30
0.0
 40
0.472440944881896
100
AcDbArc
 50
270.0
 51
0.0
  0
ARC
  5
355
330
1F
100
AcDbEntity
  8
PROFILES_OUTSIDE
100
AcDbCircle
 10
79.1248123686
 20
1.6367426092
 30
0.0
 40
0.039370078740159
100
AcDbArc
 50
3.6619355755
 51
90.0
  0
ARC
  5
356
330
1F
100
AcDbEntity
  8
PROFILES_OUTSIDE
100
AcDbCircle
 10
78.7846676556
 20
1.7154827666
 30
0.0
 40
0.0393700787401576
100
AcDbArc
 50
245.1121079736
 51
270.0
  0
ARC
  5
357
330
1F
100
AcDbEntity
  8
PROFILES_OUTSIDE
100
AcDbCircle
 10
78.6824389846
 20
1.4951280257
 30
0.0
 40
0.2035433070866159
100
AcDbArc
 50
65.1121079736
 51
252.3995332141
  0
ARC
  5
358
330
1F
100
AcDbEntity
  8
PROFILES_OUTSIDE
100
AcDbCircle
 10
78.6089874043
 20
1.2635858517
 30
0.0
 40
0.0393700787401562
100
AcDbArc
 50
0.0
 51
72.3995332141
  0
ARC
  5
359
330
1F
100
AcDbEntity
  8
PROFILES_OUTSIDE
100
AcDbCircle
 10
74.0026881917
 20
1.6563489084
 30
0.0
 40
0.472440944881896
100
AcDbArc
 50
180.0
 51
270.0
  0
ARC
  5
35A
330
1F
100
AcDbEntity
  8
PROFILES_OUTSIDE
100
AcDbCircle
 10
73.057806302
 20
6.0766272557
 30
0.0
 40
0.472440944881896
100
AcDbArc
 50
0.0
 51
90.0
  0
ARC
  5
35B
330
1F
100
AcDbEntity
  8
PROFILES_OUTSIDE
100
AcDbCircle
 10
72.0341842547
 20
6.0766272557
 30
0.0
 40
0.472440944881896
100
AcDbArc
 50
90.0
 51
180.0
  0
ARC
  5
35C
330
1F
100
AcDbEntity
  8
PROFILES_OUTSIDE
100
AcDbCircle
 10
71.0893023649
 20
1.6563489084
 30
0.0
 40
0.472440944881896
100
AcDbArc
 50
270.0
 51
0.0
  0
ARC
  5
35D
330
1F
100
AcDbEntity
  8
PROFILES_OUTSIDE
100
AcDbCircle
 10
66.4830031524
 20
1.2635858517
 30
0.0
 40
0.0393700787401627
100
AcDbArc
 50
107.6004667859
 51
180.0
  0
ARC
  5
35E
330
1F
100
AcDbEntity
  8
PROFILES_OUTSIDE
100
AcDbCircle
 10
66.4095515721
 20
1.4951280257
 30
0.0
 40
0.2035433070866186
100
AcDbArc
 50
287.6004667859
 51
114.8878920264
  0
ARC
  5
35F
330
1F
100
AcDbEntity
  8
PROFILES_OUTSIDE
100
AcDbCircle
 10
66.307322901
 20
1.7154827666
 30
0.0
 40
0.0393700787401572
100
AcDbArc
 50
270.0
 51
294.8878920264
  0
ARC
  5
360
330
1F
100
AcDbEntity
  8
PROFILES_OUTSIDE
100
AcDbCircle
 10
65.9671781881
 20
1.6367426092
 30
0.0
 40
0.039370078740159
100
AcDbArc
 50
90.0
 51
176.3380644245
  0
ARC
  5
361
330
1F
100
AcDbEntity
  8
PROFILES_OUTSIDE
100
AcDbCircle
 10
65.6956015775
 20
1.9320181997
 30
0.0
 40
0.236220472440948
100
AcDbArc
 50
90.0
 51
180.0
  0
ARC
  5
362
330
1F
100
AcDbEntity
  8
PROFILES_OUTSIDE
100
AcDbCircle
 10
70.3393023649
 20
15.3501760765
 30
0.0
 40
0.472440944881896
100
AcDbArc
 50
0.0
 51
90.0
  0
ARC
  5
363
330
1F
100
AcDbEntity
  8
PROFILES_OUTSIDE
100
AcDbCircle
 10
71.5617433098
 20
6.5490682006
 30
0.0
 40
0.75
100
AcDbArc
 50
120.0
 51
180.0
  0
ARC
  5
364
330
1F
100
AcDbEntity
  8
PROFILES_OUTSIDE
100
AcDbCircle
 10
70.8117433098
 20
7.8481063063
 30
0.0
 40
0.75
100
AcDbArc
 50
300.0
 51
0.0
  0
ARC
  5
365
330
1F
100
AcDbEntity
  8
PROFILES_OUTSIDE
100
AcDbCircle
 10
70.8117433098
 20
10.1427493872
 30
0.0
 40
0.75
100
AcDbArc
 50
0.0
 51
60.0
  0
ARC
  5
366
330
1F
100
AcDbEntity
  8
PROFILES_OUTSIDE
100
AcDbCircle
 10
71.5617433098
 20
11.4417874929
 30
0.0
 40
0.75
100
AcDbArc
 50
180.0
 51
240.0
  0
ARC
  5
367
330
1F
100
AcDbEntity
  8
PROFILES_OUTSIDE
100
AcDbCircle
 10
65.6956015775
 20
16.0588374938
 30
0.0
 40
0.236220472440948
100
AcDbArc
 50
180.0
 51
270.0
  0
ARC
  5
368
330
1F
100
AcDbEntity
  8
PROFILES_OUTSIDE
100
AcDbCircle
 10
65.4987511838
 20
16.521435919
 30
0.0
 40
0.0393700787401592
100
AcDbArc
 50
90.0
 51
180.0
  0
ARC
  5
369
330
1F
100
AcDbEntity
  8
PROFILES_OUTSIDE
100
AcDbCircle
 10
65.4987511838
 20
18.3316721395
 30
0.0
 40
0.0393700787401556
100
AcDbArc
 50
180.0
 51
270.0
  0
ARC
  5
36A
330
1F
100
AcDbEntity
  8
PROFILES_OUTSIDE
100
AcDbCircle
 10
70.3393023649
 20
19.502931982
 30
0.0
 40
0.472440944881896
100
AcDbArc
 50
270.0
 51
0.0
  0
ARC
  5
36B
330
1F
100
AcDbEntity
  8
PROFILES_OUTSIDE
100
AcDbCircle
 10
70.3393023649
 20
32.2124284415
 30
0.0
 40
0.472440944881896
100
AcDbArc
 50
0.0
 51
90.0
  0
ARC
  5
36C
330
1F
100
AcDbEntity
  8
PROFILES_OUTSIDE
100
AcDbCircle
 10
65.4987511838
 20
33.383688284
 30
0.0
 40
0.0393700787401556
100
AcDbArc
 50
90.0
 51
180.0
  0
ARC
  5
36D
330
1F
100
AcDbEntity
  8
PROFILES_OUTSIDE
100
AcDbCircle
 10
79.1248123686
 20
18.4989949741
 30
0.0
 40
0.0393700787401592
100
AcDbArc
 50
3.6619355755
 51
90.0
  0
ARC
  5
36E
330
1F
100
AcDbEntity
  8
PROFILES_OUTSIDE
100
AcDbCircle
 10
78.7846676556
 20
18.5777351316
 30
0.0
 40
0.0393700787401592
100
AcDbArc
 50
245.1121079736
 51
270.0
  0
ARC
  5
36F
330
1F
100
AcDbEntity
  8
PROFILES_OUTSIDE
100
AcDbCircle
 10
78.6824389846
 20
18.3573803907
 30
0.0
 40
0.2035433070866079
100
AcDbArc
 50
65.1121079736
 51
252.3995332141
  0
ARC
  5
370
330
1F
100
AcDbEntity
  8
PROFILES_OUTSIDE
100
AcDbCircle
 10
78.6089874043
 20
18.1258382167
 30
0.0
 40
0.0393700787401713
100
AcDbArc
 50
0.0
 51
72.3995332141
  0
ARC
  5
371
330
1F
100
AcDbEntity
  8
PROFILES_OUTSIDE
100
AcDbCircle
 10
74.0026881917
 20
18.5186012733
 30
0.0
 40
0.472440944881896
100
AcDbArc
 50
180.0
 51
270.0
  0
ARC
  5
372
330
1F
100
AcDbEntity
  8
PROFILES_OUTSIDE
100
AcDbCircle
 10
73.057806302
 20
22.9388796207
 30
0.0
 40
0.472440944881896
100
AcDbArc
 50
0.0
 51
90.0
  0
ARC
  5
373
330
1F
100
AcDbEntity
  8
PROFILES_OUTSIDE
100
AcDbCircle
 10
72.0341842547
 20
22.9388796207
 30
0.0
 40
0.472440944881896
100
AcDbArc
 50
90.0
 51
180.0
  0
ARC
  5
374
330
1F
100
AcDbEntity
  8
PROFILES_OUTSIDE
100
AcDbCircle
 10
71.0893023649
 20
18.5186012733
 30
0.0
 40
0.472440944881896
100
AcDbArc
 50
270.0
 51
0.0
  0
ARC
  5
375
330
1F
100
AcDbEntity
  8
PROFILES_OUTSIDE
100
AcDbCircle
 10
66.4830031524
 20
18.1258382167
 30
0.0
 40
0.0393700787401569
100
AcDbArc
 50
107.6004667859
 51
180.0
  0
ARC
  5
376
330
1F
100
AcDbEntity
  8
PROFILES_OUTSIDE
100
AcDbCircle
 10
66.4095515721
 20
18.3573803907
 30
0.0
 40
0.2035433070866172
100
AcDbArc
 50
287.6004667859
 51
114.8878920264
  0
ARC
  5
377
330
1F
100
AcDbEntity
  8
PROFILES_OUTSIDE
100
AcDbCircle
 10
66.307322901
 20
18.5777351316
 30
0.0
 40
0.0393700787401556
100
AcDbArc
 50
270.0
 51
294.8878920264
  0
ARC
  5
378
330
1F
100
AcDbEntity
  8
PROFILES_OUTSIDE
100
AcDbCircle
 10
65.9671781881
 20
18.4989949741
 30
0.0
 40
0.0393700787401588
100
AcDbArc
 50
90.0
 51
176.3380644245
  0
ARC
  5
379
330
1F
100
AcDbEntity
  8
PROFILES_OUTSIDE
100
AcDbCircle
 10
65.6956015775
 20
18.7942705647
 30
0.0
 40
0.2362204724409445
100
AcDbArc
 50
90.0
 51
180.0
  0
ARC
  5
37A
330
1F
100
AcDbEntity
  8
PROFILES_OUTSIDE
100
AcDbCircle
 10
79.5932393728
 20
33.383688284
 30
0.0
 40
0.0393700787401556
100
AcDbArc
 50
0.0
 51
90.0
  0
ARC
  5
37B
330
1F
100
AcDbEntity
  8
PROFILES_OUTSIDE
100
AcDbCircle
 10
71.5617433098
 20
23.4113205656
 30
0.0
 40
0.75
100
AcDbArc
 50
120.0
 51
180.0
  0
ARC
  5
37C
330
1F
100
AcDbEntity
  8
PROFILES_OUTSIDE
100
AcDbCircle
 10
70.8117433098
 20
24.7103586713
 30
0.0
 40
0.7500000000000031
100
AcDbArc
 50
300.0
 51
0.0
  0
ARC
  5
37D
330
1F
100
AcDbEntity
  8
PROFILES_OUTSIDE
100
AcDbCircle
 10
70.8117433098
 20
27.0050017522
 30
0.0
 40
0.7500000000000031
100
AcDbArc
 50
0.0
 51
60.0
  0
ARC
  5
37E
330
1F
100
AcDbEntity
  8
PROFILES_OUTSIDE
100
AcDbCircle
 10
71.5617433098
 20
28.3040398579
 30
0.0
 40
0.75
100
AcDbArc
 50
180.0
 51
240.0
  0
ARC
  5
37F
330
1F
100
AcDbEntity
  8
PROFILES_OUTSIDE
100
AcDbCircle
 10
65.6956015775
 20
32.9210898588
 30
0.0
 40
0.236220472440948
100
AcDbArc
 50
180.0
 51
270.0
  0
ARC
  5
380
330
1F
100
AcDbEntity
  8
PROFILES_OUTSIDE
100
AcDbCircle
 10
74.7526881917
 20
32.2124284415
 30
0.0
 40
0.472440944881896
100
AcDbArc
 50
90.0
 51
180.0
  0
ARC
  5
381
330
1F
100
AcDbEntity
  8
PROFILES_OUTSIDE
100
AcDbCircle
 10
65.9671781881
 20
33.2163654493
 30
0.0
 40
0.039370078740159
100
AcDbArc
 50
183.6619355755
 51
270.0
  0
ARC
  5
382
330
1F
100
AcDbEntity
  8
PROFILES_OUTSIDE
100
AcDbCircle
 10
66.307322901
 20
33.1376252919
 30
0.0
 40
0.0393700787401556
100
AcDbArc
 50
65.1121079736
 51
90.0
  0
ARC
  5
383
330
1F
100
AcDbEntity
  8
PROFILES_OUTSIDE
100
AcDbCircle
 10
66.4095515721
 20
33.3579800328
 30
0.0
 40
0.2035433070866204
100
AcDbArc
 50
245.1121079736
 51
72.3995332141
  0
ARC
  5
384
330
1F
100
AcDbEntity
  8
PROFILES_OUTSIDE
100
AcDbCircle
 10
66.4830031524
 20
33.5895222068
 30
0.0
 40
0.0393700787401569
100
AcDbArc
 50
180.0
 51
252.3995332141
  0
ARC
  5
385
330
1F
100
AcDbEntity
  8
PROFILES_OUTSIDE
100
AcDbCircle
 10
71.0893023649
 20
33.1967591501
 30
0.0
 40
0.472440944881896
100
AcDbArc
 50
360.0
 51
90.0
  0
ARC
  5
386
330
1F
100
AcDbEntity
  8
PROFILES_OUTSIDE
100
AcDbCircle
 10
72.0341842547
 20
28.7764808027
 30
0.0
 40
0.472440944881896
100
AcDbArc
 50
180.0
 51
270.0
  0
ARC
  5
387
330
1F
100
AcDbEntity
  8
PROFILES_OUTSIDE
100
AcDbCircle
 10
73.057806302
 20
28.7764808027
 30
0.0
 40
0.472440944881896
100
AcDbArc
 50
270.0
 51
0.0
  0
ARC
  5
388
330
1F
100
AcDbEntity
  8
PROFILES_OUTSIDE
100
AcDbCircle
 10
74.0026881917
 20
33.1967591501
 30
0.0
 40
0.472440944881896
100
AcDbArc
 50
90.0
 51
180.0
  0
ARC
  5
389
330
1F
100
AcDbEntity
  8
PROFILES_OUTSIDE
100
AcDbCircle
 10
78.6089874043
 20
33.5895222068
 30
0.0
 40
0.0393700787401627
100
AcDbArc
 50
287.6004667859
 51
0.0
  0
ARC
  5
38A
330
1F
100
AcDbEntity
  8
PROFILES_OUTSIDE
100
AcDbCircle
 10
78.6824389846
 20
33.3579800328
 30
0.0
 40
0.2035433070866144
100
AcDbArc
 50
107.6004667859
 51
294.8878920264
  0
ARC
  5
38B
330
1F
100
AcDbEntity
  8
PROFILES_OUTSIDE
100
AcDbCircle
 10
78.7846676556
 20
33.1376252919
 30
0.0
 40
0.0393700787401636
100
AcDbArc
 50
90.0
 51
114.8878920264
  0
ARC
  5
38C
330
1F
100
AcDbEntity
  8
PROFILES_OUTSIDE
100
AcDbCircle
 10
79.1248123686
 20
33.2163654493
 30
0.0
 40
0.039370078740159
100
AcDbArc
 50
270.0
 51
356.3380644245
  0
ARC
  5
38D
330
1F
100
AcDbEntity
  8
PROFILES_OUTSIDE
100
AcDbCircle
 10
79.3963889791
 20
32.9210898588
 30
0.0
 40
0.236220472440948
100
AcDbArc
 50
270.0
 51
0.0
  0
ARC
  5
38E
330
1F
100
AcDbEntity
  8
PROFILES_OUTSIDE
100
AcDbCircle
 10
74.7526881917
 20
19.502931982
 30
0.0
 40
0.472440944881896
100
AcDbArc
 50
180.0
 51
270.0
  0
ARC
  5
38F
330
1F
100
AcDbEntity
  8
PROFILES_OUTSIDE
100
AcDbCircle
 10
73.5302472468
 20
28.3040398579
 30
0.0
 40
0.75
100
AcDbArc
 50
300.0
 51
0.0
  0
ARC
  5
390
330
1F
100
AcDbEntity
  8
PROFILES_OUTSIDE
100
AcDbCircle
 10
74.2802472468
 20
27.0050017522
 30
0.0
 40
0.75
100
AcDbArc
 50
120.0
 51
180.0
  0
ARC
  5
391
330
1F
100
AcDbEntity
  8
PROFILES_OUTSIDE
100
AcDbCircle
 10
74.2802472468
 20
24.7103586713
 30
0.0
 40
0.7500000000000062
100
AcDbArc
 50
180.0
 51
240.0
  0
ARC
  5
392
330
1F
100
AcDbEntity
  8
PROFILES_OUTSIDE
100
AcDbCircle
 10
73.5302472468
 20
23.4113205656
 30
0.0
 40
0.75
100
AcDbArc
 50
0.0
 51
60.0
  0
ARC
  5
393
330
1F
100
AcDbEntity
  8
PROFILES_OUTSIDE
100
AcDbCircle
 10
79.3963889791
 20
18.7942705647
 30
0.0
 40
0.236220472440948
100
AcDbArc
 50
0.0
 51
90.0
  0
ARC
  5
394
330
1F
100
AcDbEntity
  8
PROFILES_OUTSIDE
100
AcDbCircle
 10
79.5932393728
 20
18.3316721395
 30
0.0
 40
0.0393700787401556
100
AcDbArc
 50
270.0
 51
0.0
  0
ENDSEC
  0
SECTION
  2
OBJECTS
  0
DICTIONARY
  5
C
330
0
100
AcDbDictionary
  3
ACAD_GROUP
350
D
  3
ACAD_MLINESTYLE
350
17
  3
ACAD_SCALELIST
350
47
  0
DICTIONARY
  5
D
102
{ACAD_REACTORS
330
C
102
}
330
C
100
AcDbDictionary
  0
DICTIONARY
  5
17
102
{ACAD_REACTORS
330
C
102
}
330
C
100
AcDbDictionary
  3
STANDARD
350
18
  0
DICTIONARY
  5
47
102
{ACAD_REACTORS
330
C
102
}
330
C
100
AcDbDictionary
  0
MLINESTYLE
  5
18
102
{ACAD_REACTORS
330
17
102
}
330
17
100
AcDbMlineStyle
  2
Standard
 70
     0
  3

 62
   256
 51
90.0
 52
90.0
 71
     2
 49
0.5
 62
   256
  6
BYLAYER
 49
-0.5
 62
   256
  6
BYLAYER
  0
ENDSEC
  0
EOF
