  0
SECTION
  2
HEADER
  9
$ACADVER
  1
AC1014
  9
$ACADMAINTVER
 70
     9
  9
$DWGCODEPAGE
  3
ANSI_1252
  9
$INSBASE
 10
0.0
 20
0.0
 30
0.0
  9
$EXTMIN
 10
0.0
 20
0.0
 30
0.0
  9
$EXTMAX
 10
2440.0
 20
1220.0
 30
0.0
  9
$LIMMIN
 10
0.0
 20
0.0
  9
$LIMMAX
 10
2440.0
 20
1220.0
  9
$ORTHOMODE
 70
     0
  9
$REGENMODE
 70
     1
  9
$FILLMODE
 70
     1
  9
$QTEXTMODE
 70
     0
  9
$MIRRTEXT
 70
     1
  9
$DRAGMODE
 70
     2
  9
$LTSCALE
 40
1.0
  9
$OSMODE
 70
    37
  9
$ATTMODE
 70
     1
  9
$TEXTSIZE
 40
3.5
  9
$TRACEWID
 40
1.0
  9
$TEXTSTYLE
  7
STANDARD
  9
$CLAYER
  8
0
  9
$CELTYPE
  6
BYLAYER
  9
$CECOLOR
 62
   256
  9
$CELTSCALE
 40
1.0
  9
$DELOBJ
 70
     1
  9
$DISPSILH
 70
     0
  9
$DIMSCALE
 40
1.0
  9
$DIMASZ
 40
3.302
  9
$DIMEXO
 40
1.0
  9
$DIMDLI
 40
3.75
  9
$DIMRND
 40
0.0
  9
$DIMDLE
 40
0.0
  9
$DIMEXE
 40
1.0
  9
$DIMTP
 40
0.0
  9
$DIMTM
 40
0.0
  9
$DIMTXT
 40
4.5861111111
  9
$DIMCEN
 40
2.5
  9
$DIMTSZ
 40
0.0
  9
$DIMTOL
 70
     0
  9
$DIMLIM
 70
     0
  9
$DIMTIH
 70
     1
  9
$DIMTOH
 70
     1
  9
$DIMSE1
 70
     0
  9
$DIMSE2
 70
     0
  9
$DIMTAD
 70
     1
  9
$DIMZIN
 70
     0
  9
$DIMBLK
  1

  9
$DIMASO
 70
     1
  9
$DIMSHO
 70
     1
  9
$DIMPOST
  1

  9
$DIMAPOST
  1

  9
$DIMALT
 70
     0
  9
$DIMALTD
 70
     3
  9
$DIMALTF
 40
0.0393700787
  9
$DIMLFAC
 40
1.0
  9
$DIMTOFL
 70
     1
  9
$DIMTVP
 40
0.0
  9
$DIMTIX
 70
     0
  9
$DIMSOXD
 70
     0
  9
$DIMSAH
 70
     0
  9
$DIMBLK1
  1

  9
$DIMBLK2
  1

  9
$DIMSTYLE
  2
ISO-25
  9
$DIMCLRD
 70
     0
  9
$DIMCLRE
 70
     0
  9
$DIMCLRT
 70
     0
  9
$DIMTFAC
 40
1.0
  9
$DIMGAP
 40
1.524
  9
$DIMJUST
 70
     0
  9
$DIMSD1
 70
     0
  9
$DIMSD2
 70
     0
  9
$DIMTOLJ
 70
     0
  9
$DIMTZIN
 70
     0
  9
$DIMALTZ
 70
     0
  9
$DIMALTTZ
 70
     0
  9
$DIMFIT
 70
     3
  9
$DIMUPT
 70
     0
  9
$DIMUNIT
 70
     2
  9
$DIMDEC
 70
     2
  9
$DIMTDEC
 70
     2
  9
$DIMALTU
 70
     2
  9
$DIMALTTD
 70
     3
  9
$DIMTXSTY
  7
STANDARD
  9
$DIMAUNIT
 70
     0
  9
$LUNITS
 70
     2
  9
$LUPREC
 70
     2
  9
$SKETCHINC
 40
1.0
  9
$FILLETRAD
 40
10.0
  9
$AUNITS
 70
     0
  9
$AUPREC
 70
     2
  9
$MENU
  1
.
  9
$ELEVATION
 40
0.0
  9
$PELEVATION
 40
0.0
  9
$THICKNESS
 40
0.0
  9
$LIMCHECK
 70
     0
  9
$CHAMFERA
 40
0.0
  9
$CHAMFERB
 40
0.0
  9
$CHAMFERC
 40
0.0
  9
$CHAMFERD
 40
0.0
  9
$SKPOLY
 70
     0
  9
$TDCREATE
 40
2457718.74914287
  9
$TDUPDATE
 40
2457718.749143241
  9
$TDINDWG
 40
0.0000000116
  9
$TDUSRTIMER
 40
0.0000000116
  9
$USRTIMER
 70
     1
  9
$ANGBASE
 50
0.0
  9
$ANGDIR
 70
     0
  9
$PDMODE
 70
     0
  9
$PDSIZE
 40
-1.0
  9
$PLINEWID
 40
0.0
  9
$COORDS
 70
     1
  9
$SPLFRAME
 70
     0
  9
$SPLINETYPE
 70
     6
  9
$SPLINESEGS
 70
     8
  9
$ATTDIA
 70
     0
  9
$ATTREQ
 70
     1
  9
$HANDLING
 70
     1
  9
$HANDSEED
  5
395
  9
$SURFTAB1
 70
     6
  9
$SURFTAB2
 70
     6
  9
$SURFTYPE
 70
     6
  9
$SURFU
 70
     6
  9
$SURFV
 70
     6
  9
$UCSNAME
  2

  9
$UCSORG
 10
0.0
 20
0.0
 30
0.0
  9
$UCSXDIR
 10
1.0
 20
0.0
 30
0.0
  9
$UCSYDIR
 10
0.0
 20
1.0
 30
0.0
  9
$PUCSNAME
  2

  9
$PUCSORG
 10
0.0
 20
0.0
 30
0.0
  9
$PUCSXDIR
 10
1.0
 20
0.0
 30
0.0
  9
$PUCSYDIR
 10
0.0
 20
1.0
 30
0.0
  9
$USERI1
 70
     0
  9
$USERI2
 70
     0
  9
$USERI3
 70
     0
  9
$USERI4
 70
     0
  9
$USERI5
 70
     0
  9
$USERR1
 40
0.0
  9
$USERR2
 40
0.0
  9
$USERR3
 40
0.0
  9
$USERR4
 40
0.0
  9
$USERR5
 40
0.0
  9
$WORLDVIEW
 70
     1
  9
$SHADEDGE
 70
     3
  9
$SHADEDIF
 70
    70
  9
$TILEMODE
 70
     1
  9
$MAXACTVP
 70
    64
  9
$PINSBASE
 10
0.0
 20
0.0
 30
0.0
  9
$PLIMCHECK
 70
     0
  9
$PEXTMIN
 10
1.0000000000E+20
 20
1.0000000000E+20
 30
1.0000000000E+20
  9
$PEXTMAX
 10
-1.0000000000E+20
 20
-1.0000000000E+20
 30
-1.0000000000E+20
  9
$PLIMMIN
 10
0.0
 20
0.0
  9
$PLIMMAX
 10
420.0
 20
297.0
  9
$UNITMODE
 70
     0
  9
$VISRETAIN
 70
     1
  9
$PLINEGEN
 70
     0
  9
$PSLTSCALE
 70
     1
  9
$TREEDEPTH
 70
  3020
  9
$PICKSTYLE
 70
     1
  9
$CMLSTYLE
  2
STANDARD
  9
$CMLJUST
 70
     0
  9
$CMLSCALE
 40
20.0
  9
$PROXYGRAPHICS
 70
     1
  9
$MEASUREMENT
 70
     1
  0
ENDSEC
  0
SECTION
  2
CLASSES
  0
CLASS
  1
ACDBDICTIONARYWDFLT
  2
AcDbDictionaryWithDefault
  3
ObjectDBX Classes
 90
        0
280
     0
281
     0
  0
CLASS
  1
VISUALSTYLE
  2
AcDbVisualStyle
  3
ObjectDBX Classes
 90
     4095
280
     0
281
     0
  0
CLASS
  1
MATERIAL
  2
AcDbMaterial
  3
ObjectDBX Classes
 90
     1153
280
     0
281
     0
  0
CLASS
  1
SCALE
  2
AcDbScale
  3
ObjectDBX Classes
 90
     1153
280
     0
281
     0
  0
CLASS
  1
TABLESTYLE
  2
AcDbTableStyle
  3
ObjectDBX Classes
 90
     4095
280
     0
281
     0
  0
CLASS
  1
MLEADERSTYLE
  2
AcDbMLeaderStyle
  3
ACDB_MLEADERSTYLE_CLASS
 90
     4095
280
     0
281
     0
  0
CLASS
  1
SUN
  2
AcDbSun
  3
SCENEOE
 90
     1153
280
     0
281
     0
  0
CLASS
  1
XRECORD
  2
AcDbXrecord
  3
ObjectDBX Classes
 90
        0
280
     0
281
     0
  0
CLASS
  1
LWPOLYLINE
  2
AcDbPolyline
  3
ObjectDBX Classes
 90
        0
280
     0
281
     1
  0
CLASS
  1
HATCH
  2
AcDbHatch
  3
ObjectDBX Classes
 90
        0
280
     0
281
     1
  0
ENDSEC
  0
SECTION
  2
TABLES
  0
TABLE
  2
VPORT
  5
8
330
0
100
AcDbSymbolTable
 70
     1
  0
VPORT
  5
29
330
8
100
AcDbSymbolTableRecord
100
AcDbViewportTableRecord
  2
*ACTIVE
 70
     0
 10
0.0
 20
0.0
 11
1.0
 21
1.0
 12
1220.0
 22
610.0
 13
0.0
 23
0.0
 14
10.0
 24
10.0
 15
10.0
 25
10.0
 16
0.0
 26
0.0
 36
1.0
 17
0.0
 27
0.0
 37
0.0
 40
1220.0
 41
2.0
 42
50.0
 43
0.0
 44
0.0
 50
0.0
 51
0.0
 71
     0
 72
  2000
 73
     1
 74
     3
 75
     0
 76
     0
 77
     0
 78
     0
  0
ENDTAB
  0
TABLE
  2
LTYPE
  5
5
330
0
100
AcDbSymbolTable
 70
     6
  0
LTYPE
  5
14
330
5
100
AcDbSymbolTableRecord
100
AcDbLinetypeTableRecord
  2
BYBLOCK
 70
     0
  3

 72
    65
 73
     0
 40
0.0
  0
LTYPE
  5
15
330
5
100
AcDbSymbolTableRecord
100
AcDbLinetypeTableRecord
  2
BYLAYER
 70
     0
  3

 72
    65
 73
     0
 40
0.0
  0
LTYPE
  5
16
330
5
100
AcDbSymbolTableRecord
100
AcDbLinetypeTableRecord
  2
CONTINUOUS
 70
     0
  3
Solid line
 72
    65
 73
     0
 40
0.0
  0
LTYPE
  5
6E
330
5
100
AcDbSymbolTableRecord
100
AcDbLinetypeTableRecord
  2
HIDDEN
 70
     0
  3
Hidden __ __ __ __ __ __ __ __ __ __ __ __ __ __
 72
    65
 73
     2
 40
1.905
 49
1.27
 74
     0
 49
-0.635
 74
     0
  0
LTYPE
  5
6F
330
5
100
AcDbSymbolTableRecord
100
AcDbLinetypeTableRecord
  2
PHANTOM
 70
     0
  3
Phantom ______  __  __  ______  __  __  ______
 72
    65
 73
     6
 40
12.7
 49
6.35
 74
     0
 49
-1.27
 74
     0
 49
1.27
 74
     0
 49
-1.27
 74
     0
 49
1.27
 74
     0
 49
-1.27
 74
     0
  0
LTYPE
  5
70
330
5
100
AcDbSymbolTableRecord
100
AcDbLinetypeTableRecord
  2
CENTER
 70
     0
  3
Center ____ _ ____ _ ____ _ ____ _ ____ _ ____
 72
    65
 73
     4
 40
10.16
 49
6.35
 74
     0
 49
-1.27
 74
     0
 49
1.27
 74
     0
 49
-1.27
 74
     0
  0
LTYPE
  5
71
330
5
100
AcDbSymbolTableRecord
100
AcDbLinetypeTableRecord
  2
CENTERX2
 70
     0
  3
Center (2x) ________  __  ________  __  _____
 72
    65
 73
     4
 40
20.32
 49
12.7
 74
     0
 49
-2.54
 74
     0
 49
2.54
 74
     0
 49
-2.54
 74
     0
  0
LTYPE
  5
72
330
5
100
AcDbSymbolTableRecord
100
AcDbLinetypeTableRecord
  2
DOT2
 70
     0
  3
Dot (.5x) ........................................
 72
    65
 73
     2
 40
0.635
 49
0.0
 74
     0
 49
-0.635
 74
     0
  0
ENDTAB
  0
TABLE
  2
LAYER
  5
2
330
0
100
AcDbSymbolTable
 70
     6
  0
LAYER
  5
10
330
2
100
AcDbSymbolTableRecord
100
AcDbLayerTableRecord
  2
0
 70
     0
 62
     7
  6
CONTINUOUS
  0
LAYER
  5
73
330
2
100
AcDbSymbolTableRecord
100
AcDbLayerTableRecord
  2
BOX_STOCK
 70
     0
 62
     1
  6
CONTINUOUS
  0
LAYER
  5
74
330
2
100
AcDbSymbolTableRecord
100
AcDbLayerTableRecord
  2
HOLES
 70
     0
 62
    30
  6
CONTINUOUS
  0
LAYER
  5
75
330
2
100
AcDbSymbolTableRecord
100
AcDbLayerTableRecord
  2
POCKETS
 70
     0
 62
   171
  6
CONTINUOUS
  0
LAYER
  5
76
330
2
100
AcDbSymbolTableRecord
100
AcDbLayerTableRecord
  2
PROFILES_OUTSIDE
 70
     0
 62
     6
  6
CONTINUOUS
  0
LAYER
  5
77
330
2
100
AcDbSymbolTableRecord
100
AcDbLayerTableRecord
  2
PROFILES_INSIDE
 70
     0
 62
     4
  6
CONTINUOUS
  0
ENDTAB
  0
TABLE
  2
STYLE
  5
3
330
0
100
AcDbSymbolTable
 70
     1
  0
STYLE
  5
11
330
3
100
AcDbSymbolTableRecord
100
AcDbTextStyleTableRecord
  2
STANDARD
 70
     0
 40
0.0
 41
1.0
 50
0.0
 71
     0
 42
3.5
  3
txt
  4

  0
ENDTAB
  0
TABLE
  2
VIEW
  5
6
330
0
100
AcDbSymbolTable
 70
     0
  0
ENDTAB
  0
TABLE
  2
UCS
  5
7
330
0
100
AcDbSymbolTable
 70
     0
  0
ENDTAB
  0
TABLE
  2
APPID
  5
9
330
0
100
AcDbSymbolTable
 70
     1
  0
APPID
  5
12
330
9
100
AcDbSymbolTableRecord
100
AcDbRegAppTableRecord
  2
ACAD
 70
     0
  0
ENDTAB
  0
TABLE
  2
DIMSTYLE
  5
A
330
0
100
AcDbSymbolTable
 70
     1
  0
DIMSTYLE
105
27
330
A
100
AcDbSymbolTableRecord
100
AcDbDimStyleTableRecord
  2
ISO-25
 70
     0
  3

  4

  5

  6

  7

 40
1.0
 41
2.5
 42
0.625
 43
3.75
 44
1.25
 45
0.0
 46
0.0
 47
0.0
 48
0.0
140
2.5
141
2.5
142
0.0
143
0.0393700787
144
1.0
145
0.0
146
1.0
147
0.625
 71
     0
 72
     0
 73
     0
 74
     0
 75
     0
 76
     0
 77
     1
 78
     8
170
     0
171
     3
172
     1
173
     0
174
     0
175
     0
176
     0
177
     0
178
     0
270
     2
271
     2
272
     2
273
     2
274
     3
340
11
275
     0
280
     0
281
     0
282
     0
283
     0
284
     8
285
     0
286
     0
287
     3
288
     0
  0
ENDTAB
  0
TABLE
  2
BLOCK_RECORD
  5
1
330
0
100
AcDbSymbolTable
 70
     1
  0
BLOCK_RECORD
  5
1F
330
1
100
AcDbSymbolTableRecord
100
AcDbBlockTableRecord
  2
*MODEL_SPACE
  0
BLOCK_RECORD
  5
1B
330
1
100
AcDbSymbolTableRecord
100
AcDbBlockTableRecord
  2
*PAPER_SPACE
  0
BLOCK_RECORD
  5
23
330
1
100
AcDbSymbolTableRecord
100
AcDbBlockTableRecord
  2
*PAPER_SPACE0
  0
ENDTAB
  0
ENDSEC
  0
SECTION
  2
BLOCKS
  0
BLOCK
  5
20
330
1F
100
AcDbEntity
  8
0
100
AcDbBlockBegin
  2
*MODEL_SPACE
 70
     0
 10
0.0
 20
0.0
 30
0.0
  3
*MODEL_SPACE
  1

  0
ENDBLK
  5
21
330
1F
100
AcDbEntity
  8
0
100
AcDbBlockEnd
  0
BLOCK
  5
1C
330
1B
100
AcDbEntity
 67
     1
  8
0
100
AcDbBlockBegin
  2
*PAPER_SPACE
 70
     0
 10
0.0
 20
0.0
 30
0.0
  3
*PAPER_SPACE
  1

  0
ENDBLK
  5
1D
330
1B
100
AcDbEntity
 67
     1
  8
0
100
AcDbBlockEnd
  0
BLOCK
  5
24
330
23
100
AcDbEntity
  8
0
100
AcDbBlockBegin
  2
*PAPER_SPACE0
 70
     0
 10
0.0
 20
0.0
 30
0.0
  3
*PAPER_SPACE0
  1

  0
ENDBLK
  5
25
330
23
100
AcDbEntity
  8
0
100
AcDbBlockEnd
  0
ENDSEC
  0
SECTION
  2
ENTITIES
  0
ARC
  5
78
330
1F
100
AcDbEntity
  8
0
  6
CONTINUOUS
 62
     7
100
AcDbCircle
 10
1665.8682800697
 20
49.0732622726
 30
0.0
 40
6.0
100
AcDbArc
 50
90.0
 51
180.0
  0
LINE
  5
79
330
1F
100
AcDbEntity
  8
0
  6
CONTINUOUS
 62
     7
100
AcDbLine
 10
1783.8182663749
 20
55.073262614
 30
0.0
 11
1665.868303759
 21
55.073262614
 31
0.0
  0
ARC
  5
7A
330
1F
100
AcDbEntity
  8
0
  6
CONTINUOUS
 62
     7
100
AcDbCircle
 10
1783.8182800697
 20
67.0732622726
 30
0.0
 40
12.0
100
AcDbArc
 50
270.0
 51
0.0
  0
LINE
  5
7B
330
1F
100
AcDbEntity
  8
0
  6
CONTINUOUS
 62
     7
100
AcDbLine
 10
1795.818231089
 20
166.1505414665
 30
0.0
 11
1795.818231089
 21
67.073264581
 31
0.0
  0
ARC
  5
7C
330
1F
100
AcDbEntity
  8
0
  6
CONTINUOUS
 62
     7
100
AcDbCircle
 10
1814.8682800697
 20
166.1505423821
 30
0.0
 40
19.04999999999995
100
AcDbArc
 50
120.0
 51
180.0
  0
ARC
  5
7D
330
1F
100
AcDbEntity
  8
0
  6
CONTINUOUS
 62
     7
100
AcDbCircle
 10
1795.8182800697
 20
199.1461102663
 30
0.0
 40
19.05000000000006
100
AcDbArc
 50
300.0
 51
0.0
  0
LINE
  5
7E
330
1F
100
AcDbEntity
  8
0
  6
CONTINUOUS
 62
     7
100
AcDbLine
 10
1814.8682331871
 20
257.2342468918
 30
0.0
 11
1814.8682331871
 21
199.1461081922
 31
0.0
  0
ARC
  5
7F
330
1F
100
AcDbEntity
  8
0
  6
CONTINUOUS
 62
     7
100
AcDbCircle
 10
1795.8182800697
 20
257.2342546074
 30
0.0
 40
19.05000000000006
100
AcDbArc
 50
0.0
 51
60.0
  0
ARC
  5
80
330
1F
100
AcDbEntity
  8
0
  6
CONTINUOUS
 62
     7
100
AcDbCircle
 10
1814.8682800697
 20
290.2298224916
 30
0.0
 40
19.04999999999995
100
AcDbArc
 50
180.0
 51
240.0
  0
LINE
  5
81
330
1F
100
AcDbEntity
  8
0
  6
CONTINUOUS
 62
     7
100
AcDbLine
 10
1795.818231089
 20
389.3071128548
 30
0.0
 11
1795.818231089
 21
290.2298285187
 31
0.0
  0
ARC
  5
82
330
1F
100
AcDbEntity
  8
0
  6
CONTINUOUS
 62
     7
100
AcDbCircle
 10
1783.8182800697
 20
389.3071026011
 30
0.0
 40
12.0
100
AcDbArc
 50
0.0
 51
90.0
  0
LINE
  5
83
330
1F
100
AcDbEntity
  8
0
  6
CONTINUOUS
 62
     7
100
AcDbLine
 10
1665.868303759
 20
401.3071073711
 30
0.0
 11
1783.8182663749
 21
401.3071073711
 31
0.0
  0
ARC
  5
84
330
1F
100
AcDbEntity
  8
0
  6
CONTINUOUS
 62
     7
100
AcDbCircle
 10
1665.8682800697
 20
407.3071026011
 30
0.0
 40
6.0
100
AcDbArc
 50
180.0
 51
270.0
  0
LINE
  5
85
330
1F
100
AcDbEntity
  8
0
  6
CONTINUOUS
 62
     7
100
AcDbLine
 10
1659.8682617973
 20
419.0571023643
 30
0.0
 11
1659.8682617973
 21
407.3070897282
 31
0.0
  0
ARC
  5
86
330
1F
100
AcDbEntity
  8
0
  6
CONTINUOUS
 62
     7
100
AcDbCircle
 10
1660.8682800697
 20
419.0571026011
 30
0.0
 40
1.0
100
AcDbArc
 50
90.0
 51
180.0
  0
LINE
  5
87
330
1F
100
AcDbEntity
  8
0
  6
CONTINUOUS
 62
     7
100
AcDbLine
 10
1660.8683085273
 20
420.0570894897
 30
0.0
 11
1672.1282219719
 21
420.0570894897
 31
0.0
  0
LINE
  5
88
330
1F
100
AcDbEntity
  8
0
  6
CONTINUOUS
 62
     7
100
AcDbLine
 10
1672.1282219719
 20
420.0570894897
 30
0.0
 11
1672.468326075
 21
414.743246001
 31
0.0
  0
ARC
  5
89
330
1F
100
AcDbEntity
  8
0
  6
CONTINUOUS
 62
     7
100
AcDbCircle
 10
1673.4663259768
 20
414.8071026011
 30
0.0
 40
1.00000000000016
100
AcDbArc
 50
183.6619355755
 51
270.0
  0
LINE
  5
8A
330
1F
100
AcDbEntity
  8
0
  6
CONTINUOUS
 62
     7
100
AcDbLine
 10
1673.4663462471
 20
413.8070954502
 30
0.0
 11
1681.406042559
 21
413.8070954502
 31
0.0
  0
ARC
  5
8B
330
1F
100
AcDbEntity
  8
0
  6
CONTINUOUS
 62
     7
100
AcDbCircle
 10
1681.4060016863
 20
412.8071026011
 30
0.0
 40
1.00000000000014
100
AcDbArc
 50
65.1121079736
 51
90.0
  0
ARC
  5
8C
330
1F
100
AcDbEntity
  8
0
  6
CONTINUOUS
 62
     7
100
AcDbCircle
 10
1684.0026099301
 20
418.4041130199
 30
0.0
 40
5.169999999999933
100
AcDbArc
 50
245.1121079736
 51
72.3995332141
  0
ARC
  5
8D
330
1F
100
AcDbEntity
  8
0
  6
CONTINUOUS
 62
     7
100
AcDbCircle
 10
1685.8682800697
 20
424.2852842408
 30
0.0
 40
1.000000000000153
100
AcDbArc
 50
180.0
 51
252.3995332141
  0
LINE
  5
8E
330
1F
100
AcDbEntity
  8
0
  6
CONTINUOUS
 62
     7
100
AcDbLine
 10
1684.8682379554
 20
426.3091100872
 30
0.0
 11
1684.8682379554
 21
424.2852939785
 31
0.0
  0
LINE
  5
8F
330
1F
100
AcDbEntity
  8
0
  6
CONTINUOUS
 62
     7
100
AcDbLine
 10
1802.868268473
 20
426.3091100872
 30
0.0
 11
1684.8682379554
 21
426.3091100872
 31
0.0
  0
ARC
  5
90
330
1F
100
AcDbEntity
  8
0
  6
CONTINUOUS
 62
     7
100
AcDbCircle
 10
1802.8682800697
 20
414.3091026011
 30
0.0
 40
12.0
100
AcDbArc
 50
0.0
 51
90.0
  0
LINE
  5
91
330
1F
100
AcDbEntity
  8
0
  6
CONTINUOUS
 62
     7
100
AcDbLine
 10
1814.8682331871
 20
302.229823035
 30
0.0
 11
1814.8682331871
 21
414.3091155708
 31
0.0
  0
ARC
  5
92
330
1F
100
AcDbEntity
  8
0
  6
CONTINUOUS
 62
     7
100
AcDbCircle
 10
1826.8682800697
 20
302.2298224916
 30
0.0
 40
12.00000000000006
100
AcDbArc
 50
180.0
 51
270.0
  0
LINE
  5
93
330
1F
100
AcDbEntity
  8
0
  6
CONTINUOUS
 62
     7
100
AcDbLine
 10
1852.8682207893
 20
290.2298285187
 30
0.0
 11
1826.8683171104
 21
290.2298285187
 31
0.0
  0
ARC
  5
94
330
1F
100
AcDbEntity
  8
0
  6
CONTINUOUS
 62
     7
100
AcDbCircle
 10
1852.8682800697
 20
302.2298224916
 30
0.0
 40
12.00000000000006
100
AcDbArc
 50
270.0
 51
0.0
  0
LINE
  5
95
330
1F
100
AcDbEntity
  8
0
  6
CONTINUOUS
 62
     7
100
AcDbLine
 10
1864.8683047126
 20
414.3091155708
 30
0.0
 11
1864.8683047126
 21
302.229823035
 31
0.0
  0
ARC
  5
96
330
1F
100
AcDbEntity
  8
0
  6
CONTINUOUS
 62
     7
100
AcDbCircle
 10
1876.8682800697
 20
414.3091026011
 30
0.0
 40
12.0
100
AcDbArc
 50
90.0
 51
180.0
  0
LINE
  5
97
330
1F
100
AcDbEntity
  8
0
  6
CONTINUOUS
 62
     7
100
AcDbLine
 10
1994.8682999443
 20
426.3091100872
 30
0.0
 11
1876.8682694267
 21
426.3091100872
 31
0.0
  0
LINE
  5
98
330
1F
100
AcDbEntity
  8
0
  6
CONTINUOUS
 62
     7
100
AcDbLine
 10
1994.8682999443
 20
424.2852939785
 30
0.0
 11
1994.8682999443
 21
426.3091100872
 31
0.0
  0
ARC
  5
99
330
1F
100
AcDbEntity
  8
0
  6
CONTINUOUS
 62
     7
100
AcDbCircle
 10
1993.8682800697
 20
424.2852842408
 30
0.0
 40
0.9999999999999909
100
AcDbArc
 50
287.6004667859
 51
0.0
  0
ARC
  5
9A
330
1F
100
AcDbEntity
  8
0
  6
CONTINUOUS
 62
     7
100
AcDbCircle
 10
1995.7339502093
 20
418.4041130199
 30
0.0
 40
5.170000000000028
100
AcDbArc
 50
107.6004667859
 51
294.8878920264
  0
ARC
  5
9B
330
1F
100
AcDbEntity
  8
0
  6
CONTINUOUS
 62
     7
100
AcDbCircle
 10
1998.3305584531
 20
412.8071026011
 30
0.0
 40
1.000000000000089
100
AcDbArc
 50
90.0
 51
114.8878920264
  0
LINE
  5
9C
330
1F
100
AcDbEntity
  8
0
  6
CONTINUOUS
 62
     7
100
AcDbLine
 10
1998.33061455
 20
413.8070954502
 30
0.0
 11
2006.2703108619
 21
413.8070954502
 31
0.0
  0
ARC
  5
9D
330
1F
100
AcDbEntity
  8
0
  6
CONTINUOUS
 62
     7
100
AcDbCircle
 10
2006.2702341626
 20
414.8071026011
 30
0.0
 40
1.00000000000016
100
AcDbArc
 50
270.0
 51
356.3380644245
  0
LINE
  5
9E
330
1F
100
AcDbEntity
  8
0
  6
CONTINUOUS
 62
     7
100
AcDbLine
 10
2007.2680926155
 20
414.743246001
 30
0.0
 11
2007.6083159279
 21
420.0570894897
 31
0.0
  0
LINE
  5
9F
330
1F
100
AcDbEntity
  8
0
  6
CONTINUOUS
 62
     7
100
AcDbLine
 10
2007.6083159279
 20
420.0570894897
 30
0.0
 11
2018.8683485817
 21
420.0570894897
 31
0.0
  0
ARC
  5
A0
330
1F
100
AcDbEntity
  8
0
  6
CONTINUOUS
 62
     7
100
AcDbCircle
 10
2018.8682800697
 20
419.0571026011
 30
0.0
 40
1.000000000000455
100
AcDbArc
 50
0.0
 51
90.0
  0
LINE
  5
A1
330
1F
100
AcDbEntity
  8
0
  6
CONTINUOUS
 62
     7
100
AcDbLine
 10
2019.8682761024
 20
407.3070897282
 30
0.0
 11
2019.8682761024
 21
419.0571023643
 31
0.0
  0
ARC
  5
A2
330
1F
100
AcDbEntity
  8
0
  6
CONTINUOUS
 62
     7
100
AcDbCircle
 10
2013.8682800697
 20
407.3071026011
 30
0.0
 40
6.000000000000227
100
AcDbArc
 50
270.0
 51
0.0
  0
LINE
  5
A3
330
1F
100
AcDbEntity
  8
0
  6
CONTINUOUS
 62
     7
100
AcDbLine
 10
1895.9182715248
 20
401.3071073711
 30
0.0
 11
2013.8682341407
 21
401.3071073711
 31
0.0
  0
ARC
  5
A4
330
1F
100
AcDbEntity
  8
0
  6
CONTINUOUS
 62
     7
100
AcDbCircle
 10
1895.9182800697
 20
389.3071026011
 30
0.0
 40
12.0
100
AcDbArc
 50
90.0
 51
180.0
  0
LINE
  5
A5
330
1F
100
AcDbEntity
  8
0
  6
CONTINUOUS
 62
     7
100
AcDbLine
 10
1883.9183068107
 20
290.2298285187
 30
0.0
 11
1883.9183068107
 21
389.3071128548
 31
0.0
  0
ARC
  5
A6
330
1F
100
AcDbEntity
  8
0
  6
CONTINUOUS
 62
     7
100
AcDbCircle
 10
1864.8682800697
 20
290.2298224916
 30
0.0
 40
19.04999999999995
100
AcDbArc
 50
300.0
 51
0.0
  0
ARC
  5
A7
330
1F
100
AcDbEntity
  8
0
  6
CONTINUOUS
 62
     7
100
AcDbCircle
 10
1883.9182800697
 20
257.2342546074
 30
0.0
 40
19.05000000000001
100
AcDbArc
 50
120.0
 51
180.0
  0
LINE
  5
A8
330
1F
100
AcDbEntity
  8
0
  6
CONTINUOUS
 62
     7
100
AcDbLine
 10
1864.8683047126
 20
199.1461081922
 30
0.0
 11
1864.8683047126
 21
257.2342468918
 31
0.0
  0
ARC
  5
A9
330
1F
100
AcDbEntity
  8
0
  6
CONTINUOUS
 62
     7
100
AcDbCircle
 10
1883.9182800697
 20
199.1461102663
 30
0.0
 40
19.05000000000001
100
AcDbArc
 50
180.0
 51
240.0
  0
ARC
  5
AA
330
1F
100
AcDbEntity
  8
0
  6
CONTINUOUS
 62
     7
100
AcDbCircle
 10
1864.8682800697
 20
166.1505423821
 30
0.0
 40
19.04999999999995
100
AcDbArc
 50
0.0
 51
60.0
  0
LINE
  5
AB
330
1F
100
AcDbEntity
  8
0
  6
CONTINUOUS
 62
     7
100
AcDbLine
 10
1883.9183068107
 20
67.073264581
 30
0.0
 11
1883.9183068107
 21
166.1505414665
 31
0.0
  0
ARC
  5
AC
330
1F
100
AcDbEntity
  8
0
  6
CONTINUOUS
 62
     7
100
AcDbCircle
 10
1895.9182800697
 20
67.0732622726
 30
0.0
 40
12.00000000000012
100
AcDbArc
 50
180.0
 51
270.0
  0
LINE
  5
AD
330
1F
100
AcDbEntity
  8
0
  6
CONTINUOUS
 62
     7
100
AcDbLine
 10
2013.8682341407
 20
55.073262614
 30
0.0
 11
1895.9182715248
 21
55.073262614
 31
0.0
  0
ARC
  5
AE
330
1F
100
AcDbEntity
  8
0
  6
CONTINUOUS
 62
     7
100
AcDbCircle
 10
2013.8682800697
 20
49.0732622726
 30
0.0
 40
6.000000000000227
100
AcDbArc
 50
0.0
 51
90.0
  0
LINE
  5
AF
330
1F
100
AcDbEntity
  8
0
  6
CONTINUOUS
 62
     7
100
AcDbLine
 10
2019.8682761024
 20
37.3232638955
 30
0.0
 11
2019.8682761024
 21
49.0732616306
 31
0.0
  0
ARC
  5
B0
330
1F
100
AcDbEntity
  8
0
  6
CONTINUOUS
 62
     7
100
AcDbCircle
 10
2018.8682800697
 20
37.3232622726
 30
0.0
 40
1.000000000000455
100
AcDbArc
 50
270.0
 51
0.0
  0
LINE
  5
B1
330
1F
100
AcDbEntity
  8
0
  6
CONTINUOUS
 62
     7
100
AcDbLine
 10
2018.8683485817
 20
36.323261869
 30
0.0
 11
2007.6083159279
 21
36.323261869
 31
0.0
  0
LINE
  5
B2
330
1F
100
AcDbEntity
  8
0
  6
CONTINUOUS
 62
     7
100
AcDbLine
 10
2007.6083159279
 20
36.323261869
 30
0.0
 11
2007.2680926155
 21
41.6371314347
 31
0.0
  0
ARC
  5
B3
330
1F
100
AcDbEntity
  8
0
  6
CONTINUOUS
 62
     7
100
AcDbCircle
 10
2006.2702341626
 20
41.5732622726
 30
0.0
 40
1.00000000000016
100
AcDbArc
 50
3.6619355755
 51
90.0
  0
LINE
  5
B4
330
1F
100
AcDbEntity
  8
0
  6
CONTINUOUS
 62
     7
100
AcDbLine
 10
2006.2703108619
 20
42.5732633591
 30
0.0
 11
1998.33061455
 21
42.5732633591
 31
0.0
  0
ARC
  5
B5
330
1F
100
AcDbEntity
  8
0
  6
CONTINUOUS
 62
     7
100
AcDbCircle
 10
1998.3305584531
 20
43.5732622726
 30
0.0
 40
1.000000000000076
100
AcDbArc
 50
245.1121079736
 51
270.0
  0
ARC
  5
B6
330
1F
100
AcDbEntity
  8
0
  6
CONTINUOUS
 62
     7
100
AcDbCircle
 10
1995.7339502093
 20
37.9762518538
 30
0.0
 40
5.170000000000016
100
AcDbArc
 50
65.1121079736
 51
252.3995332141
  0
ARC
  5
B7
330
1F
100
AcDbEntity
  8
0
  6
CONTINUOUS
 62
     7
100
AcDbCircle
 10
1993.8682800697
 20
32.0950806329
 30
0.0
 40
0.9999999999999706
100
AcDbArc
 50
0.0
 51
72.3995332141
  0
LINE
  5
B8
330
1F
100
AcDbEntity
  8
0
  6
CONTINUOUS
 62
     7
100
AcDbLine
 10
1994.8682999443
 20
30.0712617606
 30
0.0
 11
1994.8682999443
 21
32.095079732
 31
0.0
  0
LINE
  5
B9
330
1F
100
AcDbEntity
  8
0
  6
CONTINUOUS
 62
     7
100
AcDbLine
 10
1876.8682694267
 20
30.0712617606
 30
0.0
 11
1994.8682999443
 21
30.0712617606
 31
0.0
  0
ARC
  5
BA
330
1F
100
AcDbEntity
  8
0
  6
CONTINUOUS
 62
     7
100
AcDbCircle
 10
1876.8682800697
 20
42.0712622726
 30
0.0
 40
12.00000000000001
100
AcDbArc
 50
180.0
 51
270.0
  0
LINE
  5
BB
330
1F
100
AcDbEntity
  8
0
  6
CONTINUOUS
 62
     7
100
AcDbLine
 10
1864.8683047126
 20
154.1505469501
 30
0.0
 11
1864.8683047126
 21
42.0712618649
 31
0.0
  0
ARC
  5
BC
330
1F
100
AcDbEntity
  8
0
  6
CONTINUOUS
 62
     7
100
AcDbCircle
 10
1852.8682800697
 20
154.1505423821
 30
0.0
 40
12.0
100
AcDbArc
 50
0.0
 51
90.0
  0
LINE
  5
BD
330
1F
100
AcDbEntity
  8
0
  6
CONTINUOUS
 62
     7
100
AcDbLine
 10
1826.8683171104
 20
166.1505414665
 30
0.0
 11
1852.8682207893
 21
166.1505414665
 31
0.0
  0
ARC
  5
BE
330
1F
100
AcDbEntity
  8
0
  6
CONTINUOUS
 62
     7
100
AcDbCircle
 10
1826.8682800697
 20
154.1505423821
 30
0.0
 40
12.0
100
AcDbArc
 50
90.0
 51
180.0
  0
LINE
  5
BF
330
1F
100
AcDbEntity
  8
0
  6
CONTINUOUS
 62
     7
100
AcDbLine
 10
1814.8682331871
 20
42.0712618649
 30
0.0
 11
1814.8682331871
 21
154.1505469501
 31
0.0
  0
ARC
  5
C0
330
1F
100
AcDbEntity
  8
0
  6
CONTINUOUS
 62
     7
100
AcDbCircle
 10
1802.8682800697
 20
42.0712622726
 30
0.0
 40
12.00000000000001
100
AcDbArc
 50
270.0
 51
0.0
  0
LINE
  5
C1
330
1F
100
AcDbEntity
  8
0
  6
CONTINUOUS
 62
     7
100
AcDbLine
 10
1684.8682379554
 20
30.0712617606
 30
0.0
 11
1802.868268473
 21
30.0712617606
 31
0.0
  0
LINE
  5
C2
330
1F
100
AcDbEntity
  8
0
  6
CONTINUOUS
 62
     7
100
AcDbLine
 10
1684.8682379554
 20
32.095079732
 30
0.0
 11
1684.8682379554
 21
30.0712617606
 31
0.0
  0
ARC
  5
C3
330
1F
100
AcDbEntity
  8
0
  6
CONTINUOUS
 62
     7
100
AcDbCircle
 10
1685.8682800697
 20
32.0950806329
 30
0.0
 40
1.0
100
AcDbArc
 50
107.6004667859
 51
180.0
  0
ARC
  5
C4
330
1F
100
AcDbEntity
  8
0
  6
CONTINUOUS
 62
     7
100
AcDbCircle
 10
1684.0026099301
 20
37.9762518538
 30
0.0
 40
5.170000000000043
100
AcDbArc
 50
287.6004667859
 51
114.8878920264
  0
ARC
  5
C5
330
1F
100
AcDbEntity
  8
0
  6
CONTINUOUS
 62
     7
100
AcDbCircle
 10
1681.4060016863
 20
43.5732622726
 30
0.0
 40
0.9999999999999727
100
AcDbArc
 50
270.0
 51
294.8878920264
  0
LINE
  5
C6
330
1F
100
AcDbEntity
  8
0
  6
CONTINUOUS
 62
     7
100
AcDbLine
 10
1681.406042559
 20
42.5732633591
 30
0.0
 11
1673.4663462471
 21
42.5732633591
 31
0.0
  0
ARC
  5
C7
330
1F
100
AcDbEntity
  8
0
  6
CONTINUOUS
 62
     7
100
AcDbCircle
 10
1673.4663259768
 20
41.5732622726
 30
0.0
 40
1.00000000000016
100
AcDbArc
 50
90.0
 51
176.3380644245
  0
LINE
  5
C8
330
1F
100
AcDbEntity
  8
0
  6
CONTINUOUS
 62
     7
100
AcDbLine
 10
1672.468326075
 20
41.6371314347
 30
0.0
 11
1672.1282219719
 21
36.323261869
 31
0.0
  0
LINE
  5
C9
330
1F
100
AcDbEntity
  8
0
  6
CONTINUOUS
 62
     7
100
AcDbLine
 10
1672.1282219719
 20
36.323261869
 30
0.0
 11
1660.8683085273
 21
36.323261869
 31
0.0
  0
ARC
  5
CA
330
1F
100
AcDbEntity
  8
0
  6
CONTINUOUS
 62
     7
100
AcDbCircle
 10
1660.8682800697
 20
37.3232622726
 30
0.0
 40
1.0
100
AcDbArc
 50
180.0
 51
270.0
  0
LINE
  5
CB
330
1F
100
AcDbEntity
  8
0
  6
CONTINUOUS
 62
     7
100
AcDbLine
 10
1659.8682617973
 20
49.0732616306
 30
0.0
 11
1659.8682617973
 21
37.3232638955
 31
0.0
  0
ARC
  5
CC
330
1F
100
AcDbEntity
  8
0
  6
CONTINUOUS
 62
     7
100
AcDbCircle
 10
2013.8682800697
 20
835.0209429295
 30
0.0
 40
6.000000000000227
100
AcDbArc
 50
270.0
 51
0.0
  0
LINE
  5
CD
330
1F
100
AcDbEntity
  8
0
  6
CONTINUOUS
 62
     7
100
AcDbLine
 10
1895.9182715248
 20
829.020948571
 30
0.0
 11
2013.8682341407
 21
829.020948571
 31
0.0
  0
ARC
  5
CE
330
1F
100
AcDbEntity
  8
0
  6
CONTINUOUS
 62
     7
100
AcDbCircle
 10
1895.9182800697
 20
817.0209429295
 30
0.0
 40
12.0
100
AcDbArc
 50
90.0
 51
180.0
  0
LINE
  5
CF
330
1F
100
AcDbEntity
  8
0
  6
CONTINUOUS
 62
     7
100
AcDbLine
 10
1883.9183068107
 20
717.9436399162
 30
0.0
 11
1883.9183068107
 21
817.0209242523
 31
0.0
  0
ARC
  5
D0
330
1F
100
AcDbEntity
  8
0
  6
CONTINUOUS
 62
     7
100
AcDbCircle
 10
1864.8682800697
 20
717.94366282
 30
0.0
 40
19.05
100
AcDbArc
 50
300.0
 51
0.0
  0
ARC
  5
D1
330
1F
100
AcDbEntity
  8
0
  6
CONTINUOUS
 62
     7
100
AcDbCircle
 10
1883.9182800697
 20
684.9480949358
 30
0.0
 40
19.05000000000001
100
AcDbArc
 50
120.0
 51
180.0
  0
LINE
  5
D2
330
1F
100
AcDbEntity
  8
0
  6
CONTINUOUS
 62
     7
100
AcDbLine
 10
1864.8683047126
 20
626.859934491
 30
0.0
 11
1864.8683047126
 21
684.948117894
 31
0.0
  0
ARC
  5
D3
330
1F
100
AcDbEntity
  8
0
  6
CONTINUOUS
 62
     7
100
AcDbCircle
 10
1883.9182800697
 20
626.8599505947
 30
0.0
 40
19.05000000000001
100
AcDbArc
 50
180.0
 51
240.0
  0
ARC
  5
D4
330
1F
100
AcDbEntity
  8
0
  6
CONTINUOUS
 62
     7
100
AcDbCircle
 10
1864.8682800697
 20
593.8643827105
 30
0.0
 40
19.04999999999995
100
AcDbArc
 50
0.0
 51
60.0
  0
LINE
  5
D5
330
1F
100
AcDbEntity
  8
0
  6
CONTINUOUS
 62
     7
100
AcDbLine
 10
1883.9183068107
 20
494.7870983303
 30
0.0
 11
1883.9183068107
 21
593.8644124687
 31
0.0
  0
ARC
  5
D6
330
1F
100
AcDbEntity
  8
0
  6
CONTINUOUS
 62
     7
100
AcDbCircle
 10
1895.9182800697
 20
494.7871026011
 30
0.0
 40
12.0
100
AcDbArc
 50
180.0
 51
270.0
  0
LINE
  5
D7
330
1F
100
AcDbEntity
  8
0
  6
CONTINUOUS
 62
     7
100
AcDbLine
 10
2013.8682341407
 20
482.7871038139
 30
0.0
 11
1895.9182715248
 21
482.7871038139
 31
0.0
  0
ARC
  5
D8
330
1F
100
AcDbEntity
  8
0
  6
CONTINUOUS
 62
     7
100
AcDbCircle
 10
2013.8682800697
 20
476.7871026011
 30
0.0
 40
6.000000000000227
100
AcDbArc
 50
0.0
 51
90.0
  0
LINE
  5
D9
330
1F
100
AcDbEntity
  8
0
  6
CONTINUOUS
 62
     7
100
AcDbLine
 10
2019.8682761024
 20
465.0371088207
 30
0.0
 11
2019.8682761024
 21
476.7870916546
 31
0.0
  0
ARC
  5
DA
330
1F
100
AcDbEntity
  8
0
  6
CONTINUOUS
 62
     7
100
AcDbCircle
 10
2018.8682800697
 20
465.0371026011
 30
0.0
 40
1.000000000000455
100
AcDbArc
 50
270.0
 51
0.0
  0
LINE
  5
DB
330
1F
100
AcDbEntity
  8
0
  6
CONTINUOUS
 62
     7
100
AcDbLine
 10
2018.8683485817
 20
464.037091893
 30
0.0
 11
2007.6083159279
 21
464.037091893
 31
0.0
  0
LINE
  5
DC
330
1F
100
AcDbEntity
  8
0
  6
CONTINUOUS
 62
     7
100
AcDbLine
 10
2007.6083159279
 20
464.037091893
 30
0.0
 11
2007.2680926155
 21
469.350965184
 31
0.0
  0
ARC
  5
DD
330
1F
100
AcDbEntity
  8
0
  6
CONTINUOUS
 62
     7
100
AcDbCircle
 10
2006.2702341626
 20
469.2871026011
 30
0.0
 40
1.00000000000016
100
AcDbArc
 50
3.6619355755
 51
90.0
  0
LINE
  5
DE
330
1F
100
AcDbEntity
  8
0
  6
CONTINUOUS
 62
     7
100
AcDbLine
 10
2006.2703108619
 20
470.2871157349
 30
0.0
 11
1998.33061455
 21
470.2871157349
 31
0.0
  0
ARC
  5
DF
330
1F
100
AcDbEntity
  8
0
  6
CONTINUOUS
 62
     7
100
AcDbCircle
 10
1998.3305584531
 20
471.2871026011
 30
0.0
 40
1.000000000000089
100
AcDbArc
 50
245.1121079736
 51
270.0
  0
ARC
  5
E0
330
1F
100
AcDbEntity
  8
0
  6
CONTINUOUS
 62
     7
100
AcDbCircle
 10
1995.7339502093
 20
465.6900921823
 30
0.0
 40
5.169999999999933
100
AcDbArc
 50
65.1121079736
 51
252.3995332141
  0
ARC
  5
E1
330
1F
100
AcDbEntity
  8
0
  6
CONTINUOUS
 62
     7
100
AcDbCircle
 10
1993.8682800697
 20
459.8089209613
 30
0.0
 40
1.000000000000099
100
AcDbArc
 50
0.0
 51
72.3995332141
  0
LINE
  5
E2
330
1F
100
AcDbEntity
  8
0
  6
CONTINUOUS
 62
     7
100
AcDbLine
 10
1994.8682999443
 20
457.7851010979
 30
0.0
 11
1994.8682999443
 21
459.8089172066
 31
0.0
  0
ARC
  5
E3
330
1F
100
AcDbEntity
  8
0
  6
CONTINUOUS
 62
     7
100
AcDbCircle
 10
1876.8682800697
 20
469.7851026011
 30
0.0
 40
12.00000000000006
100
AcDbArc
 50
180.0
 51
270.0
  0
LINE
  5
E4
330
1F
100
AcDbEntity
  8
0
  6
CONTINUOUS
 62
     7
100
AcDbLine
 10
1864.8683047126
 20
581.86438815
 30
0.0
 11
1864.8683047126
 21
469.7850956142
 31
0.0
  0
ARC
  5
E5
330
1F
100
AcDbEntity
  8
0
  6
CONTINUOUS
 62
     7
100
AcDbCircle
 10
1852.8682800697
 20
581.8643827105
 30
0.0
 40
12.0
100
AcDbArc
 50
0.0
 51
90.0
  0
LINE
  5
E6
330
1F
100
AcDbEntity
  8
0
  6
CONTINUOUS
 62
     7
100
AcDbLine
 10
1826.8683171104
 20
593.8644124687
 30
0.0
 11
1852.8682207893
 21
593.8644124687
 31
0.0
  0
ARC
  5
E7
330
1F
100
AcDbEntity
  8
0
  6
CONTINUOUS
 62
     7
100
AcDbCircle
 10
1826.8682800697
 20
581.8643827105
 30
0.0
 40
12.0
100
AcDbArc
 50
90.0
 51
180.0
  0
LINE
  5
E8
330
1F
100
AcDbEntity
  8
0
  6
CONTINUOUS
 62
     7
100
AcDbLine
 10
1814.8682331871
 20
469.7850956142
 30
0.0
 11
1814.8682331871
 21
581.86438815
 31
0.0
  0
LINE
  5
E9
330
1F
100
AcDbEntity
  8
0
  6
CONTINUOUS
 62
     7
100
AcDbLine
 10
1684.8682379554
 20
457.7851010979
 30
0.0
 11
1802.868268473
 21
457.7851010979
 31
0.0
  0
LINE
  5
EA
330
1F
100
AcDbEntity
  8
0
  6
CONTINUOUS
 62
     7
100
AcDbLine
 10
1684.8682379554
 20
459.8089172066
 30
0.0
 11
1684.8682379554
 21
457.7851010979
 31
0.0
  0
ARC
  5
EB
330
1F
100
AcDbEntity
  8
0
  6
CONTINUOUS
 62
     7
100
AcDbCircle
 10
1685.8682800697
 20
459.8089209613
 30
0.0
 40
0.9999999999999367
100
AcDbArc
 50
107.6004667859
 51
180.0
  0
ARC
  5
EC
330
1F
100
AcDbEntity
  8
0
  6
CONTINUOUS
 62
     7
100
AcDbCircle
 10
1684.0026099301
 20
465.6900921823
 30
0.0
 40
5.170000000000028
100
AcDbArc
 50
287.6004667859
 51
114.8878920264
  0
ARC
  5
ED
330
1F
100
AcDbEntity
  8
0
  6
CONTINUOUS
 62
     7
100
AcDbCircle
 10
1681.4060016863
 20
471.2871026011
 30
0.0
 40
1.000000000000037
100
AcDbArc
 50
270.0
 51
294.8878920264
  0
LINE
  5
EE
330
1F
100
AcDbEntity
  8
0
  6
CONTINUOUS
 62
     7
100
AcDbLine
 10
1681.406042559
 20
470.2871157349
 30
0.0
 11
1673.4663462471
 21
470.2871157349
 31
0.0
  0
ARC
  5
EF
330
1F
100
AcDbEntity
  8
0
  6
CONTINUOUS
 62
     7
100
AcDbCircle
 10
1673.4663259768
 20
469.2871026011
 30
0.0
 40
1.00000000000016
100
AcDbArc
 50
90.0
 51
176.3380644245
  0
LINE
  5
F0
330
1F
100
AcDbEntity
  8
0
  6
CONTINUOUS
 62
     7
100
AcDbLine
 10
1672.468326075
 20
469.350965184
 30
0.0
 11
1672.1282219719
 21
464.037091893
 31
0.0
  0
LINE
  5
F1
330
1F
100
AcDbEntity
  8
0
  6
CONTINUOUS
 62
     7
100
AcDbLine
 10
1672.1282219719
 20
464.037091893
 30
0.0
 11
1660.8683085273
 21
464.037091893
 31
0.0
  0
ARC
  5
F2
330
1F
100
AcDbEntity
  8
0
  6
CONTINUOUS
 62
     7
100
AcDbCircle
 10
1660.8682800697
 20
465.0371026011
 30
0.0
 40
1.0
100
AcDbArc
 50
180.0
 51
270.0
  0
LINE
  5
F3
330
1F
100
AcDbEntity
  8
0
  6
CONTINUOUS
 62
     7
100
AcDbLine
 10
1659.8682617973
 20
476.7870916546
 30
0.0
 11
1659.8682617973
 21
465.0371088207
 31
0.0
  0
ARC
  5
F4
330
1F
100
AcDbEntity
  8
0
  6
CONTINUOUS
 62
     7
100
AcDbCircle
 10
1665.8682800697
 20
476.7871026011
 30
0.0
 40
6.0
100
AcDbArc
 50
90.0
 51
180.0
  0
LINE
  5
F5
330
1F
100
AcDbEntity
  8
0
  6
CONTINUOUS
 62
     7
100
AcDbLine
 10
1783.8182663749
 20
482.7871038139
 30
0.0
 11
1665.868303759
 21
482.7871038139
 31
0.0
  0
ARC
  5
F6
330
1F
100
AcDbEntity
  8
0
  6
CONTINUOUS
 62
     7
100
AcDbCircle
 10
1783.8182800697
 20
494.7871026011
 30
0.0
 40
12.0
100
AcDbArc
 50
270.0
 51
0.0
  0
LINE
  5
F7
330
1F
100
AcDbEntity
  8
0
  6
CONTINUOUS
 62
     7
100
AcDbLine
 10
1795.818231089
 20
593.8644124687
 30
0.0
 11
1795.818231089
 21
494.7870983303
 31
0.0
  0
ARC
  5
F8
330
1F
100
AcDbEntity
  8
0
  6
CONTINUOUS
 62
     7
100
AcDbCircle
 10
1814.8682800697
 20
593.8643827105
 30
0.0
 40
19.04999999999995
100
AcDbArc
 50
120.0
 51
180.0
  0
ARC
  5
F9
330
1F
100
AcDbEntity
  8
0
  6
CONTINUOUS
 62
     7
100
AcDbCircle
 10
1795.8182800697
 20
626.8599505947
 30
0.0
 40
19.05000000000001
100
AcDbArc
 50
300.0
 51
0.0
  0
LINE
  5
FA
330
1F
100
AcDbEntity
  8
0
  6
CONTINUOUS
 62
     7
100
AcDbLine
 10
1814.8682331871
 20
684.948117894
 30
0.0
 11
1814.8682331871
 21
626.859934491
 31
0.0
  0
ARC
  5
FB
330
1F
100
AcDbEntity
  8
0
  6
CONTINUOUS
 62
     7
100
AcDbCircle
 10
1795.8182800697
 20
684.9480949358
 30
0.0
 40
19.05000000000001
100
AcDbArc
 50
0.0
 51
60.0
  0
ARC
  5
FC
330
1F
100
AcDbEntity
  8
0
  6
CONTINUOUS
 62
     7
100
AcDbCircle
 10
1814.8682800697
 20
717.94366282
 30
0.0
 40
19.05
100
AcDbArc
 50
180.0
 51
240.0
  0
LINE
  5
FD
330
1F
100
AcDbEntity
  8
0
  6
CONTINUOUS
 62
     7
100
AcDbLine
 10
1795.818231089
 20
817.0209242523
 30
0.0
 11
1795.818231089
 21
717.9436399162
 31
0.0
  0
ARC
  5
FE
330
1F
100
AcDbEntity
  8
0
  6
CONTINUOUS
 62
     7
100
AcDbCircle
 10
1783.8182800697
 20
817.0209429295
 30
0.0
 40
12.00000000000011
100
AcDbArc
 50
0.0
 51
90.0
  0
LINE
  5
FF
330
1F
100
AcDbEntity
  8
0
  6
CONTINUOUS
 62
     7
100
AcDbLine
 10
1665.868303759
 20
829.020948571
 30
0.0
 11
1783.8182663749
 21
829.020948571
 31
0.0
  0
ARC
  5
100
330
1F
100
AcDbEntity
  8
0
  6
CONTINUOUS
 62
     7
100
AcDbCircle
 10
1665.8682800697
 20
835.0209429295
 30
0.0
 40
6.0
100
AcDbArc
 50
180.0
 51
270.0
  0
LINE
  5
101
330
1F
100
AcDbEntity
  8
0
  6
CONTINUOUS
 62
     7
100
AcDbLine
 10
1659.8682617973
 20
846.7709137619
 30
0.0
 11
1659.8682617973
 21
835.020930928
 31
0.0
  0
ARC
  5
102
330
1F
100
AcDbEntity
  8
0
  6
CONTINUOUS
 62
     7
100
AcDbCircle
 10
1660.8682800697
 20
846.7709429295
 30
0.0
 40
1.0
100
AcDbArc
 50
90.0
 51
180.0
  0
LINE
  5
103
330
1F
100
AcDbEntity
  8
0
  6
CONTINUOUS
 62
     7
100
AcDbLine
 10
1660.8683085273
 20
847.7709604919
 30
0.0
 11
1672.1282219719
 21
847.7709604919
 31
0.0
  0
LINE
  5
104
330
1F
100
AcDbEntity
  8
0
  6
CONTINUOUS
 62
     7
100
AcDbLine
 10
1672.1282219719
 20
847.7709604919
 30
0.0
 11
1672.468326075
 21
842.4570872009
 31
0.0
  0
ARC
  5
105
330
1F
100
AcDbEntity
  8
0
  6
CONTINUOUS
 62
     7
100
AcDbCircle
 10
1673.4663259768
 20
842.5209429295
 30
0.0
 40
1.000000000000156
100
AcDbArc
 50
183.6619355755
 51
270.0
  0
LINE
  5
106
330
1F
100
AcDbEntity
  8
0
  6
CONTINUOUS
 62
     7
100
AcDbLine
 10
1673.4663462471
 20
841.5209366501
 30
0.0
 11
1681.406042559
 21
841.5209366501
 31
0.0
  0
ARC
  5
107
330
1F
100
AcDbEntity
  8
0
  6
CONTINUOUS
 62
     7
100
AcDbCircle
 10
1681.4060016863
 20
840.5209429295
 30
0.0
 40
1.000000000000037
100
AcDbArc
 50
65.1121079736
 51
90.0
  0
ARC
  5
108
330
1F
100
AcDbEntity
  8
0
  6
CONTINUOUS
 62
     7
100
AcDbCircle
 10
1684.0026099301
 20
846.1179533483
 30
0.0
 40
5.170000000000028
100
AcDbArc
 50
245.1121079736
 51
72.3995332141
  0
ARC
  5
109
330
1F
100
AcDbEntity
  8
0
  6
CONTINUOUS
 62
     7
100
AcDbCircle
 10
1685.8682800697
 20
851.9991245692
 30
0.0
 40
0.9999999999999909
100
AcDbArc
 50
180.0
 51
252.3995332141
  0
LINE
  5
10A
330
1F
100
AcDbEntity
  8
0
  6
CONTINUOUS
 62
     7
100
AcDbLine
 10
1684.8682379554
 20
854.0229512871
 30
0.0
 11
1684.8682379554
 21
851.9991351784
 31
0.0
  0
LINE
  5
10B
330
1F
100
AcDbEntity
  8
0
  6
CONTINUOUS
 62
     7
100
AcDbLine
 10
1802.868268473
 20
854.0229512871
 30
0.0
 11
1684.8682379554
 21
854.0229512871
 31
0.0
  0
ARC
  5
10C
330
1F
100
AcDbEntity
  8
0
  6
CONTINUOUS
 62
     7
100
AcDbCircle
 10
1802.8682800697
 20
842.0229429295
 30
0.0
 40
12.0
100
AcDbArc
 50
0.0
 51
90.0
  0
LINE
  5
10D
330
1F
100
AcDbEntity
  8
0
  6
CONTINUOUS
 62
     7
100
AcDbLine
 10
1814.8682331871
 20
729.9436642349
 30
0.0
 11
1814.8682331871
 21
842.0229269684
 31
0.0
  0
ARC
  5
10E
330
1F
100
AcDbEntity
  8
0
  6
CONTINUOUS
 62
     7
100
AcDbCircle
 10
1826.8682800697
 20
729.94366282
 30
0.0
 40
12.0
100
AcDbArc
 50
180.0
 51
270.0
  0
LINE
  5
10F
330
1F
100
AcDbEntity
  8
0
  6
CONTINUOUS
 62
     7
100
AcDbLine
 10
1852.8682207893
 20
717.9436399162
 30
0.0
 11
1826.8683171104
 21
717.9436399162
 31
0.0
  0
ARC
  5
110
330
1F
100
AcDbEntity
  8
0
  6
CONTINUOUS
 62
     7
100
AcDbCircle
 10
1852.8682800697
 20
729.94366282
 30
0.0
 40
12.0
100
AcDbArc
 50
270.0
 51
0.0
  0
LINE
  5
111
330
1F
100
AcDbEntity
  8
0
  6
CONTINUOUS
 62
     7
100
AcDbLine
 10
1864.8683047126
 20
842.0229269684
 30
0.0
 11
1864.8683047126
 21
729.9436642349
 31
0.0
  0
ARC
  5
112
330
1F
100
AcDbEntity
  8
0
  6
CONTINUOUS
 62
     7
100
AcDbCircle
 10
1876.8682800697
 20
842.0229429295
 30
0.0
 40
12.0
100
AcDbArc
 50
90.0
 51
180.0
  0
LINE
  5
113
330
1F
100
AcDbEntity
  8
0
  6
CONTINUOUS
 62
     7
100
AcDbLine
 10
1994.8682999443
 20
854.0229512871
 30
0.0
 11
1876.8682694267
 21
854.0229512871
 31
0.0
  0
LINE
  5
114
330
1F
100
AcDbEntity
  8
0
  6
CONTINUOUS
 62
     7
100
AcDbLine
 10
1994.8682999443
 20
851.9991351784
 30
0.0
 11
1994.8682999443
 21
854.0229512871
 31
0.0
  0
ARC
  5
115
330
1F
100
AcDbEntity
  8
0
  6
CONTINUOUS
 62
     7
100
AcDbCircle
 10
1993.8682800697
 20
851.9991245692
 30
0.0
 40
1.0
100
AcDbArc
 50
287.6004667859
 51
0.0
  0
ARC
  5
116
330
1F
100
AcDbEntity
  8
0
  6
CONTINUOUS
 62
     7
100
AcDbCircle
 10
1995.7339502093
 20
846.1179533483
 30
0.0
 40
5.17000000000007
100
AcDbArc
 50
107.6004667859
 51
294.8878920264
  0
ARC
  5
117
330
1F
100
AcDbEntity
  8
0
  6
CONTINUOUS
 62
     7
100
AcDbCircle
 10
1998.3305584531
 20
840.5209429295
 30
0.0
 40
0.999999999999934
100
AcDbArc
 50
90.0
 51
114.8878920264
  0
LINE
  5
118
330
1F
100
AcDbEntity
  8
0
  6
CONTINUOUS
 62
     7
100
AcDbLine
 10
1998.33061455
 20
841.5209366501
 30
0.0
 11
2006.2703108619
 21
841.5209366501
 31
0.0
  0
ARC
  5
119
330
1F
100
AcDbEntity
  8
0
  6
CONTINUOUS
 62
     7
100
AcDbCircle
 10
2006.2702341626
 20
842.5209429295
 30
0.0
 40
1.000000000000156
100
AcDbArc
 50
270.0
 51
356.3380644245
  0
LINE
  5
11A
330
1F
100
AcDbEntity
  8
0
  6
CONTINUOUS
 62
     7
100
AcDbLine
 10
2007.2680926155
 20
842.4570872009
 30
0.0
 11
2007.6083159279
 21
847.7709604919
 31
0.0
  0
LINE
  5
11B
330
1F
100
AcDbEntity
  8
0
  6
CONTINUOUS
 62
     7
100
AcDbLine
 10
2007.6083159279
 20
847.7709604919
 30
0.0
 11
2018.8683485817
 21
847.7709604919
 31
0.0
  0
ARC
  5
11C
330
1F
100
AcDbEntity
  8
0
  6
CONTINUOUS
 62
     7
100
AcDbCircle
 10
2018.8682800697
 20
846.7709429295
 30
0.0
 40
1.000000000000455
100
AcDbArc
 50
0.0
 51
90.0
  0
LINE
  5
11D
330
1F
100
AcDbEntity
  8
0
  6
CONTINUOUS
 62
     7
100
AcDbLine
 10
2019.8682761024
 20
835.020930928
 30
0.0
 11
2019.8682761024
 21
846.7709137619
 31
0.0
  0
LINE
  5
11E
330
1F
100
AcDbEntity
  8
0
  6
CONTINUOUS
 62
     7
100
AcDbLine
 10
1876.8682694267
 20
457.7851010979
 30
0.0
 11
1994.8682999443
 21
457.7851010979
 31
0.0
  0
ARC
  5
11F
330
1F
100
AcDbEntity
  8
0
  6
CONTINUOUS
 62
     7
100
AcDbCircle
 10
1802.8682800697
 20
469.7851026011
 30
0.0
 40
12.00000000000006
100
AcDbArc
 50
270.0
 51
0.0
  0
ARC
  5
120
330
1F
100
AcDbEntity
  8
0
  6
CONTINUOUS
 62
     7
100
AcDbCircle
 10
889.7693264602
 20
409.0002031697
 30
0.0
 40
5.169999999999912
100
AcDbArc
 50
346.0551905845
 51
14.8879034673
  0
ARC
  5
121
330
1F
100
AcDbEntity
  8
0
  6
CONTINUOUS
 62
     7
100
AcDbCircle
 10
895.7322016875
 20
410.5854536308
 30
0.0
 40
1.000000000000003
100
AcDbArc
 50
170.0
 51
194.8879034673
  0
LINE
  5
122
330
1F
100
AcDbEntity
  8
0
  6
CONTINUOUS
 62
     7
100
AcDbLine
 10
895.6877803634
 20
416.0922779262
 30
0.0
 11
894.7473978828
 21
410.7590927303
 31
0.0
  0
ARC
  5
123
330
1F
100
AcDbEntity
  8
0
  6
CONTINUOUS
 62
     7
100
AcDbCircle
 10
896.6726167434
 20
415.918610396
 30
0.0
 40
1.000035084614264
100
AcDbArc
 50
145.1121913085
 51
170.0
  0
ARC
  5
124
330
1F
100
AcDbEntity
  8
0
  6
CONTINUOUS
 62
     7
100
AcDbCircle
 10
891.611499867
 20
419.4476936919
 30
0.0
 40
5.170000000000043
100
AcDbArc
 50
325.1121913085
 51
152.3995433346
  0
ARC
  5
125
330
1F
100
AcDbEntity
  8
0
  6
CONTINUOUS
 62
     7
100
AcDbCircle
 10
886.1436465667
 20
422.3062738092
 30
0.0
 40
0.9999999999999921
100
AcDbArc
 50
260.0000485891
 51
332.3995433346
  0
LINE
  5
126
330
1F
100
AcDbEntity
  8
0
  6
CONTINUOUS
 62
     7
100
AcDbLine
 10
881.9877719711
 20
422.0236255348
 30
0.0
 11
885.9700178932
 21
421.321453017
 31
0.0
  0
ARC
  5
127
330
1F
100
AcDbEntity
  8
0
  6
CONTINUOUS
 62
     7
100
AcDbCircle
 10
882.1614411786
 20
423.0084405798
 30
0.0
 40
1.000000946566149
100
AcDbArc
 50
187.6004769063
 51
260.0000485891
  0
ARC
  5
128
330
1F
100
AcDbEntity
  8
0
  6
CONTINUOUS
 62
     7
100
AcDbCircle
 10
876.0456480877
 20
422.1923677465
 30
0.0
 40
5.169999053433782
100
AcDbArc
 50
7.6004769063
 51
194.8878382498
  0
ARC
  5
129
330
1F
100
AcDbEntity
  8
0
  6
CONTINUOUS
 62
     7
100
AcDbCircle
 10
870.0827742048
 20
420.6071249098
 30
0.0
 40
0.999998634937435
100
AcDbArc
 50
350.0
 51
14.8878382498
  0
LINE
  5
12A
330
1F
100
AcDbEntity
  8
0
  6
CONTINUOUS
 62
     7
100
AcDbLine
 10
870.1272225212
 20
415.1003076256
 30
0.0
 11
871.0676050018
 21
420.4334630192
 31
0.0
  0
ARC
  5
12B
330
1F
100
AcDbEntity
  8
0
  6
CONTINUOUS
 62
     7
100
AcDbCircle
 10
869.1423910117
 20
415.2739468034
 30
0.0
 40
1.000000000000003
100
AcDbArc
 50
325.1121194146
 51
350.0
  0
ARC
  5
12C
330
1F
100
AcDbEntity
  8
0
  6
CONTINUOUS
 62
     7
100
AcDbCircle
 10
874.2034746809
 20
411.7448772243
 30
0.0
 40
5.170000000000059
100
AcDbArc
 50
145.1121194146
 51
173.9447482422
  0
LINE
  5
12D
330
1F
100
AcDbEntity
  8
0
  6
CONTINUOUS
 62
     7
100
AcDbLine
 10
869.0623259376
 20
412.2902466476
 30
0.0
 11
553.955576403
 21
467.8520573795
 31
0.0
  0
ARC
  5
12E
330
1F
100
AcDbEntity
  8
0
  6
CONTINUOUS
 62
     7
100
AcDbCircle
 10
548.9379593507
 20
469.0979690628
 30
0.0
 40
5.170000000000021
100
AcDbArc
 50
346.0551905845
 51
14.8879034673
  0
ARC
  5
12F
330
1F
100
AcDbEntity
  8
0
  6
CONTINUOUS
 62
     7
100
AcDbCircle
 10
554.9008345779
 20
470.683219524
 30
0.0
 40
0.9999999999999225
100
AcDbArc
 50
170.0
 51
194.8879034674
  0
LINE
  5
130
330
1F
100
AcDbEntity
  8
0
  6
CONTINUOUS
 62
     7
100
AcDbLine
 10
554.8563813995
 20
476.1900319279
 30
0.0
 11
553.9159989189
 21
470.8568765343
 31
0.0
  0
ARC
  5
131
330
1F
100
AcDbEntity
  8
0
  6
CONTINUOUS
 62
     7
100
AcDbCircle
 10
555.8412496338
 20
476.0163762892
 30
0.0
 40
1.000035084614384
100
AcDbArc
 50
145.1121913085
 51
170.0
  0
ARC
  5
132
330
1F
100
AcDbEntity
  8
0
  6
CONTINUOUS
 62
     7
100
AcDbCircle
 10
550.7801327574
 20
479.545459585
 30
0.0
 40
5.170000000000011
100
AcDbArc
 50
325.1121913085
 51
152.3995433346
  0
ARC
  5
133
330
1F
100
AcDbEntity
  8
0
  6
CONTINUOUS
 62
     7
100
AcDbCircle
 10
545.3122794572
 20
482.4040397023
 30
0.0
 40
1.000000000000068
100
AcDbArc
 50
260.0000485891
 51
332.3995433346
  0
LINE
  5
134
330
1F
100
AcDbEntity
  8
0
  6
CONTINUOUS
 62
     7
100
AcDbLine
 10
541.1564326118
 20
482.1214093387
 30
0.0
 11
545.1386189293
 21
481.419236821
 31
0.0
  0
ARC
  5
135
330
1F
100
AcDbEntity
  8
0
  6
CONTINUOUS
 62
     7
100
AcDbCircle
 10
541.330074069
 20
483.1062064729
 30
0.0
 40
1.000000946566156
100
AcDbArc
 50
187.6004769063
 51
260.0000485891
  0
ARC
  5
136
330
1F
100
AcDbEntity
  8
0
  6
CONTINUOUS
 62
     7
100
AcDbCircle
 10
535.2142809781
 20
482.2901336397
 30
0.0
 40
5.169999053433902
100
AcDbArc
 50
7.6004769063
 51
194.8878382498
  0
ARC
  5
137
330
1F
100
AcDbEntity
  8
0
  6
CONTINUOUS
 62
     7
100
AcDbCircle
 10
529.2514070953
 20
480.704890803
 30
0.0
 40
0.999998634937435
100
AcDbArc
 50
350.0
 51
14.8878382498
  0
LINE
  5
138
330
1F
100
AcDbEntity
  8
0
  6
CONTINUOUS
 62
     7
100
AcDbLine
 10
529.2958235573
 20
475.1980616272
 30
0.0
 11
530.2362060379
 21
480.5312468231
 31
0.0
  0
ARC
  5
139
330
1F
100
AcDbEntity
  8
0
  6
CONTINUOUS
 62
     7
100
AcDbCircle
 10
528.3110239022
 20
475.3717126965
 30
0.0
 40
0.9999999999999832
100
AcDbArc
 50
325.1121194146
 51
350.0
  0
ARC
  5
13A
330
1F
100
AcDbEntity
  8
0
  6
CONTINUOUS
 62
     7
100
AcDbCircle
 10
533.3721075714
 20
471.8426431175
 30
0.0
 40
5.170000000000115
100
AcDbArc
 50
145.1121194146
 51
173.9447482422
  0
LINE
  5
13B
330
1F
100
AcDbEntity
  8
0
  6
CONTINUOUS
 62
     7
100
AcDbLine
 10
528.2309269737
 20
472.3880006492
 30
0.0
 11
489.4282734226
 21
479.2299582184
 31
0.0
  0
LINE
  5
13C
330
1F
100
AcDbEntity
  8
0
  6
CONTINUOUS
 62
     7
100
AcDbLine
 10
489.4282734226
 20
499.150724572
 30
0.0
 11
489.4282734226
 21
479.2299582184
 31
0.0
  0
ARC
  5
13D
330
1F
100
AcDbEntity
  8
0
  6
CONTINUOUS
 62
     7
100
AcDbCircle
 10
495.4282800697
 20
499.15072333
 30
0.0
 40
6.000000000000114
100
AcDbArc
 50
80.0
 51
180.0
  0
LINE
  5
13E
330
1F
100
AcDbEntity
  8
0
  6
CONTINUOUS
 62
     7
100
AcDbLine
 10
916.4701914619
 20
431.0022308052
 30
0.0
 11
496.4701747726
 21
505.0595714271
 31
0.0
  0
ARC
  5
13F
330
1F
100
AcDbEntity
  8
0
  6
CONTINUOUS
 62
     7
100
AcDbCircle
 10
915.4282800697
 20
425.0933914325
 30
0.0
 40
6.000000000000114
100
AcDbArc
 50
0.0
 51
80.0
  0
LINE
  5
140
330
1F
100
AcDbEntity
  8
0
  6
CONTINUOUS
 62
     7
100
AcDbLine
 10
921.4282846283
 20
403.0567123115
 30
0.0
 11
921.4282846283
 21
425.09338395
 31
0.0
  0
LINE
  5
141
330
1F
100
AcDbEntity
  8
0
  6
CONTINUOUS
 62
     7
100
AcDbLine
 10
921.4282846283
 20
403.0567123115
 30
0.0
 11
894.7869753669
 21
407.7543033779
 31
0.0
  0
ARC
  5
142
330
1F
100
AcDbEntity
  8
0
  6
CONTINUOUS
 62
     7
100
AcDbCircle
 10
533.3721075064
 20
67.5480599849
 30
0.0
 40
5.169999053433806
100
AcDbArc
 50
186.0551898611
 51
214.8878382498
  0
ARC
  5
143
330
1F
100
AcDbEntity
  8
0
  6
CONTINUOUS
 62
     7
100
AcDbCircle
 10
528.3110239022
 20
64.0189960091
 30
0.0
 40
0.999998634937624
100
AcDbArc
 50
10.0
 51
34.8878382498
  0
LINE
  5
144
330
1F
100
AcDbEntity
  8
0
  6
CONTINUOUS
 62
     7
100
AcDbLine
 10
530.2362060379
 20
58.8594651342
 30
0.0
 11
529.2958235573
 21
64.1926428795
 31
0.0
  0
ARC
  5
145
330
1F
100
AcDbEntity
  8
0
  6
CONTINUOUS
 62
     7
100
AcDbCircle
 10
529.2514070953
 20
58.6858179026
 30
0.0
 40
1.000000000000003
100
AcDbArc
 50
345.1121194146
 51
10.0
  0
ARC
  5
146
330
1F
100
AcDbEntity
  8
0
  6
CONTINUOUS
 62
     7
100
AcDbCircle
 10
535.2142829556
 20
57.1005698229
 30
0.0
 40
5.17000000000005
100
AcDbArc
 50
165.1121194146
 51
352.3995433346
  0
ARC
  5
147
330
1F
100
AcDbEntity
  8
0
  6
CONTINUOUS
 62
     7
100
AcDbCircle
 10
541.3300763348
 20
56.2844991502
 30
0.0
 40
1.000000000000041
100
AcDbArc
 50
100.0000485891
 51
172.3995433346
  0
LINE
  5
148
330
1F
100
AcDbEntity
  8
0
  6
CONTINUOUS
 62
     7
100
AcDbLine
 10
545.1386189293
 20
57.9714788616
 30
0.0
 11
541.1564326118
 21
57.2693063438
 31
0.0
  0
ARC
  5
149
330
1F
100
AcDbEntity
  8
0
  6
CONTINUOUS
 62
     7
100
AcDbCircle
 10
545.312280532
 20
56.9866726749
 30
0.0
 40
1.000000000000054
100
AcDbArc
 50
27.6004769063
 51
100.0000485891
  0
ARC
  5
14A
330
1F
100
AcDbEntity
  8
0
  6
CONTINUOUS
 62
     7
100
AcDbCircle
 10
550.7801328224
 20
59.8452547238
 30
0.0
 40
5.170000000000029
100
AcDbArc
 50
207.6004769063
 51
34.8879034673
  0
ARC
  5
14B
330
1F
100
AcDbEntity
  8
0
  6
CONTINUOUS
 62
     7
100
AcDbCircle
 10
555.8412150822
 20
63.3743263241
 30
0.0
 40
1.000000000000003
100
AcDbArc
 50
190.0
 51
214.8879034673
  0
LINE
  5
14C
330
1F
100
AcDbEntity
  8
0
  6
CONTINUOUS
 62
     7
100
AcDbLine
 10
553.9159989189
 20
68.5338391483
 30
0.0
 11
554.8563813995
 21
63.2006763041
 31
0.0
  0
ARC
  5
14D
330
1F
100
AcDbEntity
  8
0
  6
CONTINUOUS
 62
     7
100
AcDbCircle
 10
554.9008691295
 20
68.7074952741
 30
0.0
 40
1.000035084614278
100
AcDbArc
 50
165.1121913085
 51
190.0
  0
ARC
  5
14E
330
1F
100
AcDbEntity
  8
0
  6
CONTINUOUS
 62
     7
100
AcDbCircle
 10
548.9379573732
 20
70.2927448859
 30
0.0
 40
5.170000000000161
100
AcDbArc
 50
345.1121913085
 51
13.9447482422
  0
LINE
  5
14F
330
1F
100
AcDbEntity
  8
0
  6
CONTINUOUS
 62
     7
100
AcDbLine
 10
553.955576403
 20
71.5386434019
 30
0.0
 11
869.0623259376
 21
127.1004615844
 31
0.0
  0
ARC
  5
150
330
1F
100
AcDbEntity
  8
0
  6
CONTINUOUS
 62
     7
100
AcDbCircle
 10
874.2034746159
 20
127.6458258781
 30
0.0
 40
5.169999053433794
100
AcDbArc
 50
186.0551898611
 51
214.8878382498
  0
ARC
  5
151
330
1F
100
AcDbEntity
  8
0
  6
CONTINUOUS
 62
     7
100
AcDbCircle
 10
869.1423910117
 20
124.1167619023
 30
0.0
 40
0.9999986349374375
100
AcDbArc
 50
10.0
 51
34.8878382498
  0
LINE
  5
152
330
1F
100
AcDbEntity
  8
0
  6
CONTINUOUS
 62
     7
100
AcDbLine
 10
871.0676050018
 20
118.9572303117
 30
0.0
 11
870.1272225212
 21
124.290408057
 31
0.0
  0
ARC
  5
153
330
1F
100
AcDbEntity
  8
0
  6
CONTINUOUS
 62
     7
100
AcDbCircle
 10
870.0827742048
 20
118.7835837958
 30
0.0
 40
1.000000000000133
100
AcDbArc
 50
345.1121194146
 51
10.0
  0
ARC
  5
154
330
1F
100
AcDbEntity
  8
0
  6
CONTINUOUS
 62
     7
100
AcDbCircle
 10
876.0456500652
 20
117.1983357161
 30
0.0
 40
5.170000000000042
100
AcDbArc
 50
165.1121194146
 51
352.3995433346
  0
ARC
  5
155
330
1F
100
AcDbEntity
  8
0
  6
CONTINUOUS
 62
     7
100
AcDbCircle
 10
882.1614434444
 20
116.3822650433
 30
0.0
 40
1.000000000000061
100
AcDbArc
 50
100.0000485891
 51
172.3995433346
  0
LINE
  5
156
330
1F
100
AcDbEntity
  8
0
  6
CONTINUOUS
 62
     7
100
AcDbLine
 10
885.9700178932
 20
118.0692477644
 30
0.0
 11
881.9877719711
 21
117.3670752466
 31
0.0
  0
ARC
  5
157
330
1F
100
AcDbEntity
  8
0
  6
CONTINUOUS
 62
     7
100
AcDbCircle
 10
886.1436476416
 20
117.0844385681
 30
0.0
 40
1.000000000000041
100
AcDbArc
 50
27.6004769063
 51
100.0000485891
  0
ARC
  5
158
330
1F
100
AcDbEntity
  8
0
  6
CONTINUOUS
 62
     7
100
AcDbCircle
 10
891.611499932
 20
119.943020617
 30
0.0
 40
5.170000000000012
100
AcDbArc
 50
207.6004769063
 51
34.8879034673
  0
ARC
  5
159
330
1F
100
AcDbEntity
  8
0
  6
CONTINUOUS
 62
     7
100
AcDbCircle
 10
896.6725821918
 20
123.4720922172
 30
0.0
 40
0.9999999999999317
100
AcDbArc
 50
190.0
 51
214.8879034673
  0
LINE
  5
15A
330
1F
100
AcDbEntity
  8
0
  6
CONTINUOUS
 62
     7
100
AcDbLine
 10
894.7473978828
 20
128.6316080511
 30
0.0
 11
895.6877803634
 21
123.2984452069
 31
0.0
  0
ARC
  5
15B
330
1F
100
AcDbEntity
  8
0
  6
CONTINUOUS
 62
     7
100
AcDbCircle
 10
895.7322362391
 20
128.8052611672
 30
0.0
 40
1.000035084614287
100
AcDbArc
 50
165.1121913085
 51
190.0
  0
ARC
  5
15C
330
1F
100
AcDbEntity
  8
0
  6
CONTINUOUS
 62
     7
100
AcDbCircle
 10
889.7693244827
 20
130.390510779
 30
0.0
 40
5.170000000000092
100
AcDbArc
 50
345.1121913085
 51
13.9447482422
  0
LINE
  5
15D
330
1F
100
AcDbEntity
  8
0
  6
CONTINUOUS
 62
     7
100
AcDbLine
 10
894.7869753669
 20
131.6364123047
 30
0.0
 11
921.4282846283
 21
136.3339884699
 31
0.0
  0
LINE
  5
15E
330
1F
100
AcDbEntity
  8
0
  6
CONTINUOUS
 62
     7
100
AcDbLine
 10
921.4282846283
 20
114.2973168314
 30
0.0
 11
921.4282846283
 21
136.3339884699
 31
0.0
  0
ARC
  5
15F
330
1F
100
AcDbEntity
  8
0
  6
CONTINUOUS
 62
     7
100
AcDbCircle
 10
915.4282800697
 20
114.2973172732
 30
0.0
 40
6.000000000000114
100
AcDbArc
 50
280.0
 51
0.0
  0
LINE
  5
160
330
1F
100
AcDbEntity
  8
0
  6
CONTINUOUS
 62
     7
100
AcDbLine
 10
496.4701747726
 20
34.3311386675
 30
0.0
 11
916.4701914619
 21
108.3884699762
 31
0.0
  0
ARC
  5
161
330
1F
100
AcDbEntity
  8
0
  6
CONTINUOUS
 62
     7
100
AcDbCircle
 10
495.4282800697
 20
40.2399853756
 30
0.0
 40
6.000000000000114
100
AcDbArc
 50
180.0
 51
280.0
  0
LINE
  5
162
330
1F
100
AcDbEntity
  8
0
  6
CONTINUOUS
 62
     7
100
AcDbLine
 10
489.4282734226
 20
60.1607388378
 30
0.0
 11
489.4282734226
 21
40.23998366
 31
0.0
  0
LINE
  5
163
330
1F
100
AcDbEntity
  8
0
  6
CONTINUOUS
 62
     7
100
AcDbLine
 10
489.4282734226
 20
60.1607388378
 30
0.0
 11
528.2309269737
 21
67.0026926816
 31
0.0
  0
LINE
  5
164
330
1F
100
AcDbEntity
  8
0
  6
CONTINUOUS
 62
     7
100
AcDbLine
 10
916.4701914619
 20
349.25374524
 30
0.0
 11
906.3863968681
 21
347.475708884
 31
0.0
  0
ARC
  5
165
330
1F
100
AcDbEntity
  8
0
  6
CONTINUOUS
 62
     7
100
AcDbCircle
 10
907.4282800697
 20
341.5668518183
 30
0.0
 40
6.000000000000034
100
AcDbArc
 50
100.0
 51
180.0
  0
LINE
  5
166
330
1F
100
AcDbEntity
  8
0
  6
CONTINUOUS
 62
     7
100
AcDbLine
 10
901.4283037018
 20
341.5668620289
 30
0.0
 11
901.4283037018
 21
197.8238536537
 31
0.0
  0
ARC
  5
167
330
1F
100
AcDbEntity
  8
0
  6
CONTINUOUS
 62
     7
100
AcDbCircle
 10
907.4282800697
 20
197.8238568874
 30
0.0
 40
6.0
100
AcDbArc
 50
180.0
 51
260.0
  0
LINE
  5
168
330
1F
100
AcDbEntity
  8
0
  6
CONTINUOUS
 62
     7
100
AcDbLine
 10
906.3863968681
 20
191.9150067985
 30
0.0
 11
916.4701914619
 21
190.1369704426
 31
0.0
  0
ARC
  5
169
330
1F
100
AcDbEntity
  8
0
  6
CONTINUOUS
 62
     7
100
AcDbCircle
 10
915.4282800697
 20
184.2281216991
 30
0.0
 40
6.000000000000114
100
AcDbArc
 50
0.0
 51
80.0
  0
LINE
  5
16A
330
1F
100
AcDbEntity
  8
0
  6
CONTINUOUS
 62
     7
100
AcDbLine
 10
881.4282631706
 20
142.1565277994
 30
0.0
 11
881.4282631706
 21
397.234172982
 31
0.0
  0
LINE
  5
16B
330
1F
100
AcDbEntity
  8
0
  6
CONTINUOUS
 62
     7
100
AcDbLine
 10
921.4282846283
 20
149.2096050203
 30
0.0
 11
881.4282631706
 21
142.1565277994
 31
0.0
  0
ARC
  5
16C
330
1F
100
AcDbEntity
  8
0
  6
CONTINUOUS
 62
     7
100
AcDbCircle
 10
915.4282800697
 20
355.1625870066
 30
0.0
 40
6.000000000000114
100
AcDbArc
 50
280.0
 51
0.0
  0
LINE
  5
16D
330
1F
100
AcDbEntity
  8
0
  6
CONTINUOUS
 62
     7
100
AcDbLine
 10
881.4282631706
 20
397.234172982
 30
0.0
 11
921.4282846283
 21
390.1810957611
 31
0.0
  0
LINE
  5
16E
330
1F
100
AcDbEntity
  8
0
  6
CONTINUOUS
 62
     7
100
AcDbLine
 10
921.4282846283
 20
149.2096050203
 30
0.0
 11
921.4282846283
 21
184.2281235874
 31
0.0
  0
LINE
  5
16F
330
1F
100
AcDbEntity
  8
0
  6
CONTINUOUS
 62
     7
100
AcDbLine
 10
921.4282846283
 20
355.1625920952
 30
0.0
 11
921.4282846283
 21
390.1810957611
 31
0.0
  0
LINE
  5
170
330
1F
100
AcDbEntity
  8
0
  6
CONTINUOUS
 62
     7
100
AcDbLine
 10
489.4282734226
 20
466.3543714702
 30
0.0
 11
489.4282734226
 21
73.0363442123
 31
0.0
  0
LINE
  5
171
330
1F
100
AcDbEntity
  8
0
  6
CONTINUOUS
 62
     7
100
AcDbLine
 10
869.0882539581
 20
399.4100703419
 30
0.0
 11
869.0882539581
 21
139.9806453407
 31
0.0
  0
LINE
  5
172
330
1F
100
AcDbEntity
  8
0
  6
CONTINUOUS
 62
     7
100
AcDbLine
 10
869.0882539581
 20
139.9806453407
 30
0.0
 11
489.4282734226
 21
73.0363442123
 31
0.0
  0
LINE
  5
173
330
1F
100
AcDbEntity
  8
0
  6
CONTINUOUS
 62
     7
100
AcDbLine
 10
489.4282734226
 20
466.3543714702
 30
0.0
 11
869.0882539581
 21
399.4100703419
 31
0.0
  0
ARC
  5
174
330
1F
100
AcDbEntity
  8
0
  6
CONTINUOUS
 62
     7
100
AcDbCircle
 10
883.6535311035
 20
131.2065814517
 30
0.0
 40
0.9999999999999855
100
AcDbArc
 50
280.0000485891
 51
352.3995433346
  0
LINE
  5
175
330
1F
100
AcDbEntity
  8
0
  6
CONTINUOUS
 62
     7
100
AcDbLine
 10
883.8271713089
 20
130.2217705667
 30
0.0
 11
879.8449849914
 21
129.519598049
 31
0.0
  0
ARC
  5
176
330
1F
100
AcDbEntity
  8
0
  6
CONTINUOUS
 62
     7
100
AcDbCircle
 10
879.6713269063
 20
130.504407927
 30
0.0
 40
0.9999999999999855
100
AcDbArc
 50
207.6004769063
 51
280.0000485891
  0
ARC
  5
177
330
1F
100
AcDbEntity
  8
0
  6
CONTINUOUS
 62
     7
100
AcDbCircle
 10
542.822163994
 20
71.1088155586
 30
0.0
 40
1.000000000000005
100
AcDbArc
 50
280.0000485891
 51
352.3995433346
  0
LINE
  5
178
330
1F
100
AcDbEntity
  8
0
  6
CONTINUOUS
 62
     7
100
AcDbLine
 10
542.9958319496
 20
70.1240091145
 30
0.0
 11
539.0135860275
 21
69.4218365968
 31
0.0
  0
ARC
  5
179
330
1F
100
AcDbEntity
  8
0
  6
CONTINUOUS
 62
     7
100
AcDbCircle
 10
538.8399597968
 20
70.4066420339
 30
0.0
 40
0.9999999999999855
100
AcDbArc
 50
207.6004769063
 51
280.0000485891
  0
ARC
  5
17A
330
1F
100
AcDbEntity
  8
0
  6
CONTINUOUS
 62
     7
100
AcDbCircle
 10
538.8399608716
 20
468.9840630002
 30
0.0
 40
1.000000000000084
100
AcDbArc
 50
80.0000485891
 51
152.3995433346
  0
LINE
  5
17B
330
1F
100
AcDbEntity
  8
0
  6
CONTINUOUS
 62
     7
100
AcDbLine
 10
539.0135860275
 20
469.9688567341
 30
0.0
 11
542.9958319496
 21
469.2667140186
 31
0.0
  0
ARC
  5
17C
330
1F
100
AcDbEntity
  8
0
  6
CONTINUOUS
 62
     7
100
AcDbCircle
 10
542.8221662598
 20
468.2818962296
 30
0.0
 40
1.000000000000028
100
AcDbArc
 50
7.6004769063
 51
80.0000485891
  0
ARC
  5
17D
330
1F
100
AcDbEntity
  8
0
  6
CONTINUOUS
 62
     7
100
AcDbCircle
 10
879.6713279811
 20
408.886297107
 30
0.0
 40
0.9999999999999437
100
AcDbArc
 50
80.0000485891
 51
152.3995433346
  0
LINE
  5
17E
330
1F
100
AcDbEntity
  8
0
  6
CONTINUOUS
 62
     7
100
AcDbLine
 10
879.8449849914
 20
409.8711027325
 30
0.0
 11
883.8271713089
 21
409.1689302147
 31
0.0
  0
ARC
  5
17F
330
1F
100
AcDbEntity
  8
0
  6
CONTINUOUS
 62
     7
100
AcDbCircle
 10
883.6535333693
 20
408.1841303364
 30
0.0
 40
1.000000000000058
100
AcDbArc
 50
7.6004769063
 51
80.0000485891
  0
LINE
  5
180
330
1F
100
AcDbEntity
  8
0
  6
CONTINUOUS
 62
     7
100
AcDbLine
 10
489.4282734226
 20
466.3543714702
 30
0.0
 11
489.4282734226
 21
479.2299582184
 31
0.0
  0
LINE
  5
181
330
1F
100
AcDbEntity
  8
0
  6
CONTINUOUS
 62
     7
100
AcDbLine
 10
489.4282734226
 20
60.1607388378
 30
0.0
 11
489.4282734226
 21
73.0363442123
 31
0.0
  0
ARC
  5
182
330
1F
100
AcDbEntity
  8
0
  6
CONTINUOUS
 62
     7
100
AcDbCircle
 10
874.2034746159
 20
127.6458258781
 30
0.0
 40
5.169999999999987
100
AcDbArc
 50
27.6004769063
 51
186.0551898611
  0
ARC
  5
183
330
1F
100
AcDbEntity
  8
0
  6
CONTINUOUS
 62
     7
100
AcDbCircle
 10
874.2034746809
 20
411.7448772243
 30
0.0
 40
5.170000000000063
100
AcDbArc
 50
173.9447482422
 51
332.3995433346
  0
ARC
  5
184
330
1F
100
AcDbEntity
  8
0
  6
CONTINUOUS
 62
     7
100
AcDbCircle
 10
889.7693244827
 20
130.390510779
 30
0.0
 40
5.170000000000051
100
AcDbArc
 50
13.9447482422
 51
172.3995433346
  0
ARC
  5
185
330
1F
100
AcDbEntity
  8
0
  6
CONTINUOUS
 62
     7
100
AcDbCircle
 10
889.7693264602
 20
409.0002031697
 30
0.0
 40
5.169999999999993
100
AcDbArc
 50
187.6004769063
 51
346.0551905845
  0
LINE
  5
186
330
1F
100
AcDbEntity
  8
0
  6
CONTINUOUS
 62
     7
100
AcDbLine
 10
921.4282846283
 20
149.2096050203
 30
0.0
 11
921.4282846283
 21
136.3339884699
 31
0.0
  0
LINE
  5
187
330
1F
100
AcDbEntity
  8
0
  6
CONTINUOUS
 62
     7
100
AcDbLine
 10
921.4282846283
 20
403.0567123115
 30
0.0
 11
921.4282846283
 21
390.1810957611
 31
0.0
  0
ARC
  5
188
330
1F
100
AcDbEntity
  8
0
  6
CONTINUOUS
 62
     7
100
AcDbCircle
 10
548.9379573732
 20
70.2927448859
 30
0.0
 40
5.170000000000147
100
AcDbArc
 50
13.9447482422
 51
172.3995433346
  0
ARC
  5
189
330
1F
100
AcDbEntity
  8
0
  6
CONTINUOUS
 62
     7
100
AcDbCircle
 10
548.9379593507
 20
469.0979690628
 30
0.0
 40
5.16999999999997
100
AcDbArc
 50
187.6004769063
 51
346.0551905845
  0
ARC
  5
18A
330
1F
100
AcDbEntity
  8
0
  6
CONTINUOUS
 62
     7
100
AcDbCircle
 10
533.3721075714
 20
471.8426431175
 30
0.0
 40
5.170000000000011
100
AcDbArc
 50
173.9447482422
 51
332.3995433346
  0
ARC
  5
18B
330
1F
100
AcDbEntity
  8
0
  6
CONTINUOUS
 62
     7
100
AcDbCircle
 10
533.3721075064
 20
67.5480599849
 30
0.0
 40
5.170000000000019
100
AcDbArc
 50
27.6004769063
 51
186.0551898611
  0
ARC
  5
18C
330
1F
100
AcDbEntity
  8
0
  6
CONTINUOUS
 62
     7
100
AcDbCircle
 10
31.9482800697
 20
40.2399853756
 30
0.0
 40
6.000000000000004
100
AcDbArc
 50
180.0
 51
280.0
  0
LINE
  5
18D
330
1F
100
AcDbEntity
  8
0
  6
CONTINUOUS
 62
     7
100
AcDbLine
 10
25.9482795577
 20
40.23998366
 30
0.0
 11
25.9482795577
 21
60.1607388378
 31
0.0
  0
LINE
  5
18E
330
1F
100
AcDbEntity
  8
0
  6
CONTINUOUS
 62
     7
100
AcDbLine
 10
64.6085506509
 20
66.977584225
 30
0.0
 11
25.9482795577
 21
60.1607388378
 31
0.0
  0
ARC
  5
18F
330
1F
100
AcDbEntity
  8
0
  6
CONTINUOUS
 62
     7
100
AcDbCircle
 10
69.7497043053
 20
67.5229504584
 30
0.0
 40
5.169999053433745
100
AcDbArc
 50
186.0551898611
 51
214.8878382498
  0
ARC
  5
190
330
1F
100
AcDbEntity
  8
0
  6
CONTINUOUS
 62
     7
100
AcDbCircle
 10
64.6886207011
 20
63.9938864826
 30
0.0
 40
0.9999986349374649
100
AcDbArc
 50
10.0
 51
34.8878382498
  0
LINE
  5
191
330
1F
100
AcDbEntity
  8
0
  6
CONTINUOUS
 62
     7
100
AcDbLine
 10
66.613814814
 20
58.8343566776
 30
0.0
 11
65.6734248828
 21
64.1675344229
 31
0.0
  0
ARC
  5
192
330
1F
100
AcDbEntity
  8
0
  6
CONTINUOUS
 62
     7
100
AcDbCircle
 10
65.6290038942
 20
58.6607083762
 30
0.0
 40
1.000000000000045
100
AcDbArc
 50
345.1121194146
 51
10.0
  0
ARC
  5
193
330
1F
100
AcDbEntity
  8
0
  6
CONTINUOUS
 62
     7
100
AcDbCircle
 10
71.5918797545
 20
57.0754602964
 30
0.0
 40
5.170000000000109
100
AcDbArc
 50
165.1121194146
 51
352.3995433346
  0
ARC
  5
194
330
1F
100
AcDbEntity
  8
0
  6
CONTINUOUS
 62
     7
100
AcDbCircle
 10
77.7076731337
 20
56.2593896237
 30
0.0
 40
0.9999999999999127
100
AcDbArc
 50
100.0000485891
 51
172.3995433346
  0
LINE
  5
195
330
1F
100
AcDbEntity
  8
0
  6
CONTINUOUS
 62
     7
100
AcDbLine
 10
81.5162277054
 20
57.946370405
 30
0.0
 11
77.5340264867
 21
57.2441978872
 31
0.0
  0
ARC
  5
196
330
1F
100
AcDbEntity
  8
0
  6
CONTINUOUS
 62
     7
100
AcDbCircle
 10
81.689877331
 20
56.9615631484
 30
0.0
 40
1.00000000000013
100
AcDbArc
 50
27.6004769063
 51
100.0000485891
  0
ARC
  5
197
330
1F
100
AcDbEntity
  8
0
  6
CONTINUOUS
 62
     7
100
AcDbCircle
 10
87.1577296214
 20
59.8201451973
 30
0.0
 40
5.169999999999941
100
AcDbArc
 50
207.6004769063
 51
34.8879034673
  0
ARC
  5
198
330
1F
100
AcDbEntity
  8
0
  6
CONTINUOUS
 62
     7
100
AcDbCircle
 10
92.2188118811
 20
63.3492167976
 30
0.0
 40
1.000000000000029
100
AcDbArc
 50
190.0
 51
214.8879034673
  0
LINE
  5
199
330
1F
100
AcDbEntity
  8
0
  6
CONTINUOUS
 62
     7
100
AcDbLine
 10
90.2936225961
 20
68.5087306917
 30
0.0
 11
91.2340050768
 21
63.1755678475
 31
0.0
  0
ARC
  5
19A
330
1F
100
AcDbEntity
  8
0
  6
CONTINUOUS
 62
     7
100
AcDbCircle
 10
91.2784659284
 20
68.6823857476
 30
0.0
 40
1.000035084614194
100
AcDbArc
 50
165.1121913085
 51
190.0
  0
ARC
  5
19B
330
1F
100
AcDbEntity
  8
0
  6
CONTINUOUS
 62
     7
100
AcDbCircle
 10
85.3155541721
 20
70.2676353594
 30
0.0
 40
5.16999999999994
100
AcDbArc
 50
345.1121913085
 51
13.9447482422
  0
LINE
  5
19C
330
1F
100
AcDbEntity
  8
0
  6
CONTINUOUS
 62
     7
100
AcDbLine
 10
405.5823302101
 20
127.1004615844
 30
0.0
 11
90.3331851791
 21
71.5135349453
 31
0.0
  0
ARC
  5
19D
330
1F
100
AcDbEntity
  8
0
  6
CONTINUOUS
 62
     7
100
AcDbCircle
 10
410.7234746159
 20
127.6458258781
 30
0.0
 40
5.16999905343375
100
AcDbArc
 50
186.0551898611
 51
214.8878382498
  0
ARC
  5
19E
330
1F
100
AcDbEntity
  8
0
  6
CONTINUOUS
 62
     7
100
AcDbCircle
 10
405.6623910117
 20
124.1167619023
 30
0.0
 40
0.9999986349375855
100
AcDbArc
 50
10.0
 51
34.8878382498
  0
LINE
  5
19F
330
1F
100
AcDbEntity
  8
0
  6
CONTINUOUS
 62
     7
100
AcDbLine
 10
407.5875794719
 20
118.9572303117
 30
0.0
 11
406.6471969913
 21
124.290408057
 31
0.0
  0
ARC
  5
1A0
330
1F
100
AcDbEntity
  8
0
  6
CONTINUOUS
 62
     7
100
AcDbCircle
 10
406.6027742048
 20
118.7835837958
 30
0.0
 40
0.9999999999999647
100
AcDbArc
 50
345.1121194146
 51
10.0
  0
ARC
  5
1A1
330
1F
100
AcDbEntity
  8
0
  6
CONTINUOUS
 62
     7
100
AcDbCircle
 10
412.5656500652
 20
117.1983357161
 30
0.0
 40
5.170000000000099
100
AcDbArc
 50
165.1121194146
 51
352.3995433346
  0
ARC
  5
1A2
330
1F
100
AcDbEntity
  8
0
  6
CONTINUOUS
 62
     7
100
AcDbCircle
 10
418.6814434444
 20
116.3822650433
 30
0.0
 40
1.000000000000032
100
AcDbArc
 50
100.0000485891
 51
172.3995433346
  0
LINE
  5
1A3
330
1F
100
AcDbEntity
  8
0
  6
CONTINUOUS
 62
     7
100
AcDbLine
 10
422.4899923633
 20
118.0692477644
 30
0.0
 11
418.5078060459
 21
117.3670752466
 31
0.0
  0
ARC
  5
1A4
330
1F
100
AcDbEntity
  8
0
  6
CONTINUOUS
 62
     7
100
AcDbCircle
 10
422.6636476416
 20
117.0844385681
 30
0.0
 40
1.000000000000006
100
AcDbArc
 50
27.6004769063
 51
100.0000485891
  0
ARC
  5
1A5
330
1F
100
AcDbEntity
  8
0
  6
CONTINUOUS
 62
     7
100
AcDbCircle
 10
428.131499932
 20
119.943020617
 30
0.0
 40
5.170000000000064
100
AcDbArc
 50
207.6004769063
 51
34.8879034673
  0
ARC
  5
1A6
330
1F
100
AcDbEntity
  8
0
  6
CONTINUOUS
 62
     7
100
AcDbCircle
 10
433.1925821918
 20
123.4720922172
 30
0.0
 40
1.000000000000105
100
AcDbArc
 50
190.0
 51
214.8879034673
  0
LINE
  5
1A7
330
1F
100
AcDbEntity
  8
0
  6
CONTINUOUS
 62
     7
100
AcDbLine
 10
431.2674021553
 20
128.6316080511
 30
0.0
 11
432.2077846359
 21
123.2984452069
 31
0.0
  0
ARC
  5
1A8
330
1F
100
AcDbEntity
  8
0
  6
CONTINUOUS
 62
     7
100
AcDbCircle
 10
432.2522362391
 20
128.8052611672
 30
0.0
 40
1.000035084614278
100
AcDbArc
 50
165.1121913085
 51
190.0
  0
ARC
  5
1A9
330
1F
100
AcDbEntity
  8
0
  6
CONTINUOUS
 62
     7
100
AcDbCircle
 10
426.2893244827
 20
130.390510779
 30
0.0
 40
5.17000000000012
100
AcDbArc
 50
345.1121913085
 51
13.9447482422
  0
LINE
  5
1AA
330
1F
100
AcDbEntity
  8
0
  6
CONTINUOUS
 62
     7
100
AcDbLine
 10
457.9482889007
 20
136.3339884699
 30
0.0
 11
431.3069498371
 21
131.6364123047
 31
0.0
  0
ARC
  5
1AB
330
1F
100
AcDbEntity
  8
0
  6
CONTINUOUS
 62
     7
100
AcDbCircle
 10
451.9482800697
 20
114.2973172732
 30
0.0
 40
6.00000000000004
100
AcDbArc
 50
280.0
 51
0.0
  0
LINE
  5
1AC
330
1F
100
AcDbEntity
  8
0
  6
CONTINUOUS
 62
     7
100
AcDbLine
 10
452.9901659321
 20
108.3884699762
 30
0.0
 11
32.9901678692
 21
34.3311386675
 31
0.0
  0
LINE
  5
1AD
330
1F
100
AcDbEntity
  8
0
  6
CONTINUOUS
 62
     7
100
AcDbLine
 10
457.9482889007
 20
136.3339884699
 30
0.0
 11
457.9482889007
 21
114.2973168314
 31
0.0
  0
LINE
  5
1AE
330
1F
100
AcDbEntity
  8
0
  6
CONTINUOUS
 62
     7
100
AcDbLine
 10
442.9064011406
 20
347.475708884
 30
0.0
 11
452.9901659321
 21
349.25374524
 31
0.0
  0
ARC
  5
1AF
330
1F
100
AcDbEntity
  8
0
  6
CONTINUOUS
 62
     7
100
AcDbCircle
 10
443.9482800697
 20
341.5668518183
 30
0.0
 40
6.000000000000034
100
AcDbArc
 50
100.0
 51
180.0
  0
LINE
  5
1B0
330
1F
100
AcDbEntity
  8
0
  6
CONTINUOUS
 62
     7
100
AcDbLine
 10
437.9482781719
 20
197.8238536537
 30
0.0
 11
437.9482781719
 21
341.5668620289
 31
0.0
  0
ARC
  5
1B1
330
1F
100
AcDbEntity
  8
0
  6
CONTINUOUS
 62
     7
100
AcDbCircle
 10
443.9482800697
 20
197.8238568874
 30
0.0
 40
6.0
100
AcDbArc
 50
180.0
 51
260.0
  0
LINE
  5
1B2
330
1F
100
AcDbEntity
  8
0
  6
CONTINUOUS
 62
     7
100
AcDbLine
 10
417.9482674431
 20
142.1565277994
 30
0.0
 11
457.9482889007
 21
149.2096050203
 31
0.0
  0
LINE
  5
1B3
330
1F
100
AcDbEntity
  8
0
  6
CONTINUOUS
 62
     7
100
AcDbLine
 10
417.9482674431
 20
397.234172982
 30
0.0
 11
417.9482674431
 21
142.1565277994
 31
0.0
  0
ARC
  5
1B4
330
1F
100
AcDbEntity
  8
0
  6
CONTINUOUS
 62
     7
100
AcDbCircle
 10
451.9482800697
 20
355.1625870066
 30
0.0
 40
6.000000000000034
100
AcDbArc
 50
280.0
 51
0.0
  0
LINE
  5
1B5
330
1F
100
AcDbEntity
  8
0
  6
CONTINUOUS
 62
     7
100
AcDbLine
 10
457.9482889007
 20
390.1810957611
 30
0.0
 11
417.9482674431
 21
397.234172982
 31
0.0
  0
LINE
  5
1B6
330
1F
100
AcDbEntity
  8
0
  6
CONTINUOUS
 62
     7
100
AcDbLine
 10
452.9901659321
 20
190.1369704426
 30
0.0
 11
442.9064011406
 21
191.9150067985
 31
0.0
  0
LINE
  5
1B7
330
1F
100
AcDbEntity
  8
0
  6
CONTINUOUS
 62
     7
100
AcDbLine
 10
457.9482889007
 20
390.1810957611
 30
0.0
 11
457.9482889007
 21
355.1625920952
 31
0.0
  0
ARC
  5
1B8
330
1F
100
AcDbEntity
  8
0
  6
CONTINUOUS
 62
     7
100
AcDbCircle
 10
451.9482800697
 20
184.2281216991
 30
0.0
 40
6.0
100
AcDbArc
 50
0.0
 51
80.0
  0
LINE
  5
1B9
330
1F
100
AcDbEntity
  8
0
  6
CONTINUOUS
 62
     7
100
AcDbLine
 10
457.9482889007
 20
184.2281235874
 30
0.0
 11
457.9482889007
 21
149.2096050203
 31
0.0
  0
ARC
  5
1BA
330
1F
100
AcDbEntity
  8
0
  6
CONTINUOUS
 62
     7
100
AcDbCircle
 10
31.9482800697
 20
499.15072333
 30
0.0
 40
6.000000000000227
100
AcDbArc
 50
80.0
 51
180.0
  0
ARC
  5
1BB
330
1F
100
AcDbEntity
  8
0
  6
CONTINUOUS
 62
     7
100
AcDbCircle
 10
426.2893264602
 20
409.0002031697
 30
0.0
 40
5.169999999999991
100
AcDbArc
 50
346.0551905845
 51
14.8879034673
  0
ARC
  5
1BC
330
1F
100
AcDbEntity
  8
0
  6
CONTINUOUS
 62
     7
100
AcDbCircle
 10
432.2522016875
 20
410.5854536308
 30
0.0
 40
1.000000000000018
100
AcDbArc
 50
170.0
 51
194.8879034674
  0
LINE
  5
1BD
330
1F
100
AcDbEntity
  8
0
  6
CONTINUOUS
 62
     7
100
AcDbLine
 10
432.2077846359
 20
416.0922779262
 30
0.0
 11
431.2674021553
 21
410.7590927303
 31
0.0
  0
ARC
  5
1BE
330
1F
100
AcDbEntity
  8
0
  6
CONTINUOUS
 62
     7
100
AcDbCircle
 10
433.1926167434
 20
415.918610396
 30
0.0
 40
1.000035084614259
100
AcDbArc
 50
145.1121913085
 51
170.0
  0
ARC
  5
1BF
330
1F
100
AcDbEntity
  8
0
  6
CONTINUOUS
 62
     7
100
AcDbCircle
 10
428.131499867
 20
419.4476936919
 30
0.0
 40
5.17000000000001
100
AcDbArc
 50
325.1121913085
 51
152.3995433346
  0
ARC
  5
1C0
330
1F
100
AcDbEntity
  8
0
  6
CONTINUOUS
 62
     7
100
AcDbCircle
 10
422.6636465667
 20
422.3062738092
 30
0.0
 40
1.000000000000071
100
AcDbArc
 50
260.0000485891
 51
332.3995433346
  0
LINE
  5
1C1
330
1F
100
AcDbEntity
  8
0
  6
CONTINUOUS
 62
     7
100
AcDbLine
 10
418.5078060459
 20
422.0236255348
 30
0.0
 11
422.4899923633
 21
421.321453017
 31
0.0
  0
ARC
  5
1C2
330
1F
100
AcDbEntity
  8
0
  6
CONTINUOUS
 62
     7
100
AcDbCircle
 10
418.6814411786
 20
423.0084405798
 30
0.0
 40
1.000000946566374
100
AcDbArc
 50
187.6004769063
 51
260.0000485891
  0
ARC
  5
1C3
330
1F
100
AcDbEntity
  8
0
  6
CONTINUOUS
 62
     7
100
AcDbCircle
 10
412.5656480877
 20
422.1923677465
 30
0.0
 40
5.169999053433725
100
AcDbArc
 50
7.6004769063
 51
194.8878382498
  0
ARC
  5
1C4
330
1F
100
AcDbEntity
  8
0
  6
CONTINUOUS
 62
     7
100
AcDbCircle
 10
406.6027742048
 20
420.6071249098
 30
0.0
 40
0.9999986349375597
100
AcDbArc
 50
350.0
 51
14.8878382498
  0
LINE
  5
1C5
330
1F
100
AcDbEntity
  8
0
  6
CONTINUOUS
 62
     7
100
AcDbLine
 10
406.6471969913
 20
415.1003076256
 30
0.0
 11
407.5875794719
 21
420.4334630192
 31
0.0
  0
ARC
  5
1C6
330
1F
100
AcDbEntity
  8
0
  6
CONTINUOUS
 62
     7
100
AcDbCircle
 10
405.6623910117
 20
415.2739468034
 30
0.0
 40
0.9999999999999467
100
AcDbArc
 50
325.1121194146
 51
350.0
  0
ARC
  5
1C7
330
1F
100
AcDbEntity
  8
0
  6
CONTINUOUS
 62
     7
100
AcDbCircle
 10
410.7234746809
 20
411.7448772243
 30
0.0
 40
5.169999999999976
100
AcDbArc
 50
145.1121194146
 51
173.9447482422
  0
LINE
  5
1C8
330
1F
100
AcDbEntity
  8
0
  6
CONTINUOUS
 62
     7
100
AcDbLine
 10
90.3331851791
 20
467.8771807373
 30
0.0
 11
405.5823302101
 21
412.2902466476
 31
0.0
  0
ARC
  5
1C9
330
1F
100
AcDbEntity
  8
0
  6
CONTINUOUS
 62
     7
100
AcDbCircle
 10
85.3155561496
 20
469.1230785893
 30
0.0
 40
5.169999999999966
100
AcDbArc
 50
346.0551905845
 51
14.8879034673
  0
ARC
  5
1CA
330
1F
100
AcDbEntity
  8
0
  6
CONTINUOUS
 62
     7
100
AcDbCircle
 10
91.2784313768
 20
470.7083290504
 30
0.0
 40
0.9999999999999329
100
AcDbArc
 50
170.0
 51
194.8879034674
  0
LINE
  5
1CB
330
1F
100
AcDbEntity
  8
0
  6
CONTINUOUS
 62
     7
100
AcDbLine
 10
91.2340050768
 20
476.2151254833
 30
0.0
 11
90.2936225961
 21
470.8819700897
 31
0.0
  0
ARC
  5
1CC
330
1F
100
AcDbEntity
  8
0
  6
CONTINUOUS
 62
     7
100
AcDbCircle
 10
92.2188464327
 20
476.0414858157
 30
0.0
 40
1.000035084614296
100
AcDbArc
 50
145.1121913085
 51
170.0
  0
ARC
  5
1CD
330
1F
100
AcDbEntity
  8
0
  6
CONTINUOUS
 62
     7
100
AcDbCircle
 10
87.1577295564
 20
479.5705691115
 30
0.0
 40
5.169999999999986
100
AcDbArc
 50
325.1121913085
 51
152.3995433346
  0
ARC
  5
1CE
330
1F
100
AcDbEntity
  8
0
  6
CONTINUOUS
 62
     7
100
AcDbCircle
 10
81.6898762561
 20
482.4291492288
 30
0.0
 40
1.000000000000051
100
AcDbArc
 50
260.0000485891
 51
332.3995433346
  0
LINE
  5
1CF
330
1F
100
AcDbEntity
  8
0
  6
CONTINUOUS
 62
     7
100
AcDbLine
 10
77.5340264867
 20
482.1465028942
 30
0.0
 11
81.5162277054
 21
481.4443303764
 31
0.0
  0
ARC
  5
1D0
330
1F
100
AcDbEntity
  8
0
  6
CONTINUOUS
 62
     7
100
AcDbCircle
 10
77.707670868
 20
483.1313159994
 30
0.0
 40
1.000000946566241
100
AcDbArc
 50
187.6004769063
 51
260.0000485891
  0
ARC
  5
1D1
330
1F
100
AcDbEntity
  8
0
  6
CONTINUOUS
 62
     7
100
AcDbCircle
 10
71.591877777
 20
482.3152431662
 30
0.0
 40
5.169999053433824
100
AcDbArc
 50
7.6004769063
 51
194.8878382498
  0
ARC
  5
1D2
330
1F
100
AcDbEntity
  8
0
  6
CONTINUOUS
 62
     7
100
AcDbCircle
 10
65.6290038942
 20
480.7300003295
 30
0.0
 40
0.9999986349375793
100
AcDbArc
 50
350.0
 51
14.8878382498
  0
LINE
  5
1D3
330
1F
100
AcDbEntity
  8
0
  6
CONTINUOUS
 62
     7
100
AcDbLine
 10
65.6734248828
 20
475.223184985
 30
0.0
 11
66.6138073634
 21
480.5563403786
 31
0.0
  0
ARC
  5
1D4
330
1F
100
AcDbEntity
  8
0
  6
CONTINUOUS
 62
     7
100
AcDbCircle
 10
64.6886207011
 20
475.396822223
 30
0.0
 40
0.9999999999999467
100
AcDbArc
 50
325.1121194146
 51
350.0
  0
ARC
  5
1D5
330
1F
100
AcDbEntity
  8
0
  6
CONTINUOUS
 62
     7
100
AcDbCircle
 10
69.7497043703
 20
471.867752644
 30
0.0
 40
5.170000000000032
100
AcDbArc
 50
145.1121194146
 51
173.9447482422
  0
LINE
  5
1D6
330
1F
100
AcDbEntity
  8
0
  6
CONTINUOUS
 62
     7
100
AcDbLine
 10
25.9482795577
 20
479.2299582184
 30
0.0
 11
64.6085506509
 21
472.413124007
 31
0.0
  0
LINE
  5
1D7
330
1F
100
AcDbEntity
  8
0
  6
CONTINUOUS
 62
     7
100
AcDbLine
 10
25.9482795577
 20
479.2299582184
 30
0.0
 11
25.9482795577
 21
499.150724572
 31
0.0
  0
LINE
  5
1D8
330
1F
100
AcDbEntity
  8
0
  6
CONTINUOUS
 62
     7
100
AcDbLine
 10
32.9901678692
 20
505.0595714271
 30
0.0
 11
452.9901659321
 21
431.0022308052
 31
0.0
  0
LINE
  5
1D9
330
1F
100
AcDbEntity
  8
0
  6
CONTINUOUS
 62
     7
100
AcDbLine
 10
457.9482889007
 20
425.09338395
 30
0.0
 11
457.9482889007
 21
403.0567123115
 31
0.0
  0
ARC
  5
1DA
330
1F
100
AcDbEntity
  8
0
  6
CONTINUOUS
 62
     7
100
AcDbCircle
 10
451.9482800697
 20
425.0933914325
 30
0.0
 40
6.000000000000034
100
AcDbArc
 50
0.0
 51
80.0
  0
LINE
  5
1DB
330
1F
100
AcDbEntity
  8
0
  6
CONTINUOUS
 62
     7
100
AcDbLine
 10
431.3069498371
 20
407.7543033779
 30
0.0
 11
457.9482889007
 21
403.0567123115
 31
0.0
  0
LINE
  5
1DC
330
1F
100
AcDbEntity
  8
0
  6
CONTINUOUS
 62
     7
100
AcDbLine
 10
25.9482795577
 20
73.0363442123
 30
0.0
 11
405.6082880329
 21
139.9806453407
 31
0.0
  0
LINE
  5
1DD
330
1F
100
AcDbEntity
  8
0
  6
CONTINUOUS
 62
     7
100
AcDbLine
 10
25.9482795577
 20
73.0363442123
 30
0.0
 11
25.9482795577
 21
466.3543714702
 31
0.0
  0
LINE
  5
1DE
330
1F
100
AcDbEntity
  8
0
  6
CONTINUOUS
 62
     7
100
AcDbLine
 10
405.6082880329
 20
399.4100703419
 30
0.0
 11
25.9482795577
 21
466.3543714702
 31
0.0
  0
LINE
  5
1DF
330
1F
100
AcDbEntity
  8
0
  6
CONTINUOUS
 62
     7
100
AcDbLine
 10
405.6082880329
 20
139.9806453407
 30
0.0
 11
405.6082880329
 21
399.4100703419
 31
0.0
  0
ARC
  5
1E0
330
1F
100
AcDbEntity
  8
0
  6
CONTINUOUS
 62
     7
100
AcDbCircle
 10
420.1735311035
 20
131.2065814517
 30
0.0
 40
1.000000000000041
100
AcDbArc
 50
280.0000485891
 51
352.3995433346
  0
LINE
  5
1E1
330
1F
100
AcDbEntity
  8
0
  6
CONTINUOUS
 62
     7
100
AcDbLine
 10
420.3471755813
 20
130.2217705667
 30
0.0
 11
416.3649892639
 21
129.519598049
 31
0.0
  0
ARC
  5
1E2
330
1F
100
AcDbEntity
  8
0
  6
CONTINUOUS
 62
     7
100
AcDbCircle
 10
416.1913269063
 20
130.504407927
 30
0.0
 40
1.000000000000041
100
AcDbArc
 50
207.6004769063
 51
280.0000485891
  0
ARC
  5
1E3
330
1F
100
AcDbEntity
  8
0
  6
CONTINUOUS
 62
     7
100
AcDbCircle
 10
79.1997607929
 20
71.0837060321
 30
0.0
 40
1.000000000000039
100
AcDbArc
 50
280.0000485891
 51
352.3995433346
  0
LINE
  5
1E4
330
1F
100
AcDbEntity
  8
0
  6
CONTINUOUS
 62
     7
100
AcDbLine
 10
79.3734109234
 20
70.0989006579
 30
0.0
 11
75.3912022542
 21
69.3967281402
 31
0.0
  0
ARC
  5
1E5
330
1F
100
AcDbEntity
  8
0
  6
CONTINUOUS
 62
     7
100
AcDbCircle
 10
75.2175565957
 20
70.3815325074
 30
0.0
 40
1.000000000000041
100
AcDbArc
 50
207.6004769063
 51
280.0000485891
  0
ARC
  5
1E6
330
1F
100
AcDbEntity
  8
0
  6
CONTINUOUS
 62
     7
100
AcDbCircle
 10
75.2175576705
 20
469.0091725267
 30
0.0
 40
0.9999999999999815
100
AcDbArc
 50
80.0000485891
 51
152.3995433346
  0
LINE
  5
1E7
330
1F
100
AcDbEntity
  8
0
  6
CONTINUOUS
 62
     7
100
AcDbLine
 10
75.3912022542
 20
469.9939800918
 30
0.0
 11
79.3734109234
 21
469.2918075741
 31
0.0
  0
ARC
  5
1E8
330
1F
100
AcDbEntity
  8
0
  6
CONTINUOUS
 62
     7
100
AcDbCircle
 10
79.1997630587
 20
468.3070057561
 30
0.0
 40
1.000000000000031
100
AcDbArc
 50
7.6004769063
 51
80.0000485891
  0
ARC
  5
1E9
330
1F
100
AcDbEntity
  8
0
  6
CONTINUOUS
 62
     7
100
AcDbCircle
 10
416.1913279811
 20
408.886297107
 30
0.0
 40
0.9999999999999822
100
AcDbArc
 50
80.0000485891
 51
152.3995433346
  0
LINE
  5
1EA
330
1F
100
AcDbEntity
  8
0
  6
CONTINUOUS
 62
     7
100
AcDbLine
 10
416.3649892639
 20
409.8711027325
 30
0.0
 11
420.3471755813
 21
409.1689302147
 31
0.0
  0
ARC
  5
1EB
330
1F
100
AcDbEntity
  8
0
  6
CONTINUOUS
 62
     7
100
AcDbCircle
 10
420.1735333693
 20
408.1841303364
 30
0.0
 40
1.000000000000028
100
AcDbArc
 50
7.6004769063
 51
80.0000485891
  0
LINE
  5
1EC
330
1F
100
AcDbEntity
  8
0
  6
CONTINUOUS
 62
     7
100
AcDbLine
 10
25.9482795577
 20
73.0363442123
 30
0.0
 11
25.9482795577
 21
60.1607388378
 31
0.0
  0
LINE
  5
1ED
330
1F
100
AcDbEntity
  8
0
  6
CONTINUOUS
 62
     7
100
AcDbLine
 10
25.9482795577
 20
479.2299582184
 30
0.0
 11
25.9482795577
 21
466.3543714702
 31
0.0
  0
ARC
  5
1EE
330
1F
100
AcDbEntity
  8
0
  6
CONTINUOUS
 62
     7
100
AcDbCircle
 10
69.7497043053
 20
67.5229504584
 30
0.0
 40
5.170000000000004
100
AcDbArc
 50
27.6004769063
 51
186.0551898611
  0
ARC
  5
1EF
330
1F
100
AcDbEntity
  8
0
  6
CONTINUOUS
 62
     7
100
AcDbCircle
 10
69.7497043703
 20
471.867752644
 30
0.0
 40
5.170000000000075
100
AcDbArc
 50
173.9447482422
 51
332.3995433346
  0
ARC
  5
1F0
330
1F
100
AcDbEntity
  8
0
  6
CONTINUOUS
 62
     7
100
AcDbCircle
 10
85.3155541721
 20
70.2676353594
 30
0.0
 40
5.170000000000085
100
AcDbArc
 50
13.9447482422
 51
172.3995433346
  0
ARC
  5
1F1
330
1F
100
AcDbEntity
  8
0
  6
CONTINUOUS
 62
     7
100
AcDbCircle
 10
85.3155561496
 20
469.1230785893
 30
0.0
 40
5.170000000000076
100
AcDbArc
 50
187.6004769063
 51
346.0551905845
  0
ARC
  5
1F2
330
1F
100
AcDbEntity
  8
0
  6
CONTINUOUS
 62
     7
100
AcDbCircle
 10
410.7234746809
 20
411.7448772243
 30
0.0
 40
5.170000000000111
100
AcDbArc
 50
173.9447482422
 51
332.3995433346
  0
ARC
  5
1F3
330
1F
100
AcDbEntity
  8
0
  6
CONTINUOUS
 62
     7
100
AcDbCircle
 10
410.7234746159
 20
127.6458258781
 30
0.0
 40
5.169999999999936
100
AcDbArc
 50
27.6004769063
 51
186.0551898611
  0
ARC
  5
1F4
330
1F
100
AcDbEntity
  8
0
  6
CONTINUOUS
 62
     7
100
AcDbCircle
 10
426.2893264602
 20
409.0002031697
 30
0.0
 40
5.170000000000091
100
AcDbArc
 50
187.6004769063
 51
346.0551905845
  0
ARC
  5
1F5
330
1F
100
AcDbEntity
  8
0
  6
CONTINUOUS
 62
     7
100
AcDbCircle
 10
426.2893244827
 20
130.390510779
 30
0.0
 40
5.170000000000003
100
AcDbArc
 50
13.9447482422
 51
172.3995433346
  0
LINE
  5
1F6
330
1F
100
AcDbEntity
  8
0
  6
CONTINUOUS
 62
     7
100
AcDbLine
 10
457.9482889007
 20
390.1810957611
 30
0.0
 11
457.9482889007
 21
403.0567123115
 31
0.0
  0
LINE
  5
1F7
330
1F
100
AcDbEntity
  8
0
  6
CONTINUOUS
 62
     7
100
AcDbLine
 10
457.9482889007
 20
136.3339884699
 30
0.0
 11
457.9482889007
 21
149.2096050203
 31
0.0
  0
LINE
  5
1F8
330
1F
100
AcDbEntity
  8
0
  6
CONTINUOUS
 62
     7
100
AcDbLine
 10
1306.3882803749
 20
536.6007997215
 30
0.0
 11
1306.3882803749
 21
498.0996264637
 31
0.0
  0
LINE
  5
1F9
330
1F
100
AcDbEntity
  8
0
  6
CONTINUOUS
 62
     7
100
AcDbLine
 10
1306.3882803749
 20
536.6007997215
 30
0.0
 11
1628.3883070778
 21
536.6007997215
 31
0.0
  0
LINE
  5
1FA
330
1F
100
AcDbEntity
  8
0
  6
CONTINUOUS
 62
     7
100
AcDbLine
 10
1628.3883070778
 20
498.0996264637
 30
0.0
 11
1628.3883070778
 21
536.6007997215
 31
0.0
  0
LINE
  5
1FB
330
1F
100
AcDbEntity
  8
0
  6
CONTINUOUS
 62
     7
100
AcDbLine
 10
1306.3882803749
 20
498.0996264637
 30
0.0
 11
1628.3883070778
 21
498.0996264637
 31
0.0
  0
LINE
  5
1FC
330
1F
100
AcDbEntity
  8
0
  6
CONTINUOUS
 62
     7
100
AcDbLine
 10
1628.3883070778
 20
934.6480085075
 30
0.0
 11
1306.3882803749
 21
934.6480085075
 31
0.0
  0
LINE
  5
1FD
330
1F
100
AcDbEntity
  8
0
  6
CONTINUOUS
 62
     7
100
AcDbLine
 10
1628.3883070778
 20
548.9558889091
 30
0.0
 11
1306.3882803749
 21
548.9558889091
 31
0.0
  0
LINE
  5
1FE
330
1F
100
AcDbEntity
  8
0
  6
CONTINUOUS
 62
     7
100
AcDbLine
 10
1306.3882803749
 20
934.6480085075
 30
0.0
 11
1306.3882803749
 21
548.9558889091
 31
0.0
  0
LINE
  5
1FF
330
1F
100
AcDbEntity
  8
0
  6
CONTINUOUS
 62
     7
100
AcDbLine
 10
1628.3883070778
 20
548.9558889091
 30
0.0
 11
1628.3883070778
 21
934.6480085075
 31
0.0
  0
LINE
  5
200
330
1F
100
AcDbEntity
  8
0
  6
CONTINUOUS
 62
     7
100
AcDbLine
 10
1306.3882803749
 20
536.6007997215
 30
0.0
 11
1306.3882803749
 21
548.9558889091
 31
0.0
  0
LINE
  5
201
330
1F
100
AcDbEntity
  8
0
  6
CONTINUOUS
 62
     7
100
AcDbLine
 10
1628.3883070778
 20
548.9558889091
 30
0.0
 11
1628.3883070778
 21
536.6007997215
 31
0.0
  0
LINE
  5
202
330
1F
100
AcDbEntity
  8
0
  6
CONTINUOUS
 62
     7
100
AcDbLine
 10
1306.3882803749
 20
68.5724033535
 30
0.0
 11
1306.3882803749
 21
30.0712617606
 31
0.0
  0
LINE
  5
203
330
1F
100
AcDbEntity
  8
0
  6
CONTINUOUS
 62
     7
100
AcDbLine
 10
1628.3883070778
 20
68.5724033535
 30
0.0
 11
1306.3882803749
 21
68.5724033535
 31
0.0
  0
LINE
  5
204
330
1F
100
AcDbEntity
  8
0
  6
CONTINUOUS
 62
     7
100
AcDbLine
 10
1306.3882803749
 20
30.0712617606
 30
0.0
 11
1628.3883070778
 21
30.0712617606
 31
0.0
  0
LINE
  5
205
330
1F
100
AcDbEntity
  8
0
  6
CONTINUOUS
 62
     7
100
AcDbLine
 10
1628.3883070778
 20
30.0712617606
 30
0.0
 11
1628.3883070778
 21
68.5724033535
 31
0.0
  0
LINE
  5
206
330
1F
100
AcDbEntity
  8
0
  6
CONTINUOUS
 62
     7
100
AcDbLine
 10
1628.3883070778
 20
466.6196419418
 30
0.0
 11
1306.3882803749
 21
466.6196419418
 31
0.0
  0
LINE
  5
207
330
1F
100
AcDbEntity
  8
0
  6
CONTINUOUS
 62
     7
100
AcDbLine
 10
1306.3882803749
 20
80.9275223434
 30
0.0
 11
1628.3883070778
 21
80.9275223434
 31
0.0
  0
LINE
  5
208
330
1F
100
AcDbEntity
  8
0
  6
CONTINUOUS
 62
     7
100
AcDbLine
 10
1306.3882803749
 20
466.6196419418
 30
0.0
 11
1306.3882803749
 21
80.9275223434
 31
0.0
  0
LINE
  5
209
330
1F
100
AcDbEntity
  8
0
  6
CONTINUOUS
 62
     7
100
AcDbLine
 10
1628.3883070778
 20
80.9275223434
 30
0.0
 11
1628.3883070778
 21
466.6196419418
 31
0.0
  0
LINE
  5
20A
330
1F
100
AcDbEntity
  8
0
  6
CONTINUOUS
 62
     7
100
AcDbLine
 10
1306.3882803749
 20
68.5724033535
 30
0.0
 11
1306.3882803749
 21
80.9275223434
 31
0.0
  0
LINE
  5
20B
330
1F
100
AcDbEntity
  8
0
  6
CONTINUOUS
 62
     7
100
AcDbLine
 10
1628.3883070778
 20
80.9275223434
 30
0.0
 11
1628.3883070778
 21
68.5724033535
 31
0.0
  0
LINE
  5
20C
330
1F
100
AcDbEntity
  8
0
  6
CONTINUOUS
 62
     7
100
AcDbLine
 10
952.9082989525
 20
30.0712617606
 30
0.0
 11
1274.9083256553
 21
30.0712617606
 31
0.0
  0
LINE
  5
20D
330
1F
100
AcDbEntity
  8
0
  6
CONTINUOUS
 62
     7
100
AcDbLine
 10
1274.9083256553
 20
302.0712746799
 30
0.0
 11
952.9082989525
 21
302.0712746799
 31
0.0
  0
LINE
  5
20E
330
1F
100
AcDbEntity
  8
0
  6
CONTINUOUS
 62
     7
100
AcDbLine
 10
1274.9083256553
 20
30.0712617606
 30
0.0
 11
1274.9083256553
 21
302.0712746799
 31
0.0
  0
LINE
  5
20F
330
1F
100
AcDbEntity
  8
0
  6
CONTINUOUS
 62
     7
100
AcDbLine
 10
952.9082989525
 20
302.0712746799
 30
0.0
 11
952.9082989525
 21
30.0712617606
 31
0.0
  0
LINE
  5
210
330
1F
100
AcDbEntity
  8
POCKETS
100
AcDbLine
 10
1638.3882800697
 20
80.9275223222
 30
0.0
 11
1296.3882800697
 21
80.9275223222
 31
0.0
  0
LINE
  5
211
330
1F
100
AcDbEntity
  8
POCKETS
100
AcDbLine
 10
1296.3882800697
 20
80.9275223222
 30
0.0
 11
1296.3882800697
 21
68.5724029796
 31
0.0
  0
LINE
  5
212
330
1F
100
AcDbEntity
  8
POCKETS
100
AcDbLine
 10
1296.3882800697
 20
68.5724029796
 30
0.0
 11
1638.3882800697
 21
68.5724029796
 31
0.0
  0
LINE
  5
213
330
1F
100
AcDbEntity
  8
PROFILES_OUTSIDE
100
AcDbLine
 10
457.9482800697
 20
355.1625870066
 30
0.0
 11
457.9482800697
 21
430.1279892195
 31
0.0
  0
LINE
  5
214
330
1F
100
AcDbEntity
  8
PROFILES_OUTSIDE
100
AcDbLine
 10
457.9482800697
 20
430.1279892195
 30
0.0
 11
25.9482800697
 21
506.3012448856
 31
0.0
  0
LINE
  5
215
330
1F
100
AcDbEntity
  8
PROFILES_OUTSIDE
100
AcDbLine
 10
25.9482800697
 20
506.3012448856
 30
0.0
 11
25.9482800697
 21
33.0894638201
 31
0.0
  0
LINE
  5
216
330
1F
100
AcDbEntity
  8
PROFILES_OUTSIDE
100
AcDbLine
 10
25.9482800697
 20
33.0894638201
 30
0.0
 11
457.9482800697
 21
109.2627194861
 31
0.0
  0
LINE
  5
217
330
1F
100
AcDbEntity
  8
POCKETS
100
AcDbLine
 10
1638.3882800697
 20
68.5724029796
 30
0.0
 11
1638.3882800697
 21
80.9275223222
 31
0.0
  0
LINE
  5
218
330
1F
100
AcDbEntity
  8
PROFILES_OUTSIDE
100
AcDbLine
 10
457.9482800697
 20
109.2627194861
 30
0.0
 11
457.9482800697
 21
184.2281216991
 31
0.0
  0
LINE
  5
219
330
1F
100
AcDbEntity
  8
PROFILES_OUTSIDE
100
AcDbLine
 10
452.9901691357
 20
190.1369682171
 30
0.0
 11
442.9063910037
 21
191.9150103693
 31
0.0
  0
LINE
  5
21A
330
1F
100
AcDbEntity
  8
PROFILES_OUTSIDE
100
AcDbLine
 10
437.9482800697
 20
197.8238568874
 30
0.0
 11
437.9482800697
 21
341.5668518183
 31
0.0
  0
LINE
  5
21B
330
1F
100
AcDbEntity
  8
PROFILES_OUTSIDE
100
AcDbLine
 10
442.9063910037
 20
347.4756983364
 30
0.0
 11
452.9901691357
 21
349.2537404885
 31
0.0
  0
LINE
  5
21C
330
1F
100
AcDbEntity
  8
PROFILES_INSIDE
100
AcDbLine
 10
431.2673939344
 20
410.7591018085
 30
0.0
 11
432.2077744388
 21
416.0922646661
 31
0.0
  0
LINE
  5
21D
330
1F
100
AcDbEntity
  8
PROFILES_INSIDE
100
AcDbLine
 10
416.3649753237
 20
409.8711050073
 30
0.0
 11
420.3471807118
 21
409.1689382367
 31
0.0
  0
LINE
  5
21E
330
1F
100
AcDbEntity
  8
PROFILES_INSIDE
100
AcDbLine
 10
407.5875806135
 20
420.4334769692
 30
0.0
 11
406.6471987647
 21
415.1002986257
 31
0.0
  0
LINE
  5
21F
330
1F
100
AcDbEntity
  8
PROFILES_INSIDE
100
AcDbLine
 10
422.4899992242
 20
421.3214659089
 30
0.0
 11
418.5077936101
 21
422.0236313977
 31
0.0
  0
LINE
  5
220
330
1F
100
AcDbEntity
  8
PROFILES_OUTSIDE
100
AcDbLine
 10
1274.9082800697
 20
30.0712622726
 30
0.0
 11
1274.9082800697
 21
302.0712622726
 31
0.0
  0
LINE
  5
221
330
1F
100
AcDbEntity
  8
PROFILES_OUTSIDE
100
AcDbLine
 10
1274.9082800697
 20
302.0712622726
 30
0.0
 11
952.9082800697
 21
302.0712622726
 31
0.0
  0
LINE
  5
222
330
1F
100
AcDbEntity
  8
PROFILES_OUTSIDE
100
AcDbLine
 10
952.9082800697
 20
302.0712622726
 30
0.0
 11
952.9082800697
 21
30.0712622726
 31
0.0
  0
LINE
  5
223
330
1F
100
AcDbEntity
  8
PROFILES_OUTSIDE
100
AcDbLine
 10
952.9082800697
 20
30.0712622726
 30
0.0
 11
1274.9082800697
 21
30.0712622726
 31
0.0
  0
LINE
  5
224
330
1F
100
AcDbEntity
  8
PROFILES_OUTSIDE
100
AcDbLine
 10
1628.3882800697
 20
466.6196348388
 30
0.0
 11
1306.3882800697
 21
466.6196348388
 31
0.0
  0
LINE
  5
225
330
1F
100
AcDbEntity
  8
PROFILES_OUTSIDE
100
AcDbLine
 10
1306.3882800697
 20
466.6196348388
 30
0.0
 11
1306.3882800697
 21
30.0712622726
 31
0.0
  0
LINE
  5
226
330
1F
100
AcDbEntity
  8
PROFILES_OUTSIDE
100
AcDbLine
 10
1306.3882800697
 20
30.0712622726
 30
0.0
 11
1628.3882800697
 21
30.0712622726
 31
0.0
  0
LINE
  5
227
330
1F
100
AcDbEntity
  8
PROFILES_OUTSIDE
100
AcDbLine
 10
1628.3882800697
 20
30.0712622726
 30
0.0
 11
1628.3882800697
 21
466.6196348388
 31
0.0
  0
LINE
  5
228
330
1F
100
AcDbEntity
  8
PROFILES_OUTSIDE
100
AcDbLine
 10
1306.3882800697
 20
934.6480074049
 30
0.0
 11
1306.3882800697
 21
498.0996348388
 31
0.0
  0
LINE
  5
229
330
1F
100
AcDbEntity
  8
PROFILES_OUTSIDE
100
AcDbLine
 10
1306.3882800697
 20
498.0996348388
 30
0.0
 11
1628.3882800697
 21
498.0996348388
 31
0.0
  0
LINE
  5
22A
330
1F
100
AcDbEntity
  8
BOX_STOCK
100
AcDbLine
 10
0.2082800697
 20
4.3312622726
 30
0.0
 11
2440.2082800697
 21
4.3312622726
 31
0.0
  0
LINE
  5
22B
330
1F
100
AcDbEntity
  8
BOX_STOCK
100
AcDbLine
 10
2440.2082800697
 20
4.3312622726
 30
0.0
 11
2440.2082800697
 21
1224.3312622726
 31
0.0
  0
LINE
  5
22C
330
1F
100
AcDbEntity
  8
BOX_STOCK
100
AcDbLine
 10
2440.2082800697
 20
1224.3312622726
 30
0.0
 11
0.2082800697
 21
1224.3312622726
 31
0.0
  0
LINE
  5
22D
330
1F
100
AcDbEntity
  8
BOX_STOCK
100
AcDbLine
 10
0.2082800697
 20
1224.3312622726
 30
0.0
 11
0.2082800697
 21
4.3312622726
 31
0.0
  0
LINE
  5
22E
330
1F
100
AcDbEntity
  8
POCKETS
100
AcDbLine
 10
1638.3882800697
 20
548.9558948883
 30
0.0
 11
1296.3882800697
 21
548.9558948883
 31
0.0
  0
LINE
  5
22F
330
1F
100
AcDbEntity
  8
PROFILES_OUTSIDE
100
AcDbLine
 10
1628.3882800697
 20
498.0996348388
 30
0.0
 11
1628.3882800697
 21
934.6480074049
 31
0.0
  0
LINE
  5
230
330
1F
100
AcDbEntity
  8
POCKETS
100
AcDbLine
 10
1296.3882800697
 20
548.9558948883
 30
0.0
 11
1296.3882800697
 21
536.6007755457
 31
0.0
  0
LINE
  5
231
330
1F
100
AcDbEntity
  8
POCKETS
100
AcDbLine
 10
1296.3882800697
 20
536.6007755457
 30
0.0
 11
1638.3882800697
 21
536.6007755457
 31
0.0
  0
LINE
  5
232
330
1F
100
AcDbEntity
  8
POCKETS
100
AcDbLine
 10
1638.3882800697
 20
536.6007755457
 30
0.0
 11
1638.3882800697
 21
548.9558948883
 31
0.0
  0
LINE
  5
233
330
1F
100
AcDbEntity
  8
PROFILES_OUTSIDE
100
AcDbLine
 10
1628.3882800697
 20
934.6480074049
 30
0.0
 11
1306.3882800697
 21
934.6480074049
 31
0.0
  0
LINE
  5
234
330
1F
100
AcDbEntity
  8
PROFILES_INSIDE
100
AcDbLine
 10
90.2936236238
 20
470.8819772281
 30
0.0
 11
91.2340041281
 21
476.2151400857
 31
0.0
  0
LINE
  5
235
330
1F
100
AcDbEntity
  8
PROFILES_INSIDE
100
AcDbLine
 10
81.5162289136
 20
481.4443413285
 30
0.0
 11
77.5340234433
 21
482.146507633
 31
0.0
  0
LINE
  5
236
330
1F
100
AcDbEntity
  8
PROFILES_INSIDE
100
AcDbLine
 10
66.6138101864
 20
480.5563524094
 30
0.0
 11
65.6734284541
 21
475.2231740454
 31
0.0
  0
LINE
  5
237
330
1F
100
AcDbEntity
  8
PROFILES_INSIDE
100
AcDbLine
 10
75.391205013
 20
469.993980427
 30
0.0
 11
79.3734104012
 21
469.2918136564
 31
0.0
  0
LINE
  5
238
330
1F
100
AcDbEntity
  8
PROFILES_INSIDE
100
AcDbLine
 10
432.2077744388
 20
123.2984440396
 30
0.0
 11
431.2673939344
 21
128.6316068972
 31
0.0
  0
LINE
  5
239
330
1F
100
AcDbEntity
  8
PROFILES_INSIDE
100
AcDbLine
 10
420.3471801164
 20
130.221773846
 30
0.0
 11
416.3649759397
 21
129.5196002047
 31
0.0
  0
LINE
  5
23A
330
1F
100
AcDbEntity
  8
PROFILES_INSIDE
100
AcDbLine
 10
406.6471971874
 20
124.2904098018
 30
0.0
 11
407.5875819578
 21
118.9572319735
 31
0.0
  0
LINE
  5
23B
330
1F
100
AcDbEntity
  8
PROFILES_INSIDE
100
AcDbLine
 10
418.5077944315
 20
117.3670726491
 30
0.0
 11
422.4899986288
 21
118.0692461738
 31
0.0
  0
LINE
  5
23C
330
1F
100
AcDbEntity
  8
PROFILES_INSIDE
100
AcDbLine
 10
65.6734271098
 20
64.1675344233
 30
0.0
 11
66.6138116472
 21
58.8343565538
 31
0.0
  0
LINE
  5
23D
330
1F
100
AcDbEntity
  8
PROFILES_INSIDE
100
AcDbLine
 10
77.5340241209
 20
57.2441972294
 30
0.0
 11
81.5162283181
 21
57.9463707542
 31
0.0
  0
LINE
  5
23E
330
1F
100
AcDbEntity
  8
PROFILES_INSIDE
100
AcDbLine
 10
91.2340041281
 20
63.1755686199
 30
0.0
 11
90.2936236238
 21
68.5087314775
 31
0.0
  0
LINE
  5
23F
330
1F
100
AcDbEntity
  8
PROFILES_INSIDE
100
AcDbLine
 10
79.3734098057
 20
70.0988984263
 30
0.0
 11
75.3912056085
 21
69.3967249016
 31
0.0
  0
LINE
  5
240
330
1F
100
AcDbEntity
  8
PROFILES_OUTSIDE
100
AcDbLine
 10
1672.1282800697
 20
420.0571026011
 30
0.0
 11
1660.8682800697
 21
420.0571026011
 31
0.0
  0
LINE
  5
241
330
1F
100
AcDbEntity
  8
PROFILES_OUTSIDE
100
AcDbLine
 10
1672.4683677068
 20
414.7432332718
 30
0.0
 11
1672.1282800697
 21
420.0571026011
 31
0.0
  0
LINE
  5
242
330
1F
100
AcDbEntity
  8
PROFILES_OUTSIDE
100
AcDbLine
 10
1681.4060016863
 20
413.8071026011
 30
0.0
 11
1673.4663259768
 21
413.8071026011
 31
0.0
  0
LINE
  5
243
330
1F
100
AcDbEntity
  8
PROFILES_OUTSIDE
100
AcDbLine
 10
1684.8682800697
 20
426.3091026011
 30
0.0
 11
1684.8682800697
 21
424.2852842408
 31
0.0
  0
LINE
  5
244
330
1F
100
AcDbEntity
  8
PROFILES_OUTSIDE
100
AcDbLine
 10
1802.8682800697
 20
426.3091026011
 30
0.0
 11
1684.8682800697
 21
426.3091026011
 31
0.0
  0
LINE
  5
245
330
1F
100
AcDbEntity
  8
PROFILES_OUTSIDE
100
AcDbLine
 10
1814.8682800697
 20
302.2298224916
 30
0.0
 11
1814.8682800697
 21
414.3091026011
 31
0.0
  0
LINE
  5
246
330
1F
100
AcDbEntity
  8
PROFILES_OUTSIDE
100
AcDbLine
 10
1852.8682800697
 20
290.2298224916
 30
0.0
 11
1826.8682800697
 21
290.2298224916
 31
0.0
  0
LINE
  5
247
330
1F
100
AcDbEntity
  8
PROFILES_OUTSIDE
100
AcDbLine
 10
1864.8682800697
 20
414.3091026011
 30
0.0
 11
1864.8682800697
 21
302.2298224916
 31
0.0
  0
LINE
  5
248
330
1F
100
AcDbEntity
  8
PROFILES_INSIDE
100
AcDbLine
 10
894.7473939344
 20
410.7591018085
 30
0.0
 11
895.6877744388
 21
416.0922646661
 31
0.0
  0
LINE
  5
249
330
1F
100
AcDbEntity
  8
PROFILES_INSIDE
100
AcDbLine
 10
879.8449753237
 20
409.8711050073
 30
0.0
 11
883.8271807118
 21
409.1689382367
 31
0.0
  0
LINE
  5
24A
330
1F
100
AcDbEntity
  8
PROFILES_INSIDE
100
AcDbLine
 10
871.0675806135
 20
420.4334769692
 30
0.0
 11
870.1271987647
 21
415.1002986257
 31
0.0
  0
LINE
  5
24B
330
1F
100
AcDbEntity
  8
PROFILES_INSIDE
100
AcDbLine
 10
885.9699992242
 20
421.3214659089
 30
0.0
 11
881.9877936101
 21
422.0236313977
 31
0.0
  0
LINE
  5
24C
330
1F
100
AcDbEntity
  8
PROFILES_INSIDE
100
AcDbLine
 10
553.9160268249
 20
470.8568677016
 30
0.0
 11
554.8564073292
 21
476.1900305592
 31
0.0
  0
LINE
  5
24D
330
1F
100
AcDbEntity
  8
PROFILES_INSIDE
100
AcDbLine
 10
545.1386321147
 20
481.4192318021
 30
0.0
 11
541.1564266443
 21
482.1213981066
 31
0.0
  0
LINE
  5
24E
330
1F
100
AcDbEntity
  8
PROFILES_INSIDE
100
AcDbLine
 10
530.2362133875
 20
480.5312428829
 30
0.0
 11
529.2958316552
 21
475.1980645189
 31
0.0
  0
LINE
  5
24F
330
1F
100
AcDbEntity
  8
PROFILES_INSIDE
100
AcDbLine
 10
539.0136082141
 20
469.9688709005
 30
0.0
 11
542.9958136023
 21
469.2667041299
 31
0.0
  0
LINE
  5
250
330
1F
100
AcDbEntity
  8
PROFILES_INSIDE
100
AcDbLine
 10
895.6877744388
 20
123.2984440396
 30
0.0
 11
894.7473939344
 21
128.6316068972
 31
0.0
  0
LINE
  5
251
330
1F
100
AcDbEntity
  8
PROFILES_INSIDE
100
AcDbLine
 10
883.8271801164
 20
130.221773846
 30
0.0
 11
879.8449759397
 21
129.5196002047
 31
0.0
  0
LINE
  5
252
330
1F
100
AcDbEntity
  8
PROFILES_INSIDE
100
AcDbLine
 10
870.1271971874
 20
124.2904098018
 30
0.0
 11
871.0675819578
 21
118.9572319735
 31
0.0
  0
LINE
  5
253
330
1F
100
AcDbEntity
  8
PROFILES_INSIDE
100
AcDbLine
 10
881.9877944315
 20
117.3670726491
 30
0.0
 11
885.9699986288
 21
118.0692461738
 31
0.0
  0
LINE
  5
254
330
1F
100
AcDbEntity
  8
PROFILES_OUTSIDE
100
AcDbLine
 10
1994.8682800697
 20
426.3091026011
 30
0.0
 11
1876.8682800697
 21
426.3091026011
 31
0.0
  0
LINE
  5
255
330
1F
100
AcDbEntity
  8
PROFILES_OUTSIDE
100
AcDbLine
 10
1994.8682800697
 20
424.2852842408
 30
0.0
 11
1994.8682800697
 21
426.3091026011
 31
0.0
  0
LINE
  5
256
330
1F
100
AcDbEntity
  8
PROFILES_OUTSIDE
100
AcDbLine
 10
2006.2702341626
 20
413.8071026011
 30
0.0
 11
1998.3305584531
 21
413.8071026011
 31
0.0
  0
LINE
  5
257
330
1F
100
AcDbEntity
  8
PROFILES_OUTSIDE
100
AcDbLine
 10
2007.6082800697
 20
420.0571026011
 30
0.0
 11
2007.2681924326
 21
414.7432332718
 31
0.0
  0
LINE
  5
258
330
1F
100
AcDbEntity
  8
PROFILES_OUTSIDE
100
AcDbLine
 10
2018.8682800697
 20
420.0571026011
 30
0.0
 11
2007.6082800697
 21
420.0571026011
 31
0.0
  0
LINE
  5
259
330
1F
100
AcDbEntity
  8
PROFILES_INSIDE
100
AcDbLine
 10
529.2958303109
 20
64.1926439497
 30
0.0
 11
530.2362148483
 21
58.8594660803
 31
0.0
  0
LINE
  5
25A
330
1F
100
AcDbEntity
  8
PROFILES_INSIDE
100
AcDbLine
 10
541.156427322
 20
57.2693067559
 30
0.0
 11
545.1386315192
 21
57.9714802807
 31
0.0
  0
LINE
  5
25B
330
1F
100
AcDbEntity
  8
PROFILES_INSIDE
100
AcDbLine
 10
554.8564073292
 20
63.2006781464
 30
0.0
 11
553.9160268249
 21
68.533841004
 31
0.0
  0
LINE
  5
25C
330
1F
100
AcDbEntity
  8
PROFILES_INSIDE
100
AcDbLine
 10
542.9958130068
 20
70.1240079528
 30
0.0
 11
539.0136088096
 21
69.4218344281
 31
0.0
  0
LINE
  5
25D
330
1F
100
AcDbEntity
  8
PROFILES_OUTSIDE
100
AcDbLine
 10
489.4282800697
 20
499.15072333
 30
0.0
 11
489.4282800697
 21
40.2399853756
 31
0.0
  0
LINE
  5
25E
330
1F
100
AcDbEntity
  8
PROFILES_OUTSIDE
100
AcDbLine
 10
916.4701691357
 20
431.0022379505
 30
0.0
 11
496.4701691357
 21
505.0595698481
 31
0.0
  0
LINE
  5
25F
330
1F
100
AcDbEntity
  8
PROFILES_OUTSIDE
100
AcDbLine
 10
921.4282800697
 20
355.1625870066
 30
0.0
 11
921.4282800697
 21
425.0933914325
 31
0.0
  0
LINE
  5
260
330
1F
100
AcDbEntity
  8
PROFILES_OUTSIDE
100
AcDbLine
 10
906.3863910037
 20
347.4756983364
 30
0.0
 11
916.4701691357
 21
349.2537404885
 31
0.0
  0
LINE
  5
261
330
1F
100
AcDbEntity
  8
POCKETS
100
AcDbLine
 10
468.0721518554
 20
150.9947141428
 30
0.0
 11
458.2240743253
 21
149.2582323661
 31
0.0
  0
LINE
  5
262
330
1F
100
AcDbEntity
  8
PROFILES_OUTSIDE
100
AcDbLine
 10
2019.8682800697
 20
407.3071026011
 30
0.0
 11
2019.8682800697
 21
419.0571026011
 31
0.0
  0
LINE
  5
263
330
1F
100
AcDbEntity
  8
PROFILES_OUTSIDE
100
AcDbLine
 10
1895.9182800697
 20
401.3071026011
 30
0.0
 11
2013.8682800697
 21
401.3071026011
 31
0.0
  0
LINE
  5
264
330
1F
100
AcDbEntity
  8
PROFILES_OUTSIDE
100
AcDbLine
 10
1883.9182800697
 20
290.2298224916
 30
0.0
 11
1883.9182800697
 21
389.3071026011
 31
0.0
  0
LINE
  5
265
330
1F
100
AcDbEntity
  8
PROFILES_OUTSIDE
100
AcDbLine
 10
1864.8682800697
 20
199.1461102663
 30
0.0
 11
1864.8682800697
 21
257.2342546074
 31
0.0
  0
LINE
  5
266
330
1F
100
AcDbEntity
  8
PROFILES_OUTSIDE
100
AcDbLine
 10
1883.9182800697
 20
67.0732622726
 30
0.0
 11
1883.9182800697
 21
166.1505423821
 31
0.0
  0
LINE
  5
267
330
1F
100
AcDbEntity
  8
PROFILES_OUTSIDE
100
AcDbLine
 10
2013.8682800697
 20
55.0732622726
 30
0.0
 11
1895.9182800697
 21
55.0732622726
 31
0.0
  0
LINE
  5
268
330
1F
100
AcDbEntity
  8
PROFILES_OUTSIDE
100
AcDbLine
 10
2019.8682800697
 20
37.3232622726
 30
0.0
 11
2019.8682800697
 21
49.0732622726
 31
0.0
  0
LINE
  5
269
330
1F
100
AcDbEntity
  8
PROFILES_OUTSIDE
100
AcDbLine
 10
2007.6082800697
 20
36.3232622726
 30
0.0
 11
2018.8682800697
 21
36.3232622726
 31
0.0
  0
LINE
  5
26A
330
1F
100
AcDbEntity
  8
PROFILES_OUTSIDE
100
AcDbLine
 10
2007.2681924326
 20
41.6371316019
 30
0.0
 11
2007.6082800697
 21
36.3232622726
 31
0.0
  0
LINE
  5
26B
330
1F
100
AcDbEntity
  8
PROFILES_OUTSIDE
100
AcDbLine
 10
1998.3305584531
 20
42.5732622726
 30
0.0
 11
2006.2702341626
 21
42.5732622726
 31
0.0
  0
LINE
  5
26C
330
1F
100
AcDbEntity
  8
PROFILES_OUTSIDE
100
AcDbLine
 10
1994.8682800697
 20
30.0712622726
 30
0.0
 11
1994.8682800697
 21
32.0950806329
 31
0.0
  0
LINE
  5
26D
330
1F
100
AcDbEntity
  8
PROFILES_OUTSIDE
100
AcDbLine
 10
1876.8682800697
 20
30.0712622726
 30
0.0
 11
1994.8682800697
 21
30.0712622726
 31
0.0
  0
LINE
  5
26E
330
1F
100
AcDbEntity
  8
PROFILES_OUTSIDE
100
AcDbLine
 10
1864.8682800697
 20
154.1505423821
 30
0.0
 11
1864.8682800697
 21
42.0712622726
 31
0.0
  0
LINE
  5
26F
330
1F
100
AcDbEntity
  8
PROFILES_OUTSIDE
100
AcDbLine
 10
1826.8682800697
 20
166.1505423821
 30
0.0
 11
1852.8682800697
 21
166.1505423821
 31
0.0
  0
LINE
  5
270
330
1F
100
AcDbEntity
  8
PROFILES_OUTSIDE
100
AcDbLine
 10
1814.8682800697
 20
42.0712622726
 30
0.0
 11
1814.8682800697
 21
154.1505423821
 31
0.0
  0
LINE
  5
271
330
1F
100
AcDbEntity
  8
PROFILES_OUTSIDE
100
AcDbLine
 10
1684.8682800697
 20
30.0712622726
 30
0.0
 11
1802.8682800697
 21
30.0712622726
 31
0.0
  0
LINE
  5
272
330
1F
100
AcDbEntity
  8
PROFILES_OUTSIDE
100
AcDbLine
 10
901.4282800697
 20
197.8238568874
 30
0.0
 11
901.4282800697
 21
341.5668518183
 31
0.0
  0
LINE
  5
273
330
1F
100
AcDbEntity
  8
POCKETS
100
AcDbLine
 10
470.2740107483
 20
138.5073518346
 30
0.0
 11
468.0721518554
 21
150.9947141428
 31
0.0
  0
LINE
  5
274
330
1F
100
AcDbEntity
  8
PROFILES_OUTSIDE
100
AcDbLine
 10
916.4701691357
 20
190.1369682171
 30
0.0
 11
906.3863910037
 21
191.9150103693
 31
0.0
  0
LINE
  5
275
330
1F
100
AcDbEntity
  8
POCKETS
100
AcDbLine
 10
460.4259332181
 20
136.7708700579
 30
0.0
 11
470.2740107483
 21
138.5073518346
 31
0.0
  0
LINE
  5
276
330
1F
100
AcDbEntity
  8
POCKETS
100
AcDbLine
 10
25.6724858141
 20
60.1121073245
 30
0.0
 11
460.4259332181
 21
136.7708700579
 31
0.0
  0
LINE
  5
277
330
1F
100
AcDbEntity
  8
POCKETS
100
AcDbLine
 10
15.824408284
 20
58.3756255479
 30
0.0
 11
25.6724858141
 21
60.1121073245
 31
0.0
  0
LINE
  5
278
330
1F
100
AcDbEntity
  8
POCKETS
100
AcDbLine
 10
13.6225493911
 20
70.8629878561
 30
0.0
 11
15.824408284
 21
58.3756255479
 31
0.0
  0
LINE
  5
279
330
1F
100
AcDbEntity
  8
POCKETS
100
AcDbLine
 10
23.4706269213
 20
72.5994696327
 30
0.0
 11
13.6225493911
 21
70.8629878561
 31
0.0
  0
LINE
  5
27A
330
1F
100
AcDbEntity
  8
POCKETS
100
AcDbLine
 10
405.6082800697
 20
139.9806482274
 30
0.0
 11
23.4706269213
 21
72.5994696327
 31
0.0
  0
LINE
  5
27B
330
1F
100
AcDbEntity
  8
POCKETS
100
AcDbLine
 10
405.6082800697
 20
399.4100604782
 30
0.0
 11
405.6082800697
 21
139.9806482274
 31
0.0
  0
LINE
  5
27C
330
1F
100
AcDbEntity
  8
POCKETS
100
AcDbLine
 10
23.4706269213
 20
466.7912390729
 30
0.0
 11
405.6082800697
 21
399.4100604782
 31
0.0
  0
LINE
  5
27D
330
1F
100
AcDbEntity
  8
POCKETS
100
AcDbLine
 10
13.6225493911
 20
468.5277208496
 30
0.0
 11
23.4706269213
 21
466.7912390729
 31
0.0
  0
LINE
  5
27E
330
1F
100
AcDbEntity
  8
POCKETS
100
AcDbLine
 10
15.824408284
 20
481.0150831578
 30
0.0
 11
13.6225493911
 21
468.5277208496
 31
0.0
  0
LINE
  5
27F
330
1F
100
AcDbEntity
  8
POCKETS
100
AcDbLine
 10
25.6724858141
 20
479.2786013811
 30
0.0
 11
15.824408284
 21
481.0150831578
 31
0.0
  0
LINE
  5
280
330
1F
100
AcDbEntity
  8
POCKETS
100
AcDbLine
 10
460.4259332181
 20
402.6198386477
 30
0.0
 11
25.6724858141
 21
479.2786013811
 31
0.0
  0
LINE
  5
281
330
1F
100
AcDbEntity
  8
POCKETS
100
AcDbLine
 10
470.2740107483
 20
400.8833568711
 30
0.0
 11
460.4259332181
 21
402.6198386477
 31
0.0
  0
LINE
  5
282
330
1F
100
AcDbEntity
  8
POCKETS
100
AcDbLine
 10
468.0721518554
 20
388.3959945629
 30
0.0
 11
470.2740107483
 21
400.8833568711
 31
0.0
  0
LINE
  5
283
330
1F
100
AcDbEntity
  8
POCKETS
100
AcDbLine
 10
458.2240743253
 20
390.1324763396
 30
0.0
 11
468.0721518554
 21
388.3959945629
 31
0.0
  0
LINE
  5
284
330
1F
100
AcDbEntity
  8
POCKETS
100
AcDbLine
 10
417.9482800697
 20
397.2341855363
 30
0.0
 11
458.2240743253
 21
390.1324763396
 31
0.0
  0
LINE
  5
285
330
1F
100
AcDbEntity
  8
PROFILES_OUTSIDE
100
AcDbLine
 10
1684.8682800697
 20
32.0950806329
 30
0.0
 11
1684.8682800697
 21
30.0712622726
 31
0.0
  0
LINE
  5
286
330
1F
100
AcDbEntity
  8
PROFILES_OUTSIDE
100
AcDbLine
 10
1673.4663259768
 20
42.5732622726
 30
0.0
 11
1681.4060016863
 21
42.5732622726
 31
0.0
  0
LINE
  5
287
330
1F
100
AcDbEntity
  8
PROFILES_OUTSIDE
100
AcDbLine
 10
1672.1282800697
 20
36.3232622726
 30
0.0
 11
1672.4683677068
 21
41.6371316019
 31
0.0
  0
LINE
  5
288
330
1F
100
AcDbEntity
  8
PROFILES_OUTSIDE
100
AcDbLine
 10
1660.8682800697
 20
36.3232622726
 30
0.0
 11
1672.1282800697
 21
36.3232622726
 31
0.0
  0
LINE
  5
289
330
1F
100
AcDbEntity
  8
PROFILES_OUTSIDE
100
AcDbLine
 10
1659.8682800697
 20
49.0732622726
 30
0.0
 11
1659.8682800697
 21
37.3232622726
 31
0.0
  0
LINE
  5
28A
330
1F
100
AcDbEntity
  8
PROFILES_OUTSIDE
100
AcDbLine
 10
1783.8182800697
 20
55.0732622726
 30
0.0
 11
1665.8682800697
 21
55.0732622726
 31
0.0
  0
LINE
  5
28B
330
1F
100
AcDbEntity
  8
PROFILES_OUTSIDE
100
AcDbLine
 10
1795.8182800697
 20
166.1505423821
 30
0.0
 11
1795.8182800697
 21
67.0732622726
 31
0.0
  0
LINE
  5
28C
330
1F
100
AcDbEntity
  8
PROFILES_OUTSIDE
100
AcDbLine
 10
1814.8682800697
 20
257.2342546074
 30
0.0
 11
1814.8682800697
 21
199.1461102663
 31
0.0
  0
LINE
  5
28D
330
1F
100
AcDbEntity
  8
PROFILES_OUTSIDE
100
AcDbLine
 10
1795.8182800697
 20
389.3071026011
 30
0.0
 11
1795.8182800697
 21
290.2298224916
 31
0.0
  0
LINE
  5
28E
330
1F
100
AcDbEntity
  8
PROFILES_OUTSIDE
100
AcDbLine
 10
1665.8682800697
 20
401.3071026011
 30
0.0
 11
1783.8182800697
 21
401.3071026011
 31
0.0
  0
LINE
  5
28F
330
1F
100
AcDbEntity
  8
PROFILES_OUTSIDE
100
AcDbLine
 10
1659.8682800697
 20
419.0571026011
 30
0.0
 11
1659.8682800697
 21
407.3071026011
 31
0.0
  0
LINE
  5
290
330
1F
100
AcDbEntity
  8
POCKETS
100
AcDbLine
 10
417.9482800697
 20
142.1565231694
 30
0.0
 11
417.9482800697
 21
397.2341855363
 31
0.0
  0
LINE
  5
291
330
1F
100
AcDbEntity
  8
PROFILES_OUTSIDE
100
AcDbLine
 10
2007.6082800697
 20
464.0371026011
 30
0.0
 11
2018.8682800697
 21
464.0371026011
 31
0.0
  0
LINE
  5
292
330
1F
100
AcDbEntity
  8
PROFILES_OUTSIDE
100
AcDbLine
 10
2007.2681924326
 20
469.3509719303
 30
0.0
 11
2007.6082800697
 21
464.0371026011
 31
0.0
  0
LINE
  5
293
330
1F
100
AcDbEntity
  8
PROFILES_OUTSIDE
100
AcDbLine
 10
1998.3305584531
 20
470.2871026011
 30
0.0
 11
2006.2702341626
 21
470.2871026011
 31
0.0
  0
LINE
  5
294
330
1F
100
AcDbEntity
  8
PROFILES_OUTSIDE
100
AcDbLine
 10
1994.8682800697
 20
457.7851026011
 30
0.0
 11
1994.8682800697
 21
459.8089209613
 31
0.0
  0
LINE
  5
295
330
1F
100
AcDbEntity
  8
PROFILES_OUTSIDE
100
AcDbLine
 10
1876.8682800697
 20
457.7851026011
 30
0.0
 11
1994.8682800697
 21
457.7851026011
 31
0.0
  0
LINE
  5
296
330
1F
100
AcDbEntity
  8
PROFILES_OUTSIDE
100
AcDbLine
 10
1864.8682800697
 20
581.8643827105
 30
0.0
 11
1864.8682800697
 21
469.7851026011
 31
0.0
  0
LINE
  5
297
330
1F
100
AcDbEntity
  8
PROFILES_OUTSIDE
100
AcDbLine
 10
1826.8682800697
 20
593.8643827105
 30
0.0
 11
1852.8682800697
 21
593.8643827105
 31
0.0
  0
LINE
  5
298
330
1F
100
AcDbEntity
  8
PROFILES_OUTSIDE
100
AcDbLine
 10
1814.8682800697
 20
469.7851026011
 30
0.0
 11
1814.8682800697
 21
581.8643827105
 31
0.0
  0
LINE
  5
299
330
1F
100
AcDbEntity
  8
PROFILES_OUTSIDE
100
AcDbLine
 10
1684.8682800697
 20
457.7851026011
 30
0.0
 11
1802.8682800697
 21
457.7851026011
 31
0.0
  0
LINE
  5
29A
330
1F
100
AcDbEntity
  8
PROFILES_OUTSIDE
100
AcDbLine
 10
1684.8682800697
 20
459.8089209613
 30
0.0
 11
1684.8682800697
 21
457.7851026011
 31
0.0
  0
LINE
  5
29B
330
1F
100
AcDbEntity
  8
PROFILES_OUTSIDE
100
AcDbLine
 10
1673.4663259768
 20
470.2871026011
 30
0.0
 11
1681.4060016863
 21
470.2871026011
 31
0.0
  0
LINE
  5
29C
330
1F
100
AcDbEntity
  8
PROFILES_OUTSIDE
100
AcDbLine
 10
1672.1282800697
 20
464.0371026011
 30
0.0
 11
1672.4683677068
 21
469.3509719303
 31
0.0
  0
LINE
  5
29D
330
1F
100
AcDbEntity
  8
PROFILES_OUTSIDE
100
AcDbLine
 10
1660.8682800697
 20
464.0371026011
 30
0.0
 11
1672.1282800697
 21
464.0371026011
 31
0.0
  0
LINE
  5
29E
330
1F
100
AcDbEntity
  8
PROFILES_OUTSIDE
100
AcDbLine
 10
1659.8682800697
 20
476.7871026011
 30
0.0
 11
1659.8682800697
 21
465.0371026011
 31
0.0
  0
LINE
  5
29F
330
1F
100
AcDbEntity
  8
PROFILES_OUTSIDE
100
AcDbLine
 10
1783.8182800697
 20
482.7871026011
 30
0.0
 11
1665.8682800697
 21
482.7871026011
 31
0.0
  0
LINE
  5
2A0
330
1F
100
AcDbEntity
  8
PROFILES_OUTSIDE
100
AcDbLine
 10
1795.8182800697
 20
593.8643827105
 30
0.0
 11
1795.8182800697
 21
494.7871026011
 31
0.0
  0
LINE
  5
2A1
330
1F
100
AcDbEntity
  8
PROFILES_OUTSIDE
100
AcDbLine
 10
1814.8682800697
 20
684.9480949358
 30
0.0
 11
1814.8682800697
 21
626.8599505947
 31
0.0
  0
LINE
  5
2A2
330
1F
100
AcDbEntity
  8
PROFILES_OUTSIDE
100
AcDbLine
 10
1795.8182800697
 20
817.0209429295
 30
0.0
 11
1795.8182800697
 21
717.94366282
 31
0.0
  0
LINE
  5
2A3
330
1F
100
AcDbEntity
  8
PROFILES_OUTSIDE
100
AcDbLine
 10
1665.8682800697
 20
829.0209429295
 30
0.0
 11
1783.8182800697
 21
829.0209429295
 31
0.0
  0
LINE
  5
2A4
330
1F
100
AcDbEntity
  8
PROFILES_OUTSIDE
100
AcDbLine
 10
1659.8682800697
 20
846.7709429295
 30
0.0
 11
1659.8682800697
 21
835.0209429295
 31
0.0
  0
LINE
  5
2A5
330
1F
100
AcDbEntity
  8
PROFILES_OUTSIDE
100
AcDbLine
 10
1672.1282800697
 20
847.7709429295
 30
0.0
 11
1660.8682800697
 21
847.7709429295
 31
0.0
  0
LINE
  5
2A6
330
1F
100
AcDbEntity
  8
PROFILES_OUTSIDE
100
AcDbLine
 10
1672.4683677068
 20
842.4570736002
 30
0.0
 11
1672.1282800697
 21
847.7709429295
 31
0.0
  0
LINE
  5
2A7
330
1F
100
AcDbEntity
  8
PROFILES_OUTSIDE
100
AcDbLine
 10
1681.4060016863
 20
841.5209429295
 30
0.0
 11
1673.4663259768
 21
841.5209429295
 31
0.0
  0
LINE
  5
2A8
330
1F
100
AcDbEntity
  8
PROFILES_OUTSIDE
100
AcDbLine
 10
1684.8682800697
 20
854.0229429295
 30
0.0
 11
1684.8682800697
 21
851.9991245692
 31
0.0
  0
LINE
  5
2A9
330
1F
100
AcDbEntity
  8
PROFILES_OUTSIDE
100
AcDbLine
 10
1802.8682800697
 20
854.0229429295
 30
0.0
 11
1684.8682800697
 21
854.0229429295
 31
0.0
  0
LINE
  5
2AA
330
1F
100
AcDbEntity
  8
PROFILES_OUTSIDE
100
AcDbLine
 10
1814.8682800697
 20
729.94366282
 30
0.0
 11
1814.8682800697
 21
842.0229429295
 31
0.0
  0
LINE
  5
2AB
330
1F
100
AcDbEntity
  8
PROFILES_OUTSIDE
100
AcDbLine
 10
1852.8682800697
 20
717.94366282
 30
0.0
 11
1826.8682800697
 21
717.94366282
 31
0.0
  0
LINE
  5
2AC
330
1F
100
AcDbEntity
  8
PROFILES_OUTSIDE
100
AcDbLine
 10
1864.8682800697
 20
842.0229429295
 30
0.0
 11
1864.8682800697
 21
729.94366282
 31
0.0
  0
LINE
  5
2AD
330
1F
100
AcDbEntity
  8
PROFILES_OUTSIDE
100
AcDbLine
 10
1994.8682800697
 20
854.0229429295
 30
0.0
 11
1876.8682800697
 21
854.0229429295
 31
0.0
  0
LINE
  5
2AE
330
1F
100
AcDbEntity
  8
PROFILES_OUTSIDE
100
AcDbLine
 10
1994.8682800697
 20
851.9991245692
 30
0.0
 11
1994.8682800697
 21
854.0229429295
 31
0.0
  0
LINE
  5
2AF
330
1F
100
AcDbEntity
  8
PROFILES_OUTSIDE
100
AcDbLine
 10
2006.2702341626
 20
841.5209429295
 30
0.0
 11
1998.3305584531
 21
841.5209429295
 31
0.0
  0
LINE
  5
2B0
330
1F
100
AcDbEntity
  8
PROFILES_OUTSIDE
100
AcDbLine
 10
2007.6082800697
 20
847.7709429295
 30
0.0
 11
2007.2681924326
 21
842.4570736002
 31
0.0
  0
LINE
  5
2B1
330
1F
100
AcDbEntity
  8
PROFILES_OUTSIDE
100
AcDbLine
 10
2018.8682800697
 20
847.7709429295
 30
0.0
 11
2007.6082800697
 21
847.7709429295
 31
0.0
  0
LINE
  5
2B2
330
1F
100
AcDbEntity
  8
PROFILES_OUTSIDE
100
AcDbLine
 10
2019.8682800697
 20
835.0209429295
 30
0.0
 11
2019.8682800697
 21
846.7709429295
 31
0.0
  0
LINE
  5
2B3
330
1F
100
AcDbEntity
  8
PROFILES_OUTSIDE
100
AcDbLine
 10
1895.9182800697
 20
829.0209429295
 30
0.0
 11
2013.8682800697
 21
829.0209429295
 31
0.0
  0
LINE
  5
2B4
330
1F
100
AcDbEntity
  8
PROFILES_OUTSIDE
100
AcDbLine
 10
1883.9182800697
 20
717.94366282
 30
0.0
 11
1883.9182800697
 21
817.0209429295
 31
0.0
  0
LINE
  5
2B5
330
1F
100
AcDbEntity
  8
PROFILES_OUTSIDE
100
AcDbLine
 10
1864.8682800697
 20
626.8599505947
 30
0.0
 11
1864.8682800697
 21
684.9480949358
 31
0.0
  0
LINE
  5
2B6
330
1F
100
AcDbEntity
  8
PROFILES_OUTSIDE
100
AcDbLine
 10
1883.9182800697
 20
494.7871026011
 30
0.0
 11
1883.9182800697
 21
593.8643827105
 31
0.0
  0
LINE
  5
2B7
330
1F
100
AcDbEntity
  8
PROFILES_OUTSIDE
100
AcDbLine
 10
2013.8682800697
 20
482.7871026011
 30
0.0
 11
1895.9182800697
 21
482.7871026011
 31
0.0
  0
LINE
  5
2B8
330
1F
100
AcDbEntity
  8
PROFILES_OUTSIDE
100
AcDbLine
 10
2019.8682800697
 20
465.0371026011
 30
0.0
 11
2019.8682800697
 21
476.7871026011
 31
0.0
  0
LINE
  5
2B9
330
1F
100
AcDbEntity
  8
POCKETS
100
AcDbLine
 10
458.2240743253
 20
149.2582323661
 30
0.0
 11
417.9482800697
 21
142.1565231694
 31
0.0
  0
LINE
  5
2BA
330
1F
100
AcDbEntity
  8
POCKETS
100
AcDbLine
 10
881.4282800697
 20
397.2341855363
 30
0.0
 11
921.7040743253
 21
390.1324763396
 31
0.0
  0
LINE
  5
2BB
330
1F
100
AcDbEntity
  8
POCKETS
100
AcDbLine
 10
921.7040743253
 20
390.1324763396
 30
0.0
 11
931.5521518554
 21
388.3959945629
 31
0.0
  0
LINE
  5
2BC
330
1F
100
AcDbEntity
  8
POCKETS
100
AcDbLine
 10
931.5521518554
 20
388.3959945629
 30
0.0
 11
933.7540107483
 21
400.8833568711
 31
0.0
  0
LINE
  5
2BD
330
1F
100
AcDbEntity
  8
POCKETS
100
AcDbLine
 10
933.7540107483
 20
400.8833568711
 30
0.0
 11
923.9059332181
 21
402.6198386477
 31
0.0
  0
LINE
  5
2BE
330
1F
100
AcDbEntity
  8
POCKETS
100
AcDbLine
 10
923.9059332181
 20
402.6198386477
 30
0.0
 11
491.2362639461
 21
478.9111750746
 31
0.0
  0
LINE
  5
2BF
330
1F
100
AcDbEntity
  8
POCKETS
100
AcDbLine
 10
491.2362639461
 20
478.9111750746
 30
0.0
 11
481.388186416
 21
480.6476568513
 31
0.0
  0
LINE
  5
2C0
330
1F
100
AcDbEntity
  8
POCKETS
100
AcDbLine
 10
481.388186416
 20
480.6476568513
 30
0.0
 11
479.1863275231
 21
468.1602945431
 31
0.0
  0
LINE
  5
2C1
330
1F
100
AcDbEntity
  8
POCKETS
100
AcDbLine
 10
479.1863275231
 20
468.1602945431
 30
0.0
 11
489.0344050533
 21
466.4238127664
 31
0.0
  0
LINE
  5
2C2
330
1F
100
AcDbEntity
  8
POCKETS
100
AcDbLine
 10
489.0344050533
 20
466.4238127664
 30
0.0
 11
869.0882800697
 21
399.4100604782
 31
0.0
  0
LINE
  5
2C3
330
1F
100
AcDbEntity
  8
POCKETS
100
AcDbLine
 10
869.0882800697
 20
399.4100604782
 30
0.0
 11
869.0882800697
 21
139.9806482274
 31
0.0
  0
LINE
  5
2C4
330
1F
100
AcDbEntity
  8
POCKETS
100
AcDbLine
 10
869.0882800697
 20
139.9806482274
 30
0.0
 11
489.0344050533
 21
72.9668959392
 31
0.0
  0
LINE
  5
2C5
330
1F
100
AcDbEntity
  8
POCKETS
100
AcDbLine
 10
489.0344050533
 20
72.9668959392
 30
0.0
 11
479.1863275231
 21
71.2304141626
 31
0.0
  0
LINE
  5
2C6
330
1F
100
AcDbEntity
  8
POCKETS
100
AcDbLine
 10
479.1863275231
 20
71.2304141626
 30
0.0
 11
481.388186416
 21
58.7430518544
 31
0.0
  0
LINE
  5
2C7
330
1F
100
AcDbEntity
  8
POCKETS
100
AcDbLine
 10
481.388186416
 20
58.7430518544
 30
0.0
 11
491.2362639461
 21
60.479533631
 31
0.0
  0
LINE
  5
2C8
330
1F
100
AcDbEntity
  8
POCKETS
100
AcDbLine
 10
491.2362639461
 20
60.479533631
 30
0.0
 11
923.9059332181
 21
136.7708700579
 31
0.0
  0
LINE
  5
2C9
330
1F
100
AcDbEntity
  8
POCKETS
100
AcDbLine
 10
923.9059332181
 20
136.7708700579
 30
0.0
 11
933.7540107483
 21
138.5073518346
 31
0.0
  0
LINE
  5
2CA
330
1F
100
AcDbEntity
  8
POCKETS
100
AcDbLine
 10
933.7540107483
 20
138.5073518346
 30
0.0
 11
931.5521518554
 21
150.9947141428
 31
0.0
  0
LINE
  5
2CB
330
1F
100
AcDbEntity
  8
POCKETS
100
AcDbLine
 10
931.5521518554
 20
150.9947141428
 30
0.0
 11
921.7040743253
 21
149.2582323661
 31
0.0
  0
LINE
  5
2CC
330
1F
100
AcDbEntity
  8
POCKETS
100
AcDbLine
 10
921.7040743253
 20
149.2582323661
 30
0.0
 11
881.4282800697
 21
142.1565231694
 31
0.0
  0
LINE
  5
2CD
330
1F
100
AcDbEntity
  8
POCKETS
100
AcDbLine
 10
881.4282800697
 20
142.1565231694
 30
0.0
 11
881.4282800697
 21
397.2341855363
 31
0.0
  0
LINE
  5
2CE
330
1F
100
AcDbEntity
  8
PROFILES_OUTSIDE
100
AcDbLine
 10
921.4282800697
 20
114.2973172732
 30
0.0
 11
921.4282800697
 21
184.2281216991
 31
0.0
  0
LINE
  5
2CF
330
1F
100
AcDbEntity
  8
PROFILES_OUTSIDE
100
AcDbLine
 10
496.4701691357
 20
34.3311388576
 30
0.0
 11
916.4701691357
 21
108.3884707551
 31
0.0
  0
ARC
  5
2D0
330
1F
100
AcDbEntity
  8
PROFILES_OUTSIDE
100
AcDbCircle
 10
451.9482800697
 20
184.2281216991
 30
0.0
 40
6.0
100
AcDbArc
 50
0.0
 51
80.0
  0
ARC
  5
2D1
330
1F
100
AcDbEntity
  8
PROFILES_OUTSIDE
100
AcDbCircle
 10
443.9482800697
 20
197.8238568874
 30
0.0
 40
6.0
100
AcDbArc
 50
180.0
 51
260.0
  0
ARC
  5
2D2
330
1F
100
AcDbEntity
  8
PROFILES_OUTSIDE
100
AcDbCircle
 10
443.9482800697
 20
341.5668518183
 30
0.0
 40
6.000000000000034
100
AcDbArc
 50
100.0
 51
180.0
  0
ARC
  5
2D3
330
1F
100
AcDbEntity
  8
PROFILES_OUTSIDE
100
AcDbCircle
 10
451.9482800697
 20
355.1625870066
 30
0.0
 40
6.000000000000034
100
AcDbArc
 50
280.0
 51
0.0
  0
ARC
  5
2D4
330
1F
100
AcDbEntity
  8
PROFILES_INSIDE
100
AcDbCircle
 10
451.9482800697
 20
174.2973172732
 30
0.0
 40
6.000000000000006
100
AcDbArc
 50
280.0
 51
0.0
  0
ARC
  5
2D5
330
1F
100
AcDbEntity
  8
PROFILES_OUTSIDE
100
AcDbCircle
 10
2018.8682800697
 20
419.0571026011
 30
0.0
 40
1.000000000000455
100
AcDbArc
 50
0.0
 51
90.0
  0
ARC
  5
2D6
330
1F
100
AcDbEntity
  8
PROFILES_INSIDE
100
AcDbCircle
 10
422.6636465667
 20
422.3062738092
 30
0.0
 40
0.9999999999999921
100
AcDbArc
 50
260.0000485891
 51
332.3995433346
  0
ARC
  5
2D7
330
1F
100
AcDbEntity
  8
PROFILES_INSIDE
100
AcDbCircle
 10
428.131499867
 20
419.4476936919
 30
0.0
 40
5.17000000000001
100
AcDbArc
 50
325.1121913085
 51
152.3995433346
  0
ARC
  5
2D8
330
1F
100
AcDbEntity
  8
PROFILES_INSIDE
100
AcDbCircle
 10
433.1926167434
 20
415.918610396
 30
0.0
 40
1.000035084614259
100
AcDbArc
 50
145.1121913085
 51
170.0
  0
ARC
  5
2D9
330
1F
100
AcDbEntity
  8
PROFILES_INSIDE
100
AcDbCircle
 10
432.2522016875
 20
410.5854536308
 30
0.0
 40
1.000000000000049
100
AcDbArc
 50
170.0
 51
194.8879034674
  0
ARC
  5
2DA
330
1F
100
AcDbEntity
  8
PROFILES_INSIDE
100
AcDbCircle
 10
426.2893264602
 20
409.0002031697
 30
0.0
 40
5.169999999999981
100
AcDbArc
 50
187.6004769063
 51
14.8879034673
  0
ARC
  5
2DB
330
1F
100
AcDbEntity
  8
PROFILES_INSIDE
100
AcDbCircle
 10
420.1735333693
 20
408.1841303364
 30
0.0
 40
1.000000000000122
100
AcDbArc
 50
7.6004769063
 51
80.0000485891
  0
ARC
  5
2DC
330
1F
100
AcDbEntity
  8
PROFILES_INSIDE
100
AcDbCircle
 10
416.1913279811
 20
408.886297107
 30
0.0
 40
1.000000000000002
100
AcDbArc
 50
80.0000485891
 51
152.3995433346
  0
ARC
  5
2DD
330
1F
100
AcDbEntity
  8
PROFILES_INSIDE
100
AcDbCircle
 10
410.7234746809
 20
411.7448772243
 30
0.0
 40
5.170000000000011
100
AcDbArc
 50
145.1121194146
 51
332.3995433346
  0
ARC
  5
2DE
330
1F
100
AcDbEntity
  8
PROFILES_INSIDE
100
AcDbCircle
 10
405.6623910117
 20
415.2739468034
 30
0.0
 40
1.000000000000072
100
AcDbArc
 50
325.1121194146
 51
350.0
  0
ARC
  5
2DF
330
1F
100
AcDbEntity
  8
PROFILES_INSIDE
100
AcDbCircle
 10
406.6027742048
 20
420.6071249098
 30
0.0
 40
0.9999986349374576
100
AcDbArc
 50
350.0
 51
14.8878382498
  0
ARC
  5
2E0
330
1F
100
AcDbEntity
  8
PROFILES_INSIDE
100
AcDbCircle
 10
412.5656480877
 20
422.1923677465
 30
0.0
 40
5.169998698471415
100
AcDbArc
 50
7.6004769063
 51
194.8878382498
  0
ARC
  5
2E1
330
1F
100
AcDbEntity
  8
PROFILES_INSIDE
100
AcDbCircle
 10
418.6814411786
 20
423.0084405798
 30
0.0
 40
1.000001301528572
100
AcDbArc
 50
187.6004769063
 51
260.0000485891
  0
ARC
  5
2E2
330
1F
100
AcDbEntity
  8
PROFILES_INSIDE
100
AcDbCircle
 10
92.2188464327
 20
476.0414858157
 30
0.0
 40
1.000035084614296
100
AcDbArc
 50
145.1121913085
 51
170.0
  0
ARC
  5
2E3
330
1F
100
AcDbEntity
  8
PROFILES_INSIDE
100
AcDbCircle
 10
87.1577295564
 20
479.5705691115
 30
0.0
 40
5.169999999999986
100
AcDbArc
 50
325.1121913085
 51
152.3995433346
  0
ARC
  5
2E4
330
1F
100
AcDbEntity
  8
PROFILES_INSIDE
100
AcDbCircle
 10
81.6898762561
 20
482.4291492288
 30
0.0
 40
1.000000000000051
100
AcDbArc
 50
260.0000485891
 51
332.3995433346
  0
ARC
  5
2E5
330
1F
100
AcDbEntity
  8
PROFILES_INSIDE
100
AcDbCircle
 10
77.707670868
 20
483.1313159994
 30
0.0
 40
1.000000709924729
100
AcDbArc
 50
187.6004769063
 51
260.0000485891
  0
ARC
  5
2E6
330
1F
100
AcDbEntity
  8
PROFILES_INSIDE
100
AcDbCircle
 10
71.591877777
 20
482.3152431662
 30
0.0
 40
5.169999290075336
100
AcDbArc
 50
7.6004769063
 51
194.8878382498
  0
ARC
  5
2E7
330
1F
100
AcDbEntity
  8
PROFILES_INSIDE
100
AcDbCircle
 10
65.6290038942
 20
480.7300003295
 30
0.0
 40
0.9999985166167757
100
AcDbArc
 50
350.0
 51
14.8878382498
  0
ARC
  5
2E8
330
1F
100
AcDbEntity
  8
PROFILES_INSIDE
100
AcDbCircle
 10
64.6886207011
 20
475.396822223
 30
0.0
 40
0.9999999999999467
100
AcDbArc
 50
325.1121194146
 51
350.0
  0
ARC
  5
2E9
330
1F
100
AcDbEntity
  8
PROFILES_INSIDE
100
AcDbCircle
 10
69.7497043703
 20
471.867752644
 30
0.0
 40
5.170000000000038
100
AcDbArc
 50
145.1121194146
 51
332.3995433346
  0
ARC
  5
2EA
330
1F
100
AcDbEntity
  8
PROFILES_INSIDE
100
AcDbCircle
 10
75.2175576705
 20
469.0091725267
 30
0.0
 40
0.9999999999999815
100
AcDbArc
 50
80.0000485891
 51
152.3995433346
  0
ARC
  5
2EB
330
1F
100
AcDbEntity
  8
PROFILES_INSIDE
100
AcDbCircle
 10
79.1997630587
 20
468.3070057561
 30
0.0
 40
1.000000000000031
100
AcDbArc
 50
7.6004769063
 51
80.0000485891
  0
ARC
  5
2EC
330
1F
100
AcDbEntity
  8
PROFILES_INSIDE
100
AcDbCircle
 10
85.3155561496
 20
469.1230785893
 30
0.0
 40
5.170000000000076
100
AcDbArc
 50
187.6004769063
 51
14.8879034673
  0
ARC
  5
2ED
330
1F
100
AcDbEntity
  8
PROFILES_INSIDE
100
AcDbCircle
 10
91.2784313768
 20
470.7083290504
 30
0.0
 40
0.9999999999999329
100
AcDbArc
 50
170.0
 51
194.8879034673
  0
ARC
  5
2EE
330
1F
100
AcDbEntity
  8
PROFILES_INSIDE
100
AcDbCircle
 10
428.131499932
 20
119.943020617
 30
0.0
 40
5.170000000000037
100
AcDbArc
 50
207.6004769063
 51
34.8879034673
  0
ARC
  5
2EF
330
1F
100
AcDbEntity
  8
PROFILES_INSIDE
100
AcDbCircle
 10
433.1925821918
 20
123.4720922172
 30
0.0
 40
0.9999999999999643
100
AcDbArc
 50
190.0
 51
214.8879034674
  0
ARC
  5
2F0
330
1F
100
AcDbEntity
  8
PROFILES_INSIDE
100
AcDbCircle
 10
432.2522362391
 20
128.8052611672
 30
0.0
 40
1.000035084614278
100
AcDbArc
 50
165.1121913085
 51
190.0
  0
ARC
  5
2F1
330
1F
100
AcDbEntity
  8
PROFILES_INSIDE
100
AcDbCircle
 10
426.2893244827
 20
130.390510779
 30
0.0
 40
5.170000000000099
100
AcDbArc
 50
345.1121913085
 51
172.3995433346
  0
ARC
  5
2F2
330
1F
100
AcDbEntity
  8
PROFILES_INSIDE
100
AcDbCircle
 10
420.1735311035
 20
131.2065814517
 30
0.0
 40
1.000000000000022
100
AcDbArc
 50
280.0000485891
 51
352.3995433346
  0
ARC
  5
2F3
330
1F
100
AcDbEntity
  8
PROFILES_INSIDE
100
AcDbCircle
 10
416.1913269063
 20
130.504407927
 30
0.0
 40
1.000000591603876
100
AcDbArc
 50
207.6004769063
 51
280.0000485891
  0
ARC
  5
2F4
330
1F
100
AcDbEntity
  8
PROFILES_INSIDE
100
AcDbCircle
 10
410.7234746159
 20
127.6458258781
 30
0.0
 40
5.169999408396093
100
AcDbArc
 50
27.6004769063
 51
214.8878382498
  0
ARC
  5
2F5
330
1F
100
AcDbEntity
  8
PROFILES_INSIDE
100
AcDbCircle
 10
405.6623910117
 20
124.1167619023
 30
0.0
 40
0.9999983982959186
100
AcDbArc
 50
10.0
 51
34.8878382498
  0
ARC
  5
2F6
330
1F
100
AcDbEntity
  8
PROFILES_INSIDE
100
AcDbCircle
 10
406.6027742048
 20
118.7835837958
 30
0.0
 40
1.000000000000074
100
AcDbArc
 50
345.1121194146
 51
10.0
  0
ARC
  5
2F7
330
1F
100
AcDbEntity
  8
PROFILES_INSIDE
100
AcDbCircle
 10
412.5656500652
 20
117.1983357161
 30
0.0
 40
5.170000000000013
100
AcDbArc
 50
165.1121194146
 51
352.3995433346
  0
ARC
  5
2F8
330
1F
100
AcDbEntity
  8
PROFILES_INSIDE
100
AcDbCircle
 10
418.6814434444
 20
116.3822650433
 30
0.0
 40
0.9999999999999971
100
AcDbArc
 50
100.0000485891
 51
172.3995433346
  0
ARC
  5
2F9
330
1F
100
AcDbEntity
  8
PROFILES_INSIDE
100
AcDbCircle
 10
422.6636476416
 20
117.0844385681
 30
0.0
 40
1.000000000000033
100
AcDbArc
 50
27.6004769063
 51
100.0000485891
  0
ARC
  5
2FA
330
1F
100
AcDbEntity
  8
PROFILES_INSIDE
100
AcDbCircle
 10
65.6290038942
 20
58.6607083762
 30
0.0
 40
1.000000000000045
100
AcDbArc
 50
345.1121194146
 51
10.0
  0
ARC
  5
2FB
330
1F
100
AcDbEntity
  8
PROFILES_INSIDE
100
AcDbCircle
 10
71.5918797545
 20
57.0754602964
 30
0.0
 40
5.170000000000109
100
AcDbArc
 50
165.1121194146
 51
352.3995433346
  0
ARC
  5
2FC
330
1F
100
AcDbEntity
  8
PROFILES_INSIDE
100
AcDbCircle
 10
77.7076731337
 20
56.2593896237
 30
0.0
 40
0.999999999999927
100
AcDbArc
 50
100.0000485891
 51
172.3995433346
  0
ARC
  5
2FD
330
1F
100
AcDbEntity
  8
PROFILES_INSIDE
100
AcDbCircle
 10
81.689877331
 20
56.9615631484
 30
0.0
 40
1.000000000000042
100
AcDbArc
 50
27.6004769063
 51
100.0000485891
  0
ARC
  5
2FE
330
1F
100
AcDbEntity
  8
PROFILES_INSIDE
100
AcDbCircle
 10
87.1577296214
 20
59.8201451973
 30
0.0
 40
5.169999999999976
100
AcDbArc
 50
207.6004769063
 51
34.8879034673
  0
ARC
  5
2FF
330
1F
100
AcDbEntity
  8
PROFILES_INSIDE
100
AcDbCircle
 10
92.2188118811
 20
63.3492167976
 30
0.0
 40
1.000000000000029
100
AcDbArc
 50
190.0
 51
214.8879034673
  0
ARC
  5
300
330
1F
100
AcDbEntity
  8
PROFILES_INSIDE
100
AcDbCircle
 10
91.2784659284
 20
68.6823857476
 30
0.0
 40
1.000035084614194
100
AcDbArc
 50
165.1121913085
 51
190.0
  0
ARC
  5
301
330
1F
100
AcDbEntity
  8
PROFILES_INSIDE
100
AcDbCircle
 10
85.3155541721
 20
70.2676353594
 30
0.0
 40
5.169999999999972
100
AcDbArc
 50
345.1121913085
 51
172.3995433346
  0
ARC
  5
302
330
1F
100
AcDbEntity
  8
PROFILES_INSIDE
100
AcDbCircle
 10
79.1997607929
 20
71.0837060321
 30
0.0
 40
1.000000000000145
100
AcDbArc
 50
280.0000485891
 51
352.3995433346
  0
ARC
  5
303
330
1F
100
AcDbEntity
  8
PROFILES_INSIDE
100
AcDbCircle
 10
75.2175565957
 20
70.3815325074
 30
0.0
 40
1.000000118320816
100
AcDbArc
 50
207.6004769063
 51
280.0000485891
  0
ARC
  5
304
330
1F
100
AcDbEntity
  8
PROFILES_INSIDE
100
AcDbCircle
 10
69.7497043053
 20
67.5229504584
 30
0.0
 40
5.169999881679217
100
AcDbArc
 50
27.6004769063
 51
214.8878382498
  0
ARC
  5
305
330
1F
100
AcDbEntity
  8
PROFILES_INSIDE
100
AcDbCircle
 10
64.6886207011
 20
63.9938864826
 30
0.0
 40
0.9999986349374539
100
AcDbArc
 50
10.0
 51
34.8878382498
  0
ARC
  5
306
330
1F
100
AcDbEntity
  8
PROFILES_INSIDE
100
AcDbCircle
 10
886.1436465667
 20
422.3062738092
 30
0.0
 40
1.000000000000071
100
AcDbArc
 50
260.0000485891
 51
332.3995433346
  0
ARC
  5
307
330
1F
100
AcDbEntity
  8
PROFILES_INSIDE
100
AcDbCircle
 10
891.611499867
 20
419.4476936919
 30
0.0
 40
5.170000000000043
100
AcDbArc
 50
325.1121913085
 51
152.3995433346
  0
ARC
  5
308
330
1F
100
AcDbEntity
  8
PROFILES_INSIDE
100
AcDbCircle
 10
896.6726167434
 20
415.918610396
 30
0.0
 40
1.000035084614226
100
AcDbArc
 50
145.1121913085
 51
170.0
  0
ARC
  5
309
330
1F
100
AcDbEntity
  8
PROFILES_INSIDE
100
AcDbCircle
 10
895.7322016875
 20
410.5854536308
 30
0.0
 40
1.000000000000003
100
AcDbArc
 50
170.0
 51
194.8879034673
  0
ARC
  5
30A
330
1F
100
AcDbEntity
  8
PROFILES_INSIDE
100
AcDbCircle
 10
889.7693264602
 20
409.0002031697
 30
0.0
 40
5.170000000000098
100
AcDbArc
 50
187.6004769063
 51
14.8879034673
  0
ARC
  5
30B
330
1F
100
AcDbEntity
  8
PROFILES_INSIDE
100
AcDbCircle
 10
883.6535333693
 20
408.1841303364
 30
0.0
 40
1.000000000000058
100
AcDbArc
 50
7.6004769063
 51
80.0000485891
  0
ARC
  5
30C
330
1F
100
AcDbEntity
  8
PROFILES_INSIDE
100
AcDbCircle
 10
879.6713279811
 20
408.886297107
 30
0.0
 40
0.9999999999999437
100
AcDbArc
 50
80.0000485891
 51
152.3995433346
  0
ARC
  5
30D
330
1F
100
AcDbEntity
  8
PROFILES_INSIDE
100
AcDbCircle
 10
874.2034746809
 20
411.7448772243
 30
0.0
 40
5.170000000000063
100
AcDbArc
 50
145.1121194146
 51
332.3995433346
  0
ARC
  5
30E
330
1F
100
AcDbEntity
  8
PROFILES_INSIDE
100
AcDbCircle
 10
869.1423910117
 20
415.2739468034
 30
0.0
 40
1.000000000000003
100
AcDbArc
 50
325.1121194146
 51
350.0
  0
ARC
  5
30F
330
1F
100
AcDbEntity
  8
PROFILES_INSIDE
100
AcDbCircle
 10
870.0827742048
 20
420.6071249098
 30
0.0
 40
0.9999986349374016
100
AcDbArc
 50
350.0
 51
14.8878382498
  0
ARC
  5
310
330
1F
100
AcDbEntity
  8
PROFILES_INSIDE
100
AcDbCircle
 10
876.0456480877
 20
422.1923677465
 30
0.0
 40
5.169998698471423
100
AcDbArc
 50
7.6004769063
 51
194.8878382498
  0
ARC
  5
311
330
1F
100
AcDbEntity
  8
PROFILES_INSIDE
100
AcDbCircle
 10
882.1614411786
 20
423.0084405798
 30
0.0
 40
1.000001301528518
100
AcDbArc
 50
187.6004769063
 51
260.0000485891
  0
ARC
  5
312
330
1F
100
AcDbEntity
  8
PROFILES_INSIDE
100
AcDbCircle
 10
555.8412496338
 20
476.0163762892
 30
0.0
 40
1.000035084614352
100
AcDbArc
 50
145.1121913085
 51
170.0
  0
ARC
  5
313
330
1F
100
AcDbEntity
  8
PROFILES_INSIDE
100
AcDbCircle
 10
550.7801327574
 20
479.545459585
 30
0.0
 40
5.170000000000036
100
AcDbArc
 50
325.1121913085
 51
152.3995433346
  0
ARC
  5
314
330
1F
100
AcDbEntity
  8
PROFILES_INSIDE
100
AcDbCircle
 10
545.3122794572
 20
482.4040397023
 30
0.0
 40
1.000000000000012
100
AcDbArc
 50
260.0000485891
 51
332.3995433346
  0
ARC
  5
315
330
1F
100
AcDbEntity
  8
PROFILES_INSIDE
100
AcDbCircle
 10
541.330074069
 20
483.1062064729
 30
0.0
 40
1.000000709924589
100
AcDbArc
 50
187.6004769063
 51
260.0000485891
  0
ARC
  5
316
330
1F
100
AcDbEntity
  8
PROFILES_INSIDE
100
AcDbCircle
 10
535.2142809781
 20
482.2901336397
 30
0.0
 40
5.169999290075469
100
AcDbArc
 50
7.6004769063
 51
194.8878382498
  0
ARC
  5
317
330
1F
100
AcDbEntity
  8
PROFILES_INSIDE
100
AcDbCircle
 10
529.2514070953
 20
480.704890803
 30
0.0
 40
0.999998516616626
100
AcDbArc
 50
350.0
 51
14.8878382498
  0
ARC
  5
318
330
1F
100
AcDbEntity
  8
PROFILES_INSIDE
100
AcDbCircle
 10
528.3110239022
 20
475.3717126965
 30
0.0
 40
0.9999999999999931
100
AcDbArc
 50
325.1121194146
 51
350.0
  0
ARC
  5
319
330
1F
100
AcDbEntity
  8
PROFILES_INSIDE
100
AcDbCircle
 10
533.3721075714
 20
471.8426431175
 30
0.0
 40
5.170000000000083
100
AcDbArc
 50
145.1121194146
 51
332.3995433346
  0
ARC
  5
31A
330
1F
100
AcDbEntity
  8
PROFILES_INSIDE
100
AcDbCircle
 10
538.8399608716
 20
468.9840630002
 30
0.0
 40
0.9999999999999921
100
AcDbArc
 50
80.0000485891
 51
152.3995433346
  0
ARC
  5
31B
330
1F
100
AcDbEntity
  8
PROFILES_INSIDE
100
AcDbCircle
 10
542.8221662598
 20
468.2818962296
 30
0.0
 40
1.000000000000066
100
AcDbArc
 50
7.6004769063
 51
80.0000485891
  0
ARC
  5
31C
330
1F
100
AcDbEntity
  8
PROFILES_INSIDE
100
AcDbCircle
 10
548.9379593507
 20
469.0979690628
 30
0.0
 40
5.170000000000021
100
AcDbArc
 50
187.6004769063
 51
14.8879034673
  0
ARC
  5
31D
330
1F
100
AcDbEntity
  8
PROFILES_INSIDE
100
AcDbCircle
 10
554.9008345779
 20
470.683219524
 30
0.0
 40
0.999999999999908
100
AcDbArc
 50
170.0
 51
194.8879034674
  0
ARC
  5
31E
330
1F
100
AcDbEntity
  8
PROFILES_INSIDE
100
AcDbCircle
 10
891.611499932
 20
119.943020617
 30
0.0
 40
5.170000000000012
100
AcDbArc
 50
207.6004769063
 51
34.8879034673
  0
ARC
  5
31F
330
1F
100
AcDbEntity
  8
PROFILES_INSIDE
100
AcDbCircle
 10
896.6725821918
 20
123.4720922172
 30
0.0
 40
0.9999999999999643
100
AcDbArc
 50
190.0
 51
214.8879034674
  0
ARC
  5
320
330
1F
100
AcDbEntity
  8
PROFILES_INSIDE
100
AcDbCircle
 10
895.7322362391
 20
128.8052611672
 30
0.0
 40
1.000035084614301
100
AcDbArc
 50
165.1121913085
 51
190.0
  0
ARC
  5
321
330
1F
100
AcDbEntity
  8
PROFILES_INSIDE
100
AcDbCircle
 10
889.7693244827
 20
130.390510779
 30
0.0
 40
5.170000000000043
100
AcDbArc
 50
345.1121913085
 51
172.3995433346
  0
ARC
  5
322
330
1F
100
AcDbEntity
  8
PROFILES_INSIDE
100
AcDbCircle
 10
883.6535311035
 20
131.2065814517
 30
0.0
 40
0.9999999999999855
100
AcDbArc
 50
280.0000485891
 51
352.3995433346
  0
ARC
  5
323
330
1F
100
AcDbEntity
  8
PROFILES_INSIDE
100
AcDbCircle
 10
879.6713269063
 20
130.504407927
 30
0.0
 40
1.000000591603802
100
AcDbArc
 50
207.6004769063
 51
280.0000485891
  0
ARC
  5
324
330
1F
100
AcDbEntity
  8
PROFILES_INSIDE
100
AcDbCircle
 10
874.2034746159
 20
127.6458258781
 30
0.0
 40
5.169999408396167
100
AcDbArc
 50
27.6004769063
 51
214.8878382498
  0
ARC
  5
325
330
1F
100
AcDbEntity
  8
PROFILES_INSIDE
100
AcDbCircle
 10
869.1423910117
 20
124.1167619023
 30
0.0
 40
0.9999983982958627
100
AcDbArc
 50
10.0
 51
34.8878382498
  0
ARC
  5
326
330
1F
100
AcDbEntity
  8
PROFILES_INSIDE
100
AcDbCircle
 10
870.0827742048
 20
118.7835837958
 30
0.0
 40
1.000000000000009
100
AcDbArc
 50
345.1121194146
 51
10.0
  0
ARC
  5
327
330
1F
100
AcDbEntity
  8
PROFILES_INSIDE
100
AcDbCircle
 10
876.0456500652
 20
117.1983357161
 30
0.0
 40
5.170000000000049
100
AcDbArc
 50
165.1121194146
 51
352.3995433346
  0
ARC
  5
328
330
1F
100
AcDbEntity
  8
PROFILES_INSIDE
100
AcDbCircle
 10
882.1614434444
 20
116.3822650433
 30
0.0
 40
0.9999999999999657
100
AcDbArc
 50
100.0000485891
 51
172.3995433346
  0
ARC
  5
329
330
1F
100
AcDbEntity
  8
PROFILES_INSIDE
100
AcDbCircle
 10
886.1436476416
 20
117.0844385681
 30
0.0
 40
0.9999999999999855
100
AcDbArc
 50
27.6004769063
 51
100.0000485891
  0
ARC
  5
32A
330
1F
100
AcDbEntity
  8
PROFILES_INSIDE
100
AcDbCircle
 10
529.2514070953
 20
58.6858179026
 30
0.0
 40
1.000000000000003
100
AcDbArc
 50
345.1121194146
 51
10.0
  0
ARC
  5
32B
330
1F
100
AcDbEntity
  8
PROFILES_INSIDE
100
AcDbCircle
 10
535.2142829556
 20
57.1005698229
 30
0.0
 40
5.17000000000005
100
AcDbArc
 50
165.1121194146
 51
352.3995433346
  0
ARC
  5
32C
330
1F
100
AcDbEntity
  8
PROFILES_INSIDE
100
AcDbCircle
 10
541.3300763348
 20
56.2844991502
 30
0.0
 40
1.000000000000022
100
AcDbArc
 50
100.0000485891
 51
172.3995433346
  0
ARC
  5
32D
330
1F
100
AcDbEntity
  8
PROFILES_INSIDE
100
AcDbCircle
 10
545.312280532
 20
56.9866726749
 30
0.0
 40
1.000000000000054
100
AcDbArc
 50
27.6004769063
 51
100.0000485891
  0
ARC
  5
32E
330
1F
100
AcDbEntity
  8
PROFILES_INSIDE
100
AcDbCircle
 10
550.7801328224
 20
59.8452547238
 30
0.0
 40
5.170000000000029
100
AcDbArc
 50
207.6004769063
 51
34.8879034673
  0
ARC
  5
32F
330
1F
100
AcDbEntity
  8
PROFILES_INSIDE
100
AcDbCircle
 10
555.8412150822
 20
63.3743263241
 30
0.0
 40
1.000000000000003
100
AcDbArc
 50
190.0
 51
214.8879034673
  0
ARC
  5
330
330
1F
100
AcDbEntity
  8
PROFILES_INSIDE
100
AcDbCircle
 10
554.9008691295
 20
68.7074952741
 30
0.0
 40
1.000035084614283
100
AcDbArc
 50
165.1121913085
 51
190.0
  0
ARC
  5
331
330
1F
100
AcDbEntity
  8
PROFILES_INSIDE
100
AcDbCircle
 10
548.9379573732
 20
70.2927448859
 30
0.0
 40
5.170000000000079
100
AcDbArc
 50
345.1121913085
 51
172.3995433346
  0
ARC
  5
332
330
1F
100
AcDbEntity
  8
PROFILES_INSIDE
100
AcDbCircle
 10
542.822163994
 20
71.1088155586
 30
0.0
 40
0.9999999999999657
100
AcDbArc
 50
280.0000485891
 51
352.3995433346
  0
ARC
  5
333
330
1F
100
AcDbEntity
  8
PROFILES_INSIDE
100
AcDbCircle
 10
538.8399597968
 20
70.4066420339
 30
0.0
 40
1.000000118320886
100
AcDbArc
 50
207.6004769063
 51
280.0000485891
  0
ARC
  5
334
330
1F
100
AcDbEntity
  8
PROFILES_INSIDE
100
AcDbCircle
 10
533.3721075064
 20
67.5480599849
 30
0.0
 40
5.169999881679083
100
AcDbArc
 50
27.6004769063
 51
214.8878382498
  0
ARC
  5
335
330
1F
100
AcDbEntity
  8
PROFILES_INSIDE
100
AcDbCircle
 10
528.3110239022
 20
64.0189960091
 30
0.0
 40
0.9999986349376304
100
AcDbArc
 50
10.0
 51
34.8878382498
  0
ARC
  5
336
330
1F
100
AcDbEntity
  8
PROFILES_OUTSIDE
100
AcDbCircle
 10
495.4282800697
 20
499.15072333
 30
0.0
 40
6.000000000000114
100
AcDbArc
 50
80.0
 51
180.0
  0
ARC
  5
337
330
1F
100
AcDbEntity
  8
PROFILES_OUTSIDE
100
AcDbCircle
 10
915.4282800697
 20
425.0933914325
 30
0.0
 40
6.000000000000114
100
AcDbArc
 50
0.0
 51
80.0
  0
ARC
  5
338
330
1F
100
AcDbEntity
  8
PROFILES_OUTSIDE
100
AcDbCircle
 10
915.4282800697
 20
355.1625870066
 30
0.0
 40
6.000000000000114
100
AcDbArc
 50
280.0
 51
0.0
  0
ARC
  5
339
330
1F
100
AcDbEntity
  8
PROFILES_OUTSIDE
100
AcDbCircle
 10
907.4282800697
 20
341.5668518183
 30
0.0
 40
6.0
100
AcDbArc
 50
100.0
 51
180.0
  0
ARC
  5
33A
330
1F
100
AcDbEntity
  8
PROFILES_OUTSIDE
100
AcDbCircle
 10
907.4282800697
 20
197.8238568874
 30
0.0
 40
6.0
100
AcDbArc
 50
180.0
 51
260.0
  0
ARC
  5
33B
330
1F
100
AcDbEntity
  8
PROFILES_OUTSIDE
100
AcDbCircle
 10
915.4282800697
 20
184.2281216991
 30
0.0
 40
6.000000000000114
100
AcDbArc
 50
0.0
 51
80.0
  0
ARC
  5
33C
330
1F
100
AcDbEntity
  8
PROFILES_OUTSIDE
100
AcDbCircle
 10
915.4282800697
 20
114.2973172732
 30
0.0
 40
6.000000000000114
100
AcDbArc
 50
280.0
 51
0.0
  0
ARC
  5
33D
330
1F
100
AcDbEntity
  8
PROFILES_OUTSIDE
100
AcDbCircle
 10
495.4282800697
 20
40.2399853756
 30
0.0
 40
6.000000000000114
100
AcDbArc
 50
180.0
 51
280.0
  0
ARC
  5
33E
330
1F
100
AcDbEntity
  8
PROFILES_OUTSIDE
100
AcDbCircle
 10
1895.9182800697
 20
389.3071026011
 30
0.0
 40
12.0
100
AcDbArc
 50
90.0
 51
180.0
  0
ARC
  5
33F
330
1F
100
AcDbEntity
  8
PROFILES_OUTSIDE
100
AcDbCircle
 10
1895.9182800697
 20
67.0732622726
 30
0.0
 40
12.00000000000012
100
AcDbArc
 50
180.0
 51
270.0
  0
ARC
  5
340
330
1F
100
AcDbEntity
  8
PROFILES_OUTSIDE
100
AcDbCircle
 10
2018.8682800697
 20
37.3232622726
 30
0.0
 40
1.000000000000455
100
AcDbArc
 50
270.0
 51
0.0
  0
ARC
  5
341
330
1F
100
AcDbEntity
  8
PROFILES_OUTSIDE
100
AcDbCircle
 10
1673.4663259768
 20
414.8071026011
 30
0.0
 40
1.00000000000016
100
AcDbArc
 50
183.6619355755
 51
270.0
  0
ARC
  5
342
330
1F
100
AcDbEntity
  8
PROFILES_OUTSIDE
100
AcDbCircle
 10
1681.4060016863
 20
412.8071026011
 30
0.0
 40
1.00000000000014
100
AcDbArc
 50
65.1121079736
 51
90.0
  0
ARC
  5
343
330
1F
100
AcDbEntity
  8
PROFILES_OUTSIDE
100
AcDbCircle
 10
1684.0026099301
 20
418.4041130199
 30
0.0
 40
5.169999999999933
100
AcDbArc
 50
245.1121079736
 51
72.3995332141
  0
ARC
  5
344
330
1F
100
AcDbEntity
  8
PROFILES_OUTSIDE
100
AcDbCircle
 10
1685.8682800697
 20
424.2852842408
 30
0.0
 40
1.000000000000227
100
AcDbArc
 50
180.0
 51
252.3995332141
  0
ARC
  5
345
330
1F
100
AcDbEntity
  8
PROFILES_OUTSIDE
100
AcDbCircle
 10
1802.8682800697
 20
414.3091026011
 30
0.0
 40
12.0
100
AcDbArc
 50
0.0
 51
90.0
  0
ARC
  5
346
330
1F
100
AcDbEntity
  8
PROFILES_OUTSIDE
100
AcDbCircle
 10
1826.8682800697
 20
302.2298224916
 30
0.0
 40
12.00000000000006
100
AcDbArc
 50
180.0
 51
270.0
  0
ARC
  5
347
330
1F
100
AcDbEntity
  8
PROFILES_OUTSIDE
100
AcDbCircle
 10
1852.8682800697
 20
302.2298224916
 30
0.0
 40
12.00000000000006
100
AcDbArc
 50
270.0
 51
0.0
  0
ARC
  5
348
330
1F
100
AcDbEntity
  8
PROFILES_OUTSIDE
100
AcDbCircle
 10
1876.8682800697
 20
414.3091026011
 30
0.0
 40
12.0
100
AcDbArc
 50
90.0
 51
180.0
  0
ARC
  5
349
330
1F
100
AcDbEntity
  8
PROFILES_OUTSIDE
100
AcDbCircle
 10
1993.8682800697
 20
424.2852842408
 30
0.0
 40
1.0
100
AcDbArc
 50
287.6004667859
 51
0.0
  0
ARC
  5
34A
330
1F
100
AcDbEntity
  8
PROFILES_OUTSIDE
100
AcDbCircle
 10
1995.7339502093
 20
418.4041130199
 30
0.0
 40
5.170000000000028
100
AcDbArc
 50
107.6004667859
 51
294.8878920264
  0
ARC
  5
34B
330
1F
100
AcDbEntity
  8
PROFILES_OUTSIDE
100
AcDbCircle
 10
1998.3305584531
 20
412.8071026011
 30
0.0
 40
1.000000000000089
100
AcDbArc
 50
90.0
 51
114.8878920264
  0
ARC
  5
34C
330
1F
100
AcDbEntity
  8
PROFILES_OUTSIDE
100
AcDbCircle
 10
2006.2702341626
 20
414.8071026011
 30
0.0
 40
1.00000000000016
100
AcDbArc
 50
270.0
 51
356.3380644245
  0
ARC
  5
34D
330
1F
100
AcDbEntity
  8
PROFILES_OUTSIDE
100
AcDbCircle
 10
2013.8682800697
 20
407.3071026011
 30
0.0
 40
6.000000000000227
100
AcDbArc
 50
270.0
 51
0.0
  0
ARC
  5
34E
330
1F
100
AcDbEntity
  8
PROFILES_OUTSIDE
100
AcDbCircle
 10
1660.8682800697
 20
37.3232622726
 30
0.0
 40
1.0
100
AcDbArc
 50
180.0
 51
270.0
  0
ARC
  5
34F
330
1F
100
AcDbEntity
  8
PROFILES_OUTSIDE
100
AcDbCircle
 10
1864.8682800697
 20
290.2298224916
 30
0.0
 40
19.04999999999995
100
AcDbArc
 50
300.0
 51
0.0
  0
ARC
  5
350
330
1F
100
AcDbEntity
  8
PROFILES_OUTSIDE
100
AcDbCircle
 10
1883.9182800697
 20
257.2342546074
 30
0.0
 40
19.05000000000006
100
AcDbArc
 50
120.0
 51
180.0
  0
ARC
  5
351
330
1F
100
AcDbEntity
  8
PROFILES_OUTSIDE
100
AcDbCircle
 10
1883.9182800697
 20
199.1461102663
 30
0.0
 40
19.04999999999999
100
AcDbArc
 50
180.0
 51
240.0
  0
ARC
  5
352
330
1F
100
AcDbEntity
  8
PROFILES_OUTSIDE
100
AcDbCircle
 10
1864.8682800697
 20
166.1505423821
 30
0.0
 40
19.04999999999995
100
AcDbArc
 50
0.0
 51
60.0
  0
ARC
  5
353
330
1F
100
AcDbEntity
  8
PROFILES_OUTSIDE
100
AcDbCircle
 10
2013.8682800697
 20
49.0732622726
 30
0.0
 40
6.000000000000227
100
AcDbArc
 50
0.0
 51
90.0
  0
ARC
  5
354
330
1F
100
AcDbEntity
  8
PROFILES_OUTSIDE
100
AcDbCircle
 10
1783.8182800697
 20
67.0732622726
 30
0.0
 40
12.0
100
AcDbArc
 50
270.0
 51
0.0
  0
ARC
  5
355
330
1F
100
AcDbEntity
  8
PROFILES_OUTSIDE
100
AcDbCircle
 10
2006.2702341626
 20
41.5732622726
 30
0.0
 40
1.00000000000016
100
AcDbArc
 50
3.6619355755
 51
90.0
  0
ARC
  5
356
330
1F
100
AcDbEntity
  8
PROFILES_OUTSIDE
100
AcDbCircle
 10
1998.3305584531
 20
43.5732622726
 30
0.0
 40
1.000000000000172
100
AcDbArc
 50
245.1121079736
 51
270.0
  0
ARC
  5
357
330
1F
100
AcDbEntity
  8
PROFILES_OUTSIDE
100
AcDbCircle
 10
1995.7339502093
 20
37.9762518538
 30
0.0
 40
5.170000000000043
100
AcDbArc
 50
65.1121079736
 51
252.3995332141
  0
ARC
  5
358
330
1F
100
AcDbEntity
  8
PROFILES_OUTSIDE
100
AcDbCircle
 10
1993.8682800697
 20
32.0950806329
 30
0.0
 40
1.0
100
AcDbArc
 50
0.0
 51
72.3995332141
  0
ARC
  5
359
330
1F
100
AcDbEntity
  8
PROFILES_OUTSIDE
100
AcDbCircle
 10
1876.8682800697
 20
42.0712622726
 30
0.0
 40
12.00000000000001
100
AcDbArc
 50
180.0
 51
270.0
  0
ARC
  5
35A
330
1F
100
AcDbEntity
  8
PROFILES_OUTSIDE
100
AcDbCircle
 10
1852.8682800697
 20
154.1505423821
 30
0.0
 40
12.0
100
AcDbArc
 50
0.0
 51
90.0
  0
ARC
  5
35B
330
1F
100
AcDbEntity
  8
PROFILES_OUTSIDE
100
AcDbCircle
 10
1826.8682800697
 20
154.1505423821
 30
0.0
 40
12.0
100
AcDbArc
 50
90.0
 51
180.0
  0
ARC
  5
35C
330
1F
100
AcDbEntity
  8
PROFILES_OUTSIDE
100
AcDbCircle
 10
1802.8682800697
 20
42.0712622726
 30
0.0
 40
12.00000000000001
100
AcDbArc
 50
270.0
 51
0.0
  0
ARC
  5
35D
330
1F
100
AcDbEntity
  8
PROFILES_OUTSIDE
100
AcDbCircle
 10
1685.8682800697
 20
32.0950806329
 30
0.0
 40
0.9999999999999706
100
AcDbArc
 50
107.6004667859
 51
180.0
  0
ARC
  5
35E
330
1F
100
AcDbEntity
  8
PROFILES_OUTSIDE
100
AcDbCircle
 10
1684.0026099301
 20
37.9762518538
 30
0.0
 40
5.170000000000043
100
AcDbArc
 50
287.6004667859
 51
114.8878920264
  0
ARC
  5
35F
330
1F
100
AcDbEntity
  8
PROFILES_OUTSIDE
100
AcDbCircle
 10
1681.4060016863
 20
43.5732622726
 30
0.0
 40
1.000000000000068
100
AcDbArc
 50
270.0
 51
294.8878920264
  0
ARC
  5
360
330
1F
100
AcDbEntity
  8
PROFILES_OUTSIDE
100
AcDbCircle
 10
1673.4663259768
 20
41.5732622726
 30
0.0
 40
1.00000000000016
100
AcDbArc
 50
90.0
 51
176.3380644245
  0
ARC
  5
361
330
1F
100
AcDbEntity
  8
PROFILES_OUTSIDE
100
AcDbCircle
 10
1665.8682800697
 20
49.0732622726
 30
0.0
 40
6.000000000000007
100
AcDbArc
 50
90.0
 51
180.0
  0
ARC
  5
362
330
1F
100
AcDbEntity
  8
PROFILES_OUTSIDE
100
AcDbCircle
 10
1783.8182800697
 20
389.3071026011
 30
0.0
 40
12.0
100
AcDbArc
 50
0.0
 51
90.0
  0
ARC
  5
363
330
1F
100
AcDbEntity
  8
PROFILES_OUTSIDE
100
AcDbCircle
 10
1814.8682800697
 20
166.1505423821
 30
0.0
 40
19.04999999999995
100
AcDbArc
 50
120.0
 51
180.0
  0
ARC
  5
364
330
1F
100
AcDbEntity
  8
PROFILES_OUTSIDE
100
AcDbCircle
 10
1795.8182800697
 20
199.1461102663
 30
0.0
 40
19.0499999999999
100
AcDbArc
 50
300.0
 51
0.0
  0
ARC
  5
365
330
1F
100
AcDbEntity
  8
PROFILES_OUTSIDE
100
AcDbCircle
 10
1795.8182800697
 20
257.2342546074
 30
0.0
 40
19.05000000000011
100
AcDbArc
 50
0.0
 51
60.0
  0
ARC
  5
366
330
1F
100
AcDbEntity
  8
PROFILES_OUTSIDE
100
AcDbCircle
 10
1814.8682800697
 20
290.2298224916
 30
0.0
 40
19.04999999999995
100
AcDbArc
 50
180.0
 51
240.0
  0
ARC
  5
367
330
1F
100
AcDbEntity
  8
PROFILES_OUTSIDE
100
AcDbCircle
 10
1665.8682800697
 20
407.3071026011
 30
0.0
 40
6.0
100
AcDbArc
 50
180.0
 51
270.0
  0
ARC
  5
368
330
1F
100
AcDbEntity
  8
PROFILES_OUTSIDE
100
AcDbCircle
 10
1660.8682800697
 20
419.0571026011
 30
0.0
 40
1.000000000000227
100
AcDbArc
 50
90.0
 51
180.0
  0
ARC
  5
369
330
1F
100
AcDbEntity
  8
PROFILES_OUTSIDE
100
AcDbCircle
 10
1660.8682800697
 20
465.0371026011
 30
0.0
 40
1.000000000000227
100
AcDbArc
 50
180.0
 51
270.0
  0
ARC
  5
36A
330
1F
100
AcDbEntity
  8
PROFILES_OUTSIDE
100
AcDbCircle
 10
1783.8182800697
 20
494.7871026011
 30
0.0
 40
12.0
100
AcDbArc
 50
270.0
 51
0.0
  0
ARC
  5
36B
330
1F
100
AcDbEntity
  8
PROFILES_OUTSIDE
100
AcDbCircle
 10
1783.8182800697
 20
817.0209429295
 30
0.0
 40
12.00000000000023
100
AcDbArc
 50
0.0
 51
90.0
  0
ARC
  5
36C
330
1F
100
AcDbEntity
  8
PROFILES_OUTSIDE
100
AcDbCircle
 10
1660.8682800697
 20
846.7709429295
 30
0.0
 40
1.000000000000227
100
AcDbArc
 50
90.0
 51
180.0
  0
ARC
  5
36D
330
1F
100
AcDbEntity
  8
PROFILES_OUTSIDE
100
AcDbCircle
 10
2006.2702341626
 20
469.2871026011
 30
0.0
 40
1.00000000000016
100
AcDbArc
 50
3.6619355755
 51
90.0
  0
ARC
  5
36E
330
1F
100
AcDbEntity
  8
PROFILES_OUTSIDE
100
AcDbCircle
 10
1998.3305584531
 20
471.2871026011
 30
0.0
 40
1.00000000000014
100
AcDbArc
 50
245.1121079736
 51
270.0
  0
ARC
  5
36F
330
1F
100
AcDbEntity
  8
PROFILES_OUTSIDE
100
AcDbCircle
 10
1995.7339502093
 20
465.6900921823
 30
0.0
 40
5.169999999999882
100
AcDbArc
 50
65.1121079736
 51
252.3995332141
  0
ARC
  5
370
330
1F
100
AcDbEntity
  8
PROFILES_OUTSIDE
100
AcDbCircle
 10
1993.8682800697
 20
459.8089209613
 30
0.0
 40
1.000000000000227
100
AcDbArc
 50
0.0
 51
72.3995332141
  0
ARC
  5
371
330
1F
100
AcDbEntity
  8
PROFILES_OUTSIDE
100
AcDbCircle
 10
1876.8682800697
 20
469.7851026011
 30
0.0
 40
12.00000000000006
100
AcDbArc
 50
180.0
 51
270.0
  0
ARC
  5
372
330
1F
100
AcDbEntity
  8
PROFILES_OUTSIDE
100
AcDbCircle
 10
1852.8682800697
 20
581.8643827105
 30
0.0
 40
12.0
100
AcDbArc
 50
0.0
 51
90.0
  0
ARC
  5
373
330
1F
100
AcDbEntity
  8
PROFILES_OUTSIDE
100
AcDbCircle
 10
1826.8682800697
 20
581.8643827105
 30
0.0
 40
12.0
100
AcDbArc
 50
90.0
 51
180.0
  0
ARC
  5
374
330
1F
100
AcDbEntity
  8
PROFILES_OUTSIDE
100
AcDbCircle
 10
1802.8682800697
 20
469.7851026011
 30
0.0
 40
12.00000000000006
100
AcDbArc
 50
270.0
 51
0.0
  0
ARC
  5
375
330
1F
100
AcDbEntity
  8
PROFILES_OUTSIDE
100
AcDbCircle
 10
1685.8682800697
 20
459.8089209613
 30
0.0
 40
1.0
100
AcDbArc
 50
107.6004667859
 51
180.0
  0
ARC
  5
376
330
1F
100
AcDbEntity
  8
PROFILES_OUTSIDE
100
AcDbCircle
 10
1684.0026099301
 20
465.6900921823
 30
0.0
 40
5.170000000000028
100
AcDbArc
 50
287.6004667859
 51
114.8878920264
  0
ARC
  5
377
330
1F
100
AcDbEntity
  8
PROFILES_OUTSIDE
100
AcDbCircle
 10
1681.4060016863
 20
471.2871026011
 30
0.0
 40
1.000000000000037
100
AcDbArc
 50
270.0
 51
294.8878920264
  0
ARC
  5
378
330
1F
100
AcDbEntity
  8
PROFILES_OUTSIDE
100
AcDbCircle
 10
1673.4663259768
 20
469.2871026011
 30
0.0
 40
0.9999999999999432
100
AcDbArc
 50
90.0
 51
176.3380644245
  0
ARC
  5
379
330
1F
100
AcDbEntity
  8
PROFILES_OUTSIDE
100
AcDbCircle
 10
1665.8682800697
 20
476.7871026011
 30
0.0
 40
6.000000000000227
100
AcDbArc
 50
90.0
 51
180.0
  0
ARC
  5
37A
330
1F
100
AcDbEntity
  8
PROFILES_OUTSIDE
100
AcDbCircle
 10
2018.8682800697
 20
846.7709429295
 30
0.0
 40
1.000000000000455
100
AcDbArc
 50
0.0
 51
90.0
  0
ARC
  5
37B
330
1F
100
AcDbEntity
  8
PROFILES_OUTSIDE
100
AcDbCircle
 10
1814.8682800697
 20
593.8643827105
 30
0.0
 40
19.04999999999995
100
AcDbArc
 50
120.0
 51
180.0
  0
ARC
  5
37C
330
1F
100
AcDbEntity
  8
PROFILES_OUTSIDE
100
AcDbCircle
 10
1795.8182800697
 20
626.8599505947
 30
0.0
 40
19.05000000000001
100
AcDbArc
 50
300.0
 51
0.0
  0
ARC
  5
37D
330
1F
100
AcDbEntity
  8
PROFILES_OUTSIDE
100
AcDbCircle
 10
1795.8182800697
 20
684.9480949358
 30
0.0
 40
19.05000000000001
100
AcDbArc
 50
0.0
 51
60.0
  0
ARC
  5
37E
330
1F
100
AcDbEntity
  8
PROFILES_OUTSIDE
100
AcDbCircle
 10
1814.8682800697
 20
717.94366282
 30
0.0
 40
19.05
100
AcDbArc
 50
180.0
 51
240.0
  0
ARC
  5
37F
330
1F
100
AcDbEntity
  8
PROFILES_OUTSIDE
100
AcDbCircle
 10
1665.8682800697
 20
835.0209429295
 30
0.0
 40
6.000000000000227
100
AcDbArc
 50
180.0
 51
270.0
  0
ARC
  5
380
330
1F
100
AcDbEntity
  8
PROFILES_OUTSIDE
100
AcDbCircle
 10
1895.9182800697
 20
817.0209429295
 30
0.0
 40
12.0
100
AcDbArc
 50
90.0
 51
180.0
  0
ARC
  5
381
330
1F
100
AcDbEntity
  8
PROFILES_OUTSIDE
100
AcDbCircle
 10
1673.4663259768
 20
842.5209429295
 30
0.0
 40
0.9999999999999221
100
AcDbArc
 50
183.6619355755
 51
270.0
  0
ARC
  5
382
330
1F
100
AcDbEntity
  8
PROFILES_OUTSIDE
100
AcDbCircle
 10
1681.4060016863
 20
840.5209429295
 30
0.0
 40
1.000000000000133
100
AcDbArc
 50
65.1121079736
 51
90.0
  0
ARC
  5
383
330
1F
100
AcDbEntity
  8
PROFILES_OUTSIDE
100
AcDbCircle
 10
1684.0026099301
 20
846.1179533483
 30
0.0
 40
5.17000000000007
100
AcDbArc
 50
245.1121079736
 51
72.3995332141
  0
ARC
  5
384
330
1F
100
AcDbEntity
  8
PROFILES_OUTSIDE
100
AcDbCircle
 10
1685.8682800697
 20
851.9991245692
 30
0.0
 40
1.0
100
AcDbArc
 50
180.0
 51
252.3995332141
  0
ARC
  5
385
330
1F
100
AcDbEntity
  8
PROFILES_OUTSIDE
100
AcDbCircle
 10
1802.8682800697
 20
842.0229429295
 30
0.0
 40
12.0
100
AcDbArc
 50
0.0
 51
90.0
  0
ARC
  5
386
330
1F
100
AcDbEntity
  8
PROFILES_OUTSIDE
100
AcDbCircle
 10
1826.8682800697
 20
729.94366282
 30
0.0
 40
12.0
100
AcDbArc
 50
180.0
 51
270.0
  0
ARC
  5
387
330
1F
100
AcDbEntity
  8
PROFILES_OUTSIDE
100
AcDbCircle
 10
1852.8682800697
 20
729.94366282
 30
0.0
 40
12.0
100
AcDbArc
 50
270.0
 51
0.0
  0
ARC
  5
388
330
1F
100
AcDbEntity
  8
PROFILES_OUTSIDE
100
AcDbCircle
 10
1876.8682800697
 20
842.0229429295
 30
0.0
 40
12.0
100
AcDbArc
 50
90.0
 51
180.0
  0
ARC
  5
389
330
1F
100
AcDbEntity
  8
PROFILES_OUTSIDE
100
AcDbCircle
 10
1993.8682800697
 20
851.9991245692
 30
0.0
 40
0.9999999999998825
100
AcDbArc
 50
287.6004667859
 51
0.0
  0
ARC
  5
38A
330
1F
100
AcDbEntity
  8
PROFILES_OUTSIDE
100
AcDbCircle
 10
1995.7339502093
 20
846.1179533483
 30
0.0
 40
5.17000000000007
100
AcDbArc
 50
107.6004667859
 51
294.8878920264
  0
ARC
  5
38B
330
1F
100
AcDbEntity
  8
PROFILES_OUTSIDE
100
AcDbCircle
 10
1998.3305584531
 20
840.5209429295
 30
0.0
 40
1.00000000000003
100
AcDbArc
 50
90.0
 51
114.8878920264
  0
ARC
  5
38C
330
1F
100
AcDbEntity
  8
PROFILES_OUTSIDE
100
AcDbCircle
 10
2006.2702341626
 20
842.5209429295
 30
0.0
 40
1.000000000000156
100
AcDbArc
 50
270.0
 51
356.3380644245
  0
ARC
  5
38D
330
1F
100
AcDbEntity
  8
PROFILES_OUTSIDE
100
AcDbCircle
 10
2013.8682800697
 20
835.0209429295
 30
0.0
 40
6.000000000000227
100
AcDbArc
 50
270.0
 51
0.0
  0
ARC
  5
38E
330
1F
100
AcDbEntity
  8
PROFILES_OUTSIDE
100
AcDbCircle
 10
1895.9182800697
 20
494.7871026011
 30
0.0
 40
12.0
100
AcDbArc
 50
180.0
 51
270.0
  0
ARC
  5
38F
330
1F
100
AcDbEntity
  8
PROFILES_OUTSIDE
100
AcDbCircle
 10
1864.8682800697
 20
717.94366282
 30
0.0
 40
19.05
100
AcDbArc
 50
300.0
 51
0.0
  0
ARC
  5
390
330
1F
100
AcDbEntity
  8
PROFILES_OUTSIDE
100
AcDbCircle
 10
1883.9182800697
 20
684.9480949358
 30
0.0
 40
19.0499999999999
100
AcDbArc
 50
120.0
 51
180.0
  0
ARC
  5
391
330
1F
100
AcDbEntity
  8
PROFILES_OUTSIDE
100
AcDbCircle
 10
1883.9182800697
 20
626.8599505947
 30
0.0
 40
19.05000000000001
100
AcDbArc
 50
180.0
 51
240.0
  0
ARC
  5
392
330
1F
100
AcDbEntity
  8
PROFILES_OUTSIDE
100
AcDbCircle
 10
1864.8682800697
 20
593.8643827105
 30
0.0
 40
19.04999999999995
100
AcDbArc
 50
0.0
 51
60.0
  0
ARC
  5
393
330
1F
100
AcDbEntity
  8
PROFILES_OUTSIDE
100
AcDbCircle
 10
2013.8682800697
 20
476.7871026011
 30
0.0
 40
6.000000000000227
100
AcDbArc
 50
0.0
 51
90.0
  0
ARC
  5
394
330
1F
100
AcDbEntity
  8
PROFILES_OUTSIDE
100
AcDbCircle
 10
2018.8682800697
 20
465.0371026011
 30
0.0
 40
1.000000000000455
100
AcDbArc
 50
270.0
 51
0.0
  0
ENDSEC
  0
SECTION
  2
OBJECTS
  0
DICTIONARY
  5
C
330
0
100
AcDbDictionary
  3
ACAD_GROUP
350
D
  3
ACAD_MLINESTYLE
350
17
  3
ACAD_SCALELIST
350
47
  0
DICTIONARY
  5
D
102
{ACAD_REACTORS
330
C
102
}
330
C
100
AcDbDictionary
  0
DICTIONARY
  5
17
102
{ACAD_REACTORS
330
C
102
}
330
C
100
AcDbDictionary
  3
STANDARD
350
18
  0
DICTIONARY
  5
47
102
{ACAD_REACTORS
330
C
102
}
330
C
100
AcDbDictionary
  0
MLINESTYLE
  5
18
102
{ACAD_REACTORS
330
17
102
}
330
17
100
AcDbMlineStyle
  2
Standard
 70
     0
  3

 62
   256
 51
90.0
 52
90.0
 71
     2
 49
0.5
 62
   256
  6
BYLAYER
 49
-0.5
 62
   256
  6
BYLAYER
  0
ENDSEC
  0
EOF
