  0
SECTION
  2
HEADER
  9
$ACADVER
  1
AC1014
  9
$ACADMAINTVER
 70
     9
  9
$DWGCODEPAGE
  3
ANSI_1252
  9
$INSBASE
 10
0.0
 20
0.0
 30
0.0
  9
$EXTMIN
 10
0.0
 20
0.0
 30
0.0
  9
$EXTMAX
 10
96.062992126
 20
48.031496063
 30
0.0
  9
$LIMMIN
 10
0.0
 20
0.0
  9
$LIMMAX
 10
96.062992126
 20
48.031496063
  9
$ORTHOMODE
 70
     0
  9
$REGENMODE
 70
     1
  9
$FILLMODE
 70
     1
  9
$QTEXTMODE
 70
     0
  9
$MIRRTEXT
 70
     1
  9
$DRAGMODE
 70
     2
  9
$LTSCALE
 40
1.0
  9
$OSMODE
 70
    37
  9
$ATTMODE
 70
     1
  9
$TEXTSIZE
 40
0.1377952756
  9
$TRACEWID
 40
0.05
  9
$TEXTSTYLE
  7
STANDARD
  9
$CLAYER
  8
0
  9
$CELTYPE
  6
BYLAYER
  9
$CECOLOR
 62
   256
  9
$CELTSCALE
 40
1.0
  9
$DELOBJ
 70
     1
  9
$DISPSILH
 70
     0
  9
$DIMSCALE
 40
1.0
  9
$DIMASZ
 40
0.13
  9
$DIMEXO
 40
0.0393700787
  9
$DIMDLI
 40
0.38
  9
$DIMRND
 40
0.0
  9
$DIMDLE
 40
0.0
  9
$DIMEXE
 40
0.0393700787
  9
$DIMTP
 40
0.0
  9
$DIMTM
 40
0.0
  9
$DIMTXT
 40
0.1805555556
  9
$DIMCEN
 40
0.09
  9
$DIMTSZ
 40
0.0
  9
$DIMTOL
 70
     0
  9
$DIMLIM
 70
     0
  9
$DIMTIH
 70
     1
  9
$DIMTOH
 70
     1
  9
$DIMSE1
 70
     0
  9
$DIMSE2
 70
     0
  9
$DIMTAD
 70
     1
  9
$DIMZIN
 70
     0
  9
$DIMBLK
  1

  9
$DIMASO
 70
     1
  9
$DIMSHO
 70
     1
  9
$DIMPOST
  1

  9
$DIMAPOST
  1

  9
$DIMALT
 70
     0
  9
$DIMALTD
 70
     2
  9
$DIMALTF
 40
25.4
  9
$DIMLFAC
 40
1.0
  9
$DIMTOFL
 70
     0
  9
$DIMTVP
 40
0.0
  9
$DIMTIX
 70
     0
  9
$DIMSOXD
 70
     0
  9
$DIMSAH
 70
     0
  9
$DIMBLK1
  1

  9
$DIMBLK2
  1

  9
$DIMSTYLE
  2
STANDARD
  9
$DIMCLRD
 70
     0
  9
$DIMCLRE
 70
     0
  9
$DIMCLRT
 70
     0
  9
$DIMTFAC
 40
1.0
  9
$DIMGAP
 40
0.06
  9
$DIMJUST
 70
     0
  9
$DIMSD1
 70
     0
  9
$DIMSD2
 70
     0
  9
$DIMTOLJ
 70
     1
  9
$DIMTZIN
 70
     0
  9
$DIMALTZ
 70
     0
  9
$DIMALTTZ
 70
     0
  9
$DIMFIT
 70
     3
  9
$DIMUPT
 70
     0
  9
$DIMUNIT
 70
     2
  9
$DIMDEC
 70
     2
  9
$DIMTDEC
 70
     2
  9
$DIMALTU
 70
     2
  9
$DIMALTTD
 70
     2
  9
$DIMTXSTY
  7
STANDARD
  9
$DIMAUNIT
 70
     0
  9
$LUNITS
 70
     2
  9
$LUPREC
 70
     2
  9
$SKETCHINC
 40
0.1
  9
$FILLETRAD
 40
0.5
  9
$AUNITS
 70
     0
  9
$AUPREC
 70
     2
  9
$MENU
  1
.
  9
$ELEVATION
 40
0.0
  9
$PELEVATION
 40
0.0
  9
$THICKNESS
 40
0.0
  9
$LIMCHECK
 70
     0
  9
$CHAMFERA
 40
0.0
  9
$CHAMFERB
 40
0.0
  9
$CHAMFERC
 40
0.0
  9
$CHAMFERD
 40
0.0
  9
$SKPOLY
 70
     0
  9
$TDCREATE
 40
2457718.746306898
  9
$TDUPDATE
 40
2457718.746307257
  9
$TDINDWG
 40
0.0000000116
  9
$TDUSRTIMER
 40
0.0000000116
  9
$USRTIMER
 70
     1
  9
$ANGBASE
 50
0.0
  9
$ANGDIR
 70
     0
  9
$PDMODE
 70
     0
  9
$PDSIZE
 40
-1.0
  9
$PLINEWID
 40
0.0
  9
$COORDS
 70
     1
  9
$SPLFRAME
 70
     0
  9
$SPLINETYPE
 70
     6
  9
$SPLINESEGS
 70
     8
  9
$ATTDIA
 70
     0
  9
$ATTREQ
 70
     1
  9
$HANDLING
 70
     1
  9
$HANDSEED
  5
395
  9
$SURFTAB1
 70
     6
  9
$SURFTAB2
 70
     6
  9
$SURFTYPE
 70
     6
  9
$SURFU
 70
     6
  9
$SURFV
 70
     6
  9
$UCSNAME
  2

  9
$UCSORG
 10
0.0
 20
0.0
 30
0.0
  9
$UCSXDIR
 10
1.0
 20
0.0
 30
0.0
  9
$UCSYDIR
 10
0.0
 20
1.0
 30
0.0
  9
$PUCSNAME
  2

  9
$PUCSORG
 10
0.0
 20
0.0
 30
0.0
  9
$PUCSXDIR
 10
1.0
 20
0.0
 30
0.0
  9
$PUCSYDIR
 10
0.0
 20
1.0
 30
0.0
  9
$USERI1
 70
     0
  9
$USERI2
 70
     0
  9
$USERI3
 70
     0
  9
$USERI4
 70
     0
  9
$USERI5
 70
     0
  9
$USERR1
 40
0.0
  9
$USERR2
 40
0.0
  9
$USERR3
 40
0.0
  9
$USERR4
 40
0.0
  9
$USERR5
 40
0.0
  9
$WORLDVIEW
 70
     1
  9
$SHADEDGE
 70
     3
  9
$SHADEDIF
 70
    70
  9
$TILEMODE
 70
     1
  9
$MAXACTVP
 70
    64
  9
$PINSBASE
 10
0.0
 20
0.0
 30
0.0
  9
$PLIMCHECK
 70
     0
  9
$PEXTMIN
 10
1.0000000000E+20
 20
1.0000000000E+20
 30
1.0000000000E+20
  9
$PEXTMAX
 10
-1.0000000000E+20
 20
-1.0000000000E+20
 30
-1.0000000000E+20
  9
$PLIMMIN
 10
0.0
 20
0.0
  9
$PLIMMAX
 10
12.0
 20
9.0
  9
$UNITMODE
 70
     0
  9
$VISRETAIN
 70
     1
  9
$PLINEGEN
 70
     0
  9
$PSLTSCALE
 70
     1
  9
$TREEDEPTH
 70
  3020
  9
$PICKSTYLE
 70
     1
  9
$CMLSTYLE
  2
STANDARD
  9
$CMLJUST
 70
     0
  9
$CMLSCALE
 40
1.0
  9
$PROXYGRAPHICS
 70
     1
  9
$MEASUREMENT
 70
     0
  0
ENDSEC
  0
SECTION
  2
CLASSES
  0
CLASS
  1
ACDBDICTIONARYWDFLT
  2
AcDbDictionaryWithDefault
  3
ObjectDBX Classes
 90
        0
280
     0
281
     0
  0
CLASS
  1
VISUALSTYLE
  2
AcDbVisualStyle
  3
ObjectDBX Classes
 90
     4095
280
     0
281
     0
  0
CLASS
  1
MATERIAL
  2
AcDbMaterial
  3
ObjectDBX Classes
 90
     1153
280
     0
281
     0
  0
CLASS
  1
SCALE
  2
AcDbScale
  3
ObjectDBX Classes
 90
     1153
280
     0
281
     0
  0
CLASS
  1
TABLESTYLE
  2
AcDbTableStyle
  3
ObjectDBX Classes
 90
     4095
280
     0
281
     0
  0
CLASS
  1
MLEADERSTYLE
  2
AcDbMLeaderStyle
  3
ACDB_MLEADERSTYLE_CLASS
 90
     4095
280
     0
281
     0
  0
CLASS
  1
SUN
  2
AcDbSun
  3
SCENEOE
 90
     1153
280
     0
281
     0
  0
CLASS
  1
XRECORD
  2
AcDbXrecord
  3
ObjectDBX Classes
 90
        0
280
     0
281
     0
  0
CLASS
  1
LWPOLYLINE
  2
AcDbPolyline
  3
ObjectDBX Classes
 90
        0
280
     0
281
     1
  0
CLASS
  1
HATCH
  2
AcDbHatch
  3
ObjectDBX Classes
 90
        0
280
     0
281
     1
  0
ENDSEC
  0
SECTION
  2
TABLES
  0
TABLE
  2
VPORT
  5
8
330
0
100
AcDbSymbolTable
 70
     1
  0
VPORT
  5
29
330
8
100
AcDbSymbolTableRecord
100
AcDbViewportTableRecord
  2
*ACTIVE
 70
     0
 10
0.0
 20
0.0
 11
1.0
 21
1.0
 12
48.031496063
 22
24.0157480315
 13
0.0
 23
0.0
 14
0.5
 24
0.5
 15
0.5
 25
0.5
 16
0.0
 26
0.0
 36
1.0
 17
0.0
 27
0.0
 37
0.0
 40
48.031496063
 41
2.0
 42
50.0
 43
0.0
 44
0.0
 50
0.0
 51
0.0
 71
     0
 72
  2000
 73
     1
 74
     3
 75
     0
 76
     0
 77
     0
 78
     0
  0
ENDTAB
  0
TABLE
  2
LTYPE
  5
5
330
0
100
AcDbSymbolTable
 70
     6
  0
LTYPE
  5
14
330
5
100
AcDbSymbolTableRecord
100
AcDbLinetypeTableRecord
  2
BYBLOCK
 70
     0
  3

 72
    65
 73
     0
 40
0.0
  0
LTYPE
  5
15
330
5
100
AcDbSymbolTableRecord
100
AcDbLinetypeTableRecord
  2
BYLAYER
 70
     0
  3

 72
    65
 73
     0
 40
0.0
  0
LTYPE
  5
16
330
5
100
AcDbSymbolTableRecord
100
AcDbLinetypeTableRecord
  2
CONTINUOUS
 70
     0
  3
Solid line
 72
    65
 73
     0
 40
0.0
  0
LTYPE
  5
6E
330
5
100
AcDbSymbolTableRecord
100
AcDbLinetypeTableRecord
  2
HIDDEN
 70
     0
  3
Hidden __ __ __ __ __ __ __ __ __ __ __ __ __ __
 72
    65
 73
     2
 40
0.075
 49
0.05
 74
     0
 49
-0.025
 74
     0
  0
LTYPE
  5
6F
330
5
100
AcDbSymbolTableRecord
100
AcDbLinetypeTableRecord
  2
PHANTOM
 70
     0
  3
Phantom ______  __  __  ______  __  __  ______
 72
    65
 73
     6
 40
0.5
 49
0.25
 74
     0
 49
-0.05
 74
     0
 49
0.05
 74
     0
 49
-0.05
 74
     0
 49
0.05
 74
     0
 49
-0.05
 74
     0
  0
LTYPE
  5
70
330
5
100
AcDbSymbolTableRecord
100
AcDbLinetypeTableRecord
  2
CENTER
 70
     0
  3
Center ____ _ ____ _ ____ _ ____ _ ____ _ ____
 72
    65
 73
     4
 40
0.4
 49
0.25
 74
     0
 49
-0.05
 74
     0
 49
0.05
 74
     0
 49
-0.05
 74
     0
  0
LTYPE
  5
71
330
5
100
AcDbSymbolTableRecord
100
AcDbLinetypeTableRecord
  2
CENTERX2
 70
     0
  3
Center (2x) ________  __  ________  __  _____
 72
    65
 73
     4
 40
0.8
 49
0.5
 74
     0
 49
-0.1
 74
     0
 49
0.1
 74
     0
 49
-0.1
 74
     0
  0
LTYPE
  5
72
330
5
100
AcDbSymbolTableRecord
100
AcDbLinetypeTableRecord
  2
DOT2
 70
     0
  3
Dot (.5x) ........................................
 72
    65
 73
     2
 40
0.025
 49
0.0
 74
     0
 49
-0.025
 74
     0
  0
ENDTAB
  0
TABLE
  2
LAYER
  5
2
330
0
100
AcDbSymbolTable
 70
     6
  0
LAYER
  5
10
330
2
100
AcDbSymbolTableRecord
100
AcDbLayerTableRecord
  2
0
 70
     0
 62
     7
  6
CONTINUOUS
  0
LAYER
  5
73
330
2
100
AcDbSymbolTableRecord
100
AcDbLayerTableRecord
  2
BOX_STOCK
 70
     0
 62
     1
  6
CONTINUOUS
  0
LAYER
  5
74
330
2
100
AcDbSymbolTableRecord
100
AcDbLayerTableRecord
  2
HOLES
 70
     0
 62
    30
  6
CONTINUOUS
  0
LAYER
  5
75
330
2
100
AcDbSymbolTableRecord
100
AcDbLayerTableRecord
  2
POCKETS
 70
     0
 62
   171
  6
CONTINUOUS
  0
LAYER
  5
76
330
2
100
AcDbSymbolTableRecord
100
AcDbLayerTableRecord
  2
PROFILES_OUTSIDE
 70
     0
 62
     6
  6
CONTINUOUS
  0
LAYER
  5
77
330
2
100
AcDbSymbolTableRecord
100
AcDbLayerTableRecord
  2
PROFILES_INSIDE
 70
     0
 62
     4
  6
CONTINUOUS
  0
ENDTAB
  0
TABLE
  2
STYLE
  5
3
330
0
100
AcDbSymbolTable
 70
     1
  0
STYLE
  5
11
330
3
100
AcDbSymbolTableRecord
100
AcDbTextStyleTableRecord
  2
STANDARD
 70
     0
 40
0.0
 41
1.0
 50
0.0
 71
     0
 42
0.1377952756
  3
txt
  4

  0
ENDTAB
  0
TABLE
  2
VIEW
  5
6
330
0
100
AcDbSymbolTable
 70
     0
  0
ENDTAB
  0
TABLE
  2
UCS
  5
7
330
0
100
AcDbSymbolTable
 70
     0
  0
ENDTAB
  0
TABLE
  2
APPID
  5
9
330
0
100
AcDbSymbolTable
 70
     1
  0
APPID
  5
12
330
9
100
AcDbSymbolTableRecord
100
AcDbRegAppTableRecord
  2
ACAD
 70
     0
  0
ENDTAB
  0
TABLE
  2
DIMSTYLE
  5
A
330
0
100
AcDbSymbolTable
 70
     1
  0
DIMSTYLE
105
27
330
A
100
AcDbSymbolTableRecord
100
AcDbDimStyleTableRecord
  2
STANDARD
 70
     0
  3

  4

  5

  6

  7

 40
1.0
 41
0.18
 42
0.0625
 43
0.38
 44
0.18
 45
0.0
 46
0.0
 47
0.0
 48
0.0
140
0.18
141
0.09
142
0.0
143
25.4
144
1.0
145
0.0
146
1.0
147
0.09
 71
     0
 72
     0
 73
     1
 74
     1
 75
     0
 76
     0
 77
     0
 78
     0
170
     0
171
     2
172
     0
173
     0
174
     0
175
     0
176
     0
177
     0
178
     0
270
     2
271
     4
272
     4
273
     2
274
     2
340
11
275
     0
280
     0
281
     0
282
     0
283
     1
284
     0
285
     0
286
     0
287
     3
288
     0
  0
ENDTAB
  0
TABLE
  2
BLOCK_RECORD
  5
1
330
0
100
AcDbSymbolTable
 70
     1
  0
BLOCK_RECORD
  5
1F
330
1
100
AcDbSymbolTableRecord
100
AcDbBlockTableRecord
  2
*MODEL_SPACE
  0
BLOCK_RECORD
  5
1B
330
1
100
AcDbSymbolTableRecord
100
AcDbBlockTableRecord
  2
*PAPER_SPACE
  0
BLOCK_RECORD
  5
23
330
1
100
AcDbSymbolTableRecord
100
AcDbBlockTableRecord
  2
*PAPER_SPACE0
  0
ENDTAB
  0
ENDSEC
  0
SECTION
  2
BLOCKS
  0
BLOCK
  5
20
330
1F
100
AcDbEntity
  8
0
100
AcDbBlockBegin
  2
*MODEL_SPACE
 70
     0
 10
0.0
 20
0.0
 30
0.0
  3
*MODEL_SPACE
  1

  0
ENDBLK
  5
21
330
1F
100
AcDbEntity
  8
0
100
AcDbBlockEnd
  0
BLOCK
  5
1C
330
1B
100
AcDbEntity
 67
     1
  8
0
100
AcDbBlockBegin
  2
*PAPER_SPACE
 70
     0
 10
0.0
 20
0.0
 30
0.0
  3
*PAPER_SPACE
  1

  0
ENDBLK
  5
1D
330
1B
100
AcDbEntity
 67
     1
  8
0
100
AcDbBlockEnd
  0
BLOCK
  5
24
330
23
100
AcDbEntity
  8
0
100
AcDbBlockBegin
  2
*PAPER_SPACE0
 70
     0
 10
0.0
 20
0.0
 30
0.0
  3
*PAPER_SPACE0
  1

  0
ENDBLK
  5
25
330
23
100
AcDbEntity
  8
0
100
AcDbBlockEnd
  0
ENDSEC
  0
SECTION
  2
ENTITIES
  0
ARC
  5
78
330
1F
100
AcDbEntity
  8
0
  6
CONTINUOUS
 62
     7
100
AcDbCircle
 10
18.0707984279
 20
4.548835531
 30
0.0
 40
0.2362204724409458
100
AcDbArc
 50
280.0
 51
0.0
  0
LINE
  5
79
330
1F
100
AcDbEntity
  8
0
  6
CONTINUOUS
 62
     7
100
AcDbLine
 10
18.1118178549
 20
4.3162038188
 30
0.0
 11
1.2988255067
 21
1.3516196326
 31
0.0
  0
ARC
  5
7A
330
1F
100
AcDbEntity
  8
0
  6
CONTINUOUS
 62
     7
100
AcDbCircle
 10
1.257806302
 20
1.5842513927
 30
0.0
 40
0.2362204724409538
100
AcDbArc
 50
180.0
 51
280.0
  0
LINE
  5
7B
330
1F
100
AcDbEntity
  8
0
  6
CONTINUOUS
 62
     7
100
AcDbLine
 10
1.0215858094
 20
1.5842513252
 30
0.0
 11
1.0215858094
 21
2.6503736759
 31
0.0
  0
LINE
  5
7C
330
1F
100
AcDbEntity
  8
0
  6
CONTINUOUS
 62
     7
100
AcDbLine
 10
2.5918413563
 20
2.9272522107
 30
0.0
 11
1.0215858094
 21
2.6503736759
 31
0.0
  0
ARC
  5
7D
330
1F
100
AcDbEntity
  8
0
  6
CONTINUOUS
 62
     7
100
AcDbCircle
 10
2.794248975
 20
2.9487232948
 30
0.0
 40
0.2035432785934322
100
AcDbArc
 50
186.0551972321
 51
214.8878509098
  0
ARC
  5
7E
330
1F
100
AcDbEntity
  8
0
  6
CONTINUOUS
 62
     7
100
AcDbCircle
 10
2.5949937209
 20
2.8097837069
 30
0.0
 40
0.0393700376495639
100
AcDbArc
 50
10.0
 51
34.8878509098
  0
LINE
  5
7F
330
1F
100
AcDbEntity
  8
0
  6
CONTINUOUS
 62
     7
100
AcDbLine
 10
2.7189863942
 20
2.3333104053
 30
0.0
 11
2.6337655387
 21
2.8166201821
 31
0.0
  0
ARC
  5
80
330
1F
100
AcDbEntity
  8
0
  6
CONTINUOUS
 62
     7
100
AcDbCircle
 10
2.680214293
 20
2.3264738261
 30
0.0
 40
0.0393700787401592
100
AcDbArc
 50
345.1121167212
 51
10.0
  0
ARC
  5
81
330
1F
100
AcDbEntity
  8
0
  6
CONTINUOUS
 62
     7
100
AcDbCircle
 10
2.9149731822
 20
2.2640624734
 30
0.0
 40
0.2035433070866147
100
AcDbArc
 50
165.1121167212
 51
352.399540952
  0
ARC
  5
82
330
1F
100
AcDbEntity
  8
0
  6
CONTINUOUS
 62
     7
100
AcDbCircle
 10
3.1557524477
 20
2.2319336967
 30
0.0
 40
0.0393700787401609
100
AcDbArc
 50
100.0000371503
 51
172.399540952
  0
LINE
  5
83
330
1F
100
AcDbEntity
  8
0
  6
CONTINUOUS
 62
     7
100
AcDbLine
 10
3.3056955631
 20
2.2983503159
 30
0.0
 11
3.1489159876
 21
2.2707055819
 31
0.0
  0
ARC
  5
84
330
1F
100
AcDbEntity
  8
0
  6
CONTINUOUS
 62
     7
100
AcDbCircle
 10
3.312532146
 20
2.2595782924
 30
0.0
 40
0.0393700787401545
100
AcDbArc
 50
27.6004745237
 51
100.0000371503
  0
ARC
  5
85
330
1F
100
AcDbEntity
  8
0
  6
CONTINUOUS
 62
     7
100
AcDbCircle
 10
3.5278019259
 20
2.3721208838
 30
0.0
 40
0.2035433070866148
100
AcDbArc
 50
207.6004745238
 51
34.8879007739
  0
ARC
  5
86
330
1F
100
AcDbEntity
  8
0
  6
CONTINUOUS
 62
     7
100
AcDbCircle
 10
3.7270571395
 20
2.5110607012
 30
0.0
 40
0.039370078740156
100
AcDbArc
 50
190.0
 51
214.8879007739
  0
LINE
  5
87
330
1F
100
AcDbEntity
  8
0
  6
CONTINUOUS
 62
     7
100
AcDbLine
 10
3.6030646612
 20
2.9875335677
 30
0.0
 11
3.6882852234
 21
2.5042242309
 31
0.0
  0
ARC
  5
88
330
1F
100
AcDbEntity
  8
0
  6
CONTINUOUS
 62
     7
100
AcDbCircle
 10
3.6418376885
 20
2.9943703063
 30
0.0
 40
0.039371134843281
100
AcDbArc
 50
165.11217169
 51
190.0
  0
ARC
  5
89
330
1F
100
AcDbEntity
  8
0
  6
CONTINUOUS
 62
     7
100
AcDbCircle
 10
3.4070777188
 20
3.0567817052
 30
0.0
 40
0.2035433070866148
100
AcDbArc
 50
345.11217169
 51
13.9447554429
  0
LINE
  5
8A
330
1F
100
AcDbEntity
  8
0
  6
CONTINUOUS
 62
     7
100
AcDbLine
 10
16.2453664563
 20
5.3347371993
 30
0.0
 11
3.6046222432
 21
3.1058329478
 31
0.0
  0
ARC
  5
8B
330
1F
100
AcDbEntity
  8
0
  6
CONTINUOUS
 62
     7
100
AcDbCircle
 10
16.4477745915
 20
5.3562082427
 30
0.0
 40
0.2035432785934356
100
AcDbArc
 50
186.0551972321
 51
214.8878509098
  0
ARC
  5
8C
330
1F
100
AcDbEntity
  8
0
  6
CONTINUOUS
 62
     7
100
AcDbCircle
 10
16.2485193374
 20
5.2172686548
 30
0.0
 40
0.0393700376495587
100
AcDbArc
 50
10.0
 51
34.8878509098
  0
LINE
  5
8D
330
1F
100
AcDbEntity
  8
0
  6
CONTINUOUS
 62
     7
100
AcDbLine
 10
16.3725120808
 20
4.7407953939
 30
0.0
 11
16.2872915186
 21
5.224105464
 31
0.0
  0
ARC
  5
8E
330
1F
100
AcDbEntity
  8
0
  6
CONTINUOUS
 62
     7
100
AcDbCircle
 10
16.3337399094
 20
4.7339587741
 30
0.0
 40
0.0393700787401597
100
AcDbArc
 50
345.1121167212
 51
10.0
  0
ARC
  5
8F
330
1F
100
AcDbEntity
  8
0
  6
CONTINUOUS
 62
     7
100
AcDbCircle
 10
16.5684987986
 20
4.6715474213
 30
0.0
 40
0.2035433070866181
100
AcDbArc
 50
165.1121167212
 51
352.399540952
  0
ARC
  5
90
330
1F
100
AcDbEntity
  8
0
  6
CONTINUOUS
 62
     7
100
AcDbCircle
 10
16.8092780642
 20
4.6394186447
 30
0.0
 40
0.0393700787401583
100
AcDbArc
 50
100.0000371503
 51
172.399540952
  0
LINE
  5
91
330
1F
100
AcDbEntity
  8
0
  6
CONTINUOUS
 62
     7
100
AcDbLine
 10
16.9592212498
 20
4.7058351577
 30
0.0
 11
16.8024410876
 21
4.6781905704
 31
0.0
  0
ARC
  5
92
330
1F
100
AcDbEntity
  8
0
  6
CONTINUOUS
 62
     7
100
AcDbCircle
 10
16.9660577625
 20
4.6670632404
 30
0.0
 40
0.0393700787401581
100
AcDbArc
 50
27.6004745238
 51
100.0000371503
  0
ARC
  5
93
330
1F
100
AcDbEntity
  8
0
  6
CONTINUOUS
 62
     7
100
AcDbCircle
 10
17.1813275424
 20
4.7796058318
 30
0.0
 40
0.203543307086617
100
AcDbArc
 50
207.6004745238
 51
34.8879007739
  0
ARC
  5
94
330
1F
100
AcDbEntity
  8
0
  6
CONTINUOUS
 62
     7
100
AcDbCircle
 10
17.380582756
 20
4.9185456492
 30
0.0
 40
0.0393700787401526
100
AcDbArc
 50
190.0
 51
214.8879007739
  0
ARC
  5
95
330
1F
100
AcDbEntity
  8
0
  6
CONTINUOUS
 62
     7
100
AcDbCircle
 10
17.295363305
 20
5.4018552543
 30
0.0
 40
0.0393711348432809
100
AcDbArc
 50
165.11217169
 51
190.0
  0
ARC
  5
96
330
1F
100
AcDbEntity
  8
0
  6
CONTINUOUS
 62
     7
100
AcDbCircle
 10
17.0606033353
 20
5.4642666531
 30
0.0
 40
0.2035433070866173
100
AcDbArc
 50
345.11217169
 51
13.9447554429
  0
LINE
  5
97
330
1F
100
AcDbEntity
  8
0
  6
CONTINUOUS
 62
     7
100
AcDbLine
 10
18.3070183732
 20
5.6982621731
 30
0.0
 11
17.2581479299
 21
5.513317643
 31
0.0
  0
LINE
  5
98
330
1F
100
AcDbEntity
  8
0
  6
CONTINUOUS
 62
     7
100
AcDbLine
 10
18.3070183732
 20
5.6982621731
 30
0.0
 11
18.3070183732
 21
4.5488355847
 31
0.0
  0
LINE
  5
99
330
1F
100
AcDbEntity
  8
0
  6
CONTINUOUS
 62
     7
100
AcDbLine
 10
17.2565897612
 20
5.3950182629
 30
0.0
 11
17.3418103234
 21
4.9117090728
 31
0.0
  0
ARC
  5
9A
330
1F
100
AcDbEntity
  8
0
  6
CONTINUOUS
 62
     7
100
AcDbCircle
 10
1.257806302
 20
20.7789666845
 30
0.0
 40
0.2362204724409485
100
AcDbArc
 50
80.0
 51
180.0
  0
LINE
  5
9B
330
1F
100
AcDbEntity
  8
0
  6
CONTINUOUS
 62
     7
100
AcDbLine
 10
1.2988255067
 20
21.0115982855
 30
0.0
 11
18.1118178549
 21
18.0470146126
 31
0.0
  0
ARC
  5
9C
330
1F
100
AcDbEntity
  8
0
  6
CONTINUOUS
 62
     7
100
AcDbCircle
 10
18.0707984279
 20
17.8143825462
 30
0.0
 40
0.2362204724409449
100
AcDbArc
 50
360.0
 51
80.0
  0
LINE
  5
9D
330
1F
100
AcDbEntity
  8
0
  6
CONTINUOUS
 62
     7
100
AcDbLine
 10
18.3070183732
 20
17.8143828467
 30
0.0
 11
18.3070183732
 21
16.6649565516
 31
0.0
  0
ARC
  5
9E
330
1F
100
AcDbEntity
  8
0
  6
CONTINUOUS
 62
     7
100
AcDbCircle
 10
17.0606033948
 20
16.8989515819
 30
0.0
 40
0.2035433070866174
100
AcDbArc
 50
346.0551977852
 51
14.8879007739
  0
ARC
  5
9F
330
1F
100
AcDbEntity
  8
0
  6
CONTINUOUS
 62
     7
100
AcDbCircle
 10
17.2953622649
 20
16.9613630063
 30
0.0
 40
0.0393700787401602
100
AcDbArc
 50
170.0
 51
194.8879007739
  0
ARC
  5
A0
330
1F
100
AcDbEntity
  8
0
  6
CONTINUOUS
 62
     7
100
AcDbCircle
 10
17.3805837961
 20
17.4446722446
 30
0.0
 40
0.0393711348432817
100
AcDbArc
 50
145.11217169
 51
170.0
  0
ARC
  5
A1
330
1F
100
AcDbEntity
  8
0
  6
CONTINUOUS
 62
     7
100
AcDbCircle
 10
17.1813275404
 20
17.5836124141
 30
0.0
 40
0.203543307086616
100
AcDbArc
 50
325.11217169
 51
152.399540952
  0
ARC
  5
A2
330
1F
100
AcDbEntity
  8
0
  6
CONTINUOUS
 62
     7
100
AcDbCircle
 10
16.9660577302
 20
17.6961549474
 30
0.0
 40
0.0393700787401591
100
AcDbArc
 50
260.0000371503
 51
332.399540952
  0
LINE
  5
A3
330
1F
100
AcDbEntity
  8
0
  6
CONTINUOUS
 62
     7
100
AcDbLine
 10
16.8024410876
 20
17.685027861
 30
0.0
 11
16.9592212498
 21
17.6573832737
 31
0.0
  0
ARC
  5
A4
330
1F
100
AcDbEntity
  8
0
  6
CONTINUOUS
 62
     7
100
AcDbCircle
 10
16.809277996
 20
17.7237993397
 30
0.0
 40
0.0393701072333398
100
AcDbArc
 50
187.6004745238
 51
260.0000371503
  0
ARC
  5
A5
330
1F
100
AcDbEntity
  8
0
  6
CONTINUOUS
 62
     7
100
AcDbCircle
 10
16.5684987391
 20
17.691670498
 30
0.0
 40
0.2035432785934335
100
AcDbArc
 50
7.6004745238
 51
194.8878509098
  0
ARC
  5
A6
330
1F
100
AcDbEntity
  8
0
  6
CONTINUOUS
 62
     7
100
AcDbCircle
 10
16.3337399094
 20
17.6292593031
 30
0.0
 40
0.0393700376495614
100
AcDbArc
 50
350.0
 51
14.8878509098
  0
LINE
  5
A7
330
1F
100
AcDbEntity
  8
0
  6
CONTINUOUS
 62
     7
100
AcDbLine
 10
16.2872915186
 20
17.1391126741
 30
0.0
 11
16.3725120808
 21
17.6224230375
 31
0.0
  0
ARC
  5
A8
330
1F
100
AcDbEntity
  8
0
  6
CONTINUOUS
 62
     7
100
AcDbCircle
 10
16.2485193374
 20
17.1459494224
 30
0.0
 40
0.0393700787401572
100
AcDbArc
 50
325.1121167212
 51
350.0
  0
ARC
  5
A9
330
1F
100
AcDbEntity
  8
0
  6
CONTINUOUS
 62
     7
100
AcDbCircle
 10
16.4477745934
 20
17.0070096658
 30
0.0
 40
0.2035433070866161
100
AcDbArc
 50
145.1121167212
 51
173.9447554429
  0
LINE
  5
AA
330
1F
100
AcDbEntity
  8
0
  6
CONTINUOUS
 62
     7
100
AcDbLine
 10
3.6046222432
 20
19.2573854836
 30
0.0
 11
16.2453664563
 21
17.0284803521
 31
0.0
  0
ARC
  5
AB
330
1F
100
AcDbEntity
  8
0
  6
CONTINUOUS
 62
     7
100
AcDbCircle
 10
3.4070777783
 20
19.3064365299
 30
0.0
 40
0.2035433070866131
100
AcDbArc
 50
346.0551977852
 51
14.8879007739
  0
ARC
  5
AC
330
1F
100
AcDbEntity
  8
0
  6
CONTINUOUS
 62
     7
100
AcDbCircle
 10
3.6418366485
 20
19.3688479543
 30
0.0
 40
0.0393700787401539
100
AcDbArc
 50
170.0
 51
194.8879007739
  0
LINE
  5
AD
330
1F
100
AcDbEntity
  8
0
  6
CONTINUOUS
 62
     7
100
AcDbLine
 10
3.6882852234
 20
19.8589946405
 30
0.0
 11
3.6030646612
 21
19.375684277
 31
0.0
  0
ARC
  5
AE
330
1F
100
AcDbEntity
  8
0
  6
CONTINUOUS
 62
     7
100
AcDbCircle
 10
3.7270581796
 20
19.8521571926
 30
0.0
 40
0.0393711348432808
100
AcDbArc
 50
145.11217169
 51
170.0
  0
ARC
  5
AF
330
1F
100
AcDbEntity
  8
0
  6
CONTINUOUS
 62
     7
100
AcDbCircle
 10
3.527801924
 20
19.9910973621
 30
0.0
 40
0.2035433070866146
100
AcDbArc
 50
325.11217169
 51
152.399540952
  0
ARC
  5
B0
330
1F
100
AcDbEntity
  8
0
  6
CONTINUOUS
 62
     7
100
AcDbCircle
 10
3.3125321137
 20
20.1036398953
 30
0.0
 40
0.0393700787401556
100
AcDbArc
 50
260.0000371503
 51
332.399540952
  0
LINE
  5
B1
330
1F
100
AcDbEntity
  8
0
  6
CONTINUOUS
 62
     7
100
AcDbLine
 10
3.1489159876
 20
20.0925134362
 30
0.0
 11
3.3056955631
 21
20.0648676755
 31
0.0
  0
ARC
  5
B2
330
1F
100
AcDbEntity
  8
0
  6
CONTINUOUS
 62
     7
100
AcDbCircle
 10
3.1557523795
 20
20.1312842877
 30
0.0
 40
0.0393701072333376
100
AcDbArc
 50
187.6004745237
 51
260.0000371503
  0
ARC
  5
B3
330
1F
100
AcDbEntity
  8
0
  6
CONTINUOUS
 62
     7
100
AcDbCircle
 10
2.9149731226
 20
20.099155446
 30
0.0
 40
0.2035432785934317
100
AcDbArc
 50
7.6004745238
 51
194.8878509098
  0
ARC
  5
B4
330
1F
100
AcDbEntity
  8
0
  6
CONTINUOUS
 62
     7
100
AcDbCircle
 10
2.680214293
 20
20.0367442511
 30
0.0
 40
0.0393700376495635
100
AcDbArc
 50
350.0
 51
14.8878509098
  0
LINE
  5
B5
330
1F
100
AcDbEntity
  8
0
  6
CONTINUOUS
 62
     7
100
AcDbLine
 10
2.6337655387
 20
19.5465982493
 30
0.0
 11
2.7189861008
 21
20.0299074394
 31
0.0
  0
ARC
  5
B6
330
1F
100
AcDbEntity
  8
0
  6
CONTINUOUS
 62
     7
100
AcDbCircle
 10
2.5949937209
 20
19.5534343703
 30
0.0
 40
0.0393700787401546
100
AcDbArc
 50
325.1121167212
 51
350.0
  0
ARC
  5
B7
330
1F
100
AcDbEntity
  8
0
  6
CONTINUOUS
 62
     7
100
AcDbCircle
 10
2.794248977
 20
19.4144946138
 30
0.0
 40
0.2035433070866157
100
AcDbArc
 50
145.1121167212
 51
173.9447554429
  0
LINE
  5
B8
330
1F
100
AcDbEntity
  8
0
  6
CONTINUOUS
 62
     7
100
AcDbLine
 10
1.0215858094
 20
19.7128447555
 30
0.0
 11
2.5918413563
 21
19.4359659273
 31
0.0
  0
LINE
  5
B9
330
1F
100
AcDbEntity
  8
0
  6
CONTINUOUS
 62
     7
100
AcDbLine
 10
1.0215858094
 20
19.7128447555
 30
0.0
 11
1.0215858094
 21
20.7789665195
 31
0.0
  0
LINE
  5
BA
330
1F
100
AcDbEntity
  8
0
  6
CONTINUOUS
 62
     7
100
AcDbLine
 10
17.2581479299
 20
16.8498999085
 30
0.0
 11
18.3070183732
 21
16.6649565516
 31
0.0
  0
LINE
  5
BB
330
1F
100
AcDbEntity
  8
0
  6
CONTINUOUS
 62
     7
100
AcDbLine
 10
17.3418103234
 20
17.4515090653
 30
0.0
 11
17.2565897612
 21
16.9681998752
 31
0.0
  0
LINE
  5
BC
330
1F
100
AcDbEntity
  8
0
  6
CONTINUOUS
 62
     7
100
AcDbLine
 10
17.7148180677
 20
14.7585676944
 30
0.0
 11
18.1118178549
 21
14.8285691257
 31
0.0
  0
ARC
  5
BD
330
1F
100
AcDbEntity
  8
0
  6
CONTINUOUS
 62
     7
100
AcDbCircle
 10
17.755837798
 20
7.8372819725
 30
0.0
 40
0.2362204724409458
100
AcDbArc
 50
180.0
 51
260.0
  0
LINE
  5
BE
330
1F
100
AcDbEntity
  8
0
  6
CONTINUOUS
 62
     7
100
AcDbLine
 10
18.1118178549
 20
7.5346484257
 30
0.0
 11
17.7148180677
 21
7.6046504437
 31
0.0
  0
ARC
  5
BF
330
1F
100
AcDbEntity
  8
0
  6
CONTINUOUS
 62
     7
100
AcDbCircle
 10
18.0707984279
 20
7.3020168076
 30
0.0
 40
0.2362204724409458
100
AcDbArc
 50
0.0
 51
80.0
  0
LINE
  5
C0
330
1F
100
AcDbEntity
  8
0
  6
CONTINUOUS
 62
     7
100
AcDbLine
 10
18.3070183732
 20
7.3020166598
 30
0.0
 11
18.3070183732
 21
6.4870164214
 31
0.0
  0
LINE
  5
C1
330
1F
100
AcDbEntity
  8
0
  6
CONTINUOUS
 62
     7
100
AcDbLine
 10
16.7322155522
 20
16.1538819222
 30
0.0
 11
16.7322155522
 21
6.2093362158
 31
0.0
  0
LINE
  5
C2
330
1F
100
AcDbEntity
  8
0
  6
CONTINUOUS
 62
     7
100
AcDbLine
 10
18.3070183732
 20
15.8762017167
 30
0.0
 11
18.3070183732
 21
15.0612008917
 31
0.0
  0
LINE
  5
C3
330
1F
100
AcDbEntity
  8
0
  6
CONTINUOUS
 62
     7
100
AcDbLine
 10
18.3070183732
 20
15.8762017167
 30
0.0
 11
16.7322155522
 21
16.1538819222
 31
0.0
  0
ARC
  5
C4
330
1F
100
AcDbEntity
  8
0
  6
CONTINUOUS
 62
     7
100
AcDbCircle
 10
18.0707984279
 20
15.0612012696
 30
0.0
 40
0.2362204724409449
100
AcDbArc
 50
280.0
 51
360.0
  0
ARC
  5
C5
330
1F
100
AcDbEntity
  8
0
  6
CONTINUOUS
 62
     7
100
AcDbCircle
 10
17.755837798
 20
14.5259361047
 30
0.0
 40
0.2362204724409445
100
AcDbArc
 50
100.0
 51
180.0
  0
LINE
  5
C6
330
1F
100
AcDbEntity
  8
0
  6
CONTINUOUS
 62
     7
100
AcDbLine
 10
16.7322155522
 20
6.2093362158
 30
0.0
 11
18.3070183732
 21
6.4870164214
 31
0.0
  0
LINE
  5
C7
330
1F
100
AcDbEntity
  8
0
  6
CONTINUOUS
 62
     7
100
AcDbLine
 10
17.5196175494
 20
7.8372822097
 30
0.0
 11
17.5196175494
 21
14.5259359284
 31
0.0
  0
LINE
  5
C8
330
1F
100
AcDbEntity
  8
0
  6
CONTINUOUS
 62
     7
100
AcDbLine
 10
1.0215858094
 20
3.4391285108
 30
0.0
 11
15.9688302375
 21
6.0747306241
 31
0.0
  0
LINE
  5
C9
330
1F
100
AcDbEntity
  8
0
  6
CONTINUOUS
 62
     7
100
AcDbLine
 10
1.0215858094
 20
3.4391285108
 30
0.0
 11
1.0215858094
 21
18.9240899206
 31
0.0
  0
LINE
  5
CA
330
1F
100
AcDbEntity
  8
0
  6
CONTINUOUS
 62
     7
100
AcDbLine
 10
15.9688302375
 20
16.2884875139
 30
0.0
 11
1.0215858094
 21
18.9240899206
 31
0.0
  0
LINE
  5
CB
330
1F
100
AcDbEntity
  8
0
  6
CONTINUOUS
 62
     7
100
AcDbLine
 10
15.9688302375
 20
6.0747306241
 30
0.0
 11
15.9688302375
 21
16.2884875139
 31
0.0
  0
ARC
  5
CC
330
1F
100
AcDbEntity
  8
0
  6
CONTINUOUS
 62
     7
100
AcDbCircle
 10
16.8198240697
 20
5.4963954298
 30
0.0
 40
0.0393700787401627
100
AcDbArc
 50
280.0000371503
 51
352.399540952
  0
LINE
  5
CD
330
1F
100
AcDbEntity
  8
0
  6
CONTINUOUS
 62
     7
100
AcDbLine
 10
16.8266607545
 20
5.457623673
 30
0.0
 11
16.6698805923
 21
5.4299790857
 31
0.0
  0
ARC
  5
CE
330
1F
100
AcDbEntity
  8
0
  6
CONTINUOUS
 62
     7
100
AcDbCircle
 10
16.6630443714
 20
5.4687508341
 30
0.0
 40
0.0393700787401581
100
AcDbArc
 50
207.6004745238
 51
280.0000371503
  0
ARC
  5
CF
330
1F
100
AcDbEntity
  8
0
  6
CONTINUOUS
 62
     7
100
AcDbCircle
 10
3.1662984532
 20
3.0889104818
 30
0.0
 40
0.0393700787401609
100
AcDbArc
 50
280.0000371503
 51
352.399540952
  0
LINE
  5
D0
330
1F
100
AcDbEntity
  8
0
  6
CONTINUOUS
 62
     7
100
AcDbLine
 10
3.1731350678
 20
3.0501383911
 30
0.0
 11
3.0163551989
 21
3.0224938038
 31
0.0
  0
ARC
  5
D1
330
1F
100
AcDbEntity
  8
0
  6
CONTINUOUS
 62
     7
100
AcDbCircle
 10
3.0095187549
 20
3.0612658862
 30
0.0
 40
0.039370078740158
100
AcDbArc
 50
207.6004745238
 51
280.0000371503
  0
ARC
  5
D2
330
1F
100
AcDbEntity
  8
0
  6
CONTINUOUS
 62
     7
100
AcDbCircle
 10
3.0095187873
 20
19.3019520805
 30
0.0
 40
0.0393700787401581
100
AcDbArc
 50
80.0000371503
 51
152.399540952
  0
LINE
  5
D3
330
1F
100
AcDbEntity
  8
0
  6
CONTINUOUS
 62
     7
100
AcDbLine
 10
3.0163551989
 20
19.3407240409
 30
0.0
 11
3.1731350678
 21
19.3130794536
 31
0.0
  0
ARC
  5
D4
330
1F
100
AcDbEntity
  8
0
  6
CONTINUOUS
 62
     7
100
AcDbCircle
 10
3.1662985214
 20
19.2743076882
 30
0.0
 40
0.0393700787401555
100
AcDbArc
 50
7.6004745238
 51
80.0000371503
  0
ARC
  5
D5
330
1F
100
AcDbEntity
  8
0
  6
CONTINUOUS
 62
     7
100
AcDbCircle
 10
16.6630444037
 20
16.8944671325
 30
0.0
 40
0.0393700787401591
100
AcDbArc
 50
80.0000371503
 51
152.399540952
  0
LINE
  5
D6
330
1F
100
AcDbEntity
  8
0
  6
CONTINUOUS
 62
     7
100
AcDbLine
 10
16.6698805923
 20
16.933239639
 30
0.0
 11
16.8266607545
 21
16.9055950517
 31
0.0
  0
ARC
  5
D7
330
1F
100
AcDbEntity
  8
0
  6
CONTINUOUS
 62
     7
100
AcDbCircle
 10
16.8198241379
 20
16.8668227402
 30
0.0
 40
0.0393700787401596
100
AcDbArc
 50
7.6004745238
 51
80.0000371503
  0
LINE
  5
D8
330
1F
100
AcDbEntity
  8
0
  6
CONTINUOUS
 62
     7
100
AcDbLine
 10
1.0215858094
 20
3.4391285108
 30
0.0
 11
1.0215858094
 21
2.6503736759
 31
0.0
  0
LINE
  5
D9
330
1F
100
AcDbEntity
  8
0
  6
CONTINUOUS
 62
     7
100
AcDbLine
 10
1.0215858094
 20
19.7128447555
 30
0.0
 11
1.0215858094
 21
18.9240899206
 31
0.0
  0
ARC
  5
DA
330
1F
100
AcDbEntity
  8
0
  6
CONTINUOUS
 62
     7
100
AcDbCircle
 10
2.794248977
 20
19.4144946138
 30
0.0
 40
0.2035433070866146
100
AcDbArc
 50
173.9447554429
 51
332.399540952
  0
ARC
  5
DB
330
1F
100
AcDbEntity
  8
0
  6
CONTINUOUS
 62
     7
100
AcDbCircle
 10
2.794248975
 20
2.9487232948
 30
0.0
 40
0.2035433070866162
100
AcDbArc
 50
27.6004745237
 51
186.0551972321
  0
ARC
  5
DC
330
1F
100
AcDbEntity
  8
0
  6
CONTINUOUS
 62
     7
100
AcDbCircle
 10
3.4070777188
 20
3.0567817052
 30
0.0
 40
0.2035433070866143
100
AcDbArc
 50
13.9447554429
 51
172.399540952
  0
ARC
  5
DD
330
1F
100
AcDbEntity
  8
0
  6
CONTINUOUS
 62
     7
100
AcDbCircle
 10
3.4070777783
 20
19.3064365299
 30
0.0
 40
0.2035433070866185
100
AcDbArc
 50
187.6004745238
 51
346.0551977852
  0
ARC
  5
DE
330
1F
100
AcDbEntity
  8
0
  6
CONTINUOUS
 62
     7
100
AcDbCircle
 10
16.4477745915
 20
5.3562082427
 30
0.0
 40
0.2035433070866153
100
AcDbArc
 50
27.6004745238
 51
186.0551972321
  0
ARC
  5
DF
330
1F
100
AcDbEntity
  8
0
  6
CONTINUOUS
 62
     7
100
AcDbCircle
 10
16.4477745934
 20
17.0070096658
 30
0.0
 40
0.2035433070866189
100
AcDbArc
 50
173.9447554429
 51
332.399540952
  0
LINE
  5
E0
330
1F
100
AcDbEntity
  8
0
  6
CONTINUOUS
 62
     7
100
AcDbLine
 10
18.3070183732
 20
15.8762017167
 30
0.0
 11
18.3070183732
 21
16.6649565516
 31
0.0
  0
LINE
  5
E1
330
1F
100
AcDbEntity
  8
0
  6
CONTINUOUS
 62
     7
100
AcDbLine
 10
18.3070183732
 20
5.6982621731
 30
0.0
 11
18.3070183732
 21
6.4870164214
 31
0.0
  0
ARC
  5
E2
330
1F
100
AcDbEntity
  8
0
  6
CONTINUOUS
 62
     7
100
AcDbCircle
 10
17.0606033948
 20
16.8989515819
 30
0.0
 40
0.2035433070866148
100
AcDbArc
 50
187.6004745238
 51
346.0551977852
  0
ARC
  5
E3
330
1F
100
AcDbEntity
  8
0
  6
CONTINUOUS
 62
     7
100
AcDbCircle
 10
17.0606033353
 20
5.4642666531
 30
0.0
 40
0.2035433070866144
100
AcDbArc
 50
13.9447554429
 51
172.399540952
  0
ARC
  5
E4
330
1F
100
AcDbEntity
  8
0
  6
CONTINUOUS
 62
     7
100
AcDbCircle
 10
80.3963889791
 20
33.3406396744
 30
0.0
 40
0.236220472440948
100
AcDbArc
 50
270.0
 51
0.0
  0
LINE
  5
E5
330
1F
100
AcDbEntity
  8
0
  6
CONTINUOUS
 62
     7
100
AcDbLine
 10
75.7526890493
 20
33.1044185882
 30
0.0
 11
80.3963930581
 21
33.1044185882
 31
0.0
  0
ARC
  5
E6
330
1F
100
AcDbEntity
  8
0
  6
CONTINUOUS
 62
     7
100
AcDbCircle
 10
75.7526881917
 20
32.6319782571
 30
0.0
 40
0.472440944881896
100
AcDbArc
 50
90.0
 51
180.0
  0
LINE
  5
E7
330
1F
100
AcDbEntity
  8
0
  6
CONTINUOUS
 62
     7
100
AcDbLine
 10
75.2802494936
 20
28.6536646704
 30
0.0
 11
75.2802494936
 21
32.6319790325
 31
0.0
  0
ARC
  5
E8
330
1F
100
AcDbEntity
  8
0
  6
CONTINUOUS
 62
     7
100
AcDbCircle
 10
74.5302472468
 20
28.6536647042
 30
0.0
 40
0.75
100
AcDbArc
 50
300.0
 51
0.0
  0
ARC
  5
E9
330
1F
100
AcDbEntity
  8
0
  6
CONTINUOUS
 62
     7
100
AcDbCircle
 10
75.2802472468
 20
27.3546265985
 30
0.0
 40
0.7499999999999929
100
AcDbArc
 50
120.0
 51
180.0
  0
LINE
  5
EA
330
1F
100
AcDbEntity
  8
0
  6
CONTINUOUS
 62
     7
100
AcDbLine
 10
74.530249411
 20
24.9900581393
 30
0.0
 11
74.530249411
 21
27.3546260236
 31
0.0
  0
ARC
  5
EB
330
1F
100
AcDbEntity
  8
0
  6
CONTINUOUS
 62
     7
100
AcDbCircle
 10
75.2802472468
 20
24.9900585483
 30
0.0
 40
0.7499999999999898
100
AcDbArc
 50
180.0
 51
240.0
  0
ARC
  5
EC
330
1F
100
AcDbEntity
  8
0
  6
CONTINUOUS
 62
     7
100
AcDbCircle
 10
74.5302472468
 20
23.6910204427
 30
0.0
 40
0.7500000000000031
100
AcDbArc
 50
0.0
 51
60.0
  0
LINE
  5
ED
330
1F
100
AcDbEntity
  8
0
  6
CONTINUOUS
 62
     7
100
AcDbLine
 10
75.2802494936
 20
19.7127063037
 30
0.0
 11
75.2802494936
 21
23.6910194926
 31
0.0
  0
ARC
  5
EE
330
1F
100
AcDbEntity
  8
0
  6
CONTINUOUS
 62
     7
100
AcDbCircle
 10
75.7526881917
 20
19.7127068898
 30
0.0
 40
0.472440944881896
100
AcDbArc
 50
180.0
 51
270.0
  0
LINE
  5
EF
330
1F
100
AcDbEntity
  8
0
  6
CONTINUOUS
 62
     7
100
AcDbLine
 10
80.3963930581
 20
19.2402655747
 30
0.0
 11
75.7526890493
 21
19.2402655747
 31
0.0
  0
ARC
  5
F0
330
1F
100
AcDbEntity
  8
0
  6
CONTINUOUS
 62
     7
100
AcDbCircle
 10
80.3963889791
 20
19.0040454725
 30
0.0
 40
0.236220472440948
100
AcDbArc
 50
0.0
 51
90.0
  0
LINE
  5
F1
330
1F
100
AcDbEntity
  8
0
  6
CONTINUOUS
 62
     7
100
AcDbLine
 10
80.6326057961
 20
18.5414468742
 30
0.0
 11
80.6326057961
 21
19.0040457969
 31
0.0
  0
ARC
  5
F2
330
1F
100
AcDbEntity
  8
0
  6
CONTINUOUS
 62
     7
100
AcDbCircle
 10
80.5932393728
 20
18.5414470473
 30
0.0
 40
0.0393700787401627
100
AcDbArc
 50
270.0
 51
0.0
  0
LINE
  5
F3
330
1F
100
AcDbEntity
  8
0
  6
CONTINUOUS
 62
     7
100
AcDbLine
 10
80.5932385708
 20
18.5020773024
 30
0.0
 11
80.4274907256
 21
18.5020773024
 31
0.0
  0
LINE
  5
F4
330
1F
100
AcDbEntity
  8
0
  6
CONTINUOUS
 62
     7
100
AcDbLine
 10
80.4274907256
 20
18.5020773024
 30
0.0
 11
80.4141054935
 21
18.7112849122
 31
0.0
  0
ARC
  5
F5
330
1F
100
AcDbEntity
  8
0
  6
CONTINUOUS
 62
     7
100
AcDbCircle
 10
80.3748123686
 20
18.7087698819
 30
0.0
 40
0.0393700787401592
100
AcDbArc
 50
3.6619355755
 51
90.0
  0
LINE
  5
F6
330
1F
100
AcDbEntity
  8
0
  6
CONTINUOUS
 62
     7
100
AcDbLine
 10
80.3748133608
 20
18.7481400598
 30
0.0
 11
79.7846710581
 21
18.7481400598
 31
0.0
  0
ARC
  5
F7
330
1F
100
AcDbEntity
  8
0
  6
CONTINUOUS
 62
     7
100
AcDbCircle
 10
79.7846676556
 20
18.7875100394
 30
0.0
 40
0.0393700787401609
100
AcDbArc
 50
245.1121079736
 51
270.0
  0
ARC
  5
F8
330
1F
100
AcDbEntity
  8
0
  6
CONTINUOUS
 62
     7
100
AcDbCircle
 10
79.6089874043
 20
18.3356131245
 30
0.0
 40
0.039370078740177
100
AcDbArc
 50
0.0
 51
72.3995332142
  0
LINE
  5
F9
330
1F
100
AcDbEntity
  8
0
  6
CONTINUOUS
 62
     7
100
AcDbLine
 10
75.0026889667
 20
18.2559347592
 30
0.0
 11
79.6483594595
 21
18.2559347592
 31
0.0
  0
ARC
  5
FA
330
1F
100
AcDbEntity
  8
0
  6
CONTINUOUS
 62
     7
100
AcDbCircle
 10
75.0026881917
 20
18.7283761811
 30
0.0
 40
0.472440944881896
100
AcDbArc
 50
180.0
 51
270.0
  0
LINE
  5
FB
330
1F
100
AcDbEntity
  8
0
  6
CONTINUOUS
 62
     7
100
AcDbLine
 10
74.530249411
 20
23.2185799369
 30
0.0
 11
74.530249411
 21
18.7283766615
 31
0.0
  0
ARC
  5
FC
330
1F
100
AcDbEntity
  8
0
  6
CONTINUOUS
 62
     7
100
AcDbCircle
 10
74.057806302
 20
23.2185794978
 30
0.0
 40
0.4724409448818854
100
AcDbArc
 50
0.0
 51
90.0
  0
LINE
  5
FD
330
1F
100
AcDbEntity
  8
0
  6
CONTINUOUS
 62
     7
100
AcDbLine
 10
73.0341822137
 20
23.6910194926
 30
0.0
 11
74.0578051621
 21
23.6910194926
 31
0.0
  0
ARC
  5
FE
330
1F
100
AcDbEntity
  8
0
  6
CONTINUOUS
 62
     7
100
AcDbCircle
 10
73.0341842547
 20
23.2185794978
 30
0.0
 40
0.4724409448818854
100
AcDbArc
 50
90.0
 51
180.0
  0
LINE
  5
FF
330
1F
100
AcDbEntity
  8
0
  6
CONTINUOUS
 62
     7
100
AcDbLine
 10
72.561742658
 20
18.7283766615
 30
0.0
 11
72.561742658
 21
23.2185799369
 31
0.0
  0
ARC
  5
100
330
1F
100
AcDbEntity
  8
0
  6
CONTINUOUS
 62
     7
100
AcDbCircle
 10
67.4830031524
 20
18.3356131245
 30
0.0
 40
0.0393700787401569
100
AcDbArc
 50
107.6004667859
 51
180.0
  0
ARC
  5
101
330
1F
100
AcDbEntity
  8
0
  6
CONTINUOUS
 62
     7
100
AcDbCircle
 10
67.4095515721
 20
18.5671552985
 30
0.0
 40
0.2035433070866172
100
AcDbArc
 50
287.6004667859
 51
114.8878920264
  0
ARC
  5
102
330
1F
100
AcDbEntity
  8
0
  6
CONTINUOUS
 62
     7
100
AcDbCircle
 10
67.307322901
 20
18.7875100394
 30
0.0
 40
0.0393700787401556
100
AcDbArc
 50
270.0
 51
294.8878920264
  0
LINE
  5
103
330
1F
100
AcDbEntity
  8
0
  6
CONTINUOUS
 62
     7
100
AcDbLine
 10
67.3073210109
 20
18.7481400598
 30
0.0
 11
66.7171787083
 21
18.7481400598
 31
0.0
  0
ARC
  5
104
330
1F
100
AcDbEntity
  8
0
  6
CONTINUOUS
 62
     7
100
AcDbCircle
 10
66.7171781881
 20
18.7087698819
 30
0.0
 40
0.0393700787401592
100
AcDbArc
 50
90.0
 51
176.3380644245
  0
LINE
  5
105
330
1F
100
AcDbEntity
  8
0
  6
CONTINUOUS
 62
     7
100
AcDbLine
 10
66.6778865755
 20
18.7112849122
 30
0.0
 11
66.6645013435
 21
18.5020773024
 31
0.0
  0
LINE
  5
106
330
1F
100
AcDbEntity
  8
0
  6
CONTINUOUS
 62
     7
100
AcDbLine
 10
66.6645013435
 20
18.5020773024
 30
0.0
 11
66.4987534982
 21
18.5020773024
 31
0.0
  0
ARC
  5
107
330
1F
100
AcDbEntity
  8
0
  6
CONTINUOUS
 62
     7
100
AcDbCircle
 10
66.4987511838
 20
18.5414470473
 30
0.0
 40
0.0393700787401627
100
AcDbArc
 50
180.0
 51
270.0
  0
LINE
  5
108
330
1F
100
AcDbEntity
  8
0
  6
CONTINUOUS
 62
     7
100
AcDbLine
 10
66.4593815797
 20
19.0040457969
 30
0.0
 11
66.4593815797
 21
18.5414468742
 31
0.0
  0
ARC
  5
109
330
1F
100
AcDbEntity
  8
0
  6
CONTINUOUS
 62
     7
100
AcDbCircle
 10
66.6956015775
 20
19.0040454725
 30
0.0
 40
0.236220472440948
100
AcDbArc
 50
90.0
 51
180.0
  0
LINE
  5
10A
330
1F
100
AcDbEntity
  8
0
  6
CONTINUOUS
 62
     7
100
AcDbLine
 10
71.3393030198
 20
19.2402655747
 30
0.0
 11
66.6956037042
 21
19.2402655747
 31
0.0
  0
ARC
  5
10B
330
1F
100
AcDbEntity
  8
0
  6
CONTINUOUS
 62
     7
100
AcDbCircle
 10
71.3393023649
 20
19.7127068898
 30
0.0
 40
0.4724409448818889
100
AcDbArc
 50
270.0
 51
0.0
  0
LINE
  5
10C
330
1F
100
AcDbEntity
  8
0
  6
CONTINUOUS
 62
     7
100
AcDbLine
 10
71.8117425754
 20
23.6910194926
 30
0.0
 11
71.8117425754
 21
19.7127063037
 31
0.0
  0
ARC
  5
10D
330
1F
100
AcDbEntity
  8
0
  6
CONTINUOUS
 62
     7
100
AcDbCircle
 10
72.5617433098
 20
23.6910204427
 30
0.0
 40
0.7500000000000031
100
AcDbArc
 50
120.0
 51
180.0
  0
ARC
  5
10E
330
1F
100
AcDbEntity
  8
0
  6
CONTINUOUS
 62
     7
100
AcDbCircle
 10
71.8117433098
 20
24.9900585483
 30
0.0
 40
0.75
100
AcDbArc
 50
300.0
 51
0.0
  0
LINE
  5
10F
330
1F
100
AcDbEntity
  8
0
  6
CONTINUOUS
 62
     7
100
AcDbLine
 10
72.561742658
 20
27.3546260236
 30
0.0
 11
72.561742658
 21
24.9900581393
 31
0.0
  0
ARC
  5
110
330
1F
100
AcDbEntity
  8
0
  6
CONTINUOUS
 62
     7
100
AcDbCircle
 10
71.8117433098
 20
27.3546265985
 30
0.0
 40
0.75
100
AcDbArc
 50
0.0
 51
60.0
  0
ARC
  5
111
330
1F
100
AcDbEntity
  8
0
  6
CONTINUOUS
 62
     7
100
AcDbCircle
 10
72.5617433098
 20
28.6536647042
 30
0.0
 40
0.75
100
AcDbArc
 50
180.0
 51
240.0
  0
LINE
  5
112
330
1F
100
AcDbEntity
  8
0
  6
CONTINUOUS
 62
     7
100
AcDbLine
 10
71.8117425754
 20
32.6319790325
 30
0.0
 11
71.8117425754
 21
28.6536646704
 31
0.0
  0
ARC
  5
113
330
1F
100
AcDbEntity
  8
0
  6
CONTINUOUS
 62
     7
100
AcDbCircle
 10
71.3393023649
 20
32.6319782571
 30
0.0
 40
0.472440944881896
100
AcDbArc
 50
0.0
 51
90.0
  0
LINE
  5
114
330
1F
100
AcDbEntity
  8
0
  6
CONTINUOUS
 62
     7
100
AcDbLine
 10
66.6956037042
 20
33.1044185882
 30
0.0
 11
71.3393030198
 21
33.1044185882
 31
0.0
  0
ARC
  5
115
330
1F
100
AcDbEntity
  8
0
  6
CONTINUOUS
 62
     7
100
AcDbCircle
 10
66.6956015775
 20
33.3406396744
 30
0.0
 40
0.236220472440948
100
AcDbArc
 50
180.0
 51
270.0
  0
LINE
  5
116
330
1F
100
AcDbEntity
  8
0
  6
CONTINUOUS
 62
     7
100
AcDbLine
 10
66.4593815797
 20
33.803238462
 30
0.0
 11
66.4593815797
 21
33.3406407127
 31
0.0
  0
ARC
  5
117
330
1F
100
AcDbEntity
  8
0
  6
CONTINUOUS
 62
     7
100
AcDbCircle
 10
66.4987511838
 20
33.8032380996
 30
0.0
 40
0.0393700787401627
100
AcDbArc
 50
90.0
 51
180.0
  0
LINE
  5
118
330
1F
100
AcDbEntity
  8
0
  6
CONTINUOUS
 62
     7
100
AcDbLine
 10
66.4987534982
 20
33.8426080339
 30
0.0
 11
66.6645013435
 21
33.8426080339
 31
0.0
  0
LINE
  5
119
330
1F
100
AcDbEntity
  8
0
  6
CONTINUOUS
 62
     7
100
AcDbLine
 10
66.6645013435
 20
33.8426080339
 30
0.0
 11
66.6778865755
 21
33.633400424
 31
0.0
  0
ARC
  5
11A
330
1F
100
AcDbEntity
  8
0
  6
CONTINUOUS
 62
     7
100
AcDbCircle
 10
66.7171781881
 20
33.6359152649
 30
0.0
 40
0.039370078740159
100
AcDbArc
 50
183.6619355755
 51
270.0
  0
LINE
  5
11B
330
1F
100
AcDbEntity
  8
0
  6
CONTINUOUS
 62
     7
100
AcDbLine
 10
66.7171787083
 20
33.5965441031
 30
0.0
 11
67.3073210109
 21
33.5965441031
 31
0.0
  0
ARC
  5
11C
330
1F
100
AcDbEntity
  8
0
  6
CONTINUOUS
 62
     7
100
AcDbCircle
 10
67.307322901
 20
33.5571751074
 30
0.0
 40
0.0393700787401627
100
AcDbArc
 50
65.1121079736
 51
90.0
  0
ARC
  5
11D
330
1F
100
AcDbEntity
  8
0
  6
CONTINUOUS
 62
     7
100
AcDbCircle
 10
67.4095515721
 20
33.7775298483
 30
0.0
 40
0.2035433070866139
100
AcDbArc
 50
245.1121079736
 51
72.3995332141
  0
ARC
  5
11E
330
1F
100
AcDbEntity
  8
0
  6
CONTINUOUS
 62
     7
100
AcDbCircle
 10
67.4830031524
 20
34.0090720224
 30
0.0
 40
0.0393700787401569
100
AcDbArc
 50
180.0
 51
252.3995332141
  0
LINE
  5
11F
330
1F
100
AcDbEntity
  8
0
  6
CONTINUOUS
 62
     7
100
AcDbLine
 10
67.4436326095
 20
34.0887494038
 30
0.0
 11
67.4436326095
 21
34.0090716042
 31
0.0
  0
LINE
  5
120
330
1F
100
AcDbEntity
  8
0
  6
CONTINUOUS
 62
     7
100
AcDbLine
 10
72.0893031024
 20
34.0887494038
 30
0.0
 11
67.4436326095
 21
34.0887494038
 31
0.0
  0
ARC
  5
121
330
1F
100
AcDbEntity
  8
0
  6
CONTINUOUS
 62
     7
100
AcDbCircle
 10
72.0893023649
 20
33.6163089657
 30
0.0
 40
0.4724409448818889
100
AcDbArc
 50
0.0
 51
90.0
  0
LINE
  5
122
330
1F
100
AcDbEntity
  8
0
  6
CONTINUOUS
 62
     7
100
AcDbLine
 10
72.561742658
 20
29.1261065727
 30
0.0
 11
72.561742658
 21
33.6163098481
 31
0.0
  0
ARC
  5
123
330
1F
100
AcDbEntity
  8
0
  6
CONTINUOUS
 62
     7
100
AcDbCircle
 10
73.0341842547
 20
29.1261056491
 30
0.0
 40
0.4724409448818889
100
AcDbArc
 50
180.0
 51
270.0
  0
LINE
  5
124
330
1F
100
AcDbEntity
  8
0
  6
CONTINUOUS
 62
     7
100
AcDbLine
 10
74.0578051621
 20
28.6536646704
 30
0.0
 11
73.0341822137
 21
28.6536646704
 31
0.0
  0
ARC
  5
125
330
1F
100
AcDbEntity
  8
0
  6
CONTINUOUS
 62
     7
100
AcDbCircle
 10
74.057806302
 20
29.1261056491
 30
0.0
 40
0.472440944881896
100
AcDbArc
 50
270.0
 51
0.0
  0
LINE
  5
126
330
1F
100
AcDbEntity
  8
0
  6
CONTINUOUS
 62
     7
100
AcDbLine
 10
74.530249411
 20
33.6163098481
 30
0.0
 11
74.530249411
 21
29.1261065727
 31
0.0
  0
ARC
  5
127
330
1F
100
AcDbEntity
  8
0
  6
CONTINUOUS
 62
     7
100
AcDbCircle
 10
75.0026881917
 20
33.6163089657
 30
0.0
 40
0.472440944881896
100
AcDbArc
 50
90.0
 51
180.0
  0
LINE
  5
128
330
1F
100
AcDbEntity
  8
0
  6
CONTINUOUS
 62
     7
100
AcDbLine
 10
79.6483594595
 20
34.0887494038
 30
0.0
 11
75.0026889667
 21
34.0887494038
 31
0.0
  0
LINE
  5
129
330
1F
100
AcDbEntity
  8
0
  6
CONTINUOUS
 62
     7
100
AcDbLine
 10
79.6483594595
 20
34.0090716042
 30
0.0
 11
79.6483594595
 21
34.0887494038
 31
0.0
  0
ARC
  5
12A
330
1F
100
AcDbEntity
  8
0
  6
CONTINUOUS
 62
     7
100
AcDbCircle
 10
79.6089874043
 20
34.0090720224
 30
0.0
 40
0.0393700787401526
100
AcDbArc
 50
287.6004667858
 51
0.0
  0
ARC
  5
12B
330
1F
100
AcDbEntity
  8
0
  6
CONTINUOUS
 62
     7
100
AcDbCircle
 10
79.6824389846
 20
33.7775298483
 30
0.0
 40
0.2035433070866173
100
AcDbArc
 50
107.6004667859
 51
294.8878920264
  0
ARC
  5
12C
330
1F
100
AcDbEntity
  8
0
  6
CONTINUOUS
 62
     7
100
AcDbCircle
 10
79.7846676556
 20
33.5571751074
 30
0.0
 40
0.0393700787401696
100
AcDbArc
 50
90.0
 51
114.8878920264
  0
LINE
  5
12D
330
1F
100
AcDbEntity
  8
0
  6
CONTINUOUS
 62
     7
100
AcDbLine
 10
79.7846710581
 20
33.5965441031
 30
0.0
 11
80.3748133608
 21
33.5965441031
 31
0.0
  0
ARC
  5
12E
330
1F
100
AcDbEntity
  8
0
  6
CONTINUOUS
 62
     7
100
AcDbCircle
 10
80.3748123686
 20
33.6359152649
 30
0.0
 40
0.039370078740159
100
AcDbArc
 50
270.0
 51
356.3380644245
  0
LINE
  5
12F
330
1F
100
AcDbEntity
  8
0
  6
CONTINUOUS
 62
     7
100
AcDbLine
 10
80.4141054935
 20
33.633400424
 30
0.0
 11
80.4274907256
 21
33.8426080339
 31
0.0
  0
LINE
  5
130
330
1F
100
AcDbEntity
  8
0
  6
CONTINUOUS
 62
     7
100
AcDbLine
 10
80.4274907256
 20
33.8426080339
 30
0.0
 11
80.5932385708
 21
33.8426080339
 31
0.0
  0
ARC
  5
131
330
1F
100
AcDbEntity
  8
0
  6
CONTINUOUS
 62
     7
100
AcDbCircle
 10
80.5932393728
 20
33.8032380996
 30
0.0
 40
0.0393700787401627
100
AcDbArc
 50
0.0
 51
90.0
  0
LINE
  5
132
330
1F
100
AcDbEntity
  8
0
  6
CONTINUOUS
 62
     7
100
AcDbLine
 10
80.6326057961
 20
33.3406407127
 30
0.0
 11
80.6326057961
 21
33.803238462
 31
0.0
  0
LINE
  5
133
330
1F
100
AcDbEntity
  8
0
  6
CONTINUOUS
 62
     7
100
AcDbLine
 10
67.4436326095
 20
18.3356125587
 30
0.0
 11
67.4436326095
 21
18.2559347592
 31
0.0
  0
ARC
  5
134
330
1F
100
AcDbEntity
  8
0
  6
CONTINUOUS
 62
     7
100
AcDbCircle
 10
72.0893023649
 20
18.7283761811
 30
0.0
 40
0.4724409448818889
100
AcDbArc
 50
270.0
 51
0.0
  0
LINE
  5
135
330
1F
100
AcDbEntity
  8
0
  6
CONTINUOUS
 62
     7
100
AcDbLine
 10
67.4436326095
 20
18.2559347592
 30
0.0
 11
72.0893031024
 21
18.2559347592
 31
0.0
  0
LINE
  5
136
330
1F
100
AcDbEntity
  8
0
  6
CONTINUOUS
 62
     7
100
AcDbLine
 10
79.6483594595
 20
18.2559347592
 30
0.0
 11
79.6483594595
 21
18.3356125587
 31
0.0
  0
ARC
  5
137
330
1F
100
AcDbEntity
  8
0
  6
CONTINUOUS
 62
     7
100
AcDbCircle
 10
79.6824389846
 20
18.5671552985
 30
0.0
 40
0.2035433070866112
100
AcDbArc
 50
65.1121079736
 51
252.3995332141
  0
ARC
  5
138
330
1F
100
AcDbEntity
  8
0
  6
CONTINUOUS
 62
     7
100
AcDbCircle
 10
66.6956015775
 20
1.9320181997
 30
0.0
 40
0.236220472440948
100
AcDbArc
 50
90.0
 51
180.0
  0
LINE
  5
139
330
1F
100
AcDbEntity
  8
0
  6
CONTINUOUS
 62
     7
100
AcDbLine
 10
71.3393030198
 20
2.1682386856
 30
0.0
 11
66.6956037042
 21
2.1682386856
 31
0.0
  0
ARC
  5
13A
330
1F
100
AcDbEntity
  8
0
  6
CONTINUOUS
 62
     7
100
AcDbCircle
 10
71.3393023649
 20
2.640679617
 30
0.0
 40
0.472440944881896
100
AcDbArc
 50
270.0
 51
0.0
  0
LINE
  5
13B
330
1F
100
AcDbEntity
  8
0
  6
CONTINUOUS
 62
     7
100
AcDbLine
 10
71.8117425754
 20
6.6189931901
 30
0.0
 11
71.8117425754
 21
2.6406797079
 31
0.0
  0
ARC
  5
13C
330
1F
100
AcDbEntity
  8
0
  6
CONTINUOUS
 62
     7
100
AcDbCircle
 10
72.5617433098
 20
6.6189931699
 30
0.0
 40
0.75
100
AcDbArc
 50
120.0
 51
180.0
  0
ARC
  5
13D
330
1F
100
AcDbEntity
  8
0
  6
CONTINUOUS
 62
     7
100
AcDbCircle
 10
71.8117433098
 20
7.9180312756
 30
0.0
 40
0.75
100
AcDbArc
 50
300.0
 51
0.0
  0
LINE
  5
13E
330
1F
100
AcDbEntity
  8
0
  6
CONTINUOUS
 62
     7
100
AcDbLine
 10
72.561742658
 20
10.2825991345
 30
0.0
 11
72.561742658
 21
7.9180312502
 31
0.0
  0
ARC
  5
13F
330
1F
100
AcDbEntity
  8
0
  6
CONTINUOUS
 62
     7
100
AcDbCircle
 10
71.8117433098
 20
10.2825993257
 30
0.0
 40
0.75
100
AcDbArc
 50
0.0
 51
60.0
  0
ARC
  5
140
330
1F
100
AcDbEntity
  8
0
  6
CONTINUOUS
 62
     7
100
AcDbCircle
 10
72.5617433098
 20
11.5816374314
 30
0.0
 40
0.75
100
AcDbArc
 50
180.0
 51
240.0
  0
LINE
  5
141
330
1F
100
AcDbEntity
  8
0
  6
CONTINUOUS
 62
     7
100
AcDbLine
 10
71.8117425754
 20
15.5599509701
 30
0.0
 11
71.8117425754
 21
11.5816377812
 31
0.0
  0
ARC
  5
142
330
1F
100
AcDbEntity
  8
0
  6
CONTINUOUS
 62
     7
100
AcDbCircle
 10
71.3393023649
 20
15.5599509843
 30
0.0
 40
0.472440944881896
100
AcDbArc
 50
0.0
 51
90.0
  0
LINE
  5
143
330
1F
100
AcDbEntity
  8
0
  6
CONTINUOUS
 62
     7
100
AcDbLine
 10
66.6956037042
 20
16.032391699
 30
0.0
 11
71.3393030198
 21
16.032391699
 31
0.0
  0
ARC
  5
144
330
1F
100
AcDbEntity
  8
0
  6
CONTINUOUS
 62
     7
100
AcDbCircle
 10
66.6956015775
 20
16.2686124016
 30
0.0
 40
0.236220472440948
100
AcDbArc
 50
180.0
 51
270.0
  0
LINE
  5
145
330
1F
100
AcDbEntity
  8
0
  6
CONTINUOUS
 62
     7
100
AcDbLine
 10
66.4593815797
 20
16.7312103996
 30
0.0
 11
66.4593815797
 21
16.2686126502
 31
0.0
  0
ARC
  5
146
330
1F
100
AcDbEntity
  8
0
  6
CONTINUOUS
 62
     7
100
AcDbCircle
 10
66.4987511838
 20
16.7312108268
 30
0.0
 40
0.0393700787401592
100
AcDbArc
 50
90.0
 51
180.0
  0
LINE
  5
147
330
1F
100
AcDbEntity
  8
0
  6
CONTINUOUS
 62
     7
100
AcDbLine
 10
66.4987534982
 20
16.7705811448
 30
0.0
 11
66.6645013435
 21
16.7705811448
 31
0.0
  0
LINE
  5
148
330
1F
100
AcDbEntity
  8
0
  6
CONTINUOUS
 62
     7
100
AcDbLine
 10
66.6645013435
 20
16.7705811448
 30
0.0
 11
66.6778865755
 21
16.5613735349
 31
0.0
  0
ARC
  5
149
330
1F
100
AcDbEntity
  8
0
  6
CONTINUOUS
 62
     7
100
AcDbCircle
 10
66.7171781881
 20
16.5638879922
 30
0.0
 40
0.0393700787401592
100
AcDbArc
 50
183.6619355755
 51
270.0
  0
LINE
  5
14A
330
1F
100
AcDbEntity
  8
0
  6
CONTINUOUS
 62
     7
100
AcDbLine
 10
66.7171787083
 20
16.5245183873
 30
0.0
 11
67.3073210109
 21
16.5245183873
 31
0.0
  0
ARC
  5
14B
330
1F
100
AcDbEntity
  8
0
  6
CONTINUOUS
 62
     7
100
AcDbCircle
 10
67.307322901
 20
16.4851478347
 30
0.0
 40
0.0393700787401581
100
AcDbArc
 50
65.1121079736
 51
90.0
  0
ARC
  5
14C
330
1F
100
AcDbEntity
  8
0
  6
CONTINUOUS
 62
     7
100
AcDbCircle
 10
67.4095515721
 20
16.7055025756
 30
0.0
 40
0.2035433070866106
100
AcDbArc
 50
245.1121079736
 51
72.3995332141
  0
ARC
  5
14D
330
1F
100
AcDbEntity
  8
0
  6
CONTINUOUS
 62
     7
100
AcDbCircle
 10
67.4830031524
 20
16.9370447496
 30
0.0
 40
0.0393700787401636
100
AcDbArc
 50
180.0
 51
252.3995332141
  0
LINE
  5
14E
330
1F
100
AcDbEntity
  8
0
  6
CONTINUOUS
 62
     7
100
AcDbLine
 10
67.4436326095
 20
17.0167225146
 30
0.0
 11
67.4436326095
 21
16.9370447151
 31
0.0
  0
LINE
  5
14F
330
1F
100
AcDbEntity
  8
0
  6
CONTINUOUS
 62
     7
100
AcDbLine
 10
72.0893031024
 20
17.0167225146
 30
0.0
 11
67.4436326095
 21
17.0167225146
 31
0.0
  0
ARC
  5
150
330
1F
100
AcDbEntity
  8
0
  6
CONTINUOUS
 62
     7
100
AcDbCircle
 10
72.0893023649
 20
16.5442816929
 30
0.0
 40
0.472440944881896
100
AcDbArc
 50
0.0
 51
90.0
  0
LINE
  5
151
330
1F
100
AcDbEntity
  8
0
  6
CONTINUOUS
 62
     7
100
AcDbLine
 10
72.561742658
 20
12.0540785102
 30
0.0
 11
72.561742658
 21
16.5442817856
 31
0.0
  0
ARC
  5
152
330
1F
100
AcDbEntity
  8
0
  6
CONTINUOUS
 62
     7
100
AcDbCircle
 10
73.0341842547
 20
12.0540783763
 30
0.0
 40
0.4724409448818907
100
AcDbArc
 50
180.0
 51
270.0
  0
LINE
  5
153
330
1F
100
AcDbEntity
  8
0
  6
CONTINUOUS
 62
     7
100
AcDbLine
 10
74.0578051621
 20
11.5816377812
 30
0.0
 11
73.0341822137
 21
11.5816377812
 31
0.0
  0
ARC
  5
154
330
1F
100
AcDbEntity
  8
0
  6
CONTINUOUS
 62
     7
100
AcDbCircle
 10
74.057806302
 20
12.0540783763
 30
0.0
 40
0.472440944881896
100
AcDbArc
 50
270.0
 51
0.0
  0
LINE
  5
155
330
1F
100
AcDbEntity
  8
0
  6
CONTINUOUS
 62
     7
100
AcDbLine
 10
74.530249411
 20
16.5442817856
 30
0.0
 11
74.530249411
 21
12.0540785102
 31
0.0
  0
ARC
  5
156
330
1F
100
AcDbEntity
  8
0
  6
CONTINUOUS
 62
     7
100
AcDbCircle
 10
75.0026881917
 20
16.5442816929
 30
0.0
 40
0.4724409448818889
100
AcDbArc
 50
90.0
 51
180.0
  0
LINE
  5
157
330
1F
100
AcDbEntity
  8
0
  6
CONTINUOUS
 62
     7
100
AcDbLine
 10
79.6483594595
 20
17.0167225146
 30
0.0
 11
75.0026889667
 21
17.0167225146
 31
0.0
  0
LINE
  5
158
330
1F
100
AcDbEntity
  8
0
  6
CONTINUOUS
 62
     7
100
AcDbLine
 10
79.6483594595
 20
16.9370447151
 30
0.0
 11
79.6483594595
 21
17.0167225146
 31
0.0
  0
ARC
  5
159
330
1F
100
AcDbEntity
  8
0
  6
CONTINUOUS
 62
     7
100
AcDbCircle
 10
79.6089874043
 20
16.9370447496
 30
0.0
 40
0.0393700787401526
100
AcDbArc
 50
287.6004667858
 51
0.0
  0
ARC
  5
15A
330
1F
100
AcDbEntity
  8
0
  6
CONTINUOUS
 62
     7
100
AcDbCircle
 10
79.6824389846
 20
16.7055025756
 30
0.0
 40
0.2035433070866139
100
AcDbArc
 50
107.6004667859
 51
294.8878920264
  0
ARC
  5
15B
330
1F
100
AcDbEntity
  8
0
  6
CONTINUOUS
 62
     7
100
AcDbCircle
 10
79.7846676556
 20
16.4851478347
 30
0.0
 40
0.0393700787401609
100
AcDbArc
 50
90.0
 51
114.8878920264
  0
LINE
  5
15C
330
1F
100
AcDbEntity
  8
0
  6
CONTINUOUS
 62
     7
100
AcDbLine
 10
79.7846710581
 20
16.5245183873
 30
0.0
 11
80.3748133608
 21
16.5245183873
 31
0.0
  0
ARC
  5
15D
330
1F
100
AcDbEntity
  8
0
  6
CONTINUOUS
 62
     7
100
AcDbCircle
 10
80.3748123686
 20
16.5638879922
 30
0.0
 40
0.0393700787401592
100
AcDbArc
 50
270.0
 51
356.3380644245
  0
LINE
  5
15E
330
1F
100
AcDbEntity
  8
0
  6
CONTINUOUS
 62
     7
100
AcDbLine
 10
80.4141054935
 20
16.5613735349
 30
0.0
 11
80.4274907256
 21
16.7705811448
 31
0.0
  0
LINE
  5
15F
330
1F
100
AcDbEntity
  8
0
  6
CONTINUOUS
 62
     7
100
AcDbLine
 10
80.4274907256
 20
16.7705811448
 30
0.0
 11
80.5932385708
 21
16.7705811448
 31
0.0
  0
ARC
  5
160
330
1F
100
AcDbEntity
  8
0
  6
CONTINUOUS
 62
     7
100
AcDbCircle
 10
80.5932393728
 20
16.7312108268
 30
0.0
 40
0.0393700787401627
100
AcDbArc
 50
0.0
 51
90.0
  0
LINE
  5
161
330
1F
100
AcDbEntity
  8
0
  6
CONTINUOUS
 62
     7
100
AcDbLine
 10
80.6326057961
 20
16.2686126502
 30
0.0
 11
80.6326057961
 21
16.7312103996
 31
0.0
  0
ARC
  5
162
330
1F
100
AcDbEntity
  8
0
  6
CONTINUOUS
 62
     7
100
AcDbCircle
 10
80.3963889791
 20
16.2686124016
 30
0.0
 40
0.236220472440948
100
AcDbArc
 50
270.0
 51
0.0
  0
LINE
  5
163
330
1F
100
AcDbEntity
  8
0
  6
CONTINUOUS
 62
     7
100
AcDbLine
 10
75.7526890493
 20
16.032391699
 30
0.0
 11
80.3963930581
 21
16.032391699
 31
0.0
  0
ARC
  5
164
330
1F
100
AcDbEntity
  8
0
  6
CONTINUOUS
 62
     7
100
AcDbCircle
 10
75.7526881917
 20
15.5599509843
 30
0.0
 40
0.4724409448818889
100
AcDbArc
 50
90.0
 51
180.0
  0
LINE
  5
165
330
1F
100
AcDbEntity
  8
0
  6
CONTINUOUS
 62
     7
100
AcDbLine
 10
75.2802494936
 20
11.5816377812
 30
0.0
 11
75.2802494936
 21
15.5599509701
 31
0.0
  0
ARC
  5
166
330
1F
100
AcDbEntity
  8
0
  6
CONTINUOUS
 62
     7
100
AcDbCircle
 10
74.5302472468
 20
11.5816374314
 30
0.0
 40
0.75
100
AcDbArc
 50
300.0
 51
0.0
  0
ARC
  5
167
330
1F
100
AcDbEntity
  8
0
  6
CONTINUOUS
 62
     7
100
AcDbCircle
 10
75.2802472468
 20
10.2825993257
 30
0.0
 40
0.75
100
AcDbArc
 50
120.0
 51
180.0
  0
LINE
  5
168
330
1F
100
AcDbEntity
  8
0
  6
CONTINUOUS
 62
     7
100
AcDbLine
 10
74.530249411
 20
7.9180312502
 30
0.0
 11
74.530249411
 21
10.2825991345
 31
0.0
  0
ARC
  5
169
330
1F
100
AcDbEntity
  8
0
  6
CONTINUOUS
 62
     7
100
AcDbCircle
 10
75.2802472468
 20
7.9180312756
 30
0.0
 40
0.75
100
AcDbArc
 50
180.0
 51
240.0
  0
ARC
  5
16A
330
1F
100
AcDbEntity
  8
0
  6
CONTINUOUS
 62
     7
100
AcDbCircle
 10
74.5302472468
 20
6.6189931699
 30
0.0
 40
0.75
100
AcDbArc
 50
0.0
 51
60.0
  0
LINE
  5
16B
330
1F
100
AcDbEntity
  8
0
  6
CONTINUOUS
 62
     7
100
AcDbLine
 10
75.2802494936
 20
2.6406797079
 30
0.0
 11
75.2802494936
 21
6.6189931901
 31
0.0
  0
ARC
  5
16C
330
1F
100
AcDbEntity
  8
0
  6
CONTINUOUS
 62
     7
100
AcDbCircle
 10
75.7526881917
 20
2.640679617
 30
0.0
 40
0.4724409448818965
100
AcDbArc
 50
180.0
 51
270.0
  0
LINE
  5
16D
330
1F
100
AcDbEntity
  8
0
  6
CONTINUOUS
 62
     7
100
AcDbLine
 10
80.3963930581
 20
2.1682386856
 30
0.0
 11
75.7526890493
 21
2.1682386856
 31
0.0
  0
ARC
  5
16E
330
1F
100
AcDbEntity
  8
0
  6
CONTINUOUS
 62
     7
100
AcDbCircle
 10
80.3963889791
 20
1.9320181997
 30
0.0
 40
0.236220472440948
100
AcDbArc
 50
0.0
 51
90.0
  0
LINE
  5
16F
330
1F
100
AcDbEntity
  8
0
  6
CONTINUOUS
 62
     7
100
AcDbLine
 10
80.6326057961
 20
1.4694198384
 30
0.0
 11
80.6326057961
 21
1.9320181744
 31
0.0
  0
ARC
  5
170
330
1F
100
AcDbEntity
  8
0
  6
CONTINUOUS
 62
     7
100
AcDbCircle
 10
80.5932393728
 20
1.4694197745
 30
0.0
 40
0.0393700787401627
100
AcDbArc
 50
270.0
 51
0.0
  0
LINE
  5
171
330
1F
100
AcDbEntity
  8
0
  6
CONTINUOUS
 62
     7
100
AcDbLine
 10
80.5932385708
 20
1.4300496799
 30
0.0
 11
80.4274907256
 21
1.4300496799
 31
0.0
  0
LINE
  5
172
330
1F
100
AcDbEntity
  8
0
  6
CONTINUOUS
 62
     7
100
AcDbLine
 10
80.4274907256
 20
1.4300496799
 30
0.0
 11
80.4141054935
 21
1.6392571431
 31
0.0
  0
ARC
  5
173
330
1F
100
AcDbEntity
  8
0
  6
CONTINUOUS
 62
     7
100
AcDbCircle
 10
80.3748123686
 20
1.6367426092
 30
0.0
 40
0.039370078740159
100
AcDbArc
 50
3.6619355755
 51
90.0
  0
LINE
  5
174
330
1F
100
AcDbEntity
  8
0
  6
CONTINUOUS
 62
     7
100
AcDbLine
 10
80.3748133608
 20
1.6761127307
 30
0.0
 11
79.7846710581
 21
1.6761127307
 31
0.0
  0
ARC
  5
175
330
1F
100
AcDbEntity
  8
0
  6
CONTINUOUS
 62
     7
100
AcDbCircle
 10
79.7846676556
 20
1.7154827666
 30
0.0
 40
0.0393700787401613
100
AcDbArc
 50
245.1121079736
 51
270.0
  0
ARC
  5
176
330
1F
100
AcDbEntity
  8
0
  6
CONTINUOUS
 62
     7
100
AcDbCircle
 10
79.6824389846
 20
1.4951280257
 30
0.0
 40
0.2035433070866186
100
AcDbArc
 50
65.1121079736
 51
252.3995332141
  0
ARC
  5
177
330
1F
100
AcDbEntity
  8
0
  6
CONTINUOUS
 62
     7
100
AcDbCircle
 10
79.6089874043
 20
1.2635858517
 30
0.0
 40
0.0393700787401519
100
AcDbArc
 50
0.0
 51
72.3995332142
  0
LINE
  5
178
330
1F
100
AcDbEntity
  8
0
  6
CONTINUOUS
 62
     7
100
AcDbLine
 10
74.530249411
 20
6.1465524611
 30
0.0
 11
74.530249411
 21
1.6563488923
 31
0.0
  0
ARC
  5
179
330
1F
100
AcDbEntity
  8
0
  6
CONTINUOUS
 62
     7
100
AcDbCircle
 10
74.057806302
 20
6.146552225
 30
0.0
 40
0.472440944881896
100
AcDbArc
 50
0.0
 51
90.0
  0
LINE
  5
17A
330
1F
100
AcDbEntity
  8
0
  6
CONTINUOUS
 62
     7
100
AcDbLine
 10
73.0341822137
 20
6.6189931901
 30
0.0
 11
74.0578051621
 21
6.6189931901
 31
0.0
  0
ARC
  5
17B
330
1F
100
AcDbEntity
  8
0
  6
CONTINUOUS
 62
     7
100
AcDbCircle
 10
73.0341842547
 20
6.146552225
 30
0.0
 40
0.4724409448818907
100
AcDbArc
 50
90.0
 51
180.0
  0
LINE
  5
17C
330
1F
100
AcDbEntity
  8
0
  6
CONTINUOUS
 62
     7
100
AcDbLine
 10
72.561742658
 20
1.6563488923
 30
0.0
 11
72.561742658
 21
6.1465524611
 31
0.0
  0
ARC
  5
17D
330
1F
100
AcDbEntity
  8
0
  6
CONTINUOUS
 62
     7
100
AcDbCircle
 10
67.4830031524
 20
1.2635858517
 30
0.0
 40
0.0393700787401627
100
AcDbArc
 50
107.6004667859
 51
180.0
  0
ARC
  5
17E
330
1F
100
AcDbEntity
  8
0
  6
CONTINUOUS
 62
     7
100
AcDbCircle
 10
67.4095515721
 20
1.4951280257
 30
0.0
 40
0.2035433070866186
100
AcDbArc
 50
287.6004667859
 51
114.8878920264
  0
ARC
  5
17F
330
1F
100
AcDbEntity
  8
0
  6
CONTINUOUS
 62
     7
100
AcDbCircle
 10
67.307322901
 20
1.7154827666
 30
0.0
 40
0.0393700787401572
100
AcDbArc
 50
270.0
 51
294.8878920264
  0
LINE
  5
180
330
1F
100
AcDbEntity
  8
0
  6
CONTINUOUS
 62
     7
100
AcDbLine
 10
67.3073210109
 20
1.6761127307
 30
0.0
 11
66.7171787083
 21
1.6761127307
 31
0.0
  0
ARC
  5
181
330
1F
100
AcDbEntity
  8
0
  6
CONTINUOUS
 62
     7
100
AcDbCircle
 10
66.7171781881
 20
1.6367426092
 30
0.0
 40
0.039370078740159
100
AcDbArc
 50
90.0
 51
176.3380644245
  0
LINE
  5
182
330
1F
100
AcDbEntity
  8
0
  6
CONTINUOUS
 62
     7
100
AcDbLine
 10
66.6778865755
 20
1.6392571431
 30
0.0
 11
66.6645013435
 21
1.4300496799
 31
0.0
  0
LINE
  5
183
330
1F
100
AcDbEntity
  8
0
  6
CONTINUOUS
 62
     7
100
AcDbLine
 10
66.6645013435
 20
1.4300496799
 30
0.0
 11
66.4987534982
 21
1.4300496799
 31
0.0
  0
ARC
  5
184
330
1F
100
AcDbEntity
  8
0
  6
CONTINUOUS
 62
     7
100
AcDbCircle
 10
66.4987511838
 20
1.4694197745
 30
0.0
 40
0.0393700787401574
100
AcDbArc
 50
180.0
 51
270.0
  0
LINE
  5
185
330
1F
100
AcDbEntity
  8
0
  6
CONTINUOUS
 62
     7
100
AcDbLine
 10
66.4593815797
 20
1.9320181744
 30
0.0
 11
66.4593815797
 21
1.4694198384
 31
0.0
  0
ARC
  5
186
330
1F
100
AcDbEntity
  8
0
  6
CONTINUOUS
 62
     7
100
AcDbCircle
 10
75.0026881917
 20
1.6563489084
 30
0.0
 40
0.4724409448818903
100
AcDbArc
 50
180.0
 51
270.0
  0
LINE
  5
187
330
1F
100
AcDbEntity
  8
0
  6
CONTINUOUS
 62
     7
100
AcDbLine
 10
79.6483594595
 20
1.1839079433
 30
0.0
 11
79.6483594595
 21
1.2635858162
 31
0.0
  0
ARC
  5
188
330
1F
100
AcDbEntity
  8
0
  6
CONTINUOUS
 62
     7
100
AcDbCircle
 10
72.0893023649
 20
1.6563489084
 30
0.0
 40
0.472440944881896
100
AcDbArc
 50
270.0
 51
0.0
  0
LINE
  5
189
330
1F
100
AcDbEntity
  8
0
  6
CONTINUOUS
 62
     7
100
AcDbLine
 10
75.0026889667
 20
1.1839079433
 30
0.0
 11
79.6483594595
 21
1.1839079433
 31
0.0
  0
LINE
  5
18A
330
1F
100
AcDbEntity
  8
0
  6
CONTINUOUS
 62
     7
100
AcDbLine
 10
67.4436326095
 20
1.1839079433
 30
0.0
 11
72.0893031024
 21
1.1839079433
 31
0.0
  0
LINE
  5
18B
330
1F
100
AcDbEntity
  8
0
  6
CONTINUOUS
 62
     7
100
AcDbLine
 10
67.4436326095
 20
1.2635858162
 30
0.0
 11
67.4436326095
 21
1.1839079433
 31
0.0
  0
ARC
  5
18C
330
1F
100
AcDbEntity
  8
0
  6
CONTINUOUS
 62
     7
100
AcDbCircle
 10
35.5854065444
 20
16.8989515819
 30
0.0
 40
0.2035433070866129
100
AcDbArc
 50
346.0551977852
 51
14.8879007739
  0
ARC
  5
18D
330
1F
100
AcDbEntity
  8
0
  6
CONTINUOUS
 62
     7
100
AcDbCircle
 10
35.8201654145
 20
16.9613630063
 30
0.0
 40
0.0393700787401565
100
AcDbArc
 50
170.0
 51
194.8879007739
  0
LINE
  5
18E
330
1F
100
AcDbEntity
  8
0
  6
CONTINUOUS
 62
     7
100
AcDbLine
 10
35.8666147766
 20
17.4515090653
 30
0.0
 11
35.7813942144
 21
16.9681998752
 31
0.0
  0
ARC
  5
18F
330
1F
100
AcDbEntity
  8
0
  6
CONTINUOUS
 62
     7
100
AcDbCircle
 10
35.9053869457
 20
17.4446722446
 30
0.0
 40
0.0393711348432817
100
AcDbArc
 50
145.11217169
 51
170.0
  0
ARC
  5
190
330
1F
100
AcDbEntity
  8
0
  6
CONTINUOUS
 62
     7
100
AcDbCircle
 10
35.70613069
 20
17.5836124141
 30
0.0
 40
0.2035433070866154
100
AcDbArc
 50
325.11217169
 51
152.399540952
  0
ARC
  5
191
330
1F
100
AcDbEntity
  8
0
  6
CONTINUOUS
 62
     7
100
AcDbCircle
 10
35.4908608798
 20
17.6961549474
 30
0.0
 40
0.0393700787401527
100
AcDbArc
 50
260.0000371503
 51
332.399540952
  0
LINE
  5
192
330
1F
100
AcDbEntity
  8
0
  6
CONTINUOUS
 62
     7
100
AcDbLine
 10
35.3272443675
 20
17.685027861
 30
0.0
 11
35.4840233563
 21
17.6573832737
 31
0.0
  0
ARC
  5
193
330
1F
100
AcDbEntity
  8
0
  6
CONTINUOUS
 62
     7
100
AcDbCircle
 10
35.3340811456
 20
17.7237993397
 30
0.0
 40
0.0393701072333363
100
AcDbArc
 50
187.6004745238
 51
260.0000371503
  0
ARC
  5
194
330
1F
100
AcDbEntity
  8
0
  6
CONTINUOUS
 62
     7
100
AcDbCircle
 10
35.0933018887
 20
17.691670498
 30
0.0
 40
0.2035432785934299
100
AcDbArc
 50
7.6004745238
 51
194.8878509098
  0
ARC
  5
195
330
1F
100
AcDbEntity
  8
0
  6
CONTINUOUS
 62
     7
100
AcDbCircle
 10
34.858543059
 20
17.6292593031
 30
0.0
 40
0.0393700376495614
100
AcDbArc
 50
350.0
 51
14.8878509098
  0
LINE
  5
196
330
1F
100
AcDbEntity
  8
0
  6
CONTINUOUS
 62
     7
100
AcDbLine
 10
34.8120936252
 20
17.1391126741
 30
0.0
 11
34.8973141874
 21
17.6224230375
 31
0.0
  0
ARC
  5
197
330
1F
100
AcDbEntity
  8
0
  6
CONTINUOUS
 62
     7
100
AcDbCircle
 10
34.773322487
 20
17.1459494224
 30
0.0
 40
0.0393700787401563
100
AcDbArc
 50
325.1121167212
 51
350.0
  0
ARC
  5
198
330
1F
100
AcDbEntity
  8
0
  6
CONTINUOUS
 62
     7
100
AcDbCircle
 10
34.972577743
 20
17.0070096658
 30
0.0
 40
0.2035433070866124
100
AcDbArc
 50
145.1121167212
 51
173.9447554429
  0
LINE
  5
199
330
1F
100
AcDbEntity
  8
0
  6
CONTINUOUS
 62
     7
100
AcDbLine
 10
34.7701709095
 20
17.0284803521
 30
0.0
 11
22.1350328184
 21
19.2563963751
 31
0.0
  0
ARC
  5
19A
330
1F
100
AcDbEntity
  8
0
  6
CONTINUOUS
 62
     7
100
AcDbCircle
 10
21.9374873532
 20
19.3054479658
 30
0.0
 40
0.2035433070866131
100
AcDbArc
 50
346.0551977852
 51
14.8879007739
  0
ARC
  5
19B
330
1F
100
AcDbEntity
  8
0
  6
CONTINUOUS
 62
     7
100
AcDbCircle
 10
22.1722462233
 20
19.3678593903
 30
0.0
 40
0.0393700787401547
100
AcDbArc
 50
170.0
 51
194.8879007739
  0
LINE
  5
19C
330
1F
100
AcDbEntity
  8
0
  6
CONTINUOUS
 62
     7
100
AcDbLine
 10
22.2186952119
 20
19.8580043586
 30
0.0
 11
22.1334746497
 21
19.3746963418
 31
0.0
  0
ARC
  5
19D
330
1F
100
AcDbEntity
  8
0
  6
CONTINUOUS
 62
     7
100
AcDbCircle
 10
22.2574677545
 20
19.8511686286
 30
0.0
 40
0.039371134843283
100
AcDbArc
 50
145.11217169
 51
170.0
  0
ARC
  5
19E
330
1F
100
AcDbEntity
  8
0
  6
CONTINUOUS
 62
     7
100
AcDbCircle
 10
22.0582114988
 20
19.9901087981
 30
0.0
 40
0.203543307086614
100
AcDbArc
 50
325.11217169
 51
152.399540952
  0
ARC
  5
19F
330
1F
100
AcDbEntity
  8
0
  6
CONTINUOUS
 62
     7
100
AcDbCircle
 10
21.8429416885
 20
20.1026513313
 30
0.0
 40
0.0393700787401591
100
AcDbArc
 50
260.0000371503
 51
332.399540952
  0
LINE
  5
1A0
330
1F
100
AcDbEntity
  8
0
  6
CONTINUOUS
 62
     7
100
AcDbLine
 10
21.6793248027
 20
20.0915231543
 30
0.0
 11
21.8361061382
 21
20.0638797403
 31
0.0
  0
ARC
  5
1A1
330
1F
100
AcDbEntity
  8
0
  6
CONTINUOUS
 62
     7
100
AcDbCircle
 10
21.6861619544
 20
20.1302957237
 30
0.0
 40
0.0393701072333393
100
AcDbArc
 50
187.6004745237
 51
260.0000371503
  0
ARC
  5
1A2
330
1F
100
AcDbEntity
  8
0
  6
CONTINUOUS
 62
     7
100
AcDbCircle
 10
21.4453826975
 20
20.098166882
 30
0.0
 40
0.2035432785934299
100
AcDbArc
 50
7.6004745238
 51
194.8878509098
  0
ARC
  5
1A3
330
1F
100
AcDbEntity
  8
0
  6
CONTINUOUS
 62
     7
100
AcDbCircle
 10
21.2106238678
 20
20.035755687
 30
0.0
 40
0.039370037649563
100
AcDbArc
 50
350.0
 51
14.8878509098
  0
LINE
  5
1A4
330
1F
100
AcDbEntity
  8
0
  6
CONTINUOUS
 62
     7
100
AcDbLine
 10
21.1641764071
 20
19.5456091407
 30
0.0
 11
21.2493946227
 21
20.0289195042
 31
0.0
  0
ARC
  5
1A5
330
1F
100
AcDbEntity
  8
0
  6
CONTINUOUS
 62
     7
100
AcDbCircle
 10
21.1254032958
 20
19.5524458063
 30
0.0
 40
0.0393700787401543
100
AcDbArc
 50
325.1121167212
 51
350.0
  0
ARC
  5
1A6
330
1F
100
AcDbEntity
  8
0
  6
CONTINUOUS
 62
     7
100
AcDbCircle
 10
21.3246585518
 20
19.4135060497
 30
0.0
 40
0.2035433070866139
100
AcDbArc
 50
145.1121167212
 51
173.9447554429
  0
LINE
  5
1A7
330
1F
100
AcDbEntity
  8
0
  6
CONTINUOUS
 62
     7
100
AcDbLine
 10
21.1222513448
 20
19.4349768188
 30
0.0
 11
19.5463890159
 21
19.7128447555
 31
0.0
  0
LINE
  5
1A8
330
1F
100
AcDbEntity
  8
0
  6
CONTINUOUS
 62
     7
100
AcDbLine
 10
19.5463890159
 20
20.7789665195
 30
0.0
 11
19.5463890159
 21
19.7128447555
 31
0.0
  0
ARC
  5
1A9
330
1F
100
AcDbEntity
  8
0
  6
CONTINUOUS
 62
     7
100
AcDbCircle
 10
19.7826094516
 20
20.7789666845
 30
0.0
 40
0.236220472440948
100
AcDbArc
 50
80.0
 51
180.0
  0
LINE
  5
1AA
330
1F
100
AcDbEntity
  8
0
  6
CONTINUOUS
 62
     7
100
AcDbLine
 10
36.6366199614
 20
18.0470146126
 30
0.0
 11
19.8236280532
 21
21.0115982855
 31
0.0
  0
ARC
  5
1AB
330
1F
100
AcDbEntity
  8
0
  6
CONTINUOUS
 62
     7
100
AcDbCircle
 10
36.5956015775
 20
17.8143825462
 30
0.0
 40
0.236220472440948
100
AcDbArc
 50
360.0
 51
80.0
  0
LINE
  5
1AC
330
1F
100
AcDbEntity
  8
0
  6
CONTINUOUS
 62
     7
100
AcDbLine
 10
36.8318228264
 20
16.6649565516
 30
0.0
 11
36.8318228264
 21
17.8143828467
 31
0.0
  0
LINE
  5
1AD
330
1F
100
AcDbEntity
  8
0
  6
CONTINUOUS
 62
     7
100
AcDbLine
 10
36.8318228264
 20
16.6649565516
 30
0.0
 11
35.7829500364
 21
16.8498999085
 31
0.0
  0
ARC
  5
1AE
330
1F
100
AcDbEntity
  8
0
  6
CONTINUOUS
 62
     7
100
AcDbCircle
 10
21.3246585499
 20
2.9497118588
 30
0.0
 40
0.2035432785934365
100
AcDbArc
 50
186.0551972321
 51
214.8878509098
  0
ARC
  5
1AF
330
1F
100
AcDbEntity
  8
0
  6
CONTINUOUS
 62
     7
100
AcDbCircle
 10
21.1254032958
 20
2.8107722709
 30
0.0
 40
0.0393700376495616
100
AcDbArc
 50
10.0
 51
34.8878509098
  0
LINE
  5
1B0
330
1F
100
AcDbEntity
  8
0
  6
CONTINUOUS
 62
     7
100
AcDbLine
 10
21.2493969693
 20
2.3342989273
 30
0.0
 11
21.1641740605
 21
2.817608704
 31
0.0
  0
ARC
  5
1B1
330
1F
100
AcDbEntity
  8
0
  6
CONTINUOUS
 62
     7
100
AcDbCircle
 10
21.2106238678
 20
2.3274623902
 30
0.0
 40
0.0393700787401597
100
AcDbArc
 50
345.1121167212
 51
10.0
  0
ARC
  5
1B2
330
1F
100
AcDbEntity
  8
0
  6
CONTINUOUS
 62
     7
100
AcDbCircle
 10
21.445382757
 20
2.2650510374
 30
0.0
 40
0.2035433070866109
100
AcDbArc
 50
165.1121167212
 51
352.399540952
  0
ARC
  5
1B3
330
1F
100
AcDbEntity
  8
0
  6
CONTINUOUS
 62
     7
100
AcDbCircle
 10
21.6861620226
 20
2.2329222608
 30
0.0
 40
0.0393700787401626
100
AcDbArc
 50
100.0000371503
 51
172.399540952
  0
LINE
  5
1B4
330
1F
100
AcDbEntity
  8
0
  6
CONTINUOUS
 62
     7
100
AcDbLine
 10
21.8361061382
 20
2.2993388378
 30
0.0
 11
21.6793248027
 21
2.2716942505
 31
0.0
  0
ARC
  5
1B5
330
1F
100
AcDbEntity
  8
0
  6
CONTINUOUS
 62
     7
100
AcDbCircle
 10
21.8429417209
 20
2.2605668564
 30
0.0
 40
0.0393700787401619
100
AcDbArc
 50
27.6004745237
 51
100.0000371503
  0
ARC
  5
1B6
330
1F
100
AcDbEntity
  8
0
  6
CONTINUOUS
 62
     7
100
AcDbCircle
 10
22.0582115008
 20
2.3731094478
 30
0.0
 40
0.2035433070866134
100
AcDbArc
 50
207.6004745238
 51
34.8879007739
  0
ARC
  5
1B7
330
1F
100
AcDbEntity
  8
0
  6
CONTINUOUS
 62
     7
100
AcDbCircle
 10
22.2574667144
 20
2.5120492652
 30
0.0
 40
0.0393700787401622
100
AcDbArc
 50
190.0
 51
214.8879007739
  0
LINE
  5
1B8
330
1F
100
AcDbEntity
  8
0
  6
CONTINUOUS
 62
     7
100
AcDbLine
 10
22.1334746497
 20
2.9885220896
 30
0.0
 11
22.2186952119
 21
2.5052127528
 31
0.0
  0
ARC
  5
1B9
330
1F
100
AcDbEntity
  8
0
  6
CONTINUOUS
 62
     7
100
AcDbCircle
 10
22.1722472634
 20
2.9953588703
 30
0.0
 40
0.0393711348432816
100
AcDbArc
 50
165.11217169
 51
190.0
  0
ARC
  5
1BA
330
1F
100
AcDbEntity
  8
0
  6
CONTINUOUS
 62
     7
100
AcDbCircle
 10
21.9374872936
 20
3.0577702692
 30
0.0
 40
0.2035433070866155
100
AcDbArc
 50
345.11217169
 51
13.9447554429
  0
LINE
  5
1BB
330
1F
100
AcDbEntity
  8
0
  6
CONTINUOUS
 62
     7
100
AcDbLine
 10
22.1350328184
 20
3.1068214697
 30
0.0
 11
34.7701709095
 21
5.3347371993
 31
0.0
  0
ARC
  5
1BC
330
1F
100
AcDbEntity
  8
0
  6
CONTINUOUS
 62
     7
100
AcDbCircle
 10
34.9725777411
 20
5.3562082427
 30
0.0
 40
0.2035432785934333
100
AcDbArc
 50
186.0551972321
 51
214.8878509098
  0
ARC
  5
1BD
330
1F
100
AcDbEntity
  8
0
  6
CONTINUOUS
 62
     7
100
AcDbCircle
 10
34.773322487
 20
5.2172686548
 30
0.0
 40
0.0393700376495619
100
AcDbArc
 50
10.0
 51
34.8878509098
  0
LINE
  5
1BE
330
1F
100
AcDbEntity
  8
0
  6
CONTINUOUS
 62
     7
100
AcDbLine
 10
34.8973141874
 20
4.7407953939
 30
0.0
 11
34.8120936252
 21
5.224105464
 31
0.0
  0
ARC
  5
1BF
330
1F
100
AcDbEntity
  8
0
  6
CONTINUOUS
 62
     7
100
AcDbCircle
 10
34.858543059
 20
4.7339587741
 30
0.0
 40
0.0393700787401528
100
AcDbArc
 50
345.1121167212
 51
10.0
  0
ARC
  5
1C0
330
1F
100
AcDbEntity
  8
0
  6
CONTINUOUS
 62
     7
100
AcDbCircle
 10
35.0933019482
 20
4.6715474213
 30
0.0
 40
0.2035433070866146
100
AcDbArc
 50
165.1121167212
 51
352.399540952
  0
ARC
  5
1C1
330
1F
100
AcDbEntity
  8
0
  6
CONTINUOUS
 62
     7
100
AcDbCircle
 10
35.3340812138
 20
4.6394186447
 30
0.0
 40
0.0393700787401626
100
AcDbArc
 50
100.0000371503
 51
172.399540952
  0
LINE
  5
1C2
330
1F
100
AcDbEntity
  8
0
  6
CONTINUOUS
 62
     7
100
AcDbLine
 10
35.4840233563
 20
4.7058351577
 30
0.0
 11
35.3272443675
 21
4.6781905704
 31
0.0
  0
ARC
  5
1C3
330
1F
100
AcDbEntity
  8
0
  6
CONTINUOUS
 62
     7
100
AcDbCircle
 10
35.4908609121
 20
4.6670632404
 30
0.0
 40
0.0393700787401587
100
AcDbArc
 50
27.6004745237
 51
100.0000371503
  0
ARC
  5
1C4
330
1F
100
AcDbEntity
  8
0
  6
CONTINUOUS
 62
     7
100
AcDbCircle
 10
35.706130692
 20
4.7796058318
 30
0.0
 40
0.2035433070866153
100
AcDbArc
 50
207.6004745238
 51
34.8879007739
  0
ARC
  5
1C5
330
1F
100
AcDbEntity
  8
0
  6
CONTINUOUS
 62
     7
100
AcDbCircle
 10
35.9053859056
 20
4.9185456492
 30
0.0
 40
0.0393700787401554
100
AcDbArc
 50
190.0
 51
214.8879007739
  0
LINE
  5
1C6
330
1F
100
AcDbEntity
  8
0
  6
CONTINUOUS
 62
     7
100
AcDbLine
 10
35.7813942144
 20
5.3950182629
 30
0.0
 11
35.8666147766
 21
4.9117090728
 31
0.0
  0
ARC
  5
1C7
330
1F
100
AcDbEntity
  8
0
  6
CONTINUOUS
 62
     7
100
AcDbCircle
 10
35.8201664546
 20
5.4018552543
 30
0.0
 40
0.0393711348432809
100
AcDbArc
 50
165.11217169
 51
190.0
  0
ARC
  5
1C8
330
1F
100
AcDbEntity
  8
0
  6
CONTINUOUS
 62
     7
100
AcDbCircle
 10
35.5854064849
 20
5.4642666531
 30
0.0
 40
0.2035433070866209
100
AcDbArc
 50
345.11217169
 51
13.9447554429
  0
LINE
  5
1C9
330
1F
100
AcDbEntity
  8
0
  6
CONTINUOUS
 62
     7
100
AcDbLine
 10
35.7829500364
 20
5.513317643
 30
0.0
 11
36.8318228264
 21
5.6982621731
 31
0.0
  0
LINE
  5
1CA
330
1F
100
AcDbEntity
  8
0
  6
CONTINUOUS
 62
     7
100
AcDbLine
 10
36.8318228264
 20
4.5488355847
 30
0.0
 11
36.8318228264
 21
5.6982621731
 31
0.0
  0
ARC
  5
1CB
330
1F
100
AcDbEntity
  8
0
  6
CONTINUOUS
 62
     7
100
AcDbCircle
 10
36.5956015775
 20
4.548835531
 30
0.0
 40
0.236220472440948
100
AcDbArc
 50
280.0
 51
0.0
  0
LINE
  5
1CC
330
1F
100
AcDbEntity
  8
0
  6
CONTINUOUS
 62
     7
100
AcDbLine
 10
19.8236280532
 20
1.3516196326
 30
0.0
 11
36.6366199614
 21
4.3162038188
 31
0.0
  0
ARC
  5
1CD
330
1F
100
AcDbEntity
  8
0
  6
CONTINUOUS
 62
     7
100
AcDbCircle
 10
19.7826094516
 20
1.5842513927
 30
0.0
 40
0.236220472440948
100
AcDbArc
 50
180.0
 51
280.0
  0
LINE
  5
1CE
330
1F
100
AcDbEntity
  8
0
  6
CONTINUOUS
 62
     7
100
AcDbLine
 10
19.5463890159
 20
2.6503736759
 30
0.0
 11
19.5463890159
 21
1.5842513252
 31
0.0
  0
LINE
  5
1CF
330
1F
100
AcDbEntity
  8
0
  6
CONTINUOUS
 62
     7
100
AcDbLine
 10
19.5463890159
 20
2.6503736759
 30
0.0
 11
21.1222513448
 21
2.9282407327
 31
0.0
  0
LINE
  5
1D0
330
1F
100
AcDbEntity
  8
0
  6
CONTINUOUS
 62
     7
100
AcDbLine
 10
36.6366199614
 20
14.8285691257
 30
0.0
 11
36.2396225209
 21
14.7585676944
 31
0.0
  0
ARC
  5
1D1
330
1F
100
AcDbEntity
  8
0
  6
CONTINUOUS
 62
     7
100
AcDbCircle
 10
36.2806409476
 20
14.5259361047
 30
0.0
 40
0.236220472440948
100
AcDbArc
 50
100.0
 51
180.0
  0
LINE
  5
1D2
330
1F
100
AcDbEntity
  8
0
  6
CONTINUOUS
 62
     7
100
AcDbLine
 10
36.0444196559
 20
14.5259359284
 30
0.0
 11
36.0444196559
 21
7.8372822097
 31
0.0
  0
ARC
  5
1D3
330
1F
100
AcDbEntity
  8
0
  6
CONTINUOUS
 62
     7
100
AcDbCircle
 10
36.2806409476
 20
7.8372819725
 30
0.0
 40
0.236220472440948
100
AcDbArc
 50
180.0
 51
260.0
  0
LINE
  5
1D4
330
1F
100
AcDbEntity
  8
0
  6
CONTINUOUS
 62
     7
100
AcDbLine
 10
36.2396225209
 20
7.6046504437
 30
0.0
 11
36.6366199614
 21
7.5346484257
 31
0.0
  0
ARC
  5
1D5
330
1F
100
AcDbEntity
  8
0
  6
CONTINUOUS
 62
     7
100
AcDbCircle
 10
36.5956015775
 20
7.3020168076
 30
0.0
 40
0.236220472440948
100
AcDbArc
 50
0.0
 51
80.0
  0
LINE
  5
1D6
330
1F
100
AcDbEntity
  8
0
  6
CONTINUOUS
 62
     7
100
AcDbLine
 10
36.8318228264
 20
6.4870164214
 30
0.0
 11
35.257018832
 21
6.2093362158
 31
0.0
  0
LINE
  5
1D7
330
1F
100
AcDbEntity
  8
0
  6
CONTINUOUS
 62
     7
100
AcDbLine
 10
35.257018832
 20
6.2093362158
 30
0.0
 11
35.257018832
 21
16.1538819222
 31
0.0
  0
LINE
  5
1D8
330
1F
100
AcDbEntity
  8
0
  6
CONTINUOUS
 62
     7
100
AcDbLine
 10
35.257018832
 20
16.1538819222
 30
0.0
 11
36.8318228264
 21
15.8762017167
 31
0.0
  0
LINE
  5
1D9
330
1F
100
AcDbEntity
  8
0
  6
CONTINUOUS
 62
     7
100
AcDbLine
 10
36.8318228264
 20
6.4870164214
 30
0.0
 11
36.8318228264
 21
7.3020166598
 31
0.0
  0
ARC
  5
1DA
330
1F
100
AcDbEntity
  8
0
  6
CONTINUOUS
 62
     7
100
AcDbCircle
 10
36.5956015775
 20
15.0612012696
 30
0.0
 40
0.236220472440948
100
AcDbArc
 50
280.0
 51
360.0
  0
LINE
  5
1DB
330
1F
100
AcDbEntity
  8
0
  6
CONTINUOUS
 62
     7
100
AcDbLine
 10
36.8318228264
 20
15.0612008917
 30
0.0
 11
36.8318228264
 21
15.8762017167
 31
0.0
  0
LINE
  5
1DC
330
1F
100
AcDbEntity
  8
0
  6
CONTINUOUS
 62
     7
100
AcDbLine
 10
19.5463890159
 20
18.9240899206
 30
0.0
 11
19.5463890159
 21
3.4391285108
 31
0.0
  0
LINE
  5
1DD
330
1F
100
AcDbEntity
  8
0
  6
CONTINUOUS
 62
     7
100
AcDbLine
 10
34.4936335174
 20
16.2884875139
 30
0.0
 11
34.4936335174
 21
6.0747306241
 31
0.0
  0
LINE
  5
1DE
330
1F
100
AcDbEntity
  8
0
  6
CONTINUOUS
 62
     7
100
AcDbLine
 10
34.4936335174
 20
6.0747306241
 30
0.0
 11
19.5463890159
 21
3.4391285108
 31
0.0
  0
LINE
  5
1DF
330
1F
100
AcDbEntity
  8
0
  6
CONTINUOUS
 62
     7
100
AcDbLine
 10
19.5463890159
 20
18.9240899206
 30
0.0
 11
34.4936335174
 21
16.2884875139
 31
0.0
  0
ARC
  5
1E0
330
1F
100
AcDbEntity
  8
0
  6
CONTINUOUS
 62
     7
100
AcDbCircle
 10
35.3446272193
 20
5.4963954298
 30
0.0
 40
0.0393700787401589
100
AcDbArc
 50
280.0000371503
 51
352.399540952
  0
LINE
  5
1E1
330
1F
100
AcDbEntity
  8
0
  6
CONTINUOUS
 62
     7
100
AcDbLine
 10
35.3514640343
 20
5.457623673
 30
0.0
 11
35.1946850455
 21
5.4299790857
 31
0.0
  0
ARC
  5
1E2
330
1F
100
AcDbEntity
  8
0
  6
CONTINUOUS
 62
     7
100
AcDbCircle
 10
35.187847521
 20
5.4687508341
 30
0.0
 40
0.0393700787401663
100
AcDbArc
 50
207.6004745237
 51
280.0000371503
  0
ARC
  5
1E3
330
1F
100
AcDbEntity
  8
0
  6
CONTINUOUS
 62
     7
100
AcDbCircle
 10
21.6967080281
 20
3.0898990459
 30
0.0
 40
0.0393700787401591
100
AcDbArc
 50
280.0000371503
 51
352.399540952
  0
LINE
  5
1E4
330
1F
100
AcDbEntity
  8
0
  6
CONTINUOUS
 62
     7
100
AcDbLine
 10
21.7035444696
 20
3.0511272064
 30
0.0
 11
21.5467654807
 21
3.0234826191
 31
0.0
  0
ARC
  5
1E5
330
1F
100
AcDbEntity
  8
0
  6
CONTINUOUS
 62
     7
100
AcDbCircle
 10
21.5399283298
 20
3.0622544502
 30
0.0
 40
0.0393700787401558
100
AcDbArc
 50
207.6004745238
 51
280.0000371503
  0
ARC
  5
1E6
330
1F
100
AcDbEntity
  8
0
  6
CONTINUOUS
 62
     7
100
AcDbCircle
 10
21.5399283621
 20
19.3009635165
 30
0.0
 40
0.0393700787401605
100
AcDbArc
 50
80.0000371503
 51
152.399540952
  0
LINE
  5
1E7
330
1F
100
AcDbEntity
  8
0
  6
CONTINUOUS
 62
     7
100
AcDbLine
 10
21.5467654807
 20
19.3397349323
 30
0.0
 11
21.7035444696
 21
19.3120915183
 31
0.0
  0
ARC
  5
1E8
330
1F
100
AcDbEntity
  8
0
  6
CONTINUOUS
 62
     7
100
AcDbCircle
 10
21.6967080963
 20
19.2733191241
 30
0.0
 40
0.0393700787401591
100
AcDbArc
 50
7.6004745238
 51
80.0000371503
  0
ARC
  5
1E9
330
1F
100
AcDbEntity
  8
0
  6
CONTINUOUS
 62
     7
100
AcDbCircle
 10
35.1878475533
 20
16.8944671325
 30
0.0
 40
0.0393700787401605
100
AcDbArc
 50
80.0000371503
 51
152.399540952
  0
LINE
  5
1EA
330
1F
100
AcDbEntity
  8
0
  6
CONTINUOUS
 62
     7
100
AcDbLine
 10
35.1946850455
 20
16.933239639
 30
0.0
 11
35.3514640343
 21
16.9055950517
 31
0.0
  0
ARC
  5
1EB
330
1F
100
AcDbEntity
  8
0
  6
CONTINUOUS
 62
     7
100
AcDbCircle
 10
35.3446272875
 20
16.8668227402
 30
0.0
 40
0.0393700787401556
100
AcDbArc
 50
7.6004745237
 51
80.0000371503
  0
LINE
  5
1EC
330
1F
100
AcDbEntity
  8
0
  6
CONTINUOUS
 62
     7
100
AcDbLine
 10
19.5463890159
 20
18.9240899206
 30
0.0
 11
19.5463890159
 21
19.7128447555
 31
0.0
  0
LINE
  5
1ED
330
1F
100
AcDbEntity
  8
0
  6
CONTINUOUS
 62
     7
100
AcDbLine
 10
19.5463890159
 20
2.6503736759
 30
0.0
 11
19.5463890159
 21
3.4391285108
 31
0.0
  0
ARC
  5
1EE
330
1F
100
AcDbEntity
  8
0
  6
CONTINUOUS
 62
     7
100
AcDbCircle
 10
34.9725777411
 20
5.3562082427
 30
0.0
 40
0.2035433070866081
100
AcDbArc
 50
27.6004745238
 51
186.0551972321
  0
ARC
  5
1EF
330
1F
100
AcDbEntity
  8
0
  6
CONTINUOUS
 62
     7
100
AcDbCircle
 10
34.972577743
 20
17.0070096658
 30
0.0
 40
0.2035433070866154
100
AcDbArc
 50
173.9447554429
 51
332.399540952
  0
ARC
  5
1F0
330
1F
100
AcDbEntity
  8
0
  6
CONTINUOUS
 62
     7
100
AcDbCircle
 10
35.5854065444
 20
16.8989515819
 30
0.0
 40
0.2035433070866167
100
AcDbArc
 50
187.6004745238
 51
346.0551977852
  0
ARC
  5
1F1
330
1F
100
AcDbEntity
  8
0
  6
CONTINUOUS
 62
     7
100
AcDbCircle
 10
35.5854064849
 20
5.4642666531
 30
0.0
 40
0.2035433070866146
100
AcDbArc
 50
13.9447554429
 51
172.399540952
  0
LINE
  5
1F2
330
1F
100
AcDbEntity
  8
0
  6
CONTINUOUS
 62
     7
100
AcDbLine
 10
36.8318228264
 20
6.4870164214
 30
0.0
 11
36.8318228264
 21
5.6982621731
 31
0.0
  0
LINE
  5
1F3
330
1F
100
AcDbEntity
  8
0
  6
CONTINUOUS
 62
     7
100
AcDbLine
 10
36.8318228264
 20
16.6649565516
 30
0.0
 11
36.8318228264
 21
15.8762017167
 31
0.0
  0
ARC
  5
1F4
330
1F
100
AcDbEntity
  8
0
  6
CONTINUOUS
 62
     7
100
AcDbCircle
 10
21.9374872936
 20
3.0577702692
 30
0.0
 40
0.2035433070866155
100
AcDbArc
 50
13.9447554429
 51
172.399540952
  0
ARC
  5
1F5
330
1F
100
AcDbEntity
  8
0
  6
CONTINUOUS
 62
     7
100
AcDbCircle
 10
21.9374873532
 20
19.3054479658
 30
0.0
 40
0.2035433070866202
100
AcDbArc
 50
187.6004745238
 51
346.0551977852
  0
ARC
  5
1F6
330
1F
100
AcDbEntity
  8
0
  6
CONTINUOUS
 62
     7
100
AcDbCircle
 10
21.3246585518
 20
19.4135060497
 30
0.0
 40
0.2035433070866121
100
AcDbArc
 50
173.9447554429
 51
332.399540952
  0
ARC
  5
1F7
330
1F
100
AcDbEntity
  8
0
  6
CONTINUOUS
 62
     7
100
AcDbCircle
 10
21.3246585499
 20
2.9497118588
 30
0.0
 40
0.2035433070866142
100
AcDbArc
 50
27.6004745238
 51
186.0551972321
  0
LINE
  5
1F8
330
1F
100
AcDbEntity
  8
0
  6
CONTINUOUS
 62
     7
100
AcDbLine
 10
52.2652863511
 20
21.3099735053
 30
0.0
 11
52.2652863511
 21
19.8431219705
 31
0.0
  0
LINE
  5
1F9
330
1F
100
AcDbEntity
  8
0
  6
CONTINUOUS
 62
     7
100
AcDbLine
 10
52.2652863511
 20
21.3099735053
 30
0.0
 11
65.2200132836
 21
21.3099735053
 31
0.0
  0
LINE
  5
1FA
330
1F
100
AcDbEntity
  8
0
  6
CONTINUOUS
 62
     7
100
AcDbLine
 10
52.2652863511
 20
19.8431219705
 30
0.0
 11
65.2200132836
 21
19.8431219705
 31
0.0
  0
LINE
  5
1FB
330
1F
100
AcDbEntity
  8
0
  6
CONTINUOUS
 62
     7
100
AcDbLine
 10
65.2200132836
 20
19.8431219705
 30
0.0
 11
65.2200132836
 21
21.3099735053
 31
0.0
  0
LINE
  5
1FC
330
1F
100
AcDbEntity
  8
0
  6
CONTINUOUS
 62
     7
100
AcDbLine
 10
65.2200132836
 20
37.262964255
 30
0.0
 11
52.2652863511
 21
37.262964255
 31
0.0
  0
LINE
  5
1FD
330
1F
100
AcDbEntity
  8
0
  6
CONTINUOUS
 62
     7
100
AcDbLine
 10
65.2200132836
 20
22.0782351369
 30
0.0
 11
52.2652863511
 21
22.0782351369
 31
0.0
  0
LINE
  5
1FE
330
1F
100
AcDbEntity
  8
0
  6
CONTINUOUS
 62
     7
100
AcDbLine
 10
52.2652863511
 20
37.262964255
 30
0.0
 11
52.2652863511
 21
22.0782351369
 31
0.0
  0
LINE
  5
1FF
330
1F
100
AcDbEntity
  8
0
  6
CONTINUOUS
 62
     7
100
AcDbLine
 10
65.2200132836
 20
22.0782351369
 30
0.0
 11
65.2200132836
 21
37.262964255
 31
0.0
  0
LINE
  5
200
330
1F
100
AcDbEntity
  8
0
  6
CONTINUOUS
 62
     7
100
AcDbLine
 10
52.2652863511
 20
21.3099735053
 30
0.0
 11
52.2652863511
 21
22.0782351369
 31
0.0
  0
LINE
  5
201
330
1F
100
AcDbEntity
  8
0
  6
CONTINUOUS
 62
     7
100
AcDbLine
 10
65.2200132836
 20
22.0782351369
 30
0.0
 11
65.2200132836
 21
21.3099735053
 31
0.0
  0
LINE
  5
202
330
1F
100
AcDbEntity
  8
0
  6
CONTINUOUS
 62
     7
100
AcDbLine
 10
52.2652863511
 20
1.1839079433
 30
0.0
 11
65.2200132836
 21
1.1839079433
 31
0.0
  0
LINE
  5
203
330
1F
100
AcDbEntity
  8
0
  6
CONTINUOUS
 62
     7
100
AcDbLine
 10
52.2652863511
 20
2.6507596981
 30
0.0
 11
52.2652863511
 21
1.1839079433
 31
0.0
  0
LINE
  5
204
330
1F
100
AcDbEntity
  8
0
  6
CONTINUOUS
 62
     7
100
AcDbLine
 10
65.2200132836
 20
2.6507596981
 30
0.0
 11
52.2652863511
 21
2.6507596981
 31
0.0
  0
LINE
  5
205
330
1F
100
AcDbEntity
  8
0
  6
CONTINUOUS
 62
     7
100
AcDbLine
 10
65.2200132836
 20
1.1839079433
 30
0.0
 11
65.2200132836
 21
2.6507596981
 31
0.0
  0
LINE
  5
206
330
1F
100
AcDbEntity
  8
0
  6
CONTINUOUS
 62
     7
100
AcDbLine
 10
65.2200132836
 20
18.6037513278
 30
0.0
 11
52.2652863511
 21
18.6037513278
 31
0.0
  0
LINE
  5
207
330
1F
100
AcDbEntity
  8
0
  6
CONTINUOUS
 62
     7
100
AcDbLine
 10
52.2652863511
 20
3.4190225031
 30
0.0
 11
65.2200132836
 21
3.4190225031
 31
0.0
  0
LINE
  5
208
330
1F
100
AcDbEntity
  8
0
  6
CONTINUOUS
 62
     7
100
AcDbLine
 10
52.2652863511
 20
18.6037513278
 30
0.0
 11
52.2652863511
 21
3.4190225031
 31
0.0
  0
LINE
  5
209
330
1F
100
AcDbEntity
  8
0
  6
CONTINUOUS
 62
     7
100
AcDbLine
 10
65.2200132836
 20
3.4190225031
 30
0.0
 11
65.2200132836
 21
18.6037513278
 31
0.0
  0
LINE
  5
20A
330
1F
100
AcDbEntity
  8
0
  6
CONTINUOUS
 62
     7
100
AcDbLine
 10
52.2652863511
 20
2.6507596981
 30
0.0
 11
52.2652863511
 21
3.4190225031
 31
0.0
  0
LINE
  5
20B
330
1F
100
AcDbEntity
  8
0
  6
CONTINUOUS
 62
     7
100
AcDbLine
 10
65.2200132836
 20
3.4190225031
 30
0.0
 11
65.2200132836
 21
2.6507596981
 31
0.0
  0
LINE
  5
20C
330
1F
100
AcDbEntity
  8
0
  6
CONTINUOUS
 62
     7
100
AcDbLine
 10
38.0711911225
 20
1.1839079433
 30
0.0
 11
51.025918055
 21
1.1839079433
 31
0.0
  0
LINE
  5
20D
330
1F
100
AcDbEntity
  8
0
  6
CONTINUOUS
 62
     7
100
AcDbLine
 10
51.025918055
 20
12.1701280496
 30
0.0
 11
38.0711911225
 21
12.1701280496
 31
0.0
  0
LINE
  5
20E
330
1F
100
AcDbEntity
  8
0
  6
CONTINUOUS
 62
     7
100
AcDbLine
 10
38.0711911225
 20
12.1701280496
 30
0.0
 11
38.0711911225
 21
1.1839079433
 31
0.0
  0
LINE
  5
20F
330
1F
100
AcDbEntity
  8
0
  6
CONTINUOUS
 62
     7
100
AcDbLine
 10
51.025918055
 20
1.1839079433
 30
0.0
 11
51.025918055
 21
12.1701280496
 31
0.0
  0
LINE
  5
210
330
1F
100
AcDbEntity
  8
POCKETS
100
AcDbLine
 10
65.6137118138
 20
3.4190226268
 30
0.0
 11
51.8715858295
 21
3.4190226268
 31
0.0
  0
LINE
  5
211
330
1F
100
AcDbEntity
  8
POCKETS
100
AcDbLine
 10
51.8715858295
 20
3.4190226268
 30
0.0
 11
51.8715858295
 21
2.6507597545
 31
0.0
  0
LINE
  5
212
330
1F
100
AcDbEntity
  8
POCKETS
100
AcDbLine
 10
51.8715858295
 20
2.6507597545
 30
0.0
 11
65.6137118138
 21
2.6507597545
 31
0.0
  0
LINE
  5
213
330
1F
100
AcDbEntity
  8
PROFILES_OUTSIDE
100
AcDbLine
 10
18.3070189004
 20
15.0612012696
 30
0.0
 11
18.3070189004
 21
18.0125950575
 31
0.0
  0
LINE
  5
214
330
1F
100
AcDbEntity
  8
PROFILES_OUTSIDE
100
AcDbLine
 10
18.3070189004
 20
18.0125950575
 30
0.0
 11
1.0215858295
 21
21.0604832811
 31
0.0
  0
LINE
  5
215
330
1F
100
AcDbEntity
  8
PROFILES_OUTSIDE
100
AcDbLine
 10
1.0215858295
 20
21.0604832811
 30
0.0
 11
1.0215858295
 21
1.3027347961
 31
0.0
  0
LINE
  5
216
330
1F
100
AcDbEntity
  8
PROFILES_OUTSIDE
100
AcDbLine
 10
1.0215858295
 20
1.3027347961
 30
0.0
 11
18.3070189004
 21
4.3506230197
 31
0.0
  0
LINE
  5
217
330
1F
100
AcDbEntity
  8
POCKETS
100
AcDbLine
 10
65.6137118138
 20
2.6507597545
 30
0.0
 11
65.6137118138
 21
3.4190226268
 31
0.0
  0
LINE
  5
218
330
1F
100
AcDbEntity
  8
PROFILES_OUTSIDE
100
AcDbLine
 10
18.3070189004
 20
4.3506230197
 30
0.0
 11
18.3070189004
 21
7.3020168076
 31
0.0
  0
LINE
  5
219
330
1F
100
AcDbEntity
  8
PROFILES_OUTSIDE
100
AcDbLine
 10
18.1118176825
 20
7.5346485603
 30
0.0
 11
17.7148185435
 21
7.6046502198
 31
0.0
  0
LINE
  5
21A
330
1F
100
AcDbEntity
  8
PROFILES_OUTSIDE
100
AcDbLine
 10
17.5196173256
 20
7.8372819725
 30
0.0
 11
17.5196173256
 21
14.5259361047
 31
0.0
  0
LINE
  5
21B
330
1F
100
AcDbEntity
  8
PROFILES_OUTSIDE
100
AcDbLine
 10
17.7148185435
 20
14.7585678574
 30
0.0
 11
18.1118176825
 21
14.8285695169
 31
0.0
  0
LINE
  5
21C
330
1F
100
AcDbEntity
  8
PROFILES_INSIDE
100
AcDbLine
 10
17.2565903061
 20
16.9681995488
 30
0.0
 11
17.3418107972
 21
17.4515089705
 31
0.0
  0
LINE
  5
21D
330
1F
100
AcDbEntity
  8
PROFILES_INSIDE
100
AcDbLine
 10
16.669880921
 20
16.9332390958
 30
0.0
 11
16.8266606552
 21
16.9055947034
 31
0.0
  0
LINE
  5
21E
330
1F
100
AcDbEntity
  8
PROFILES_INSIDE
100
AcDbLine
 10
16.3725118277
 20
17.6224227678
 30
0.0
 11
16.2872912962
 21
17.1391128799
 31
0.0
  0
LINE
  5
21F
330
1F
100
AcDbEntity
  8
PROFILES_INSIDE
100
AcDbLine
 10
16.9592212129
 20
17.6573829842
 30
0.0
 11
16.8024414719
 21
17.6850273379
 31
0.0
  0
LINE
  5
220
330
1F
100
AcDbEntity
  8
PROFILES_OUTSIDE
100
AcDbLine
 10
51.0259165382
 20
1.1839079635
 30
0.0
 11
51.0259165382
 21
12.1701284359
 31
0.0
  0
LINE
  5
221
330
1F
100
AcDbEntity
  8
PROFILES_OUTSIDE
100
AcDbLine
 10
51.0259165382
 20
12.1701284359
 30
0.0
 11
38.0711921287
 21
12.1701284359
 31
0.0
  0
LINE
  5
222
330
1F
100
AcDbEntity
  8
PROFILES_OUTSIDE
100
AcDbLine
 10
38.0711921287
 20
12.1701284359
 30
0.0
 11
38.0711921287
 21
1.1839079635
 31
0.0
  0
LINE
  5
223
330
1F
100
AcDbEntity
  8
PROFILES_OUTSIDE
100
AcDbLine
 10
38.0711921287
 20
1.1839079635
 30
0.0
 11
51.0259165382
 21
1.1839079635
 31
0.0
  0
LINE
  5
224
330
1F
100
AcDbEntity
  8
PROFILES_OUTSIDE
100
AcDbLine
 10
65.2200110264
 20
18.6037514661
 30
0.0
 11
52.2652866169
 21
18.6037514661
 31
0.0
  0
LINE
  5
225
330
1F
100
AcDbEntity
  8
PROFILES_OUTSIDE
100
AcDbLine
 10
52.2652866169
 20
18.6037514661
 30
0.0
 11
52.2652866169
 21
1.1839079635
 31
0.0
  0
LINE
  5
226
330
1F
100
AcDbEntity
  8
PROFILES_OUTSIDE
100
AcDbLine
 10
52.2652866169
 20
1.1839079635
 30
0.0
 11
65.2200110264
 21
1.1839079635
 31
0.0
  0
LINE
  5
227
330
1F
100
AcDbEntity
  8
PROFILES_OUTSIDE
100
AcDbLine
 10
65.2200110264
 20
1.1839079635
 30
0.0
 11
65.2200110264
 21
18.6037514661
 31
0.0
  0
LINE
  5
228
330
1F
100
AcDbEntity
  8
PROFILES_OUTSIDE
100
AcDbLine
 10
52.2652866169
 20
37.2629650474
 30
0.0
 11
52.2652866169
 21
19.8431215448
 31
0.0
  0
LINE
  5
229
330
1F
100
AcDbEntity
  8
PROFILES_OUTSIDE
100
AcDbLine
 10
52.2652866169
 20
19.8431215448
 30
0.0
 11
65.2200110264
 21
19.8431215448
 31
0.0
  0
LINE
  5
22A
330
1F
100
AcDbEntity
  8
BOX_STOCK
100
AcDbLine
 10
0.0082000027
 20
0.1705221367
 30
0.0
 11
96.0711921287
 21
0.1705221367
 31
0.0
  0
LINE
  5
22B
330
1F
100
AcDbEntity
  8
BOX_STOCK
100
AcDbLine
 10
96.0711921287
 20
0.1705221367
 30
0.0
 11
96.0711921287
 21
48.2020181997
 31
0.0
  0
LINE
  5
22C
330
1F
100
AcDbEntity
  8
BOX_STOCK
100
AcDbLine
 10
96.0711921287
 20
48.2020181997
 30
0.0
 11
0.0082000027
 21
48.2020181997
 31
0.0
  0
LINE
  5
22D
330
1F
100
AcDbEntity
  8
BOX_STOCK
100
AcDbLine
 10
0.0082000027
 20
48.2020181997
 30
0.0
 11
0.0082000027
 21
0.1705221367
 31
0.0
  0
LINE
  5
22E
330
1F
100
AcDbEntity
  8
POCKETS
100
AcDbLine
 10
65.6137118138
 20
22.0782362082
 30
0.0
 11
51.8715858295
 21
22.0782362082
 31
0.0
  0
LINE
  5
22F
330
1F
100
AcDbEntity
  8
PROFILES_OUTSIDE
100
AcDbLine
 10
65.2200110264
 20
19.8431215448
 30
0.0
 11
65.2200110264
 21
37.2629650474
 31
0.0
  0
LINE
  5
230
330
1F
100
AcDbEntity
  8
POCKETS
100
AcDbLine
 10
51.8715858295
 20
22.0782362082
 30
0.0
 11
51.8715858295
 21
21.3099733359
 31
0.0
  0
LINE
  5
231
330
1F
100
AcDbEntity
  8
POCKETS
100
AcDbLine
 10
51.8715858295
 20
21.3099733359
 30
0.0
 11
65.6137118138
 21
21.3099733359
 31
0.0
  0
LINE
  5
232
330
1F
100
AcDbEntity
  8
POCKETS
100
AcDbLine
 10
65.6137118138
 20
21.3099733359
 30
0.0
 11
65.6137118138
 21
22.0782362082
 31
0.0
  0
LINE
  5
233
330
1F
100
AcDbEntity
  8
PROFILES_OUTSIDE
100
AcDbLine
 10
65.2200110264
 20
37.2629650474
 30
0.0
 11
52.2652866169
 21
37.2629650474
 31
0.0
  0
LINE
  5
234
330
1F
100
AcDbEntity
  8
PROFILES_INSIDE
100
AcDbLine
 10
3.6030646897
 20
19.3756844967
 30
0.0
 11
3.6882851808
 21
19.8589939184
 31
0.0
  0
LINE
  5
235
330
1F
100
AcDbEntity
  8
PROFILES_INSIDE
100
AcDbLine
 10
3.3056955964
 20
20.0648679321
 30
0.0
 11
3.1489158598
 21
20.0925123104
 31
0.0
  0
LINE
  5
236
330
1F
100
AcDbEntity
  8
PROFILES_INSIDE
100
AcDbLine
 10
2.7189862078
 20
20.0299077164
 30
0.0
 11
2.6337656797
 21
19.5465978279
 31
0.0
  0
LINE
  5
237
330
1F
100
AcDbEntity
  8
PROFILES_INSIDE
100
AcDbLine
 10
3.0163553046
 20
19.3407240437
 30
0.0
 11
3.1731350387
 21
19.3130796514
 31
0.0
  0
LINE
  5
238
330
1F
100
AcDbEntity
  8
PROFILES_INSIDE
100
AcDbLine
 10
17.3418107972
 20
4.9117091067
 30
0.0
 11
17.2565903061
 21
5.3950185284
 31
0.0
  0
LINE
  5
239
330
1F
100
AcDbEntity
  8
PROFILES_INSIDE
100
AcDbLine
 10
16.8266606373
 20
5.4576234754
 30
0.0
 11
16.6698809396
 21
5.4299788763
 31
0.0
  0
LINE
  5
23A
330
1F
100
AcDbEntity
  8
PROFILES_INSIDE
100
AcDbLine
 10
16.2872912487
 20
5.2241051889
 30
0.0
 11
16.3725118682
 21
4.7407953165
 31
0.0
  0
LINE
  5
23B
330
1F
100
AcDbEntity
  8
PROFILES_INSIDE
100
AcDbLine
 10
16.8024414966
 20
4.678190599
 30
0.0
 11
16.9592211949
 21
4.7058351947
 31
0.0
  0
LINE
  5
23C
330
1F
100
AcDbEntity
  8
PROFILES_INSIDE
100
AcDbLine
 10
2.6337656393
 20
2.8166202421
 30
0.0
 11
2.7189862517
 21
2.3333103686
 31
0.0
  0
LINE
  5
23D
330
1F
100
AcDbEntity
  8
PROFILES_INSIDE
100
AcDbLine
 10
3.1489158802
 20
2.2707056511
 30
0.0
 11
3.3056955785
 21
2.2983502467
 31
0.0
  0
LINE
  5
23E
330
1F
100
AcDbEntity
  8
PROFILES_INSIDE
100
AcDbLine
 10
3.6882851808
 20
2.5042241588
 30
0.0
 11
3.6030646897
 21
2.9875335805
 31
0.0
  0
LINE
  5
23F
330
1F
100
AcDbEntity
  8
PROFILES_INSIDE
100
AcDbLine
 10
3.1731350208
 20
3.0501385275
 30
0.0
 11
3.0163553225
 21
3.0224939318
 31
0.0
  0
LINE
  5
240
330
1F
100
AcDbEntity
  8
PROFILES_OUTSIDE
100
AcDbLine
 10
66.6644992153
 20
16.7705809055
 30
0.0
 11
66.4987511838
 21
16.7705809055
 31
0.0
  0
LINE
  5
241
330
1F
100
AcDbEntity
  8
PROFILES_OUTSIDE
100
AcDbLine
 10
66.6778884924
 20
16.5613734516
 30
0.0
 11
66.6644992153
 21
16.7705809055
 31
0.0
  0
LINE
  5
242
330
1F
100
AcDbEntity
  8
PROFILES_OUTSIDE
100
AcDbLine
 10
67.307322901
 20
16.5245179134
 30
0.0
 11
66.7171781881
 21
16.5245179134
 31
0.0
  0
LINE
  5
243
330
1F
100
AcDbEntity
  8
PROFILES_OUTSIDE
100
AcDbLine
 10
67.4436330736
 20
17.0167226378
 30
0.0
 11
67.4436330736
 21
16.9370447496
 31
0.0
  0
LINE
  5
244
330
1F
100
AcDbEntity
  8
PROFILES_OUTSIDE
100
AcDbLine
 10
72.0893023649
 20
17.0167226378
 30
0.0
 11
67.4436330736
 21
17.0167226378
 31
0.0
  0
LINE
  5
245
330
1F
100
AcDbEntity
  8
PROFILES_OUTSIDE
100
AcDbLine
 10
72.5617433098
 20
12.0540783763
 30
0.0
 11
72.5617433098
 21
16.5442816929
 31
0.0
  0
LINE
  5
246
330
1F
100
AcDbEntity
  8
PROFILES_OUTSIDE
100
AcDbLine
 10
74.057806302
 20
11.5816374314
 30
0.0
 11
73.0341842547
 21
11.5816374314
 31
0.0
  0
LINE
  5
247
330
1F
100
AcDbEntity
  8
PROFILES_OUTSIDE
100
AcDbLine
 10
74.5302472468
 20
16.5442816929
 30
0.0
 11
74.5302472468
 21
12.0540783763
 31
0.0
  0
LINE
  5
248
330
1F
100
AcDbEntity
  8
PROFILES_INSIDE
100
AcDbLine
 10
35.7813934558
 20
16.9681995488
 30
0.0
 11
35.8666139468
 21
17.4515089705
 31
0.0
  0
LINE
  5
249
330
1F
100
AcDbEntity
  8
PROFILES_INSIDE
100
AcDbLine
 10
35.1946840706
 20
16.9332390958
 30
0.0
 11
35.3514638048
 21
16.9055947034
 31
0.0
  0
LINE
  5
24A
330
1F
100
AcDbEntity
  8
PROFILES_INSIDE
100
AcDbLine
 10
34.8973149773
 20
17.6224227678
 30
0.0
 11
34.8120944458
 21
17.1391128799
 31
0.0
  0
LINE
  5
24B
330
1F
100
AcDbEntity
  8
PROFILES_INSIDE
100
AcDbLine
 10
35.4840243625
 20
17.6573829842
 30
0.0
 11
35.3272446215
 21
17.6850273379
 31
0.0
  0
LINE
  5
24C
330
1F
100
AcDbEntity
  8
PROFILES_INSIDE
100
AcDbLine
 10
22.1334742645
 20
19.3746959327
 30
0.0
 11
22.2186947556
 21
19.8580053544
 31
0.0
  0
LINE
  5
24D
330
1F
100
AcDbEntity
  8
PROFILES_INSIDE
100
AcDbLine
 10
21.8361051712
 20
20.0638793681
 30
0.0
 11
21.6793254346
 21
20.0915237464
 31
0.0
  0
LINE
  5
24E
330
1F
100
AcDbEntity
  8
PROFILES_INSIDE
100
AcDbLine
 10
21.2493957826
 20
20.0289191524
 30
0.0
 11
21.1641752546
 21
19.5456092639
 31
0.0
  0
LINE
  5
24F
330
1F
100
AcDbEntity
  8
PROFILES_INSIDE
100
AcDbLine
 10
21.5467648794
 20
19.3397354797
 30
0.0
 11
21.7035446136
 21
19.3120910874
 31
0.0
  0
LINE
  5
250
330
1F
100
AcDbEntity
  8
PROFILES_INSIDE
100
AcDbLine
 10
35.8666139468
 20
4.9117091067
 30
0.0
 11
35.7813934558
 21
5.3950185284
 31
0.0
  0
LINE
  5
251
330
1F
100
AcDbEntity
  8
PROFILES_INSIDE
100
AcDbLine
 10
35.3514637869
 20
5.4576234754
 30
0.0
 11
35.1946840892
 21
5.4299788763
 31
0.0
  0
LINE
  5
252
330
1F
100
AcDbEntity
  8
PROFILES_INSIDE
100
AcDbLine
 10
34.8120943983
 20
5.2241051889
 30
0.0
 11
34.8973150178
 21
4.7407953165
 31
0.0
  0
LINE
  5
253
330
1F
100
AcDbEntity
  8
PROFILES_INSIDE
100
AcDbLine
 10
35.3272446462
 20
4.678190599
 30
0.0
 11
35.4840243445
 21
4.7058351947
 31
0.0
  0
LINE
  5
254
330
1F
100
AcDbEntity
  8
PROFILES_OUTSIDE
100
AcDbLine
 10
79.6483574831
 20
17.0167226378
 30
0.0
 11
75.0026881917
 21
17.0167226378
 31
0.0
  0
LINE
  5
255
330
1F
100
AcDbEntity
  8
PROFILES_OUTSIDE
100
AcDbLine
 10
79.6483574831
 20
16.9370447496
 30
0.0
 11
79.6483574831
 21
17.0167226378
 31
0.0
  0
LINE
  5
256
330
1F
100
AcDbEntity
  8
PROFILES_OUTSIDE
100
AcDbLine
 10
80.3748123686
 20
16.5245179134
 30
0.0
 11
79.7846676556
 21
16.5245179134
 31
0.0
  0
LINE
  5
257
330
1F
100
AcDbEntity
  8
PROFILES_OUTSIDE
100
AcDbLine
 10
80.4274913413
 20
16.7705809055
 30
0.0
 11
80.4141020643
 21
16.5613734516
 31
0.0
  0
LINE
  5
258
330
1F
100
AcDbEntity
  8
PROFILES_OUTSIDE
100
AcDbLine
 10
80.5932393728
 20
16.7705809055
 30
0.0
 11
80.4274913413
 21
16.7705809055
 31
0.0
  0
LINE
  5
259
330
1F
100
AcDbEntity
  8
PROFILES_INSIDE
100
AcDbLine
 10
21.1641752141
 20
2.8176088062
 30
0.0
 11
21.2493958266
 21
2.3342989326
 31
0.0
  0
LINE
  5
25A
330
1F
100
AcDbEntity
  8
PROFILES_INSIDE
100
AcDbLine
 10
21.679325455
 20
2.2716942151
 30
0.0
 11
21.8361051533
 21
2.2993388108
 31
0.0
  0
LINE
  5
25B
330
1F
100
AcDbEntity
  8
PROFILES_INSIDE
100
AcDbLine
 10
22.2186947556
 20
2.5052127228
 30
0.0
 11
22.1334742645
 21
2.9885221445
 31
0.0
  0
LINE
  5
25C
330
1F
100
AcDbEntity
  8
PROFILES_INSIDE
100
AcDbLine
 10
21.7035445956
 20
3.0511270915
 30
0.0
 11
21.5467648973
 21
3.0234824958
 31
0.0
  0
LINE
  5
25D
330
1F
100
AcDbEntity
  8
PROFILES_OUTSIDE
100
AcDbLine
 10
19.5463889791
 20
20.7789666845
 30
0.0
 11
19.5463889791
 21
1.5842513927
 31
0.0
  0
LINE
  5
25E
330
1F
100
AcDbEntity
  8
PROFILES_OUTSIDE
100
AcDbLine
 10
36.6366208321
 20
18.0470142989
 30
0.0
 11
19.8236287061
 21
21.0115984371
 31
0.0
  0
LINE
  5
25F
330
1F
100
AcDbEntity
  8
PROFILES_OUTSIDE
100
AcDbLine
 10
36.83182205
 20
15.0612012696
 30
0.0
 11
36.83182205
 21
17.8143825462
 31
0.0
  0
LINE
  5
260
330
1F
100
AcDbEntity
  8
PROFILES_OUTSIDE
100
AcDbLine
 10
36.2396216931
 20
14.7585678574
 30
0.0
 11
36.6366208321
 21
14.8285695169
 31
0.0
  0
LINE
  5
261
330
1F
100
AcDbEntity
  8
POCKETS
100
AcDbLine
 10
18.7055965297
 20
6.5572966372
 30
0.0
 11
18.3178769419
 21
6.4889312129
 31
0.0
  0
LINE
  5
262
330
1F
100
AcDbEntity
  8
PROFILES_OUTSIDE
100
AcDbLine
 10
80.6326094516
 20
16.2686124016
 30
0.0
 11
80.6326094516
 21
16.7312108268
 31
0.0
  0
LINE
  5
263
330
1F
100
AcDbEntity
  8
PROFILES_OUTSIDE
100
AcDbLine
 10
75.7526881917
 20
16.0323919292
 30
0.0
 11
80.3963889791
 21
16.0323919292
 31
0.0
  0
LINE
  5
264
330
1F
100
AcDbEntity
  8
PROFILES_OUTSIDE
100
AcDbLine
 10
75.2802472468
 20
11.5816374314
 30
0.0
 11
75.2802472468
 21
15.5599509843
 31
0.0
  0
LINE
  5
265
330
1F
100
AcDbEntity
  8
PROFILES_OUTSIDE
100
AcDbLine
 10
74.5302472468
 20
7.9180312756
 30
0.0
 11
74.5302472468
 21
10.2825993257
 31
0.0
  0
LINE
  5
266
330
1F
100
AcDbEntity
  8
PROFILES_OUTSIDE
100
AcDbLine
 10
75.2802472468
 20
2.640679617
 30
0.0
 11
75.2802472468
 21
6.6189931699
 31
0.0
  0
LINE
  5
267
330
1F
100
AcDbEntity
  8
PROFILES_OUTSIDE
100
AcDbLine
 10
80.3963889791
 20
2.1682386722
 30
0.0
 11
75.7526881917
 21
2.1682386722
 31
0.0
  0
LINE
  5
268
330
1F
100
AcDbEntity
  8
PROFILES_OUTSIDE
100
AcDbLine
 10
80.6326094516
 20
1.4694197745
 30
0.0
 11
80.6326094516
 21
1.9320181997
 31
0.0
  0
LINE
  5
269
330
1F
100
AcDbEntity
  8
PROFILES_OUTSIDE
100
AcDbLine
 10
80.4274913413
 20
1.4300496958
 30
0.0
 11
80.5932393728
 21
1.4300496958
 31
0.0
  0
LINE
  5
26A
330
1F
100
AcDbEntity
  8
PROFILES_OUTSIDE
100
AcDbLine
 10
80.4141020643
 20
1.6392571497
 30
0.0
 11
80.4274913413
 21
1.4300496958
 31
0.0
  0
LINE
  5
26B
330
1F
100
AcDbEntity
  8
PROFILES_OUTSIDE
100
AcDbLine
 10
79.7846676556
 20
1.6761126879
 30
0.0
 11
80.3748123686
 21
1.6761126879
 31
0.0
  0
LINE
  5
26C
330
1F
100
AcDbEntity
  8
PROFILES_OUTSIDE
100
AcDbLine
 10
79.6483574831
 20
1.1839079635
 30
0.0
 11
79.6483574831
 21
1.2635858517
 31
0.0
  0
LINE
  5
26D
330
1F
100
AcDbEntity
  8
PROFILES_OUTSIDE
100
AcDbLine
 10
75.0026881917
 20
1.1839079635
 30
0.0
 11
79.6483574831
 21
1.1839079635
 31
0.0
  0
LINE
  5
26E
330
1F
100
AcDbEntity
  8
PROFILES_OUTSIDE
100
AcDbLine
 10
74.5302472468
 20
6.146552225
 30
0.0
 11
74.5302472468
 21
1.6563489084
 31
0.0
  0
LINE
  5
26F
330
1F
100
AcDbEntity
  8
PROFILES_OUTSIDE
100
AcDbLine
 10
73.0341842547
 20
6.6189931699
 30
0.0
 11
74.057806302
 21
6.6189931699
 31
0.0
  0
LINE
  5
270
330
1F
100
AcDbEntity
  8
PROFILES_OUTSIDE
100
AcDbLine
 10
72.5617433098
 20
1.6563489084
 30
0.0
 11
72.5617433098
 21
6.146552225
 31
0.0
  0
LINE
  5
271
330
1F
100
AcDbEntity
  8
PROFILES_OUTSIDE
100
AcDbLine
 10
67.4436330736
 20
1.1839079635
 30
0.0
 11
72.0893023649
 21
1.1839079635
 31
0.0
  0
LINE
  5
272
330
1F
100
AcDbEntity
  8
PROFILES_OUTSIDE
100
AcDbLine
 10
36.0444204752
 20
7.8372819725
 30
0.0
 11
36.0444204752
 21
14.5259361047
 31
0.0
  0
LINE
  5
273
330
1F
100
AcDbEntity
  8
POCKETS
100
AcDbLine
 10
18.8404815118
 20
5.7923258904
 30
0.0
 11
18.7055965297
 21
6.5572966372
 31
0.0
  0
LINE
  5
274
330
1F
100
AcDbEntity
  8
PROFILES_OUTSIDE
100
AcDbLine
 10
36.6366208321
 20
7.5346485603
 30
0.0
 11
36.2396216931
 21
7.6046502198
 31
0.0
  0
LINE
  5
275
330
1F
100
AcDbEntity
  8
POCKETS
100
AcDbLine
 10
18.452761924
 20
5.7239604662
 30
0.0
 11
18.8404815118
 21
5.7923258904
 31
0.0
  0
LINE
  5
276
330
1F
100
AcDbEntity
  8
POCKETS
100
AcDbLine
 10
1.010727788
 20
2.6484592495
 30
0.0
 11
18.452761924
 21
5.7239604662
 31
0.0
  0
LINE
  5
277
330
1F
100
AcDbEntity
  8
POCKETS
100
AcDbLine
 10
0.6230082002
 20
2.5800938253
 30
0.0
 11
1.010727788
 21
2.6484592495
 31
0.0
  0
LINE
  5
278
330
1F
100
AcDbEntity
  8
POCKETS
100
AcDbLine
 10
0.4881232181
 20
3.345064572
 30
0.0
 11
0.6230082002
 21
2.5800938253
 31
0.0
  0
LINE
  5
279
330
1F
100
AcDbEntity
  8
POCKETS
100
AcDbLine
 10
0.8758428059
 20
3.4134299963
 30
0.0
 11
0.4881232181
 21
3.345064572
 31
0.0
  0
LINE
  5
27A
330
1F
100
AcDbEntity
  8
POCKETS
100
AcDbLine
 10
15.968829924
 20
6.0747308447
 30
0.0
 11
0.8758428059
 21
3.4134299963
 31
0.0
  0
LINE
  5
27B
330
1F
100
AcDbEntity
  8
POCKETS
100
AcDbLine
 10
15.968829924
 20
16.2884872325
 30
0.0
 11
15.968829924
 21
6.0747308447
 31
0.0
  0
LINE
  5
27C
330
1F
100
AcDbEntity
  8
POCKETS
100
AcDbLine
 10
0.8758428059
 20
18.9497880809
 30
0.0
 11
15.968829924
 21
16.2884872325
 31
0.0
  0
LINE
  5
27D
330
1F
100
AcDbEntity
  8
POCKETS
100
AcDbLine
 10
0.4881232181
 20
19.0181535052
 30
0.0
 11
0.8758428059
 21
18.9497880809
 31
0.0
  0
LINE
  5
27E
330
1F
100
AcDbEntity
  8
POCKETS
100
AcDbLine
 10
0.6230082002
 20
19.7831242519
 30
0.0
 11
0.4881232181
 21
19.0181535052
 31
0.0
  0
LINE
  5
27F
330
1F
100
AcDbEntity
  8
POCKETS
100
AcDbLine
 10
1.010727788
 20
19.7147588277
 30
0.0
 11
0.6230082002
 21
19.7831242519
 31
0.0
  0
LINE
  5
280
330
1F
100
AcDbEntity
  8
POCKETS
100
AcDbLine
 10
18.452761924
 20
16.639257611
 30
0.0
 11
1.010727788
 21
19.7147588277
 31
0.0
  0
LINE
  5
281
330
1F
100
AcDbEntity
  8
POCKETS
100
AcDbLine
 10
18.8404815118
 20
16.5708921867
 30
0.0
 11
18.452761924
 21
16.639257611
 31
0.0
  0
LINE
  5
282
330
1F
100
AcDbEntity
  8
POCKETS
100
AcDbLine
 10
18.7055965297
 20
15.80592144
 30
0.0
 11
18.8404815118
 21
16.5708921867
 31
0.0
  0
LINE
  5
283
330
1F
100
AcDbEntity
  8
POCKETS
100
AcDbLine
 10
18.3178769419
 20
15.8742868643
 30
0.0
 11
18.7055965297
 21
15.80592144
 31
0.0
  0
LINE
  5
284
330
1F
100
AcDbEntity
  8
POCKETS
100
AcDbLine
 10
16.7322157508
 20
16.1538817146
 30
0.0
 11
18.3178769419
 21
15.8742868643
 31
0.0
  0
LINE
  5
285
330
1F
100
AcDbEntity
  8
PROFILES_OUTSIDE
100
AcDbLine
 10
67.4436330736
 20
1.2635858517
 30
0.0
 11
67.4436330736
 21
1.1839079635
 31
0.0
  0
LINE
  5
286
330
1F
100
AcDbEntity
  8
PROFILES_OUTSIDE
100
AcDbLine
 10
66.7171781881
 20
1.6761126879
 30
0.0
 11
67.307322901
 21
1.6761126879
 31
0.0
  0
LINE
  5
287
330
1F
100
AcDbEntity
  8
PROFILES_OUTSIDE
100
AcDbLine
 10
66.6644992153
 20
1.4300496958
 30
0.0
 11
66.6778884924
 21
1.6392571497
 31
0.0
  0
LINE
  5
288
330
1F
100
AcDbEntity
  8
PROFILES_OUTSIDE
100
AcDbLine
 10
66.4987511838
 20
1.4300496958
 30
0.0
 11
66.6644992153
 21
1.4300496958
 31
0.0
  0
LINE
  5
289
330
1F
100
AcDbEntity
  8
PROFILES_OUTSIDE
100
AcDbLine
 10
66.4593811051
 20
1.9320181997
 30
0.0
 11
66.4593811051
 21
1.4694197745
 31
0.0
  0
LINE
  5
28A
330
1F
100
AcDbEntity
  8
PROFILES_OUTSIDE
100
AcDbLine
 10
71.3393023649
 20
2.1682386722
 30
0.0
 11
66.6956015775
 21
2.1682386722
 31
0.0
  0
LINE
  5
28B
330
1F
100
AcDbEntity
  8
PROFILES_OUTSIDE
100
AcDbLine
 10
71.8117433098
 20
6.6189931699
 30
0.0
 11
71.8117433098
 21
2.640679617
 31
0.0
  0
LINE
  5
28C
330
1F
100
AcDbEntity
  8
PROFILES_OUTSIDE
100
AcDbLine
 10
72.5617433098
 20
10.2825993257
 30
0.0
 11
72.5617433098
 21
7.9180312756
 31
0.0
  0
LINE
  5
28D
330
1F
100
AcDbEntity
  8
PROFILES_OUTSIDE
100
AcDbLine
 10
71.8117433098
 20
15.5599509843
 30
0.0
 11
71.8117433098
 21
11.5816374314
 31
0.0
  0
LINE
  5
28E
330
1F
100
AcDbEntity
  8
PROFILES_OUTSIDE
100
AcDbLine
 10
66.6956015775
 20
16.0323919292
 30
0.0
 11
71.3393023649
 21
16.0323919292
 31
0.0
  0
LINE
  5
28F
330
1F
100
AcDbEntity
  8
PROFILES_OUTSIDE
100
AcDbLine
 10
66.4593811051
 20
16.7312108268
 30
0.0
 11
66.4593811051
 21
16.2686124016
 31
0.0
  0
LINE
  5
290
330
1F
100
AcDbEntity
  8
POCKETS
100
AcDbLine
 10
16.7322157508
 20
6.2093363626
 30
0.0
 11
16.7322157508
 21
16.1538817146
 31
0.0
  0
LINE
  5
291
330
1F
100
AcDbEntity
  8
PROFILES_OUTSIDE
100
AcDbLine
 10
80.4274913413
 20
18.5020769685
 30
0.0
 11
80.5932393728
 21
18.5020769685
 31
0.0
  0
LINE
  5
292
330
1F
100
AcDbEntity
  8
PROFILES_OUTSIDE
100
AcDbLine
 10
80.4141020643
 20
18.7112844224
 30
0.0
 11
80.4274913413
 21
18.5020769685
 31
0.0
  0
LINE
  5
293
330
1F
100
AcDbEntity
  8
PROFILES_OUTSIDE
100
AcDbLine
 10
79.7846676556
 20
18.7481399607
 30
0.0
 11
80.3748123686
 21
18.7481399607
 31
0.0
  0
LINE
  5
294
330
1F
100
AcDbEntity
  8
PROFILES_OUTSIDE
100
AcDbLine
 10
79.6483574831
 20
18.2559352363
 30
0.0
 11
79.6483574831
 21
18.3356131245
 31
0.0
  0
LINE
  5
295
330
1F
100
AcDbEntity
  8
PROFILES_OUTSIDE
100
AcDbLine
 10
75.0026881917
 20
18.2559352363
 30
0.0
 11
79.6483574831
 21
18.2559352363
 31
0.0
  0
LINE
  5
296
330
1F
100
AcDbEntity
  8
PROFILES_OUTSIDE
100
AcDbLine
 10
74.5302472468
 20
23.2185794978
 30
0.0
 11
74.5302472468
 21
18.7283761811
 31
0.0
  0
LINE
  5
297
330
1F
100
AcDbEntity
  8
PROFILES_OUTSIDE
100
AcDbLine
 10
73.0341842547
 20
23.6910204427
 30
0.0
 11
74.057806302
 21
23.6910204427
 31
0.0
  0
LINE
  5
298
330
1F
100
AcDbEntity
  8
PROFILES_OUTSIDE
100
AcDbLine
 10
72.5617433098
 20
18.7283761811
 30
0.0
 11
72.5617433098
 21
23.2185794978
 31
0.0
  0
LINE
  5
299
330
1F
100
AcDbEntity
  8
PROFILES_OUTSIDE
100
AcDbLine
 10
67.4436330736
 20
18.2559352363
 30
0.0
 11
72.0893023649
 21
18.2559352363
 31
0.0
  0
LINE
  5
29A
330
1F
100
AcDbEntity
  8
PROFILES_OUTSIDE
100
AcDbLine
 10
67.4436330736
 20
18.3356131245
 30
0.0
 11
67.4436330736
 21
18.2559352363
 31
0.0
  0
LINE
  5
29B
330
1F
100
AcDbEntity
  8
PROFILES_OUTSIDE
100
AcDbLine
 10
66.7171781881
 20
18.7481399607
 30
0.0
 11
67.307322901
 21
18.7481399607
 31
0.0
  0
LINE
  5
29C
330
1F
100
AcDbEntity
  8
PROFILES_OUTSIDE
100
AcDbLine
 10
66.6644992153
 20
18.5020769685
 30
0.0
 11
66.6778884924
 21
18.7112844224
 31
0.0
  0
LINE
  5
29D
330
1F
100
AcDbEntity
  8
PROFILES_OUTSIDE
100
AcDbLine
 10
66.4987511838
 20
18.5020769685
 30
0.0
 11
66.6644992153
 21
18.5020769685
 31
0.0
  0
LINE
  5
29E
330
1F
100
AcDbEntity
  8
PROFILES_OUTSIDE
100
AcDbLine
 10
66.4593811051
 20
19.0040454725
 30
0.0
 11
66.4593811051
 21
18.5414470473
 31
0.0
  0
LINE
  5
29F
330
1F
100
AcDbEntity
  8
PROFILES_OUTSIDE
100
AcDbLine
 10
71.3393023649
 20
19.2402659449
 30
0.0
 11
66.6956015775
 21
19.2402659449
 31
0.0
  0
LINE
  5
2A0
330
1F
100
AcDbEntity
  8
PROFILES_OUTSIDE
100
AcDbLine
 10
71.8117433098
 20
23.6910204427
 30
0.0
 11
71.8117433098
 21
19.7127068898
 31
0.0
  0
LINE
  5
2A1
330
1F
100
AcDbEntity
  8
PROFILES_OUTSIDE
100
AcDbLine
 10
72.5617433098
 20
27.3546265985
 30
0.0
 11
72.5617433098
 21
24.9900585483
 31
0.0
  0
LINE
  5
2A2
330
1F
100
AcDbEntity
  8
PROFILES_OUTSIDE
100
AcDbLine
 10
71.8117433098
 20
32.6319782571
 30
0.0
 11
71.8117433098
 21
28.6536647042
 31
0.0
  0
LINE
  5
2A3
330
1F
100
AcDbEntity
  8
PROFILES_OUTSIDE
100
AcDbLine
 10
66.6956015775
 20
33.1044192019
 30
0.0
 11
71.3393023649
 21
33.1044192019
 31
0.0
  0
LINE
  5
2A4
330
1F
100
AcDbEntity
  8
PROFILES_OUTSIDE
100
AcDbLine
 10
66.4593811051
 20
33.8032380996
 30
0.0
 11
66.4593811051
 21
33.3406396744
 31
0.0
  0
LINE
  5
2A5
330
1F
100
AcDbEntity
  8
PROFILES_OUTSIDE
100
AcDbLine
 10
66.6644992153
 20
33.8426081783
 30
0.0
 11
66.4987511838
 21
33.8426081783
 31
0.0
  0
LINE
  5
2A6
330
1F
100
AcDbEntity
  8
PROFILES_OUTSIDE
100
AcDbLine
 10
66.6778884924
 20
33.6334007244
 30
0.0
 11
66.6644992153
 21
33.8426081783
 31
0.0
  0
LINE
  5
2A7
330
1F
100
AcDbEntity
  8
PROFILES_OUTSIDE
100
AcDbLine
 10
67.307322901
 20
33.5965451862
 30
0.0
 11
66.7171781881
 21
33.5965451862
 31
0.0
  0
LINE
  5
2A8
330
1F
100
AcDbEntity
  8
PROFILES_OUTSIDE
100
AcDbLine
 10
67.4436330736
 20
34.0887499106
 30
0.0
 11
67.4436330736
 21
34.0090720224
 31
0.0
  0
LINE
  5
2A9
330
1F
100
AcDbEntity
  8
PROFILES_OUTSIDE
100
AcDbLine
 10
72.0893023649
 20
34.0887499106
 30
0.0
 11
67.4436330736
 21
34.0887499106
 31
0.0
  0
LINE
  5
2AA
330
1F
100
AcDbEntity
  8
PROFILES_OUTSIDE
100
AcDbLine
 10
72.5617433098
 20
29.1261056491
 30
0.0
 11
72.5617433098
 21
33.6163089657
 31
0.0
  0
LINE
  5
2AB
330
1F
100
AcDbEntity
  8
PROFILES_OUTSIDE
100
AcDbLine
 10
74.057806302
 20
28.6536647042
 30
0.0
 11
73.0341842547
 21
28.6536647042
 31
0.0
  0
LINE
  5
2AC
330
1F
100
AcDbEntity
  8
PROFILES_OUTSIDE
100
AcDbLine
 10
74.5302472468
 20
33.6163089657
 30
0.0
 11
74.5302472468
 21
29.1261056491
 31
0.0
  0
LINE
  5
2AD
330
1F
100
AcDbEntity
  8
PROFILES_OUTSIDE
100
AcDbLine
 10
79.6483574831
 20
34.0887499106
 30
0.0
 11
75.0026881917
 21
34.0887499106
 31
0.0
  0
LINE
  5
2AE
330
1F
100
AcDbEntity
  8
PROFILES_OUTSIDE
100
AcDbLine
 10
79.6483574831
 20
34.0090720224
 30
0.0
 11
79.6483574831
 21
34.0887499106
 31
0.0
  0
LINE
  5
2AF
330
1F
100
AcDbEntity
  8
PROFILES_OUTSIDE
100
AcDbLine
 10
80.3748123686
 20
33.5965451862
 30
0.0
 11
79.7846676556
 21
33.5965451862
 31
0.0
  0
LINE
  5
2B0
330
1F
100
AcDbEntity
  8
PROFILES_OUTSIDE
100
AcDbLine
 10
80.4274913413
 20
33.8426081783
 30
0.0
 11
80.4141020643
 21
33.6334007244
 31
0.0
  0
LINE
  5
2B1
330
1F
100
AcDbEntity
  8
PROFILES_OUTSIDE
100
AcDbLine
 10
80.5932393728
 20
33.8426081783
 30
0.0
 11
80.4274913413
 21
33.8426081783
 31
0.0
  0
LINE
  5
2B2
330
1F
100
AcDbEntity
  8
PROFILES_OUTSIDE
100
AcDbLine
 10
80.6326094516
 20
33.3406396744
 30
0.0
 11
80.6326094516
 21
33.8032380996
 31
0.0
  0
LINE
  5
2B3
330
1F
100
AcDbEntity
  8
PROFILES_OUTSIDE
100
AcDbLine
 10
75.7526881917
 20
33.1044192019
 30
0.0
 11
80.3963889791
 21
33.1044192019
 31
0.0
  0
LINE
  5
2B4
330
1F
100
AcDbEntity
  8
PROFILES_OUTSIDE
100
AcDbLine
 10
75.2802472468
 20
28.6536647042
 30
0.0
 11
75.2802472468
 21
32.6319782571
 31
0.0
  0
LINE
  5
2B5
330
1F
100
AcDbEntity
  8
PROFILES_OUTSIDE
100
AcDbLine
 10
74.5302472468
 20
24.9900585483
 30
0.0
 11
74.5302472468
 21
27.3546265985
 31
0.0
  0
LINE
  5
2B6
330
1F
100
AcDbEntity
  8
PROFILES_OUTSIDE
100
AcDbLine
 10
75.2802472468
 20
19.7127068898
 30
0.0
 11
75.2802472468
 21
23.6910204427
 31
0.0
  0
LINE
  5
2B7
330
1F
100
AcDbEntity
  8
PROFILES_OUTSIDE
100
AcDbLine
 10
80.3963889791
 20
19.2402659449
 30
0.0
 11
75.7526881917
 21
19.2402659449
 31
0.0
  0
LINE
  5
2B8
330
1F
100
AcDbEntity
  8
PROFILES_OUTSIDE
100
AcDbLine
 10
80.6326094516
 20
18.5414470473
 30
0.0
 11
80.6326094516
 21
19.0040454725
 31
0.0
  0
LINE
  5
2B9
330
1F
100
AcDbEntity
  8
POCKETS
100
AcDbLine
 10
18.3178769419
 20
6.4889312129
 30
0.0
 11
16.7322157508
 21
6.2093363626
 31
0.0
  0
LINE
  5
2BA
330
1F
100
AcDbEntity
  8
POCKETS
100
AcDbLine
 10
35.2570189004
 20
16.1538817146
 30
0.0
 11
36.8426800915
 21
15.8742868643
 31
0.0
  0
LINE
  5
2BB
330
1F
100
AcDbEntity
  8
POCKETS
100
AcDbLine
 10
36.8426800915
 20
15.8742868643
 30
0.0
 11
37.2303996793
 21
15.80592144
 31
0.0
  0
LINE
  5
2BC
330
1F
100
AcDbEntity
  8
POCKETS
100
AcDbLine
 10
37.2303996793
 20
15.80592144
 30
0.0
 11
37.3652846614
 21
16.5708921867
 31
0.0
  0
LINE
  5
2BD
330
1F
100
AcDbEntity
  8
POCKETS
100
AcDbLine
 10
37.3652846614
 20
16.5708921867
 30
0.0
 11
36.9775650736
 21
16.639257611
 31
0.0
  0
LINE
  5
2BE
330
1F
100
AcDbEntity
  8
POCKETS
100
AcDbLine
 10
36.9775650736
 20
16.639257611
 30
0.0
 11
19.6657670708
 21
19.6917946835
 31
0.0
  0
LINE
  5
2BF
330
1F
100
AcDbEntity
  8
POCKETS
100
AcDbLine
 10
19.6657670708
 20
19.6917946835
 30
0.0
 11
19.278047483
 21
19.7601601078
 31
0.0
  0
LINE
  5
2C0
330
1F
100
AcDbEntity
  8
POCKETS
100
AcDbLine
 10
19.278047483
 20
19.7601601078
 30
0.0
 11
19.1431625009
 21
18.9951893611
 31
0.0
  0
LINE
  5
2C1
330
1F
100
AcDbEntity
  8
POCKETS
100
AcDbLine
 10
19.1431625009
 20
18.9951893611
 30
0.0
 11
19.5308820887
 21
18.9268239368
 31
0.0
  0
LINE
  5
2C2
330
1F
100
AcDbEntity
  8
POCKETS
100
AcDbLine
 10
19.5308820887
 20
18.9268239368
 30
0.0
 11
34.4936330736
 21
16.2884872325
 31
0.0
  0
LINE
  5
2C3
330
1F
100
AcDbEntity
  8
POCKETS
100
AcDbLine
 10
34.4936330736
 20
16.2884872325
 30
0.0
 11
34.4936330736
 21
6.0747308447
 31
0.0
  0
LINE
  5
2C4
330
1F
100
AcDbEntity
  8
POCKETS
100
AcDbLine
 10
34.4936330736
 20
6.0747308447
 30
0.0
 11
19.5308820887
 21
3.4363941404
 31
0.0
  0
LINE
  5
2C5
330
1F
100
AcDbEntity
  8
POCKETS
100
AcDbLine
 10
19.5308820887
 20
3.4363941404
 30
0.0
 11
19.1431625009
 21
3.3680287161
 31
0.0
  0
LINE
  5
2C6
330
1F
100
AcDbEntity
  8
POCKETS
100
AcDbLine
 10
19.1431625009
 20
3.3680287161
 30
0.0
 11
19.278047483
 21
2.6030579694
 31
0.0
  0
LINE
  5
2C7
330
1F
100
AcDbEntity
  8
POCKETS
100
AcDbLine
 10
19.278047483
 20
2.6030579694
 30
0.0
 11
19.6657670708
 21
2.6714233937
 31
0.0
  0
LINE
  5
2C8
330
1F
100
AcDbEntity
  8
POCKETS
100
AcDbLine
 10
19.6657670708
 20
2.6714233937
 30
0.0
 11
36.9775650736
 21
5.7239604662
 31
0.0
  0
LINE
  5
2C9
330
1F
100
AcDbEntity
  8
POCKETS
100
AcDbLine
 10
36.9775650736
 20
5.7239604662
 30
0.0
 11
37.3652846614
 21
5.7923258904
 31
0.0
  0
LINE
  5
2CA
330
1F
100
AcDbEntity
  8
POCKETS
100
AcDbLine
 10
37.3652846614
 20
5.7923258904
 30
0.0
 11
37.2303996793
 21
6.5572966372
 31
0.0
  0
LINE
  5
2CB
330
1F
100
AcDbEntity
  8
POCKETS
100
AcDbLine
 10
37.2303996793
 20
6.5572966372
 30
0.0
 11
36.8426800915
 21
6.4889312129
 31
0.0
  0
LINE
  5
2CC
330
1F
100
AcDbEntity
  8
POCKETS
100
AcDbLine
 10
36.8426800915
 20
6.4889312129
 30
0.0
 11
35.2570189004
 21
6.2093363626
 31
0.0
  0
LINE
  5
2CD
330
1F
100
AcDbEntity
  8
POCKETS
100
AcDbLine
 10
35.2570189004
 20
6.2093363626
 30
0.0
 11
35.2570189004
 21
16.1538817146
 31
0.0
  0
LINE
  5
2CE
330
1F
100
AcDbEntity
  8
PROFILES_OUTSIDE
100
AcDbLine
 10
36.83182205
 20
4.548835531
 30
0.0
 11
36.83182205
 21
7.3020168076
 31
0.0
  0
LINE
  5
2CF
330
1F
100
AcDbEntity
  8
PROFILES_OUTSIDE
100
AcDbLine
 10
19.8236287061
 20
1.3516196401
 30
0.0
 11
36.6366208321
 21
4.3162037783
 31
0.0
  0
ARC
  5
2D0
330
1F
100
AcDbEntity
  8
PROFILES_OUTSIDE
100
AcDbCircle
 10
18.0707984279
 20
7.3020168076
 30
0.0
 40
0.2362204724409458
100
AcDbArc
 50
0.0
 51
80.0
  0
ARC
  5
2D1
330
1F
100
AcDbEntity
  8
PROFILES_OUTSIDE
100
AcDbCircle
 10
17.755837798
 20
7.8372819725
 30
0.0
 40
0.2362204724409458
100
AcDbArc
 50
180.0
 51
260.0
  0
ARC
  5
2D2
330
1F
100
AcDbEntity
  8
PROFILES_OUTSIDE
100
AcDbCircle
 10
17.755837798
 20
14.5259361047
 30
0.0
 40
0.2362204724409432
100
AcDbArc
 50
100.0
 51
180.0
  0
ARC
  5
2D3
330
1F
100
AcDbEntity
  8
PROFILES_OUTSIDE
100
AcDbCircle
 10
18.0707984279
 20
15.0612012696
 30
0.0
 40
0.2362204724409445
100
AcDbArc
 50
280.0
 51
360.0
  0
ARC
  5
2D4
330
1F
100
AcDbEntity
  8
PROFILES_INSIDE
100
AcDbCircle
 10
17.7932393728
 20
7.4257808071
 30
0.0
 40
0.2362204724409458
100
AcDbArc
 50
280.0
 51
0.0
  0
ARC
  5
2D5
330
1F
100
AcDbEntity
  8
PROFILES_OUTSIDE
100
AcDbCircle
 10
80.5932393728
 20
16.7312108268
 30
0.0
 40
0.0393700787401627
100
AcDbArc
 50
0.0
 51
90.0
  0
ARC
  5
2D6
330
1F
100
AcDbEntity
  8
PROFILES_INSIDE
100
AcDbCircle
 10
16.9660577302
 20
17.6961549474
 30
0.0
 40
0.0393700787401591
100
AcDbArc
 50
260.0000371503
 51
332.399540952
  0
ARC
  5
2D7
330
1F
100
AcDbEntity
  8
PROFILES_INSIDE
100
AcDbCircle
 10
17.1813275404
 20
17.5836124141
 30
0.0
 40
0.2035433070866169
100
AcDbArc
 50
325.11217169
 51
152.399540952
  0
ARC
  5
2D8
330
1F
100
AcDbEntity
  8
PROFILES_INSIDE
100
AcDbCircle
 10
17.3805837961
 20
17.4446722446
 30
0.0
 40
0.0393711348432817
100
AcDbArc
 50
145.11217169
 51
170.0
  0
ARC
  5
2D9
330
1F
100
AcDbEntity
  8
PROFILES_INSIDE
100
AcDbCircle
 10
17.2953622649
 20
16.9613630063
 30
0.0
 40
0.0393700787401581
100
AcDbArc
 50
170.0
 51
194.8879007739
  0
ARC
  5
2DA
330
1F
100
AcDbEntity
  8
PROFILES_INSIDE
100
AcDbCircle
 10
17.0606033948
 20
16.8989515819
 30
0.0
 40
0.2035433070866138
100
AcDbArc
 50
187.6004745238
 51
14.8879007739
  0
ARC
  5
2DB
330
1F
100
AcDbEntity
  8
PROFILES_INSIDE
100
AcDbCircle
 10
16.8198241379
 20
16.8668227402
 30
0.0
 40
0.0393700787401585
100
AcDbArc
 50
7.6004745237
 51
80.0000371503
  0
ARC
  5
2DC
330
1F
100
AcDbEntity
  8
PROFILES_INSIDE
100
AcDbCircle
 10
16.6630444037
 20
16.8944671325
 30
0.0
 40
0.0393700787401591
100
AcDbArc
 50
80.0000371503
 51
152.399540952
  0
ARC
  5
2DD
330
1F
100
AcDbEntity
  8
PROFILES_INSIDE
100
AcDbCircle
 10
16.4477745934
 20
17.0070096658
 30
0.0
 40
0.2035433070866169
100
AcDbArc
 50
145.1121167212
 51
332.399540952
  0
ARC
  5
2DE
330
1F
100
AcDbEntity
  8
PROFILES_INSIDE
100
AcDbCircle
 10
16.2485193374
 20
17.1459494224
 30
0.0
 40
0.0393700787401563
100
AcDbArc
 50
325.1121167212
 51
350.0
  0
ARC
  5
2DF
330
1F
100
AcDbEntity
  8
PROFILES_INSIDE
100
AcDbCircle
 10
16.3337399094
 20
17.6292593031
 30
0.0
 40
0.0393700376495612
100
AcDbArc
 50
350.0
 51
14.8878509098
  0
ARC
  5
2E0
330
1F
100
AcDbEntity
  8
PROFILES_INSIDE
100
AcDbCircle
 10
16.5684987391
 20
17.691670498
 30
0.0
 40
0.2035432679084908
100
AcDbArc
 50
7.6004745238
 51
194.8878509098
  0
ARC
  5
2E1
330
1F
100
AcDbEntity
  8
PROFILES_INSIDE
100
AcDbCircle
 10
16.809277996
 20
17.7237993397
 30
0.0
 40
0.0393701179182829
100
AcDbArc
 50
187.6004745238
 51
260.0000371503
  0
ARC
  5
2E2
330
1F
100
AcDbEntity
  8
PROFILES_INSIDE
100
AcDbCircle
 10
3.7270581796
 20
19.8521571926
 30
0.0
 40
0.0393711348432842
100
AcDbArc
 50
145.11217169
 51
170.0
  0
ARC
  5
2E3
330
1F
100
AcDbEntity
  8
PROFILES_INSIDE
100
AcDbCircle
 10
3.527801924
 20
19.9910973621
 30
0.0
 40
0.2035433070866146
100
AcDbArc
 50
325.11217169
 51
152.399540952
  0
ARC
  5
2E4
330
1F
100
AcDbEntity
  8
PROFILES_INSIDE
100
AcDbCircle
 10
3.3125321137
 20
20.1036398953
 30
0.0
 40
0.0393700787401581
100
AcDbArc
 50
260.0000371503
 51
332.399540952
  0
ARC
  5
2E5
330
1F
100
AcDbEntity
  8
PROFILES_INSIDE
100
AcDbCircle
 10
3.1557523795
 20
20.1312842877
 30
0.0
 40
0.0393701001100432
100
AcDbArc
 50
187.6004745238
 51
260.0000371503
  0
ARC
  5
2E6
330
1F
100
AcDbEntity
  8
PROFILES_INSIDE
100
AcDbCircle
 10
2.9149731226
 20
20.099155446
 30
0.0
 40
0.2035432857167305
100
AcDbArc
 50
7.6004745238
 51
194.8878509098
  0
ARC
  5
2E7
330
1F
100
AcDbEntity
  8
PROFILES_INSIDE
100
AcDbCircle
 10
2.680214293
 20
20.0367442511
 30
0.0
 40
0.0393700340879159
100
AcDbArc
 50
350.0
 51
14.8878509098
  0
ARC
  5
2E8
330
1F
100
AcDbEntity
  8
PROFILES_INSIDE
100
AcDbCircle
 10
2.5949937209
 20
19.5534343703
 30
0.0
 40
0.0393700787401546
100
AcDbArc
 50
325.1121167212
 51
350.0
  0
ARC
  5
2E9
330
1F
100
AcDbEntity
  8
PROFILES_INSIDE
100
AcDbCircle
 10
2.794248977
 20
19.4144946138
 30
0.0
 40
0.2035433070866146
100
AcDbArc
 50
145.1121167212
 51
332.399540952
  0
ARC
  5
2EA
330
1F
100
AcDbEntity
  8
PROFILES_INSIDE
100
AcDbCircle
 10
3.0095187873
 20
19.3019520805
 30
0.0
 40
0.0393700787401581
100
AcDbArc
 50
80.0000371503
 51
152.399540952
  0
ARC
  5
2EB
330
1F
100
AcDbEntity
  8
PROFILES_INSIDE
100
AcDbCircle
 10
3.1662985214
 20
19.2743076882
 30
0.0
 40
0.0393700787401596
100
AcDbArc
 50
7.6004745238
 51
80.0000371503
  0
ARC
  5
2EC
330
1F
100
AcDbEntity
  8
PROFILES_INSIDE
100
AcDbCircle
 10
3.4070777783
 20
19.3064365299
 30
0.0
 40
0.2035433070866172
100
AcDbArc
 50
187.6004745238
 51
14.8879007739
  0
ARC
  5
2ED
330
1F
100
AcDbEntity
  8
PROFILES_INSIDE
100
AcDbCircle
 10
3.6418366485
 20
19.3688479543
 30
0.0
 40
0.0393700787401583
100
AcDbArc
 50
170.0
 51
194.8879007739
  0
ARC
  5
2EE
330
1F
100
AcDbEntity
  8
PROFILES_INSIDE
100
AcDbCircle
 10
17.1813275424
 20
4.7796058318
 30
0.0
 40
0.203543307086617
100
AcDbArc
 50
207.6004745238
 51
34.8879007739
  0
ARC
  5
2EF
330
1F
100
AcDbEntity
  8
PROFILES_INSIDE
100
AcDbCircle
 10
17.380582756
 20
4.9185456492
 30
0.0
 40
0.0393700787401526
100
AcDbArc
 50
190.0
 51
214.8879007739
  0
ARC
  5
2F0
330
1F
100
AcDbEntity
  8
PROFILES_INSIDE
100
AcDbCircle
 10
17.295363305
 20
5.4018552543
 30
0.0
 40
0.0393711348432817
100
AcDbArc
 50
165.11217169
 51
190.0
  0
ARC
  5
2F1
330
1F
100
AcDbEntity
  8
PROFILES_INSIDE
100
AcDbCircle
 10
17.0606033353
 20
5.4642666531
 30
0.0
 40
0.2035433070866179
100
AcDbArc
 50
345.11217169
 51
172.399540952
  0
ARC
  5
2F2
330
1F
100
AcDbEntity
  8
PROFILES_INSIDE
100
AcDbCircle
 10
16.8198240697
 20
5.4963954298
 30
0.0
 40
0.0393700787401583
100
AcDbArc
 50
280.0000371503
 51
352.399540952
  0
ARC
  5
2F3
330
1F
100
AcDbEntity
  8
PROFILES_INSIDE
100
AcDbCircle
 10
16.6630443714
 20
5.4687508341
 30
0.0
 40
0.0393700965483953
100
AcDbArc
 50
207.6004745237
 51
280.0000371503
  0
ARC
  5
2F4
330
1F
100
AcDbEntity
  8
PROFILES_INSIDE
100
AcDbCircle
 10
16.4477745915
 20
5.3562082427
 30
0.0
 40
0.2035432892783787
100
AcDbArc
 50
27.6004745238
 51
214.8878509098
  0
ARC
  5
2F5
330
1F
100
AcDbEntity
  8
PROFILES_INSIDE
100
AcDbCircle
 10
16.2485193374
 20
5.2172686548
 30
0.0
 40
0.0393700305262645
100
AcDbArc
 50
10.0
 51
34.8878509098
  0
ARC
  5
2F6
330
1F
100
AcDbEntity
  8
PROFILES_INSIDE
100
AcDbCircle
 10
16.3337399094
 20
4.7339587741
 30
0.0
 40
0.0393700787401562
100
AcDbArc
 50
345.1121167212
 51
10.0
  0
ARC
  5
2F7
330
1F
100
AcDbEntity
  8
PROFILES_INSIDE
100
AcDbCircle
 10
16.5684987986
 20
4.6715474213
 30
0.0
 40
0.2035433070866181
100
AcDbArc
 50
165.1121167212
 51
352.399540952
  0
ARC
  5
2F8
330
1F
100
AcDbEntity
  8
PROFILES_INSIDE
100
AcDbCircle
 10
16.8092780642
 20
4.6394186447
 30
0.0
 40
0.0393700787401583
100
AcDbArc
 50
100.0000371503
 51
172.399540952
  0
ARC
  5
2F9
330
1F
100
AcDbEntity
  8
PROFILES_INSIDE
100
AcDbCircle
 10
16.9660577625
 20
4.6670632404
 30
0.0
 40
0.0393700787401587
100
AcDbArc
 50
27.6004745237
 51
100.0000371503
  0
ARC
  5
2FA
330
1F
100
AcDbEntity
  8
PROFILES_INSIDE
100
AcDbCircle
 10
2.680214293
 20
2.3264738261
 30
0.0
 40
0.0393700787401568
100
AcDbArc
 50
345.1121167212
 51
10.0
  0
ARC
  5
2FB
330
1F
100
AcDbEntity
  8
PROFILES_INSIDE
100
AcDbCircle
 10
2.9149731822
 20
2.2640624734
 30
0.0
 40
0.2035433070866138
100
AcDbArc
 50
165.1121167212
 51
352.399540952
  0
ARC
  5
2FC
330
1F
100
AcDbEntity
  8
PROFILES_INSIDE
100
AcDbCircle
 10
3.1557524477
 20
2.2319336967
 30
0.0
 40
0.0393700787401609
100
AcDbArc
 50
100.0000371503
 51
172.399540952
  0
ARC
  5
2FD
330
1F
100
AcDbEntity
  8
PROFILES_INSIDE
100
AcDbCircle
 10
3.312532146
 20
2.2595782924
 30
0.0
 40
0.0393700787401578
100
AcDbArc
 50
27.6004745237
 51
100.0000371503
  0
ARC
  5
2FE
330
1F
100
AcDbEntity
  8
PROFILES_INSIDE
100
AcDbCircle
 10
3.5278019259
 20
2.3721208838
 30
0.0
 40
0.2035433070866139
100
AcDbArc
 50
207.6004745238
 51
34.8879007739
  0
ARC
  5
2FF
330
1F
100
AcDbEntity
  8
PROFILES_INSIDE
100
AcDbCircle
 10
3.7270571395
 20
2.5110607012
 30
0.0
 40
0.0393700787401597
100
AcDbArc
 50
190.0
 51
214.8879007739
  0
ARC
  5
300
330
1F
100
AcDbEntity
  8
PROFILES_INSIDE
100
AcDbCircle
 10
3.6418376885
 20
2.9943703063
 30
0.0
 40
0.039371134843281
100
AcDbArc
 50
165.11217169
 51
190.0
  0
ARC
  5
301
330
1F
100
AcDbEntity
  8
PROFILES_INSIDE
100
AcDbCircle
 10
3.4070777188
 20
3.0567817052
 30
0.0
 40
0.2035433070866122
100
AcDbArc
 50
345.11217169
 51
172.399540952
  0
ARC
  5
302
330
1F
100
AcDbEntity
  8
PROFILES_INSIDE
100
AcDbCircle
 10
3.1662984532
 20
3.0889104818
 30
0.0
 40
0.0393700787401605
100
AcDbArc
 50
280.0000371503
 51
352.399540952
  0
ARC
  5
303
330
1F
100
AcDbEntity
  8
PROFILES_INSIDE
100
AcDbCircle
 10
3.0095187549
 20
3.0612658862
 30
0.0
 40
0.0393700823018061
100
AcDbArc
 50
207.6004745237
 51
280.0000371503
  0
ARC
  5
304
330
1F
100
AcDbEntity
  8
PROFILES_INSIDE
100
AcDbCircle
 10
2.794248975
 20
2.9487232948
 30
0.0
 40
0.2035433035249671
100
AcDbArc
 50
27.6004745238
 51
214.8878509098
  0
ARC
  5
305
330
1F
100
AcDbEntity
  8
PROFILES_INSIDE
100
AcDbCircle
 10
2.5949937209
 20
2.8097837069
 30
0.0
 40
0.0393700376495647
100
AcDbArc
 50
10.0
 51
34.8878509098
  0
ARC
  5
306
330
1F
100
AcDbEntity
  8
PROFILES_INSIDE
100
AcDbCircle
 10
35.4908608798
 20
17.6961549474
 30
0.0
 40
0.0393700787401562
100
AcDbArc
 50
260.0000371503
 51
332.399540952
  0
ARC
  5
307
330
1F
100
AcDbEntity
  8
PROFILES_INSIDE
100
AcDbCircle
 10
35.70613069
 20
17.5836124141
 30
0.0
 40
0.2035433070866154
100
AcDbArc
 50
325.11217169
 51
152.399540952
  0
ARC
  5
308
330
1F
100
AcDbEntity
  8
PROFILES_INSIDE
100
AcDbCircle
 10
35.9053869457
 20
17.4446722446
 30
0.0
 40
0.0393711348432823
100
AcDbArc
 50
145.11217169
 51
170.0
  0
ARC
  5
309
330
1F
100
AcDbEntity
  8
PROFILES_INSIDE
100
AcDbCircle
 10
35.8201654145
 20
16.9613630063
 30
0.0
 40
0.0393700787401556
100
AcDbArc
 50
170.0
 51
194.8879007739
  0
ARC
  5
30A
330
1F
100
AcDbEntity
  8
PROFILES_INSIDE
100
AcDbCircle
 10
35.5854065444
 20
16.8989515819
 30
0.0
 40
0.2035433070866129
100
AcDbArc
 50
187.6004745238
 51
14.8879007739
  0
ARC
  5
30B
330
1F
100
AcDbEntity
  8
PROFILES_INSIDE
100
AcDbCircle
 10
35.3446272875
 20
16.8668227402
 30
0.0
 40
0.0393700787401627
100
AcDbArc
 50
7.6004745237
 51
80.0000371503
  0
ARC
  5
30C
330
1F
100
AcDbEntity
  8
PROFILES_INSIDE
100
AcDbCircle
 10
35.1878475533
 20
16.8944671325
 30
0.0
 40
0.0393700787401589
100
AcDbArc
 50
80.0000371503
 51
152.399540952
  0
ARC
  5
30D
330
1F
100
AcDbEntity
  8
PROFILES_INSIDE
100
AcDbCircle
 10
34.972577743
 20
17.0070096658
 30
0.0
 40
0.2035433070866154
100
AcDbArc
 50
145.1121167212
 51
332.399540952
  0
ARC
  5
30E
330
1F
100
AcDbEntity
  8
PROFILES_INSIDE
100
AcDbCircle
 10
34.773322487
 20
17.1459494224
 30
0.0
 40
0.0393700787401543
100
AcDbArc
 50
325.1121167212
 51
350.0
  0
ARC
  5
30F
330
1F
100
AcDbEntity
  8
PROFILES_INSIDE
100
AcDbCircle
 10
34.858543059
 20
17.6292593031
 30
0.0
 40
0.0393700376495612
100
AcDbArc
 50
350.0
 51
14.8878509098
  0
ARC
  5
310
330
1F
100
AcDbEntity
  8
PROFILES_INSIDE
100
AcDbCircle
 10
35.0933018887
 20
17.691670498
 30
0.0
 40
0.2035432679084837
100
AcDbArc
 50
7.6004745238
 51
194.8878509098
  0
ARC
  5
311
330
1F
100
AcDbEntity
  8
PROFILES_INSIDE
100
AcDbCircle
 10
35.3340811456
 20
17.7237993397
 30
0.0
 40
0.039370117918282
100
AcDbArc
 50
187.6004745238
 51
260.0000371503
  0
ARC
  5
312
330
1F
100
AcDbEntity
  8
PROFILES_INSIDE
100
AcDbCircle
 10
22.2574677545
 20
19.8511686286
 30
0.0
 40
0.039371134843283
100
AcDbArc
 50
145.11217169
 51
170.0
  0
ARC
  5
313
330
1F
100
AcDbEntity
  8
PROFILES_INSIDE
100
AcDbCircle
 10
22.0582114988
 20
19.9901087981
 30
0.0
 40
0.203543307086616
100
AcDbArc
 50
325.11217169
 51
152.399540952
  0
ARC
  5
314
330
1F
100
AcDbEntity
  8
PROFILES_INSIDE
100
AcDbCircle
 10
21.8429416885
 20
20.1026513313
 30
0.0
 40
0.0393700787401521
100
AcDbArc
 50
260.0000371503
 51
332.399540952
  0
ARC
  5
315
330
1F
100
AcDbEntity
  8
PROFILES_INSIDE
100
AcDbCircle
 10
21.6861619544
 20
20.1302957237
 30
0.0
 40
0.039370100110045
100
AcDbArc
 50
187.6004745238
 51
260.0000371503
  0
ARC
  5
316
330
1F
100
AcDbEntity
  8
PROFILES_INSIDE
100
AcDbCircle
 10
21.4453826975
 20
20.098166882
 30
0.0
 40
0.2035432857167248
100
AcDbArc
 50
7.6004745238
 51
194.8878509098
  0
ARC
  5
317
330
1F
100
AcDbEntity
  8
PROFILES_INSIDE
100
AcDbCircle
 10
21.2106238678
 20
20.035755687
 30
0.0
 40
0.0393700340879184
100
AcDbArc
 50
350.0
 51
14.8878509098
  0
ARC
  5
318
330
1F
100
AcDbEntity
  8
PROFILES_INSIDE
100
AcDbCircle
 10
21.1254032958
 20
19.5524458063
 30
0.0
 40
0.0393700787401563
100
AcDbArc
 50
325.1121167212
 51
350.0
  0
ARC
  5
319
330
1F
100
AcDbEntity
  8
PROFILES_INSIDE
100
AcDbCircle
 10
21.3246585518
 20
19.4135060497
 30
0.0
 40
0.2035433070866138
100
AcDbArc
 50
145.1121167212
 51
332.399540952
  0
ARC
  5
31A
330
1F
100
AcDbEntity
  8
PROFILES_INSIDE
100
AcDbCircle
 10
21.5399283621
 20
19.3009635165
 30
0.0
 40
0.0393700787401605
100
AcDbArc
 50
80.0000371503
 51
152.399540952
  0
ARC
  5
31B
330
1F
100
AcDbEntity
  8
PROFILES_INSIDE
100
AcDbCircle
 10
21.6967080963
 20
19.2733191241
 30
0.0
 40
0.0393700787401591
100
AcDbArc
 50
7.6004745238
 51
80.0000371503
  0
ARC
  5
31C
330
1F
100
AcDbEntity
  8
PROFILES_INSIDE
100
AcDbCircle
 10
21.9374873532
 20
19.3054479658
 30
0.0
 40
0.2035433070866202
100
AcDbArc
 50
187.6004745238
 51
14.8879007739
  0
ARC
  5
31D
330
1F
100
AcDbEntity
  8
PROFILES_INSIDE
100
AcDbCircle
 10
22.1722462233
 20
19.3678593903
 30
0.0
 40
0.0393700787401556
100
AcDbArc
 50
170.0
 51
194.8879007739
  0
ARC
  5
31E
330
1F
100
AcDbEntity
  8
PROFILES_INSIDE
100
AcDbCircle
 10
35.706130692
 20
4.7796058318
 30
0.0
 40
0.203543307086614
100
AcDbArc
 50
207.6004745238
 51
34.8879007739
  0
ARC
  5
31F
330
1F
100
AcDbEntity
  8
PROFILES_INSIDE
100
AcDbCircle
 10
35.9053859056
 20
4.9185456492
 30
0.0
 40
0.0393700787401601
100
AcDbArc
 50
190.0
 51
214.8879007739
  0
ARC
  5
320
330
1F
100
AcDbEntity
  8
PROFILES_INSIDE
100
AcDbCircle
 10
35.8201664546
 20
5.4018552543
 30
0.0
 40
0.0393711348432802
100
AcDbArc
 50
165.11217169
 51
190.0
  0
ARC
  5
321
330
1F
100
AcDbEntity
  8
PROFILES_INSIDE
100
AcDbCircle
 10
35.5854064849
 20
5.4642666531
 30
0.0
 40
0.2035433070866148
100
AcDbArc
 50
345.11217169
 51
172.399540952
  0
ARC
  5
322
330
1F
100
AcDbEntity
  8
PROFILES_INSIDE
100
AcDbCircle
 10
35.3446272193
 20
5.4963954298
 30
0.0
 40
0.0393700787401581
100
AcDbArc
 50
280.0000371503
 51
352.399540952
  0
ARC
  5
323
330
1F
100
AcDbEntity
  8
PROFILES_INSIDE
100
AcDbCircle
 10
35.187847521
 20
5.4687508341
 30
0.0
 40
0.0393700965483997
100
AcDbArc
 50
207.6004745237
 51
280.0000371503
  0
ARC
  5
324
330
1F
100
AcDbEntity
  8
PROFILES_INSIDE
100
AcDbCircle
 10
34.9725777411
 20
5.3562082427
 30
0.0
 40
0.2035432892783743
100
AcDbArc
 50
27.6004745238
 51
214.8878509098
  0
ARC
  5
325
330
1F
100
AcDbEntity
  8
PROFILES_INSIDE
100
AcDbCircle
 10
34.773322487
 20
5.2172686548
 30
0.0
 40
0.0393700305262681
100
AcDbArc
 50
10.0
 51
34.8878509098
  0
ARC
  5
326
330
1F
100
AcDbEntity
  8
PROFILES_INSIDE
100
AcDbCircle
 10
34.858543059
 20
4.7339587741
 30
0.0
 40
0.0393700787401592
100
AcDbArc
 50
345.1121167212
 51
10.0
  0
ARC
  5
327
330
1F
100
AcDbEntity
  8
PROFILES_INSIDE
100
AcDbCircle
 10
35.0933019482
 20
4.6715474213
 30
0.0
 40
0.2035433070866148
100
AcDbArc
 50
165.1121167212
 51
352.399540952
  0
ARC
  5
328
330
1F
100
AcDbEntity
  8
PROFILES_INSIDE
100
AcDbCircle
 10
35.3340812138
 20
4.6394186447
 30
0.0
 40
0.0393700787401626
100
AcDbArc
 50
100.0000371503
 51
172.399540952
  0
ARC
  5
329
330
1F
100
AcDbEntity
  8
PROFILES_INSIDE
100
AcDbCircle
 10
35.4908609121
 20
4.6670632404
 30
0.0
 40
0.0393700787401591
100
AcDbArc
 50
27.6004745237
 51
100.0000371503
  0
ARC
  5
32A
330
1F
100
AcDbEntity
  8
PROFILES_INSIDE
100
AcDbCircle
 10
21.2106238678
 20
2.3274623902
 30
0.0
 40
0.0393700787401585
100
AcDbArc
 50
345.1121167212
 51
10.0
  0
ARC
  5
32B
330
1F
100
AcDbEntity
  8
PROFILES_INSIDE
100
AcDbCircle
 10
21.445382757
 20
2.2650510374
 30
0.0
 40
0.203543307086612
100
AcDbArc
 50
165.1121167212
 51
352.399540952
  0
ARC
  5
32C
330
1F
100
AcDbEntity
  8
PROFILES_INSIDE
100
AcDbCircle
 10
21.6861620226
 20
2.2329222608
 30
0.0
 40
0.0393700787401626
100
AcDbArc
 50
100.0000371503
 51
172.399540952
  0
ARC
  5
32D
330
1F
100
AcDbEntity
  8
PROFILES_INSIDE
100
AcDbCircle
 10
21.8429417209
 20
2.2605668564
 30
0.0
 40
0.0393700787401619
100
AcDbArc
 50
27.6004745237
 51
100.0000371503
  0
ARC
  5
32E
330
1F
100
AcDbEntity
  8
PROFILES_INSIDE
100
AcDbCircle
 10
22.0582115008
 20
2.3731094478
 30
0.0
 40
0.2035433070866139
100
AcDbArc
 50
207.6004745238
 51
34.8879007739
  0
ARC
  5
32F
330
1F
100
AcDbEntity
  8
PROFILES_INSIDE
100
AcDbCircle
 10
22.2574667144
 20
2.5120492652
 30
0.0
 40
0.0393700787401625
100
AcDbArc
 50
190.0
 51
214.8879007739
  0
ARC
  5
330
330
1F
100
AcDbEntity
  8
PROFILES_INSIDE
100
AcDbCircle
 10
22.1722472634
 20
2.9953588703
 30
0.0
 40
0.0393711348432816
100
AcDbArc
 50
165.11217169
 51
190.0
  0
ARC
  5
331
330
1F
100
AcDbEntity
  8
PROFILES_INSIDE
100
AcDbCircle
 10
21.9374872936
 20
3.0577702692
 30
0.0
 40
0.2035433070866146
100
AcDbArc
 50
345.11217169
 51
172.399540952
  0
ARC
  5
332
330
1F
100
AcDbEntity
  8
PROFILES_INSIDE
100
AcDbCircle
 10
21.6967080281
 20
3.0898990459
 30
0.0
 40
0.0393700787401591
100
AcDbArc
 50
280.0000371503
 51
352.399540952
  0
ARC
  5
333
330
1F
100
AcDbEntity
  8
PROFILES_INSIDE
100
AcDbCircle
 10
21.5399283298
 20
3.0622544502
 30
0.0
 40
0.0393700823018059
100
AcDbArc
 50
207.6004745238
 51
280.0000371503
  0
ARC
  5
334
330
1F
100
AcDbEntity
  8
PROFILES_INSIDE
100
AcDbCircle
 10
21.3246585499
 20
2.9497118588
 30
0.0
 40
0.2035433035249652
100
AcDbArc
 50
27.6004745238
 51
214.8878509098
  0
ARC
  5
335
330
1F
100
AcDbEntity
  8
PROFILES_INSIDE
100
AcDbCircle
 10
21.1254032958
 20
2.8107722709
 30
0.0
 40
0.0393700376495619
100
AcDbArc
 50
10.0
 51
34.8878509098
  0
ARC
  5
336
330
1F
100
AcDbEntity
  8
PROFILES_OUTSIDE
100
AcDbCircle
 10
19.7826094516
 20
20.7789666845
 30
0.0
 40
0.236220472440948
100
AcDbArc
 50
80.0
 51
180.0
  0
ARC
  5
337
330
1F
100
AcDbEntity
  8
PROFILES_OUTSIDE
100
AcDbCircle
 10
36.5956015775
 20
17.8143825462
 30
0.0
 40
0.2362204724409484
100
AcDbArc
 50
360.0
 51
80.0
  0
ARC
  5
338
330
1F
100
AcDbEntity
  8
PROFILES_OUTSIDE
100
AcDbCircle
 10
36.5956015775
 20
15.0612012696
 30
0.0
 40
0.236220472440948
100
AcDbArc
 50
280.0
 51
0.0
  0
ARC
  5
339
330
1F
100
AcDbEntity
  8
PROFILES_OUTSIDE
100
AcDbCircle
 10
36.2806409476
 20
14.5259361047
 30
0.0
 40
0.236220472440948
100
AcDbArc
 50
100.0
 51
180.0
  0
ARC
  5
33A
330
1F
100
AcDbEntity
  8
PROFILES_OUTSIDE
100
AcDbCircle
 10
36.2806409476
 20
7.8372819725
 30
0.0
 40
0.236220472440948
100
AcDbArc
 50
180.0
 51
260.0
  0
ARC
  5
33B
330
1F
100
AcDbEntity
  8
PROFILES_OUTSIDE
100
AcDbCircle
 10
36.5956015775
 20
7.3020168076
 30
0.0
 40
0.236220472440948
100
AcDbArc
 50
0.0
 51
80.0
  0
ARC
  5
33C
330
1F
100
AcDbEntity
  8
PROFILES_OUTSIDE
100
AcDbCircle
 10
36.5956015775
 20
4.548835531
 30
0.0
 40
0.236220472440948
100
AcDbArc
 50
280.0
 51
0.0
  0
ARC
  5
33D
330
1F
100
AcDbEntity
  8
PROFILES_OUTSIDE
100
AcDbCircle
 10
19.7826094516
 20
1.5842513927
 30
0.0
 40
0.236220472440948
100
AcDbArc
 50
180.0
 51
280.0
  0
ARC
  5
33E
330
1F
100
AcDbEntity
  8
PROFILES_OUTSIDE
100
AcDbCircle
 10
75.7526881917
 20
15.5599509843
 30
0.0
 40
0.4724409448818889
100
AcDbArc
 50
90.0
 51
180.0
  0
ARC
  5
33F
330
1F
100
AcDbEntity
  8
PROFILES_OUTSIDE
100
AcDbCircle
 10
75.7526881917
 20
2.640679617
 30
0.0
 40
0.4724409448818943
100
AcDbArc
 50
180.0
 51
270.0
  0
ARC
  5
340
330
1F
100
AcDbEntity
  8
PROFILES_OUTSIDE
100
AcDbCircle
 10
80.5932393728
 20
1.4694197745
 30
0.0
 40
0.0393700787401627
100
AcDbArc
 50
270.0
 51
0.0
  0
ARC
  5
341
330
1F
100
AcDbEntity
  8
PROFILES_OUTSIDE
100
AcDbCircle
 10
66.7171781881
 20
16.5638879922
 30
0.0
 40
0.0393700787401592
100
AcDbArc
 50
183.6619355755
 51
270.0
  0
ARC
  5
342
330
1F
100
AcDbEntity
  8
PROFILES_OUTSIDE
100
AcDbCircle
 10
67.307322901
 20
16.4851478347
 30
0.0
 40
0.0393700787401592
100
AcDbArc
 50
65.1121079736
 51
90.0
  0
ARC
  5
343
330
1F
100
AcDbEntity
  8
PROFILES_OUTSIDE
100
AcDbCircle
 10
67.4095515721
 20
16.7055025756
 30
0.0
 40
0.2035433070866106
100
AcDbArc
 50
245.1121079736
 51
72.3995332141
  0
ARC
  5
344
330
1F
100
AcDbEntity
  8
PROFILES_OUTSIDE
100
AcDbCircle
 10
67.4830031524
 20
16.9370447496
 30
0.0
 40
0.0393700787401636
100
AcDbArc
 50
180.0
 51
252.3995332141
  0
ARC
  5
345
330
1F
100
AcDbEntity
  8
PROFILES_OUTSIDE
100
AcDbCircle
 10
72.0893023649
 20
16.5442816929
 30
0.0
 40
0.4724409448818889
100
AcDbArc
 50
0.0
 51
90.0
  0
ARC
  5
346
330
1F
100
AcDbEntity
  8
PROFILES_OUTSIDE
100
AcDbCircle
 10
73.0341842547
 20
12.0540783763
 30
0.0
 40
0.472440944881896
100
AcDbArc
 50
180.0
 51
270.0
  0
ARC
  5
347
330
1F
100
AcDbEntity
  8
PROFILES_OUTSIDE
100
AcDbCircle
 10
74.057806302
 20
12.0540783763
 30
0.0
 40
0.4724409448818907
100
AcDbArc
 50
270.0
 51
0.0
  0
ARC
  5
348
330
1F
100
AcDbEntity
  8
PROFILES_OUTSIDE
100
AcDbCircle
 10
75.0026881917
 20
16.5442816929
 30
0.0
 40
0.472440944881896
100
AcDbArc
 50
90.0
 51
180.0
  0
ARC
  5
349
330
1F
100
AcDbEntity
  8
PROFILES_OUTSIDE
100
AcDbCircle
 10
79.6089874043
 20
16.9370447496
 30
0.0
 40
0.0393700787401627
100
AcDbArc
 50
287.6004667859
 51
0.0
  0
ARC
  5
34A
330
1F
100
AcDbEntity
  8
PROFILES_OUTSIDE
100
AcDbCircle
 10
79.6824389846
 20
16.7055025756
 30
0.0
 40
0.2035433070866139
100
AcDbArc
 50
107.6004667859
 51
294.8878920264
  0
ARC
  5
34B
330
1F
100
AcDbEntity
  8
PROFILES_OUTSIDE
100
AcDbCircle
 10
79.7846676556
 20
16.4851478347
 30
0.0
 40
0.0393700787401609
100
AcDbArc
 50
90.0
 51
114.8878920264
  0
ARC
  5
34C
330
1F
100
AcDbEntity
  8
PROFILES_OUTSIDE
100
AcDbCircle
 10
80.3748123686
 20
16.5638879922
 30
0.0
 40
0.0393700787401556
100
AcDbArc
 50
270.0
 51
356.3380644245
  0
ARC
  5
34D
330
1F
100
AcDbEntity
  8
PROFILES_OUTSIDE
100
AcDbCircle
 10
80.3963889791
 20
16.2686124016
 30
0.0
 40
0.236220472440948
100
AcDbArc
 50
270.0
 51
0.0
  0
ARC
  5
34E
330
1F
100
AcDbEntity
  8
PROFILES_OUTSIDE
100
AcDbCircle
 10
66.4987511838
 20
1.4694197745
 30
0.0
 40
0.0393700787401574
100
AcDbArc
 50
180.0
 51
270.0
  0
ARC
  5
34F
330
1F
100
AcDbEntity
  8
PROFILES_OUTSIDE
100
AcDbCircle
 10
74.5302472468
 20
11.5816374314
 30
0.0
 40
0.75
100
AcDbArc
 50
300.0
 51
0.0
  0
ARC
  5
350
330
1F
100
AcDbEntity
  8
PROFILES_OUTSIDE
100
AcDbCircle
 10
75.2802472468
 20
10.2825993257
 30
0.0
 40
0.75
100
AcDbArc
 50
120.0
 51
180.0
  0
ARC
  5
351
330
1F
100
AcDbEntity
  8
PROFILES_OUTSIDE
100
AcDbCircle
 10
75.2802472468
 20
7.9180312756
 30
0.0
 40
0.7500000000000008
100
AcDbArc
 50
180.0
 51
240.0
  0
ARC
  5
352
330
1F
100
AcDbEntity
  8
PROFILES_OUTSIDE
100
AcDbCircle
 10
74.5302472468
 20
6.6189931699
 30
0.0
 40
0.75
100
AcDbArc
 50
0.0
 51
60.0
  0
ARC
  5
353
330
1F
100
AcDbEntity
  8
PROFILES_OUTSIDE
100
AcDbCircle
 10
80.3963889791
 20
1.9320181997
 30
0.0
 40
0.236220472440948
100
AcDbArc
 50
0.0
 51
90.0
  0
ARC
  5
354
330
1F
100
AcDbEntity
  8
PROFILES_OUTSIDE
100
AcDbCircle
 10
71.3393023649
 20
2.640679617
 30
0.0
 40
0.472440944881896
100
AcDbArc
 50
270.0
 51
0.0
  0
ARC
  5
355
330
1F
100
AcDbEntity
  8
PROFILES_OUTSIDE
100
AcDbCircle
 10
80.3748123686
 20
1.6367426092
 30
0.0
 40
0.0393700787401574
100
AcDbArc
 50
3.6619355755
 51
90.0
  0
ARC
  5
356
330
1F
100
AcDbEntity
  8
PROFILES_OUTSIDE
100
AcDbCircle
 10
79.7846676556
 20
1.7154827666
 30
0.0
 40
0.039370078740161
100
AcDbArc
 50
245.1121079736
 51
270.0
  0
ARC
  5
357
330
1F
100
AcDbEntity
  8
PROFILES_OUTSIDE
100
AcDbCircle
 10
79.6824389846
 20
1.4951280257
 30
0.0
 40
0.2035433070866144
100
AcDbArc
 50
65.1121079736
 51
252.3995332141
  0
ARC
  5
358
330
1F
100
AcDbEntity
  8
PROFILES_OUTSIDE
100
AcDbCircle
 10
79.6089874043
 20
1.2635858517
 30
0.0
 40
0.0393700787401627
100
AcDbArc
 50
0.0
 51
72.3995332141
  0
ARC
  5
359
330
1F
100
AcDbEntity
  8
PROFILES_OUTSIDE
100
AcDbCircle
 10
75.0026881917
 20
1.6563489084
 30
0.0
 40
0.472440944881896
100
AcDbArc
 50
180.0
 51
270.0
  0
ARC
  5
35A
330
1F
100
AcDbEntity
  8
PROFILES_OUTSIDE
100
AcDbCircle
 10
74.057806302
 20
6.146552225
 30
0.0
 40
0.4724409448818907
100
AcDbArc
 50
0.0
 51
90.0
  0
ARC
  5
35B
330
1F
100
AcDbEntity
  8
PROFILES_OUTSIDE
100
AcDbCircle
 10
73.0341842547
 20
6.146552225
 30
0.0
 40
0.472440944881896
100
AcDbArc
 50
90.0
 51
180.0
  0
ARC
  5
35C
330
1F
100
AcDbEntity
  8
PROFILES_OUTSIDE
100
AcDbCircle
 10
72.0893023649
 20
1.6563489084
 30
0.0
 40
0.4724409448818903
100
AcDbArc
 50
270.0
 51
0.0
  0
ARC
  5
35D
330
1F
100
AcDbEntity
  8
PROFILES_OUTSIDE
100
AcDbCircle
 10
67.4830031524
 20
1.2635858517
 30
0.0
 40
0.0393700787401522
100
AcDbArc
 50
107.6004667859
 51
180.0
  0
ARC
  5
35E
330
1F
100
AcDbEntity
  8
PROFILES_OUTSIDE
100
AcDbCircle
 10
67.4095515721
 20
1.4951280257
 30
0.0
 40
0.2035433070866184
100
AcDbArc
 50
287.6004667859
 51
114.8878920264
  0
ARC
  5
35F
330
1F
100
AcDbEntity
  8
PROFILES_OUTSIDE
100
AcDbCircle
 10
67.307322901
 20
1.7154827666
 30
0.0
 40
0.0393700787401572
100
AcDbArc
 50
270.0
 51
294.8878920264
  0
ARC
  5
360
330
1F
100
AcDbEntity
  8
PROFILES_OUTSIDE
100
AcDbCircle
 10
66.7171781881
 20
1.6367426092
 30
0.0
 40
0.039370078740159
100
AcDbArc
 50
90.0
 51
176.3380644245
  0
ARC
  5
361
330
1F
100
AcDbEntity
  8
PROFILES_OUTSIDE
100
AcDbCircle
 10
66.6956015775
 20
1.9320181997
 30
0.0
 40
0.236220472440948
100
AcDbArc
 50
90.0
 51
180.0
  0
ARC
  5
362
330
1F
100
AcDbEntity
  8
PROFILES_OUTSIDE
100
AcDbCircle
 10
71.3393023649
 20
15.5599509843
 30
0.0
 40
0.472440944881896
100
AcDbArc
 50
0.0
 51
90.0
  0
ARC
  5
363
330
1F
100
AcDbEntity
  8
PROFILES_OUTSIDE
100
AcDbCircle
 10
72.5617433098
 20
6.6189931699
 30
0.0
 40
0.75
100
AcDbArc
 50
120.0
 51
180.0
  0
ARC
  5
364
330
1F
100
AcDbEntity
  8
PROFILES_OUTSIDE
100
AcDbCircle
 10
71.8117433098
 20
7.9180312756
 30
0.0
 40
0.7499999999999915
100
AcDbArc
 50
300.0
 51
0.0
  0
ARC
  5
365
330
1F
100
AcDbEntity
  8
PROFILES_OUTSIDE
100
AcDbCircle
 10
71.8117433098
 20
10.2825993257
 30
0.0
 40
0.75
100
AcDbArc
 50
0.0
 51
60.0
  0
ARC
  5
366
330
1F
100
AcDbEntity
  8
PROFILES_OUTSIDE
100
AcDbCircle
 10
72.5617433098
 20
11.5816374314
 30
0.0
 40
0.75
100
AcDbArc
 50
180.0
 51
240.0
  0
ARC
  5
367
330
1F
100
AcDbEntity
  8
PROFILES_OUTSIDE
100
AcDbCircle
 10
66.6956015775
 20
16.2686124016
 30
0.0
 40
0.236220472440948
100
AcDbArc
 50
180.0
 51
270.0
  0
ARC
  5
368
330
1F
100
AcDbEntity
  8
PROFILES_OUTSIDE
100
AcDbCircle
 10
66.4987511838
 20
16.7312108268
 30
0.0
 40
0.0393700787401627
100
AcDbArc
 50
90.0
 51
180.0
  0
ARC
  5
369
330
1F
100
AcDbEntity
  8
PROFILES_OUTSIDE
100
AcDbCircle
 10
66.4987511838
 20
18.5414470473
 30
0.0
 40
0.0393700787401627
100
AcDbArc
 50
180.0
 51
270.0
  0
ARC
  5
36A
330
1F
100
AcDbEntity
  8
PROFILES_OUTSIDE
100
AcDbCircle
 10
71.3393023649
 20
19.7127068898
 30
0.0
 40
0.4724409448818889
100
AcDbArc
 50
270.0
 51
0.0
  0
ARC
  5
36B
330
1F
100
AcDbEntity
  8
PROFILES_OUTSIDE
100
AcDbCircle
 10
71.3393023649
 20
32.6319782571
 30
0.0
 40
0.472440944881896
100
AcDbArc
 50
0.0
 51
90.0
  0
ARC
  5
36C
330
1F
100
AcDbEntity
  8
PROFILES_OUTSIDE
100
AcDbCircle
 10
66.4987511838
 20
33.8032380996
 30
0.0
 40
0.0393700787401627
100
AcDbArc
 50
90.0
 51
180.0
  0
ARC
  5
36D
330
1F
100
AcDbEntity
  8
PROFILES_OUTSIDE
100
AcDbCircle
 10
80.3748123686
 20
18.7087698819
 30
0.0
 40
0.0393700787401592
100
AcDbArc
 50
3.6619355755
 51
90.0
  0
ARC
  5
36E
330
1F
100
AcDbEntity
  8
PROFILES_OUTSIDE
100
AcDbCircle
 10
79.7846676556
 20
18.7875100394
 30
0.0
 40
0.0393700787401641
100
AcDbArc
 50
245.1121079736
 51
270.0
  0
ARC
  5
36F
330
1F
100
AcDbEntity
  8
PROFILES_OUTSIDE
100
AcDbCircle
 10
79.6824389846
 20
18.5671552985
 30
0.0
 40
0.2035433070866079
100
AcDbArc
 50
65.1121079736
 51
252.3995332141
  0
ARC
  5
370
330
1F
100
AcDbEntity
  8
PROFILES_OUTSIDE
100
AcDbCircle
 10
79.6089874043
 20
18.3356131245
 30
0.0
 40
0.0393700787401627
100
AcDbArc
 50
0.0
 51
72.3995332142
  0
ARC
  5
371
330
1F
100
AcDbEntity
  8
PROFILES_OUTSIDE
100
AcDbCircle
 10
75.0026881917
 20
18.7283761811
 30
0.0
 40
0.472440944881896
100
AcDbArc
 50
180.0
 51
270.0
  0
ARC
  5
372
330
1F
100
AcDbEntity
  8
PROFILES_OUTSIDE
100
AcDbCircle
 10
74.057806302
 20
23.2185794978
 30
0.0
 40
0.4724409448818854
100
AcDbArc
 50
0.0
 51
90.0
  0
ARC
  5
373
330
1F
100
AcDbEntity
  8
PROFILES_OUTSIDE
100
AcDbCircle
 10
73.0341842547
 20
23.2185794978
 30
0.0
 40
0.472440944881896
100
AcDbArc
 50
90.0
 51
180.0
  0
ARC
  5
374
330
1F
100
AcDbEntity
  8
PROFILES_OUTSIDE
100
AcDbCircle
 10
72.0893023649
 20
18.7283761811
 30
0.0
 40
0.4724409448818889
100
AcDbArc
 50
270.0
 51
0.0
  0
ARC
  5
375
330
1F
100
AcDbEntity
  8
PROFILES_OUTSIDE
100
AcDbCircle
 10
67.4830031524
 20
18.3356131245
 30
0.0
 40
0.0393700787401569
100
AcDbArc
 50
107.6004667859
 51
180.0
  0
ARC
  5
376
330
1F
100
AcDbEntity
  8
PROFILES_OUTSIDE
100
AcDbCircle
 10
67.4095515721
 20
18.5671552985
 30
0.0
 40
0.2035433070866172
100
AcDbArc
 50
287.6004667859
 51
114.8878920264
  0
ARC
  5
377
330
1F
100
AcDbEntity
  8
PROFILES_OUTSIDE
100
AcDbCircle
 10
67.307322901
 20
18.7875100394
 30
0.0
 40
0.0393700787401556
100
AcDbArc
 50
270.0
 51
294.8878920264
  0
ARC
  5
378
330
1F
100
AcDbEntity
  8
PROFILES_OUTSIDE
100
AcDbCircle
 10
66.7171781881
 20
18.7087698819
 30
0.0
 40
0.039370078740159
100
AcDbArc
 50
90.0
 51
176.3380644245
  0
ARC
  5
379
330
1F
100
AcDbEntity
  8
PROFILES_OUTSIDE
100
AcDbCircle
 10
66.6956015775
 20
19.0040454725
 30
0.0
 40
0.236220472440948
100
AcDbArc
 50
90.0
 51
180.0
  0
ARC
  5
37A
330
1F
100
AcDbEntity
  8
PROFILES_OUTSIDE
100
AcDbCircle
 10
80.5932393728
 20
33.8032380996
 30
0.0
 40
0.0393700787401556
100
AcDbArc
 50
0.0
 51
90.0
  0
ARC
  5
37B
330
1F
100
AcDbEntity
  8
PROFILES_OUTSIDE
100
AcDbCircle
 10
72.5617433098
 20
23.6910204427
 30
0.0
 40
0.75
100
AcDbArc
 50
120.0
 51
180.0
  0
ARC
  5
37C
330
1F
100
AcDbEntity
  8
PROFILES_OUTSIDE
100
AcDbCircle
 10
71.8117433098
 20
24.9900585483
 30
0.0
 40
0.75
100
AcDbArc
 50
300.0
 51
0.0
  0
ARC
  5
37D
330
1F
100
AcDbEntity
  8
PROFILES_OUTSIDE
100
AcDbCircle
 10
71.8117433098
 20
27.3546265985
 30
0.0
 40
0.75
100
AcDbArc
 50
0.0
 51
60.0
  0
ARC
  5
37E
330
1F
100
AcDbEntity
  8
PROFILES_OUTSIDE
100
AcDbCircle
 10
72.5617433098
 20
28.6536647042
 30
0.0
 40
0.75
100
AcDbArc
 50
180.0
 51
240.0
  0
ARC
  5
37F
330
1F
100
AcDbEntity
  8
PROFILES_OUTSIDE
100
AcDbCircle
 10
66.6956015775
 20
33.3406396744
 30
0.0
 40
0.236220472440948
100
AcDbArc
 50
180.0
 51
270.0
  0
ARC
  5
380
330
1F
100
AcDbEntity
  8
PROFILES_OUTSIDE
100
AcDbCircle
 10
75.7526881917
 20
32.6319782571
 30
0.0
 40
0.472440944881896
100
AcDbArc
 50
90.0
 51
180.0
  0
ARC
  5
381
330
1F
100
AcDbEntity
  8
PROFILES_OUTSIDE
100
AcDbCircle
 10
66.7171781881
 20
33.6359152649
 30
0.0
 40
0.0393700787401585
100
AcDbArc
 50
183.6619355755
 51
270.0
  0
ARC
  5
382
330
1F
100
AcDbEntity
  8
PROFILES_OUTSIDE
100
AcDbCircle
 10
67.307322901
 20
33.5571751074
 30
0.0
 40
0.0393700787401627
100
AcDbArc
 50
65.1121079736
 51
90.0
  0
ARC
  5
383
330
1F
100
AcDbEntity
  8
PROFILES_OUTSIDE
100
AcDbCircle
 10
67.4095515721
 20
33.7775298483
 30
0.0
 40
0.2035433070866139
100
AcDbArc
 50
245.1121079736
 51
72.3995332141
  0
ARC
  5
384
330
1F
100
AcDbEntity
  8
PROFILES_OUTSIDE
100
AcDbCircle
 10
67.4830031524
 20
34.0090720224
 30
0.0
 40
0.0393700787401569
100
AcDbArc
 50
180.0
 51
252.3995332141
  0
ARC
  5
385
330
1F
100
AcDbEntity
  8
PROFILES_OUTSIDE
100
AcDbCircle
 10
72.0893023649
 20
33.6163089657
 30
0.0
 40
0.4724409448818889
100
AcDbArc
 50
0.0
 51
90.0
  0
ARC
  5
386
330
1F
100
AcDbEntity
  8
PROFILES_OUTSIDE
100
AcDbCircle
 10
73.0341842547
 20
29.1261056491
 30
0.0
 40
0.472440944881896
100
AcDbArc
 50
180.0
 51
270.0
  0
ARC
  5
387
330
1F
100
AcDbEntity
  8
PROFILES_OUTSIDE
100
AcDbCircle
 10
74.057806302
 20
29.1261056491
 30
0.0
 40
0.4724409448818889
100
AcDbArc
 50
270.0
 51
0.0
  0
ARC
  5
388
330
1F
100
AcDbEntity
  8
PROFILES_OUTSIDE
100
AcDbCircle
 10
75.0026881917
 20
33.6163089657
 30
0.0
 40
0.472440944881896
100
AcDbArc
 50
90.0
 51
180.0
  0
ARC
  5
389
330
1F
100
AcDbEntity
  8
PROFILES_OUTSIDE
100
AcDbCircle
 10
79.6089874043
 20
34.0090720224
 30
0.0
 40
0.0393700787401627
100
AcDbArc
 50
287.6004667858
 51
0.0
  0
ARC
  5
38A
330
1F
100
AcDbEntity
  8
PROFILES_OUTSIDE
100
AcDbCircle
 10
79.6824389846
 20
33.7775298483
 30
0.0
 40
0.2035433070866173
100
AcDbArc
 50
107.6004667859
 51
294.8878920264
  0
ARC
  5
38B
330
1F
100
AcDbEntity
  8
PROFILES_OUTSIDE
100
AcDbCircle
 10
79.7846676556
 20
33.5571751074
 30
0.0
 40
0.0393700787401576
100
AcDbArc
 50
90.0
 51
114.8878920264
  0
ARC
  5
38C
330
1F
100
AcDbEntity
  8
PROFILES_OUTSIDE
100
AcDbCircle
 10
80.3748123686
 20
33.6359152649
 30
0.0
 40
0.039370078740159
100
AcDbArc
 50
270.0
 51
356.3380644245
  0
ARC
  5
38D
330
1F
100
AcDbEntity
  8
PROFILES_OUTSIDE
100
AcDbCircle
 10
80.3963889791
 20
33.3406396744
 30
0.0
 40
0.236220472440948
100
AcDbArc
 50
270.0
 51
0.0
  0
ARC
  5
38E
330
1F
100
AcDbEntity
  8
PROFILES_OUTSIDE
100
AcDbCircle
 10
75.7526881917
 20
19.7127068898
 30
0.0
 40
0.472440944881896
100
AcDbArc
 50
180.0
 51
270.0
  0
ARC
  5
38F
330
1F
100
AcDbEntity
  8
PROFILES_OUTSIDE
100
AcDbCircle
 10
74.5302472468
 20
28.6536647042
 30
0.0
 40
0.75
100
AcDbArc
 50
300.0
 51
0.0
  0
ARC
  5
390
330
1F
100
AcDbEntity
  8
PROFILES_OUTSIDE
100
AcDbCircle
 10
75.2802472468
 20
27.3546265985
 30
0.0
 40
0.75
100
AcDbArc
 50
120.0
 51
180.0
  0
ARC
  5
391
330
1F
100
AcDbEntity
  8
PROFILES_OUTSIDE
100
AcDbCircle
 10
75.2802472468
 20
24.9900585483
 30
0.0
 40
0.75
100
AcDbArc
 50
180.0
 51
240.0
  0
ARC
  5
392
330
1F
100
AcDbEntity
  8
PROFILES_OUTSIDE
100
AcDbCircle
 10
74.5302472468
 20
23.6910204427
 30
0.0
 40
0.7500000000000031
100
AcDbArc
 50
0.0
 51
60.0
  0
ARC
  5
393
330
1F
100
AcDbEntity
  8
PROFILES_OUTSIDE
100
AcDbCircle
 10
80.3963889791
 20
19.0040454725
 30
0.0
 40
0.236220472440948
100
AcDbArc
 50
0.0
 51
90.0
  0
ARC
  5
394
330
1F
100
AcDbEntity
  8
PROFILES_OUTSIDE
100
AcDbCircle
 10
80.5932393728
 20
18.5414470473
 30
0.0
 40
0.0393700787401556
100
AcDbArc
 50
270.0
 51
0.0
  0
ENDSEC
  0
SECTION
  2
OBJECTS
  0
DICTIONARY
  5
C
330
0
100
AcDbDictionary
  3
ACAD_GROUP
350
D
  3
ACAD_MLINESTYLE
350
17
  3
ACAD_SCALELIST
350
47
  0
DICTIONARY
  5
D
102
{ACAD_REACTORS
330
C
102
}
330
C
100
AcDbDictionary
  0
DICTIONARY
  5
17
102
{ACAD_REACTORS
330
C
102
}
330
C
100
AcDbDictionary
  3
STANDARD
350
18
  0
DICTIONARY
  5
47
102
{ACAD_REACTORS
330
C
102
}
330
C
100
AcDbDictionary
  0
MLINESTYLE
  5
18
102
{ACAD_REACTORS
330
17
102
}
330
17
100
AcDbMlineStyle
  2
Standard
 70
     0
  3

 62
   256
 51
90.0
 52
90.0
 71
     2
 49
0.5
 62
   256
  6
BYLAYER
 49
-0.5
 62
   256
  6
BYLAYER
  0
ENDSEC
  0
EOF
